G75*
G70*
%OFA0B0*%
%FSLAX24Y24*%
%IPPOS*%
%LPD*%
%AMOC8*
5,1,8,0,0,1.08239X$1,22.5*
%
%ADD10OC8,0.0600*%
%ADD11C,0.0600*%
%ADD12C,0.2300*%
%ADD13C,0.0768*%
%ADD14C,0.0310*%
%ADD15C,0.0120*%
%ADD16C,0.0060*%
%ADD17C,0.0160*%
%ADD18C,0.1000*%
D10*
X005060Y001281D03*
X005060Y002281D03*
X006060Y002281D03*
X007060Y002281D03*
X008060Y002281D03*
X009060Y002281D03*
X010060Y002281D03*
X011060Y002281D03*
X012060Y002281D03*
X012060Y001281D03*
X011060Y001281D03*
X010060Y001281D03*
X009060Y001281D03*
X008060Y001281D03*
X007060Y001281D03*
X006060Y001281D03*
X013777Y001281D03*
X013777Y002281D03*
X014777Y002281D03*
X015777Y002281D03*
X016777Y002281D03*
X017777Y002281D03*
X018777Y002281D03*
X019777Y002281D03*
X020777Y002281D03*
X020777Y001281D03*
X019777Y001281D03*
X018777Y001281D03*
X017777Y001281D03*
X016777Y001281D03*
X015777Y001281D03*
X014777Y001281D03*
X023663Y004848D03*
X024663Y004848D03*
X024663Y005848D03*
X024663Y006848D03*
X023663Y006848D03*
X023663Y005848D03*
X023663Y007848D03*
X024663Y007848D03*
X024663Y008848D03*
X023663Y008848D03*
X023663Y009848D03*
X024663Y009848D03*
X024663Y010848D03*
X024663Y011848D03*
X023663Y011848D03*
X023663Y010848D03*
X023663Y012848D03*
X024663Y012848D03*
X017506Y011506D03*
D11*
X013814Y014800D02*
X013814Y015400D01*
X012814Y015400D02*
X012814Y014800D01*
X011814Y014800D02*
X011814Y015400D01*
X010526Y015405D02*
X010526Y014805D01*
X009526Y014805D02*
X009526Y015405D01*
X008526Y015405D02*
X008526Y014805D01*
X020456Y004631D02*
X021056Y004631D01*
X021056Y003631D02*
X020456Y003631D01*
D12*
X023753Y002100D03*
X023753Y017848D03*
X002100Y017848D03*
X002100Y002100D03*
D13*
X002326Y005048D02*
X001558Y005048D01*
X001558Y006509D02*
X002326Y006509D01*
X002326Y007887D02*
X001558Y007887D01*
X001558Y009265D02*
X002326Y009265D01*
X002326Y010643D02*
X001558Y010643D01*
D14*
X000756Y012881D03*
X003256Y013881D03*
X004381Y012194D03*
X004381Y010819D03*
X007631Y013506D03*
X007631Y014756D03*
X008631Y016381D03*
X007381Y017381D03*
X008381Y017756D03*
X009256Y017881D03*
X010631Y017131D03*
X012006Y016506D03*
X013631Y018006D03*
X017131Y015506D03*
X018006Y013881D03*
X017506Y013256D03*
X017006Y011756D03*
X016506Y011756D03*
X016506Y011006D03*
X017006Y011006D03*
X017381Y010756D03*
X017381Y010131D03*
X017006Y010006D03*
X015881Y009506D03*
X015381Y010131D03*
X014756Y010381D03*
X014506Y011256D03*
X014344Y012006D03*
X014506Y012881D03*
X014131Y014006D03*
X012756Y012131D03*
X012756Y011381D03*
X013031Y010256D03*
X012381Y010256D03*
X013381Y009506D03*
X012969Y008881D03*
X013969Y008881D03*
X014756Y008131D03*
X015131Y007756D03*
X015619Y008131D03*
X015131Y008756D03*
X014506Y007131D03*
X014256Y006631D03*
X013881Y006381D03*
X014256Y006131D03*
X013881Y005881D03*
X013881Y007006D03*
X013131Y006881D03*
X010881Y006756D03*
X010631Y007131D03*
X010131Y007381D03*
X009631Y007381D03*
X010506Y006006D03*
X010131Y005131D03*
X011131Y004881D03*
X011631Y004881D03*
X009131Y004006D03*
X008469Y004331D03*
X007131Y004756D03*
X006256Y004881D03*
X004256Y006881D03*
X007169Y007131D03*
X008131Y010006D03*
X009506Y010506D03*
X009756Y010131D03*
X010506Y010131D03*
X010256Y010756D03*
X010881Y011256D03*
X011756Y012844D03*
X009881Y013506D03*
X008506Y011631D03*
X011256Y009506D03*
X016756Y006381D03*
X017131Y006131D03*
X016756Y005881D03*
X017131Y006631D03*
X017131Y007006D03*
X017469Y007256D03*
X017756Y007506D03*
X017256Y007756D03*
X017381Y008381D03*
X017256Y008756D03*
X018006Y008756D03*
X018381Y008881D03*
X018756Y008756D03*
X019131Y008881D03*
X019131Y007881D03*
X018756Y007881D03*
X019756Y007131D03*
X019881Y005506D03*
X019131Y005506D03*
X018756Y005506D03*
X018273Y005502D03*
X019631Y004131D03*
X020006Y003256D03*
X022756Y004631D03*
X022881Y003881D03*
X021756Y005756D03*
X021756Y006881D03*
X021756Y008381D03*
X021756Y009506D03*
X020319Y009506D03*
X021756Y010881D03*
X021756Y012381D03*
X022256Y012381D03*
X022256Y012881D03*
X021756Y012881D03*
X021756Y013381D03*
X022256Y013381D03*
X022256Y013881D03*
X021756Y013881D03*
X021131Y013881D03*
X021131Y013381D03*
X020631Y013381D03*
X020631Y013881D03*
X020631Y012881D03*
X020631Y012381D03*
X021131Y012381D03*
X021131Y012881D03*
X019006Y011756D03*
X018381Y011756D03*
X020006Y015006D03*
X021381Y016656D03*
X020631Y017256D03*
X018631Y019006D03*
X022881Y015756D03*
X023631Y015381D03*
X024881Y015631D03*
X015194Y004994D03*
X005256Y015131D03*
X005381Y015881D03*
X004631Y015881D03*
X000756Y015131D03*
D15*
X012756Y012131D02*
X012756Y011381D01*
X018006Y013881D02*
X019131Y015006D01*
X020006Y015006D01*
X020131Y014695D02*
X020196Y014722D01*
X020230Y014756D01*
X022756Y014756D01*
X022756Y011756D01*
X020131Y011756D01*
X020131Y014695D01*
X020171Y014712D02*
X022756Y014712D01*
X022756Y014593D02*
X020131Y014593D01*
X020131Y014475D02*
X022756Y014475D01*
X022756Y014356D02*
X020131Y014356D01*
X020131Y014238D02*
X022756Y014238D01*
X022756Y014119D02*
X020131Y014119D01*
X020131Y014001D02*
X022756Y014001D01*
X022756Y013882D02*
X020131Y013882D01*
X020131Y013764D02*
X022756Y013764D01*
X022756Y013645D02*
X020131Y013645D01*
X020131Y013526D02*
X022756Y013526D01*
X022756Y013408D02*
X020131Y013408D01*
X020131Y013289D02*
X022756Y013289D01*
X022756Y013171D02*
X020131Y013171D01*
X020131Y013052D02*
X022756Y013052D01*
X022756Y012934D02*
X020131Y012934D01*
X020131Y012815D02*
X022756Y012815D01*
X022756Y012697D02*
X020131Y012697D01*
X020131Y012578D02*
X022756Y012578D01*
X022756Y012460D02*
X020131Y012460D01*
X020131Y012341D02*
X022756Y012341D01*
X022756Y012222D02*
X020131Y012222D01*
X020131Y012104D02*
X022756Y012104D01*
X022756Y011985D02*
X020131Y011985D01*
X020131Y011867D02*
X022756Y011867D01*
X011631Y004881D02*
X011631Y003381D01*
X011131Y002881D01*
X008381Y002881D01*
X008060Y002560D01*
X008060Y002281D01*
X007060Y002281D02*
X007060Y002685D01*
X007506Y003131D01*
X010756Y003131D01*
X011131Y003506D01*
X011131Y004881D01*
D16*
X000361Y000361D02*
X000361Y019586D01*
X025492Y019586D01*
X025492Y000361D01*
X000361Y000361D01*
X000361Y000365D02*
X025492Y000365D01*
X025492Y000424D02*
X000361Y000424D01*
X000361Y000482D02*
X025492Y000482D01*
X025492Y000541D02*
X000361Y000541D01*
X000361Y000599D02*
X025492Y000599D01*
X025492Y000658D02*
X000361Y000658D01*
X000361Y000716D02*
X004427Y000716D01*
X004422Y000719D02*
X004489Y000691D01*
X004535Y000691D01*
X004579Y000680D01*
X004651Y000691D01*
X005178Y000691D01*
X006178Y000691D01*
X006514Y000691D01*
X007178Y000691D01*
X008178Y000691D01*
X009178Y000691D01*
X010178Y000691D01*
X011178Y000691D01*
X012178Y000691D01*
X012394Y000780D01*
X012560Y000946D01*
X012650Y001163D01*
X012650Y001398D01*
X012560Y001615D01*
X012394Y001781D01*
X012178Y001871D01*
X011178Y001871D01*
X010178Y001871D01*
X009178Y001871D01*
X008178Y001871D01*
X007178Y001871D01*
X006676Y001871D01*
X006676Y002113D01*
X006899Y001891D01*
X007222Y001891D01*
X007450Y002119D01*
X007450Y002442D01*
X007240Y002653D01*
X007568Y002981D01*
X008269Y002981D01*
X008231Y002943D01*
X007958Y002671D01*
X007899Y002671D01*
X007670Y002442D01*
X007670Y002119D01*
X007899Y001891D01*
X008222Y001891D01*
X008450Y002119D01*
X008450Y002442D01*
X008302Y002590D01*
X008443Y002731D01*
X011069Y002731D01*
X011193Y002731D01*
X011693Y003231D01*
X011781Y003319D01*
X011781Y004685D01*
X011839Y004742D01*
X011876Y004832D01*
X011876Y004930D01*
X011839Y005020D01*
X011770Y005089D01*
X011680Y005126D01*
X011582Y005126D01*
X011492Y005089D01*
X011423Y005020D01*
X011386Y004930D01*
X011386Y004832D01*
X011423Y004742D01*
X011481Y004685D01*
X011481Y003443D01*
X011069Y003031D01*
X010868Y003031D01*
X011193Y003356D01*
X011281Y003444D01*
X011281Y004685D01*
X011339Y004742D01*
X011376Y004832D01*
X011376Y004930D01*
X011339Y005020D01*
X011270Y005089D01*
X011180Y005126D01*
X011082Y005126D01*
X010992Y005089D01*
X010923Y005020D01*
X010886Y004930D01*
X010886Y004832D01*
X010923Y004742D01*
X010981Y004685D01*
X010981Y003568D01*
X010694Y003281D01*
X007444Y003281D01*
X007356Y003193D01*
X006910Y002747D01*
X006910Y002671D01*
X006899Y002671D01*
X006676Y002448D01*
X006676Y002696D01*
X007588Y003836D01*
X008955Y003836D01*
X008992Y003798D01*
X009082Y003761D01*
X009180Y003761D01*
X009270Y003798D01*
X009339Y003867D01*
X009376Y003957D01*
X009376Y004055D01*
X009339Y004145D01*
X009270Y004214D01*
X009180Y004251D01*
X009082Y004251D01*
X008992Y004214D01*
X008955Y004176D01*
X007566Y004176D01*
X007557Y004183D01*
X007497Y004176D01*
X007436Y004176D01*
X007428Y004168D01*
X007417Y004167D01*
X007379Y004120D01*
X007336Y004076D01*
X007336Y004066D01*
X006379Y002870D01*
X006336Y002826D01*
X006336Y002816D01*
X006329Y002807D01*
X006336Y002747D01*
X006336Y002556D01*
X006222Y002671D01*
X005899Y002671D01*
X005670Y002442D01*
X005670Y002119D01*
X005899Y001891D01*
X006222Y001891D01*
X006336Y002005D01*
X006336Y001871D01*
X006178Y001871D01*
X005178Y001871D01*
X004800Y001871D01*
X004721Y001929D01*
X004721Y002068D01*
X004899Y001891D01*
X005222Y001891D01*
X005450Y002119D01*
X005450Y002442D01*
X005222Y002671D01*
X004899Y002671D01*
X004721Y002493D01*
X004721Y003514D01*
X004721Y003748D01*
X004631Y003965D01*
X003048Y005549D01*
X002831Y005638D01*
X002596Y005638D01*
X001825Y005638D01*
X001608Y005549D01*
X001581Y005522D01*
X001464Y005522D01*
X001290Y005450D01*
X001156Y005317D01*
X001128Y005249D01*
X000926Y005451D01*
X000926Y012705D01*
X000964Y012742D01*
X001001Y012832D01*
X001001Y012930D01*
X000964Y013020D01*
X000895Y013089D01*
X000805Y013126D01*
X000707Y013126D01*
X000617Y013089D01*
X000548Y013020D01*
X000511Y012930D01*
X000511Y012832D01*
X000548Y012742D01*
X000586Y012705D01*
X000586Y005451D01*
X000586Y005311D01*
X000961Y004936D01*
X001061Y004836D01*
X001133Y004836D01*
X001156Y004780D01*
X001290Y004647D01*
X001464Y004574D01*
X001581Y004574D01*
X001608Y004548D01*
X001825Y004458D01*
X002469Y004458D01*
X003541Y003387D01*
X003541Y001703D01*
X003530Y001659D01*
X003541Y001587D01*
X003541Y001514D01*
X003558Y001472D01*
X003565Y001427D01*
X003603Y001364D01*
X003631Y001297D01*
X003663Y001265D01*
X003686Y001226D01*
X003745Y001182D01*
X003797Y001131D01*
X003839Y001113D01*
X004221Y000832D01*
X004272Y000780D01*
X004314Y000763D01*
X004351Y000736D01*
X004422Y000719D01*
X004285Y000775D02*
X000361Y000775D01*
X000361Y000834D02*
X001903Y000834D01*
X001911Y000832D02*
X002037Y000820D01*
X002070Y000819D01*
X002070Y002069D01*
X002129Y002069D01*
X002129Y000820D01*
X002162Y000820D01*
X002288Y000832D01*
X002411Y000856D01*
X002531Y000893D01*
X002647Y000941D01*
X002758Y001000D01*
X002863Y001070D01*
X002960Y001150D01*
X003049Y001239D01*
X003129Y001336D01*
X003199Y001441D01*
X003258Y001552D01*
X003306Y001668D01*
X003343Y001788D01*
X003367Y001911D01*
X003379Y002037D01*
X003379Y002070D01*
X002130Y002070D01*
X002130Y002129D01*
X003379Y002129D01*
X003379Y002162D01*
X003367Y002288D01*
X003343Y002411D01*
X003306Y002531D01*
X003258Y002647D01*
X003199Y002758D01*
X003129Y002863D01*
X003049Y002960D01*
X002960Y003049D01*
X002863Y003129D01*
X002758Y003199D01*
X002647Y003258D01*
X002531Y003306D01*
X002411Y003343D01*
X002288Y003367D01*
X002162Y003379D01*
X002129Y003379D01*
X002129Y002130D01*
X002070Y002130D01*
X002070Y003379D01*
X002037Y003379D01*
X001911Y003367D01*
X001788Y003343D01*
X001668Y003306D01*
X001552Y003258D01*
X001441Y003199D01*
X001336Y003129D01*
X001239Y003049D01*
X001150Y002960D01*
X001070Y002863D01*
X001000Y002758D01*
X000941Y002647D01*
X000893Y002531D01*
X000856Y002411D01*
X000832Y002288D01*
X000820Y002162D01*
X000820Y002129D01*
X002069Y002129D01*
X002069Y002070D01*
X000820Y002070D01*
X000820Y002037D01*
X000832Y001911D01*
X000856Y001788D01*
X000893Y001668D01*
X000941Y001552D01*
X001000Y001441D01*
X001070Y001336D01*
X001150Y001239D01*
X001239Y001150D01*
X001336Y001070D01*
X001441Y001000D01*
X001552Y000941D01*
X001668Y000893D01*
X001788Y000856D01*
X001911Y000832D01*
X002070Y000834D02*
X002129Y000834D01*
X002129Y000892D02*
X002070Y000892D01*
X002070Y000951D02*
X002129Y000951D01*
X002129Y001009D02*
X002070Y001009D01*
X002070Y001068D02*
X002129Y001068D01*
X002129Y001126D02*
X002070Y001126D01*
X002070Y001185D02*
X002129Y001185D01*
X002129Y001243D02*
X002070Y001243D01*
X002070Y001302D02*
X002129Y001302D01*
X002129Y001360D02*
X002070Y001360D01*
X002070Y001419D02*
X002129Y001419D01*
X002129Y001478D02*
X002070Y001478D01*
X002070Y001536D02*
X002129Y001536D01*
X002129Y001595D02*
X002070Y001595D01*
X002070Y001653D02*
X002129Y001653D01*
X002129Y001712D02*
X002070Y001712D01*
X002070Y001770D02*
X002129Y001770D01*
X002129Y001829D02*
X002070Y001829D01*
X002070Y001887D02*
X002129Y001887D01*
X002129Y001946D02*
X002070Y001946D01*
X002070Y002004D02*
X002129Y002004D01*
X002129Y002063D02*
X002070Y002063D01*
X002069Y002121D02*
X000361Y002121D01*
X000361Y002063D02*
X000820Y002063D01*
X000823Y002004D02*
X000361Y002004D01*
X000361Y001946D02*
X000828Y001946D01*
X000837Y001887D02*
X000361Y001887D01*
X000361Y001829D02*
X000848Y001829D01*
X000862Y001770D02*
X000361Y001770D01*
X000361Y001712D02*
X000880Y001712D01*
X000899Y001653D02*
X000361Y001653D01*
X000361Y001595D02*
X000923Y001595D01*
X000949Y001536D02*
X000361Y001536D01*
X000361Y001478D02*
X000981Y001478D01*
X001015Y001419D02*
X000361Y001419D01*
X000361Y001360D02*
X001054Y001360D01*
X001098Y001302D02*
X000361Y001302D01*
X000361Y001243D02*
X001146Y001243D01*
X001204Y001185D02*
X000361Y001185D01*
X000361Y001126D02*
X001268Y001126D01*
X001340Y001068D02*
X000361Y001068D01*
X000361Y001009D02*
X001427Y001009D01*
X001534Y000951D02*
X000361Y000951D01*
X000361Y000892D02*
X001670Y000892D01*
X002296Y000834D02*
X004219Y000834D01*
X004139Y000892D02*
X002529Y000892D01*
X002665Y000951D02*
X004060Y000951D01*
X003980Y001009D02*
X002772Y001009D01*
X002859Y001068D02*
X003901Y001068D01*
X003808Y001126D02*
X002931Y001126D01*
X002995Y001185D02*
X003742Y001185D01*
X003676Y001243D02*
X003053Y001243D01*
X003101Y001302D02*
X003629Y001302D01*
X003604Y001360D02*
X003145Y001360D01*
X003184Y001419D02*
X003570Y001419D01*
X003556Y001478D02*
X003218Y001478D01*
X003250Y001536D02*
X003541Y001536D01*
X003540Y001595D02*
X003276Y001595D01*
X003300Y001653D02*
X003531Y001653D01*
X003541Y001712D02*
X003319Y001712D01*
X003337Y001770D02*
X003541Y001770D01*
X003541Y001829D02*
X003351Y001829D01*
X003362Y001887D02*
X003541Y001887D01*
X003541Y001946D02*
X003371Y001946D01*
X003376Y002004D02*
X003541Y002004D01*
X003541Y002063D02*
X003379Y002063D01*
X003378Y002180D02*
X003541Y002180D01*
X003541Y002121D02*
X002130Y002121D01*
X002129Y002180D02*
X002070Y002180D01*
X002070Y002239D02*
X002129Y002239D01*
X002129Y002297D02*
X002070Y002297D01*
X002070Y002356D02*
X002129Y002356D01*
X002129Y002414D02*
X002070Y002414D01*
X002070Y002473D02*
X002129Y002473D01*
X002129Y002531D02*
X002070Y002531D01*
X002070Y002590D02*
X002129Y002590D01*
X002129Y002648D02*
X002070Y002648D01*
X002070Y002707D02*
X002129Y002707D01*
X002129Y002765D02*
X002070Y002765D01*
X002070Y002824D02*
X002129Y002824D01*
X002129Y002883D02*
X002070Y002883D01*
X002070Y002941D02*
X002129Y002941D01*
X002129Y003000D02*
X002070Y003000D01*
X002070Y003058D02*
X002129Y003058D01*
X002129Y003117D02*
X002070Y003117D01*
X002070Y003175D02*
X002129Y003175D01*
X002129Y003234D02*
X002070Y003234D01*
X002070Y003292D02*
X002129Y003292D01*
X002129Y003351D02*
X002070Y003351D01*
X001830Y003351D02*
X000361Y003351D01*
X000361Y003409D02*
X003518Y003409D01*
X003541Y003351D02*
X002369Y003351D01*
X002564Y003292D02*
X003541Y003292D01*
X003541Y003234D02*
X002693Y003234D01*
X002793Y003175D02*
X003541Y003175D01*
X003541Y003117D02*
X002878Y003117D01*
X002949Y003058D02*
X003541Y003058D01*
X003541Y003000D02*
X003010Y003000D01*
X003065Y002941D02*
X003541Y002941D01*
X003541Y002883D02*
X003113Y002883D01*
X003155Y002824D02*
X003541Y002824D01*
X003541Y002765D02*
X003194Y002765D01*
X003226Y002707D02*
X003541Y002707D01*
X003541Y002648D02*
X003258Y002648D01*
X003282Y002590D02*
X003541Y002590D01*
X003541Y002531D02*
X003306Y002531D01*
X003324Y002473D02*
X003541Y002473D01*
X003541Y002414D02*
X003342Y002414D01*
X003354Y002356D02*
X003541Y002356D01*
X003541Y002297D02*
X003365Y002297D01*
X003372Y002239D02*
X003541Y002239D01*
X004721Y002063D02*
X004726Y002063D01*
X004721Y002004D02*
X004785Y002004D01*
X004843Y001946D02*
X004721Y001946D01*
X004778Y001887D02*
X006336Y001887D01*
X006336Y001946D02*
X006277Y001946D01*
X006335Y002004D02*
X006336Y002004D01*
X006676Y002004D02*
X006785Y002004D01*
X006843Y001946D02*
X006676Y001946D01*
X006676Y001887D02*
X022490Y001887D01*
X022485Y001911D02*
X022510Y001788D01*
X022546Y001668D01*
X022595Y001552D01*
X022654Y001441D01*
X022724Y001336D01*
X022804Y001239D01*
X022892Y001150D01*
X022990Y001070D01*
X023094Y001000D01*
X023205Y000941D01*
X023321Y000893D01*
X023442Y000856D01*
X023565Y000832D01*
X023690Y000820D01*
X023723Y000819D01*
X023723Y002069D01*
X023783Y002069D01*
X023783Y000820D01*
X023816Y000820D01*
X023941Y000832D01*
X024064Y000856D01*
X024185Y000893D01*
X024301Y000941D01*
X024412Y001000D01*
X024516Y001070D01*
X024614Y001150D01*
X024703Y001239D01*
X024782Y001336D01*
X024852Y001441D01*
X024912Y001552D01*
X024960Y001668D01*
X024996Y001788D01*
X025021Y001911D01*
X025033Y002037D01*
X025033Y002070D01*
X023783Y002070D01*
X023783Y002129D01*
X025033Y002129D01*
X025033Y002162D01*
X025021Y002288D01*
X024996Y002411D01*
X024960Y002531D01*
X024912Y002647D01*
X024852Y002758D01*
X024782Y002863D01*
X024703Y002960D01*
X024614Y003049D01*
X024516Y003129D01*
X024412Y003199D01*
X024301Y003258D01*
X024185Y003306D01*
X024064Y003343D01*
X023941Y003367D01*
X023816Y003379D01*
X023783Y003379D01*
X023783Y002130D01*
X023723Y002130D01*
X023723Y003379D01*
X023690Y003379D01*
X023565Y003367D01*
X023442Y003343D01*
X023321Y003306D01*
X023205Y003258D01*
X023094Y003199D01*
X022990Y003129D01*
X022892Y003049D01*
X022804Y002960D01*
X022724Y002863D01*
X022654Y002758D01*
X022595Y002647D01*
X022546Y002531D01*
X022510Y002411D01*
X022485Y002288D01*
X022473Y002162D01*
X022473Y002129D01*
X023723Y002129D01*
X023723Y002070D01*
X022473Y002070D01*
X022473Y002037D01*
X022485Y001911D01*
X022482Y001946D02*
X020993Y001946D01*
X020938Y001891D02*
X021167Y002119D01*
X021167Y002442D01*
X020938Y002671D01*
X020615Y002671D01*
X020387Y002442D01*
X020387Y002119D01*
X020615Y001891D01*
X020938Y001891D01*
X021052Y002004D02*
X022476Y002004D01*
X022473Y002063D02*
X021111Y002063D01*
X021167Y002121D02*
X023723Y002121D01*
X023723Y002063D02*
X023783Y002063D01*
X023783Y002121D02*
X025492Y002121D01*
X025492Y002063D02*
X025033Y002063D01*
X025030Y002004D02*
X025492Y002004D01*
X025492Y001946D02*
X025024Y001946D01*
X025016Y001887D02*
X025492Y001887D01*
X025492Y001829D02*
X025004Y001829D01*
X024991Y001770D02*
X025492Y001770D01*
X025492Y001712D02*
X024973Y001712D01*
X024954Y001653D02*
X025492Y001653D01*
X025492Y001595D02*
X024929Y001595D01*
X024903Y001536D02*
X025492Y001536D01*
X025492Y001478D02*
X024872Y001478D01*
X024838Y001419D02*
X025492Y001419D01*
X025492Y001360D02*
X024799Y001360D01*
X024754Y001302D02*
X025492Y001302D01*
X025492Y001243D02*
X024706Y001243D01*
X024649Y001185D02*
X025492Y001185D01*
X025492Y001126D02*
X024585Y001126D01*
X024513Y001068D02*
X025492Y001068D01*
X025492Y001009D02*
X024425Y001009D01*
X024319Y000951D02*
X025492Y000951D01*
X025492Y000892D02*
X024182Y000892D01*
X023950Y000834D02*
X025492Y000834D01*
X025492Y000775D02*
X012381Y000775D01*
X012447Y000834D02*
X023556Y000834D01*
X023723Y000834D02*
X023783Y000834D01*
X023783Y000892D02*
X023723Y000892D01*
X023723Y000951D02*
X023783Y000951D01*
X023783Y001009D02*
X023723Y001009D01*
X023723Y001068D02*
X023783Y001068D01*
X023783Y001126D02*
X023723Y001126D01*
X023723Y001185D02*
X023783Y001185D01*
X023783Y001243D02*
X023723Y001243D01*
X023723Y001302D02*
X023783Y001302D01*
X023783Y001360D02*
X023723Y001360D01*
X023723Y001419D02*
X023783Y001419D01*
X023783Y001478D02*
X023723Y001478D01*
X023723Y001536D02*
X023783Y001536D01*
X023783Y001595D02*
X023723Y001595D01*
X023723Y001653D02*
X023783Y001653D01*
X023783Y001712D02*
X023723Y001712D01*
X023723Y001770D02*
X023783Y001770D01*
X023783Y001829D02*
X023723Y001829D01*
X023723Y001887D02*
X023783Y001887D01*
X023783Y001946D02*
X023723Y001946D01*
X023723Y002004D02*
X023783Y002004D01*
X023783Y002180D02*
X023723Y002180D01*
X023723Y002239D02*
X023783Y002239D01*
X023783Y002297D02*
X023723Y002297D01*
X023723Y002356D02*
X023783Y002356D01*
X023783Y002414D02*
X023723Y002414D01*
X023723Y002473D02*
X023783Y002473D01*
X023783Y002531D02*
X023723Y002531D01*
X023723Y002590D02*
X023783Y002590D01*
X023783Y002648D02*
X023723Y002648D01*
X023723Y002707D02*
X023783Y002707D01*
X023783Y002765D02*
X023723Y002765D01*
X023723Y002824D02*
X023783Y002824D01*
X023783Y002883D02*
X023723Y002883D01*
X023723Y002941D02*
X023783Y002941D01*
X023783Y003000D02*
X023723Y003000D01*
X023723Y003058D02*
X023783Y003058D01*
X023783Y003117D02*
X023723Y003117D01*
X023723Y003175D02*
X023783Y003175D01*
X023783Y003234D02*
X023723Y003234D01*
X023723Y003292D02*
X023783Y003292D01*
X023783Y003351D02*
X023723Y003351D01*
X023483Y003351D02*
X021327Y003351D01*
X021277Y003300D02*
X021387Y003410D01*
X021446Y003553D01*
X021446Y003709D01*
X021387Y003852D01*
X021277Y003962D01*
X021134Y004021D01*
X020378Y004021D01*
X020235Y003962D01*
X020125Y003852D01*
X020066Y003709D01*
X020066Y003553D01*
X020125Y003410D01*
X020235Y003300D01*
X020378Y003241D01*
X021134Y003241D01*
X021277Y003300D01*
X021258Y003292D02*
X023288Y003292D01*
X023160Y003234D02*
X011696Y003234D01*
X011754Y003292D02*
X020254Y003292D01*
X020185Y003351D02*
X011781Y003351D01*
X011781Y003409D02*
X020126Y003409D01*
X020101Y003468D02*
X011781Y003468D01*
X011781Y003527D02*
X020077Y003527D01*
X020066Y003585D02*
X011781Y003585D01*
X011781Y003644D02*
X020066Y003644D01*
X020066Y003702D02*
X011781Y003702D01*
X011781Y003761D02*
X020088Y003761D01*
X020112Y003819D02*
X011781Y003819D01*
X011781Y003878D02*
X020151Y003878D01*
X020210Y003936D02*
X011781Y003936D01*
X011781Y003995D02*
X020315Y003995D01*
X020378Y004241D02*
X020235Y004300D01*
X020125Y004410D01*
X020066Y004553D01*
X020066Y004709D01*
X020125Y004852D01*
X020235Y004962D01*
X020378Y005021D01*
X021134Y005021D01*
X021277Y004962D01*
X021387Y004852D01*
X021446Y004709D01*
X021446Y004553D01*
X021387Y004410D01*
X021277Y004300D01*
X021134Y004241D01*
X020378Y004241D01*
X020266Y004288D02*
X011781Y004288D01*
X011781Y004346D02*
X020189Y004346D01*
X020131Y004405D02*
X011781Y004405D01*
X011781Y004463D02*
X020103Y004463D01*
X020079Y004522D02*
X011781Y004522D01*
X011781Y004580D02*
X020066Y004580D01*
X020066Y004639D02*
X011781Y004639D01*
X011794Y004697D02*
X020066Y004697D01*
X020086Y004756D02*
X011844Y004756D01*
X011869Y004814D02*
X020110Y004814D01*
X020146Y004873D02*
X011876Y004873D01*
X011875Y004932D02*
X020205Y004932D01*
X020304Y004990D02*
X011851Y004990D01*
X011810Y005049D02*
X022636Y005049D01*
X022636Y005107D02*
X011725Y005107D01*
X011537Y005107D02*
X011225Y005107D01*
X011310Y005049D02*
X011452Y005049D01*
X011411Y004990D02*
X011351Y004990D01*
X011375Y004932D02*
X011387Y004932D01*
X011386Y004873D02*
X011376Y004873D01*
X011369Y004814D02*
X011393Y004814D01*
X011418Y004756D02*
X011344Y004756D01*
X011294Y004697D02*
X011468Y004697D01*
X011481Y004639D02*
X011281Y004639D01*
X011281Y004580D02*
X011481Y004580D01*
X011481Y004522D02*
X011281Y004522D01*
X011281Y004463D02*
X011481Y004463D01*
X011481Y004405D02*
X011281Y004405D01*
X011281Y004346D02*
X011481Y004346D01*
X011481Y004288D02*
X011281Y004288D01*
X011281Y004229D02*
X011481Y004229D01*
X011481Y004171D02*
X011281Y004171D01*
X011281Y004112D02*
X011481Y004112D01*
X011481Y004053D02*
X011281Y004053D01*
X011281Y003995D02*
X011481Y003995D01*
X011481Y003936D02*
X011281Y003936D01*
X011281Y003878D02*
X011481Y003878D01*
X011481Y003819D02*
X011281Y003819D01*
X011281Y003761D02*
X011481Y003761D01*
X011481Y003702D02*
X011281Y003702D01*
X011281Y003644D02*
X011481Y003644D01*
X011481Y003585D02*
X011281Y003585D01*
X011281Y003527D02*
X011481Y003527D01*
X011481Y003468D02*
X011281Y003468D01*
X011247Y003409D02*
X011447Y003409D01*
X011389Y003351D02*
X011188Y003351D01*
X011129Y003292D02*
X011330Y003292D01*
X011272Y003234D02*
X011071Y003234D01*
X011012Y003175D02*
X011213Y003175D01*
X011155Y003117D02*
X010954Y003117D01*
X010895Y003058D02*
X011096Y003058D01*
X011286Y002824D02*
X022698Y002824D01*
X022659Y002765D02*
X011228Y002765D01*
X011222Y002671D02*
X010899Y002671D01*
X010670Y002442D01*
X010670Y002119D01*
X010899Y001891D01*
X011222Y001891D01*
X011450Y002119D01*
X011450Y002442D01*
X011222Y002671D01*
X011244Y002648D02*
X011876Y002648D01*
X011899Y002671D02*
X011670Y002442D01*
X011670Y002119D01*
X011899Y001891D01*
X012222Y001891D01*
X012450Y002119D01*
X012450Y002442D01*
X012222Y002671D01*
X011899Y002671D01*
X011818Y002590D02*
X011302Y002590D01*
X011361Y002531D02*
X011759Y002531D01*
X011701Y002473D02*
X011419Y002473D01*
X011450Y002414D02*
X011670Y002414D01*
X011670Y002356D02*
X011450Y002356D01*
X011450Y002297D02*
X011670Y002297D01*
X011670Y002239D02*
X011450Y002239D01*
X011450Y002180D02*
X011670Y002180D01*
X011670Y002121D02*
X011450Y002121D01*
X011394Y002063D02*
X011726Y002063D01*
X011785Y002004D02*
X011335Y002004D01*
X011277Y001946D02*
X011843Y001946D01*
X012277Y001946D02*
X013560Y001946D01*
X013615Y001891D02*
X013938Y001891D01*
X014167Y002119D01*
X014167Y002442D01*
X013938Y002671D01*
X013615Y002671D01*
X013387Y002442D01*
X013387Y002119D01*
X013615Y001891D01*
X013501Y002004D02*
X012335Y002004D01*
X012394Y002063D02*
X013443Y002063D01*
X013387Y002121D02*
X012450Y002121D01*
X012450Y002180D02*
X013387Y002180D01*
X013387Y002239D02*
X012450Y002239D01*
X012450Y002297D02*
X013387Y002297D01*
X013387Y002356D02*
X012450Y002356D01*
X012450Y002414D02*
X013387Y002414D01*
X013417Y002473D02*
X012419Y002473D01*
X012361Y002531D02*
X013476Y002531D01*
X013534Y002590D02*
X012302Y002590D01*
X012244Y002648D02*
X013593Y002648D01*
X013960Y002648D02*
X014593Y002648D01*
X014615Y002671D02*
X014387Y002442D01*
X014387Y002119D01*
X014615Y001891D01*
X014938Y001891D01*
X015167Y002119D01*
X015167Y002442D01*
X014938Y002671D01*
X014615Y002671D01*
X014534Y002590D02*
X014019Y002590D01*
X014077Y002531D02*
X014476Y002531D01*
X014417Y002473D02*
X014136Y002473D01*
X014167Y002414D02*
X014387Y002414D01*
X014387Y002356D02*
X014167Y002356D01*
X014167Y002297D02*
X014387Y002297D01*
X014387Y002239D02*
X014167Y002239D01*
X014167Y002180D02*
X014387Y002180D01*
X014387Y002121D02*
X014167Y002121D01*
X014111Y002063D02*
X014443Y002063D01*
X014501Y002004D02*
X014052Y002004D01*
X013993Y001946D02*
X014560Y001946D01*
X014599Y001711D02*
X014347Y001459D01*
X014347Y001311D01*
X014746Y001311D01*
X014746Y001251D01*
X014347Y001251D01*
X014347Y001103D01*
X014599Y000851D01*
X014747Y000851D01*
X014747Y001250D01*
X014807Y001250D01*
X014807Y000851D01*
X014955Y000851D01*
X015207Y001103D01*
X015207Y001251D01*
X014807Y001251D01*
X014807Y001311D01*
X015207Y001311D01*
X015207Y001459D01*
X014955Y001711D01*
X014807Y001711D01*
X014807Y001311D01*
X014747Y001311D01*
X014747Y001711D01*
X014599Y001711D01*
X014541Y001653D02*
X014012Y001653D01*
X013955Y001711D02*
X014207Y001459D01*
X014207Y001311D01*
X013807Y001311D01*
X013807Y001251D01*
X014207Y001251D01*
X014207Y001103D01*
X013955Y000851D01*
X013807Y000851D01*
X013807Y001250D01*
X013747Y001250D01*
X013747Y000851D01*
X013599Y000851D01*
X013347Y001103D01*
X013347Y001251D01*
X013746Y001251D01*
X013746Y001311D01*
X013347Y001311D01*
X013347Y001459D01*
X013599Y001711D01*
X013747Y001711D01*
X013747Y001311D01*
X013807Y001311D01*
X013807Y001711D01*
X013955Y001711D01*
X013807Y001653D02*
X013747Y001653D01*
X013747Y001595D02*
X013807Y001595D01*
X013807Y001536D02*
X013747Y001536D01*
X013747Y001478D02*
X013807Y001478D01*
X013807Y001419D02*
X013747Y001419D01*
X013747Y001360D02*
X013807Y001360D01*
X013807Y001302D02*
X014746Y001302D01*
X014747Y001360D02*
X014807Y001360D01*
X014807Y001302D02*
X015746Y001302D01*
X015746Y001311D02*
X015746Y001251D01*
X015347Y001251D01*
X015347Y001103D01*
X015599Y000851D01*
X015747Y000851D01*
X015747Y001250D01*
X015807Y001250D01*
X015807Y000851D01*
X015955Y000851D01*
X016207Y001103D01*
X016207Y001251D01*
X015807Y001251D01*
X015807Y001311D01*
X016207Y001311D01*
X016207Y001459D01*
X015955Y001711D01*
X015807Y001711D01*
X015807Y001311D01*
X015747Y001311D01*
X015747Y001711D01*
X015599Y001711D01*
X015347Y001459D01*
X015347Y001311D01*
X015746Y001311D01*
X015747Y001360D02*
X015807Y001360D01*
X015807Y001302D02*
X016746Y001302D01*
X016746Y001311D02*
X016746Y001251D01*
X016347Y001251D01*
X016347Y001103D01*
X016599Y000851D01*
X016747Y000851D01*
X016747Y001250D01*
X016807Y001250D01*
X016807Y000851D01*
X016955Y000851D01*
X017207Y001103D01*
X017207Y001251D01*
X016807Y001251D01*
X016807Y001311D01*
X017207Y001311D01*
X017207Y001459D01*
X016955Y001711D01*
X016807Y001711D01*
X016807Y001311D01*
X016747Y001311D01*
X016747Y001711D01*
X016599Y001711D01*
X016347Y001459D01*
X016347Y001311D01*
X016746Y001311D01*
X016747Y001360D02*
X016807Y001360D01*
X016807Y001302D02*
X017746Y001302D01*
X017746Y001311D02*
X017746Y001251D01*
X017347Y001251D01*
X017347Y001103D01*
X017599Y000851D01*
X017747Y000851D01*
X017747Y001250D01*
X017807Y001250D01*
X017807Y000851D01*
X017955Y000851D01*
X018207Y001103D01*
X018207Y001251D01*
X017807Y001251D01*
X017807Y001311D01*
X018207Y001311D01*
X018207Y001459D01*
X017955Y001711D01*
X017807Y001711D01*
X017807Y001311D01*
X017747Y001311D01*
X017747Y001711D01*
X017599Y001711D01*
X017347Y001459D01*
X017347Y001311D01*
X017746Y001311D01*
X017747Y001360D02*
X017807Y001360D01*
X017807Y001302D02*
X018746Y001302D01*
X018746Y001311D02*
X018746Y001251D01*
X018347Y001251D01*
X018347Y001103D01*
X018599Y000851D01*
X018747Y000851D01*
X018747Y001250D01*
X018807Y001250D01*
X018807Y000851D01*
X018955Y000851D01*
X019207Y001103D01*
X019207Y001251D01*
X018807Y001251D01*
X018807Y001311D01*
X019207Y001311D01*
X019207Y001459D01*
X018955Y001711D01*
X018807Y001711D01*
X018807Y001311D01*
X018747Y001311D01*
X018747Y001711D01*
X018599Y001711D01*
X018347Y001459D01*
X018347Y001311D01*
X018746Y001311D01*
X018747Y001360D02*
X018807Y001360D01*
X018807Y001302D02*
X019746Y001302D01*
X019746Y001311D02*
X019746Y001251D01*
X019347Y001251D01*
X019347Y001103D01*
X019599Y000851D01*
X019747Y000851D01*
X019747Y001250D01*
X019807Y001250D01*
X019807Y000851D01*
X019955Y000851D01*
X020207Y001103D01*
X020207Y001251D01*
X019807Y001251D01*
X019807Y001311D01*
X020207Y001311D01*
X020207Y001459D01*
X019955Y001711D01*
X019807Y001711D01*
X019807Y001311D01*
X019747Y001311D01*
X019747Y001711D01*
X019599Y001711D01*
X019347Y001459D01*
X019347Y001311D01*
X019746Y001311D01*
X019747Y001360D02*
X019807Y001360D01*
X019807Y001302D02*
X020746Y001302D01*
X020746Y001311D02*
X020746Y001251D01*
X020347Y001251D01*
X020347Y001103D01*
X020599Y000851D01*
X020747Y000851D01*
X020747Y001250D01*
X020807Y001250D01*
X020807Y000851D01*
X020955Y000851D01*
X021207Y001103D01*
X021207Y001251D01*
X020807Y001251D01*
X020807Y001311D01*
X021207Y001311D01*
X021207Y001459D01*
X020955Y001711D01*
X020807Y001711D01*
X020807Y001311D01*
X020747Y001311D01*
X020747Y001711D01*
X020599Y001711D01*
X020347Y001459D01*
X020347Y001311D01*
X020746Y001311D01*
X020747Y001360D02*
X020807Y001360D01*
X020807Y001302D02*
X022752Y001302D01*
X022707Y001360D02*
X021207Y001360D01*
X021207Y001419D02*
X022668Y001419D01*
X022634Y001478D02*
X021188Y001478D01*
X021129Y001536D02*
X022603Y001536D01*
X022577Y001595D02*
X021071Y001595D01*
X021012Y001653D02*
X022552Y001653D01*
X022533Y001712D02*
X012463Y001712D01*
X012405Y001770D02*
X022515Y001770D01*
X022502Y001829D02*
X012278Y001829D01*
X012522Y001653D02*
X013541Y001653D01*
X013483Y001595D02*
X012569Y001595D01*
X012593Y001536D02*
X013424Y001536D01*
X013366Y001478D02*
X012617Y001478D01*
X012641Y001419D02*
X013347Y001419D01*
X013347Y001360D02*
X012650Y001360D01*
X012650Y001302D02*
X013746Y001302D01*
X013747Y001243D02*
X013807Y001243D01*
X013807Y001185D02*
X013747Y001185D01*
X013747Y001126D02*
X013807Y001126D01*
X013807Y001068D02*
X013747Y001068D01*
X013747Y001009D02*
X013807Y001009D01*
X013807Y000951D02*
X013747Y000951D01*
X013747Y000892D02*
X013807Y000892D01*
X013996Y000892D02*
X014557Y000892D01*
X014499Y000951D02*
X014055Y000951D01*
X014113Y001009D02*
X014440Y001009D01*
X014381Y001068D02*
X014172Y001068D01*
X014207Y001126D02*
X014347Y001126D01*
X014347Y001185D02*
X014207Y001185D01*
X014207Y001243D02*
X014347Y001243D01*
X014347Y001360D02*
X014207Y001360D01*
X014207Y001419D02*
X014347Y001419D01*
X014366Y001478D02*
X014188Y001478D01*
X014129Y001536D02*
X014424Y001536D01*
X014483Y001595D02*
X014071Y001595D01*
X014747Y001595D02*
X014807Y001595D01*
X014807Y001653D02*
X014747Y001653D01*
X014747Y001536D02*
X014807Y001536D01*
X014807Y001478D02*
X014747Y001478D01*
X014747Y001419D02*
X014807Y001419D01*
X014807Y001243D02*
X014747Y001243D01*
X014747Y001185D02*
X014807Y001185D01*
X014807Y001126D02*
X014747Y001126D01*
X014747Y001068D02*
X014807Y001068D01*
X014807Y001009D02*
X014747Y001009D01*
X014747Y000951D02*
X014807Y000951D01*
X014807Y000892D02*
X014747Y000892D01*
X014996Y000892D02*
X015557Y000892D01*
X015499Y000951D02*
X015055Y000951D01*
X015113Y001009D02*
X015440Y001009D01*
X015381Y001068D02*
X015172Y001068D01*
X015207Y001126D02*
X015347Y001126D01*
X015347Y001185D02*
X015207Y001185D01*
X015207Y001243D02*
X015347Y001243D01*
X015347Y001360D02*
X015207Y001360D01*
X015207Y001419D02*
X015347Y001419D01*
X015366Y001478D02*
X015188Y001478D01*
X015129Y001536D02*
X015424Y001536D01*
X015483Y001595D02*
X015071Y001595D01*
X015012Y001653D02*
X015541Y001653D01*
X015747Y001653D02*
X015807Y001653D01*
X015807Y001595D02*
X015747Y001595D01*
X015747Y001536D02*
X015807Y001536D01*
X015807Y001478D02*
X015747Y001478D01*
X015747Y001419D02*
X015807Y001419D01*
X015807Y001243D02*
X015747Y001243D01*
X015747Y001185D02*
X015807Y001185D01*
X015807Y001126D02*
X015747Y001126D01*
X015747Y001068D02*
X015807Y001068D01*
X015807Y001009D02*
X015747Y001009D01*
X015747Y000951D02*
X015807Y000951D01*
X015807Y000892D02*
X015747Y000892D01*
X015996Y000892D02*
X016557Y000892D01*
X016499Y000951D02*
X016055Y000951D01*
X016113Y001009D02*
X016440Y001009D01*
X016381Y001068D02*
X016172Y001068D01*
X016207Y001126D02*
X016347Y001126D01*
X016347Y001185D02*
X016207Y001185D01*
X016207Y001243D02*
X016347Y001243D01*
X016347Y001360D02*
X016207Y001360D01*
X016207Y001419D02*
X016347Y001419D01*
X016366Y001478D02*
X016188Y001478D01*
X016129Y001536D02*
X016424Y001536D01*
X016483Y001595D02*
X016071Y001595D01*
X016012Y001653D02*
X016541Y001653D01*
X016747Y001653D02*
X016807Y001653D01*
X016807Y001595D02*
X016747Y001595D01*
X016747Y001536D02*
X016807Y001536D01*
X016807Y001478D02*
X016747Y001478D01*
X016747Y001419D02*
X016807Y001419D01*
X016807Y001243D02*
X016747Y001243D01*
X016747Y001185D02*
X016807Y001185D01*
X016807Y001126D02*
X016747Y001126D01*
X016747Y001068D02*
X016807Y001068D01*
X016807Y001009D02*
X016747Y001009D01*
X016747Y000951D02*
X016807Y000951D01*
X016807Y000892D02*
X016747Y000892D01*
X016996Y000892D02*
X017557Y000892D01*
X017499Y000951D02*
X017055Y000951D01*
X017113Y001009D02*
X017440Y001009D01*
X017381Y001068D02*
X017172Y001068D01*
X017207Y001126D02*
X017347Y001126D01*
X017347Y001185D02*
X017207Y001185D01*
X017207Y001243D02*
X017347Y001243D01*
X017347Y001360D02*
X017207Y001360D01*
X017207Y001419D02*
X017347Y001419D01*
X017366Y001478D02*
X017188Y001478D01*
X017129Y001536D02*
X017424Y001536D01*
X017483Y001595D02*
X017071Y001595D01*
X017012Y001653D02*
X017541Y001653D01*
X017747Y001653D02*
X017807Y001653D01*
X017807Y001595D02*
X017747Y001595D01*
X017747Y001536D02*
X017807Y001536D01*
X017807Y001478D02*
X017747Y001478D01*
X017747Y001419D02*
X017807Y001419D01*
X017807Y001243D02*
X017747Y001243D01*
X017747Y001185D02*
X017807Y001185D01*
X017807Y001126D02*
X017747Y001126D01*
X017747Y001068D02*
X017807Y001068D01*
X017807Y001009D02*
X017747Y001009D01*
X017747Y000951D02*
X017807Y000951D01*
X017807Y000892D02*
X017747Y000892D01*
X017996Y000892D02*
X018557Y000892D01*
X018499Y000951D02*
X018055Y000951D01*
X018113Y001009D02*
X018440Y001009D01*
X018381Y001068D02*
X018172Y001068D01*
X018207Y001126D02*
X018347Y001126D01*
X018347Y001185D02*
X018207Y001185D01*
X018207Y001243D02*
X018347Y001243D01*
X018347Y001360D02*
X018207Y001360D01*
X018207Y001419D02*
X018347Y001419D01*
X018366Y001478D02*
X018188Y001478D01*
X018129Y001536D02*
X018424Y001536D01*
X018483Y001595D02*
X018071Y001595D01*
X018012Y001653D02*
X018541Y001653D01*
X018747Y001653D02*
X018807Y001653D01*
X018807Y001595D02*
X018747Y001595D01*
X018747Y001536D02*
X018807Y001536D01*
X018807Y001478D02*
X018747Y001478D01*
X018747Y001419D02*
X018807Y001419D01*
X018807Y001243D02*
X018747Y001243D01*
X018747Y001185D02*
X018807Y001185D01*
X018807Y001126D02*
X018747Y001126D01*
X018747Y001068D02*
X018807Y001068D01*
X018807Y001009D02*
X018747Y001009D01*
X018747Y000951D02*
X018807Y000951D01*
X018807Y000892D02*
X018747Y000892D01*
X018996Y000892D02*
X019557Y000892D01*
X019499Y000951D02*
X019055Y000951D01*
X019113Y001009D02*
X019440Y001009D01*
X019381Y001068D02*
X019172Y001068D01*
X019207Y001126D02*
X019347Y001126D01*
X019347Y001185D02*
X019207Y001185D01*
X019207Y001243D02*
X019347Y001243D01*
X019347Y001360D02*
X019207Y001360D01*
X019207Y001419D02*
X019347Y001419D01*
X019366Y001478D02*
X019188Y001478D01*
X019129Y001536D02*
X019424Y001536D01*
X019483Y001595D02*
X019071Y001595D01*
X019012Y001653D02*
X019541Y001653D01*
X019747Y001653D02*
X019807Y001653D01*
X019807Y001595D02*
X019747Y001595D01*
X019747Y001536D02*
X019807Y001536D01*
X019807Y001478D02*
X019747Y001478D01*
X019747Y001419D02*
X019807Y001419D01*
X019807Y001243D02*
X019747Y001243D01*
X019747Y001185D02*
X019807Y001185D01*
X019807Y001126D02*
X019747Y001126D01*
X019747Y001068D02*
X019807Y001068D01*
X019807Y001009D02*
X019747Y001009D01*
X019747Y000951D02*
X019807Y000951D01*
X019807Y000892D02*
X019747Y000892D01*
X019996Y000892D02*
X020557Y000892D01*
X020499Y000951D02*
X020055Y000951D01*
X020113Y001009D02*
X020440Y001009D01*
X020381Y001068D02*
X020172Y001068D01*
X020207Y001126D02*
X020347Y001126D01*
X020347Y001185D02*
X020207Y001185D01*
X020207Y001243D02*
X020347Y001243D01*
X020347Y001360D02*
X020207Y001360D01*
X020207Y001419D02*
X020347Y001419D01*
X020366Y001478D02*
X020188Y001478D01*
X020129Y001536D02*
X020424Y001536D01*
X020483Y001595D02*
X020071Y001595D01*
X020012Y001653D02*
X020541Y001653D01*
X020747Y001653D02*
X020807Y001653D01*
X020807Y001595D02*
X020747Y001595D01*
X020747Y001536D02*
X020807Y001536D01*
X020807Y001478D02*
X020747Y001478D01*
X020747Y001419D02*
X020807Y001419D01*
X020807Y001243D02*
X020747Y001243D01*
X020747Y001185D02*
X020807Y001185D01*
X020807Y001126D02*
X020747Y001126D01*
X020747Y001068D02*
X020807Y001068D01*
X020807Y001009D02*
X020747Y001009D01*
X020747Y000951D02*
X020807Y000951D01*
X020807Y000892D02*
X020747Y000892D01*
X020996Y000892D02*
X023324Y000892D01*
X023187Y000951D02*
X021055Y000951D01*
X021113Y001009D02*
X023081Y001009D01*
X022993Y001068D02*
X021172Y001068D01*
X021207Y001126D02*
X022921Y001126D01*
X022858Y001185D02*
X021207Y001185D01*
X021207Y001243D02*
X022800Y001243D01*
X022475Y002180D02*
X021167Y002180D01*
X021167Y002239D02*
X022481Y002239D01*
X022487Y002297D02*
X021167Y002297D01*
X021167Y002356D02*
X022499Y002356D01*
X022511Y002414D02*
X021167Y002414D01*
X021136Y002473D02*
X022529Y002473D01*
X022546Y002531D02*
X021077Y002531D01*
X021019Y002590D02*
X022571Y002590D01*
X022595Y002648D02*
X020960Y002648D01*
X020593Y002648D02*
X019960Y002648D01*
X019938Y002671D02*
X019615Y002671D01*
X019387Y002442D01*
X019387Y002119D01*
X019615Y001891D01*
X019938Y001891D01*
X020167Y002119D01*
X020167Y002442D01*
X019938Y002671D01*
X020019Y002590D02*
X020534Y002590D01*
X020476Y002531D02*
X020077Y002531D01*
X020136Y002473D02*
X020417Y002473D01*
X020387Y002414D02*
X020167Y002414D01*
X020167Y002356D02*
X020387Y002356D01*
X020387Y002297D02*
X020167Y002297D01*
X020167Y002239D02*
X020387Y002239D01*
X020387Y002180D02*
X020167Y002180D01*
X020167Y002121D02*
X020387Y002121D01*
X020443Y002063D02*
X020111Y002063D01*
X020052Y002004D02*
X020501Y002004D01*
X020560Y001946D02*
X019993Y001946D01*
X019560Y001946D02*
X018993Y001946D01*
X018938Y001891D02*
X019167Y002119D01*
X019167Y002442D01*
X018938Y002671D01*
X018615Y002671D01*
X018387Y002442D01*
X018387Y002119D01*
X018615Y001891D01*
X018938Y001891D01*
X019052Y002004D02*
X019501Y002004D01*
X019443Y002063D02*
X019111Y002063D01*
X019167Y002121D02*
X019387Y002121D01*
X019387Y002180D02*
X019167Y002180D01*
X019167Y002239D02*
X019387Y002239D01*
X019387Y002297D02*
X019167Y002297D01*
X019167Y002356D02*
X019387Y002356D01*
X019387Y002414D02*
X019167Y002414D01*
X019136Y002473D02*
X019417Y002473D01*
X019476Y002531D02*
X019077Y002531D01*
X019019Y002590D02*
X019534Y002590D01*
X019593Y002648D02*
X018960Y002648D01*
X018593Y002648D02*
X017960Y002648D01*
X017938Y002671D02*
X017615Y002671D01*
X017387Y002442D01*
X017387Y002119D01*
X017615Y001891D01*
X017938Y001891D01*
X018167Y002119D01*
X018167Y002442D01*
X017938Y002671D01*
X018019Y002590D02*
X018534Y002590D01*
X018476Y002531D02*
X018077Y002531D01*
X018136Y002473D02*
X018417Y002473D01*
X018387Y002414D02*
X018167Y002414D01*
X018167Y002356D02*
X018387Y002356D01*
X018387Y002297D02*
X018167Y002297D01*
X018167Y002239D02*
X018387Y002239D01*
X018387Y002180D02*
X018167Y002180D01*
X018167Y002121D02*
X018387Y002121D01*
X018443Y002063D02*
X018111Y002063D01*
X018052Y002004D02*
X018501Y002004D01*
X018560Y001946D02*
X017993Y001946D01*
X017560Y001946D02*
X016993Y001946D01*
X016938Y001891D02*
X017167Y002119D01*
X017167Y002442D01*
X016938Y002671D01*
X016615Y002671D01*
X016387Y002442D01*
X016387Y002119D01*
X016615Y001891D01*
X016938Y001891D01*
X017052Y002004D02*
X017501Y002004D01*
X017443Y002063D02*
X017111Y002063D01*
X017167Y002121D02*
X017387Y002121D01*
X017387Y002180D02*
X017167Y002180D01*
X017167Y002239D02*
X017387Y002239D01*
X017387Y002297D02*
X017167Y002297D01*
X017167Y002356D02*
X017387Y002356D01*
X017387Y002414D02*
X017167Y002414D01*
X017136Y002473D02*
X017417Y002473D01*
X017476Y002531D02*
X017077Y002531D01*
X017019Y002590D02*
X017534Y002590D01*
X017593Y002648D02*
X016960Y002648D01*
X016593Y002648D02*
X015960Y002648D01*
X015938Y002671D02*
X015615Y002671D01*
X015387Y002442D01*
X015387Y002119D01*
X015615Y001891D01*
X015938Y001891D01*
X016167Y002119D01*
X016167Y002442D01*
X015938Y002671D01*
X016019Y002590D02*
X016534Y002590D01*
X016476Y002531D02*
X016077Y002531D01*
X016136Y002473D02*
X016417Y002473D01*
X016387Y002414D02*
X016167Y002414D01*
X016167Y002356D02*
X016387Y002356D01*
X016387Y002297D02*
X016167Y002297D01*
X016167Y002239D02*
X016387Y002239D01*
X016387Y002180D02*
X016167Y002180D01*
X016167Y002121D02*
X016387Y002121D01*
X016443Y002063D02*
X016111Y002063D01*
X016052Y002004D02*
X016501Y002004D01*
X016560Y001946D02*
X015993Y001946D01*
X015560Y001946D02*
X014993Y001946D01*
X015052Y002004D02*
X015501Y002004D01*
X015443Y002063D02*
X015111Y002063D01*
X015167Y002121D02*
X015387Y002121D01*
X015387Y002180D02*
X015167Y002180D01*
X015167Y002239D02*
X015387Y002239D01*
X015387Y002297D02*
X015167Y002297D01*
X015167Y002356D02*
X015387Y002356D01*
X015387Y002414D02*
X015167Y002414D01*
X015136Y002473D02*
X015417Y002473D01*
X015476Y002531D02*
X015077Y002531D01*
X015019Y002590D02*
X015534Y002590D01*
X015593Y002648D02*
X014960Y002648D01*
X013347Y001243D02*
X012650Y001243D01*
X012650Y001185D02*
X013347Y001185D01*
X013347Y001126D02*
X012635Y001126D01*
X012611Y001068D02*
X013381Y001068D01*
X013440Y001009D02*
X012586Y001009D01*
X012562Y000951D02*
X013499Y000951D01*
X013557Y000892D02*
X012506Y000892D01*
X012240Y000716D02*
X025492Y000716D01*
X025492Y002180D02*
X025031Y002180D01*
X025026Y002239D02*
X025492Y002239D01*
X025492Y002297D02*
X025019Y002297D01*
X025007Y002356D02*
X025492Y002356D01*
X025492Y002414D02*
X024995Y002414D01*
X024977Y002473D02*
X025492Y002473D01*
X025492Y002531D02*
X024960Y002531D01*
X024935Y002590D02*
X025492Y002590D01*
X025492Y002648D02*
X024911Y002648D01*
X024880Y002707D02*
X025492Y002707D01*
X025492Y002765D02*
X024848Y002765D01*
X024808Y002824D02*
X025492Y002824D01*
X025492Y002883D02*
X024766Y002883D01*
X024718Y002941D02*
X025492Y002941D01*
X025492Y003000D02*
X024663Y003000D01*
X024603Y003058D02*
X025492Y003058D01*
X025492Y003117D02*
X024531Y003117D01*
X024447Y003175D02*
X025492Y003175D01*
X025492Y003234D02*
X024346Y003234D01*
X024218Y003292D02*
X025492Y003292D01*
X025492Y003351D02*
X024023Y003351D01*
X023059Y003175D02*
X011637Y003175D01*
X011579Y003117D02*
X022975Y003117D01*
X022904Y003058D02*
X011520Y003058D01*
X011462Y003000D02*
X022843Y003000D01*
X022788Y002941D02*
X011403Y002941D01*
X011345Y002883D02*
X022740Y002883D01*
X022626Y002707D02*
X008419Y002707D01*
X008361Y002648D02*
X008876Y002648D01*
X008899Y002671D02*
X008670Y002442D01*
X008670Y002119D01*
X008899Y001891D01*
X009222Y001891D01*
X009450Y002119D01*
X009450Y002442D01*
X009222Y002671D01*
X008899Y002671D01*
X008818Y002590D02*
X008302Y002590D01*
X008361Y002531D02*
X008759Y002531D01*
X008701Y002473D02*
X008419Y002473D01*
X008450Y002414D02*
X008670Y002414D01*
X008670Y002356D02*
X008450Y002356D01*
X008450Y002297D02*
X008670Y002297D01*
X008670Y002239D02*
X008450Y002239D01*
X008450Y002180D02*
X008670Y002180D01*
X008670Y002121D02*
X008450Y002121D01*
X008394Y002063D02*
X008726Y002063D01*
X008785Y002004D02*
X008335Y002004D01*
X008277Y001946D02*
X008843Y001946D01*
X009277Y001946D02*
X009843Y001946D01*
X009899Y001891D02*
X010222Y001891D01*
X010450Y002119D01*
X010450Y002442D01*
X010222Y002671D01*
X009899Y002671D01*
X009670Y002442D01*
X009670Y002119D01*
X009899Y001891D01*
X009785Y002004D02*
X009335Y002004D01*
X009394Y002063D02*
X009726Y002063D01*
X009670Y002121D02*
X009450Y002121D01*
X009450Y002180D02*
X009670Y002180D01*
X009670Y002239D02*
X009450Y002239D01*
X009450Y002297D02*
X009670Y002297D01*
X009670Y002356D02*
X009450Y002356D01*
X009450Y002414D02*
X009670Y002414D01*
X009701Y002473D02*
X009419Y002473D01*
X009361Y002531D02*
X009759Y002531D01*
X009818Y002590D02*
X009302Y002590D01*
X009244Y002648D02*
X009876Y002648D01*
X010244Y002648D02*
X010876Y002648D01*
X010818Y002590D02*
X010302Y002590D01*
X010361Y002531D02*
X010759Y002531D01*
X010701Y002473D02*
X010419Y002473D01*
X010450Y002414D02*
X010670Y002414D01*
X010670Y002356D02*
X010450Y002356D01*
X010450Y002297D02*
X010670Y002297D01*
X010670Y002239D02*
X010450Y002239D01*
X010450Y002180D02*
X010670Y002180D01*
X010670Y002121D02*
X010450Y002121D01*
X010394Y002063D02*
X010726Y002063D01*
X010785Y002004D02*
X010335Y002004D01*
X010277Y001946D02*
X010843Y001946D01*
X010705Y003292D02*
X007153Y003292D01*
X007106Y003234D02*
X007397Y003234D01*
X007338Y003175D02*
X007059Y003175D01*
X007012Y003117D02*
X007280Y003117D01*
X007221Y003058D02*
X006965Y003058D01*
X006919Y003000D02*
X007163Y003000D01*
X007104Y002941D02*
X006872Y002941D01*
X006825Y002883D02*
X007045Y002883D01*
X006987Y002824D02*
X006778Y002824D01*
X006731Y002765D02*
X006928Y002765D01*
X006910Y002707D02*
X006684Y002707D01*
X006676Y002648D02*
X006876Y002648D01*
X006818Y002590D02*
X006676Y002590D01*
X006676Y002531D02*
X006759Y002531D01*
X006701Y002473D02*
X006676Y002473D01*
X006336Y002590D02*
X006302Y002590D01*
X006336Y002648D02*
X006244Y002648D01*
X006336Y002707D02*
X004721Y002707D01*
X004721Y002765D02*
X006334Y002765D01*
X006336Y002824D02*
X004721Y002824D01*
X004721Y002883D02*
X006390Y002883D01*
X006436Y002941D02*
X004721Y002941D01*
X004721Y003000D02*
X006483Y003000D01*
X006530Y003058D02*
X004721Y003058D01*
X004721Y003117D02*
X006577Y003117D01*
X006624Y003175D02*
X004721Y003175D01*
X004721Y003234D02*
X006671Y003234D01*
X006717Y003292D02*
X004721Y003292D01*
X004721Y003351D02*
X006764Y003351D01*
X006811Y003409D02*
X004721Y003409D01*
X004721Y003468D02*
X006858Y003468D01*
X006905Y003527D02*
X004721Y003527D01*
X004721Y003585D02*
X006952Y003585D01*
X006998Y003644D02*
X004721Y003644D01*
X004721Y003702D02*
X007045Y003702D01*
X007092Y003761D02*
X004716Y003761D01*
X004692Y003819D02*
X007139Y003819D01*
X007186Y003878D02*
X004667Y003878D01*
X004643Y003936D02*
X007233Y003936D01*
X007279Y003995D02*
X004601Y003995D01*
X004543Y004053D02*
X007326Y004053D01*
X007372Y004112D02*
X004484Y004112D01*
X004426Y004171D02*
X007430Y004171D01*
X007574Y003819D02*
X008971Y003819D01*
X009291Y003819D02*
X010981Y003819D01*
X010981Y003761D02*
X007527Y003761D01*
X007481Y003702D02*
X010981Y003702D01*
X010981Y003644D02*
X007434Y003644D01*
X007387Y003585D02*
X010981Y003585D01*
X010939Y003527D02*
X007340Y003527D01*
X007293Y003468D02*
X010881Y003468D01*
X010822Y003409D02*
X007246Y003409D01*
X007200Y003351D02*
X010764Y003351D01*
X010981Y003878D02*
X009343Y003878D01*
X009367Y003936D02*
X010981Y003936D01*
X010981Y003995D02*
X009376Y003995D01*
X009376Y004053D02*
X010981Y004053D01*
X010981Y004112D02*
X009352Y004112D01*
X009313Y004171D02*
X010981Y004171D01*
X010981Y004229D02*
X009233Y004229D01*
X009029Y004229D02*
X004367Y004229D01*
X004309Y004288D02*
X010981Y004288D01*
X010981Y004346D02*
X004250Y004346D01*
X004192Y004405D02*
X010981Y004405D01*
X010981Y004463D02*
X004133Y004463D01*
X004075Y004522D02*
X010981Y004522D01*
X010981Y004580D02*
X004016Y004580D01*
X003958Y004639D02*
X006200Y004639D01*
X006207Y004636D02*
X006305Y004636D01*
X006395Y004673D01*
X006464Y004742D01*
X006501Y004832D01*
X006501Y004930D01*
X006493Y004949D01*
X006556Y005011D01*
X009916Y005011D01*
X009923Y004992D01*
X009992Y004923D01*
X010082Y004886D01*
X010180Y004886D01*
X010270Y004923D01*
X010339Y004992D01*
X010376Y005082D01*
X010376Y005180D01*
X010339Y005270D01*
X010270Y005339D01*
X010180Y005376D01*
X010082Y005376D01*
X009992Y005339D01*
X009923Y005270D01*
X009916Y005251D01*
X006456Y005251D01*
X006386Y005181D01*
X006324Y005118D01*
X006305Y005126D01*
X006207Y005126D01*
X006117Y005089D01*
X006048Y005020D01*
X006011Y004930D01*
X006011Y004832D01*
X006048Y004742D01*
X006117Y004673D01*
X006207Y004636D01*
X006312Y004639D02*
X010981Y004639D01*
X010968Y004697D02*
X006419Y004697D01*
X006469Y004756D02*
X010918Y004756D01*
X010893Y004814D02*
X006494Y004814D01*
X006501Y004873D02*
X010886Y004873D01*
X010887Y004932D02*
X010278Y004932D01*
X010337Y004990D02*
X010911Y004990D01*
X010952Y005049D02*
X010362Y005049D01*
X010376Y005107D02*
X011037Y005107D01*
X010376Y005166D02*
X022636Y005166D01*
X022636Y005206D02*
X022636Y004846D01*
X022617Y004839D01*
X022548Y004770D01*
X022511Y004680D01*
X022511Y004582D01*
X022548Y004492D01*
X022617Y004423D01*
X022707Y004386D01*
X022805Y004386D01*
X022895Y004423D01*
X022964Y004492D01*
X023001Y004582D01*
X023001Y004680D01*
X022964Y004770D01*
X022895Y004839D01*
X022876Y004846D01*
X022876Y005206D01*
X023306Y005636D01*
X023323Y005636D01*
X023501Y005458D01*
X023824Y005458D01*
X024052Y005686D01*
X024052Y006009D01*
X023824Y006238D01*
X023501Y006238D01*
X023273Y006009D01*
X023273Y005876D01*
X023206Y005876D01*
X023136Y005806D01*
X022636Y005306D01*
X022636Y005206D01*
X022636Y005224D02*
X010358Y005224D01*
X010326Y005283D02*
X018161Y005283D01*
X018134Y005294D02*
X018224Y005257D01*
X018321Y005257D01*
X018411Y005294D01*
X018480Y005363D01*
X018518Y005453D01*
X018518Y005551D01*
X018480Y005641D01*
X018411Y005710D01*
X018321Y005747D01*
X018224Y005747D01*
X018200Y005737D01*
X018126Y005807D01*
X018126Y008541D01*
X018145Y008548D01*
X018214Y008617D01*
X018251Y008707D01*
X018251Y008805D01*
X018214Y008895D01*
X018145Y008964D01*
X018055Y009001D01*
X017957Y009001D01*
X017867Y008964D01*
X017798Y008895D01*
X017761Y008805D01*
X017761Y008707D01*
X017798Y008617D01*
X017867Y008548D01*
X017886Y008541D01*
X017886Y007717D01*
X017805Y007751D01*
X017707Y007751D01*
X017617Y007714D01*
X017548Y007645D01*
X017541Y007626D01*
X017467Y007626D01*
X017501Y007707D01*
X017501Y007805D01*
X017464Y007895D01*
X017395Y007964D01*
X017305Y008001D01*
X017207Y008001D01*
X017117Y007964D01*
X017048Y007895D01*
X017041Y007876D01*
X015806Y007876D01*
X015706Y007876D01*
X015456Y007626D01*
X015342Y007626D01*
X015376Y007707D01*
X015376Y007805D01*
X015368Y007824D01*
X015474Y007929D01*
X015480Y007923D01*
X015570Y007886D01*
X015667Y007886D01*
X015757Y007923D01*
X015826Y007992D01*
X015864Y008082D01*
X015864Y008180D01*
X015830Y008261D01*
X017166Y008261D01*
X017173Y008242D01*
X017242Y008173D01*
X017332Y008136D01*
X017430Y008136D01*
X017520Y008173D01*
X017589Y008242D01*
X017626Y008332D01*
X017626Y008430D01*
X017589Y008520D01*
X017520Y008589D01*
X017460Y008613D01*
X017464Y008617D01*
X017501Y008707D01*
X017501Y008805D01*
X017464Y008895D01*
X017395Y008964D01*
X017305Y009001D01*
X017207Y009001D01*
X017117Y008964D01*
X017048Y008895D01*
X017041Y008876D01*
X015346Y008876D01*
X015339Y008895D01*
X015270Y008964D01*
X015180Y009001D01*
X015082Y009001D01*
X014992Y008964D01*
X014923Y008895D01*
X014886Y008805D01*
X014886Y008707D01*
X014923Y008617D01*
X014992Y008548D01*
X015082Y008511D01*
X015180Y008511D01*
X015270Y008548D01*
X015339Y008617D01*
X015346Y008636D01*
X017041Y008636D01*
X017048Y008617D01*
X017117Y008548D01*
X017177Y008524D01*
X017173Y008520D01*
X017166Y008501D01*
X014956Y008501D01*
X014886Y008431D01*
X014824Y008368D01*
X014805Y008376D01*
X014707Y008376D01*
X014617Y008339D01*
X014548Y008270D01*
X014511Y008180D01*
X014511Y008082D01*
X014548Y007992D01*
X014617Y007923D01*
X014707Y007886D01*
X014805Y007886D01*
X014895Y007923D01*
X014964Y007992D01*
X015001Y008082D01*
X015001Y008180D01*
X014993Y008199D01*
X015056Y008261D01*
X015407Y008261D01*
X015374Y008180D01*
X015374Y008168D01*
X015199Y007993D01*
X015180Y008001D01*
X015082Y008001D01*
X014992Y007964D01*
X014923Y007895D01*
X014886Y007805D01*
X014886Y007707D01*
X014920Y007626D01*
X010306Y007626D01*
X010206Y007626D01*
X010199Y007618D01*
X010180Y007626D01*
X010082Y007626D01*
X009992Y007589D01*
X009923Y007520D01*
X009886Y007430D01*
X009886Y007332D01*
X000926Y007332D01*
X000926Y007390D02*
X001423Y007390D01*
X001438Y007386D02*
X001518Y007373D01*
X001912Y007373D01*
X001912Y007857D01*
X001044Y007857D01*
X001044Y007846D01*
X001057Y007767D01*
X001082Y007690D01*
X001119Y007618D01*
X001166Y007552D01*
X001223Y007495D01*
X001289Y007447D01*
X001361Y007411D01*
X001438Y007386D01*
X001287Y007449D02*
X000926Y007449D01*
X000926Y007507D02*
X001211Y007507D01*
X001156Y007566D02*
X000926Y007566D01*
X000926Y007625D02*
X001115Y007625D01*
X001085Y007683D02*
X000926Y007683D01*
X000926Y007742D02*
X001065Y007742D01*
X001052Y007800D02*
X000926Y007800D01*
X000926Y007859D02*
X001912Y007859D01*
X001912Y007857D02*
X001912Y007917D01*
X001912Y008401D01*
X001518Y008401D01*
X001438Y008388D01*
X001361Y008363D01*
X001289Y008326D01*
X001223Y008279D01*
X001166Y008222D01*
X001119Y008156D01*
X001082Y008084D01*
X001057Y008007D01*
X001044Y007927D01*
X001044Y007917D01*
X001912Y007917D01*
X001972Y007917D01*
X001972Y008401D01*
X002366Y008401D01*
X002446Y008388D01*
X002523Y008363D01*
X002595Y008326D01*
X002661Y008279D01*
X002718Y008222D01*
X002765Y008156D01*
X002802Y008084D01*
X002827Y008007D01*
X002840Y007927D01*
X002840Y007917D01*
X001972Y007917D01*
X001972Y007857D01*
X002840Y007857D01*
X002840Y007846D01*
X002827Y007767D01*
X002802Y007690D01*
X002765Y007618D01*
X002718Y007552D01*
X002661Y007495D01*
X002595Y007447D01*
X002523Y007411D01*
X002446Y007386D01*
X002366Y007373D01*
X001972Y007373D01*
X001972Y007857D01*
X001912Y007857D01*
X001912Y007800D02*
X001972Y007800D01*
X001972Y007742D02*
X001912Y007742D01*
X001912Y007683D02*
X001972Y007683D01*
X001972Y007625D02*
X001912Y007625D01*
X001912Y007566D02*
X001972Y007566D01*
X001972Y007507D02*
X001912Y007507D01*
X001912Y007449D02*
X001972Y007449D01*
X001972Y007390D02*
X001912Y007390D01*
X001972Y007859D02*
X014908Y007859D01*
X014886Y007800D02*
X002832Y007800D01*
X002819Y007742D02*
X014886Y007742D01*
X014896Y007683D02*
X002799Y007683D01*
X002769Y007625D02*
X010079Y007625D01*
X010183Y007625D02*
X010205Y007625D01*
X010256Y007506D02*
X010131Y007381D01*
X010256Y007506D02*
X015506Y007506D01*
X015756Y007756D01*
X017256Y007756D01*
X017479Y007859D02*
X017886Y007859D01*
X017886Y007917D02*
X017441Y007917D01*
X017366Y007976D02*
X017886Y007976D01*
X017886Y008034D02*
X015844Y008034D01*
X015864Y008093D02*
X017886Y008093D01*
X017886Y008151D02*
X017467Y008151D01*
X017556Y008210D02*
X017886Y008210D01*
X017886Y008269D02*
X017600Y008269D01*
X017624Y008327D02*
X017886Y008327D01*
X017886Y008386D02*
X017626Y008386D01*
X017620Y008444D02*
X017886Y008444D01*
X017886Y008503D02*
X017596Y008503D01*
X017547Y008561D02*
X017854Y008561D01*
X017797Y008620D02*
X017465Y008620D01*
X017489Y008678D02*
X017773Y008678D01*
X017761Y008737D02*
X017501Y008737D01*
X017501Y008795D02*
X017761Y008795D01*
X017781Y008854D02*
X017481Y008854D01*
X017446Y008913D02*
X017816Y008913D01*
X017885Y008971D02*
X017377Y008971D01*
X017135Y008971D02*
X015252Y008971D01*
X015321Y008913D02*
X017066Y008913D01*
X017256Y008756D02*
X015131Y008756D01*
X014906Y008854D02*
X002572Y008854D01*
X002594Y008863D02*
X002420Y008791D01*
X001464Y008791D01*
X001290Y008863D01*
X001156Y008996D01*
X001084Y009171D01*
X001084Y009359D01*
X001156Y009533D01*
X001290Y009667D01*
X001464Y009739D01*
X002420Y009739D01*
X002594Y009667D01*
X002728Y009533D01*
X002800Y009359D01*
X002800Y009171D01*
X002728Y008996D01*
X002594Y008863D01*
X002644Y008913D02*
X014941Y008913D01*
X015010Y008971D02*
X002702Y008971D01*
X002741Y009030D02*
X018933Y009030D01*
X018923Y009020D02*
X018899Y008960D01*
X018895Y008964D01*
X018805Y009001D01*
X018707Y009001D01*
X018617Y008964D01*
X018548Y008895D01*
X018511Y008805D01*
X018511Y008707D01*
X018548Y008617D01*
X018617Y008548D01*
X018636Y008541D01*
X018636Y008096D01*
X018617Y008089D01*
X018548Y008020D01*
X018511Y007930D01*
X018511Y007832D01*
X018548Y007742D01*
X018617Y007673D01*
X018707Y007636D01*
X018805Y007636D01*
X018895Y007673D01*
X018944Y007722D01*
X018992Y007673D01*
X019082Y007636D01*
X019180Y007636D01*
X019270Y007673D01*
X019339Y007742D01*
X019376Y007832D01*
X019376Y007930D01*
X019339Y008020D01*
X019270Y008089D01*
X019251Y008096D01*
X019251Y008666D01*
X019270Y008673D01*
X019339Y008742D01*
X019376Y008832D01*
X019376Y008930D01*
X019339Y009020D01*
X019270Y009089D01*
X019180Y009126D01*
X019082Y009126D01*
X018992Y009089D01*
X018923Y009020D01*
X018903Y008971D02*
X018877Y008971D01*
X018992Y009088D02*
X002766Y009088D01*
X002790Y009147D02*
X023410Y009147D01*
X023469Y009205D02*
X002800Y009205D01*
X002800Y009264D02*
X011201Y009264D01*
X011207Y009261D02*
X011305Y009261D01*
X011395Y009298D01*
X011464Y009367D01*
X011471Y009386D01*
X013166Y009386D01*
X013173Y009367D01*
X013242Y009298D01*
X013332Y009261D01*
X013430Y009261D01*
X013520Y009298D01*
X013589Y009367D01*
X013626Y009457D01*
X013626Y009555D01*
X013589Y009645D01*
X013520Y009714D01*
X013430Y009751D01*
X013332Y009751D01*
X013242Y009714D01*
X013173Y009645D01*
X013166Y009626D01*
X011471Y009626D01*
X011464Y009645D01*
X011395Y009714D01*
X011305Y009751D01*
X011207Y009751D01*
X011117Y009714D01*
X011048Y009645D01*
X011011Y009555D01*
X011011Y009457D01*
X011048Y009367D01*
X011117Y009298D01*
X011207Y009261D01*
X011311Y009264D02*
X013326Y009264D01*
X013436Y009264D02*
X015826Y009264D01*
X015832Y009261D02*
X015930Y009261D01*
X016020Y009298D01*
X016089Y009367D01*
X016096Y009386D01*
X020103Y009386D01*
X020111Y009367D01*
X020180Y009298D01*
X020270Y009261D01*
X020367Y009261D01*
X020457Y009298D01*
X020526Y009367D01*
X020563Y009457D01*
X020563Y009555D01*
X020526Y009645D01*
X020457Y009714D01*
X020367Y009751D01*
X020270Y009751D01*
X020180Y009714D01*
X020111Y009645D01*
X020103Y009626D01*
X016096Y009626D01*
X016089Y009645D01*
X016020Y009714D01*
X015930Y009751D01*
X015832Y009751D01*
X015742Y009714D01*
X015673Y009645D01*
X015636Y009555D01*
X015636Y009457D01*
X015673Y009367D01*
X015742Y009298D01*
X015832Y009261D01*
X015936Y009264D02*
X020263Y009264D01*
X020374Y009264D02*
X024471Y009264D01*
X024484Y009278D02*
X024233Y009026D01*
X024233Y008877D01*
X024632Y008877D01*
X024632Y008818D01*
X024233Y008818D01*
X024233Y008669D01*
X024484Y008418D01*
X024633Y008418D01*
X024633Y008817D01*
X024692Y008817D01*
X024692Y008418D01*
X024841Y008418D01*
X025092Y008669D01*
X025092Y008818D01*
X024693Y008818D01*
X024693Y008877D01*
X025092Y008877D01*
X025092Y009026D01*
X024841Y009278D01*
X024692Y009278D01*
X024692Y008878D01*
X024633Y008878D01*
X024633Y009278D01*
X024484Y009278D01*
X024412Y009205D02*
X023856Y009205D01*
X023824Y009238D02*
X023501Y009238D01*
X023273Y009009D01*
X023273Y008686D01*
X023501Y008458D01*
X023824Y008458D01*
X024052Y008686D01*
X024052Y009009D01*
X023824Y009238D01*
X023915Y009147D02*
X024354Y009147D01*
X024295Y009088D02*
X023973Y009088D01*
X024032Y009030D02*
X024236Y009030D01*
X024233Y008971D02*
X024052Y008971D01*
X024052Y008913D02*
X024233Y008913D01*
X024233Y008795D02*
X024052Y008795D01*
X024052Y008737D02*
X024233Y008737D01*
X024233Y008678D02*
X024045Y008678D01*
X023986Y008620D02*
X024282Y008620D01*
X024341Y008561D02*
X023928Y008561D01*
X023869Y008503D02*
X024399Y008503D01*
X024458Y008444D02*
X019251Y008444D01*
X019251Y008386D02*
X025492Y008386D01*
X025492Y008444D02*
X024867Y008444D01*
X024926Y008503D02*
X025492Y008503D01*
X025492Y008561D02*
X024984Y008561D01*
X025043Y008620D02*
X025492Y008620D01*
X025492Y008678D02*
X025092Y008678D01*
X025092Y008737D02*
X025492Y008737D01*
X025492Y008795D02*
X025092Y008795D01*
X025092Y008913D02*
X025492Y008913D01*
X025492Y008971D02*
X025092Y008971D01*
X025089Y009030D02*
X025492Y009030D01*
X025492Y009088D02*
X025030Y009088D01*
X024971Y009147D02*
X025492Y009147D01*
X025492Y009205D02*
X024913Y009205D01*
X024854Y009264D02*
X025492Y009264D01*
X025492Y009322D02*
X020481Y009322D01*
X020532Y009381D02*
X025492Y009381D01*
X025492Y009439D02*
X024862Y009439D01*
X024841Y009418D02*
X025092Y009669D01*
X025092Y009818D01*
X024693Y009818D01*
X024693Y009877D01*
X025092Y009877D01*
X025092Y010026D01*
X024841Y010278D01*
X024692Y010278D01*
X024692Y009878D01*
X024633Y009878D01*
X024633Y010278D01*
X024484Y010278D01*
X024233Y010026D01*
X024233Y009877D01*
X024632Y009877D01*
X024632Y009818D01*
X024233Y009818D01*
X024233Y009669D01*
X024484Y009418D01*
X024633Y009418D01*
X024633Y009817D01*
X024692Y009817D01*
X024692Y009418D01*
X024841Y009418D01*
X024921Y009498D02*
X025492Y009498D01*
X025492Y009556D02*
X024980Y009556D01*
X025038Y009615D02*
X025492Y009615D01*
X025492Y009674D02*
X025092Y009674D01*
X025092Y009732D02*
X025492Y009732D01*
X025492Y009791D02*
X025092Y009791D01*
X025092Y009908D02*
X025492Y009908D01*
X025492Y009966D02*
X025092Y009966D01*
X025092Y010025D02*
X025492Y010025D01*
X025492Y010083D02*
X025035Y010083D01*
X024976Y010142D02*
X025492Y010142D01*
X025492Y010200D02*
X024918Y010200D01*
X024859Y010259D02*
X025492Y010259D01*
X025492Y010318D02*
X017541Y010318D01*
X017520Y010339D02*
X017430Y010376D01*
X017332Y010376D01*
X017313Y010368D01*
X017251Y010431D01*
X017181Y010501D01*
X014971Y010501D01*
X014964Y010520D01*
X014895Y010589D01*
X014805Y010626D01*
X014707Y010626D01*
X014617Y010589D01*
X014548Y010520D01*
X014511Y010430D01*
X014511Y010332D01*
X014548Y010242D01*
X014617Y010173D01*
X014707Y010136D01*
X014805Y010136D01*
X014895Y010173D01*
X014964Y010242D01*
X014971Y010261D01*
X017081Y010261D01*
X017117Y010225D01*
X017055Y010251D01*
X016957Y010251D01*
X016867Y010214D01*
X016798Y010145D01*
X016791Y010126D01*
X016181Y010126D01*
X016081Y010126D01*
X015956Y010001D01*
X014306Y010001D01*
X013501Y010806D01*
X013431Y010876D01*
X010471Y010876D01*
X010464Y010895D01*
X010395Y010964D01*
X010305Y011001D01*
X010207Y011001D01*
X010117Y010964D01*
X010048Y010895D01*
X010011Y010805D01*
X010011Y010707D01*
X010048Y010617D01*
X010117Y010548D01*
X010207Y010511D01*
X010305Y010511D01*
X010395Y010548D01*
X010464Y010617D01*
X010471Y010636D01*
X013331Y010636D01*
X014206Y009761D01*
X014306Y009761D01*
X016056Y009761D01*
X016126Y009831D01*
X016181Y009886D01*
X016791Y009886D01*
X016798Y009867D01*
X016867Y009798D01*
X016957Y009761D01*
X017055Y009761D01*
X017145Y009798D01*
X017214Y009867D01*
X017238Y009927D01*
X017242Y009923D01*
X017332Y009886D01*
X017430Y009886D01*
X017520Y009923D01*
X017589Y009992D01*
X017626Y010082D01*
X017626Y010180D01*
X017589Y010270D01*
X017520Y010339D01*
X017593Y010259D02*
X024466Y010259D01*
X024407Y010200D02*
X023861Y010200D01*
X023824Y010238D02*
X024052Y010009D01*
X024052Y009686D01*
X023824Y009458D01*
X023501Y009458D01*
X023273Y009686D01*
X023273Y010009D01*
X023501Y010238D01*
X023824Y010238D01*
X023920Y010142D02*
X024349Y010142D01*
X024290Y010083D02*
X023978Y010083D01*
X024037Y010025D02*
X024233Y010025D01*
X024233Y009966D02*
X024052Y009966D01*
X024052Y009908D02*
X024233Y009908D01*
X024233Y009791D02*
X024052Y009791D01*
X024052Y009849D02*
X024632Y009849D01*
X024633Y009791D02*
X024692Y009791D01*
X024693Y009849D02*
X025492Y009849D01*
X025492Y010376D02*
X017306Y010376D01*
X017247Y010435D02*
X024467Y010435D01*
X024484Y010418D02*
X024233Y010669D01*
X024035Y010669D01*
X024052Y010686D02*
X023824Y010458D01*
X023501Y010458D01*
X023273Y010686D01*
X023273Y011009D01*
X023501Y011238D01*
X023824Y011238D01*
X024052Y011009D01*
X024052Y010686D01*
X024052Y010727D02*
X024233Y010727D01*
X024233Y010669D02*
X024233Y010818D01*
X024632Y010818D01*
X024632Y010877D01*
X024233Y010877D01*
X024233Y011026D01*
X024484Y011278D01*
X024633Y011278D01*
X024633Y010878D01*
X024692Y010878D01*
X024692Y011278D01*
X024841Y011278D01*
X025092Y011026D01*
X025092Y010877D01*
X024693Y010877D01*
X024693Y010818D01*
X025092Y010818D01*
X025092Y010669D01*
X025492Y010669D01*
X025492Y010727D02*
X025092Y010727D01*
X025092Y010669D02*
X024841Y010418D01*
X024692Y010418D01*
X024692Y010817D01*
X024633Y010817D01*
X024633Y010418D01*
X024484Y010418D01*
X024409Y010493D02*
X023860Y010493D01*
X023918Y010552D02*
X024350Y010552D01*
X024292Y010610D02*
X023977Y010610D01*
X024052Y010786D02*
X024233Y010786D01*
X024233Y010903D02*
X024052Y010903D01*
X024052Y010962D02*
X024233Y010962D01*
X024233Y011020D02*
X024041Y011020D01*
X023983Y011079D02*
X024286Y011079D01*
X024344Y011137D02*
X023924Y011137D01*
X023866Y011196D02*
X024403Y011196D01*
X024461Y011254D02*
X018049Y011254D01*
X017990Y011196D02*
X023459Y011196D01*
X023401Y011137D02*
X017932Y011137D01*
X017873Y011079D02*
X023342Y011079D01*
X023284Y011020D02*
X017815Y011020D01*
X017756Y010962D02*
X023273Y010962D01*
X023273Y010903D02*
X017698Y010903D01*
X017639Y010844D02*
X023273Y010844D01*
X023273Y010786D02*
X017626Y010786D01*
X017626Y010805D02*
X017618Y010824D01*
X018313Y011519D01*
X018332Y011511D01*
X018430Y011511D01*
X018520Y011548D01*
X018589Y011617D01*
X018626Y011707D01*
X018626Y011805D01*
X018589Y011895D01*
X018520Y011964D01*
X018430Y012001D01*
X018332Y012001D01*
X018242Y011964D01*
X018173Y011895D01*
X018136Y011805D01*
X018136Y011707D01*
X018144Y011688D01*
X017896Y011441D01*
X017896Y011668D01*
X017668Y011896D01*
X017344Y011896D01*
X017251Y011802D01*
X017251Y011805D01*
X017214Y011895D01*
X017145Y011964D01*
X017055Y012001D01*
X016957Y012001D01*
X016867Y011964D01*
X016798Y011895D01*
X016761Y011805D01*
X016761Y011707D01*
X016798Y011617D01*
X016867Y011548D01*
X016886Y011541D01*
X016886Y011221D01*
X016867Y011214D01*
X016798Y011145D01*
X016761Y011055D01*
X016761Y010957D01*
X016798Y010867D01*
X016867Y010798D01*
X016957Y010761D01*
X017055Y010761D01*
X017136Y010795D01*
X017136Y010707D01*
X017173Y010617D01*
X017242Y010548D01*
X017332Y010511D01*
X017430Y010511D01*
X017520Y010548D01*
X017589Y010617D01*
X017626Y010707D01*
X017626Y010805D01*
X017626Y010727D02*
X023273Y010727D01*
X023290Y010669D02*
X017610Y010669D01*
X017582Y010610D02*
X023348Y010610D01*
X023407Y010552D02*
X017523Y010552D01*
X017381Y010756D02*
X018381Y011756D01*
X018608Y011664D02*
X019926Y011664D01*
X019921Y011669D02*
X020044Y011546D01*
X020218Y011546D01*
X022843Y011546D01*
X022966Y011669D01*
X022966Y011843D01*
X022966Y014843D01*
X022843Y014966D01*
X022669Y014966D01*
X020251Y014966D01*
X020251Y015055D01*
X020214Y015145D01*
X020145Y015214D01*
X020055Y015251D01*
X019957Y015251D01*
X019867Y015214D01*
X019810Y015156D01*
X019069Y015156D01*
X018981Y015068D01*
X018039Y014126D01*
X017957Y014126D01*
X017867Y014089D01*
X017798Y014020D01*
X017761Y013930D01*
X017761Y013832D01*
X017798Y013742D01*
X017867Y013673D01*
X017957Y013636D01*
X018055Y013636D01*
X018145Y013673D01*
X018214Y013742D01*
X018251Y013832D01*
X018251Y013914D01*
X019193Y014856D01*
X019810Y014856D01*
X019867Y014798D01*
X019921Y014776D01*
X019921Y011669D01*
X019921Y011723D02*
X018626Y011723D01*
X018626Y011781D02*
X019921Y011781D01*
X019921Y011840D02*
X018612Y011840D01*
X018585Y011898D02*
X019921Y011898D01*
X019921Y011957D02*
X018527Y011957D01*
X018235Y011957D02*
X017152Y011957D01*
X017210Y011898D02*
X018177Y011898D01*
X018151Y011840D02*
X017724Y011840D01*
X017782Y011781D02*
X018136Y011781D01*
X018136Y011723D02*
X017841Y011723D01*
X017896Y011664D02*
X018119Y011664D01*
X018061Y011606D02*
X017896Y011606D01*
X017896Y011547D02*
X018002Y011547D01*
X017944Y011488D02*
X017896Y011488D01*
X018107Y011313D02*
X025492Y011313D01*
X025492Y011371D02*
X018166Y011371D01*
X018225Y011430D02*
X024472Y011430D01*
X024484Y011418D02*
X024233Y011669D01*
X024233Y011818D01*
X024632Y011818D01*
X024632Y011877D01*
X024233Y011877D01*
X024233Y012026D01*
X024484Y012278D01*
X024633Y012278D01*
X024633Y011878D01*
X024692Y011878D01*
X024692Y012278D01*
X024841Y012278D01*
X025092Y012026D01*
X025092Y011877D01*
X024693Y011877D01*
X024693Y011818D01*
X025092Y011818D01*
X025092Y011669D01*
X024841Y011418D01*
X024692Y011418D01*
X024692Y011817D01*
X024633Y011817D01*
X024633Y011418D01*
X024484Y011418D01*
X024414Y011488D02*
X023855Y011488D01*
X023824Y011458D02*
X024052Y011686D01*
X024052Y012009D01*
X023824Y012238D01*
X023501Y012238D01*
X023273Y012009D01*
X023273Y011686D01*
X023501Y011458D01*
X023824Y011458D01*
X023913Y011547D02*
X024355Y011547D01*
X024296Y011606D02*
X023972Y011606D01*
X024031Y011664D02*
X024238Y011664D01*
X024233Y011723D02*
X024052Y011723D01*
X024052Y011781D02*
X024233Y011781D01*
X024233Y011898D02*
X024052Y011898D01*
X024052Y011840D02*
X024632Y011840D01*
X024633Y011898D02*
X024692Y011898D01*
X024693Y011840D02*
X025492Y011840D01*
X025492Y011898D02*
X025092Y011898D01*
X025092Y011957D02*
X025492Y011957D01*
X025492Y012015D02*
X025092Y012015D01*
X025044Y012074D02*
X025492Y012074D01*
X025492Y012132D02*
X024986Y012132D01*
X024927Y012191D02*
X025492Y012191D01*
X025492Y012249D02*
X024869Y012249D01*
X024692Y012249D02*
X024633Y012249D01*
X024633Y012191D02*
X024692Y012191D01*
X024692Y012132D02*
X024633Y012132D01*
X024633Y012074D02*
X024692Y012074D01*
X024692Y012015D02*
X024633Y012015D01*
X024633Y011957D02*
X024692Y011957D01*
X024692Y011781D02*
X024633Y011781D01*
X024633Y011723D02*
X024692Y011723D01*
X024692Y011664D02*
X024633Y011664D01*
X024633Y011606D02*
X024692Y011606D01*
X024692Y011547D02*
X024633Y011547D01*
X024633Y011488D02*
X024692Y011488D01*
X024692Y011430D02*
X024633Y011430D01*
X024633Y011254D02*
X024692Y011254D01*
X024692Y011196D02*
X024633Y011196D01*
X024633Y011137D02*
X024692Y011137D01*
X024692Y011079D02*
X024633Y011079D01*
X024633Y011020D02*
X024692Y011020D01*
X024692Y010962D02*
X024633Y010962D01*
X024633Y010903D02*
X024692Y010903D01*
X024693Y010844D02*
X025492Y010844D01*
X025492Y010786D02*
X025092Y010786D01*
X025092Y010903D02*
X025492Y010903D01*
X025492Y010962D02*
X025092Y010962D01*
X025092Y011020D02*
X025492Y011020D01*
X025492Y011079D02*
X025039Y011079D01*
X024981Y011137D02*
X025492Y011137D01*
X025492Y011196D02*
X024922Y011196D01*
X024864Y011254D02*
X025492Y011254D01*
X025492Y011430D02*
X024853Y011430D01*
X024911Y011488D02*
X025492Y011488D01*
X025492Y011547D02*
X024970Y011547D01*
X025029Y011606D02*
X025492Y011606D01*
X025492Y011664D02*
X025087Y011664D01*
X025092Y011723D02*
X025492Y011723D01*
X025492Y011781D02*
X025092Y011781D01*
X024456Y012249D02*
X022966Y012249D01*
X022966Y012191D02*
X023454Y012191D01*
X023396Y012132D02*
X022966Y012132D01*
X022966Y012074D02*
X023337Y012074D01*
X023279Y012015D02*
X022966Y012015D01*
X022966Y011957D02*
X023273Y011957D01*
X023273Y011898D02*
X022966Y011898D01*
X022966Y011840D02*
X023273Y011840D01*
X023273Y011781D02*
X022966Y011781D01*
X022966Y011723D02*
X023273Y011723D01*
X023294Y011664D02*
X022961Y011664D01*
X022902Y011606D02*
X023353Y011606D01*
X023412Y011547D02*
X022844Y011547D01*
X023470Y011488D02*
X018283Y011488D01*
X018516Y011547D02*
X020043Y011547D01*
X019985Y011606D02*
X018577Y011606D01*
X017288Y011840D02*
X017237Y011840D01*
X017006Y011756D02*
X017006Y011006D01*
X016783Y010903D02*
X016729Y010903D01*
X016714Y010867D02*
X016751Y010957D01*
X016751Y011055D01*
X016714Y011145D01*
X016645Y011214D01*
X016626Y011221D01*
X016626Y011541D01*
X016645Y011548D01*
X016714Y011617D01*
X016751Y011707D01*
X016751Y011805D01*
X016714Y011895D01*
X016645Y011964D01*
X016555Y012001D01*
X016457Y012001D01*
X016367Y011964D01*
X016298Y011895D01*
X016261Y011805D01*
X016261Y011707D01*
X016298Y011617D01*
X016367Y011548D01*
X016386Y011541D01*
X016386Y011221D01*
X016367Y011214D01*
X016298Y011145D01*
X016261Y011055D01*
X016261Y010957D01*
X016298Y010867D01*
X016367Y010798D01*
X016457Y010761D01*
X016555Y010761D01*
X016645Y010798D01*
X016714Y010867D01*
X016691Y010844D02*
X016821Y010844D01*
X016897Y010786D02*
X016615Y010786D01*
X016397Y010786D02*
X013521Y010786D01*
X013579Y010727D02*
X017136Y010727D01*
X017136Y010786D02*
X017115Y010786D01*
X017152Y010669D02*
X013638Y010669D01*
X013696Y010610D02*
X014669Y010610D01*
X014580Y010552D02*
X013755Y010552D01*
X013814Y010493D02*
X014537Y010493D01*
X014513Y010435D02*
X013872Y010435D01*
X013931Y010376D02*
X014511Y010376D01*
X014517Y010318D02*
X013989Y010318D01*
X014048Y010259D02*
X014541Y010259D01*
X014590Y010200D02*
X014106Y010200D01*
X014165Y010142D02*
X014693Y010142D01*
X014819Y010142D02*
X016797Y010142D01*
X016854Y010200D02*
X014922Y010200D01*
X014971Y010259D02*
X017083Y010259D01*
X017131Y010381D02*
X014756Y010381D01*
X014932Y010552D02*
X017239Y010552D01*
X017189Y010493D02*
X023465Y010493D01*
X023464Y010200D02*
X017617Y010200D01*
X017626Y010142D02*
X023405Y010142D01*
X023347Y010083D02*
X017626Y010083D01*
X017602Y010025D02*
X023288Y010025D01*
X023273Y009966D02*
X017563Y009966D01*
X017482Y009908D02*
X023273Y009908D01*
X023273Y009849D02*
X017196Y009849D01*
X017230Y009908D02*
X017280Y009908D01*
X017126Y009791D02*
X023273Y009791D01*
X023273Y009732D02*
X020413Y009732D01*
X020497Y009674D02*
X023285Y009674D01*
X023344Y009615D02*
X020539Y009615D01*
X020563Y009556D02*
X023402Y009556D01*
X023461Y009498D02*
X020563Y009498D01*
X020556Y009439D02*
X024463Y009439D01*
X024404Y009498D02*
X023864Y009498D01*
X023923Y009556D02*
X024345Y009556D01*
X024287Y009615D02*
X023981Y009615D01*
X024040Y009674D02*
X024233Y009674D01*
X024233Y009732D02*
X024052Y009732D01*
X024633Y009732D02*
X024692Y009732D01*
X024692Y009674D02*
X024633Y009674D01*
X024633Y009615D02*
X024692Y009615D01*
X024692Y009556D02*
X024633Y009556D01*
X024633Y009498D02*
X024692Y009498D01*
X024692Y009439D02*
X024633Y009439D01*
X024633Y009264D02*
X024692Y009264D01*
X024692Y009205D02*
X024633Y009205D01*
X024633Y009147D02*
X024692Y009147D01*
X024692Y009088D02*
X024633Y009088D01*
X024633Y009030D02*
X024692Y009030D01*
X024692Y008971D02*
X024633Y008971D01*
X024633Y008913D02*
X024692Y008913D01*
X024693Y008854D02*
X025492Y008854D01*
X025492Y008327D02*
X019251Y008327D01*
X019251Y008269D02*
X024475Y008269D01*
X024484Y008278D02*
X024233Y008026D01*
X024233Y007877D01*
X024632Y007877D01*
X024632Y007818D01*
X024233Y007818D01*
X024233Y007669D01*
X024484Y007418D01*
X024633Y007418D01*
X024633Y007817D01*
X024692Y007817D01*
X024692Y007418D01*
X024841Y007418D01*
X025092Y007669D01*
X025092Y007818D01*
X024693Y007818D01*
X024693Y007877D01*
X025092Y007877D01*
X025092Y008026D01*
X024841Y008278D01*
X024692Y008278D01*
X024692Y007878D01*
X024633Y007878D01*
X024633Y008278D01*
X024484Y008278D01*
X024417Y008210D02*
X023852Y008210D01*
X023824Y008238D02*
X023501Y008238D01*
X023273Y008009D01*
X023273Y007686D01*
X023501Y007458D01*
X023824Y007458D01*
X024052Y007686D01*
X024052Y008009D01*
X023824Y008238D01*
X023910Y008151D02*
X024358Y008151D01*
X024300Y008093D02*
X023969Y008093D01*
X024027Y008034D02*
X024241Y008034D01*
X024233Y007976D02*
X024052Y007976D01*
X024052Y007917D02*
X024233Y007917D01*
X024233Y007800D02*
X024052Y007800D01*
X024052Y007742D02*
X024233Y007742D01*
X024233Y007683D02*
X024050Y007683D01*
X023991Y007625D02*
X024277Y007625D01*
X024336Y007566D02*
X023932Y007566D01*
X023874Y007507D02*
X024394Y007507D01*
X024453Y007449D02*
X018126Y007449D01*
X018126Y007507D02*
X023451Y007507D01*
X023393Y007566D02*
X018126Y007566D01*
X018126Y007625D02*
X023334Y007625D01*
X023275Y007683D02*
X019280Y007683D01*
X019338Y007742D02*
X023273Y007742D01*
X023273Y007800D02*
X019363Y007800D01*
X019376Y007859D02*
X023273Y007859D01*
X023273Y007917D02*
X019376Y007917D01*
X019357Y007976D02*
X023273Y007976D01*
X023298Y008034D02*
X019324Y008034D01*
X019260Y008093D02*
X023356Y008093D01*
X023415Y008151D02*
X019251Y008151D01*
X019251Y008210D02*
X023473Y008210D01*
X023456Y008503D02*
X019251Y008503D01*
X019251Y008561D02*
X023397Y008561D01*
X023339Y008620D02*
X019251Y008620D01*
X019275Y008678D02*
X023280Y008678D01*
X023273Y008737D02*
X019333Y008737D01*
X019361Y008795D02*
X023273Y008795D01*
X023273Y008854D02*
X019376Y008854D01*
X019376Y008913D02*
X023273Y008913D01*
X023273Y008971D02*
X019359Y008971D01*
X019329Y009030D02*
X023293Y009030D01*
X023352Y009088D02*
X019270Y009088D01*
X019131Y008881D02*
X019131Y007881D01*
X018982Y007683D02*
X018905Y007683D01*
X018756Y007881D02*
X018756Y008756D01*
X018531Y008854D02*
X018231Y008854D01*
X018251Y008795D02*
X018511Y008795D01*
X018511Y008737D02*
X018251Y008737D01*
X018239Y008678D02*
X018523Y008678D01*
X018547Y008620D02*
X018215Y008620D01*
X018158Y008561D02*
X018604Y008561D01*
X018636Y008503D02*
X018126Y008503D01*
X018126Y008444D02*
X018636Y008444D01*
X018636Y008386D02*
X018126Y008386D01*
X018126Y008327D02*
X018636Y008327D01*
X018636Y008269D02*
X018126Y008269D01*
X018126Y008210D02*
X018636Y008210D01*
X018636Y008151D02*
X018126Y008151D01*
X018126Y008093D02*
X018627Y008093D01*
X018563Y008034D02*
X018126Y008034D01*
X018126Y007976D02*
X018530Y007976D01*
X018511Y007917D02*
X018126Y007917D01*
X018126Y007859D02*
X018511Y007859D01*
X018524Y007800D02*
X018126Y007800D01*
X018126Y007742D02*
X018549Y007742D01*
X018607Y007683D02*
X018126Y007683D01*
X017886Y007742D02*
X017827Y007742D01*
X017886Y007800D02*
X017501Y007800D01*
X017501Y007742D02*
X017685Y007742D01*
X017587Y007683D02*
X017491Y007683D01*
X017756Y007506D02*
X015881Y007506D01*
X015756Y007381D01*
X010881Y007381D01*
X010631Y007131D01*
X010404Y007039D02*
X000926Y007039D01*
X000926Y006981D02*
X001459Y006981D01*
X001464Y006983D02*
X001290Y006911D01*
X001156Y006777D01*
X001084Y006603D01*
X001084Y006415D01*
X001156Y006241D01*
X001290Y006107D01*
X001464Y006035D01*
X002420Y006035D01*
X002594Y006107D01*
X002728Y006241D01*
X002800Y006415D01*
X002800Y006603D01*
X002728Y006777D01*
X002594Y006911D01*
X002420Y006983D01*
X001464Y006983D01*
X001317Y006922D02*
X000926Y006922D01*
X000926Y006864D02*
X001243Y006864D01*
X001184Y006805D02*
X000926Y006805D01*
X000926Y006746D02*
X001144Y006746D01*
X001119Y006688D02*
X000926Y006688D01*
X000926Y006629D02*
X001095Y006629D01*
X001084Y006571D02*
X000926Y006571D01*
X000926Y006512D02*
X001084Y006512D01*
X001084Y006454D02*
X000926Y006454D01*
X000926Y006395D02*
X001092Y006395D01*
X001117Y006337D02*
X000926Y006337D01*
X000926Y006278D02*
X001141Y006278D01*
X001177Y006220D02*
X000926Y006220D01*
X000926Y006161D02*
X001236Y006161D01*
X001301Y006102D02*
X000926Y006102D01*
X000926Y006044D02*
X001443Y006044D01*
X000926Y005985D02*
X013659Y005985D01*
X013673Y006020D02*
X013636Y005930D01*
X013636Y005832D01*
X013673Y005742D01*
X013742Y005673D01*
X013832Y005636D01*
X013930Y005636D01*
X014020Y005673D01*
X014089Y005742D01*
X014096Y005761D01*
X016541Y005761D01*
X016548Y005742D01*
X016617Y005673D01*
X016707Y005636D01*
X016805Y005636D01*
X016895Y005673D01*
X016964Y005742D01*
X017001Y005832D01*
X017001Y005920D01*
X017082Y005886D01*
X017180Y005886D01*
X017270Y005923D01*
X017339Y005992D01*
X017376Y006082D01*
X017376Y006180D01*
X017339Y006270D01*
X017270Y006339D01*
X017180Y006376D01*
X017082Y006376D01*
X017001Y006342D01*
X017001Y006420D01*
X017082Y006386D01*
X017180Y006386D01*
X017270Y006423D01*
X017339Y006492D01*
X017376Y006582D01*
X017376Y006680D01*
X017339Y006770D01*
X017290Y006819D01*
X017339Y006867D01*
X017376Y006957D01*
X017376Y007029D01*
X017420Y007011D01*
X017517Y007011D01*
X017607Y007048D01*
X017676Y007117D01*
X017714Y007207D01*
X017714Y007261D01*
X017805Y007261D01*
X017886Y007295D01*
X017886Y005804D01*
X017885Y005803D01*
X017886Y005755D01*
X017886Y005706D01*
X017887Y005705D01*
X017887Y005703D01*
X017923Y005670D01*
X017956Y005636D01*
X017958Y005636D01*
X018033Y005564D01*
X018028Y005551D01*
X018028Y005453D01*
X018065Y005363D01*
X018134Y005294D01*
X018087Y005341D02*
X010263Y005341D01*
X010131Y005131D02*
X006506Y005131D01*
X006256Y004881D01*
X006162Y005107D02*
X003489Y005107D01*
X003548Y005049D02*
X006077Y005049D01*
X006036Y004990D02*
X003606Y004990D01*
X003665Y004932D02*
X006012Y004932D01*
X006011Y004873D02*
X003723Y004873D01*
X003782Y004814D02*
X006018Y004814D01*
X006043Y004756D02*
X003840Y004756D01*
X003899Y004697D02*
X006093Y004697D01*
X006500Y004932D02*
X009984Y004932D01*
X009925Y004990D02*
X006535Y004990D01*
X006371Y005166D02*
X003431Y005166D01*
X003372Y005224D02*
X006430Y005224D01*
X007528Y002941D02*
X008229Y002941D01*
X008170Y002883D02*
X007470Y002883D01*
X007411Y002824D02*
X008112Y002824D01*
X008053Y002765D02*
X007353Y002765D01*
X007294Y002707D02*
X007995Y002707D01*
X007876Y002648D02*
X007244Y002648D01*
X007302Y002590D02*
X007818Y002590D01*
X007759Y002531D02*
X007361Y002531D01*
X007419Y002473D02*
X007701Y002473D01*
X007670Y002414D02*
X007450Y002414D01*
X007450Y002356D02*
X007670Y002356D01*
X007670Y002297D02*
X007450Y002297D01*
X007450Y002239D02*
X007670Y002239D01*
X007670Y002180D02*
X007450Y002180D01*
X007450Y002121D02*
X007670Y002121D01*
X007726Y002063D02*
X007394Y002063D01*
X007335Y002004D02*
X007785Y002004D01*
X007843Y001946D02*
X007277Y001946D01*
X006726Y002063D02*
X006676Y002063D01*
X005843Y001946D02*
X005277Y001946D01*
X005335Y002004D02*
X005785Y002004D01*
X005726Y002063D02*
X005394Y002063D01*
X005450Y002121D02*
X005670Y002121D01*
X005670Y002180D02*
X005450Y002180D01*
X005450Y002239D02*
X005670Y002239D01*
X005670Y002297D02*
X005450Y002297D01*
X005450Y002356D02*
X005670Y002356D01*
X005670Y002414D02*
X005450Y002414D01*
X005419Y002473D02*
X005701Y002473D01*
X005759Y002531D02*
X005361Y002531D01*
X005302Y002590D02*
X005818Y002590D01*
X005876Y002648D02*
X005244Y002648D01*
X004876Y002648D02*
X004721Y002648D01*
X004721Y002590D02*
X004818Y002590D01*
X004759Y002531D02*
X004721Y002531D01*
X003460Y003468D02*
X000361Y003468D01*
X000361Y003527D02*
X003401Y003527D01*
X003343Y003585D02*
X000361Y003585D01*
X000361Y003644D02*
X003284Y003644D01*
X003225Y003702D02*
X000361Y003702D01*
X000361Y003761D02*
X003167Y003761D01*
X003108Y003819D02*
X000361Y003819D01*
X000361Y003878D02*
X003050Y003878D01*
X002991Y003936D02*
X000361Y003936D01*
X000361Y003995D02*
X002933Y003995D01*
X002874Y004053D02*
X000361Y004053D01*
X000361Y004112D02*
X002816Y004112D01*
X002757Y004171D02*
X000361Y004171D01*
X000361Y004229D02*
X002699Y004229D01*
X002640Y004288D02*
X000361Y004288D01*
X000361Y004346D02*
X002581Y004346D01*
X002523Y004405D02*
X000361Y004405D01*
X000361Y004463D02*
X001813Y004463D01*
X001671Y004522D02*
X000361Y004522D01*
X000361Y004580D02*
X001450Y004580D01*
X001308Y004639D02*
X000361Y004639D01*
X000361Y004697D02*
X001239Y004697D01*
X001180Y004756D02*
X000361Y004756D01*
X000361Y004814D02*
X001142Y004814D01*
X001024Y004873D02*
X000361Y004873D01*
X000361Y004932D02*
X000965Y004932D01*
X000906Y004990D02*
X000361Y004990D01*
X000361Y005049D02*
X000848Y005049D01*
X000789Y005107D02*
X000361Y005107D01*
X000361Y005166D02*
X000731Y005166D01*
X000672Y005224D02*
X000361Y005224D01*
X000361Y005283D02*
X000614Y005283D01*
X000586Y005341D02*
X000361Y005341D01*
X000361Y005400D02*
X000586Y005400D01*
X000586Y005458D02*
X000361Y005458D01*
X000361Y005517D02*
X000586Y005517D01*
X000586Y005576D02*
X000361Y005576D01*
X000361Y005634D02*
X000586Y005634D01*
X000586Y005693D02*
X000361Y005693D01*
X000361Y005751D02*
X000586Y005751D01*
X000586Y005810D02*
X000361Y005810D01*
X000361Y005868D02*
X000586Y005868D01*
X000586Y005927D02*
X000361Y005927D01*
X000361Y005985D02*
X000586Y005985D01*
X000586Y006044D02*
X000361Y006044D01*
X000361Y006102D02*
X000586Y006102D01*
X000586Y006161D02*
X000361Y006161D01*
X000361Y006220D02*
X000586Y006220D01*
X000586Y006278D02*
X000361Y006278D01*
X000361Y006337D02*
X000586Y006337D01*
X000586Y006395D02*
X000361Y006395D01*
X000361Y006454D02*
X000586Y006454D01*
X000586Y006512D02*
X000361Y006512D01*
X000361Y006571D02*
X000586Y006571D01*
X000586Y006629D02*
X000361Y006629D01*
X000361Y006688D02*
X000586Y006688D01*
X000586Y006746D02*
X000361Y006746D01*
X000361Y006805D02*
X000586Y006805D01*
X000586Y006864D02*
X000361Y006864D01*
X000361Y006922D02*
X000586Y006922D01*
X000586Y006981D02*
X000361Y006981D01*
X000361Y007039D02*
X000586Y007039D01*
X000586Y007098D02*
X000361Y007098D01*
X000361Y007156D02*
X000586Y007156D01*
X000586Y007215D02*
X000361Y007215D01*
X000361Y007273D02*
X000586Y007273D01*
X000586Y007332D02*
X000361Y007332D01*
X000361Y007390D02*
X000586Y007390D01*
X000586Y007449D02*
X000361Y007449D01*
X000361Y007507D02*
X000586Y007507D01*
X000586Y007566D02*
X000361Y007566D01*
X000361Y007625D02*
X000586Y007625D01*
X000586Y007683D02*
X000361Y007683D01*
X000361Y007742D02*
X000586Y007742D01*
X000586Y007800D02*
X000361Y007800D01*
X000361Y007859D02*
X000586Y007859D01*
X000586Y007917D02*
X000361Y007917D01*
X000361Y007976D02*
X000586Y007976D01*
X000586Y008034D02*
X000361Y008034D01*
X000361Y008093D02*
X000586Y008093D01*
X000586Y008151D02*
X000361Y008151D01*
X000361Y008210D02*
X000586Y008210D01*
X000586Y008269D02*
X000361Y008269D01*
X000361Y008327D02*
X000586Y008327D01*
X000586Y008386D02*
X000361Y008386D01*
X000361Y008444D02*
X000586Y008444D01*
X000586Y008503D02*
X000361Y008503D01*
X000361Y008561D02*
X000586Y008561D01*
X000586Y008620D02*
X000361Y008620D01*
X000361Y008678D02*
X000586Y008678D01*
X000586Y008737D02*
X000361Y008737D01*
X000361Y008795D02*
X000586Y008795D01*
X000586Y008854D02*
X000361Y008854D01*
X000361Y008913D02*
X000586Y008913D01*
X000586Y008971D02*
X000361Y008971D01*
X000361Y009030D02*
X000586Y009030D01*
X000586Y009088D02*
X000361Y009088D01*
X000361Y009147D02*
X000586Y009147D01*
X000586Y009205D02*
X000361Y009205D01*
X000361Y009264D02*
X000586Y009264D01*
X000586Y009322D02*
X000361Y009322D01*
X000361Y009381D02*
X000586Y009381D01*
X000586Y009439D02*
X000361Y009439D01*
X000361Y009498D02*
X000586Y009498D01*
X000586Y009556D02*
X000361Y009556D01*
X000361Y009615D02*
X000586Y009615D01*
X000586Y009674D02*
X000361Y009674D01*
X000361Y009732D02*
X000586Y009732D01*
X000586Y009791D02*
X000361Y009791D01*
X000361Y009849D02*
X000586Y009849D01*
X000586Y009908D02*
X000361Y009908D01*
X000361Y009966D02*
X000586Y009966D01*
X000586Y010025D02*
X000361Y010025D01*
X000361Y010083D02*
X000586Y010083D01*
X000586Y010142D02*
X000361Y010142D01*
X000361Y010200D02*
X000586Y010200D01*
X000586Y010259D02*
X000361Y010259D01*
X000361Y010318D02*
X000586Y010318D01*
X000586Y010376D02*
X000361Y010376D01*
X000361Y010435D02*
X000586Y010435D01*
X000586Y010493D02*
X000361Y010493D01*
X000361Y010552D02*
X000586Y010552D01*
X000586Y010610D02*
X000361Y010610D01*
X000361Y010669D02*
X000586Y010669D01*
X000586Y010727D02*
X000361Y010727D01*
X000361Y010786D02*
X000586Y010786D01*
X000586Y010844D02*
X000361Y010844D01*
X000361Y010903D02*
X000586Y010903D01*
X000586Y010962D02*
X000361Y010962D01*
X000361Y011020D02*
X000586Y011020D01*
X000586Y011079D02*
X000361Y011079D01*
X000361Y011137D02*
X000586Y011137D01*
X000586Y011196D02*
X000361Y011196D01*
X000361Y011254D02*
X000586Y011254D01*
X000586Y011313D02*
X000361Y011313D01*
X000361Y011371D02*
X000586Y011371D01*
X000586Y011430D02*
X000361Y011430D01*
X000361Y011488D02*
X000586Y011488D01*
X000586Y011547D02*
X000361Y011547D01*
X000361Y011606D02*
X000586Y011606D01*
X000586Y011664D02*
X000361Y011664D01*
X000361Y011723D02*
X000586Y011723D01*
X000586Y011781D02*
X000361Y011781D01*
X000361Y011840D02*
X000586Y011840D01*
X000586Y011898D02*
X000361Y011898D01*
X000361Y011957D02*
X000586Y011957D01*
X000586Y012015D02*
X000361Y012015D01*
X000361Y012074D02*
X000586Y012074D01*
X000586Y012132D02*
X000361Y012132D01*
X000361Y012191D02*
X000586Y012191D01*
X000586Y012249D02*
X000361Y012249D01*
X000361Y012308D02*
X000586Y012308D01*
X000586Y012367D02*
X000361Y012367D01*
X000361Y012425D02*
X000586Y012425D01*
X000586Y012484D02*
X000361Y012484D01*
X000361Y012542D02*
X000586Y012542D01*
X000586Y012601D02*
X000361Y012601D01*
X000361Y012659D02*
X000586Y012659D01*
X000573Y012718D02*
X000361Y012718D01*
X000361Y012776D02*
X000534Y012776D01*
X000511Y012835D02*
X000361Y012835D01*
X000361Y012893D02*
X000511Y012893D01*
X000520Y012952D02*
X000361Y012952D01*
X000361Y013011D02*
X000545Y013011D01*
X000598Y013069D02*
X000361Y013069D01*
X000361Y013128D02*
X008886Y013128D01*
X008886Y013186D02*
X000361Y013186D01*
X000361Y013245D02*
X008886Y013245D01*
X008886Y013303D02*
X000361Y013303D01*
X000361Y013362D02*
X008886Y013362D01*
X008886Y013420D02*
X000361Y013420D01*
X000361Y013479D02*
X008886Y013479D01*
X008886Y013537D02*
X000361Y013537D01*
X000361Y013596D02*
X008886Y013596D01*
X008886Y013655D02*
X000361Y013655D01*
X000361Y013713D02*
X008886Y013713D01*
X008886Y013772D02*
X000361Y013772D01*
X000361Y013830D02*
X008886Y013830D01*
X008886Y013889D02*
X000361Y013889D01*
X000361Y013947D02*
X008886Y013947D01*
X008886Y014006D02*
X000361Y014006D01*
X000361Y014064D02*
X008886Y014064D01*
X008886Y014123D02*
X000361Y014123D01*
X000361Y014181D02*
X008886Y014181D01*
X008886Y014240D02*
X000361Y014240D01*
X000361Y014299D02*
X008886Y014299D01*
X008886Y014357D02*
X000361Y014357D01*
X000361Y014416D02*
X008448Y014416D01*
X008448Y014415D02*
X008603Y014415D01*
X008747Y014475D01*
X008856Y014584D01*
X008886Y014656D01*
X008886Y010556D01*
X008886Y010456D01*
X009136Y010206D01*
X009206Y010136D01*
X009511Y010136D01*
X009511Y010082D01*
X009548Y009992D01*
X009617Y009923D01*
X009707Y009886D01*
X009805Y009886D01*
X009895Y009923D01*
X009964Y009992D01*
X010001Y010082D01*
X010001Y010180D01*
X009964Y010270D01*
X009895Y010339D01*
X009805Y010376D01*
X009717Y010376D01*
X009751Y010457D01*
X009751Y010555D01*
X009714Y010645D01*
X009645Y010714D01*
X009626Y010721D01*
X009626Y010956D01*
X010376Y011706D01*
X010376Y011806D01*
X010376Y013556D01*
X010306Y013626D01*
X010126Y013806D01*
X010126Y016056D01*
X010056Y016126D01*
X009376Y016806D01*
X009376Y017666D01*
X009395Y017673D01*
X009464Y017742D01*
X009501Y017832D01*
X009501Y017930D01*
X009464Y018020D01*
X009395Y018089D01*
X009305Y018126D01*
X009207Y018126D01*
X009117Y018089D01*
X009048Y018020D01*
X009011Y017930D01*
X009011Y017832D01*
X009048Y017742D01*
X009117Y017673D01*
X009136Y017666D01*
X009136Y016806D01*
X009136Y016706D01*
X009886Y015956D01*
X009886Y015554D01*
X009856Y015626D01*
X009747Y015736D01*
X009603Y015795D01*
X009448Y015795D01*
X009305Y015736D01*
X009195Y015626D01*
X009136Y015483D01*
X009136Y014728D01*
X009195Y014584D01*
X009305Y014475D01*
X009448Y014415D01*
X009603Y014415D01*
X009747Y014475D01*
X009856Y014584D01*
X009886Y014656D01*
X009886Y013806D01*
X009886Y013706D01*
X010136Y013456D01*
X010136Y011806D01*
X009386Y011056D01*
X009386Y010956D01*
X009386Y010721D01*
X009367Y010714D01*
X009298Y010645D01*
X009261Y010555D01*
X009261Y010457D01*
X009287Y010395D01*
X009126Y010556D01*
X009126Y016681D01*
X009056Y016751D01*
X008501Y017306D01*
X008501Y017541D01*
X008520Y017548D01*
X008589Y017617D01*
X008626Y017707D01*
X008626Y017805D01*
X008589Y017895D01*
X008520Y017964D01*
X008430Y018001D01*
X008332Y018001D01*
X008242Y017964D01*
X008173Y017895D01*
X008136Y017805D01*
X008136Y017707D01*
X008173Y017617D01*
X008242Y017548D01*
X008261Y017541D01*
X008261Y017306D01*
X008261Y017206D01*
X008886Y016581D01*
X008886Y015554D01*
X008856Y015626D01*
X008747Y015736D01*
X008603Y015795D01*
X008448Y015795D01*
X008305Y015736D01*
X008195Y015626D01*
X008136Y015483D01*
X008136Y015301D01*
X005432Y015301D01*
X005395Y015339D01*
X005305Y015376D01*
X005207Y015376D01*
X005117Y015339D01*
X005048Y015270D01*
X005011Y015180D01*
X005011Y015082D01*
X005048Y014992D01*
X005117Y014923D01*
X005207Y014886D01*
X005305Y014886D01*
X005395Y014923D01*
X005432Y014961D01*
X008136Y014961D01*
X008136Y014728D01*
X008195Y014584D01*
X008305Y014475D01*
X008448Y014415D01*
X008306Y014474D02*
X000361Y014474D01*
X000361Y014533D02*
X008247Y014533D01*
X008192Y014591D02*
X000361Y014591D01*
X000361Y014650D02*
X008168Y014650D01*
X008144Y014708D02*
X000361Y014708D01*
X000361Y014767D02*
X008136Y014767D01*
X008136Y014825D02*
X000361Y014825D01*
X000361Y014884D02*
X008136Y014884D01*
X008136Y014942D02*
X005414Y014942D01*
X005098Y014942D02*
X000361Y014942D01*
X000361Y015001D02*
X005045Y015001D01*
X005020Y015060D02*
X000361Y015060D01*
X000361Y015118D02*
X005011Y015118D01*
X005011Y015177D02*
X000361Y015177D01*
X000361Y015235D02*
X005034Y015235D01*
X005072Y015294D02*
X000361Y015294D01*
X000361Y015352D02*
X005150Y015352D01*
X005362Y015352D02*
X008136Y015352D01*
X008136Y015411D02*
X000361Y015411D01*
X000361Y015469D02*
X008136Y015469D01*
X008154Y015528D02*
X005698Y015528D01*
X005681Y015511D02*
X005751Y015581D01*
X007313Y017144D01*
X007332Y017136D01*
X007430Y017136D01*
X007520Y017173D01*
X007589Y017242D01*
X007626Y017332D01*
X007626Y017430D01*
X007589Y017520D01*
X007520Y017589D01*
X007430Y017626D01*
X007332Y017626D01*
X007242Y017589D01*
X007173Y017520D01*
X007170Y017512D01*
X007170Y017535D01*
X007108Y017684D01*
X006994Y017799D01*
X006844Y017861D01*
X006682Y017861D01*
X006532Y017799D01*
X006418Y017684D01*
X006356Y017535D01*
X006356Y017373D01*
X006418Y017223D01*
X006532Y017109D01*
X006682Y017047D01*
X006844Y017047D01*
X006901Y017070D01*
X005581Y015751D01*
X004931Y015751D01*
X004868Y015813D01*
X004876Y015832D01*
X004876Y015930D01*
X004839Y016020D01*
X004770Y016089D01*
X004680Y016126D01*
X004582Y016126D01*
X004492Y016089D01*
X004423Y016020D01*
X004386Y015930D01*
X004386Y015832D01*
X004423Y015742D01*
X004492Y015673D01*
X004582Y015636D01*
X004680Y015636D01*
X004699Y015644D01*
X004831Y015511D01*
X004931Y015511D01*
X005681Y015511D01*
X005756Y015586D02*
X008179Y015586D01*
X008214Y015645D02*
X005815Y015645D01*
X005873Y015704D02*
X008272Y015704D01*
X008368Y015762D02*
X005932Y015762D01*
X005990Y015821D02*
X008886Y015821D01*
X008886Y015879D02*
X006049Y015879D01*
X006107Y015938D02*
X008886Y015938D01*
X008886Y015996D02*
X006166Y015996D01*
X006224Y016055D02*
X008886Y016055D01*
X008886Y016113D02*
X006283Y016113D01*
X006342Y016172D02*
X008886Y016172D01*
X008886Y016230D02*
X006400Y016230D01*
X006459Y016289D02*
X008886Y016289D01*
X008886Y016348D02*
X006517Y016348D01*
X006576Y016406D02*
X008886Y016406D01*
X008886Y016465D02*
X006634Y016465D01*
X006693Y016523D02*
X008886Y016523D01*
X008886Y016582D02*
X006751Y016582D01*
X006810Y016640D02*
X008827Y016640D01*
X008769Y016699D02*
X006868Y016699D01*
X006927Y016757D02*
X008710Y016757D01*
X008651Y016816D02*
X006986Y016816D01*
X007044Y016874D02*
X008593Y016874D01*
X008534Y016933D02*
X007103Y016933D01*
X007161Y016991D02*
X008476Y016991D01*
X008417Y017050D02*
X007220Y017050D01*
X007278Y017109D02*
X008359Y017109D01*
X008300Y017167D02*
X007505Y017167D01*
X007572Y017226D02*
X008261Y017226D01*
X008261Y017284D02*
X007606Y017284D01*
X007626Y017343D02*
X008261Y017343D01*
X008261Y017401D02*
X007626Y017401D01*
X007614Y017460D02*
X008261Y017460D01*
X008261Y017518D02*
X007589Y017518D01*
X007532Y017577D02*
X008214Y017577D01*
X008166Y017635D02*
X007128Y017635D01*
X007153Y017577D02*
X007230Y017577D01*
X007173Y017518D02*
X007170Y017518D01*
X007099Y017694D02*
X008141Y017694D01*
X008136Y017753D02*
X007040Y017753D01*
X006964Y017811D02*
X008139Y017811D01*
X008163Y017870D02*
X002130Y017870D01*
X002130Y017877D02*
X003379Y017877D01*
X003379Y017910D01*
X003367Y018036D01*
X003343Y018159D01*
X003306Y018279D01*
X003258Y018395D01*
X003199Y018506D01*
X003129Y018611D01*
X003049Y018708D01*
X002960Y018797D01*
X002863Y018877D01*
X002758Y018947D01*
X002647Y019006D01*
X002531Y019054D01*
X002411Y019091D01*
X002288Y019115D01*
X002162Y019128D01*
X002129Y019128D01*
X002129Y017878D01*
X002070Y017878D01*
X002070Y019128D01*
X002037Y019128D01*
X001911Y019115D01*
X001788Y019091D01*
X001668Y019054D01*
X001552Y019006D01*
X001441Y018947D01*
X001336Y018877D01*
X001239Y018797D01*
X001150Y018708D01*
X001070Y018611D01*
X001000Y018506D01*
X000941Y018395D01*
X000893Y018279D01*
X000856Y018159D01*
X000832Y018036D01*
X000820Y017910D01*
X000820Y017877D01*
X002069Y017877D01*
X002069Y017818D01*
X000820Y017818D01*
X000820Y017785D01*
X000832Y017659D01*
X000856Y017536D01*
X000893Y017416D01*
X000941Y017300D01*
X001000Y017189D01*
X001070Y017084D01*
X001150Y016987D01*
X001239Y016898D01*
X001336Y016818D01*
X001441Y016748D01*
X001552Y016689D01*
X001668Y016641D01*
X001788Y016604D01*
X001911Y016580D01*
X002037Y016568D01*
X002070Y016568D01*
X002070Y017817D01*
X002129Y017817D01*
X002129Y016568D01*
X002162Y016568D01*
X002288Y016580D01*
X002411Y016604D01*
X002531Y016641D01*
X002647Y016689D01*
X002758Y016748D01*
X002863Y016818D01*
X002960Y016898D01*
X003049Y016987D01*
X003129Y017084D01*
X003199Y017189D01*
X003258Y017300D01*
X003306Y017416D01*
X003343Y017536D01*
X003367Y017659D01*
X003379Y017785D01*
X003379Y017818D01*
X002130Y017818D01*
X002130Y017877D01*
X002129Y017928D02*
X002070Y017928D01*
X002069Y017870D02*
X000361Y017870D01*
X000361Y017928D02*
X000821Y017928D01*
X000827Y017987D02*
X000361Y017987D01*
X000361Y018045D02*
X000834Y018045D01*
X000845Y018104D02*
X000361Y018104D01*
X000361Y018162D02*
X000857Y018162D01*
X000875Y018221D02*
X000361Y018221D01*
X000361Y018279D02*
X000893Y018279D01*
X000917Y018338D02*
X000361Y018338D01*
X000361Y018397D02*
X000942Y018397D01*
X000973Y018455D02*
X000361Y018455D01*
X000361Y018514D02*
X001005Y018514D01*
X001044Y018572D02*
X000361Y018572D01*
X000361Y018631D02*
X001086Y018631D01*
X001134Y018689D02*
X000361Y018689D01*
X000361Y018748D02*
X001190Y018748D01*
X001250Y018806D02*
X000361Y018806D01*
X000361Y018865D02*
X001321Y018865D01*
X001406Y018923D02*
X000361Y018923D01*
X000361Y018982D02*
X001507Y018982D01*
X001635Y019041D02*
X000361Y019041D01*
X000361Y019099D02*
X001830Y019099D01*
X002070Y019099D02*
X002129Y019099D01*
X002129Y019041D02*
X002070Y019041D01*
X002070Y018982D02*
X002129Y018982D01*
X002129Y018923D02*
X002070Y018923D01*
X002070Y018865D02*
X002129Y018865D01*
X002129Y018806D02*
X002070Y018806D01*
X002070Y018748D02*
X002129Y018748D01*
X002129Y018689D02*
X002070Y018689D01*
X002070Y018631D02*
X002129Y018631D01*
X002129Y018572D02*
X002070Y018572D01*
X002070Y018514D02*
X002129Y018514D01*
X002129Y018455D02*
X002070Y018455D01*
X002070Y018397D02*
X002129Y018397D01*
X002129Y018338D02*
X002070Y018338D01*
X002070Y018279D02*
X002129Y018279D01*
X002129Y018221D02*
X002070Y018221D01*
X002070Y018162D02*
X002129Y018162D01*
X002129Y018104D02*
X002070Y018104D01*
X002070Y018045D02*
X002129Y018045D01*
X002129Y017987D02*
X002070Y017987D01*
X002070Y017811D02*
X002129Y017811D01*
X002129Y017753D02*
X002070Y017753D01*
X002070Y017694D02*
X002129Y017694D01*
X002129Y017635D02*
X002070Y017635D01*
X002070Y017577D02*
X002129Y017577D01*
X002129Y017518D02*
X002070Y017518D01*
X002070Y017460D02*
X002129Y017460D01*
X002129Y017401D02*
X002070Y017401D01*
X002070Y017343D02*
X002129Y017343D01*
X002129Y017284D02*
X002070Y017284D01*
X002070Y017226D02*
X002129Y017226D01*
X002129Y017167D02*
X002070Y017167D01*
X002070Y017109D02*
X002129Y017109D01*
X002129Y017050D02*
X002070Y017050D01*
X002070Y016991D02*
X002129Y016991D01*
X002129Y016933D02*
X002070Y016933D01*
X002070Y016874D02*
X002129Y016874D01*
X002129Y016816D02*
X002070Y016816D01*
X002070Y016757D02*
X002129Y016757D01*
X002129Y016699D02*
X002070Y016699D01*
X002070Y016640D02*
X002129Y016640D01*
X002129Y016582D02*
X002070Y016582D01*
X001902Y016582D02*
X000361Y016582D01*
X000361Y016640D02*
X001670Y016640D01*
X001533Y016699D02*
X000361Y016699D01*
X000361Y016757D02*
X001427Y016757D01*
X001340Y016816D02*
X000361Y016816D01*
X000361Y016874D02*
X001268Y016874D01*
X001204Y016933D02*
X000361Y016933D01*
X000361Y016991D02*
X001146Y016991D01*
X001098Y017050D02*
X000361Y017050D01*
X000361Y017109D02*
X001054Y017109D01*
X001015Y017167D02*
X000361Y017167D01*
X000361Y017226D02*
X000981Y017226D01*
X000949Y017284D02*
X000361Y017284D01*
X000361Y017343D02*
X000923Y017343D01*
X000899Y017401D02*
X000361Y017401D01*
X000361Y017460D02*
X000880Y017460D01*
X000862Y017518D02*
X000361Y017518D01*
X000361Y017577D02*
X000848Y017577D01*
X000837Y017635D02*
X000361Y017635D01*
X000361Y017694D02*
X000828Y017694D01*
X000823Y017753D02*
X000361Y017753D01*
X000361Y017811D02*
X000820Y017811D01*
X000361Y016523D02*
X006354Y016523D01*
X006412Y016582D02*
X002297Y016582D01*
X002529Y016640D02*
X006471Y016640D01*
X006529Y016699D02*
X002666Y016699D01*
X002772Y016757D02*
X006588Y016757D01*
X006646Y016816D02*
X002859Y016816D01*
X002931Y016874D02*
X006705Y016874D01*
X006763Y016933D02*
X002995Y016933D01*
X003053Y016991D02*
X006822Y016991D01*
X006852Y017050D02*
X006880Y017050D01*
X006674Y017050D02*
X005474Y017050D01*
X005466Y017047D02*
X005616Y017109D01*
X005730Y017223D01*
X005792Y017373D01*
X005792Y017535D01*
X005730Y017684D01*
X005616Y017799D01*
X005466Y017861D01*
X005304Y017861D01*
X005154Y017799D01*
X005040Y017684D01*
X004978Y017535D01*
X004978Y017373D01*
X005040Y017223D01*
X005154Y017109D01*
X005304Y017047D01*
X005466Y017047D01*
X005615Y017109D02*
X006532Y017109D01*
X006474Y017167D02*
X005674Y017167D01*
X005731Y017226D02*
X006417Y017226D01*
X006392Y017284D02*
X005755Y017284D01*
X005780Y017343D02*
X006368Y017343D01*
X006356Y017401D02*
X005792Y017401D01*
X005792Y017460D02*
X006356Y017460D01*
X006356Y017518D02*
X005792Y017518D01*
X005775Y017577D02*
X006373Y017577D01*
X006397Y017635D02*
X005750Y017635D01*
X005721Y017694D02*
X006427Y017694D01*
X006486Y017753D02*
X005662Y017753D01*
X005586Y017811D02*
X006561Y017811D01*
X007381Y017381D02*
X005631Y015631D01*
X004881Y015631D01*
X004631Y015881D01*
X004458Y016055D02*
X000361Y016055D01*
X000361Y016113D02*
X004552Y016113D01*
X004710Y016113D02*
X005944Y016113D01*
X005885Y016055D02*
X004804Y016055D01*
X004848Y015996D02*
X005827Y015996D01*
X005768Y015938D02*
X004873Y015938D01*
X004876Y015879D02*
X005710Y015879D01*
X005651Y015821D02*
X004871Y015821D01*
X004920Y015762D02*
X005592Y015762D01*
X006002Y016172D02*
X000361Y016172D01*
X000361Y016230D02*
X006061Y016230D01*
X006119Y016289D02*
X000361Y016289D01*
X000361Y016348D02*
X006178Y016348D01*
X006236Y016406D02*
X000361Y016406D01*
X000361Y016465D02*
X006295Y016465D01*
X005296Y017050D02*
X003101Y017050D01*
X003145Y017109D02*
X005154Y017109D01*
X005096Y017167D02*
X003184Y017167D01*
X003218Y017226D02*
X005039Y017226D01*
X005014Y017284D02*
X003250Y017284D01*
X003276Y017343D02*
X004990Y017343D01*
X004978Y017401D02*
X003300Y017401D01*
X003319Y017460D02*
X004978Y017460D01*
X004978Y017518D02*
X003337Y017518D01*
X003351Y017577D02*
X004995Y017577D01*
X005019Y017635D02*
X003362Y017635D01*
X003371Y017694D02*
X005049Y017694D01*
X005108Y017753D02*
X003376Y017753D01*
X003379Y017811D02*
X005184Y017811D01*
X003378Y017928D02*
X008207Y017928D01*
X008298Y017987D02*
X003372Y017987D01*
X003365Y018045D02*
X009074Y018045D01*
X009035Y017987D02*
X008464Y017987D01*
X008555Y017928D02*
X009011Y017928D01*
X009011Y017870D02*
X008599Y017870D01*
X008623Y017811D02*
X009020Y017811D01*
X009044Y017753D02*
X008626Y017753D01*
X008620Y017694D02*
X009097Y017694D01*
X009136Y017635D02*
X008596Y017635D01*
X008548Y017577D02*
X009136Y017577D01*
X009136Y017518D02*
X008501Y017518D01*
X008501Y017460D02*
X009136Y017460D01*
X009136Y017401D02*
X008501Y017401D01*
X008501Y017343D02*
X009136Y017343D01*
X009136Y017284D02*
X008522Y017284D01*
X008581Y017226D02*
X009136Y017226D01*
X009136Y017167D02*
X008640Y017167D01*
X008698Y017109D02*
X009136Y017109D01*
X009136Y017050D02*
X008757Y017050D01*
X008815Y016991D02*
X009136Y016991D01*
X009136Y016933D02*
X008874Y016933D01*
X008932Y016874D02*
X009136Y016874D01*
X009136Y016816D02*
X008991Y016816D01*
X009049Y016757D02*
X009136Y016757D01*
X009144Y016699D02*
X009108Y016699D01*
X009126Y016640D02*
X009202Y016640D01*
X009261Y016582D02*
X009126Y016582D01*
X009126Y016523D02*
X009319Y016523D01*
X009378Y016465D02*
X009126Y016465D01*
X009126Y016406D02*
X009436Y016406D01*
X009495Y016348D02*
X009126Y016348D01*
X009126Y016289D02*
X009553Y016289D01*
X009612Y016230D02*
X009126Y016230D01*
X009126Y016172D02*
X009670Y016172D01*
X009729Y016113D02*
X009126Y016113D01*
X009126Y016055D02*
X009788Y016055D01*
X009846Y015996D02*
X009126Y015996D01*
X009126Y015938D02*
X009886Y015938D01*
X009886Y015879D02*
X009126Y015879D01*
X009126Y015821D02*
X009886Y015821D01*
X009886Y015762D02*
X009684Y015762D01*
X009779Y015704D02*
X009886Y015704D01*
X009886Y015645D02*
X009838Y015645D01*
X009873Y015586D02*
X009886Y015586D01*
X010126Y015586D02*
X010179Y015586D01*
X010195Y015626D02*
X010136Y015483D01*
X010136Y014728D01*
X010195Y014584D01*
X010305Y014475D01*
X010448Y014415D01*
X010603Y014415D01*
X010747Y014475D01*
X010856Y014584D01*
X010916Y014728D01*
X010916Y015483D01*
X010856Y015626D01*
X010747Y015736D01*
X010696Y015757D01*
X010696Y015955D01*
X011076Y016336D01*
X011830Y016336D01*
X011867Y016298D01*
X011957Y016261D01*
X012055Y016261D01*
X012145Y016298D01*
X012214Y016367D01*
X012251Y016457D01*
X012251Y016555D01*
X012214Y016645D01*
X012145Y016714D01*
X012055Y016751D01*
X011957Y016751D01*
X011867Y016714D01*
X011830Y016676D01*
X010936Y016676D01*
X010836Y016576D01*
X010356Y016096D01*
X010356Y015955D01*
X010356Y015757D01*
X010305Y015736D01*
X010195Y015626D01*
X010214Y015645D02*
X010126Y015645D01*
X010126Y015704D02*
X010272Y015704D01*
X010356Y015762D02*
X010126Y015762D01*
X010126Y015821D02*
X010356Y015821D01*
X010356Y015879D02*
X010126Y015879D01*
X010126Y015938D02*
X010356Y015938D01*
X010356Y015996D02*
X010126Y015996D01*
X010126Y016055D02*
X010356Y016055D01*
X010373Y016113D02*
X010068Y016113D01*
X010010Y016172D02*
X010431Y016172D01*
X010490Y016230D02*
X009951Y016230D01*
X009893Y016289D02*
X010549Y016289D01*
X010607Y016348D02*
X009834Y016348D01*
X009776Y016406D02*
X010666Y016406D01*
X010724Y016465D02*
X009717Y016465D01*
X009659Y016523D02*
X010783Y016523D01*
X010841Y016582D02*
X009600Y016582D01*
X009541Y016640D02*
X010900Y016640D01*
X011029Y016289D02*
X011890Y016289D01*
X012122Y016289D02*
X022553Y016289D01*
X022495Y016348D02*
X012194Y016348D01*
X012230Y016406D02*
X022436Y016406D01*
X022378Y016465D02*
X012251Y016465D01*
X012251Y016523D02*
X022319Y016523D01*
X022261Y016582D02*
X012240Y016582D01*
X012216Y016640D02*
X022202Y016640D01*
X022144Y016699D02*
X012160Y016699D01*
X011852Y016699D02*
X009483Y016699D01*
X009424Y016757D02*
X022085Y016757D01*
X022026Y016816D02*
X019543Y016816D01*
X019410Y016761D02*
X019730Y016893D01*
X019975Y017138D01*
X020107Y017458D01*
X020107Y017804D01*
X019975Y018124D01*
X019730Y018369D01*
X019410Y018501D01*
X019064Y018501D01*
X018744Y018369D01*
X018500Y018124D01*
X018367Y017804D01*
X018367Y017458D01*
X018500Y017138D01*
X018744Y016893D01*
X019064Y016761D01*
X019410Y016761D01*
X018932Y016816D02*
X015543Y016816D01*
X015410Y016761D02*
X015730Y016893D01*
X015975Y017138D01*
X016107Y017458D01*
X016107Y017804D01*
X015975Y018124D01*
X015730Y018369D01*
X015410Y018501D01*
X015064Y018501D01*
X014744Y018369D01*
X014500Y018124D01*
X014367Y017804D01*
X014367Y017458D01*
X014500Y017138D01*
X014744Y016893D01*
X015064Y016761D01*
X015410Y016761D01*
X015684Y016874D02*
X018790Y016874D01*
X018705Y016933D02*
X015770Y016933D01*
X015828Y016991D02*
X018646Y016991D01*
X018588Y017050D02*
X015887Y017050D01*
X015945Y017109D02*
X018529Y017109D01*
X018488Y017167D02*
X015987Y017167D01*
X016011Y017226D02*
X018464Y017226D01*
X018439Y017284D02*
X016035Y017284D01*
X016060Y017343D02*
X018415Y017343D01*
X018391Y017401D02*
X016084Y017401D01*
X016107Y017460D02*
X018367Y017460D01*
X018367Y017518D02*
X016107Y017518D01*
X016107Y017577D02*
X018367Y017577D01*
X018367Y017635D02*
X016107Y017635D01*
X016107Y017694D02*
X018367Y017694D01*
X018367Y017753D02*
X016107Y017753D01*
X016104Y017811D02*
X018370Y017811D01*
X018395Y017870D02*
X016080Y017870D01*
X016056Y017928D02*
X018419Y017928D01*
X018443Y017987D02*
X016032Y017987D01*
X016007Y018045D02*
X018467Y018045D01*
X018491Y018104D02*
X015983Y018104D01*
X015936Y018162D02*
X018538Y018162D01*
X018597Y018221D02*
X015878Y018221D01*
X015819Y018279D02*
X018655Y018279D01*
X018714Y018338D02*
X015761Y018338D01*
X015663Y018397D02*
X018812Y018397D01*
X018953Y018455D02*
X015521Y018455D01*
X014953Y018455D02*
X012792Y018455D01*
X012816Y018514D02*
X022659Y018514D01*
X022654Y018506D02*
X022595Y018395D01*
X022546Y018279D01*
X022510Y018159D01*
X022485Y018036D01*
X022473Y017910D01*
X022473Y017877D01*
X023723Y017877D01*
X023723Y017818D01*
X022473Y017818D01*
X022473Y017785D01*
X022485Y017659D01*
X022510Y017536D01*
X022546Y017416D01*
X022595Y017300D01*
X022654Y017189D01*
X022724Y017084D01*
X022804Y016987D01*
X022892Y016898D01*
X022990Y016818D01*
X023094Y016748D01*
X023205Y016689D01*
X023321Y016641D01*
X023442Y016604D01*
X023565Y016580D01*
X023690Y016568D01*
X023723Y016568D01*
X023723Y017817D01*
X023783Y017817D01*
X023783Y016568D01*
X023816Y016568D01*
X023941Y016580D01*
X024064Y016604D01*
X024185Y016641D01*
X024301Y016689D01*
X024412Y016748D01*
X024516Y016818D01*
X024614Y016898D01*
X024703Y016987D01*
X024782Y017084D01*
X024852Y017189D01*
X024912Y017300D01*
X024960Y017416D01*
X024996Y017536D01*
X025021Y017659D01*
X025033Y017785D01*
X025033Y017818D01*
X023783Y017818D01*
X023783Y017877D01*
X025033Y017877D01*
X025033Y017910D01*
X025021Y018036D01*
X024996Y018159D01*
X024960Y018279D01*
X024912Y018395D01*
X024852Y018506D01*
X024782Y018611D01*
X024703Y018708D01*
X024614Y018797D01*
X024516Y018877D01*
X024412Y018947D01*
X024301Y019006D01*
X024185Y019054D01*
X024064Y019091D01*
X023941Y019115D01*
X023816Y019128D01*
X023783Y019128D01*
X023783Y017878D01*
X023723Y017878D01*
X023723Y019128D01*
X023690Y019128D01*
X023565Y019115D01*
X023442Y019091D01*
X023321Y019054D01*
X023205Y019006D01*
X023094Y018947D01*
X022990Y018877D01*
X022892Y018797D01*
X022804Y018708D01*
X022724Y018611D01*
X022654Y018506D01*
X022626Y018455D02*
X019521Y018455D01*
X019663Y018397D02*
X022595Y018397D01*
X022571Y018338D02*
X019761Y018338D01*
X019819Y018279D02*
X022547Y018279D01*
X022529Y018221D02*
X019878Y018221D01*
X019936Y018162D02*
X022511Y018162D01*
X022499Y018104D02*
X019983Y018104D01*
X020007Y018045D02*
X022487Y018045D01*
X022481Y017987D02*
X020032Y017987D01*
X020056Y017928D02*
X022475Y017928D01*
X022473Y017811D02*
X020104Y017811D01*
X020107Y017753D02*
X022476Y017753D01*
X022482Y017694D02*
X020107Y017694D01*
X020107Y017635D02*
X022490Y017635D01*
X022502Y017577D02*
X020107Y017577D01*
X020107Y017518D02*
X022515Y017518D01*
X022533Y017460D02*
X020774Y017460D01*
X020770Y017464D02*
X020680Y017501D01*
X020582Y017501D01*
X020492Y017464D01*
X020423Y017395D01*
X020386Y017305D01*
X020386Y017207D01*
X020423Y017117D01*
X020492Y017048D01*
X020582Y017011D01*
X020680Y017011D01*
X020699Y017019D01*
X020831Y016886D01*
X020931Y016886D01*
X021956Y016886D01*
X023394Y015449D01*
X023386Y015430D01*
X023386Y015332D01*
X023423Y015242D01*
X023492Y015173D01*
X023582Y015136D01*
X023680Y015136D01*
X023770Y015173D01*
X023839Y015242D01*
X023876Y015332D01*
X023876Y015430D01*
X023839Y015520D01*
X023770Y015589D01*
X023680Y015626D01*
X023582Y015626D01*
X023563Y015618D01*
X022056Y017126D01*
X021956Y017126D01*
X020931Y017126D01*
X020868Y017188D01*
X020876Y017207D01*
X020876Y017305D01*
X020839Y017395D01*
X020770Y017464D01*
X020832Y017401D02*
X022552Y017401D01*
X022577Y017343D02*
X020860Y017343D01*
X020876Y017284D02*
X022603Y017284D01*
X022634Y017226D02*
X020876Y017226D01*
X020890Y017167D02*
X022668Y017167D01*
X022707Y017109D02*
X022073Y017109D01*
X022132Y017050D02*
X022752Y017050D01*
X022800Y016991D02*
X022190Y016991D01*
X022249Y016933D02*
X022857Y016933D01*
X022921Y016874D02*
X022307Y016874D01*
X022366Y016816D02*
X022993Y016816D01*
X023081Y016757D02*
X022424Y016757D01*
X022483Y016699D02*
X023187Y016699D01*
X023324Y016640D02*
X022541Y016640D01*
X022600Y016582D02*
X023556Y016582D01*
X023723Y016582D02*
X023783Y016582D01*
X023783Y016640D02*
X023723Y016640D01*
X023723Y016699D02*
X023783Y016699D01*
X023783Y016757D02*
X023723Y016757D01*
X023723Y016816D02*
X023783Y016816D01*
X023783Y016874D02*
X023723Y016874D01*
X023723Y016933D02*
X023783Y016933D01*
X023783Y016991D02*
X023723Y016991D01*
X023723Y017050D02*
X023783Y017050D01*
X023783Y017109D02*
X023723Y017109D01*
X023723Y017167D02*
X023783Y017167D01*
X023783Y017226D02*
X023723Y017226D01*
X023723Y017284D02*
X023783Y017284D01*
X023783Y017343D02*
X023723Y017343D01*
X023723Y017401D02*
X023783Y017401D01*
X023783Y017460D02*
X023723Y017460D01*
X023723Y017518D02*
X023783Y017518D01*
X023783Y017577D02*
X023723Y017577D01*
X023723Y017635D02*
X023783Y017635D01*
X023783Y017694D02*
X023723Y017694D01*
X023723Y017753D02*
X023783Y017753D01*
X023783Y017811D02*
X023723Y017811D01*
X023723Y017870D02*
X020080Y017870D01*
X020107Y017460D02*
X020488Y017460D01*
X020430Y017401D02*
X020084Y017401D01*
X020060Y017343D02*
X020402Y017343D01*
X020386Y017284D02*
X020035Y017284D01*
X020011Y017226D02*
X020386Y017226D01*
X020403Y017167D02*
X019987Y017167D01*
X019945Y017109D02*
X020432Y017109D01*
X020491Y017050D02*
X019887Y017050D01*
X019828Y016991D02*
X020726Y016991D01*
X020784Y016933D02*
X019770Y016933D01*
X019684Y016874D02*
X021968Y016874D01*
X022006Y017006D02*
X020881Y017006D01*
X020631Y017256D01*
X022006Y017006D02*
X023631Y015381D01*
X023402Y015294D02*
X017259Y015294D01*
X017270Y015298D02*
X017339Y015367D01*
X017376Y015457D01*
X017376Y015555D01*
X017339Y015645D01*
X017270Y015714D01*
X017180Y015751D01*
X017082Y015751D01*
X016992Y015714D01*
X016923Y015645D01*
X016886Y015555D01*
X016886Y015501D01*
X014511Y013126D01*
X014457Y013126D01*
X014367Y013089D01*
X014298Y013020D01*
X014261Y012930D01*
X014261Y012832D01*
X014298Y012742D01*
X014367Y012673D01*
X014457Y012636D01*
X014555Y012636D01*
X014645Y012673D01*
X014714Y012742D01*
X014751Y012832D01*
X014751Y012886D01*
X017126Y015261D01*
X017180Y015261D01*
X017270Y015298D01*
X017324Y015352D02*
X023386Y015352D01*
X023386Y015411D02*
X017357Y015411D01*
X017376Y015469D02*
X023373Y015469D01*
X023314Y015528D02*
X017376Y015528D01*
X017363Y015586D02*
X023256Y015586D01*
X023197Y015645D02*
X017338Y015645D01*
X017280Y015704D02*
X023139Y015704D01*
X023080Y015762D02*
X013958Y015762D01*
X013892Y015789D02*
X013736Y015789D01*
X013593Y015730D01*
X013483Y015620D01*
X013424Y015477D01*
X013424Y014722D01*
X013483Y014579D01*
X013593Y014469D01*
X013736Y014410D01*
X013892Y014410D01*
X014035Y014469D01*
X014145Y014579D01*
X014204Y014722D01*
X014204Y015477D01*
X014145Y015620D01*
X014035Y015730D01*
X013892Y015789D01*
X014062Y015704D02*
X016982Y015704D01*
X016924Y015645D02*
X014120Y015645D01*
X014159Y015586D02*
X016899Y015586D01*
X016886Y015528D02*
X014183Y015528D01*
X014204Y015469D02*
X016854Y015469D01*
X016795Y015411D02*
X014204Y015411D01*
X014204Y015352D02*
X016737Y015352D01*
X016678Y015294D02*
X014204Y015294D01*
X014204Y015235D02*
X016620Y015235D01*
X016561Y015177D02*
X014204Y015177D01*
X014204Y015118D02*
X016503Y015118D01*
X016444Y015060D02*
X014204Y015060D01*
X014204Y015001D02*
X016386Y015001D01*
X016327Y014942D02*
X014204Y014942D01*
X014204Y014884D02*
X016269Y014884D01*
X016210Y014825D02*
X014204Y014825D01*
X014204Y014767D02*
X016151Y014767D01*
X016093Y014708D02*
X014198Y014708D01*
X014174Y014650D02*
X016034Y014650D01*
X015976Y014591D02*
X014150Y014591D01*
X014099Y014533D02*
X015917Y014533D01*
X015859Y014474D02*
X014040Y014474D01*
X013906Y014416D02*
X015800Y014416D01*
X015742Y014357D02*
X010126Y014357D01*
X010126Y014299D02*
X015683Y014299D01*
X015625Y014240D02*
X010126Y014240D01*
X010126Y014181D02*
X015566Y014181D01*
X015507Y014123D02*
X010126Y014123D01*
X010126Y014064D02*
X015449Y014064D01*
X015390Y014006D02*
X010126Y014006D01*
X010126Y013947D02*
X015332Y013947D01*
X015273Y013889D02*
X010126Y013889D01*
X010126Y013830D02*
X015215Y013830D01*
X015156Y013772D02*
X010160Y013772D01*
X010219Y013713D02*
X015098Y013713D01*
X015039Y013655D02*
X010277Y013655D01*
X010336Y013596D02*
X014981Y013596D01*
X014922Y013537D02*
X010376Y013537D01*
X010376Y013479D02*
X014864Y013479D01*
X014805Y013420D02*
X010376Y013420D01*
X010376Y013362D02*
X014746Y013362D01*
X014688Y013303D02*
X010376Y013303D01*
X010376Y013245D02*
X014629Y013245D01*
X014571Y013186D02*
X010376Y013186D01*
X010376Y013128D02*
X014512Y013128D01*
X014348Y013069D02*
X010376Y013069D01*
X010376Y013011D02*
X014295Y013011D01*
X014270Y012952D02*
X010376Y012952D01*
X010376Y012893D02*
X014261Y012893D01*
X014261Y012835D02*
X010376Y012835D01*
X010376Y012776D02*
X014284Y012776D01*
X014323Y012718D02*
X010376Y012718D01*
X010376Y012659D02*
X014401Y012659D01*
X014611Y012659D02*
X019921Y012659D01*
X019921Y012601D02*
X010376Y012601D01*
X010376Y012542D02*
X019921Y012542D01*
X019921Y012484D02*
X010376Y012484D01*
X010376Y012425D02*
X019921Y012425D01*
X019921Y012367D02*
X012827Y012367D01*
X012805Y012376D02*
X012707Y012376D01*
X012617Y012339D01*
X012548Y012270D01*
X012511Y012180D01*
X012511Y012082D01*
X012548Y011992D01*
X012606Y011935D01*
X012606Y011577D01*
X012548Y011520D01*
X012511Y011430D01*
X010100Y011430D01*
X010158Y011488D02*
X012535Y011488D01*
X012511Y011430D02*
X012511Y011332D01*
X012548Y011242D01*
X012617Y011173D01*
X012707Y011136D01*
X012805Y011136D01*
X012895Y011173D01*
X012964Y011242D01*
X013001Y011332D01*
X013001Y011430D01*
X016386Y011430D01*
X016386Y011488D02*
X012977Y011488D01*
X012964Y011520D02*
X012906Y011577D01*
X012906Y011935D01*
X012964Y011992D01*
X013001Y012082D01*
X013001Y012180D01*
X012964Y012270D01*
X012895Y012339D01*
X012805Y012376D01*
X012685Y012367D02*
X010376Y012367D01*
X010376Y012308D02*
X012587Y012308D01*
X012540Y012249D02*
X010376Y012249D01*
X010376Y012191D02*
X012516Y012191D01*
X012511Y012132D02*
X010376Y012132D01*
X010376Y012074D02*
X012514Y012074D01*
X012539Y012015D02*
X010376Y012015D01*
X010376Y011957D02*
X012584Y011957D01*
X012606Y011898D02*
X010376Y011898D01*
X010376Y011840D02*
X012606Y011840D01*
X012606Y011781D02*
X010376Y011781D01*
X010376Y011723D02*
X012606Y011723D01*
X012606Y011664D02*
X010334Y011664D01*
X010275Y011606D02*
X012606Y011606D01*
X012576Y011547D02*
X010217Y011547D01*
X010256Y011756D02*
X009506Y011006D01*
X009506Y010506D01*
X009284Y010610D02*
X009126Y010610D01*
X009130Y010552D02*
X009261Y010552D01*
X009261Y010493D02*
X009189Y010493D01*
X009247Y010435D02*
X009270Y010435D01*
X009256Y010256D02*
X009631Y010256D01*
X009756Y010131D01*
X009655Y009908D02*
X000926Y009908D01*
X000926Y009966D02*
X009574Y009966D01*
X009535Y010025D02*
X000926Y010025D01*
X000926Y010083D02*
X009511Y010083D01*
X009256Y010256D02*
X009006Y010506D01*
X009006Y016631D01*
X008381Y017256D01*
X008381Y017756D01*
X009154Y018104D02*
X003354Y018104D01*
X003342Y018162D02*
X012196Y018162D01*
X012238Y018145D02*
X012433Y018145D01*
X012613Y018220D01*
X012751Y018357D01*
X012826Y018537D01*
X012826Y018732D01*
X012751Y018913D01*
X012613Y019050D01*
X012433Y019125D01*
X012238Y019125D01*
X012058Y019050D01*
X011920Y018913D01*
X011846Y018732D01*
X011846Y018537D01*
X011920Y018357D01*
X012058Y018220D01*
X012238Y018145D01*
X012057Y018221D02*
X003324Y018221D01*
X003306Y018279D02*
X011998Y018279D01*
X011940Y018338D02*
X003282Y018338D01*
X003257Y018397D02*
X011904Y018397D01*
X011880Y018455D02*
X003226Y018455D01*
X003194Y018514D02*
X011856Y018514D01*
X011846Y018572D02*
X003155Y018572D01*
X003113Y018631D02*
X011846Y018631D01*
X011846Y018689D02*
X003065Y018689D01*
X003009Y018748D02*
X011852Y018748D01*
X011876Y018806D02*
X002949Y018806D01*
X002878Y018865D02*
X011901Y018865D01*
X011931Y018923D02*
X002793Y018923D01*
X002692Y018982D02*
X011990Y018982D01*
X012048Y019041D02*
X002564Y019041D01*
X002369Y019099D02*
X012176Y019099D01*
X012496Y019099D02*
X023484Y019099D01*
X023288Y019041D02*
X012623Y019041D01*
X012682Y018982D02*
X023160Y018982D01*
X023059Y018923D02*
X012740Y018923D01*
X012771Y018865D02*
X022975Y018865D01*
X022904Y018806D02*
X012795Y018806D01*
X012819Y018748D02*
X022843Y018748D01*
X022788Y018689D02*
X012826Y018689D01*
X012826Y018631D02*
X022740Y018631D01*
X022698Y018572D02*
X012826Y018572D01*
X012767Y018397D02*
X014812Y018397D01*
X014714Y018338D02*
X012732Y018338D01*
X012673Y018279D02*
X014655Y018279D01*
X014597Y018221D02*
X012615Y018221D01*
X012475Y018162D02*
X014538Y018162D01*
X014491Y018104D02*
X009358Y018104D01*
X009438Y018045D02*
X014467Y018045D01*
X014443Y017987D02*
X009477Y017987D01*
X009501Y017928D02*
X014419Y017928D01*
X014395Y017870D02*
X009501Y017870D01*
X009492Y017811D02*
X014370Y017811D01*
X014367Y017753D02*
X009468Y017753D01*
X009415Y017694D02*
X014367Y017694D01*
X014367Y017635D02*
X009376Y017635D01*
X009376Y017577D02*
X014367Y017577D01*
X014367Y017518D02*
X009376Y017518D01*
X009376Y017460D02*
X014367Y017460D01*
X014391Y017401D02*
X009376Y017401D01*
X009376Y017343D02*
X014415Y017343D01*
X014439Y017284D02*
X009376Y017284D01*
X009376Y017226D02*
X014464Y017226D01*
X014488Y017167D02*
X009376Y017167D01*
X009376Y017109D02*
X014529Y017109D01*
X014588Y017050D02*
X009376Y017050D01*
X009376Y016991D02*
X014646Y016991D01*
X014705Y016933D02*
X009376Y016933D01*
X009376Y016874D02*
X014790Y016874D01*
X014932Y016816D02*
X009376Y016816D01*
X009256Y016756D02*
X010006Y016006D01*
X010006Y013756D01*
X010256Y013506D01*
X010256Y011756D01*
X010136Y011840D02*
X009126Y011840D01*
X009126Y011898D02*
X010136Y011898D01*
X010136Y011957D02*
X009126Y011957D01*
X009126Y012015D02*
X010136Y012015D01*
X010136Y012074D02*
X009126Y012074D01*
X009126Y012132D02*
X010136Y012132D01*
X010136Y012191D02*
X009126Y012191D01*
X009126Y012249D02*
X010136Y012249D01*
X010136Y012308D02*
X009126Y012308D01*
X009126Y012367D02*
X010136Y012367D01*
X010136Y012425D02*
X009126Y012425D01*
X009126Y012484D02*
X010136Y012484D01*
X010136Y012542D02*
X009126Y012542D01*
X009126Y012601D02*
X010136Y012601D01*
X010136Y012659D02*
X009126Y012659D01*
X009126Y012718D02*
X010136Y012718D01*
X010136Y012776D02*
X009126Y012776D01*
X009126Y012835D02*
X010136Y012835D01*
X010136Y012893D02*
X009126Y012893D01*
X009126Y012952D02*
X010136Y012952D01*
X010136Y013011D02*
X009126Y013011D01*
X009126Y013069D02*
X010136Y013069D01*
X010136Y013128D02*
X009126Y013128D01*
X009126Y013186D02*
X010136Y013186D01*
X010136Y013245D02*
X009126Y013245D01*
X009126Y013303D02*
X010136Y013303D01*
X010136Y013362D02*
X009126Y013362D01*
X009126Y013420D02*
X010136Y013420D01*
X010113Y013479D02*
X009126Y013479D01*
X009126Y013537D02*
X010055Y013537D01*
X009996Y013596D02*
X009126Y013596D01*
X009126Y013655D02*
X009938Y013655D01*
X009886Y013713D02*
X009126Y013713D01*
X009126Y013772D02*
X009886Y013772D01*
X009886Y013830D02*
X009126Y013830D01*
X009126Y013889D02*
X009886Y013889D01*
X009886Y013947D02*
X009126Y013947D01*
X009126Y014006D02*
X009886Y014006D01*
X009886Y014064D02*
X009126Y014064D01*
X009126Y014123D02*
X009886Y014123D01*
X009886Y014181D02*
X009126Y014181D01*
X009126Y014240D02*
X009886Y014240D01*
X009886Y014299D02*
X009126Y014299D01*
X009126Y014357D02*
X009886Y014357D01*
X009886Y014416D02*
X009604Y014416D01*
X009745Y014474D02*
X009886Y014474D01*
X009886Y014533D02*
X009804Y014533D01*
X009859Y014591D02*
X009886Y014591D01*
X009883Y014650D02*
X009886Y014650D01*
X010126Y014650D02*
X010168Y014650D01*
X010144Y014708D02*
X010126Y014708D01*
X010126Y014767D02*
X010136Y014767D01*
X010126Y014825D02*
X010136Y014825D01*
X010126Y014884D02*
X010136Y014884D01*
X010126Y014942D02*
X010136Y014942D01*
X010126Y015001D02*
X010136Y015001D01*
X010126Y015060D02*
X010136Y015060D01*
X010126Y015118D02*
X010136Y015118D01*
X010126Y015177D02*
X010136Y015177D01*
X010126Y015235D02*
X010136Y015235D01*
X010126Y015294D02*
X010136Y015294D01*
X010126Y015352D02*
X010136Y015352D01*
X010126Y015411D02*
X010136Y015411D01*
X010126Y015469D02*
X010136Y015469D01*
X010126Y015528D02*
X010154Y015528D01*
X010696Y015762D02*
X011670Y015762D01*
X011736Y015789D02*
X011593Y015730D01*
X011483Y015620D01*
X011424Y015477D01*
X011424Y014722D01*
X011483Y014579D01*
X011593Y014469D01*
X011736Y014410D01*
X011892Y014410D01*
X012035Y014469D01*
X012145Y014579D01*
X012204Y014722D01*
X012204Y015477D01*
X012145Y015620D01*
X012035Y015730D01*
X011892Y015789D01*
X011736Y015789D01*
X011567Y015704D02*
X010779Y015704D01*
X010838Y015645D02*
X011508Y015645D01*
X011469Y015586D02*
X010873Y015586D01*
X010897Y015528D02*
X011445Y015528D01*
X011424Y015469D02*
X010916Y015469D01*
X010916Y015411D02*
X011424Y015411D01*
X011424Y015352D02*
X010916Y015352D01*
X010916Y015294D02*
X011424Y015294D01*
X011424Y015235D02*
X010916Y015235D01*
X010916Y015177D02*
X011424Y015177D01*
X011424Y015118D02*
X010916Y015118D01*
X010916Y015060D02*
X011424Y015060D01*
X011424Y015001D02*
X010916Y015001D01*
X010916Y014942D02*
X011424Y014942D01*
X011424Y014884D02*
X010916Y014884D01*
X010916Y014825D02*
X011424Y014825D01*
X011424Y014767D02*
X010916Y014767D01*
X010908Y014708D02*
X011430Y014708D01*
X011454Y014650D02*
X010883Y014650D01*
X010859Y014591D02*
X011478Y014591D01*
X011529Y014533D02*
X010804Y014533D01*
X010745Y014474D02*
X011588Y014474D01*
X011722Y014416D02*
X010604Y014416D01*
X010448Y014416D02*
X010126Y014416D01*
X010126Y014474D02*
X010306Y014474D01*
X010247Y014533D02*
X010126Y014533D01*
X010126Y014591D02*
X010192Y014591D01*
X009448Y014416D02*
X009126Y014416D01*
X009126Y014474D02*
X009306Y014474D01*
X009247Y014533D02*
X009126Y014533D01*
X009126Y014591D02*
X009192Y014591D01*
X009168Y014650D02*
X009126Y014650D01*
X009126Y014708D02*
X009144Y014708D01*
X009136Y014767D02*
X009126Y014767D01*
X009126Y014825D02*
X009136Y014825D01*
X009126Y014884D02*
X009136Y014884D01*
X009126Y014942D02*
X009136Y014942D01*
X009126Y015001D02*
X009136Y015001D01*
X009126Y015060D02*
X009136Y015060D01*
X009126Y015118D02*
X009136Y015118D01*
X009126Y015177D02*
X009136Y015177D01*
X009126Y015235D02*
X009136Y015235D01*
X009126Y015294D02*
X009136Y015294D01*
X009126Y015352D02*
X009136Y015352D01*
X009126Y015411D02*
X009136Y015411D01*
X009126Y015469D02*
X009136Y015469D01*
X009126Y015528D02*
X009154Y015528D01*
X009179Y015586D02*
X009126Y015586D01*
X009126Y015645D02*
X009214Y015645D01*
X009272Y015704D02*
X009126Y015704D01*
X009126Y015762D02*
X009368Y015762D01*
X008886Y015762D02*
X008684Y015762D01*
X008779Y015704D02*
X008886Y015704D01*
X008886Y015645D02*
X008838Y015645D01*
X008873Y015586D02*
X008886Y015586D01*
X008883Y014650D02*
X008886Y014650D01*
X008886Y014591D02*
X008859Y014591D01*
X008886Y014533D02*
X008804Y014533D01*
X008745Y014474D02*
X008886Y014474D01*
X008886Y014416D02*
X008604Y014416D01*
X008886Y013069D02*
X000914Y013069D01*
X000968Y013011D02*
X008886Y013011D01*
X008886Y012952D02*
X000992Y012952D01*
X001001Y012893D02*
X008886Y012893D01*
X008886Y012835D02*
X001001Y012835D01*
X000978Y012776D02*
X008886Y012776D01*
X008886Y012718D02*
X000939Y012718D01*
X000926Y012659D02*
X008886Y012659D01*
X008886Y012601D02*
X000926Y012601D01*
X000926Y012542D02*
X008886Y012542D01*
X008886Y012484D02*
X000926Y012484D01*
X000926Y012425D02*
X008886Y012425D01*
X008886Y012367D02*
X000926Y012367D01*
X000926Y012308D02*
X008886Y012308D01*
X008886Y012249D02*
X000926Y012249D01*
X000926Y012191D02*
X008886Y012191D01*
X008886Y012132D02*
X000926Y012132D01*
X000926Y012074D02*
X008886Y012074D01*
X008886Y012015D02*
X000926Y012015D01*
X000926Y011957D02*
X008886Y011957D01*
X008886Y011898D02*
X000926Y011898D01*
X000926Y011840D02*
X008886Y011840D01*
X008886Y011781D02*
X000926Y011781D01*
X000926Y011723D02*
X008886Y011723D01*
X008886Y011664D02*
X000926Y011664D01*
X000926Y011606D02*
X008886Y011606D01*
X008886Y011547D02*
X000926Y011547D01*
X000926Y011488D02*
X008886Y011488D01*
X008886Y011430D02*
X000926Y011430D01*
X000926Y011371D02*
X008886Y011371D01*
X008886Y011313D02*
X000926Y011313D01*
X000926Y011254D02*
X008886Y011254D01*
X008886Y011196D02*
X000926Y011196D01*
X000926Y011137D02*
X008886Y011137D01*
X008886Y011079D02*
X002512Y011079D01*
X002594Y011045D02*
X002420Y011117D01*
X001464Y011117D01*
X001290Y011045D01*
X001156Y010911D01*
X001084Y010737D01*
X001084Y010549D01*
X001156Y010374D01*
X001290Y010241D01*
X001464Y010169D01*
X002420Y010169D01*
X002594Y010241D01*
X002728Y010374D01*
X002800Y010549D01*
X002800Y010737D01*
X002728Y010911D01*
X002594Y011045D01*
X002619Y011020D02*
X008886Y011020D01*
X008886Y010962D02*
X002677Y010962D01*
X002731Y010903D02*
X008886Y010903D01*
X008886Y010844D02*
X002755Y010844D01*
X002780Y010786D02*
X008886Y010786D01*
X008886Y010727D02*
X002800Y010727D01*
X002800Y010669D02*
X008886Y010669D01*
X008886Y010610D02*
X002800Y010610D01*
X002800Y010552D02*
X008886Y010552D01*
X008886Y010493D02*
X002777Y010493D01*
X002753Y010435D02*
X008908Y010435D01*
X008966Y010376D02*
X002728Y010376D01*
X002671Y010318D02*
X009025Y010318D01*
X009083Y010259D02*
X002612Y010259D01*
X002496Y010200D02*
X009142Y010200D01*
X009200Y010142D02*
X000926Y010142D01*
X000926Y010200D02*
X001388Y010200D01*
X001272Y010259D02*
X000926Y010259D01*
X000926Y010318D02*
X001213Y010318D01*
X001156Y010376D02*
X000926Y010376D01*
X000926Y010435D02*
X001131Y010435D01*
X001107Y010493D02*
X000926Y010493D01*
X000926Y010552D02*
X001084Y010552D01*
X001084Y010610D02*
X000926Y010610D01*
X000926Y010669D02*
X001084Y010669D01*
X001084Y010727D02*
X000926Y010727D01*
X000926Y010786D02*
X001105Y010786D01*
X001129Y010844D02*
X000926Y010844D01*
X000926Y010903D02*
X001153Y010903D01*
X001207Y010962D02*
X000926Y010962D01*
X000926Y011020D02*
X001265Y011020D01*
X001372Y011079D02*
X000926Y011079D01*
X000926Y009849D02*
X014118Y009849D01*
X014177Y009791D02*
X000926Y009791D01*
X000926Y009732D02*
X001448Y009732D01*
X001307Y009674D02*
X000926Y009674D01*
X000926Y009615D02*
X001238Y009615D01*
X001180Y009556D02*
X000926Y009556D01*
X000926Y009498D02*
X001142Y009498D01*
X001118Y009439D02*
X000926Y009439D01*
X000926Y009381D02*
X001093Y009381D01*
X001084Y009322D02*
X000926Y009322D01*
X000926Y009264D02*
X001084Y009264D01*
X001084Y009205D02*
X000926Y009205D01*
X000926Y009147D02*
X001094Y009147D01*
X001118Y009088D02*
X000926Y009088D01*
X000926Y009030D02*
X001143Y009030D01*
X001182Y008971D02*
X000926Y008971D01*
X000926Y008913D02*
X001240Y008913D01*
X001312Y008854D02*
X000926Y008854D01*
X000926Y008795D02*
X001453Y008795D01*
X001430Y008386D02*
X000926Y008386D01*
X000926Y008444D02*
X014899Y008444D01*
X014841Y008386D02*
X002454Y008386D01*
X002594Y008327D02*
X014606Y008327D01*
X014548Y008269D02*
X002671Y008269D01*
X002726Y008210D02*
X014524Y008210D01*
X014511Y008151D02*
X002768Y008151D01*
X002798Y008093D02*
X014511Y008093D01*
X014531Y008034D02*
X002818Y008034D01*
X002832Y007976D02*
X014565Y007976D01*
X014632Y007917D02*
X002840Y007917D01*
X002728Y007566D02*
X009970Y007566D01*
X009918Y007507D02*
X002673Y007507D01*
X002597Y007449D02*
X009894Y007449D01*
X009886Y007390D02*
X002461Y007390D01*
X002426Y006981D02*
X010435Y006981D01*
X010423Y006992D02*
X010492Y006923D01*
X010582Y006886D01*
X010670Y006886D01*
X010636Y006805D01*
X002700Y006805D01*
X002740Y006746D02*
X010636Y006746D01*
X010636Y006707D02*
X010673Y006617D01*
X010742Y006548D01*
X010832Y006511D01*
X010930Y006511D01*
X011020Y006548D01*
X011089Y006617D01*
X011096Y006636D01*
X012956Y006636D01*
X013056Y006636D01*
X013063Y006644D01*
X013082Y006636D01*
X013180Y006636D01*
X013270Y006673D01*
X013339Y006742D01*
X013376Y006832D01*
X013376Y006930D01*
X013339Y007020D01*
X013270Y007089D01*
X013180Y007126D01*
X013082Y007126D01*
X012992Y007089D01*
X012923Y007020D01*
X012886Y006930D01*
X012886Y006876D01*
X011096Y006876D01*
X011089Y006895D01*
X011020Y006964D01*
X010930Y007001D01*
X010842Y007001D01*
X010876Y007082D01*
X010876Y007180D01*
X010868Y007199D01*
X010931Y007261D01*
X014295Y007261D01*
X014261Y007180D01*
X014261Y007126D01*
X014206Y007126D01*
X014096Y007126D01*
X014089Y007145D01*
X014020Y007214D01*
X013930Y007251D01*
X013832Y007251D01*
X013742Y007214D01*
X013673Y007145D01*
X013636Y007055D01*
X013636Y006957D01*
X013673Y006867D01*
X013742Y006798D01*
X013832Y006761D01*
X013930Y006761D01*
X014020Y006798D01*
X014089Y006867D01*
X014096Y006886D01*
X014206Y006886D01*
X014216Y006876D01*
X014207Y006876D01*
X014117Y006839D01*
X014048Y006770D01*
X014011Y006680D01*
X014011Y006592D01*
X013930Y006626D01*
X013832Y006626D01*
X013742Y006589D01*
X013673Y006520D01*
X013636Y006430D01*
X013636Y006332D01*
X013673Y006242D01*
X013742Y006173D01*
X013832Y006136D01*
X013930Y006136D01*
X014011Y006170D01*
X014011Y006092D01*
X013930Y006126D01*
X013832Y006126D01*
X013742Y006089D01*
X013673Y006020D01*
X013697Y006044D02*
X002441Y006044D01*
X002583Y006102D02*
X013775Y006102D01*
X013772Y006161D02*
X002648Y006161D01*
X002707Y006220D02*
X013696Y006220D01*
X013658Y006278D02*
X002743Y006278D01*
X002767Y006337D02*
X013636Y006337D01*
X013636Y006395D02*
X002792Y006395D01*
X002800Y006454D02*
X013646Y006454D01*
X013670Y006512D02*
X010933Y006512D01*
X010829Y006512D02*
X002800Y006512D01*
X002800Y006571D02*
X010720Y006571D01*
X010668Y006629D02*
X002789Y006629D01*
X002765Y006688D02*
X010644Y006688D01*
X010636Y006707D02*
X010636Y006805D01*
X010660Y006864D02*
X002641Y006864D01*
X002567Y006922D02*
X010495Y006922D01*
X010423Y006992D02*
X010386Y007082D01*
X010386Y007180D01*
X010423Y007270D01*
X010492Y007339D01*
X010582Y007376D01*
X010680Y007376D01*
X010699Y007368D01*
X010716Y007386D01*
X010376Y007386D01*
X010376Y007332D01*
X010485Y007332D01*
X010427Y007273D02*
X010352Y007273D01*
X010339Y007242D02*
X010376Y007332D01*
X010339Y007242D02*
X010270Y007173D01*
X010180Y007136D01*
X010082Y007136D01*
X009992Y007173D01*
X009923Y007242D01*
X009886Y007332D01*
X009910Y007273D02*
X000926Y007273D01*
X000926Y007215D02*
X009951Y007215D01*
X010033Y007156D02*
X000926Y007156D01*
X000926Y007098D02*
X010386Y007098D01*
X010386Y007156D02*
X010229Y007156D01*
X010311Y007215D02*
X010401Y007215D01*
X010858Y007039D02*
X012943Y007039D01*
X012907Y006981D02*
X010979Y006981D01*
X011061Y006922D02*
X012886Y006922D01*
X013006Y006756D02*
X013131Y006881D01*
X013006Y006756D02*
X010881Y006756D01*
X011042Y006571D02*
X013724Y006571D01*
X013736Y006805D02*
X013365Y006805D01*
X013376Y006864D02*
X013677Y006864D01*
X013651Y006922D02*
X013376Y006922D01*
X013355Y006981D02*
X013636Y006981D01*
X013636Y007039D02*
X013319Y007039D01*
X013248Y007098D02*
X013654Y007098D01*
X013685Y007156D02*
X010876Y007156D01*
X010876Y007098D02*
X013014Y007098D01*
X013340Y006746D02*
X014039Y006746D01*
X014026Y006805D02*
X014084Y006805D01*
X014085Y006864D02*
X014177Y006864D01*
X014256Y007006D02*
X013881Y007006D01*
X014077Y007156D02*
X014261Y007156D01*
X014276Y007215D02*
X014017Y007215D01*
X013745Y007215D02*
X010884Y007215D01*
X011094Y006629D02*
X014011Y006629D01*
X014014Y006688D02*
X013284Y006688D01*
X013881Y006381D02*
X016756Y006381D01*
X017001Y006395D02*
X017060Y006395D01*
X017202Y006395D02*
X017886Y006395D01*
X017886Y006337D02*
X017272Y006337D01*
X017330Y006278D02*
X017886Y006278D01*
X017886Y006220D02*
X017360Y006220D01*
X017376Y006161D02*
X017886Y006161D01*
X017886Y006102D02*
X017376Y006102D01*
X017360Y006044D02*
X017886Y006044D01*
X017886Y005985D02*
X017332Y005985D01*
X017273Y005927D02*
X017886Y005927D01*
X017886Y005868D02*
X017001Y005868D01*
X016992Y005810D02*
X017886Y005810D01*
X017886Y005751D02*
X016967Y005751D01*
X016914Y005693D02*
X017899Y005693D01*
X017960Y005634D02*
X002841Y005634D01*
X002983Y005576D02*
X018021Y005576D01*
X018028Y005517D02*
X003079Y005517D01*
X003138Y005458D02*
X018028Y005458D01*
X018050Y005400D02*
X003196Y005400D01*
X003255Y005341D02*
X009999Y005341D01*
X009936Y005283D02*
X003314Y005283D01*
X001814Y005634D02*
X000926Y005634D01*
X000926Y005576D02*
X001673Y005576D01*
X001451Y005517D02*
X000926Y005517D01*
X000926Y005458D02*
X001310Y005458D01*
X001240Y005400D02*
X000977Y005400D01*
X001036Y005341D02*
X001181Y005341D01*
X001142Y005283D02*
X001095Y005283D01*
X000926Y005693D02*
X013723Y005693D01*
X013670Y005751D02*
X000926Y005751D01*
X000926Y005810D02*
X013645Y005810D01*
X013636Y005868D02*
X000926Y005868D01*
X000926Y005927D02*
X013636Y005927D01*
X013881Y005881D02*
X016756Y005881D01*
X016598Y005693D02*
X014039Y005693D01*
X014092Y005751D02*
X016545Y005751D01*
X017131Y006131D02*
X014256Y006131D01*
X014011Y006102D02*
X013987Y006102D01*
X013990Y006161D02*
X014011Y006161D01*
X014256Y006631D02*
X017131Y006631D01*
X017304Y006805D02*
X017886Y006805D01*
X017886Y006864D02*
X017335Y006864D01*
X017361Y006922D02*
X017886Y006922D01*
X017886Y006981D02*
X017376Y006981D01*
X017585Y007039D02*
X017886Y007039D01*
X017886Y007098D02*
X017657Y007098D01*
X017692Y007156D02*
X017886Y007156D01*
X017886Y007215D02*
X017714Y007215D01*
X017834Y007273D02*
X017886Y007273D01*
X018126Y007273D02*
X024480Y007273D01*
X024484Y007278D02*
X024233Y007026D01*
X024233Y006877D01*
X024632Y006877D01*
X024632Y006818D01*
X024233Y006818D01*
X024233Y006669D01*
X024484Y006418D01*
X024633Y006418D01*
X024633Y006817D01*
X024692Y006817D01*
X024692Y006418D01*
X024841Y006418D01*
X025092Y006669D01*
X025092Y006818D01*
X024693Y006818D01*
X024693Y006877D01*
X025092Y006877D01*
X025092Y007026D01*
X024841Y007278D01*
X024692Y007278D01*
X024692Y006878D01*
X024633Y006878D01*
X024633Y007278D01*
X024484Y007278D01*
X024422Y007215D02*
X023847Y007215D01*
X023824Y007238D02*
X023501Y007238D01*
X023273Y007009D01*
X023273Y006686D01*
X023501Y006458D01*
X023824Y006458D01*
X024052Y006686D01*
X024052Y007009D01*
X023824Y007238D01*
X023905Y007156D02*
X024363Y007156D01*
X024305Y007098D02*
X023964Y007098D01*
X024022Y007039D02*
X024246Y007039D01*
X024233Y006981D02*
X024052Y006981D01*
X024052Y006922D02*
X024233Y006922D01*
X024233Y006805D02*
X024052Y006805D01*
X024052Y006864D02*
X024632Y006864D01*
X024633Y006922D02*
X024692Y006922D01*
X024693Y006864D02*
X025492Y006864D01*
X025492Y006922D02*
X025092Y006922D01*
X025092Y006981D02*
X025492Y006981D01*
X025492Y007039D02*
X025079Y007039D01*
X025020Y007098D02*
X025492Y007098D01*
X025492Y007156D02*
X024962Y007156D01*
X024903Y007215D02*
X025492Y007215D01*
X025492Y007273D02*
X024845Y007273D01*
X024692Y007273D02*
X024633Y007273D01*
X024633Y007215D02*
X024692Y007215D01*
X024692Y007156D02*
X024633Y007156D01*
X024633Y007098D02*
X024692Y007098D01*
X024692Y007039D02*
X024633Y007039D01*
X024633Y006981D02*
X024692Y006981D01*
X024692Y006805D02*
X024633Y006805D01*
X024633Y006746D02*
X024692Y006746D01*
X024692Y006688D02*
X024633Y006688D01*
X024633Y006629D02*
X024692Y006629D01*
X024692Y006571D02*
X024633Y006571D01*
X024633Y006512D02*
X024692Y006512D01*
X024692Y006454D02*
X024633Y006454D01*
X024633Y006278D02*
X024484Y006278D01*
X024233Y006026D01*
X024233Y005877D01*
X024632Y005877D01*
X024632Y005818D01*
X024233Y005818D01*
X024233Y005669D01*
X024484Y005418D01*
X024633Y005418D01*
X024633Y005817D01*
X024692Y005817D01*
X024692Y005418D01*
X024841Y005418D01*
X025092Y005669D01*
X025092Y005818D01*
X024693Y005818D01*
X024693Y005877D01*
X025092Y005877D01*
X025092Y006026D01*
X024841Y006278D01*
X024692Y006278D01*
X024692Y005878D01*
X024633Y005878D01*
X024633Y006278D01*
X024633Y006220D02*
X024692Y006220D01*
X024692Y006161D02*
X024633Y006161D01*
X024633Y006102D02*
X024692Y006102D01*
X024692Y006044D02*
X024633Y006044D01*
X024633Y005985D02*
X024692Y005985D01*
X024692Y005927D02*
X024633Y005927D01*
X024632Y005868D02*
X024052Y005868D01*
X024052Y005810D02*
X024233Y005810D01*
X024233Y005751D02*
X024052Y005751D01*
X024052Y005693D02*
X024233Y005693D01*
X024268Y005634D02*
X024001Y005634D01*
X023942Y005576D02*
X024326Y005576D01*
X024385Y005517D02*
X023883Y005517D01*
X023825Y005458D02*
X024444Y005458D01*
X024484Y005278D02*
X024233Y005026D01*
X024233Y004877D01*
X024632Y004877D01*
X024632Y004818D01*
X024233Y004818D01*
X024233Y004669D01*
X024484Y004418D01*
X024633Y004418D01*
X024633Y004817D01*
X024692Y004817D01*
X024692Y004418D01*
X024841Y004418D01*
X025092Y004669D01*
X025092Y004818D01*
X024693Y004818D01*
X024693Y004877D01*
X025092Y004877D01*
X025092Y005026D01*
X024841Y005278D01*
X024692Y005278D01*
X024692Y004878D01*
X024633Y004878D01*
X024633Y005278D01*
X024484Y005278D01*
X024431Y005224D02*
X023837Y005224D01*
X023824Y005238D02*
X023501Y005238D01*
X023273Y005009D01*
X023273Y004686D01*
X023394Y004564D01*
X022949Y004118D01*
X022930Y004126D01*
X022832Y004126D01*
X022742Y004089D01*
X022673Y004020D01*
X022636Y003930D01*
X022636Y003832D01*
X022673Y003742D01*
X022742Y003673D01*
X022832Y003636D01*
X022930Y003636D01*
X023020Y003673D01*
X023089Y003742D01*
X023126Y003832D01*
X023126Y003930D01*
X023118Y003949D01*
X023627Y004458D01*
X023824Y004458D01*
X024052Y004686D01*
X024052Y005009D01*
X023824Y005238D01*
X023896Y005166D02*
X024373Y005166D01*
X024314Y005107D02*
X023954Y005107D01*
X024013Y005049D02*
X024256Y005049D01*
X024233Y004990D02*
X024052Y004990D01*
X024052Y004932D02*
X024233Y004932D01*
X024233Y004814D02*
X024052Y004814D01*
X024052Y004756D02*
X024233Y004756D01*
X024233Y004697D02*
X024052Y004697D01*
X024005Y004639D02*
X024263Y004639D01*
X024322Y004580D02*
X023947Y004580D01*
X023888Y004522D02*
X024380Y004522D01*
X024439Y004463D02*
X023830Y004463D01*
X023631Y004631D02*
X023631Y004816D01*
X023663Y004848D01*
X023631Y004631D02*
X022881Y003881D01*
X022707Y004053D02*
X011781Y004053D01*
X011781Y004112D02*
X022798Y004112D01*
X022663Y003995D02*
X021197Y003995D01*
X021302Y003936D02*
X022639Y003936D01*
X022636Y003878D02*
X021361Y003878D01*
X021400Y003819D02*
X022641Y003819D01*
X022666Y003761D02*
X021424Y003761D01*
X021446Y003702D02*
X022713Y003702D01*
X022814Y003644D02*
X021446Y003644D01*
X021446Y003585D02*
X025492Y003585D01*
X025492Y003527D02*
X021435Y003527D01*
X021411Y003468D02*
X025492Y003468D01*
X025492Y003409D02*
X021386Y003409D01*
X021246Y004288D02*
X023118Y004288D01*
X023176Y004346D02*
X021323Y004346D01*
X021381Y004405D02*
X022662Y004405D01*
X022577Y004463D02*
X021409Y004463D01*
X021433Y004522D02*
X022536Y004522D01*
X022512Y004580D02*
X021446Y004580D01*
X021446Y004639D02*
X022511Y004639D01*
X022518Y004697D02*
X021446Y004697D01*
X021426Y004756D02*
X022543Y004756D01*
X022593Y004814D02*
X021402Y004814D01*
X021366Y004873D02*
X022636Y004873D01*
X022636Y004932D02*
X021307Y004932D01*
X021208Y004990D02*
X022636Y004990D01*
X022876Y004990D02*
X023273Y004990D01*
X023273Y004932D02*
X022876Y004932D01*
X022876Y004873D02*
X023273Y004873D01*
X023273Y004814D02*
X022919Y004814D01*
X022969Y004756D02*
X023273Y004756D01*
X023273Y004697D02*
X022994Y004697D01*
X023001Y004639D02*
X023320Y004639D01*
X023378Y004580D02*
X023000Y004580D01*
X022976Y004522D02*
X023352Y004522D01*
X023294Y004463D02*
X022935Y004463D01*
X022850Y004405D02*
X023235Y004405D01*
X023399Y004229D02*
X025492Y004229D01*
X025492Y004171D02*
X023340Y004171D01*
X023282Y004112D02*
X025492Y004112D01*
X025492Y004053D02*
X023223Y004053D01*
X023165Y003995D02*
X025492Y003995D01*
X025492Y003936D02*
X023123Y003936D01*
X023126Y003878D02*
X025492Y003878D01*
X025492Y003819D02*
X023121Y003819D01*
X023096Y003761D02*
X025492Y003761D01*
X025492Y003702D02*
X023049Y003702D01*
X022948Y003644D02*
X025492Y003644D01*
X025492Y004288D02*
X023457Y004288D01*
X023516Y004346D02*
X025492Y004346D01*
X025492Y004405D02*
X023574Y004405D01*
X023059Y004229D02*
X011781Y004229D01*
X011781Y004171D02*
X023001Y004171D01*
X022756Y004631D02*
X022756Y005256D01*
X023256Y005756D01*
X023571Y005756D01*
X023663Y005848D01*
X023959Y006102D02*
X024309Y006102D01*
X024251Y006044D02*
X024018Y006044D01*
X024052Y005985D02*
X024233Y005985D01*
X024233Y005927D02*
X024052Y005927D01*
X023901Y006161D02*
X024368Y006161D01*
X024426Y006220D02*
X023842Y006220D01*
X023879Y006512D02*
X024390Y006512D01*
X024448Y006454D02*
X018126Y006454D01*
X018126Y006512D02*
X023446Y006512D01*
X023388Y006571D02*
X018126Y006571D01*
X018126Y006629D02*
X023329Y006629D01*
X023273Y006688D02*
X018126Y006688D01*
X018126Y006746D02*
X023273Y006746D01*
X023273Y006805D02*
X018126Y006805D01*
X018126Y006864D02*
X023273Y006864D01*
X023273Y006922D02*
X018126Y006922D01*
X018126Y006981D02*
X023273Y006981D01*
X023303Y007039D02*
X018126Y007039D01*
X018126Y007098D02*
X023361Y007098D01*
X023420Y007156D02*
X018126Y007156D01*
X018126Y007215D02*
X023478Y007215D01*
X024052Y006746D02*
X024233Y006746D01*
X024233Y006688D02*
X024052Y006688D01*
X023996Y006629D02*
X024273Y006629D01*
X024331Y006571D02*
X023937Y006571D01*
X023483Y006220D02*
X018126Y006220D01*
X018126Y006278D02*
X025492Y006278D01*
X025492Y006220D02*
X024899Y006220D01*
X024957Y006161D02*
X025492Y006161D01*
X025492Y006102D02*
X025016Y006102D01*
X025074Y006044D02*
X025492Y006044D01*
X025492Y005985D02*
X025092Y005985D01*
X025092Y005927D02*
X025492Y005927D01*
X025492Y005868D02*
X024693Y005868D01*
X024692Y005810D02*
X024633Y005810D01*
X024633Y005751D02*
X024692Y005751D01*
X024692Y005693D02*
X024633Y005693D01*
X024633Y005634D02*
X024692Y005634D01*
X024692Y005576D02*
X024633Y005576D01*
X024633Y005517D02*
X024692Y005517D01*
X024692Y005458D02*
X024633Y005458D01*
X024633Y005224D02*
X024692Y005224D01*
X024692Y005166D02*
X024633Y005166D01*
X024633Y005107D02*
X024692Y005107D01*
X024692Y005049D02*
X024633Y005049D01*
X024633Y004990D02*
X024692Y004990D01*
X024692Y004932D02*
X024633Y004932D01*
X024632Y004873D02*
X024052Y004873D01*
X023488Y005224D02*
X022894Y005224D01*
X022876Y005166D02*
X023429Y005166D01*
X023371Y005107D02*
X022876Y005107D01*
X022876Y005049D02*
X023312Y005049D01*
X023070Y005400D02*
X025492Y005400D01*
X025492Y005458D02*
X024881Y005458D01*
X024940Y005517D02*
X025492Y005517D01*
X025492Y005576D02*
X024999Y005576D01*
X025057Y005634D02*
X025492Y005634D01*
X025492Y005693D02*
X025092Y005693D01*
X025092Y005751D02*
X025492Y005751D01*
X025492Y005810D02*
X025092Y005810D01*
X025492Y005341D02*
X023011Y005341D01*
X022953Y005283D02*
X025492Y005283D01*
X025492Y005224D02*
X024894Y005224D01*
X024952Y005166D02*
X025492Y005166D01*
X025492Y005107D02*
X025011Y005107D01*
X025069Y005049D02*
X025492Y005049D01*
X025492Y004990D02*
X025092Y004990D01*
X025092Y004932D02*
X025492Y004932D01*
X025492Y004873D02*
X024693Y004873D01*
X024692Y004814D02*
X024633Y004814D01*
X024633Y004756D02*
X024692Y004756D01*
X024692Y004697D02*
X024633Y004697D01*
X024633Y004639D02*
X024692Y004639D01*
X024692Y004580D02*
X024633Y004580D01*
X024633Y004522D02*
X024692Y004522D01*
X024692Y004463D02*
X024633Y004463D01*
X024886Y004463D02*
X025492Y004463D01*
X025492Y004522D02*
X024945Y004522D01*
X025003Y004580D02*
X025492Y004580D01*
X025492Y004639D02*
X025062Y004639D01*
X025092Y004697D02*
X025492Y004697D01*
X025492Y004756D02*
X025092Y004756D01*
X025092Y004814D02*
X025492Y004814D01*
X025492Y006337D02*
X018126Y006337D01*
X018126Y006395D02*
X025492Y006395D01*
X025492Y006454D02*
X024877Y006454D01*
X024935Y006512D02*
X025492Y006512D01*
X025492Y006571D02*
X024994Y006571D01*
X025052Y006629D02*
X025492Y006629D01*
X025492Y006688D02*
X025092Y006688D01*
X025092Y006746D02*
X025492Y006746D01*
X025492Y006805D02*
X025092Y006805D01*
X025492Y007332D02*
X018126Y007332D01*
X018126Y007390D02*
X025492Y007390D01*
X025492Y007449D02*
X024872Y007449D01*
X024931Y007507D02*
X025492Y007507D01*
X025492Y007566D02*
X024989Y007566D01*
X025048Y007625D02*
X025492Y007625D01*
X025492Y007683D02*
X025092Y007683D01*
X025092Y007742D02*
X025492Y007742D01*
X025492Y007800D02*
X025092Y007800D01*
X025092Y007917D02*
X025492Y007917D01*
X025492Y007859D02*
X024693Y007859D01*
X024692Y007917D02*
X024633Y007917D01*
X024632Y007859D02*
X024052Y007859D01*
X024633Y007800D02*
X024692Y007800D01*
X024692Y007742D02*
X024633Y007742D01*
X024633Y007683D02*
X024692Y007683D01*
X024692Y007625D02*
X024633Y007625D01*
X024633Y007566D02*
X024692Y007566D01*
X024692Y007507D02*
X024633Y007507D01*
X024633Y007449D02*
X024692Y007449D01*
X024692Y007976D02*
X024633Y007976D01*
X024633Y008034D02*
X024692Y008034D01*
X024692Y008093D02*
X024633Y008093D01*
X024633Y008151D02*
X024692Y008151D01*
X024692Y008210D02*
X024633Y008210D01*
X024633Y008269D02*
X024692Y008269D01*
X024850Y008269D02*
X025492Y008269D01*
X025492Y008210D02*
X024908Y008210D01*
X024967Y008151D02*
X025492Y008151D01*
X025492Y008093D02*
X025025Y008093D01*
X025084Y008034D02*
X025492Y008034D01*
X025492Y007976D02*
X025092Y007976D01*
X024692Y008444D02*
X024633Y008444D01*
X024633Y008503D02*
X024692Y008503D01*
X024692Y008561D02*
X024633Y008561D01*
X024633Y008620D02*
X024692Y008620D01*
X024692Y008678D02*
X024633Y008678D01*
X024633Y008737D02*
X024692Y008737D01*
X024692Y008795D02*
X024633Y008795D01*
X024632Y008854D02*
X024052Y008854D01*
X024633Y009908D02*
X024692Y009908D01*
X024692Y009966D02*
X024633Y009966D01*
X024633Y010025D02*
X024692Y010025D01*
X024692Y010083D02*
X024633Y010083D01*
X024633Y010142D02*
X024692Y010142D01*
X024692Y010200D02*
X024633Y010200D01*
X024633Y010259D02*
X024692Y010259D01*
X024692Y010435D02*
X024633Y010435D01*
X024633Y010493D02*
X024692Y010493D01*
X024692Y010552D02*
X024633Y010552D01*
X024633Y010610D02*
X024692Y010610D01*
X024692Y010669D02*
X024633Y010669D01*
X024633Y010727D02*
X024692Y010727D01*
X024692Y010786D02*
X024633Y010786D01*
X024632Y010844D02*
X024052Y010844D01*
X024858Y010435D02*
X025492Y010435D01*
X025492Y010493D02*
X024916Y010493D01*
X024975Y010552D02*
X025492Y010552D01*
X025492Y010610D02*
X025033Y010610D01*
X024233Y011957D02*
X024052Y011957D01*
X024046Y012015D02*
X024233Y012015D01*
X024281Y012074D02*
X023988Y012074D01*
X023929Y012132D02*
X024339Y012132D01*
X024398Y012191D02*
X023871Y012191D01*
X023824Y012458D02*
X024052Y012686D01*
X024052Y013009D01*
X023824Y013238D01*
X023501Y013238D01*
X023273Y013009D01*
X023273Y012686D01*
X023501Y012458D01*
X023824Y012458D01*
X023850Y012484D02*
X024475Y012484D01*
X024501Y012458D02*
X024824Y012458D01*
X025052Y012686D01*
X025052Y013009D01*
X024824Y013238D01*
X024501Y013238D01*
X024273Y013009D01*
X024273Y012686D01*
X024501Y012458D01*
X024416Y012542D02*
X023909Y012542D01*
X023967Y012601D02*
X024358Y012601D01*
X024299Y012659D02*
X024026Y012659D01*
X024052Y012718D02*
X024273Y012718D01*
X024273Y012776D02*
X024052Y012776D01*
X024052Y012835D02*
X024273Y012835D01*
X024273Y012893D02*
X024052Y012893D01*
X024052Y012952D02*
X024273Y012952D01*
X024274Y013011D02*
X024051Y013011D01*
X023992Y013069D02*
X024333Y013069D01*
X024391Y013128D02*
X023934Y013128D01*
X023875Y013186D02*
X024450Y013186D01*
X024875Y013186D02*
X025492Y013186D01*
X025492Y013128D02*
X024934Y013128D01*
X024992Y013069D02*
X025492Y013069D01*
X025492Y013011D02*
X025051Y013011D01*
X025052Y012952D02*
X025492Y012952D01*
X025492Y012893D02*
X025052Y012893D01*
X025052Y012835D02*
X025492Y012835D01*
X025492Y012776D02*
X025052Y012776D01*
X025052Y012718D02*
X025492Y012718D01*
X025492Y012659D02*
X025026Y012659D01*
X024967Y012601D02*
X025492Y012601D01*
X025492Y012542D02*
X024909Y012542D01*
X024850Y012484D02*
X025492Y012484D01*
X025492Y012425D02*
X022966Y012425D01*
X022966Y012367D02*
X025492Y012367D01*
X025492Y012308D02*
X022966Y012308D01*
X022966Y012484D02*
X023475Y012484D01*
X023416Y012542D02*
X022966Y012542D01*
X022966Y012601D02*
X023358Y012601D01*
X023299Y012659D02*
X022966Y012659D01*
X022966Y012718D02*
X023273Y012718D01*
X023273Y012776D02*
X022966Y012776D01*
X022966Y012835D02*
X023273Y012835D01*
X023273Y012893D02*
X022966Y012893D01*
X022966Y012952D02*
X023273Y012952D01*
X023274Y013011D02*
X022966Y013011D01*
X022966Y013069D02*
X023333Y013069D01*
X023391Y013128D02*
X022966Y013128D01*
X022966Y013186D02*
X023450Y013186D01*
X022966Y013245D02*
X025492Y013245D01*
X025492Y013303D02*
X022966Y013303D01*
X022966Y013362D02*
X025492Y013362D01*
X025492Y013420D02*
X022966Y013420D01*
X022966Y013479D02*
X025492Y013479D01*
X025492Y013537D02*
X022966Y013537D01*
X022966Y013596D02*
X025492Y013596D01*
X025492Y013655D02*
X022966Y013655D01*
X022966Y013713D02*
X025492Y013713D01*
X025492Y013772D02*
X022966Y013772D01*
X022966Y013830D02*
X025492Y013830D01*
X025492Y013889D02*
X022966Y013889D01*
X022966Y013947D02*
X025492Y013947D01*
X025492Y014006D02*
X022966Y014006D01*
X022966Y014064D02*
X025492Y014064D01*
X025492Y014123D02*
X022966Y014123D01*
X022966Y014181D02*
X025492Y014181D01*
X025492Y014240D02*
X022966Y014240D01*
X022966Y014299D02*
X025492Y014299D01*
X025492Y014357D02*
X022966Y014357D01*
X022966Y014416D02*
X025492Y014416D01*
X025492Y014474D02*
X022966Y014474D01*
X022966Y014533D02*
X025492Y014533D01*
X025492Y014591D02*
X022966Y014591D01*
X022966Y014650D02*
X025492Y014650D01*
X025492Y014708D02*
X022966Y014708D01*
X022966Y014767D02*
X025492Y014767D01*
X025492Y014825D02*
X022966Y014825D01*
X022925Y014884D02*
X025492Y014884D01*
X025492Y014942D02*
X022866Y014942D01*
X023430Y015235D02*
X020093Y015235D01*
X020182Y015177D02*
X023489Y015177D01*
X023773Y015177D02*
X025492Y015177D01*
X025492Y015235D02*
X023832Y015235D01*
X023860Y015294D02*
X025492Y015294D01*
X025492Y015352D02*
X023876Y015352D01*
X023876Y015411D02*
X025492Y015411D01*
X025492Y015469D02*
X023860Y015469D01*
X023831Y015528D02*
X025492Y015528D01*
X025492Y015586D02*
X023772Y015586D01*
X023537Y015645D02*
X025492Y015645D01*
X025492Y015704D02*
X023478Y015704D01*
X023420Y015762D02*
X025492Y015762D01*
X025492Y015821D02*
X023361Y015821D01*
X023303Y015879D02*
X025492Y015879D01*
X025492Y015938D02*
X023244Y015938D01*
X023185Y015996D02*
X025492Y015996D01*
X025492Y016055D02*
X023127Y016055D01*
X023068Y016113D02*
X025492Y016113D01*
X025492Y016172D02*
X023010Y016172D01*
X022951Y016230D02*
X025492Y016230D01*
X025492Y016289D02*
X022893Y016289D01*
X022834Y016348D02*
X025492Y016348D01*
X025492Y016406D02*
X022776Y016406D01*
X022717Y016465D02*
X025492Y016465D01*
X025492Y016523D02*
X022659Y016523D01*
X022612Y016230D02*
X010971Y016230D01*
X010912Y016172D02*
X022670Y016172D01*
X022729Y016113D02*
X010854Y016113D01*
X010795Y016055D02*
X022788Y016055D01*
X022846Y015996D02*
X010737Y015996D01*
X010696Y015938D02*
X022905Y015938D01*
X022963Y015879D02*
X010696Y015879D01*
X010696Y015821D02*
X023022Y015821D01*
X023950Y016582D02*
X025492Y016582D01*
X025492Y016640D02*
X024182Y016640D01*
X024319Y016699D02*
X025492Y016699D01*
X025492Y016757D02*
X024425Y016757D01*
X024513Y016816D02*
X025492Y016816D01*
X025492Y016874D02*
X024585Y016874D01*
X024649Y016933D02*
X025492Y016933D01*
X025492Y016991D02*
X024706Y016991D01*
X024754Y017050D02*
X025492Y017050D01*
X025492Y017109D02*
X024799Y017109D01*
X024838Y017167D02*
X025492Y017167D01*
X025492Y017226D02*
X024872Y017226D01*
X024903Y017284D02*
X025492Y017284D01*
X025492Y017343D02*
X024929Y017343D01*
X024954Y017401D02*
X025492Y017401D01*
X025492Y017460D02*
X024973Y017460D01*
X024991Y017518D02*
X025492Y017518D01*
X025492Y017577D02*
X025004Y017577D01*
X025016Y017635D02*
X025492Y017635D01*
X025492Y017694D02*
X025024Y017694D01*
X025030Y017753D02*
X025492Y017753D01*
X025492Y017811D02*
X025033Y017811D01*
X025031Y017928D02*
X025492Y017928D01*
X025492Y017870D02*
X023783Y017870D01*
X023783Y017928D02*
X023723Y017928D01*
X023723Y017987D02*
X023783Y017987D01*
X023783Y018045D02*
X023723Y018045D01*
X023723Y018104D02*
X023783Y018104D01*
X023783Y018162D02*
X023723Y018162D01*
X023723Y018221D02*
X023783Y018221D01*
X023783Y018279D02*
X023723Y018279D01*
X023723Y018338D02*
X023783Y018338D01*
X023783Y018397D02*
X023723Y018397D01*
X023723Y018455D02*
X023783Y018455D01*
X023783Y018514D02*
X023723Y018514D01*
X023723Y018572D02*
X023783Y018572D01*
X023783Y018631D02*
X023723Y018631D01*
X023723Y018689D02*
X023783Y018689D01*
X023783Y018748D02*
X023723Y018748D01*
X023723Y018806D02*
X023783Y018806D01*
X023783Y018865D02*
X023723Y018865D01*
X023723Y018923D02*
X023783Y018923D01*
X023783Y018982D02*
X023723Y018982D01*
X023723Y019041D02*
X023783Y019041D01*
X023783Y019099D02*
X023723Y019099D01*
X024022Y019099D02*
X025492Y019099D01*
X025492Y019041D02*
X024218Y019041D01*
X024346Y018982D02*
X025492Y018982D01*
X025492Y018923D02*
X024447Y018923D01*
X024531Y018865D02*
X025492Y018865D01*
X025492Y018806D02*
X024602Y018806D01*
X024663Y018748D02*
X025492Y018748D01*
X025492Y018689D02*
X024718Y018689D01*
X024766Y018631D02*
X025492Y018631D01*
X025492Y018572D02*
X024808Y018572D01*
X024847Y018514D02*
X025492Y018514D01*
X025492Y018455D02*
X024880Y018455D01*
X024911Y018397D02*
X025492Y018397D01*
X025492Y018338D02*
X024935Y018338D01*
X024960Y018279D02*
X025492Y018279D01*
X025492Y018221D02*
X024977Y018221D01*
X024995Y018162D02*
X025492Y018162D01*
X025492Y018104D02*
X025007Y018104D01*
X025019Y018045D02*
X025492Y018045D01*
X025492Y017987D02*
X025026Y017987D01*
X025492Y019158D02*
X000361Y019158D01*
X000361Y019216D02*
X025492Y019216D01*
X025492Y019275D02*
X000361Y019275D01*
X000361Y019333D02*
X025492Y019333D01*
X025492Y019392D02*
X000361Y019392D01*
X000361Y019450D02*
X025492Y019450D01*
X025492Y019509D02*
X000361Y019509D01*
X000361Y019567D02*
X025492Y019567D01*
X025492Y015118D02*
X020225Y015118D01*
X020249Y015060D02*
X025492Y015060D01*
X025492Y015001D02*
X020251Y015001D01*
X019921Y014767D02*
X019104Y014767D01*
X019163Y014825D02*
X019840Y014825D01*
X019921Y014708D02*
X019045Y014708D01*
X018987Y014650D02*
X019921Y014650D01*
X019921Y014591D02*
X018928Y014591D01*
X018870Y014533D02*
X019921Y014533D01*
X019921Y014474D02*
X018811Y014474D01*
X018753Y014416D02*
X019921Y014416D01*
X019921Y014357D02*
X018694Y014357D01*
X018636Y014299D02*
X019921Y014299D01*
X019921Y014240D02*
X018577Y014240D01*
X018519Y014181D02*
X019921Y014181D01*
X019921Y014123D02*
X018460Y014123D01*
X018401Y014064D02*
X019921Y014064D01*
X019921Y014006D02*
X018343Y014006D01*
X018284Y013947D02*
X019921Y013947D01*
X019921Y013889D02*
X018251Y013889D01*
X018250Y013830D02*
X019921Y013830D01*
X019921Y013772D02*
X018226Y013772D01*
X018185Y013713D02*
X019921Y013713D01*
X019921Y013655D02*
X018099Y013655D01*
X017913Y013655D02*
X015520Y013655D01*
X015578Y013713D02*
X017827Y013713D01*
X017786Y013772D02*
X015637Y013772D01*
X015696Y013830D02*
X017762Y013830D01*
X017761Y013889D02*
X015754Y013889D01*
X015813Y013947D02*
X017768Y013947D01*
X017793Y014006D02*
X015871Y014006D01*
X015930Y014064D02*
X017843Y014064D01*
X017950Y014123D02*
X015988Y014123D01*
X016047Y014181D02*
X018094Y014181D01*
X018153Y014240D02*
X016105Y014240D01*
X016164Y014299D02*
X018211Y014299D01*
X018270Y014357D02*
X016222Y014357D01*
X016281Y014416D02*
X018328Y014416D01*
X018387Y014474D02*
X016340Y014474D01*
X016398Y014533D02*
X018446Y014533D01*
X018504Y014591D02*
X016457Y014591D01*
X016515Y014650D02*
X018563Y014650D01*
X018621Y014708D02*
X016574Y014708D01*
X016632Y014767D02*
X018680Y014767D01*
X018738Y014825D02*
X016691Y014825D01*
X016749Y014884D02*
X018797Y014884D01*
X018855Y014942D02*
X016808Y014942D01*
X016866Y015001D02*
X018914Y015001D01*
X018972Y015060D02*
X016925Y015060D01*
X016984Y015118D02*
X019031Y015118D01*
X019830Y015177D02*
X017042Y015177D01*
X017101Y015235D02*
X019919Y015235D01*
X019921Y013596D02*
X015461Y013596D01*
X015403Y013537D02*
X019921Y013537D01*
X019921Y013479D02*
X015344Y013479D01*
X015286Y013420D02*
X019921Y013420D01*
X019921Y013362D02*
X015227Y013362D01*
X015169Y013303D02*
X019921Y013303D01*
X019921Y013245D02*
X015110Y013245D01*
X015052Y013186D02*
X019921Y013186D01*
X019921Y013128D02*
X014993Y013128D01*
X014934Y013069D02*
X019921Y013069D01*
X019921Y013011D02*
X014876Y013011D01*
X014817Y012952D02*
X019921Y012952D01*
X019921Y012893D02*
X014759Y012893D01*
X014751Y012835D02*
X019921Y012835D01*
X019921Y012776D02*
X014728Y012776D01*
X014689Y012718D02*
X019921Y012718D01*
X019921Y012308D02*
X012925Y012308D01*
X012972Y012249D02*
X019921Y012249D01*
X019921Y012191D02*
X012996Y012191D01*
X013001Y012132D02*
X019921Y012132D01*
X019921Y012074D02*
X012997Y012074D01*
X012973Y012015D02*
X019921Y012015D01*
X017381Y010131D02*
X017131Y010381D01*
X017180Y010610D02*
X014843Y010610D01*
X014282Y010025D02*
X015980Y010025D01*
X016039Y010083D02*
X014223Y010083D01*
X014256Y009881D02*
X013381Y010756D01*
X010256Y010756D01*
X010027Y010844D02*
X009626Y010844D01*
X009626Y010786D02*
X010011Y010786D01*
X010011Y010727D02*
X009626Y010727D01*
X009690Y010669D02*
X010027Y010669D01*
X010055Y010610D02*
X009728Y010610D01*
X009751Y010552D02*
X010114Y010552D01*
X010398Y010552D02*
X013416Y010552D01*
X013474Y010493D02*
X013099Y010493D01*
X013080Y010501D02*
X012982Y010501D01*
X012892Y010464D01*
X012823Y010395D01*
X012816Y010376D01*
X012596Y010376D01*
X012589Y010395D01*
X012520Y010464D01*
X012430Y010501D01*
X012332Y010501D01*
X012242Y010464D01*
X012173Y010395D01*
X012136Y010305D01*
X012136Y010207D01*
X012173Y010117D01*
X012242Y010048D01*
X012332Y010011D01*
X012430Y010011D01*
X012520Y010048D01*
X012589Y010117D01*
X012596Y010136D01*
X012816Y010136D01*
X012823Y010117D01*
X012892Y010048D01*
X012982Y010011D01*
X013080Y010011D01*
X013170Y010048D01*
X013239Y010117D01*
X013276Y010207D01*
X013276Y010305D01*
X013239Y010395D01*
X013170Y010464D01*
X013080Y010501D01*
X012963Y010493D02*
X012449Y010493D01*
X012549Y010435D02*
X012863Y010435D01*
X012816Y010376D02*
X012596Y010376D01*
X012381Y010256D02*
X013031Y010256D01*
X012857Y010083D02*
X012555Y010083D01*
X012463Y010025D02*
X012949Y010025D01*
X013113Y010025D02*
X013942Y010025D01*
X013884Y010083D02*
X013205Y010083D01*
X013249Y010142D02*
X013825Y010142D01*
X013767Y010200D02*
X013273Y010200D01*
X013276Y010259D02*
X013708Y010259D01*
X013650Y010318D02*
X013271Y010318D01*
X013246Y010376D02*
X013591Y010376D01*
X013533Y010435D02*
X013199Y010435D01*
X013357Y010610D02*
X010457Y010610D01*
X010455Y010903D02*
X016283Y010903D01*
X016261Y010962D02*
X010397Y010962D01*
X010115Y010962D02*
X009631Y010962D01*
X009626Y010903D02*
X010057Y010903D01*
X009807Y011137D02*
X012704Y011137D01*
X012808Y011137D02*
X016295Y011137D01*
X016271Y011079D02*
X009748Y011079D01*
X009690Y011020D02*
X016261Y011020D01*
X016321Y010844D02*
X013462Y010844D01*
X012969Y011254D02*
X016386Y011254D01*
X016386Y011313D02*
X012993Y011313D01*
X013001Y011371D02*
X016386Y011371D01*
X016370Y011547D02*
X012936Y011547D01*
X012964Y011520D02*
X013001Y011430D01*
X012906Y011606D02*
X016310Y011606D01*
X016279Y011664D02*
X012906Y011664D01*
X012906Y011723D02*
X016261Y011723D01*
X016261Y011781D02*
X012906Y011781D01*
X012906Y011840D02*
X016276Y011840D01*
X016302Y011898D02*
X012906Y011898D01*
X012928Y011957D02*
X016360Y011957D01*
X016506Y011756D02*
X016506Y011006D01*
X016751Y011020D02*
X016761Y011020D01*
X016751Y010962D02*
X016761Y010962D01*
X016771Y011079D02*
X016741Y011079D01*
X016717Y011137D02*
X016795Y011137D01*
X016849Y011196D02*
X016663Y011196D01*
X016626Y011254D02*
X016886Y011254D01*
X016886Y011313D02*
X016626Y011313D01*
X016626Y011371D02*
X016886Y011371D01*
X016886Y011430D02*
X016626Y011430D01*
X016626Y011488D02*
X016886Y011488D01*
X016870Y011547D02*
X016641Y011547D01*
X016702Y011606D02*
X016810Y011606D01*
X016779Y011664D02*
X016733Y011664D01*
X016751Y011723D02*
X016761Y011723D01*
X016751Y011781D02*
X016761Y011781D01*
X016776Y011840D02*
X016737Y011840D01*
X016710Y011898D02*
X016802Y011898D01*
X016860Y011957D02*
X016652Y011957D01*
X016349Y011196D02*
X012917Y011196D01*
X012595Y011196D02*
X009865Y011196D01*
X009924Y011254D02*
X012543Y011254D01*
X012519Y011313D02*
X009982Y011313D01*
X010041Y011371D02*
X012511Y011371D01*
X012313Y010493D02*
X009751Y010493D01*
X009742Y010435D02*
X012213Y010435D01*
X012166Y010376D02*
X009717Y010376D01*
X009916Y010318D02*
X012141Y010318D01*
X012136Y010259D02*
X009968Y010259D01*
X009992Y010200D02*
X012139Y010200D01*
X012163Y010142D02*
X010001Y010142D01*
X010001Y010083D02*
X012207Y010083D01*
X012299Y010025D02*
X009977Y010025D01*
X009938Y009966D02*
X014001Y009966D01*
X014060Y009908D02*
X009857Y009908D01*
X009322Y010669D02*
X009126Y010669D01*
X009126Y010727D02*
X009386Y010727D01*
X009386Y010786D02*
X009126Y010786D01*
X009126Y010844D02*
X009386Y010844D01*
X009386Y010903D02*
X009126Y010903D01*
X009126Y010962D02*
X009386Y010962D01*
X009386Y011020D02*
X009126Y011020D01*
X009126Y011079D02*
X009409Y011079D01*
X009467Y011137D02*
X009126Y011137D01*
X009126Y011196D02*
X009526Y011196D01*
X009585Y011254D02*
X009126Y011254D01*
X009126Y011313D02*
X009643Y011313D01*
X009702Y011371D02*
X009126Y011371D01*
X009126Y011430D02*
X009760Y011430D01*
X009819Y011488D02*
X009126Y011488D01*
X009126Y011547D02*
X009877Y011547D01*
X009936Y011606D02*
X009126Y011606D01*
X009126Y011664D02*
X009994Y011664D01*
X010053Y011723D02*
X009126Y011723D01*
X009126Y011781D02*
X010111Y011781D01*
X011162Y009732D02*
X002436Y009732D01*
X002577Y009674D02*
X011077Y009674D01*
X011036Y009615D02*
X002646Y009615D01*
X002704Y009556D02*
X011012Y009556D01*
X011011Y009498D02*
X002742Y009498D01*
X002766Y009439D02*
X011018Y009439D01*
X011043Y009381D02*
X002791Y009381D01*
X002800Y009322D02*
X011093Y009322D01*
X011256Y009506D02*
X013381Y009506D01*
X013287Y009732D02*
X011350Y009732D01*
X011435Y009674D02*
X013202Y009674D01*
X013168Y009381D02*
X011469Y009381D01*
X011419Y009322D02*
X013218Y009322D01*
X013544Y009322D02*
X015718Y009322D01*
X015668Y009381D02*
X013594Y009381D01*
X013619Y009439D02*
X015643Y009439D01*
X015636Y009498D02*
X013626Y009498D01*
X013625Y009556D02*
X015637Y009556D01*
X015661Y009615D02*
X013601Y009615D01*
X013560Y009674D02*
X015702Y009674D01*
X015787Y009732D02*
X013475Y009732D01*
X014256Y009881D02*
X016006Y009881D01*
X016131Y010006D01*
X017006Y010006D01*
X016816Y009849D02*
X016144Y009849D01*
X016085Y009791D02*
X016886Y009791D01*
X016060Y009674D02*
X020140Y009674D01*
X020224Y009732D02*
X015975Y009732D01*
X015881Y009506D02*
X020319Y009506D01*
X020156Y009322D02*
X016044Y009322D01*
X016094Y009381D02*
X020105Y009381D01*
X018635Y008971D02*
X018127Y008971D01*
X018196Y008913D02*
X018566Y008913D01*
X018006Y008756D02*
X018006Y005756D01*
X018273Y005502D01*
X018495Y005400D02*
X018910Y005400D01*
X018923Y005367D02*
X018992Y005298D01*
X019082Y005261D01*
X019180Y005261D01*
X019270Y005298D01*
X019339Y005367D01*
X019346Y005386D01*
X019666Y005386D01*
X019673Y005367D01*
X019742Y005298D01*
X019832Y005261D01*
X019930Y005261D01*
X020020Y005298D01*
X020089Y005367D01*
X020126Y005457D01*
X020126Y005555D01*
X020089Y005645D01*
X020020Y005714D01*
X019930Y005751D01*
X019832Y005751D01*
X019742Y005714D01*
X019673Y005645D01*
X019666Y005626D01*
X019346Y005626D01*
X019339Y005645D01*
X019270Y005714D01*
X019180Y005751D01*
X019082Y005751D01*
X018992Y005714D01*
X018923Y005645D01*
X018886Y005555D01*
X018886Y005457D01*
X018923Y005367D01*
X018949Y005341D02*
X018458Y005341D01*
X018384Y005283D02*
X019030Y005283D01*
X019232Y005283D02*
X019780Y005283D01*
X019699Y005341D02*
X019313Y005341D01*
X019131Y005506D02*
X019881Y005506D01*
X019982Y005283D02*
X022636Y005283D01*
X022672Y005341D02*
X020063Y005341D01*
X020102Y005400D02*
X022730Y005400D01*
X022789Y005458D02*
X020126Y005458D01*
X020126Y005517D02*
X022847Y005517D01*
X022906Y005576D02*
X020117Y005576D01*
X020093Y005634D02*
X022964Y005634D01*
X023023Y005693D02*
X020041Y005693D01*
X019721Y005693D02*
X019291Y005693D01*
X019343Y005634D02*
X019669Y005634D01*
X018971Y005693D02*
X018428Y005693D01*
X018483Y005634D02*
X018919Y005634D01*
X018895Y005576D02*
X018507Y005576D01*
X018518Y005517D02*
X018886Y005517D01*
X018886Y005458D02*
X018518Y005458D01*
X018185Y005751D02*
X023081Y005751D01*
X023140Y005810D02*
X018126Y005810D01*
X018126Y005868D02*
X023199Y005868D01*
X023273Y005927D02*
X018126Y005927D01*
X018126Y005985D02*
X023273Y005985D01*
X023307Y006044D02*
X018126Y006044D01*
X018126Y006102D02*
X023366Y006102D01*
X023424Y006161D02*
X018126Y006161D01*
X017886Y006454D02*
X017300Y006454D01*
X017347Y006512D02*
X017886Y006512D01*
X017886Y006571D02*
X017371Y006571D01*
X017376Y006629D02*
X017886Y006629D01*
X017886Y006688D02*
X017373Y006688D01*
X017348Y006746D02*
X017886Y006746D01*
X017469Y007256D02*
X016006Y007256D01*
X015881Y007131D01*
X014506Y007131D01*
X014381Y006881D02*
X016006Y006881D01*
X016131Y007006D01*
X017131Y007006D01*
X017071Y007917D02*
X015743Y007917D01*
X015689Y007859D02*
X015403Y007859D01*
X015376Y007800D02*
X015631Y007800D01*
X015572Y007742D02*
X015376Y007742D01*
X015366Y007683D02*
X015513Y007683D01*
X015131Y007756D02*
X015506Y008131D01*
X015619Y008131D01*
X015851Y008210D02*
X017206Y008210D01*
X017295Y008151D02*
X015864Y008151D01*
X015810Y007976D02*
X017147Y007976D01*
X017381Y008381D02*
X015006Y008381D01*
X014756Y008131D01*
X014981Y008034D02*
X015240Y008034D01*
X015298Y008093D02*
X015001Y008093D01*
X015001Y008151D02*
X015357Y008151D01*
X015386Y008210D02*
X015005Y008210D01*
X015022Y007976D02*
X014947Y007976D01*
X014946Y007917D02*
X014880Y007917D01*
X015462Y007917D02*
X015494Y007917D01*
X015283Y008561D02*
X017104Y008561D01*
X017047Y008620D02*
X015340Y008620D01*
X014979Y008561D02*
X000926Y008561D01*
X000926Y008503D02*
X017166Y008503D01*
X014922Y008620D02*
X000926Y008620D01*
X000926Y008678D02*
X014898Y008678D01*
X014886Y008737D02*
X000926Y008737D01*
X000926Y008327D02*
X001290Y008327D01*
X001213Y008269D02*
X000926Y008269D01*
X000926Y008210D02*
X001158Y008210D01*
X001116Y008151D02*
X000926Y008151D01*
X000926Y008093D02*
X001086Y008093D01*
X001066Y008034D02*
X000926Y008034D01*
X000926Y007976D02*
X001052Y007976D01*
X001044Y007917D02*
X000926Y007917D01*
X001912Y007917D02*
X001972Y007917D01*
X001972Y007976D02*
X001912Y007976D01*
X001912Y008034D02*
X001972Y008034D01*
X001972Y008093D02*
X001912Y008093D01*
X001912Y008151D02*
X001972Y008151D01*
X001972Y008210D02*
X001912Y008210D01*
X001912Y008269D02*
X001972Y008269D01*
X001972Y008327D02*
X001912Y008327D01*
X001912Y008386D02*
X001972Y008386D01*
X002431Y008795D02*
X014886Y008795D01*
X014256Y007006D02*
X014381Y006881D01*
X023128Y005458D02*
X023500Y005458D01*
X023442Y005517D02*
X023187Y005517D01*
X023245Y005576D02*
X023383Y005576D01*
X023324Y005634D02*
X023304Y005634D01*
X013722Y014416D02*
X012906Y014416D01*
X012892Y014410D02*
X013035Y014469D01*
X013145Y014579D01*
X013204Y014722D01*
X013204Y015477D01*
X013145Y015620D01*
X013035Y015730D01*
X012892Y015789D01*
X012736Y015789D01*
X012593Y015730D01*
X012483Y015620D01*
X012424Y015477D01*
X012424Y014722D01*
X012483Y014579D01*
X012593Y014469D01*
X012736Y014410D01*
X012892Y014410D01*
X013040Y014474D02*
X013588Y014474D01*
X013529Y014533D02*
X013099Y014533D01*
X013150Y014591D02*
X013478Y014591D01*
X013454Y014650D02*
X013174Y014650D01*
X013198Y014708D02*
X013430Y014708D01*
X013424Y014767D02*
X013204Y014767D01*
X013204Y014825D02*
X013424Y014825D01*
X013424Y014884D02*
X013204Y014884D01*
X013204Y014942D02*
X013424Y014942D01*
X013424Y015001D02*
X013204Y015001D01*
X013204Y015060D02*
X013424Y015060D01*
X013424Y015118D02*
X013204Y015118D01*
X013204Y015177D02*
X013424Y015177D01*
X013424Y015235D02*
X013204Y015235D01*
X013204Y015294D02*
X013424Y015294D01*
X013424Y015352D02*
X013204Y015352D01*
X013204Y015411D02*
X013424Y015411D01*
X013424Y015469D02*
X013204Y015469D01*
X013183Y015528D02*
X013445Y015528D01*
X013469Y015586D02*
X013159Y015586D01*
X013120Y015645D02*
X013508Y015645D01*
X013567Y015704D02*
X013062Y015704D01*
X012958Y015762D02*
X013670Y015762D01*
X012670Y015762D02*
X011958Y015762D01*
X012062Y015704D02*
X012567Y015704D01*
X012508Y015645D02*
X012120Y015645D01*
X012159Y015586D02*
X012469Y015586D01*
X012445Y015528D02*
X012183Y015528D01*
X012204Y015469D02*
X012424Y015469D01*
X012424Y015411D02*
X012204Y015411D01*
X012204Y015352D02*
X012424Y015352D01*
X012424Y015294D02*
X012204Y015294D01*
X012204Y015235D02*
X012424Y015235D01*
X012424Y015177D02*
X012204Y015177D01*
X012204Y015118D02*
X012424Y015118D01*
X012424Y015060D02*
X012204Y015060D01*
X012204Y015001D02*
X012424Y015001D01*
X012424Y014942D02*
X012204Y014942D01*
X012204Y014884D02*
X012424Y014884D01*
X012424Y014825D02*
X012204Y014825D01*
X012204Y014767D02*
X012424Y014767D01*
X012430Y014708D02*
X012198Y014708D01*
X012174Y014650D02*
X012454Y014650D01*
X012478Y014591D02*
X012150Y014591D01*
X012099Y014533D02*
X012529Y014533D01*
X012588Y014474D02*
X012040Y014474D01*
X011906Y014416D02*
X012722Y014416D01*
X009256Y016756D02*
X009256Y017881D01*
X004814Y015528D02*
X000361Y015528D01*
X000361Y015586D02*
X004756Y015586D01*
X004561Y015645D02*
X000361Y015645D01*
X000361Y015704D02*
X004462Y015704D01*
X004415Y015762D02*
X000361Y015762D01*
X000361Y015821D02*
X004391Y015821D01*
X004386Y015879D02*
X000361Y015879D01*
X000361Y015938D02*
X004389Y015938D01*
X004414Y015996D02*
X000361Y015996D01*
X000361Y003292D02*
X001635Y003292D01*
X001506Y003234D02*
X000361Y003234D01*
X000361Y003175D02*
X001406Y003175D01*
X001321Y003117D02*
X000361Y003117D01*
X000361Y003058D02*
X001250Y003058D01*
X001189Y003000D02*
X000361Y003000D01*
X000361Y002941D02*
X001134Y002941D01*
X001086Y002883D02*
X000361Y002883D01*
X000361Y002824D02*
X001044Y002824D01*
X001005Y002765D02*
X000361Y002765D01*
X000361Y002707D02*
X000973Y002707D01*
X000942Y002648D02*
X000361Y002648D01*
X000361Y002590D02*
X000917Y002590D01*
X000893Y002531D02*
X000361Y002531D01*
X000361Y002473D02*
X000875Y002473D01*
X000857Y002414D02*
X000361Y002414D01*
X000361Y002356D02*
X000845Y002356D01*
X000834Y002297D02*
X000361Y002297D01*
X000361Y002239D02*
X000827Y002239D01*
X000821Y002180D02*
X000361Y002180D01*
D17*
X001131Y005006D02*
X001900Y005006D01*
X001942Y005048D01*
X001131Y005006D02*
X000756Y005381D01*
X000756Y012881D01*
X005256Y015131D02*
X008500Y015131D01*
X008526Y015105D01*
X010526Y015105D02*
X010526Y016026D01*
X011006Y016506D01*
X012006Y016506D01*
X014506Y012881D02*
X017131Y015506D01*
X009131Y004006D02*
X007506Y004006D01*
X006506Y002756D01*
X006506Y001406D01*
X006631Y001281D01*
D18*
X007060Y001281D01*
X008060Y001281D01*
X009060Y001281D01*
X010060Y001281D01*
X011060Y001281D01*
X012060Y001281D01*
X006631Y001281D02*
X006060Y001281D01*
X005060Y001281D01*
X004606Y001281D01*
X004131Y001631D01*
X004131Y003631D01*
X002714Y005048D01*
X001942Y005048D01*
M02*
