G75*
G70*
%OFA0B0*%
%FSLAX24Y24*%
%IPPOS*%
%LPD*%
%AMOC8*
5,1,8,0,0,1.08239X$1,22.5*
%
%ADD10C,0.0000*%
D10*
X000131Y000131D02*
X000131Y019816D01*
X025722Y019816D01*
X025722Y000131D01*
X000131Y000131D01*
X005208Y017454D02*
X005210Y017480D01*
X005216Y017506D01*
X005226Y017531D01*
X005239Y017554D01*
X005255Y017574D01*
X005275Y017592D01*
X005297Y017607D01*
X005320Y017619D01*
X005346Y017627D01*
X005372Y017631D01*
X005398Y017631D01*
X005424Y017627D01*
X005450Y017619D01*
X005474Y017607D01*
X005495Y017592D01*
X005515Y017574D01*
X005531Y017554D01*
X005544Y017531D01*
X005554Y017506D01*
X005560Y017480D01*
X005562Y017454D01*
X005560Y017428D01*
X005554Y017402D01*
X005544Y017377D01*
X005531Y017354D01*
X005515Y017334D01*
X005495Y017316D01*
X005473Y017301D01*
X005450Y017289D01*
X005424Y017281D01*
X005398Y017277D01*
X005372Y017277D01*
X005346Y017281D01*
X005320Y017289D01*
X005296Y017301D01*
X005275Y017316D01*
X005255Y017334D01*
X005239Y017354D01*
X005226Y017377D01*
X005216Y017402D01*
X005210Y017428D01*
X005208Y017454D01*
X006586Y017454D02*
X006588Y017480D01*
X006594Y017506D01*
X006604Y017531D01*
X006617Y017554D01*
X006633Y017574D01*
X006653Y017592D01*
X006675Y017607D01*
X006698Y017619D01*
X006724Y017627D01*
X006750Y017631D01*
X006776Y017631D01*
X006802Y017627D01*
X006828Y017619D01*
X006852Y017607D01*
X006873Y017592D01*
X006893Y017574D01*
X006909Y017554D01*
X006922Y017531D01*
X006932Y017506D01*
X006938Y017480D01*
X006940Y017454D01*
X006938Y017428D01*
X006932Y017402D01*
X006922Y017377D01*
X006909Y017354D01*
X006893Y017334D01*
X006873Y017316D01*
X006851Y017301D01*
X006828Y017289D01*
X006802Y017281D01*
X006776Y017277D01*
X006750Y017277D01*
X006724Y017281D01*
X006698Y017289D01*
X006674Y017301D01*
X006653Y017316D01*
X006633Y017334D01*
X006617Y017354D01*
X006604Y017377D01*
X006594Y017402D01*
X006588Y017428D01*
X006586Y017454D01*
X012076Y018635D02*
X012078Y018667D01*
X012084Y018698D01*
X012094Y018729D01*
X012107Y018758D01*
X012124Y018785D01*
X012144Y018810D01*
X012167Y018832D01*
X012192Y018852D01*
X012220Y018868D01*
X012250Y018880D01*
X012280Y018889D01*
X012312Y018894D01*
X012344Y018895D01*
X012376Y018892D01*
X012407Y018885D01*
X012437Y018874D01*
X012466Y018860D01*
X012493Y018842D01*
X012517Y018822D01*
X012539Y018798D01*
X012557Y018772D01*
X012572Y018744D01*
X012584Y018714D01*
X012592Y018683D01*
X012596Y018651D01*
X012596Y018619D01*
X012592Y018587D01*
X012584Y018556D01*
X012572Y018526D01*
X012557Y018498D01*
X012539Y018472D01*
X012517Y018448D01*
X012493Y018428D01*
X012466Y018410D01*
X012437Y018396D01*
X012407Y018385D01*
X012376Y018378D01*
X012344Y018375D01*
X012312Y018376D01*
X012280Y018381D01*
X012250Y018390D01*
X012220Y018402D01*
X012192Y018418D01*
X012167Y018438D01*
X012144Y018460D01*
X012124Y018485D01*
X012107Y018512D01*
X012094Y018541D01*
X012084Y018572D01*
X012078Y018603D01*
X012076Y018635D01*
X014597Y017631D02*
X014599Y017681D01*
X014605Y017731D01*
X014615Y017780D01*
X014628Y017829D01*
X014646Y017876D01*
X014667Y017922D01*
X014691Y017965D01*
X014719Y018007D01*
X014750Y018047D01*
X014784Y018084D01*
X014821Y018118D01*
X014861Y018149D01*
X014903Y018177D01*
X014946Y018201D01*
X014992Y018222D01*
X015039Y018240D01*
X015088Y018253D01*
X015137Y018263D01*
X015187Y018269D01*
X015237Y018271D01*
X015287Y018269D01*
X015337Y018263D01*
X015386Y018253D01*
X015435Y018240D01*
X015482Y018222D01*
X015528Y018201D01*
X015571Y018177D01*
X015613Y018149D01*
X015653Y018118D01*
X015690Y018084D01*
X015724Y018047D01*
X015755Y018007D01*
X015783Y017965D01*
X015807Y017922D01*
X015828Y017876D01*
X015846Y017829D01*
X015859Y017780D01*
X015869Y017731D01*
X015875Y017681D01*
X015877Y017631D01*
X015875Y017581D01*
X015869Y017531D01*
X015859Y017482D01*
X015846Y017433D01*
X015828Y017386D01*
X015807Y017340D01*
X015783Y017297D01*
X015755Y017255D01*
X015724Y017215D01*
X015690Y017178D01*
X015653Y017144D01*
X015613Y017113D01*
X015571Y017085D01*
X015528Y017061D01*
X015482Y017040D01*
X015435Y017022D01*
X015386Y017009D01*
X015337Y016999D01*
X015287Y016993D01*
X015237Y016991D01*
X015187Y016993D01*
X015137Y016999D01*
X015088Y017009D01*
X015039Y017022D01*
X014992Y017040D01*
X014946Y017061D01*
X014903Y017085D01*
X014861Y017113D01*
X014821Y017144D01*
X014784Y017178D01*
X014750Y017215D01*
X014719Y017255D01*
X014691Y017297D01*
X014667Y017340D01*
X014646Y017386D01*
X014628Y017433D01*
X014615Y017482D01*
X014605Y017531D01*
X014599Y017581D01*
X014597Y017631D01*
X018597Y017631D02*
X018599Y017681D01*
X018605Y017731D01*
X018615Y017780D01*
X018628Y017829D01*
X018646Y017876D01*
X018667Y017922D01*
X018691Y017965D01*
X018719Y018007D01*
X018750Y018047D01*
X018784Y018084D01*
X018821Y018118D01*
X018861Y018149D01*
X018903Y018177D01*
X018946Y018201D01*
X018992Y018222D01*
X019039Y018240D01*
X019088Y018253D01*
X019137Y018263D01*
X019187Y018269D01*
X019237Y018271D01*
X019287Y018269D01*
X019337Y018263D01*
X019386Y018253D01*
X019435Y018240D01*
X019482Y018222D01*
X019528Y018201D01*
X019571Y018177D01*
X019613Y018149D01*
X019653Y018118D01*
X019690Y018084D01*
X019724Y018047D01*
X019755Y018007D01*
X019783Y017965D01*
X019807Y017922D01*
X019828Y017876D01*
X019846Y017829D01*
X019859Y017780D01*
X019869Y017731D01*
X019875Y017681D01*
X019877Y017631D01*
X019875Y017581D01*
X019869Y017531D01*
X019859Y017482D01*
X019846Y017433D01*
X019828Y017386D01*
X019807Y017340D01*
X019783Y017297D01*
X019755Y017255D01*
X019724Y017215D01*
X019690Y017178D01*
X019653Y017144D01*
X019613Y017113D01*
X019571Y017085D01*
X019528Y017061D01*
X019482Y017040D01*
X019435Y017022D01*
X019386Y017009D01*
X019337Y016999D01*
X019287Y016993D01*
X019237Y016991D01*
X019187Y016993D01*
X019137Y016999D01*
X019088Y017009D01*
X019039Y017022D01*
X018992Y017040D01*
X018946Y017061D01*
X018903Y017085D01*
X018861Y017113D01*
X018821Y017144D01*
X018784Y017178D01*
X018750Y017215D01*
X018719Y017255D01*
X018691Y017297D01*
X018667Y017340D01*
X018646Y017386D01*
X018628Y017433D01*
X018615Y017482D01*
X018605Y017531D01*
X018599Y017581D01*
X018597Y017631D01*
M02*
