%FSLAX23Y23*%
%MOIN*%
G70*
G01*
G75*
G04 Layer_Physical_Order=1*
G04 Layer_Color=255*
%ADD10R,0.020X0.020*%
%ADD11R,0.020X0.020*%
%ADD12R,0.022X0.057*%
%ADD13R,0.022X0.057*%
%ADD14R,0.055X0.039*%
%ADD15R,0.079X0.043*%
%ADD16R,0.031X0.031*%
%ADD17R,0.059X0.098*%
%ADD18R,0.098X0.059*%
%ADD19R,0.039X0.055*%
G04:AMPARAMS|DCode=20|XSize=142mil|YSize=79mil|CornerRadius=4mil|HoleSize=0mil|Usage=FLASHONLY|Rotation=180.000|XOffset=0mil|YOffset=0mil|HoleType=Round|Shape=RoundedRectangle|*
%AMROUNDEDRECTD20*
21,1,0.142,0.071,0,0,180.0*
21,1,0.134,0.079,0,0,180.0*
1,1,0.008,-0.067,0.035*
1,1,0.008,0.067,0.035*
1,1,0.008,0.067,-0.035*
1,1,0.008,-0.067,-0.035*
%
%ADD20ROUNDEDRECTD20*%
%ADD21R,0.020X0.014*%
%ADD22R,0.014X0.020*%
%ADD23R,0.057X0.018*%
%ADD24R,0.071X0.045*%
%ADD25C,0.020*%
%ADD26R,0.020X0.063*%
%ADD27R,0.083X0.114*%
%ADD28R,0.051X0.039*%
%ADD29R,0.055X0.024*%
%ADD30R,0.071X0.024*%
G04:AMPARAMS|DCode=31|XSize=75mil|YSize=126mil|CornerRadius=0mil|HoleSize=0mil|Usage=FLASHONLY|Rotation=90.000|XOffset=0mil|YOffset=0mil|HoleType=Round|Shape=Octagon|*
%AMOCTAGOND31*
4,1,8,-0.063,-0.019,-0.063,0.019,-0.044,0.037,0.044,0.037,0.063,0.019,0.063,-0.019,0.044,-0.037,-0.044,-0.037,-0.063,-0.019,0.0*
%
%ADD31OCTAGOND31*%

%ADD32R,0.017X0.050*%
%ADD33R,0.050X0.017*%
%ADD34R,0.087X0.024*%
G04:AMPARAMS|DCode=35|XSize=12mil|YSize=71mil|CornerRadius=0mil|HoleSize=0mil|Usage=FLASHONLY|Rotation=315.000|XOffset=0mil|YOffset=0mil|HoleType=Round|Shape=Round|*
%AMOVALD35*
21,1,0.059,0.012,0.000,0.000,45.0*
1,1,0.012,-0.021,-0.021*
1,1,0.012,0.021,0.021*
%
%ADD35OVALD35*%

G04:AMPARAMS|DCode=36|XSize=12mil|YSize=71mil|CornerRadius=0mil|HoleSize=0mil|Usage=FLASHONLY|Rotation=45.000|XOffset=0mil|YOffset=0mil|HoleType=Round|Shape=Round|*
%AMOVALD36*
21,1,0.059,0.012,0.000,0.000,135.0*
1,1,0.012,0.021,-0.021*
1,1,0.012,-0.021,0.021*
%
%ADD36OVALD36*%

%ADD37R,0.018X0.037*%
%ADD38R,0.037X0.018*%
G04:AMPARAMS|DCode=39|XSize=228mil|YSize=252mil|CornerRadius=17mil|HoleSize=0mil|Usage=FLASHONLY|Rotation=0.000|XOffset=0mil|YOffset=0mil|HoleType=Round|Shape=RoundedRectangle|*
%AMROUNDEDRECTD39*
21,1,0.228,0.218,0,0,0.0*
21,1,0.194,0.252,0,0,0.0*
1,1,0.034,0.097,-0.109*
1,1,0.034,-0.097,-0.109*
1,1,0.034,-0.097,0.109*
1,1,0.034,0.097,0.109*
%
%ADD39ROUNDEDRECTD39*%
G04:AMPARAMS|DCode=40|XSize=47mil|YSize=87mil|CornerRadius=4mil|HoleSize=0mil|Usage=FLASHONLY|Rotation=0.000|XOffset=0mil|YOffset=0mil|HoleType=Round|Shape=RoundedRectangle|*
%AMROUNDEDRECTD40*
21,1,0.047,0.080,0,0,0.0*
21,1,0.040,0.087,0,0,0.0*
1,1,0.007,0.020,-0.040*
1,1,0.007,-0.020,-0.040*
1,1,0.007,-0.020,0.040*
1,1,0.007,0.020,0.040*
%
%ADD40ROUNDEDRECTD40*%
%ADD41R,0.146X0.059*%
%ADD42R,0.059X0.146*%
G04:AMPARAMS|DCode=43|XSize=95mil|YSize=130mil|CornerRadius=7mil|HoleSize=0mil|Usage=FLASHONLY|Rotation=90.000|XOffset=0mil|YOffset=0mil|HoleType=Round|Shape=RoundedRectangle|*
%AMROUNDEDRECTD43*
21,1,0.095,0.116,0,0,90.0*
21,1,0.081,0.130,0,0,90.0*
1,1,0.014,0.058,0.040*
1,1,0.014,0.058,-0.040*
1,1,0.014,-0.058,-0.040*
1,1,0.014,-0.058,0.040*
%
%ADD43ROUNDEDRECTD43*%
G04:AMPARAMS|DCode=44|XSize=26mil|YSize=69mil|CornerRadius=2mil|HoleSize=0mil|Usage=FLASHONLY|Rotation=180.000|XOffset=0mil|YOffset=0mil|HoleType=Round|Shape=RoundedRectangle|*
%AMROUNDEDRECTD44*
21,1,0.026,0.065,0,0,180.0*
21,1,0.022,0.069,0,0,180.0*
1,1,0.004,-0.011,0.033*
1,1,0.004,0.011,0.033*
1,1,0.004,0.011,-0.033*
1,1,0.004,-0.011,-0.033*
%
%ADD44ROUNDEDRECTD44*%
%ADD45R,0.039X0.125*%
G04:AMPARAMS|DCode=46|XSize=95mil|YSize=130mil|CornerRadius=7mil|HoleSize=0mil|Usage=FLASHONLY|Rotation=0.000|XOffset=0mil|YOffset=0mil|HoleType=Round|Shape=RoundedRectangle|*
%AMROUNDEDRECTD46*
21,1,0.095,0.116,0,0,0.0*
21,1,0.081,0.130,0,0,0.0*
1,1,0.014,0.040,-0.058*
1,1,0.014,-0.040,-0.058*
1,1,0.014,-0.040,0.058*
1,1,0.014,0.040,0.058*
%
%ADD46ROUNDEDRECTD46*%
G04:AMPARAMS|DCode=47|XSize=26mil|YSize=69mil|CornerRadius=2mil|HoleSize=0mil|Usage=FLASHONLY|Rotation=90.000|XOffset=0mil|YOffset=0mil|HoleType=Round|Shape=RoundedRectangle|*
%AMROUNDEDRECTD47*
21,1,0.026,0.065,0,0,90.0*
21,1,0.022,0.069,0,0,90.0*
1,1,0.004,0.033,0.011*
1,1,0.004,0.033,-0.011*
1,1,0.004,-0.033,-0.011*
1,1,0.004,-0.033,0.011*
%
%ADD47ROUNDEDRECTD47*%
%ADD48R,0.125X0.039*%
%ADD49R,0.051X0.079*%
%ADD50R,0.043X0.039*%
%ADD51R,0.057X0.022*%
%ADD52R,0.057X0.022*%
%ADD53R,0.051X0.043*%
%ADD54R,0.043X0.051*%
%ADD55R,0.050X0.012*%
%ADD56C,0.006*%
%ADD57C,0.012*%
%ADD58C,0.016*%
%ADD59C,0.020*%
%ADD60C,0.025*%
%ADD61C,0.030*%
%ADD62C,0.010*%
%ADD63C,0.043*%
%ADD64C,0.145*%
%ADD65C,0.079*%
%ADD66C,0.256*%
%ADD67C,0.118*%
%ADD68C,0.157*%
%ADD69C,0.055*%
%ADD70C,0.059*%
%ADD71C,0.018*%
G36*
X341Y-412D02*
X340Y-415D01*
X340Y-415D01*
X229D01*
X225Y-411D01*
X225Y-303D01*
X230Y-301D01*
X341Y-412D01*
D02*
G37*
G36*
X1168Y-837D02*
X819D01*
Y-746D01*
X647D01*
Y-503D01*
X1168D01*
Y-837D01*
D02*
G37*
G36*
X1594Y181D02*
X1556Y144D01*
X1553Y142D01*
X1551Y139D01*
X1397Y-15D01*
X1392Y-23D01*
X1391Y-32D01*
Y-215D01*
X1233D01*
D01*
X1233D01*
X1232Y-214D01*
Y23D01*
X1327Y118D01*
X1443D01*
X1452Y119D01*
X1460Y124D01*
X1534Y199D01*
X1594D01*
Y181D01*
D02*
G37*
G36*
X-657Y-271D02*
X-633D01*
X-632Y-272D01*
X-631Y-278D01*
X-627Y-284D01*
X-621Y-288D01*
X-615Y-289D01*
X-608Y-288D01*
X-603Y-284D01*
X-599Y-278D01*
X-597Y-272D01*
X-597Y-271D01*
X-555D01*
Y-396D01*
X-555Y-396D01*
X-559Y-401D01*
X-560Y-408D01*
X-559Y-415D01*
X-556Y-419D01*
X-559Y-423D01*
X-580D01*
Y-489D01*
X-580D01*
Y-490D01*
X-583Y-494D01*
X-599D01*
Y-489D01*
X-599D01*
Y-457D01*
X-598Y-456D01*
Y-426D01*
X-598Y-422D01*
X-599Y-417D01*
Y-375D01*
X-599Y-375D01*
X-599Y-375D01*
Y-374D01*
X-600Y-368D01*
X-603Y-362D01*
X-609Y-359D01*
X-615Y-358D01*
X-615Y-358D01*
X-616Y-358D01*
X-623Y-359D01*
X-628Y-363D01*
X-632Y-368D01*
X-633Y-375D01*
X-632Y-382D01*
X-631Y-383D01*
Y-402D01*
X-635Y-406D01*
X-640Y-405D01*
X-647Y-406D01*
X-652Y-410D01*
X-656Y-415D01*
X-657Y-422D01*
X-657Y-425D01*
Y-456D01*
X-657Y-457D01*
Y-463D01*
X-657Y-464D01*
X-660Y-464D01*
X-660Y-464D01*
Y-464D01*
X-676D01*
X-677Y-464D01*
X-690D01*
X-695Y-463D01*
X-702Y-464D01*
X-707Y-468D01*
X-711Y-473D01*
X-712Y-480D01*
X-711Y-487D01*
X-709Y-490D01*
X-711Y-494D01*
X-827D01*
Y-469D01*
X-817D01*
Y-467D01*
X-816D01*
X-813Y-467D01*
X-811Y-467D01*
X-804Y-466D01*
X-799Y-462D01*
X-795Y-457D01*
X-794Y-450D01*
X-795Y-443D01*
X-799Y-438D01*
X-804Y-434D01*
X-811Y-433D01*
X-813Y-433D01*
X-817Y-430D01*
Y-429D01*
X-827D01*
Y-351D01*
X-817D01*
Y-350D01*
X-816Y-349D01*
X-816D01*
Y-349D01*
D01*
D01*
D01*
X-810Y-348D01*
X-809Y-347D01*
X-807Y-347D01*
X-802Y-343D01*
X-798Y-338D01*
X-797Y-331D01*
X-798Y-324D01*
X-802Y-319D01*
X-807Y-315D01*
X-814Y-314D01*
X-817Y-312D01*
Y-311D01*
X-827D01*
Y-222D01*
X-824Y-219D01*
X-817Y-218D01*
X-812Y-214D01*
X-811Y-213D01*
X-657D01*
Y-271D01*
D02*
G37*
G36*
X-498Y-837D02*
X-847D01*
Y-746D01*
X-1019D01*
Y-503D01*
X-498D01*
Y-837D01*
D02*
G37*
G36*
X1299Y-848D02*
X1317Y-854D01*
X1335Y-863D01*
X1350Y-875D01*
X1362Y-890D01*
X1371Y-907D01*
X1377Y-926D01*
X1379Y-945D01*
X1377Y-965D01*
X1371Y-983D01*
X1362Y-1000D01*
X1351Y-1013D01*
X1348Y-1017D01*
X1335Y-1028D01*
X1317Y-1037D01*
X1299Y-1042D01*
X1280Y-1044D01*
X1260Y-1042D01*
X1242Y-1037D01*
X1225Y-1028D01*
X1210Y-1015D01*
X1197Y-1000D01*
X1188Y-983D01*
X1185Y-972D01*
X1185Y-919D01*
X1188Y-907D01*
X1197Y-890D01*
X1210Y-875D01*
X1225Y-863D01*
X1242Y-854D01*
X1260Y-848D01*
X1280Y-846D01*
X1299Y-848D01*
D02*
G37*
G36*
X614Y-837D02*
X265D01*
Y-746D01*
X93D01*
Y-503D01*
X614D01*
Y-837D01*
D02*
G37*
G36*
X58D02*
X-291D01*
Y-746D01*
X-463D01*
Y-503D01*
X58D01*
Y-837D01*
D02*
G37*
G36*
X1142Y58D02*
Y-127D01*
X1131Y-138D01*
X882D01*
Y19D01*
X1086D01*
X1095Y20D01*
X1103Y25D01*
X1103Y25D01*
X1103Y25D01*
X1137Y60D01*
X1142Y58D01*
D02*
G37*
G36*
X1732Y166D02*
X1751Y160D01*
X1768Y151D01*
X1783Y139D01*
X1795Y124D01*
X1804Y106D01*
X1810Y88D01*
X1812Y69D01*
X1810Y49D01*
X1804Y31D01*
X1795Y14D01*
X1783Y-1D01*
X1768Y-14D01*
X1751Y-23D01*
X1732Y-29D01*
X1713Y-30D01*
X1693Y-29D01*
X1675Y-23D01*
X1658Y-14D01*
X1643Y-1D01*
X1630Y14D01*
X1621Y31D01*
X1616Y49D01*
X1614Y69D01*
X1616Y88D01*
X1621Y106D01*
X1630Y124D01*
X1643Y139D01*
X1658Y151D01*
X1675Y160D01*
X1693Y166D01*
X1713Y168D01*
X1732Y166D01*
D02*
G37*
G36*
X-310Y-122D02*
X-304Y-125D01*
X-303Y-126D01*
Y-208D01*
X-307Y-211D01*
X-307Y-211D01*
X-311Y-215D01*
X-314Y-220D01*
X-315Y-225D01*
X-315Y-225D01*
Y-232D01*
X-320D01*
Y-305D01*
X-303D01*
Y-317D01*
X-357D01*
Y-323D01*
X-367D01*
Y-313D01*
X-403D01*
Y-323D01*
X-410D01*
X-410Y-322D01*
X-416Y-318D01*
X-423Y-317D01*
X-426Y-318D01*
X-430Y-315D01*
Y-299D01*
X-486D01*
Y-311D01*
X-490Y-313D01*
X-515Y-288D01*
X-513Y-283D01*
X-468D01*
Y-212D01*
X-523D01*
Y-273D01*
X-528Y-275D01*
X-547Y-256D01*
Y-205D01*
X-569D01*
Y-128D01*
X-551D01*
X-551Y-128D01*
X-547Y-127D01*
X-544Y-124D01*
X-539Y-120D01*
X-517D01*
X-516Y-124D01*
X-512Y-129D01*
X-507Y-133D01*
X-500Y-134D01*
X-493Y-133D01*
X-488Y-129D01*
X-484Y-124D01*
X-483Y-120D01*
X-311D01*
X-310Y-122D01*
D02*
G37*
G36*
X719Y71D02*
X704Y56D01*
X453D01*
X453Y56D01*
X448Y55D01*
X443Y52D01*
X388Y-3D01*
X229D01*
X226Y1D01*
X226Y76D01*
X717D01*
X719Y71D01*
D02*
G37*
G36*
X1186Y-156D02*
Y-250D01*
X1187Y-259D01*
X1188Y-260D01*
Y-276D01*
X1188Y-276D01*
X1190Y-284D01*
X1194Y-291D01*
X1243Y-339D01*
Y-344D01*
X1243Y-344D01*
Y-360D01*
X1240D01*
Y-360D01*
X1204D01*
Y-367D01*
X1197D01*
Y-343D01*
X1182D01*
Y-289D01*
X1129D01*
X1126Y-285D01*
X1127Y-279D01*
X1125Y-271D01*
X1121Y-264D01*
X1114Y-260D01*
X1106Y-258D01*
X1102D01*
Y-252D01*
X1065D01*
Y-240D01*
X1065Y-240D01*
X1063Y-232D01*
X1059Y-225D01*
X1059Y-225D01*
X1023Y-189D01*
X1025Y-184D01*
X1141D01*
X1150Y-183D01*
X1158Y-178D01*
X1158Y-178D01*
X1158Y-178D01*
X1181Y-154D01*
X1186Y-156D01*
D02*
G37*
G36*
X1082Y71D02*
X1076Y65D01*
X837D01*
X828Y64D01*
X827Y63D01*
X816D01*
X816Y63D01*
X808Y61D01*
X801Y57D01*
X801Y57D01*
X758Y13D01*
X753D01*
X753Y13D01*
X688D01*
X684Y12D01*
X681Y10D01*
X678Y7D01*
X678Y3D01*
Y-19D01*
X678Y-23D01*
X681Y-26D01*
X684Y-28D01*
X688Y-29D01*
X753D01*
X753Y-29D01*
X766D01*
X766Y-29D01*
X774Y-27D01*
X781Y-23D01*
X803Y-1D01*
X807Y-3D01*
Y-37D01*
X753D01*
X753Y-37D01*
X688D01*
X684Y-37D01*
X681Y-40D01*
X678Y-43D01*
X678Y-47D01*
Y-68D01*
X678Y-72D01*
X681Y-76D01*
X684Y-78D01*
X688Y-79D01*
X753D01*
X753Y-79D01*
X807D01*
Y-113D01*
X803Y-115D01*
X781Y-93D01*
X774Y-89D01*
X766Y-87D01*
X766Y-87D01*
X753D01*
X753Y-87D01*
X688D01*
X684Y-88D01*
X681Y-90D01*
X678Y-93D01*
X678Y-97D01*
Y-119D01*
X678Y-123D01*
X681Y-126D01*
X684Y-128D01*
X688Y-129D01*
X753D01*
X753Y-129D01*
X758D01*
X761Y-132D01*
X759Y-137D01*
X753D01*
X753Y-137D01*
X688D01*
X684Y-138D01*
X681Y-140D01*
X678Y-143D01*
X678Y-147D01*
Y-169D01*
X678Y-173D01*
X681Y-176D01*
X684Y-178D01*
X688Y-179D01*
X706D01*
Y-190D01*
X703D01*
Y-226D01*
X739D01*
Y-190D01*
X735D01*
Y-179D01*
X753D01*
X753Y-179D01*
X755D01*
X790Y-214D01*
X790Y-214D01*
X797Y-218D01*
X797Y-218D01*
X797Y-218D01*
D01*
X797Y-218D01*
X797Y-218D01*
X805Y-220D01*
X805Y-220D01*
X994D01*
X1022Y-248D01*
X1020Y-252D01*
X961D01*
Y-258D01*
X955D01*
X947Y-260D01*
X940Y-264D01*
X936Y-271D01*
X934Y-279D01*
X936Y-287D01*
X940Y-294D01*
X947Y-298D01*
X955Y-300D01*
X961D01*
Y-308D01*
X1010D01*
Y-313D01*
X1012Y-321D01*
X1016Y-328D01*
X1023Y-332D01*
X1031Y-334D01*
X1039Y-332D01*
X1046Y-328D01*
X1050Y-321D01*
X1052Y-313D01*
Y-308D01*
X1099D01*
X1100Y-312D01*
X1099Y-313D01*
X1099Y-313D01*
X1087Y-325D01*
X1084Y-329D01*
X1083Y-333D01*
X1083Y-333D01*
Y-343D01*
X1067D01*
Y-414D01*
X1082D01*
Y-456D01*
X1076Y-462D01*
X1071Y-462D01*
X1069Y-459D01*
X1064Y-455D01*
X1057Y-454D01*
X1050Y-455D01*
X1050Y-455D01*
X668D01*
Y-407D01*
X668D01*
Y-399D01*
X701D01*
Y-363D01*
X668D01*
Y-354D01*
X635D01*
Y-407D01*
X635D01*
Y-455D01*
X430D01*
X381Y-406D01*
X383Y-401D01*
X510D01*
Y-408D01*
X546D01*
Y-408D01*
X546D01*
X546Y-408D01*
X550D01*
Y-408D01*
X586D01*
Y-407D01*
X617D01*
Y-354D01*
X586D01*
Y-343D01*
D01*
Y-343D01*
X586Y-343D01*
Y-339D01*
D01*
X586Y-334D01*
X646D01*
X646Y-334D01*
X650Y-333D01*
X654Y-331D01*
X660Y-325D01*
X662Y-322D01*
X662Y-320D01*
X668D01*
Y-267D01*
X635D01*
Y-312D01*
X617D01*
Y-267D01*
X611D01*
Y-259D01*
X612Y-258D01*
X616Y-253D01*
X617Y-246D01*
X616Y-239D01*
X612Y-234D01*
X607Y-230D01*
X600Y-229D01*
X593Y-230D01*
X588Y-234D01*
X584Y-239D01*
X583Y-246D01*
X584Y-253D01*
X588Y-258D01*
X589Y-259D01*
Y-267D01*
X584D01*
Y-303D01*
X550D01*
Y-330D01*
X513D01*
X513Y-330D01*
X509Y-331D01*
X505Y-333D01*
X505Y-333D01*
X499Y-339D01*
X497Y-343D01*
X496Y-347D01*
X496Y-347D01*
Y-379D01*
X377D01*
X233Y-235D01*
Y-210D01*
X233Y-210D01*
X232Y-206D01*
X230Y-202D01*
X230Y-202D01*
X226Y-198D01*
X226Y-89D01*
X346D01*
X373Y-116D01*
X377Y-118D01*
X379Y-119D01*
Y-126D01*
X415D01*
Y-126D01*
X415D01*
X415Y-126D01*
X419D01*
Y-126D01*
X455D01*
Y-126D01*
X460Y-126D01*
X460Y-126D01*
X463Y-128D01*
X467Y-129D01*
X532D01*
X536Y-128D01*
X539Y-126D01*
X542Y-123D01*
X542Y-119D01*
Y-97D01*
X542Y-93D01*
X539Y-90D01*
X536Y-88D01*
X532Y-87D01*
X467D01*
X463Y-88D01*
X460Y-90D01*
X460Y-90D01*
X455Y-90D01*
Y-90D01*
X419D01*
D01*
D01*
X419Y-90D01*
X415D01*
Y-90D01*
X379D01*
X379Y-90D01*
Y-90D01*
X379Y-90D01*
X359Y-70D01*
X359Y-69D01*
X379D01*
Y-76D01*
X415D01*
Y-76D01*
X415D01*
X415Y-76D01*
X419D01*
Y-76D01*
X455D01*
Y-76D01*
X460Y-76D01*
X460Y-76D01*
X463Y-78D01*
X467Y-79D01*
X532D01*
X536Y-78D01*
X539Y-76D01*
X542Y-73D01*
X542Y-69D01*
Y-47D01*
X542Y-43D01*
X539Y-40D01*
X536Y-38D01*
X532Y-37D01*
X467D01*
X463Y-38D01*
X460Y-40D01*
X460Y-40D01*
X455Y-40D01*
Y-40D01*
X419D01*
D01*
D01*
X419Y-40D01*
X415D01*
Y-40D01*
X379D01*
Y-47D01*
X229D01*
X226Y-43D01*
X226Y-31D01*
X394D01*
X394Y-31D01*
X399Y-30D01*
X404Y-27D01*
X459Y28D01*
X710D01*
X710Y28D01*
X715Y29D01*
X720Y32D01*
X762Y74D01*
X762Y74D01*
X763Y76D01*
X1080D01*
X1082Y71D01*
D02*
G37*
G36*
X1601Y115D02*
X1597Y106D01*
X1593Y88D01*
X1591Y69D01*
X1593Y50D01*
X1597Y31D01*
X1605Y13D01*
X1614Y-3D01*
X1627Y-17D01*
X1641Y-30D01*
X1658Y-40D01*
X1675Y-47D01*
X1694Y-51D01*
X1713Y-53D01*
X1732Y-51D01*
X1750Y-47D01*
X1768Y-40D01*
X1784Y-30D01*
X1799Y-17D01*
X1811Y-3D01*
X1821Y13D01*
X1827Y28D01*
X1832Y27D01*
Y-533D01*
X1405Y-960D01*
X1400Y-958D01*
X1401Y-945D01*
X1399Y-926D01*
X1395Y-908D01*
X1388Y-890D01*
X1378Y-874D01*
X1365Y-859D01*
X1351Y-847D01*
X1335Y-837D01*
X1317Y-830D01*
X1299Y-825D01*
X1280Y-824D01*
X1261Y-825D01*
X1242Y-830D01*
X1225Y-837D01*
X1208Y-847D01*
X1194Y-859D01*
X1189Y-865D01*
X1184Y-863D01*
X1184Y-495D01*
X1170D01*
X1168Y-495D01*
X1082D01*
X1080Y-490D01*
X1101Y-469D01*
X1101Y-469D01*
X1103Y-465D01*
X1104Y-461D01*
Y-414D01*
X1122D01*
Y-348D01*
X1142D01*
Y-414D01*
X1160D01*
X1162Y-419D01*
X1162Y-419D01*
X1161Y-426D01*
X1162Y-433D01*
X1166Y-438D01*
X1171Y-442D01*
X1178Y-443D01*
X1184Y-442D01*
X1185Y-442D01*
X1190Y-438D01*
X1194Y-433D01*
X1195Y-426D01*
X1194Y-419D01*
X1194Y-419D01*
X1196Y-414D01*
X1197D01*
Y-390D01*
X1204D01*
Y-396D01*
X1240D01*
D01*
X1240D01*
X1243Y-399D01*
Y-409D01*
X1244Y-413D01*
X1246Y-416D01*
X1249Y-419D01*
X1253Y-419D01*
X1275D01*
X1279Y-419D01*
X1282Y-416D01*
X1284Y-413D01*
X1285Y-409D01*
Y-344D01*
X1285Y-344D01*
Y-331D01*
X1285Y-331D01*
X1285Y-331D01*
Y-331D01*
X1285D01*
X1285Y-331D01*
X1283Y-323D01*
X1281Y-320D01*
X1279Y-316D01*
X1279Y-316D01*
X1257Y-294D01*
X1259Y-290D01*
X1293D01*
Y-324D01*
Y-344D01*
X1293Y-344D01*
Y-409D01*
X1293Y-413D01*
X1296Y-416D01*
X1299Y-419D01*
X1303Y-419D01*
X1324D01*
X1328Y-419D01*
X1332Y-416D01*
X1334Y-413D01*
X1335Y-409D01*
Y-344D01*
X1335Y-344D01*
Y-324D01*
Y-290D01*
X1369D01*
X1371Y-294D01*
X1349Y-316D01*
X1345Y-323D01*
X1343Y-331D01*
X1343Y-331D01*
Y-344D01*
X1343Y-344D01*
Y-409D01*
X1344Y-413D01*
X1346Y-416D01*
X1349Y-419D01*
X1353Y-419D01*
X1375D01*
X1379Y-419D01*
X1382Y-416D01*
X1384Y-413D01*
X1385Y-409D01*
Y-344D01*
X1385Y-344D01*
Y-339D01*
X1388Y-336D01*
X1393Y-338D01*
Y-344D01*
X1393Y-344D01*
Y-409D01*
X1394Y-413D01*
X1396Y-416D01*
X1399Y-419D01*
X1403Y-419D01*
X1425D01*
X1429Y-419D01*
X1432Y-416D01*
X1434Y-413D01*
X1435Y-409D01*
Y-392D01*
X1445D01*
Y-395D01*
X1481D01*
Y-359D01*
X1445D01*
Y-363D01*
X1435D01*
Y-344D01*
X1435Y-344D01*
Y-342D01*
X1470Y-307D01*
X1470Y-307D01*
X1474Y-300D01*
X1474Y-300D01*
X1474Y-300D01*
X1476Y-292D01*
X1476Y-292D01*
Y-103D01*
X1504Y-75D01*
X1508Y-77D01*
Y-139D01*
X1515D01*
Y-144D01*
X1517Y-152D01*
X1521Y-159D01*
X1528Y-163D01*
X1536Y-165D01*
X1544Y-163D01*
X1551Y-159D01*
X1555Y-152D01*
X1557Y-144D01*
Y-139D01*
X1564D01*
Y-90D01*
X1570D01*
X1578Y-88D01*
X1585Y-84D01*
X1589Y-77D01*
X1591Y-69D01*
X1589Y-61D01*
X1585Y-54D01*
X1578Y-50D01*
X1570Y-48D01*
X1564D01*
Y2D01*
X1557D01*
Y8D01*
X1555Y16D01*
X1551Y23D01*
X1544Y27D01*
X1536Y29D01*
X1528Y27D01*
X1521Y23D01*
X1517Y16D01*
X1515Y8D01*
Y2D01*
X1508D01*
Y-32D01*
X1496D01*
X1496Y-32D01*
X1488Y-34D01*
X1481Y-38D01*
X1481Y-38D01*
X1442Y-77D01*
X1437Y-75D01*
Y-42D01*
X1587Y107D01*
X1597Y118D01*
X1601Y115D01*
D02*
G37*
%LPC*%
G36*
X1325Y-555D02*
X1303D01*
X1299Y-555D01*
X1296Y-558D01*
X1294Y-561D01*
X1293Y-565D01*
Y-630D01*
X1294Y-634D01*
X1296Y-637D01*
X1296Y-637D01*
X1296Y-642D01*
X1296D01*
Y-678D01*
X1296Y-678D01*
X1296Y-682D01*
X1296D01*
Y-718D01*
X1296D01*
X1297Y-718D01*
X1297Y-719D01*
X1298Y-726D01*
X1302Y-731D01*
X1307Y-735D01*
X1314Y-736D01*
X1321Y-735D01*
X1326Y-731D01*
X1330Y-726D01*
X1331Y-719D01*
X1331Y-718D01*
X1332Y-718D01*
X1332D01*
Y-682D01*
D01*
Y-682D01*
X1332Y-682D01*
Y-678D01*
X1332D01*
Y-642D01*
X1332D01*
X1332Y-637D01*
X1332Y-637D01*
X1334Y-634D01*
X1335Y-630D01*
Y-565D01*
X1334Y-561D01*
X1332Y-558D01*
X1329Y-555D01*
X1325Y-555D01*
D02*
G37*
G36*
X1529Y-748D02*
X1522Y-749D01*
X1516Y-753D01*
X1512Y-759D01*
X1511Y-766D01*
X1512Y-773D01*
X1516Y-779D01*
X1522Y-783D01*
X1529Y-784D01*
X1536Y-783D01*
X1542Y-779D01*
X1546Y-773D01*
X1547Y-766D01*
X1546Y-759D01*
X1542Y-753D01*
X1536Y-749D01*
X1529Y-748D01*
D02*
G37*
G36*
X1636Y-375D02*
X1630Y-377D01*
X1624Y-380D01*
X1620Y-386D01*
X1619Y-393D01*
X1620Y-395D01*
X1619Y-396D01*
X1619D01*
Y-429D01*
X1610D01*
Y-462D01*
X1663D01*
Y-429D01*
X1655D01*
Y-396D01*
X1655D01*
X1653Y-395D01*
X1654Y-393D01*
X1652Y-386D01*
X1649Y-380D01*
X1643Y-377D01*
X1636Y-375D01*
D02*
G37*
G36*
X532Y-137D02*
X467D01*
X463Y-138D01*
X460Y-140D01*
X460Y-140D01*
X456Y-140D01*
Y-140D01*
X420D01*
D01*
D01*
X420Y-140D01*
X416D01*
Y-140D01*
X380D01*
Y-140D01*
X379Y-141D01*
X377Y-141D01*
X370Y-142D01*
X365Y-146D01*
X361Y-151D01*
X360Y-158D01*
X361Y-165D01*
X365Y-170D01*
X370Y-174D01*
X377Y-175D01*
X379Y-175D01*
X380Y-176D01*
Y-176D01*
X416D01*
Y-176D01*
X416D01*
X416Y-176D01*
X420D01*
Y-176D01*
X426D01*
Y-181D01*
X420D01*
Y-217D01*
X456D01*
Y-181D01*
X449D01*
Y-176D01*
X456D01*
Y-176D01*
X460Y-176D01*
X460Y-176D01*
X463Y-178D01*
X467Y-179D01*
X532D01*
X536Y-178D01*
X539Y-176D01*
X542Y-173D01*
X542Y-169D01*
Y-147D01*
X542Y-143D01*
X539Y-140D01*
X536Y-138D01*
X532Y-137D01*
D02*
G37*
G36*
X-393Y-212D02*
X-448D01*
Y-283D01*
X-393D01*
Y-267D01*
X-391Y-265D01*
X-384Y-264D01*
X-378Y-260D01*
X-375Y-254D01*
X-373Y-248D01*
X-375Y-241D01*
X-378Y-235D01*
X-384Y-232D01*
X-391Y-230D01*
X-393Y-229D01*
Y-212D01*
D02*
G37*
G36*
X1576Y-429D02*
X1523D01*
Y-462D01*
X1568D01*
Y-480D01*
X1523D01*
Y-486D01*
X1515D01*
X1514Y-485D01*
X1509Y-481D01*
X1502Y-480D01*
X1495Y-481D01*
X1490Y-485D01*
X1486Y-490D01*
X1485Y-497D01*
X1486Y-504D01*
X1490Y-509D01*
X1495Y-513D01*
X1502Y-514D01*
X1509Y-513D01*
X1514Y-509D01*
X1515Y-508D01*
X1523D01*
Y-513D01*
X1543D01*
X1545Y-518D01*
X1542Y-522D01*
X1541Y-529D01*
X1542Y-536D01*
X1546Y-541D01*
X1551Y-545D01*
X1558Y-546D01*
X1559Y-546D01*
X1559Y-547D01*
Y-547D01*
X1586D01*
Y-584D01*
X1586Y-584D01*
X1587Y-588D01*
X1589Y-592D01*
X1595Y-598D01*
X1595Y-598D01*
X1599Y-600D01*
X1603Y-601D01*
X1603Y-601D01*
X1640D01*
X1640Y-601D01*
X1644Y-600D01*
X1648Y-598D01*
X1654Y-592D01*
X1654Y-592D01*
X1656Y-588D01*
X1656Y-588D01*
X1656Y-588D01*
X1657Y-587D01*
X1664D01*
Y-551D01*
D01*
Y-551D01*
X1664Y-551D01*
Y-547D01*
X1664D01*
Y-511D01*
X1663D01*
Y-480D01*
X1610D01*
Y-511D01*
X1599D01*
D01*
D01*
X1599Y-511D01*
X1595D01*
D01*
X1590Y-511D01*
Y-451D01*
X1590Y-451D01*
X1589Y-447D01*
X1587Y-443D01*
X1581Y-437D01*
X1578Y-435D01*
X1576Y-435D01*
Y-429D01*
D02*
G37*
G36*
X1375Y-555D02*
X1353D01*
X1349Y-555D01*
X1346Y-558D01*
X1344Y-561D01*
X1343Y-565D01*
Y-630D01*
X1344Y-634D01*
X1346Y-637D01*
X1346Y-637D01*
X1346Y-642D01*
X1346D01*
Y-678D01*
X1346Y-678D01*
X1346Y-682D01*
X1346D01*
Y-718D01*
X1346D01*
X1347Y-718D01*
X1347Y-719D01*
X1348Y-726D01*
X1352Y-731D01*
X1357Y-735D01*
X1364Y-736D01*
X1371Y-735D01*
X1376Y-731D01*
X1380Y-726D01*
X1381Y-719D01*
X1381Y-718D01*
X1382Y-718D01*
X1382D01*
Y-682D01*
D01*
Y-682D01*
X1382Y-682D01*
Y-678D01*
X1382D01*
Y-642D01*
X1382D01*
X1382Y-637D01*
X1382Y-637D01*
X1384Y-634D01*
X1385Y-630D01*
Y-565D01*
X1384Y-561D01*
X1382Y-558D01*
X1379Y-555D01*
X1375Y-555D01*
D02*
G37*
G36*
X1425D02*
X1403D01*
X1399Y-555D01*
X1396Y-558D01*
X1394Y-561D01*
X1393Y-565D01*
Y-630D01*
X1394Y-634D01*
X1396Y-637D01*
X1396Y-637D01*
X1396Y-641D01*
X1396D01*
Y-677D01*
X1396Y-677D01*
X1396Y-681D01*
X1396D01*
Y-717D01*
X1396D01*
X1397Y-718D01*
X1397Y-720D01*
X1398Y-727D01*
X1402Y-732D01*
X1407Y-736D01*
X1414Y-737D01*
X1421Y-736D01*
X1426Y-732D01*
X1430Y-727D01*
X1431Y-720D01*
X1431Y-718D01*
X1432Y-717D01*
X1432D01*
Y-681D01*
D01*
Y-681D01*
X1432Y-681D01*
Y-677D01*
X1432D01*
Y-671D01*
X1437D01*
Y-677D01*
X1473D01*
Y-641D01*
X1437D01*
Y-648D01*
X1432D01*
Y-641D01*
X1432D01*
X1432Y-637D01*
X1432Y-637D01*
X1434Y-634D01*
X1435Y-630D01*
Y-565D01*
X1434Y-561D01*
X1432Y-558D01*
X1429Y-555D01*
X1425Y-555D01*
D02*
G37*
G36*
X1469Y-528D02*
X1462Y-529D01*
X1457Y-533D01*
X1453Y-538D01*
X1452Y-545D01*
X1453Y-552D01*
X1457Y-557D01*
X1462Y-561D01*
X1469Y-562D01*
X1476Y-561D01*
X1481Y-557D01*
X1485Y-561D01*
X1481Y-566D01*
X1480Y-573D01*
X1481Y-580D01*
X1485Y-585D01*
X1490Y-589D01*
X1497Y-590D01*
X1504Y-589D01*
X1509Y-585D01*
X1513Y-580D01*
X1514Y-573D01*
X1513Y-566D01*
X1509Y-561D01*
X1504Y-557D01*
X1497Y-556D01*
X1490Y-557D01*
X1485Y-561D01*
X1481Y-557D01*
X1485Y-552D01*
X1486Y-545D01*
X1485Y-538D01*
X1481Y-533D01*
X1476Y-529D01*
X1469Y-528D01*
D02*
G37*
%LPD*%
D10*
X-892Y655D02*
D03*
Y695D02*
D03*
X-872Y283D02*
D03*
Y323D02*
D03*
X-124Y125D02*
D03*
Y165D02*
D03*
X-441Y140D02*
D03*
Y100D02*
D03*
X-518Y603D02*
D03*
Y563D02*
D03*
X-584Y603D02*
D03*
Y563D02*
D03*
X-551Y603D02*
D03*
Y563D02*
D03*
X-618Y603D02*
D03*
Y563D02*
D03*
X-1014Y589D02*
D03*
Y629D02*
D03*
X-953Y695D02*
D03*
Y655D02*
D03*
X-968Y283D02*
D03*
Y323D02*
D03*
X-1001D02*
D03*
Y283D02*
D03*
X-827Y695D02*
D03*
Y655D02*
D03*
X-860Y695D02*
D03*
Y655D02*
D03*
X-808Y283D02*
D03*
Y323D02*
D03*
X-840Y283D02*
D03*
Y323D02*
D03*
X-170Y-278D02*
D03*
Y-238D02*
D03*
X-828Y212D02*
D03*
Y172D02*
D03*
X226Y380D02*
D03*
Y420D02*
D03*
X262Y380D02*
D03*
Y420D02*
D03*
X91Y235D02*
D03*
Y195D02*
D03*
X-548Y186D02*
D03*
Y146D02*
D03*
X209Y195D02*
D03*
Y235D02*
D03*
X127Y195D02*
D03*
Y235D02*
D03*
X175Y195D02*
D03*
Y235D02*
D03*
X-1536Y690D02*
D03*
Y730D02*
D03*
X-615Y-189D02*
D03*
Y-149D02*
D03*
X-675Y-442D02*
D03*
Y-482D02*
D03*
X553Y-931D02*
D03*
Y-970D02*
D03*
X1107Y-931D02*
D03*
Y-970D02*
D03*
X-1108Y-889D02*
D03*
Y-929D02*
D03*
X-1263Y-633D02*
D03*
Y-593D02*
D03*
X-1403Y241D02*
D03*
Y281D02*
D03*
X-1778Y240D02*
D03*
Y280D02*
D03*
X-207Y-238D02*
D03*
Y-278D02*
D03*
X-1205Y590D02*
D03*
Y630D02*
D03*
X-1810Y185D02*
D03*
Y145D02*
D03*
X-1435Y186D02*
D03*
Y146D02*
D03*
X933Y-968D02*
D03*
Y-929D02*
D03*
X1007Y-969D02*
D03*
Y-930D02*
D03*
X379Y-968D02*
D03*
Y-929D02*
D03*
X453Y-969D02*
D03*
Y-930D02*
D03*
X-177Y-968D02*
D03*
Y-929D02*
D03*
X-103Y-969D02*
D03*
Y-930D02*
D03*
X-3Y-970D02*
D03*
Y-931D02*
D03*
X-733Y-968D02*
D03*
Y-929D02*
D03*
X-659Y-969D02*
D03*
Y-930D02*
D03*
X-559Y-970D02*
D03*
Y-931D02*
D03*
X1222Y-378D02*
D03*
Y-418D02*
D03*
X528Y-361D02*
D03*
Y-321D02*
D03*
X568Y-361D02*
D03*
Y-321D02*
D03*
X683Y-381D02*
D03*
Y-341D02*
D03*
X1646Y-569D02*
D03*
Y-529D02*
D03*
X1364Y-660D02*
D03*
Y-700D02*
D03*
X1314Y-660D02*
D03*
Y-700D02*
D03*
X1414Y-699D02*
D03*
Y-659D02*
D03*
X1455D02*
D03*
Y-699D02*
D03*
X-1777Y145D02*
D03*
Y185D02*
D03*
X-1403Y146D02*
D03*
Y186D02*
D03*
X-979Y715D02*
D03*
Y755D02*
D03*
X-1198Y715D02*
D03*
Y755D02*
D03*
X-1171Y630D02*
D03*
Y590D02*
D03*
X-1085Y475D02*
D03*
Y515D02*
D03*
X-1464Y-565D02*
D03*
Y-605D02*
D03*
X-1424Y-565D02*
D03*
Y-605D02*
D03*
X-1689Y416D02*
D03*
Y456D02*
D03*
X-1729Y457D02*
D03*
Y417D02*
D03*
X1463Y-417D02*
D03*
Y-377D02*
D03*
X-1067Y756D02*
D03*
Y716D02*
D03*
X-1104Y755D02*
D03*
Y715D02*
D03*
X-1151Y521D02*
D03*
Y481D02*
D03*
X-1741Y-448D02*
D03*
Y-408D02*
D03*
X-1775Y-448D02*
D03*
Y-408D02*
D03*
X-1810Y-407D02*
D03*
Y-447D02*
D03*
X-1589Y-572D02*
D03*
Y-612D02*
D03*
X-1540Y-573D02*
D03*
Y-613D02*
D03*
X-484Y563D02*
D03*
Y603D02*
D03*
X-415Y563D02*
D03*
Y603D02*
D03*
X-385Y-291D02*
D03*
Y-331D02*
D03*
X-1166Y715D02*
D03*
Y755D02*
D03*
X-1011Y715D02*
D03*
Y755D02*
D03*
X-684Y603D02*
D03*
Y563D02*
D03*
X-717Y603D02*
D03*
Y563D02*
D03*
X-651Y603D02*
D03*
Y563D02*
D03*
X-1599Y73D02*
D03*
Y33D02*
D03*
X-381Y563D02*
D03*
Y603D02*
D03*
X-1566Y-533D02*
D03*
Y-493D02*
D03*
X-312Y603D02*
D03*
Y563D02*
D03*
X-244D02*
D03*
Y603D02*
D03*
X-209Y563D02*
D03*
Y603D02*
D03*
X-175D02*
D03*
Y563D02*
D03*
X-141Y603D02*
D03*
Y563D02*
D03*
X-106D02*
D03*
Y603D02*
D03*
X-72Y563D02*
D03*
Y603D02*
D03*
X-3D02*
D03*
Y563D02*
D03*
X237Y603D02*
D03*
Y563D02*
D03*
X-450Y603D02*
D03*
Y563D02*
D03*
X-750Y603D02*
D03*
Y563D02*
D03*
X-278Y603D02*
D03*
Y563D02*
D03*
X-347D02*
D03*
Y603D02*
D03*
X-37D02*
D03*
Y563D02*
D03*
X31D02*
D03*
Y603D02*
D03*
X203D02*
D03*
Y563D02*
D03*
X100Y603D02*
D03*
Y563D02*
D03*
X66Y603D02*
D03*
Y563D02*
D03*
X306D02*
D03*
Y603D02*
D03*
X272Y563D02*
D03*
Y603D02*
D03*
X169Y563D02*
D03*
Y603D02*
D03*
X134Y563D02*
D03*
Y603D02*
D03*
X-903Y283D02*
D03*
Y323D02*
D03*
X-1388Y-605D02*
D03*
Y-565D02*
D03*
X-1350Y-564D02*
D03*
Y-604D02*
D03*
X-935Y283D02*
D03*
Y323D02*
D03*
X-1775Y-376D02*
D03*
Y-336D02*
D03*
X-1741Y-376D02*
D03*
Y-336D02*
D03*
X-1262Y33D02*
D03*
X-1262Y-7D02*
D03*
X-1220Y-8D02*
D03*
Y32D02*
D03*
X-1810Y-376D02*
D03*
Y-336D02*
D03*
X-1214Y-429D02*
D03*
Y-389D02*
D03*
X-876Y-66D02*
D03*
Y-106D02*
D03*
X-923Y655D02*
D03*
Y695D02*
D03*
D11*
X-734Y98D02*
D03*
X-774D02*
D03*
X-1213Y386D02*
D03*
X-1253D02*
D03*
X-1586Y136D02*
D03*
X-1626D02*
D03*
X-735Y49D02*
D03*
X-775D02*
D03*
X-1577Y659D02*
D03*
X-1617D02*
D03*
X-479Y188D02*
D03*
X-439D02*
D03*
X-672Y-69D02*
D03*
X-632D02*
D03*
X-446Y68D02*
D03*
X-486D02*
D03*
X-173Y246D02*
D03*
X-133D02*
D03*
X-735Y16D02*
D03*
X-775D02*
D03*
X144Y-251D02*
D03*
X104D02*
D03*
X113Y-481D02*
D03*
X153D02*
D03*
X-1340Y777D02*
D03*
X-1380D02*
D03*
X-1145Y-851D02*
D03*
X-1105D02*
D03*
X-1525Y374D02*
D03*
X-1485D02*
D03*
X-1111Y372D02*
D03*
X-1151D02*
D03*
X683Y-879D02*
D03*
X722D02*
D03*
X683Y-842D02*
D03*
X722D02*
D03*
X129Y-879D02*
D03*
X168D02*
D03*
X129Y-842D02*
D03*
X168D02*
D03*
X-427Y-879D02*
D03*
X-388D02*
D03*
X-427Y-842D02*
D03*
X-388D02*
D03*
X-983Y-879D02*
D03*
X-944D02*
D03*
X-983Y-842D02*
D03*
X-944D02*
D03*
X528Y-390D02*
D03*
X568D02*
D03*
X438Y-199D02*
D03*
X398D02*
D03*
Y-158D02*
D03*
X438D02*
D03*
X437Y-108D02*
D03*
X397D02*
D03*
X437Y-58D02*
D03*
X397D02*
D03*
X1637Y-414D02*
D03*
X1597D02*
D03*
X1617Y-529D02*
D03*
X1577D02*
D03*
X1617Y-569D02*
D03*
X1577D02*
D03*
X-1577Y695D02*
D03*
X-1617D02*
D03*
X-1577Y733D02*
D03*
X-1617D02*
D03*
Y774D02*
D03*
X-1577D02*
D03*
X-671Y-192D02*
D03*
X-711D02*
D03*
X681Y-208D02*
D03*
X721D02*
D03*
X-1689Y-5D02*
D03*
X-1649D02*
D03*
X-446Y36D02*
D03*
X-486D02*
D03*
X-438Y250D02*
D03*
X-478D02*
D03*
X-1617Y-452D02*
D03*
X-1657D02*
D03*
X-1649Y27D02*
D03*
X-1689D02*
D03*
X-1657Y-484D02*
D03*
X-1617D02*
D03*
X-671Y-158D02*
D03*
X-711D02*
D03*
D12*
X-616Y407D02*
D03*
X-579D02*
D03*
X-542D02*
D03*
Y323D02*
D03*
X-579D02*
D03*
X-338Y-269D02*
D03*
X-301D02*
D03*
X-264D02*
D03*
Y-353D02*
D03*
X-301D02*
D03*
X174Y322D02*
D03*
X137D02*
D03*
X100D02*
D03*
Y406D02*
D03*
X137D02*
D03*
X-436Y323D02*
D03*
X-399D02*
D03*
Y407D02*
D03*
X-436D02*
D03*
X-473D02*
D03*
X-150Y324D02*
D03*
X-113D02*
D03*
Y408D02*
D03*
X-150D02*
D03*
X-187D02*
D03*
X-48Y407D02*
D03*
X-11D02*
D03*
X26D02*
D03*
Y323D02*
D03*
X-11D02*
D03*
X-331Y407D02*
D03*
X-294D02*
D03*
X-257D02*
D03*
Y323D02*
D03*
X-294D02*
D03*
X-755Y407D02*
D03*
X-718D02*
D03*
X-681D02*
D03*
Y323D02*
D03*
X-718D02*
D03*
D13*
X-616Y323D02*
D03*
X-338Y-353D02*
D03*
X174Y406D02*
D03*
X-473Y323D02*
D03*
X-187Y324D02*
D03*
X-48Y323D02*
D03*
X-331D02*
D03*
X-755D02*
D03*
D14*
X36Y204D02*
D03*
X-50Y167D02*
D03*
Y241D02*
D03*
X-782Y-238D02*
D03*
X-868Y-275D02*
D03*
Y-201D02*
D03*
X-369Y-434D02*
D03*
X-455Y-471D02*
D03*
Y-397D02*
D03*
D15*
X-88Y-206D02*
D03*
X74Y-204D02*
D03*
D16*
X-13Y-206D02*
D03*
X149Y-204D02*
D03*
D17*
X754Y145D02*
D03*
X588D02*
D03*
D18*
X1753Y481D02*
D03*
Y315D02*
D03*
D19*
X-458Y-334D02*
D03*
X-495Y-248D02*
D03*
X-421D02*
D03*
X953Y112D02*
D03*
X916Y198D02*
D03*
X990D02*
D03*
X-752Y-70D02*
D03*
X-826D02*
D03*
X-789Y-156D02*
D03*
X-962Y-785D02*
D03*
X-888D02*
D03*
X-925Y-698D02*
D03*
X-406Y-785D02*
D03*
X-332D02*
D03*
X-369Y-698D02*
D03*
X150Y-785D02*
D03*
X224D02*
D03*
X187Y-698D02*
D03*
X704Y-785D02*
D03*
X778D02*
D03*
X741Y-698D02*
D03*
X1132Y-465D02*
D03*
X1095Y-379D02*
D03*
X1169D02*
D03*
X-538Y-166D02*
D03*
X-575Y-80D02*
D03*
X-501D02*
D03*
D20*
X-386Y-37D02*
D03*
Y-171D02*
D03*
D21*
X-858Y-967D02*
D03*
X-908Y-987D02*
D03*
Y-948D02*
D03*
X-302Y-967D02*
D03*
X-352Y-987D02*
D03*
Y-948D02*
D03*
X254Y-967D02*
D03*
X204Y-987D02*
D03*
Y-948D02*
D03*
X808Y-967D02*
D03*
X758Y-987D02*
D03*
Y-948D02*
D03*
X-1000Y-967D02*
D03*
X-950Y-948D02*
D03*
Y-987D02*
D03*
X-444Y-967D02*
D03*
X-394Y-948D02*
D03*
Y-987D02*
D03*
X112Y-967D02*
D03*
X162Y-948D02*
D03*
Y-987D02*
D03*
X666Y-967D02*
D03*
X716Y-948D02*
D03*
Y-987D02*
D03*
X-1814Y437D02*
D03*
X-1764Y457D02*
D03*
Y417D02*
D03*
X-1603Y436D02*
D03*
X-1653Y416D02*
D03*
Y456D02*
D03*
D22*
X-889Y-907D02*
D03*
X-909Y-856D02*
D03*
X-869D02*
D03*
X-333Y-907D02*
D03*
X-353Y-856D02*
D03*
X-313D02*
D03*
X223Y-907D02*
D03*
X203Y-856D02*
D03*
X243D02*
D03*
X777Y-907D02*
D03*
X757Y-856D02*
D03*
X797D02*
D03*
D23*
X-774Y192D02*
D03*
Y166D02*
D03*
Y141D02*
D03*
X-600Y217D02*
D03*
Y192D02*
D03*
Y166D02*
D03*
Y141D02*
D03*
X-774Y217D02*
D03*
D24*
X833Y214D02*
D03*
Y110D02*
D03*
D25*
X-1115Y-1000D02*
D03*
X1758Y673D02*
D03*
X1529Y-766D02*
D03*
D26*
X-1165Y833D02*
D03*
X-1134D02*
D03*
X-1102D02*
D03*
X-1071D02*
D03*
X-1039D02*
D03*
D27*
X-1268Y850D02*
D03*
X-937D02*
D03*
D28*
X-1183Y1010D02*
D03*
X-1022D02*
D03*
D29*
X-852Y-331D02*
D03*
Y-449D02*
D03*
D30*
X-844Y-390D02*
D03*
D31*
X-746D02*
D03*
D32*
X-564Y-238D02*
D03*
X-589D02*
D03*
X-615D02*
D03*
X-640D02*
D03*
X-564Y-456D02*
D03*
X-589D02*
D03*
X-615D02*
D03*
X-640D02*
D03*
X-980Y371D02*
D03*
X-954D02*
D03*
X-929D02*
D03*
X-903D02*
D03*
X-877D02*
D03*
X-852D02*
D03*
X-826D02*
D03*
X-980Y589D02*
D03*
X-954D02*
D03*
X-929D02*
D03*
X-903D02*
D03*
X-877D02*
D03*
X-852D02*
D03*
X-826D02*
D03*
D33*
X-173Y60D02*
D03*
Y86D02*
D03*
Y111D02*
D03*
Y137D02*
D03*
Y163D02*
D03*
Y188D02*
D03*
Y214D02*
D03*
X-391Y60D02*
D03*
Y86D02*
D03*
Y111D02*
D03*
Y137D02*
D03*
Y163D02*
D03*
Y188D02*
D03*
Y214D02*
D03*
D34*
X-74Y-344D02*
D03*
Y-394D02*
D03*
Y-444D02*
D03*
X130Y-294D02*
D03*
Y-344D02*
D03*
Y-394D02*
D03*
Y-444D02*
D03*
X-74Y-294D02*
D03*
X-1708Y335D02*
D03*
X-1504Y185D02*
D03*
Y235D02*
D03*
Y285D02*
D03*
Y335D02*
D03*
X-1708Y185D02*
D03*
Y235D02*
D03*
Y285D02*
D03*
X-1336Y286D02*
D03*
Y236D02*
D03*
Y186D02*
D03*
X-1132Y336D02*
D03*
Y286D02*
D03*
Y236D02*
D03*
Y186D02*
D03*
X-1336Y336D02*
D03*
D35*
X-1403Y45D02*
D03*
X-1389Y31D02*
D03*
X-1375Y17D02*
D03*
X-1361Y3D02*
D03*
X-1347Y-11D02*
D03*
X-1333Y-25D02*
D03*
X-1319Y-39D02*
D03*
X-1305Y-53D02*
D03*
X-1291Y-67D02*
D03*
X-1277Y-81D02*
D03*
X-1263Y-95D02*
D03*
X-1250Y-109D02*
D03*
X-1236Y-122D02*
D03*
X-1222Y-136D02*
D03*
X-1208Y-150D02*
D03*
X-1194Y-164D02*
D03*
X-1503Y-473D02*
D03*
X-1517Y-459D02*
D03*
X-1531Y-445D02*
D03*
X-1545Y-431D02*
D03*
X-1559Y-418D02*
D03*
X-1572Y-404D02*
D03*
X-1586Y-390D02*
D03*
X-1600Y-376D02*
D03*
X-1614Y-362D02*
D03*
X-1628Y-348D02*
D03*
X-1642Y-334D02*
D03*
X-1656Y-320D02*
D03*
X-1670Y-306D02*
D03*
X-1684Y-292D02*
D03*
X-1698Y-278D02*
D03*
X-1712Y-264D02*
D03*
D36*
X-1194D02*
D03*
X-1208Y-278D02*
D03*
X-1222Y-292D02*
D03*
X-1236Y-306D02*
D03*
X-1250Y-320D02*
D03*
X-1263Y-334D02*
D03*
X-1277Y-348D02*
D03*
X-1291Y-362D02*
D03*
X-1305Y-376D02*
D03*
X-1319Y-390D02*
D03*
X-1333Y-404D02*
D03*
X-1347Y-418D02*
D03*
X-1361Y-431D02*
D03*
X-1375Y-445D02*
D03*
X-1389Y-459D02*
D03*
X-1403Y-473D02*
D03*
X-1712Y-164D02*
D03*
X-1698Y-150D02*
D03*
X-1684Y-136D02*
D03*
X-1670Y-122D02*
D03*
X-1656Y-109D02*
D03*
X-1642Y-95D02*
D03*
X-1628Y-81D02*
D03*
X-1614Y-67D02*
D03*
X-1600Y-53D02*
D03*
X-1586Y-39D02*
D03*
X-1572Y-25D02*
D03*
X-1559Y-11D02*
D03*
X-1545Y3D02*
D03*
X-1531Y17D02*
D03*
X-1517Y31D02*
D03*
X-1503Y45D02*
D03*
D37*
X652Y-380D02*
D03*
X600D02*
D03*
X652Y-294D02*
D03*
X626D02*
D03*
X600D02*
D03*
D38*
X1636Y-445D02*
D03*
Y-497D02*
D03*
X1550Y-445D02*
D03*
Y-471D02*
D03*
Y-497D02*
D03*
D39*
X418Y-684D02*
D03*
X972D02*
D03*
X-694D02*
D03*
X-138D02*
D03*
D40*
X328Y-932D02*
D03*
X508D02*
D03*
X1062D02*
D03*
X882D02*
D03*
X-784D02*
D03*
X-604D02*
D03*
X-48D02*
D03*
X-228D02*
D03*
D41*
X1314Y-252D02*
D03*
Y-6D02*
D03*
D42*
X1091Y-58D02*
D03*
X845D02*
D03*
D43*
X1339Y-487D02*
D03*
D44*
X1314Y-597D02*
D03*
X1364D02*
D03*
X1414D02*
D03*
X1264Y-377D02*
D03*
X1314D02*
D03*
X1364D02*
D03*
X1414D02*
D03*
X1264Y-597D02*
D03*
D45*
X1536Y-305D02*
D03*
Y-69D02*
D03*
D46*
X610Y-83D02*
D03*
D47*
X500Y-58D02*
D03*
Y-108D02*
D03*
Y-158D02*
D03*
X720Y-8D02*
D03*
Y-58D02*
D03*
Y-108D02*
D03*
Y-158D02*
D03*
X500Y-8D02*
D03*
D48*
X1031Y-280D02*
D03*
X795D02*
D03*
D49*
X-1106Y-788D02*
D03*
Y-592D02*
D03*
X-1216D02*
D03*
Y-788D02*
D03*
D50*
X-1041Y448D02*
D03*
Y514D02*
D03*
D51*
X-560Y67D02*
D03*
Y30D02*
D03*
Y-7D02*
D03*
X-644D02*
D03*
Y30D02*
D03*
D52*
X-644Y67D02*
D03*
D53*
X242Y-385D02*
D03*
Y-463D02*
D03*
X-172Y-433D02*
D03*
Y-355D02*
D03*
X-927Y-373D02*
D03*
Y-451D02*
D03*
X-260Y-106D02*
D03*
Y-28D02*
D03*
X-184Y-105D02*
D03*
Y-27D02*
D03*
X1148Y-240D02*
D03*
Y-318D02*
D03*
D54*
X-185Y-178D02*
D03*
X-263D02*
D03*
X-1408Y507D02*
D03*
X-1330D02*
D03*
X-1099Y-63D02*
D03*
X-1177D02*
D03*
D55*
X-1483Y564D02*
D03*
X-1263D02*
D03*
Y590D02*
D03*
Y614D02*
D03*
Y640D02*
D03*
Y664D02*
D03*
Y689D02*
D03*
X-1483Y590D02*
D03*
Y614D02*
D03*
Y640D02*
D03*
Y664D02*
D03*
Y689D02*
D03*
Y715D02*
D03*
Y739D02*
D03*
X-1263Y715D02*
D03*
Y739D02*
D03*
D56*
X-1424Y-638D02*
X-1403Y-659D01*
X-1424Y-638D02*
Y-605D01*
X-1402Y-761D02*
X-1365Y-724D01*
X-1186Y236D02*
X-1132D01*
X-1559Y235D02*
X-1504D01*
X-1653Y416D02*
X-1631D01*
X-1784Y457D02*
X-1764D01*
X-1687Y535D02*
X-1625D01*
X-1603Y513D01*
Y436D02*
Y513D01*
X-1653Y456D02*
X-1652D01*
X-1689D02*
X-1653D01*
X-1764Y417D02*
X-1730D01*
X-1729Y-336D02*
X-1684Y-291D01*
X-1739Y-336D02*
X-1729D01*
X-1739D02*
X-1738Y-337D01*
X-1741Y-376D02*
X-1722D01*
X-1741Y-447D02*
X-1700D01*
X-1810D02*
X-1741D01*
Y-336D02*
X-1739D01*
X-1775D02*
X-1741D01*
X-1775Y-408D02*
X-1720D01*
X-1775Y-406D02*
Y-376D01*
X-1810Y-407D02*
Y-376D01*
X-1617Y-420D02*
X-1586Y-390D01*
X-1588Y-534D02*
X-1570D01*
X-1588Y-534D02*
X-1588Y-534D01*
X-876Y-127D02*
Y-106D01*
X1149Y-239D02*
Y-209D01*
X1148Y-240D02*
X1149Y-239D01*
X1107Y-321D02*
X1147D01*
X1095Y-333D02*
X1107Y-321D01*
X1095Y-379D02*
Y-333D01*
X1169Y-378D02*
X1222D01*
X1168D02*
X1169D01*
X1178Y-422D02*
Y-415D01*
X1169Y-406D02*
X1178Y-415D01*
X1169Y-406D02*
Y-379D01*
X1093Y-461D02*
Y-386D01*
X-1291Y-67D02*
X-1264Y-40D01*
X-1239Y32D02*
X-1220D01*
X-1305Y-53D02*
X-1248Y4D01*
X-1241Y3D02*
X-1230Y-8D01*
X-1220D01*
X-1649Y27D02*
Y30D01*
Y-5D02*
Y27D01*
X-1689Y-5D02*
Y21D01*
X-1248Y4D02*
X-1244D01*
X-1262Y33D02*
X-1241D01*
X-1403Y281D02*
Y301D01*
X-1778Y280D02*
Y301D01*
X-1525Y338D02*
X-1525Y338D01*
Y374D01*
X-1151Y340D02*
X-1150Y339D01*
X-1151Y340D02*
Y372D01*
X-1150Y371D01*
X-1111Y372D02*
X-1092D01*
X-1435Y146D02*
X-1404D01*
X-1435Y186D02*
Y205D01*
X-1403Y186D02*
Y205D01*
X-1401Y186D02*
X-1336D01*
X-1777Y185D02*
X-1708D01*
X-1810Y145D02*
X-1781D01*
X-1324Y-329D02*
X-1291Y-362D01*
X-1649Y-29D02*
Y-5D01*
X-1665Y-48D02*
X-1661D01*
X-1628Y-81D01*
X-1671Y-121D02*
X-1670Y-122D01*
X-1208Y-349D02*
Y-334D01*
X-1249Y-376D02*
X-1235D01*
X-1277Y-348D02*
X-1249Y-376D01*
X-1601Y31D02*
Y35D01*
Y31D02*
X-1559Y-11D01*
X-1512Y-58D02*
Y-58D01*
X-1559Y-11D02*
X-1512Y-58D01*
X-1526Y-71D02*
X-1526D01*
X-1572Y-25D02*
X-1526Y-71D01*
X-1405Y281D02*
X-1387D01*
X-1382Y286D01*
X-1336D01*
X-1775Y280D02*
X-1763D01*
X-1758Y285D01*
X-1708D01*
X-1085Y455D02*
Y475D01*
X-927Y-373D02*
Y-340D01*
X1169Y-379D02*
Y-378D01*
X1168Y-378D02*
X1168Y-378D01*
X1463Y-434D02*
Y-417D01*
X1460Y-437D02*
X1463Y-434D01*
X1458Y-437D02*
X1460D01*
X656Y-203D02*
X661Y-208D01*
X681D01*
X226Y420D02*
Y446D01*
X215Y421D02*
X225D01*
X201Y407D02*
X215Y421D01*
X201Y334D02*
Y407D01*
X231Y420D02*
X262D01*
X-1298Y590D02*
X-1257D01*
X-1534Y691D02*
X-1533Y689D01*
X-1483D01*
X-1536Y730D02*
Y749D01*
X-870Y414D02*
X-756D01*
X-551Y513D02*
Y563D01*
X-569Y536D02*
X-553D01*
X-618Y429D02*
Y563D01*
X-661Y539D02*
X-620D01*
X-684Y532D02*
Y563D01*
X-756Y460D02*
X-684Y532D01*
Y563D02*
X-654D01*
X-877Y560D02*
Y589D01*
X-756Y414D02*
Y460D01*
Y409D02*
Y414D01*
X-954Y589D02*
Y650D01*
X-1014Y629D02*
X-955D01*
X-892Y695D02*
X-860D01*
X-923D02*
X-892D01*
X-953D02*
X-923D01*
X-892D02*
Y714D01*
X-826Y589D02*
Y623D01*
X-826Y694D02*
X-815D01*
X-807Y686D01*
Y642D02*
Y686D01*
X-826Y623D02*
X-807Y642D01*
X-860Y654D02*
X-859Y655D01*
X-861Y639D02*
Y655D01*
X-859Y655D02*
X-827D01*
X-861Y639D02*
X-852Y630D01*
Y589D02*
Y630D01*
X-891Y640D02*
Y653D01*
Y640D02*
X-877Y626D01*
Y589D02*
Y626D01*
X-923Y637D02*
Y655D01*
X-929Y631D02*
X-923Y637D01*
X-1014Y589D02*
X-984D01*
X-789Y308D02*
Y351D01*
X-795Y302D02*
X-789Y308D01*
X-826Y372D02*
X-810D01*
X-789Y351D01*
X-834Y302D02*
X-795D01*
X-840Y296D02*
X-834Y302D01*
X-840Y283D02*
Y296D01*
X-808Y265D02*
Y283D01*
X-902D02*
X-872D01*
X-839Y324D02*
Y335D01*
X-852Y348D02*
X-839Y335D01*
X-852Y348D02*
Y371D01*
X-837Y324D02*
X-809D01*
X-808Y323D01*
X-935Y283D02*
X-903D01*
X-968Y327D02*
Y334D01*
X-954Y348D01*
Y371D01*
X-935Y325D02*
Y337D01*
X-929Y343D01*
Y371D01*
X-968Y283D02*
X-935D01*
X-718Y323D02*
Y407D01*
X-1667Y586D02*
X-1617Y636D01*
Y659D01*
X-1792Y636D02*
X-1749Y679D01*
X-1666D01*
X-1650Y695D01*
X-1617D01*
X-1795Y735D02*
X-1753Y693D01*
X-1674D01*
X-1634Y733D01*
X-1617D01*
X-1793Y836D02*
X-1741Y784D01*
X-1676D01*
X-1666Y774D01*
X-1617D01*
X-1108Y435D02*
X-1107Y436D01*
X-1108Y430D02*
Y435D01*
X100Y605D02*
Y629D01*
Y406D02*
Y448D01*
X87Y411D02*
X99D01*
X73Y397D02*
X87Y411D01*
X-189Y410D02*
Y451D01*
X-473Y420D02*
Y454D01*
X-473Y454D02*
Y517D01*
X-332Y454D02*
Y532D01*
X-347Y547D02*
X-332Y532D01*
X-347Y547D02*
Y563D01*
X-331Y453D02*
Y454D01*
Y407D02*
Y453D01*
X-332Y454D02*
X-331Y453D01*
X-331Y453D01*
X-189Y451D02*
Y528D01*
X-209Y548D02*
X-189Y528D01*
X-209Y548D02*
Y563D01*
X-48Y452D02*
Y502D01*
X-72Y526D02*
X-48Y502D01*
X-72Y526D02*
Y563D01*
X-48Y407D02*
Y409D01*
Y416D02*
X-48Y416D01*
X-399Y281D02*
Y323D01*
X-257Y281D02*
Y323D01*
X-113Y282D02*
Y324D01*
X26Y282D02*
Y323D01*
X238Y623D02*
Y624D01*
Y606D02*
Y623D01*
Y606D02*
X240Y604D01*
X280Y642D02*
X306Y616D01*
X204Y642D02*
X280D01*
X187Y659D02*
X204Y642D01*
X237Y603D02*
X272D01*
X100D02*
X134D01*
X100Y605D02*
X101Y604D01*
X-386Y-37D02*
X-304D01*
X-207Y-238D02*
Y-220D01*
X-564Y-444D02*
X-562Y-442D01*
X-564Y-456D02*
Y-444D01*
X-494Y-397D02*
X-455D01*
X-421Y-248D02*
X-391D01*
X-615Y-272D02*
Y-238D01*
X-204Y-277D02*
X-203Y-278D01*
X-170D01*
X-206Y-316D02*
Y-278D01*
X-243Y-353D02*
X-206Y-316D01*
X-264Y-353D02*
X-243D01*
X-671Y-191D02*
Y-158D01*
X-150Y282D02*
Y324D01*
X-717Y563D02*
X-714D01*
X-717Y561D02*
X-716Y562D01*
X-717Y534D02*
Y561D01*
X-661Y323D02*
X-650Y334D01*
X-681Y323D02*
X-661D01*
X-684Y563D02*
Y564D01*
X-639Y646D02*
Y675D01*
X-651Y634D02*
X-639Y646D01*
X-651Y603D02*
Y634D01*
X-717Y604D02*
Y624D01*
X-681Y660D01*
X-618Y563D02*
X-585D01*
X-540Y321D02*
X-522D01*
X-618Y429D02*
X-617Y428D01*
X-579Y323D02*
Y407D01*
Y284D02*
Y323D01*
X-718Y282D02*
Y323D01*
X-681Y716D02*
X-644Y753D01*
X-681Y660D02*
Y716D01*
X-602Y722D02*
X-564Y760D01*
X-602Y655D02*
Y722D01*
Y655D02*
X-584Y637D01*
Y603D02*
Y637D01*
X-558Y681D02*
X-518Y641D01*
Y603D02*
Y641D01*
X-551Y563D02*
X-519D01*
X-750D02*
X-717D01*
X721Y-877D02*
X722D01*
X720Y-875D02*
X721Y-877D01*
X722Y-878D02*
X722Y-878D01*
Y-877D01*
X663Y-842D02*
X683D01*
X722Y-877D02*
Y-842D01*
X1007Y-969D02*
Y-969D01*
X767Y-906D02*
X778D01*
X746Y-837D02*
X791D01*
X797Y-842D01*
X741D02*
X746Y-837D01*
X722Y-842D02*
X741D01*
X797Y-854D02*
Y-842D01*
X666Y-967D02*
Y-951D01*
X781Y-985D02*
Y-968D01*
X696Y-948D02*
X716D01*
X758Y-915D02*
X767Y-906D01*
X758Y-961D02*
Y-915D01*
X753Y-966D02*
X758Y-961D01*
X725Y-966D02*
X753D01*
X717Y-974D02*
X725Y-966D01*
X717Y-988D02*
Y-974D01*
X716Y-999D02*
Y-987D01*
Y-999D02*
X721Y-1003D01*
X1063Y-931D02*
Y-931D01*
X167Y-877D02*
X168D01*
X166Y-875D02*
X167Y-877D01*
X168Y-878D02*
X168Y-878D01*
Y-877D01*
X109Y-842D02*
X129D01*
X168Y-877D02*
Y-842D01*
X453Y-969D02*
Y-969D01*
X213Y-906D02*
X224D01*
X192Y-837D02*
X237D01*
X243Y-842D01*
X187D02*
X192Y-837D01*
X168Y-842D02*
X187D01*
X243Y-854D02*
Y-842D01*
X112Y-967D02*
Y-951D01*
X379Y-982D02*
Y-969D01*
X374Y-987D02*
X379Y-982D01*
X227Y-985D02*
Y-968D01*
X142Y-948D02*
X162D01*
X204Y-987D02*
X374D01*
X204Y-915D02*
X213Y-906D01*
X204Y-961D02*
Y-915D01*
X199Y-966D02*
X204Y-961D01*
X453Y-987D02*
Y-969D01*
X437Y-1003D02*
X453Y-987D01*
X171Y-966D02*
X199D01*
X163Y-974D02*
X171Y-966D01*
X163Y-988D02*
Y-974D01*
X167Y-1003D02*
X437D01*
X162Y-999D02*
Y-987D01*
Y-999D02*
X167Y-1003D01*
X509Y-931D02*
Y-931D01*
X-389Y-877D02*
X-388D01*
X-390Y-875D02*
X-389Y-877D01*
X-388Y-878D02*
X-388Y-878D01*
Y-877D01*
X-447Y-842D02*
X-427D01*
X-388Y-877D02*
Y-842D01*
X-103Y-969D02*
Y-969D01*
X-343Y-906D02*
X-332D01*
X-364Y-837D02*
X-319D01*
X-313Y-842D01*
X-369D02*
X-364Y-837D01*
X-388Y-842D02*
X-369D01*
X-313Y-854D02*
Y-842D01*
X-444Y-967D02*
Y-951D01*
X-177Y-982D02*
Y-969D01*
X-182Y-987D02*
X-177Y-982D01*
X-329Y-985D02*
Y-968D01*
X-414Y-948D02*
X-394D01*
X-352Y-987D02*
X-182D01*
X-352Y-915D02*
X-343Y-906D01*
X-352Y-961D02*
Y-915D01*
X-357Y-966D02*
X-352Y-961D01*
X-103Y-987D02*
Y-969D01*
X-119Y-1003D02*
X-103Y-987D01*
X-385Y-966D02*
X-357D01*
X-393Y-974D02*
X-385Y-966D01*
X-393Y-988D02*
Y-974D01*
X-389Y-1003D02*
X-119D01*
X-394Y-999D02*
Y-987D01*
Y-999D02*
X-389Y-1003D01*
X-47Y-931D02*
Y-931D01*
X-1000Y-967D02*
Y-951D01*
X-944Y-842D02*
X-925D01*
X-869Y-854D02*
Y-842D01*
X-875Y-837D02*
X-869Y-842D01*
X-920Y-837D02*
X-875D01*
X-925Y-842D02*
X-920Y-837D01*
X-908Y-987D02*
X-738D01*
X-970Y-948D02*
X-950D01*
X-885Y-985D02*
Y-968D01*
X-899Y-906D02*
X-888D01*
X-908Y-961D02*
Y-915D01*
X-949Y-988D02*
Y-974D01*
X-950Y-999D02*
Y-987D01*
X-949Y-974D02*
X-941Y-966D01*
X-913D01*
X-659Y-969D02*
Y-969D01*
Y-987D02*
Y-969D01*
X-675Y-1003D02*
X-659Y-987D01*
X-945Y-1003D02*
X-675D01*
X-950Y-999D02*
X-945Y-1003D01*
X-733Y-982D02*
Y-969D01*
X-738Y-987D02*
X-733Y-982D01*
X-908Y-915D02*
X-899Y-906D01*
X-913Y-966D02*
X-908Y-961D01*
X-945Y-877D02*
X-944D01*
Y-842D01*
Y-878D02*
Y-877D01*
X-946Y-875D02*
X-945Y-877D01*
X-944Y-878D02*
X-944Y-878D01*
X-1426Y-396D02*
Y-394D01*
Y-422D02*
Y-396D01*
X-1348Y-295D02*
X-1276D01*
X984Y-1034D02*
X986D01*
X-1276Y-295D02*
X-1253Y-318D01*
X-1291Y-307D02*
X-1267Y-331D01*
X-1312Y-198D02*
X-1309D01*
X-1310Y-113D02*
X-1277Y-81D01*
X-1310Y-168D02*
Y-113D01*
X-1401Y-170D02*
X-1400Y-171D01*
X-1456Y-322D02*
X-1442D01*
X-1517Y31D02*
X-1492Y6D01*
X-1410Y-148D02*
X-1410Y-148D01*
X528Y-390D02*
X529D01*
X-1288Y-438D02*
Y-421D01*
X-1366Y-371D02*
X-1333Y-404D01*
X-1417Y-148D02*
X-1410D01*
X-1426Y-422D02*
X-1389Y-459D01*
X-1445Y-351D02*
X-1441D01*
X-1406Y-414D02*
X-1375Y-445D01*
X-1319Y-390D02*
X-1288Y-421D01*
X-1427Y-158D02*
X-1417Y-148D01*
X652Y-380D02*
X683D01*
X-603Y-931D02*
Y-931D01*
X457Y-8D02*
X500D01*
X438Y-158D02*
X500D01*
X508D01*
X438Y-199D02*
Y-164D01*
X377Y-199D02*
X398D01*
X377Y-158D02*
X398D01*
X683Y-341D02*
X705D01*
X530Y-361D02*
X565D01*
X626Y-294D02*
Y-265D01*
X652Y-317D02*
Y-294D01*
X646Y-323D02*
X652Y-317D01*
X510Y-321D02*
X528D01*
X530D01*
X507Y-347D02*
X513Y-341D01*
X563D01*
X567Y-337D01*
Y-323D01*
X568Y-389D02*
Y-376D01*
Y-375D02*
Y-361D01*
Y-375D02*
X599D01*
X600Y-376D01*
X437Y-58D02*
X496D01*
X437Y-108D02*
X500D01*
X507D01*
X600Y-293D02*
Y-246D01*
X1502Y-497D02*
X1549D01*
X1597Y-414D02*
Y-392D01*
X1640Y-590D02*
X1646Y-584D01*
X1603Y-590D02*
X1640D01*
X1646Y-584D02*
Y-569D01*
X1597Y-584D02*
X1603Y-590D01*
X1597Y-584D02*
Y-534D01*
X1593Y-530D02*
X1597Y-534D01*
X1579Y-530D02*
X1593D01*
X1632Y-529D02*
X1645D01*
X1617D02*
X1631D01*
Y-498D01*
X1314Y-660D02*
Y-601D01*
X1364Y-660D02*
Y-597D01*
Y-590D01*
X1414Y-659D02*
Y-597D01*
Y-589D01*
X1631Y-498D02*
X1632Y-497D01*
X1573Y-445D02*
X1579Y-451D01*
X1550Y-445D02*
X1573D01*
X1521Y-471D02*
X1550D01*
X1617Y-567D02*
Y-532D01*
X1414Y-720D02*
Y-699D01*
X1420Y-659D02*
X1455D01*
Y-720D02*
Y-699D01*
X1577Y-587D02*
Y-569D01*
Y-567D01*
X567Y-323D02*
Y-320D01*
Y-323D02*
X646D01*
X-1071Y792D02*
Y833D01*
X-1102Y792D02*
Y833D01*
X-1003Y-842D02*
X-983D01*
X1314Y-719D02*
Y-700D01*
X1364Y-719D02*
Y-700D01*
X1559Y-529D02*
X1577D01*
X1576Y-530D02*
X1579D01*
Y-451D01*
X1264Y-640D02*
Y-597D01*
X507Y-388D02*
Y-347D01*
X381Y-108D02*
X397D01*
X-1531Y17D02*
X-1499Y-15D01*
X-1292Y-123D02*
X-1263Y-95D01*
X-1280Y-139D02*
X-1250Y-109D01*
X-1145Y-851D02*
X-1144Y-852D01*
Y-869D02*
Y-852D01*
X-1499Y-15D02*
X-1469D01*
X-1108Y-889D02*
X-1090D01*
X-1161Y-658D02*
X-1106Y-713D01*
X-1105Y-851D02*
Y-794D01*
X-1103Y-792D01*
X-1106Y-788D02*
Y-713D01*
X974Y-1044D02*
X984Y-1034D01*
X938Y-1032D02*
X944Y-1026D01*
X-989Y-1044D02*
X974D01*
X721Y-1003D02*
X907D01*
X758Y-987D02*
X906D01*
X924Y-969D01*
X932D01*
X988Y-970D02*
X1007D01*
X916Y-1019D02*
X923Y-1012D01*
X925D01*
X-978Y-1019D02*
X916D01*
X-984Y-1032D02*
X938D01*
X-1310Y-179D02*
X-1309D01*
X-1310Y-246D02*
X-1308D01*
X372Y-390D02*
X528D01*
X222Y-240D02*
X372Y-390D01*
X-615Y-238D02*
Y-190D01*
X-615Y-190D02*
X-615Y-190D01*
X-436Y284D02*
Y323D01*
Y407D01*
X-294Y282D02*
Y323D01*
Y407D01*
X-150Y324D02*
Y408D01*
X-11Y323D02*
Y407D01*
Y283D02*
Y323D01*
X-483Y603D02*
X-450D01*
X-484D02*
Y686D01*
Y602D02*
X-483Y603D01*
X-417Y603D02*
X-417Y603D01*
X-415D01*
X-381D01*
X-415D02*
Y632D01*
X-406Y641D01*
Y680D01*
X-345Y603D02*
X-312D01*
X-345Y603D02*
X-345Y603D01*
X-347D02*
Y639D01*
X-367Y659D02*
Y720D01*
X-402Y755D02*
X-367Y720D01*
Y659D02*
X-347Y639D01*
X-402Y755D02*
Y762D01*
X-285Y651D02*
X-279Y645D01*
X-285Y651D02*
Y722D01*
X-325Y762D02*
X-285Y722D01*
X-279Y603D02*
Y645D01*
Y603D02*
X-278D01*
X-244D01*
X-208D02*
X-175D01*
X-244Y762D02*
X-208Y726D01*
Y603D02*
Y726D01*
X-139Y603D02*
X-106D01*
X-140Y603D02*
X-139Y603D01*
X-140Y603D02*
Y654D01*
X-169Y683D02*
X-140Y654D01*
X-75Y603D02*
X-72Y605D01*
Y625D01*
X-87Y640D02*
X-72Y625D01*
X-105Y640D02*
X-87D01*
X-128Y663D02*
X-105Y640D01*
X-128Y663D02*
Y725D01*
X-163Y760D02*
X-128Y725D01*
X-75Y603D02*
X-72D01*
X-37D01*
X-2D02*
X31D01*
X-2Y603D02*
X-2Y603D01*
X-2Y603D02*
Y617D01*
X-49Y664D02*
X-2Y617D01*
X-87Y762D02*
X-49Y724D01*
Y664D02*
Y724D01*
X135Y603D02*
X136Y602D01*
X66Y603D02*
X100D01*
X134D02*
X135D01*
X272D02*
X272Y603D01*
X203Y603D02*
X237D01*
X272D02*
X272D01*
X140Y563D02*
X169D01*
X139Y562D02*
X140Y563D01*
X274D02*
X306D01*
X273Y564D02*
X274Y563D01*
X169Y603D02*
Y622D01*
X146Y645D02*
X169Y622D01*
X146Y645D02*
Y681D01*
X306Y603D02*
Y616D01*
X187Y659D02*
Y724D01*
X147Y764D02*
X187Y724D01*
X-485Y529D02*
X-473Y517D01*
X-485Y529D02*
Y563D01*
X-415Y514D02*
Y563D01*
Y514D02*
X-365Y464D01*
Y340D02*
Y464D01*
X-383Y322D02*
X-365Y340D01*
X-397Y322D02*
X-383D01*
X-278Y515D02*
Y563D01*
Y515D02*
X-224Y461D01*
X-237Y319D02*
X-224Y332D01*
X-254Y319D02*
X-237D01*
X-224Y332D02*
Y461D01*
X-141Y517D02*
Y563D01*
Y517D02*
X-81Y457D01*
Y337D02*
Y457D01*
X-94Y324D02*
X-81Y337D01*
X-110Y324D02*
X-94D01*
X-3Y525D02*
Y563D01*
Y525D02*
X61Y461D01*
Y338D02*
Y461D01*
X44Y321D02*
X61Y338D01*
X30Y321D02*
X44D01*
X127Y195D02*
Y195D01*
X125Y195D02*
X127D01*
X96Y235D02*
X127D01*
X-173Y214D02*
Y245D01*
Y188D02*
X-144D01*
X-131Y201D01*
Y242D01*
X-439Y188D02*
X-391D01*
X-413Y86D02*
X-391D01*
X-432Y67D02*
X-413Y86D01*
X-442Y67D02*
X-432D01*
X-734Y79D02*
Y98D01*
X-600Y141D02*
X-567D01*
X-561Y147D01*
X-810Y212D02*
X-805Y217D01*
X-828Y172D02*
X-812D01*
X-807Y167D01*
X-774D01*
X-735Y15D02*
Y47D01*
Y50D02*
X-715D01*
X-700Y65D01*
X-715Y193D02*
X-700Y178D01*
X-700Y166D02*
X-600D01*
X-774Y193D02*
X-715D01*
X-700Y65D02*
Y166D01*
Y178D01*
Y166D02*
X-700Y166D01*
X-775Y-3D02*
Y16D01*
X174Y322D02*
X189D01*
X201Y334D01*
X173Y321D02*
X176Y318D01*
X-96Y241D02*
X-50D01*
X-4Y204D02*
X36D01*
X172Y235D02*
X175D01*
X-131Y201D02*
X-24D01*
X-1032Y754D02*
X-1031Y755D01*
X-1483Y689D02*
X-1398D01*
X-1298Y590D01*
X-1198Y755D02*
X-1167D01*
X-1166Y754D02*
X-1165Y753D01*
X-1167Y755D02*
X-1166Y754D01*
X-1031Y755D02*
X-979D01*
X-1165Y755D02*
X-1143D01*
X-1071Y774D02*
Y792D01*
Y774D02*
X-1067Y770D01*
Y758D02*
Y770D01*
Y703D02*
Y716D01*
X-1104Y702D02*
Y715D01*
X-1105Y773D02*
X-1103Y775D01*
Y792D01*
X-1108Y430D02*
X-1107Y429D01*
X-1460Y-325D02*
X-1456Y-322D01*
X-1027Y715D02*
X-1013D01*
X-1263Y590D02*
X-1207D01*
X-1263Y614D02*
X-1235D01*
X-1220Y630D01*
X-1166Y671D02*
Y715D01*
X-1201Y630D02*
X-1171D01*
X-1220Y630D02*
X-1205D01*
X-1134Y794D02*
Y833D01*
X-1140Y788D02*
X-1134Y794D01*
X-1149Y618D02*
X-1144Y613D01*
X-1149Y618D02*
Y654D01*
X-1166Y671D02*
X-1149Y654D01*
X-1089Y561D02*
Y653D01*
X-1027Y715D01*
X-1617Y-425D02*
Y-420D01*
X-1617Y-452D02*
Y-426D01*
X-1700Y-447D02*
X-1615Y-362D01*
X-1001Y283D02*
Y294D01*
X-993Y302D01*
X-975D01*
X-969Y308D01*
Y322D01*
X-650Y334D02*
Y436D01*
X-1203Y-64D02*
X-1166D01*
X-1264Y-40D02*
X-1227D01*
X-1203Y-64D01*
X-1387Y33D02*
X-1311Y109D01*
X-1099Y-63D02*
Y-28D01*
X-1105Y32D02*
Y36D01*
X-767Y484D02*
X-718Y533D01*
X-928Y544D02*
Y593D01*
X-929Y589D02*
Y631D01*
X-826Y556D02*
X-826Y556D01*
X-826Y556D02*
Y589D01*
X-991Y370D02*
X-981D01*
X-873Y328D02*
Y339D01*
X-877Y343D02*
X-873Y339D01*
X-877Y343D02*
Y371D01*
X-903Y323D02*
Y409D01*
X-877Y371D02*
Y407D01*
X-870Y414D01*
X-929Y371D02*
Y435D01*
X-880Y484D01*
X-767D01*
X-928Y544D02*
X-903Y519D01*
X-763D01*
X-1146Y46D02*
X-1126D01*
X-1033Y338D02*
X-1022Y349D01*
X-1021Y315D02*
X-1013Y323D01*
X-1001D01*
Y360D01*
X-991Y370D01*
X-979Y429D02*
Y593D01*
X-1045Y363D02*
X-979Y429D01*
X-1105Y753D02*
Y773D01*
X-1231Y333D02*
Y350D01*
X-1214Y367D01*
Y382D01*
X-1253Y292D02*
Y386D01*
Y292D02*
X-1231Y270D01*
Y268D02*
Y270D01*
X-1161Y-658D02*
Y-548D01*
X-1305Y-375D02*
X-1274Y-406D01*
Y-435D02*
Y-406D01*
Y-435D02*
X-1161Y-548D01*
X-1288Y-438D02*
X-1215Y-511D01*
Y-591D02*
Y-511D01*
X-1266Y-593D02*
X-1263D01*
X-1217D01*
X-1214Y-389D02*
Y-371D01*
X-1235Y-376D02*
X-1222Y-363D01*
X-1208Y-349D01*
X-1236Y-306D02*
X-1208Y-334D01*
X-1222Y-363D02*
X-1214Y-371D01*
X-1236Y-178D02*
X-1209Y-151D01*
X-1250Y-209D02*
Y-165D01*
X-1222Y-137D01*
X-1220Y-135D01*
X-1222Y-137D02*
X-1221D01*
X-1424Y-605D02*
X-1388D01*
X-1385D01*
X-1365Y-724D02*
Y-636D01*
X-1350Y-621D01*
Y-604D01*
X-1698Y-278D02*
X-1672Y-253D01*
X-1415Y-215D02*
X-1414Y-216D01*
Y-217D02*
Y-216D01*
X-1712Y-264D02*
X-1680Y-233D01*
X-1438Y-437D02*
X-1405Y-470D01*
X-1445Y-379D02*
X-1444Y-378D01*
X-1445Y-379D02*
Y-378D01*
X-1450Y-442D02*
Y-415D01*
X-1469Y-413D02*
X-1465Y-418D01*
X-1388Y-565D02*
Y-545D01*
X-1439Y-471D02*
Y-454D01*
Y-471D02*
X-1392Y-518D01*
X-1380D01*
X-1351Y-547D01*
Y-562D02*
Y-547D01*
X-1450Y-442D02*
X-1439Y-454D01*
X-1424Y-565D02*
Y-520D01*
X-1465Y-564D02*
Y-418D01*
X-1447Y-497D02*
X-1424Y-520D01*
X-1442Y-322D02*
X-1347Y-417D01*
X-1441Y-351D02*
X-1361Y-431D01*
X-1600Y-53D02*
X-1562Y-91D01*
X-1505Y-52D02*
Y-37D01*
X-1545Y3D02*
X-1505Y-37D01*
X-1580Y-45D02*
X-1552Y-73D01*
X-1580Y-45D02*
Y-44D01*
X-1589Y-572D02*
X-1566D01*
X-1565Y-573D02*
X-1540D01*
X-1589Y-654D02*
Y-612D01*
X-1539Y-709D02*
X-1528D01*
Y-692D01*
X-1508Y-672D01*
Y-623D01*
X-1516Y-615D02*
X-1508Y-623D01*
X-1537Y-615D02*
X-1516D01*
X-1702Y-338D02*
X-1670Y-306D01*
X-1777Y9D02*
Y145D01*
X-1507Y-72D02*
X-1437D01*
X-1562Y-91D02*
X-1544D01*
X-1505Y-52D01*
X-1581Y73D02*
X-1581Y73D01*
X-1599Y73D02*
X-1581D01*
X177Y-423D02*
X180Y-426D01*
X-14Y-473D02*
X36Y-423D01*
X180Y-426D02*
X340D01*
X-562Y-442D02*
X-547D01*
X-392Y-473D02*
X-14D01*
X-432Y-433D02*
X-392Y-473D01*
X-518Y-433D02*
X-432D01*
X-543Y-408D02*
X-518Y-433D01*
X-1194Y-429D02*
X-1194Y-429D01*
X-1214Y-429D02*
X-1194D01*
X-1176Y-453D02*
X-1119Y-396D01*
X-1628Y-347D02*
X-1625D01*
X-1664Y-383D02*
X-1628Y-347D01*
X-1349Y-314D02*
X-1343Y-307D01*
X-1349Y-334D02*
Y-314D01*
X-1310Y-246D02*
X-1310Y-245D01*
X-1370Y-318D02*
X-1348Y-295D01*
X-1343Y-307D02*
X-1291D01*
X-1370Y-343D02*
Y-318D01*
X-1371Y-344D02*
X-1370Y-343D01*
X-1292Y-480D02*
Y-479D01*
X-1484Y-643D02*
X-1464Y-623D01*
Y-605D01*
X-1559Y235D02*
Y273D01*
X-1574Y288D02*
X-1559Y273D01*
X-1562Y436D02*
X-1513Y484D01*
X-1562Y293D02*
Y436D01*
Y293D02*
X-1554Y285D01*
X-1504D01*
X-1574Y288D02*
Y451D01*
X-1541Y484D01*
X-1263Y564D02*
X-1192D01*
X-1182Y554D01*
X-1156D01*
X-1170Y481D02*
X-1151D01*
X-1483Y564D02*
X-1322D01*
X-1298Y540D01*
X-1206D01*
X-1253Y386D02*
Y476D01*
X-49Y744D02*
Y787D01*
Y744D02*
X-27Y722D01*
X35D01*
X65Y692D01*
X-73Y815D02*
X22D01*
X69Y768D01*
X-1340Y667D02*
Y777D01*
Y667D02*
X-1313Y640D01*
X-1526Y664D02*
X-1483D01*
Y739D02*
X-1446D01*
X-1536Y542D02*
X-1493Y499D01*
X-1372Y-64D02*
X-1333Y-25D01*
X-1350Y-70D02*
X-1318Y-38D01*
X-1493Y430D02*
Y499D01*
X-1464Y459D02*
Y495D01*
X-1517Y-459D02*
X-1491Y-434D01*
X-1528Y-383D02*
Y-373D01*
X-1503Y-473D02*
X-1477Y-448D01*
X-1469Y-413D02*
Y-398D01*
X-1475Y-392D02*
X-1469Y-398D01*
X-1475Y-392D02*
Y-380D01*
X-1438Y-437D02*
Y-410D01*
X-1445Y-403D02*
X-1438Y-410D01*
X-1445Y-403D02*
Y-379D01*
X-1457Y-408D02*
Y-392D01*
Y-408D02*
X-1450Y-415D01*
X-1463Y-386D02*
Y-375D01*
Y-386D02*
X-1457Y-392D01*
X-1672Y-253D02*
X-1602D01*
X-1475Y-380D01*
X-1477Y-448D02*
Y-423D01*
X-1482Y-418D02*
X-1477Y-423D01*
X-1482Y-418D02*
Y-404D01*
X-1528Y-383D02*
X-1494Y-417D01*
Y-423D02*
Y-417D01*
Y-423D02*
X-1491Y-426D01*
Y-434D02*
Y-426D01*
X-1390Y336D02*
X-1336D01*
X-1695Y-74D02*
Y-73D01*
X-1777Y9D02*
X-1695Y-73D01*
X-1748Y8D02*
X-1693Y-47D01*
X-1748Y8D02*
Y144D01*
X-1769Y338D02*
X-1701D01*
X-1560Y113D02*
X-1558Y115D01*
X-1689Y-24D02*
Y-5D01*
Y-24D02*
X-1665Y-48D01*
X-1680Y-233D02*
X-1605D01*
X-1463Y-375D01*
X-1655Y-320D02*
Y-319D01*
X-1656Y-320D02*
X-1655Y-319D01*
X-1612Y-276D01*
X-1435Y111D02*
Y146D01*
X-1468Y78D02*
X-1435Y111D01*
X-1514Y78D02*
X-1468D01*
X-1477Y98D02*
Y154D01*
X-1648Y-33D02*
X-1614Y-67D01*
X-1492Y6D02*
X-1471D01*
X-1459Y18D01*
Y37D01*
X-1696Y96D02*
X-1694Y94D01*
X-1642Y96D02*
X-1603D01*
X-1607D02*
X-1603D01*
X-1532D01*
X-1514Y78D01*
X-438Y250D02*
X-203D01*
X-548Y146D02*
X-534D01*
X-561Y147D02*
X-548D01*
X-644Y67D02*
Y91D01*
X-440Y191D02*
Y202D01*
X-560Y67D02*
X-558Y69D01*
X-436Y223D02*
X-428Y215D01*
X-184Y-31D02*
Y2D01*
X-260Y-31D02*
Y4D01*
X88Y238D02*
X90Y236D01*
Y208D02*
X97Y215D01*
X90Y197D02*
Y208D01*
X226Y313D02*
Y380D01*
X-200Y247D02*
X-173D01*
X-290Y188D02*
X-249Y229D01*
X-4Y204D02*
X-3Y205D01*
X7Y170D02*
X66D01*
X-24Y201D02*
X7Y170D01*
X-381Y86D02*
X-352D01*
X1636Y-445D02*
Y-393D01*
X-1810Y-336D02*
Y113D01*
X-1829Y132D02*
X-1810Y113D01*
Y185D02*
Y207D01*
X-1793Y538D02*
X-1745Y586D01*
X-1667D01*
X-1798Y488D02*
X-1765D01*
X-1814Y437D02*
Y472D01*
X-1798Y488D01*
X-1829Y324D02*
X-1766Y387D01*
X-1765Y488D02*
X-1742Y511D01*
X-1829Y132D02*
Y324D01*
X-1770Y337D02*
X-1769Y338D01*
X-1745Y369D02*
X-1709Y405D01*
X-1657Y-481D02*
Y-452D01*
X-1617Y-481D02*
Y-452D01*
X-1604Y-510D02*
X-1592Y-498D01*
X-1737Y-480D02*
X-1707Y-510D01*
X-1604D01*
X-1545Y-434D02*
Y-431D01*
X-1585Y-444D02*
X-1559Y-418D01*
X-1585Y-449D02*
Y-444D01*
X-1591Y-455D02*
X-1585Y-449D01*
X-1592Y-498D02*
Y-481D01*
X-1584Y-473D01*
X-1566Y-481D02*
X-1531Y-445D01*
X-1566Y-490D02*
Y-481D01*
X-1709Y405D02*
Y450D01*
X-1716Y457D02*
X-1709Y450D01*
X-1729Y457D02*
X-1716D01*
X-1689Y396D02*
Y416D01*
X-1649Y113D02*
X-1560D01*
X-1729D02*
X-1705D01*
X-1763Y-159D02*
X-1716Y-206D01*
X-989Y-1044D02*
Y-1043D01*
X-1065Y-967D02*
X-989Y-1043D01*
X-1319Y-591D02*
Y-502D01*
X-1283Y-633D02*
X-1263D01*
X-1108Y-929D02*
X-1088D01*
X-1041Y-957D02*
X-978Y-1019D01*
X-1053Y-962D02*
X-984Y-1032D01*
X-1065Y-967D02*
Y-715D01*
X-1088Y-692D02*
X-1065Y-715D01*
X-1685Y-404D02*
Y-373D01*
X-1673Y-365D02*
X-1642Y-334D01*
X-1677Y-365D02*
X-1673D01*
X-1685Y-373D02*
X-1677Y-365D01*
X-1194Y-264D02*
X-1150Y-308D01*
X-650Y192D02*
X-600D01*
X-1041Y-957D02*
Y-358D01*
X-1208Y-281D02*
Y-278D01*
X-854Y188D02*
Y201D01*
X-844Y211D01*
X-828Y212D02*
X-810D01*
X-805Y217D02*
X-773D01*
X-774Y166D02*
X-725D01*
X-480Y33D02*
X-480D01*
X-1241Y158D02*
X-1225D01*
X-1282Y365D02*
Y487D01*
X-1301Y506D02*
X-1282Y487D01*
X-1329Y506D02*
X-1301D01*
X-1330Y507D02*
Y543D01*
X-1313Y640D02*
X-1312D01*
X-1257D01*
X90Y170D02*
Y195D01*
X351Y-78D02*
X381Y-108D01*
X137Y-16D02*
Y73D01*
X100Y110D02*
X137Y73D01*
X151Y-13D02*
Y92D01*
X-1417Y-126D02*
X-1406D01*
X-1419Y-215D02*
X-1415D01*
X-1414Y-196D02*
X-1401D01*
X-1437Y-195D02*
X-1433Y-199D01*
Y-200D02*
Y-199D01*
Y-200D02*
X-1419Y-215D01*
X-1427Y-183D02*
X-1414Y-196D01*
X-1382Y-206D02*
Y-150D01*
X-1376Y-226D02*
X-1370Y-220D01*
X-1394Y-218D02*
X-1382Y-206D01*
X-1394Y-244D02*
Y-218D01*
Y-244D02*
X-1372Y-266D01*
X-1269D01*
X-1232Y-229D01*
X-1121D02*
X-997D01*
X-954Y-186D01*
X-1406Y-126D02*
X-1382Y-150D01*
X-1222Y-292D02*
X-1183Y-331D01*
X-1309Y-198D02*
X-1292Y-181D01*
Y-123D01*
X-1190Y-209D02*
X-1041Y-358D01*
X-1183Y-331D02*
X-1135D01*
X-999Y-181D02*
X-966Y-148D01*
X-1175Y-181D02*
X-999D01*
X-1191Y-165D02*
X-1175Y-181D01*
X-48Y416D02*
Y452D01*
X-1503Y45D02*
X-1484Y63D01*
X-1313Y156D02*
X-1290D01*
X-1403Y45D02*
Y45D01*
X-1327Y121D01*
X-1420Y68D02*
Y74D01*
X-1439Y30D02*
X-1313Y156D01*
X-1428Y241D02*
X-1403D01*
X-1459Y210D02*
X-1428Y241D01*
X-1564Y210D02*
X-1459D01*
X-1698Y234D02*
X-1697Y233D01*
X-1652D01*
X-1689Y396D02*
X-1632Y339D01*
X-185Y-177D02*
X-154D01*
X222Y-240D02*
Y-210D01*
X-907Y-201D02*
X-868D01*
X-789Y-156D02*
Y-120D01*
X-312Y60D02*
X-173D01*
X-355Y17D02*
X-312Y60D01*
X-357Y17D02*
X-355D01*
X-592Y-27D02*
X-554D01*
X-597Y-22D02*
X-592Y-27D01*
X-597Y-22D02*
Y-18D01*
X-607Y-8D02*
X-597Y-18D01*
X-641Y-8D02*
X-607D01*
X-391Y188D02*
X-290D01*
X-264Y113D02*
X-237Y86D01*
X-213D01*
X-214Y86D02*
X-173D01*
X-407Y24D02*
X-378D01*
X-437Y36D02*
X-401D01*
X-391Y46D01*
Y60D01*
X-464Y163D02*
X-461Y160D01*
X-419Y11D02*
X-407Y24D01*
X-444Y33D02*
X-440D01*
X-538Y72D02*
Y92D01*
X-541Y69D02*
X-538Y72D01*
X-428Y215D02*
X-388D01*
X-560Y30D02*
X-528D01*
X-520Y38D01*
X-466Y27D02*
X-459Y34D01*
X-466Y22D02*
Y27D01*
X-442Y31D02*
X-440Y33D01*
X-458Y11D02*
X-419D01*
X-476Y34D02*
X-466Y44D01*
Y143D01*
X-463Y146D01*
Y157D01*
X-461Y160D01*
X-672Y-85D02*
X-641Y-116D01*
X-466Y-37D02*
X-386D01*
X-551Y-116D02*
X-537Y-102D01*
X-641Y-116D02*
X-551D01*
X-672Y-85D02*
Y-70D01*
Y-69D01*
X-752Y-70D02*
X-672D01*
X-669D01*
X-537Y-102D02*
Y-54D01*
X-459Y34D02*
X-446D01*
X-1191Y298D02*
Y454D01*
Y298D02*
X-1182Y289D01*
X-1124D01*
X-898Y260D02*
X-851D01*
X-841Y270D01*
Y283D01*
X218Y171D02*
X228Y182D01*
X262Y198D02*
Y380D01*
X193Y171D02*
X218D01*
X175Y235D02*
X209D01*
Y195D02*
Y210D01*
X204Y215D02*
X209Y210D01*
X179Y-167D02*
X222Y-210D01*
X178Y-166D02*
X179Y-167D01*
X199Y-78D02*
X351D01*
X196Y-58D02*
X397D01*
X-1105Y36D02*
X-1021Y120D01*
X-1044Y58D02*
X-1001Y101D01*
X-1126Y46D02*
X-1033Y139D01*
X-1001Y157D02*
X-898Y260D01*
X-1001Y101D02*
Y157D01*
X-935Y-220D02*
Y-39D01*
Y-220D02*
X-912Y-243D01*
X-820D01*
X-632Y-69D02*
Y-33D01*
X132Y159D02*
X133Y158D01*
X-537Y-54D02*
X-515Y-32D01*
X-489Y-1D02*
X-466Y22D01*
X-532Y130D02*
X-483D01*
X-520Y38D02*
Y89D01*
X-506Y104D01*
X-522Y321D02*
X-517Y326D01*
Y421D01*
X-600Y192D02*
X-567D01*
X-561Y186D01*
X-550D01*
X-508Y189D02*
Y191D01*
X-600Y217D02*
X-559D01*
X-534Y146D02*
X-527Y153D01*
Y227D01*
X175Y195D02*
X175Y195D01*
X127Y178D02*
Y195D01*
X133Y158D02*
X138Y153D01*
X191Y278D02*
X226Y313D01*
X223Y254D02*
X228Y248D01*
Y234D02*
Y248D01*
Y182D02*
Y234D01*
Y235D01*
X20Y-344D02*
Y-189D01*
X72Y-397D02*
X73D01*
X-1808Y250D02*
Y326D01*
X-1765Y369D01*
X-1745D01*
X-1586Y136D02*
X-1584Y138D01*
Y251D01*
X-1604Y271D02*
X-1584Y251D01*
X-1604Y271D02*
Y336D01*
X-1465Y374D02*
X-1465Y374D01*
X-1485Y374D02*
X-1465D01*
X-1249Y512D02*
X-1191Y454D01*
X-1130Y448D02*
X-1127Y451D01*
Y679D01*
X-1104Y702D01*
X-1107Y663D02*
X-1067Y703D01*
X-1107Y436D02*
Y663D01*
X-661Y538D02*
Y539D01*
X-877Y560D02*
X-853Y536D01*
X-774D01*
X-774Y536D01*
X-758D01*
X-758Y536D01*
X-746D01*
X-527Y227D02*
X-504Y250D01*
X-478D01*
X-518Y422D02*
X-517Y421D01*
X-518Y422D02*
Y480D01*
X-551Y513D02*
X-518Y480D01*
X137Y-16D02*
X158Y-37D01*
X151Y-13D02*
X163Y-25D01*
X164Y-37D02*
X174Y-47D01*
Y-53D02*
Y-47D01*
Y-53D02*
X199Y-78D01*
X169Y-25D02*
X186Y-42D01*
Y-48D02*
Y-42D01*
X158Y-37D02*
X164D01*
X163Y-25D02*
X169D01*
X186Y-48D02*
X196Y-58D01*
X-11Y-235D02*
Y-208D01*
X-10Y-207D01*
X340Y-426D02*
X405Y-491D01*
X1063D01*
X1093Y-461D01*
X168Y-156D02*
X169Y-157D01*
X28Y-166D02*
X38Y-156D01*
X64D01*
X68Y-152D01*
X164D02*
X169Y-157D01*
X68Y-152D02*
X164D01*
X169Y-157D02*
X179Y-167D01*
X138Y153D02*
X217D01*
X262Y198D01*
X89Y169D02*
X90Y170D01*
X66D02*
X71Y165D01*
Y161D02*
Y165D01*
Y161D02*
X81Y151D01*
X100D01*
X127Y178D01*
X73Y271D02*
Y397D01*
X137Y291D02*
X144Y284D01*
X137Y291D02*
Y322D01*
X191Y254D02*
X223D01*
X144Y284D02*
X161D01*
X175Y236D02*
Y253D01*
X127Y195D02*
X175D01*
X97Y215D02*
X204D01*
X-6Y238D02*
X88D01*
X139Y271D02*
X156D01*
X129Y261D02*
X139Y271D01*
X161Y284D02*
X191Y254D01*
X156Y271D02*
X175Y253D01*
X73Y271D02*
X83Y261D01*
X129D01*
X-378Y24D02*
X-282Y120D01*
Y121D01*
X-253Y150D01*
X-251D01*
X-464Y162D02*
Y163D01*
X-444Y205D02*
X-443D01*
X-440Y202D01*
X-492Y207D02*
X-446D01*
X-444Y205D01*
X-482Y72D02*
Y184D01*
Y72D02*
X-479Y68D01*
X-482Y184D02*
X-479Y188D01*
X-508Y191D02*
X-492Y207D01*
X-644Y30D02*
X-610D01*
X-603Y37D01*
Y92D01*
X-644Y91D02*
X-624Y111D01*
X-551D01*
X-532Y130D01*
X-935Y265D02*
Y283D01*
Y265D02*
X-934Y264D01*
X-1263Y203D02*
X-1198D01*
X-1264Y202D02*
X-1263Y203D01*
X-1694Y94D02*
X-1644D01*
X-1642Y96D01*
X-1650Y114D02*
X-1649Y113D01*
X-1722Y-376D02*
X-1722Y-376D01*
X-1570Y-400D02*
X-1547Y-377D01*
Y-342D01*
X-1560Y-329D02*
X-1547Y-342D01*
X-1292Y-541D02*
Y-480D01*
X-1236Y-191D02*
Y-178D01*
Y-191D02*
X-1053Y-374D01*
Y-962D02*
Y-374D01*
X-1150Y-308D02*
X-1148D01*
X-1150Y-308D02*
X-1150Y-308D01*
X-1208Y-278D02*
X-1176Y-310D01*
X-844Y211D02*
X-827D01*
X-1270Y-203D02*
X-1267Y-200D01*
Y-154D01*
X-1236Y-122D01*
X-1361Y3D02*
X-1294Y70D01*
X-1021Y120D02*
Y315D01*
X-1033Y139D02*
Y338D01*
X-1045Y162D02*
Y363D01*
X-1311Y109D02*
X-1253D01*
X-1327Y121D02*
X-1278D01*
X-1241Y158D01*
X-1347Y-11D02*
X-1183Y153D01*
X-1280Y87D02*
X-1279Y88D01*
X-1221D02*
X-1153Y156D01*
X-1184Y9D02*
Y35D01*
X-1303Y88D02*
X-1281D01*
X-1373Y18D02*
X-1303Y88D01*
X-1281D02*
X-1280Y87D01*
X-1484Y63D02*
X-1436D01*
X-1426Y73D01*
X-1425D01*
X-1420Y68D01*
X-1596Y-128D02*
X-1592D01*
X-1588Y-132D01*
X-1445D01*
X-1411Y-98D01*
X-1587Y-158D02*
X-1587Y-158D01*
X-1427D01*
X-1582Y-171D02*
X-1582Y-170D01*
X-1577Y-183D02*
X-1577Y-183D01*
X-1427D01*
X-1572Y-195D02*
X-1572Y-195D01*
X-1437D01*
X-1582Y-170D02*
X-1401D01*
X-1681Y-195D02*
X-1572D01*
X-1664Y-183D02*
X-1577D01*
X-1650Y-171D02*
X-1582D01*
X-1634Y-158D02*
X-1587D01*
X-1656Y-109D02*
X-1618Y-146D01*
X-1592D01*
X-1670Y-122D02*
X-1634Y-158D01*
X-1684Y-137D02*
X-1650Y-171D01*
X-1697Y-150D02*
X-1664Y-183D01*
X-1710Y-166D02*
X-1681Y-195D01*
X-1439Y-39D02*
Y30D01*
Y-39D02*
X-1370Y-108D01*
Y-220D02*
Y-108D01*
X944Y-1026D02*
X958D01*
X907Y-1003D02*
X918Y-992D01*
X966D01*
X988Y-970D01*
X-554Y-27D02*
X-545Y-36D01*
X-489Y-1D02*
X-488Y-2D01*
Y-3D02*
Y-2D01*
X-480Y-21D02*
X-470Y-11D01*
Y0D01*
X-458Y11D01*
X-514Y-7D02*
X-500Y-21D01*
X-480D01*
X-555Y-7D02*
X-514D01*
X-1657Y-452D02*
Y-431D01*
X-1638Y-412D01*
X-1637Y-411D01*
X-1640Y-416D02*
X-1600Y-376D01*
X-1573Y-461D02*
X-1549Y-437D01*
X-1194Y45D02*
X-1184Y35D01*
X-1194Y45D02*
Y61D01*
X-1185Y70D01*
X-1183Y153D02*
X-1183Y153D01*
X-1183Y153D02*
Y154D01*
X-1115Y116D02*
X-1094D01*
X-1093Y117D01*
X-1177Y54D02*
X-1115Y116D01*
X-1177Y53D02*
X-1176Y52D01*
X-1177Y53D02*
Y54D01*
X-1499Y-387D02*
X-1482Y-404D01*
X20Y-344D02*
X73Y-397D01*
X36Y-423D02*
X177D01*
X74Y-202D02*
Y-173D01*
X-1484Y-680D02*
X-1456Y-708D01*
X-1484Y-680D02*
Y-643D01*
X-907Y-201D02*
X-907Y-206D01*
Y-200D01*
X-1066Y141D02*
X-1045Y162D01*
X-1626Y136D02*
Y155D01*
X-1603Y178D01*
Y204D01*
X-1705Y113D02*
X-1632Y186D01*
Y339D01*
X-1592Y-146D02*
X-1592Y-146D01*
X-1437D01*
X-1417Y-126D01*
X-1581Y-110D02*
X-1545D01*
X-1507Y-72D01*
X-1321Y-223D02*
X-1311D01*
X-1280Y-192D01*
Y-139D01*
X-1308Y-246D02*
Y-241D01*
X-1270Y-203D01*
Y-203D01*
X-1584Y-473D02*
Y-473D01*
X-1584D01*
X-1573Y-462D01*
Y-461D01*
X-1185Y70D02*
X-1185D01*
X-1114Y141D01*
X-1066D01*
X-1538Y569D02*
Y652D01*
Y569D02*
X-1464Y495D01*
X-1538Y652D02*
X-1526Y664D01*
X-671Y-192D02*
X-654D01*
X-641Y-205D01*
Y-236D02*
Y-205D01*
X-1290Y156D02*
X-1264Y182D01*
Y286D01*
X-1265Y287D02*
X-1264Y286D01*
X-1265Y287D02*
Y348D01*
X-1282Y365D02*
X-1265Y348D01*
D57*
X-735Y-233D02*
X-733Y-235D01*
X-1400Y241D02*
X-1388D01*
X-1383Y236D01*
X-1336D01*
X-1776Y241D02*
X-1762D01*
X-1756Y235D01*
X-1708D01*
X-1040Y515D02*
Y549D01*
X-1007Y789D02*
Y821D01*
X-1019Y833D02*
X-1007Y821D01*
X-1039Y833D02*
X-1019D01*
X1415Y-375D02*
X1417Y-377D01*
X1463D01*
X721Y-158D02*
Y-157D01*
Y-208D02*
Y-158D01*
Y-157D02*
X721Y-157D01*
X-903Y589D02*
Y625D01*
X-755Y284D02*
Y323D01*
X-1577Y659D02*
Y795D01*
X-442Y137D02*
X-391D01*
X-443Y138D02*
X-442Y137D01*
X-437Y102D02*
X-431D01*
X-422Y111D01*
X-391D01*
X-146Y137D02*
X-136Y127D01*
X-173Y137D02*
X-146D01*
X-124Y163D02*
X-123Y164D01*
X-173Y163D02*
X-124D01*
X-391D02*
X-352D01*
X-391Y111D02*
X-351D01*
X-215Y137D02*
X-173D01*
X-216Y163D02*
X-173D01*
X-48Y284D02*
Y323D01*
X174Y406D02*
Y446D01*
X137Y406D02*
Y448D01*
Y322D02*
Y406D01*
X-501Y-116D02*
Y-80D01*
X-264Y-263D02*
X-236D01*
X-265D02*
X-264D01*
Y-178D01*
Y-269D02*
Y-263D01*
X-236D02*
X-235Y-262D01*
X-458Y-334D02*
X-423D01*
X-385Y-381D02*
Y-331D01*
X-383Y-354D02*
X-382Y-353D01*
X-338D01*
X-368Y-428D02*
Y-398D01*
X-385Y-381D02*
X-368Y-398D01*
X-301Y-398D02*
Y-353D01*
X-297Y-221D02*
X-264D01*
X-301Y-225D02*
X-297Y-221D01*
X-301Y-269D02*
Y-225D01*
X-298Y-109D02*
X-260D01*
X-169Y-239D02*
X-152D01*
X-170Y-238D02*
X-169Y-239D01*
X-184Y-109D02*
X-146D01*
X-729Y-192D02*
X-712D01*
X-711Y-190D01*
Y-158D01*
X-542Y407D02*
Y446D01*
X-681Y407D02*
Y447D01*
X-616Y282D02*
Y323D01*
X-551Y603D02*
Y623D01*
X-618Y603D02*
Y624D01*
X-684Y603D02*
Y624D01*
X-750Y603D02*
Y624D01*
X-86Y-236D02*
Y-206D01*
X148Y-228D02*
Y-202D01*
X144Y-232D02*
X148Y-228D01*
X144Y-251D02*
Y-232D01*
X80Y-207D02*
X81Y-208D01*
X944Y110D02*
X948Y114D01*
X833Y110D02*
X944D01*
X664Y-879D02*
X683D01*
X808Y-967D02*
X828D01*
X757Y-877D02*
Y-856D01*
X1007Y-930D02*
Y-904D01*
X883Y-929D02*
X933D01*
X1047Y-912D02*
Y-880D01*
X1058Y-929D02*
Y-923D01*
X1076Y-932D02*
Y-880D01*
X1058Y-929D02*
X1062Y-932D01*
X1047Y-912D02*
X1058Y-923D01*
X1007Y-930D02*
X1059D01*
X1053Y-931D02*
X1063D01*
X1062Y-932D02*
X1076D01*
X671Y-768D02*
X688D01*
Y-770D02*
X704Y-785D01*
X669Y-803D02*
X709D01*
X1107Y-989D02*
Y-970D01*
Y-931D02*
Y-910D01*
X1063Y-931D02*
X1107D01*
X110Y-879D02*
X129D01*
X254Y-967D02*
X274D01*
X203Y-877D02*
Y-856D01*
X453Y-930D02*
Y-904D01*
X329Y-929D02*
X379D01*
X493Y-912D02*
Y-880D01*
X504Y-929D02*
Y-923D01*
X522Y-932D02*
Y-880D01*
X504Y-929D02*
X508Y-932D01*
X493Y-912D02*
X504Y-923D01*
X453Y-930D02*
X505D01*
X499Y-931D02*
X509D01*
X508Y-932D02*
X522D01*
X117Y-768D02*
X134D01*
Y-770D02*
X150Y-785D01*
X115Y-803D02*
X155D01*
X553Y-989D02*
Y-970D01*
Y-931D02*
Y-910D01*
X509Y-931D02*
X553D01*
X-446Y-879D02*
X-427D01*
X-302Y-967D02*
X-282D01*
X-353Y-877D02*
Y-856D01*
X-103Y-930D02*
Y-904D01*
X-227Y-929D02*
X-177D01*
X-63Y-912D02*
Y-880D01*
X-52Y-929D02*
Y-923D01*
X-34Y-932D02*
Y-880D01*
X-52Y-929D02*
X-48Y-932D01*
X-63Y-912D02*
X-52Y-923D01*
X-103Y-930D02*
X-51D01*
X-57Y-931D02*
X-47D01*
X-48Y-932D02*
X-34D01*
X-422Y-770D02*
X-406Y-785D01*
X-439Y-768D02*
X-422D01*
X-441Y-803D02*
X-401D01*
X-3Y-989D02*
Y-970D01*
Y-931D02*
Y-910D01*
X-47Y-931D02*
X-3D01*
X-909Y-877D02*
Y-856D01*
X-858Y-967D02*
X-838D01*
X-736Y-391D02*
X-730Y-397D01*
X-739Y-388D02*
X-736Y-391D01*
X-559Y-931D02*
Y-910D01*
X-590Y-932D02*
Y-880D01*
X-604Y-932D02*
X-590D01*
X-619Y-912D02*
Y-880D01*
Y-912D02*
X-608Y-923D01*
Y-929D02*
Y-923D01*
Y-929D02*
X-604Y-932D01*
X-659Y-930D02*
Y-904D01*
X-1002Y-879D02*
X-983D01*
X-559Y-989D02*
Y-970D01*
X-603Y-931D02*
X-559D01*
X-613D02*
X-603D01*
X-659Y-930D02*
X-607D01*
X-783Y-929D02*
X-733D01*
X-1165Y833D02*
Y873D01*
X-978Y-770D02*
X-962Y-785D01*
X-995Y-768D02*
X-978D01*
X242Y-385D02*
X278D01*
X153Y-481D02*
X172D01*
X113D02*
Y-447D01*
X115Y-445D01*
X-128Y-344D02*
X-74D01*
X-139Y-355D02*
X-128Y-344D01*
X-173Y-355D02*
X-139D01*
X-589Y-238D02*
Y-199D01*
X-636Y-149D02*
X-615D01*
X588Y145D02*
Y211D01*
X548Y145D02*
X588D01*
Y86D02*
Y145D01*
X-449Y543D02*
Y562D01*
X-381Y543D02*
Y563D01*
Y543D02*
X-381Y545D01*
X-312Y544D02*
Y563D01*
X-244Y544D02*
Y563D01*
X-175Y544D02*
Y563D01*
X-106Y543D02*
Y563D01*
X-37Y543D02*
Y563D01*
X31Y543D02*
Y563D01*
X-399Y407D02*
Y446D01*
X-257Y407D02*
Y446D01*
X26Y407D02*
Y449D01*
X65Y563D02*
X66D01*
X100D01*
X66Y542D02*
Y563D01*
X203Y543D02*
Y563D01*
X204D02*
X204Y564D01*
X204Y563D02*
X237D01*
X-331Y283D02*
Y323D01*
X-113Y408D02*
Y447D01*
X-774Y98D02*
Y138D01*
X-814Y141D02*
X-774D01*
X-775Y49D02*
Y97D01*
X-1518Y640D02*
X-1483D01*
X-1263Y664D02*
X-1229D01*
X-979Y696D02*
Y715D01*
X-1198Y697D02*
Y715D01*
X-1171Y590D02*
X-1152D01*
X-1440Y507D02*
X-1408D01*
X-1380Y777D02*
Y797D01*
X-1085Y515D02*
X-1047D01*
X130Y-444D02*
X194D01*
X214Y-464D01*
X250D01*
X-130Y-394D02*
X-74D01*
X-169Y-433D02*
X-138D01*
X-127Y-444D01*
X-74D01*
X-1152Y590D02*
X-1150Y589D01*
X-1171Y521D02*
X-1151D01*
X-216Y111D02*
X-173D01*
X-187Y283D02*
Y324D01*
X-997Y-803D02*
X-957D01*
X-264Y-178D02*
X-263Y-177D01*
X-262Y-176D01*
X-263Y-177D02*
X-263D01*
X-232D01*
X-218Y-163D01*
Y-147D01*
X-211Y-140D01*
X764Y214D02*
X833D01*
X753Y203D02*
X764Y214D01*
X186Y-17D02*
X294D01*
X296D01*
X294D02*
X394D01*
X453Y42D02*
X710D01*
X752Y84D01*
X394Y-17D02*
X453Y42D01*
X753Y145D02*
Y203D01*
X88Y-251D02*
X104D01*
X76Y-239D02*
X88Y-251D01*
X147Y-266D02*
X187D01*
X146Y-265D02*
X147Y-266D01*
X144Y-287D02*
Y-251D01*
X-1336Y236D02*
X-1284D01*
X-473Y286D02*
Y323D01*
X-391Y137D02*
X-352D01*
X-355Y137D02*
X-328D01*
X79Y-444D02*
X130D01*
X-136Y127D02*
X-124D01*
X-210Y-140D02*
X-121D01*
X752Y84D02*
Y152D01*
X-500Y429D02*
X-499Y429D01*
X-500Y281D02*
Y429D01*
X186Y-17D02*
X187Y-16D01*
X-752Y-221D02*
Y-144D01*
X-702Y-94D01*
X180Y-273D02*
X187Y-266D01*
X141Y-273D02*
X180D01*
X-58Y-140D02*
X58D01*
X144Y-55D01*
X156D01*
X100Y283D02*
Y322D01*
X-125Y99D02*
X-124Y100D01*
Y125D01*
X-296Y169D02*
X-295D01*
X-328Y137D02*
X-296Y169D01*
X-121Y-140D02*
X-120Y-141D01*
X-58D01*
X-58Y-140D01*
X76Y-239D02*
Y-201D01*
D58*
X1056Y-472D02*
X1057Y-471D01*
X424Y-472D02*
X1056D01*
X-852Y-451D02*
X-816D01*
X-853Y-450D02*
Y-449D01*
X-852D01*
X-920D02*
X-853D01*
X-920Y-449D02*
X-920Y-449D01*
X-736Y-391D02*
X-666D01*
X-746D02*
X-736D01*
X652Y-469D02*
Y-380D01*
X-640Y-423D02*
X-640Y-423D01*
X-640Y-456D02*
Y-423D01*
X-816Y-333D02*
X-816Y-333D01*
X-589Y-456D02*
Y-366D01*
X-615Y-456D02*
Y-423D01*
X-677Y-480D02*
X-675Y-482D01*
X-693Y-480D02*
X-677D01*
X233Y-281D02*
X424Y-472D01*
X232Y-281D02*
X233D01*
X-889Y-333D02*
X-816D01*
X-853Y-449D02*
Y-428D01*
X-594Y-364D02*
X-589D01*
X-615Y-422D02*
Y-374D01*
X-1041Y407D02*
Y448D01*
X-1064Y384D02*
X-1041Y407D01*
X-1064Y233D02*
Y384D01*
X-975Y140D02*
X-912Y77D01*
X-909Y-66D02*
X-876D01*
X-912Y-134D02*
Y77D01*
Y-134D02*
X-888Y-158D01*
X-842D01*
X-824Y-176D01*
Y-202D02*
Y-176D01*
X-666Y-391D02*
X-621Y-346D01*
X-612D01*
X-594Y-364D01*
X-616Y-375D02*
X-615Y-374D01*
X-975Y140D02*
Y148D01*
D59*
X626Y457D02*
Y531D01*
Y457D02*
X664Y419D01*
X984D01*
X1036Y367D01*
Y215D02*
Y367D01*
X1019Y198D02*
X1036Y215D01*
X990Y198D02*
X1019D01*
D60*
X1414Y-377D02*
Y-333D01*
X721Y-158D02*
X764D01*
X720D02*
X721D01*
X720D02*
X720D01*
X1536Y-69D02*
X1570D01*
X1536Y-144D02*
Y-69D01*
Y8D01*
X1031Y-313D02*
Y-280D01*
X955Y-279D02*
X1044D01*
X1106D01*
X1265Y-63D02*
Y-2D01*
X1034Y-9D02*
X1095D01*
X1314Y-254D02*
X1315Y-253D01*
X720Y-8D02*
X766D01*
X1034Y-9D02*
X1035Y-8D01*
X1003Y-199D02*
X1044Y-240D01*
Y-279D02*
Y-240D01*
X719Y-280D02*
X871D01*
X720Y-58D02*
X773D01*
X843D01*
X844D01*
X1314Y-324D02*
Y-254D01*
Y-377D02*
Y-324D01*
Y-254D02*
Y-253D01*
X1264Y-62D02*
X1265Y-63D01*
X1536Y-378D02*
Y-226D01*
X1455Y-94D02*
X1496Y-53D01*
X1535D01*
X843Y-58D02*
X844Y-59D01*
X1264Y-377D02*
Y-331D01*
X1043Y-106D02*
X1081D01*
X1362Y-54D02*
Y-16D01*
X766Y-8D02*
X816Y42D01*
X836D01*
X764Y-158D02*
X805Y-199D01*
X1003D01*
X819Y-161D02*
X840D01*
X720Y-108D02*
X766D01*
X819Y-161D01*
X1414Y-333D02*
X1455Y-292D01*
Y-94D01*
X1364Y-377D02*
Y-331D01*
X1414Y-281D01*
Y-251D01*
X1209Y-276D02*
Y-250D01*
Y-276D02*
X1264Y-331D01*
X1753Y482D02*
Y528D01*
X1726Y482D02*
X1753D01*
X1723D02*
X1753D01*
X1723D02*
Y528D01*
X1753Y482D02*
X1786D01*
Y528D01*
X1784Y272D02*
Y316D01*
X1721Y273D02*
Y315D01*
X1753D01*
Y272D02*
Y315D01*
X1754Y316D02*
X1784D01*
X1754Y316D02*
X1754Y316D01*
D61*
X1370Y181D02*
X1448Y259D01*
X1443Y141D02*
X1536Y234D01*
X1317Y141D02*
X1443D01*
X1209Y33D02*
X1317Y141D01*
X1448Y259D02*
Y281D01*
X1415Y311D02*
Y332D01*
X1576Y333D02*
X1617Y292D01*
Y171D02*
Y292D01*
X1570Y124D02*
X1617Y171D01*
X840Y-161D02*
X1141D01*
X1414Y-32D02*
X1570Y124D01*
Y125D01*
X1209Y-250D02*
Y33D01*
X1141Y-161D02*
X1165Y-137D01*
X1414Y-251D02*
Y-32D01*
X1536Y234D02*
Y468D01*
X1582Y514D01*
Y551D01*
X1371Y259D02*
Y458D01*
X1412Y499D01*
X1165Y-137D02*
Y63D01*
X1203Y101D01*
X1198Y96D02*
X1203Y101D01*
X837Y42D02*
X1086D01*
X1203Y101D02*
X1283Y181D01*
X1370D01*
X1086Y42D02*
X1267Y223D01*
X1335D01*
X1371Y259D01*
D62*
X-1870Y-532D02*
G03*
X-1835Y-615I118J0D01*
G01*
X-1402Y-1048D02*
G03*
X-1319Y-1083I84J84D01*
G01*
X1319D02*
G03*
X1402Y-1048I0J118D01*
G01*
X1836Y-615D02*
G03*
X1870Y-532I-84J84D01*
G01*
X-1835Y-615D02*
X-1402Y-1048D01*
X-1319Y-1083D02*
X1319D01*
X1402Y-1048D02*
X1836Y-615D01*
X1870Y-532D02*
Y1053D01*
X-1870D02*
X1870D01*
X-1870Y-532D02*
Y1053D01*
D63*
X-1589Y-709D02*
D03*
X-1539D02*
D03*
X-1589Y-659D02*
D03*
X-1539D02*
D03*
X397Y317D02*
D03*
Y179D02*
D03*
X-1452Y-661D02*
D03*
Y-761D02*
D03*
X-1402D02*
D03*
X-1452Y-711D02*
D03*
X-1402D02*
D03*
Y-661D02*
D03*
D64*
X1713Y69D02*
D03*
X1280Y-945D02*
D03*
X-1279D02*
D03*
X-1476Y906D02*
D03*
D65*
X-959Y955D02*
D03*
X-1246D02*
D03*
D66*
X0Y-0D02*
D03*
D67*
X1453Y309D02*
D03*
X1618D02*
D03*
X1287D02*
D03*
X1122D02*
D03*
X957D02*
D03*
X791D02*
D03*
X626D02*
D03*
X1618Y526D02*
D03*
X1453D02*
D03*
X1287D02*
D03*
X1122D02*
D03*
X957D02*
D03*
X791D02*
D03*
X626D02*
D03*
D68*
X1618Y813D02*
D03*
X626D02*
D03*
D69*
X226Y683D02*
D03*
Y762D02*
D03*
X148Y683D02*
D03*
Y762D02*
D03*
X69Y683D02*
D03*
Y762D02*
D03*
X-10Y683D02*
D03*
Y762D02*
D03*
X-89Y683D02*
D03*
Y762D02*
D03*
X-167Y683D02*
D03*
Y762D02*
D03*
X-246Y683D02*
D03*
Y762D02*
D03*
X-325Y683D02*
D03*
Y762D02*
D03*
X-404Y683D02*
D03*
Y762D02*
D03*
X-482Y683D02*
D03*
Y762D02*
D03*
X-561Y683D02*
D03*
Y762D02*
D03*
X-640Y683D02*
D03*
Y762D02*
D03*
X-719Y683D02*
D03*
Y762D02*
D03*
D70*
X-1792Y835D02*
D03*
Y735D02*
D03*
Y635D02*
D03*
Y535D02*
D03*
X-1692Y835D02*
D03*
Y735D02*
D03*
Y635D02*
D03*
Y535D02*
D03*
D71*
X-1190Y236D02*
D03*
X-1559Y235D02*
D03*
X-1631Y416D02*
D03*
X-1617Y-425D02*
D03*
X-1585Y-534D02*
D03*
X-876Y-127D02*
D03*
X-733Y-235D02*
D03*
X1149Y-208D02*
D03*
X1057Y-471D02*
D03*
X1178Y-426D02*
D03*
X1384Y-513D02*
D03*
X1289Y-455D02*
D03*
X1290Y-514D02*
D03*
X-1638Y-412D02*
D03*
X-1242Y4D02*
D03*
X-1403Y301D02*
D03*
X-1778D02*
D03*
X-1435Y205D02*
D03*
X-1403D02*
D03*
X-1085Y455D02*
D03*
X-927Y-340D02*
D03*
X-1040Y549D02*
D03*
X-1007Y789D02*
D03*
X1457Y-442D02*
D03*
X656Y-203D02*
D03*
X-1536Y749D02*
D03*
X-569Y536D02*
D03*
X-746D02*
D03*
X-892Y714D02*
D03*
X-808Y264D02*
D03*
X-903Y625D02*
D03*
X-542Y446D02*
D03*
X-449Y543D02*
D03*
X-681Y447D02*
D03*
X-1577Y795D02*
D03*
X-216Y163D02*
D03*
X-332Y454D02*
D03*
X-189Y451D02*
D03*
X-49D02*
D03*
X-257Y281D02*
D03*
X-113Y282D02*
D03*
X-48Y284D02*
D03*
X174Y446D02*
D03*
X137Y448D02*
D03*
X238Y623D02*
D03*
X227Y448D02*
D03*
X100Y625D02*
D03*
X100Y448D02*
D03*
X-304Y-37D02*
D03*
X-494Y-397D02*
D03*
X-391Y-248D02*
D03*
X-615Y-272D02*
D03*
X-500Y-117D02*
D03*
X-235Y-262D02*
D03*
X-423Y-334D02*
D03*
X-301Y-398D02*
D03*
X-298Y-109D02*
D03*
X-150Y-239D02*
D03*
X-146Y-109D02*
D03*
X-750Y624D02*
D03*
X-717Y534D02*
D03*
X-755Y284D02*
D03*
X-551Y623D02*
D03*
X-618Y624D02*
D03*
X-684D02*
D03*
X-86Y-237D02*
D03*
X663Y-879D02*
D03*
Y-842D02*
D03*
X828Y-967D02*
D03*
X757Y-877D02*
D03*
X1007Y-904D02*
D03*
X666Y-951D02*
D03*
X781Y-968D02*
D03*
X696Y-948D02*
D03*
X1076Y-879D02*
D03*
X1047Y-879D02*
D03*
X671Y-767D02*
D03*
X669Y-803D02*
D03*
X1073Y-571D02*
D03*
X868Y-569D02*
D03*
X973Y-681D02*
D03*
X725Y-658D02*
D03*
Y-569D02*
D03*
X1076Y-798D02*
D03*
X871Y-795D02*
D03*
X1107Y-990D02*
D03*
Y-910D02*
D03*
X109Y-879D02*
D03*
Y-842D02*
D03*
X274Y-967D02*
D03*
X203Y-877D02*
D03*
X453Y-904D02*
D03*
X112Y-951D02*
D03*
X227Y-968D02*
D03*
X142Y-948D02*
D03*
X522Y-879D02*
D03*
X493Y-879D02*
D03*
X117Y-767D02*
D03*
X115Y-803D02*
D03*
X519Y-571D02*
D03*
X314Y-569D02*
D03*
X419Y-681D02*
D03*
X171Y-569D02*
D03*
X522Y-798D02*
D03*
X317Y-795D02*
D03*
X553Y-990D02*
D03*
Y-910D02*
D03*
X-447Y-879D02*
D03*
Y-842D02*
D03*
X-282Y-967D02*
D03*
X-353Y-877D02*
D03*
X-103Y-904D02*
D03*
X-444Y-951D02*
D03*
X-329Y-968D02*
D03*
X-414Y-948D02*
D03*
X-34Y-879D02*
D03*
X-63Y-879D02*
D03*
X-439Y-767D02*
D03*
X-441Y-803D02*
D03*
X-37Y-571D02*
D03*
X-242Y-569D02*
D03*
X-137Y-681D02*
D03*
X-385Y-658D02*
D03*
Y-569D02*
D03*
X-34Y-798D02*
D03*
X-239Y-795D02*
D03*
X-3Y-990D02*
D03*
Y-910D02*
D03*
X171Y-658D02*
D03*
X-1000Y-951D02*
D03*
X-909Y-877D02*
D03*
X-838Y-967D02*
D03*
X-885Y-968D02*
D03*
X-970Y-948D02*
D03*
X1418Y-917D02*
D03*
X1792Y-524D02*
D03*
X1793Y-69D02*
D03*
X289Y57D02*
D03*
X-1460Y-325D02*
D03*
X-1410Y-148D02*
D03*
X-1445Y-351D02*
D03*
X1570Y-69D02*
D03*
X1536Y-144D02*
D03*
Y8D02*
D03*
X1031Y-313D02*
D03*
X955Y-279D02*
D03*
X1106D02*
D03*
X-559Y-910D02*
D03*
X-590Y-879D02*
D03*
X-619Y-879D02*
D03*
X-659Y-904D02*
D03*
X-1406Y-414D02*
D03*
X-811Y-450D02*
D03*
X-1003Y-879D02*
D03*
X-559Y-990D02*
D03*
X-593Y-571D02*
D03*
X-693Y-681D02*
D03*
X-590Y-798D02*
D03*
X-795Y-795D02*
D03*
X-941Y-569D02*
D03*
X-798D02*
D03*
X-941Y-658D02*
D03*
X1042Y-8D02*
D03*
X871Y-280D02*
D03*
X719D02*
D03*
X454Y-8D02*
D03*
X377Y-199D02*
D03*
Y-158D02*
D03*
X705Y-341D02*
D03*
X508Y-322D02*
D03*
X626Y-265D02*
D03*
X600Y-246D02*
D03*
X1502Y-497D02*
D03*
X1264Y-55D02*
D03*
X1636Y-393D02*
D03*
X1597Y-392D02*
D03*
X1536Y-378D02*
D03*
Y-226D02*
D03*
X1521Y-471D02*
D03*
X1414Y-720D02*
D03*
X1455D02*
D03*
X1578Y-589D02*
D03*
X1043Y-106D02*
D03*
X1362Y-54D02*
D03*
X773Y-58D02*
D03*
X-640Y-422D02*
D03*
X-589Y-364D02*
D03*
X-615Y-422D02*
D03*
X1314Y-324D02*
D03*
X1753Y272D02*
D03*
X1721Y273D02*
D03*
X1784Y272D02*
D03*
X1753Y528D02*
D03*
X1723Y528D02*
D03*
X1786Y527D02*
D03*
X1314Y-719D02*
D03*
X1364D02*
D03*
X1558Y-529D02*
D03*
X1264Y-641D02*
D03*
X1469Y-545D02*
D03*
X1497Y-573D02*
D03*
X-695Y-480D02*
D03*
X-890Y-333D02*
D03*
X578Y-34D02*
D03*
X638Y-35D02*
D03*
X579Y-100D02*
D03*
X-1469Y-15D02*
D03*
X984Y-1034D02*
D03*
X959Y-1025D02*
D03*
X925Y-1012D02*
D03*
X-995Y-767D02*
D03*
X278Y-385D02*
D03*
X172Y-481D02*
D03*
X-1376Y-226D02*
D03*
X-589Y-199D02*
D03*
X-636Y-149D02*
D03*
X588Y211D02*
D03*
X548Y145D02*
D03*
X588Y86D02*
D03*
X-381Y544D02*
D03*
X-312Y544D02*
D03*
X-244Y544D02*
D03*
X-175Y544D02*
D03*
X-106Y543D02*
D03*
X-37Y543D02*
D03*
X31Y543D02*
D03*
X-294Y282D02*
D03*
X-11Y283D02*
D03*
X-398Y447D02*
D03*
X-257Y446D02*
D03*
X26Y449D02*
D03*
X66Y542D02*
D03*
X203Y543D02*
D03*
X-331Y283D02*
D03*
X-113Y447D02*
D03*
X-814Y141D02*
D03*
X-734Y79D02*
D03*
X-775Y-3D02*
D03*
X-96Y241D02*
D03*
X-1229Y664D02*
D03*
X-979Y696D02*
D03*
X-1103Y792D02*
D03*
X-1030Y755D02*
D03*
X-1071Y792D02*
D03*
X-1147Y613D02*
D03*
X-1198Y696D02*
D03*
X-1107Y429D02*
D03*
X-1440Y507D02*
D03*
X-1380Y797D02*
D03*
X-1145Y785D02*
D03*
X-1143Y754D02*
D03*
X-650Y436D02*
D03*
X-718Y284D02*
D03*
X-616Y282D02*
D03*
X-1107Y33D02*
D03*
X-1241Y33D02*
D03*
X-1222Y159D02*
D03*
X-1459Y37D02*
D03*
X-1099Y-27D02*
D03*
X-766Y518D02*
D03*
X-826Y555D02*
D03*
X-1092Y372D02*
D03*
X-903Y409D02*
D03*
X-1185Y11D02*
D03*
X-1022Y349D02*
D03*
X-1605Y337D02*
D03*
X-1231Y333D02*
D03*
Y267D02*
D03*
X-1414Y-217D02*
D03*
X-1401Y-172D02*
D03*
X-1400Y-197D02*
D03*
X-1446Y-497D02*
D03*
X-1426Y-396D02*
D03*
X-1445Y-378D02*
D03*
X-1566Y-572D02*
D03*
X-1702Y-338D02*
D03*
X-1601Y-128D02*
D03*
X-1435Y-72D02*
D03*
X-1411Y-98D02*
D03*
X-1554Y-70D02*
D03*
X-1579Y73D02*
D03*
X232Y-280D02*
D03*
X-130Y-394D02*
D03*
X-546Y-442D02*
D03*
X-543Y-408D02*
D03*
X-1119Y-396D02*
D03*
X-1194Y-429D02*
D03*
X-1176Y-453D02*
D03*
X-1664Y-383D02*
D03*
X-1321Y-223D02*
D03*
X-1292Y-480D02*
D03*
X-1324Y-329D02*
D03*
X-1349Y-331D02*
D03*
X-1366Y-371D02*
D03*
X-1371Y-344D02*
D03*
X-1319Y-498D02*
D03*
X-1514Y484D02*
D03*
X-1540Y485D02*
D03*
X-1150Y588D02*
D03*
X-1129Y448D02*
D03*
X-1156Y554D02*
D03*
X-1206Y540D02*
D03*
X-1171Y521D02*
D03*
X-1170Y481D02*
D03*
X-1253Y476D02*
D03*
X-1165Y874D02*
D03*
X-49Y787D02*
D03*
X-73Y815D02*
D03*
X-1520Y639D02*
D03*
X-1446Y739D02*
D03*
X-1536Y541D02*
D03*
X-1350Y-70D02*
D03*
X-1376Y-67D02*
D03*
X-1493Y430D02*
D03*
X-1464Y459D02*
D03*
X-1528Y-373D02*
D03*
X-1498Y-386D02*
D03*
X-1390Y336D02*
D03*
X-1748Y144D02*
D03*
X-1693Y-47D02*
D03*
X-1614Y-277D02*
D03*
X-1477Y98D02*
D03*
Y154D02*
D03*
X-1695Y-74D02*
D03*
X-1665Y-48D02*
D03*
X-1648Y-29D02*
D03*
X-1737Y-480D02*
D03*
X-1720Y-408D02*
D03*
X-1696Y96D02*
D03*
X-436Y223D02*
D03*
X-184Y5D02*
D03*
X-260Y4D02*
D03*
X-216Y111D02*
D03*
X-253Y151D02*
D03*
X-6Y238D02*
D03*
X-249Y229D02*
D03*
X-2Y205D02*
D03*
X-1810Y207D02*
D03*
X-1784Y457D02*
D03*
X-1766Y387D02*
D03*
X-1742Y511D02*
D03*
X-1768Y337D02*
D03*
X-1808Y250D02*
D03*
X-1558Y115D02*
D03*
X-1729Y113D02*
D03*
X-1763Y-159D02*
D03*
X-1716Y-206D02*
D03*
X-1560Y-329D02*
D03*
X-1319Y-591D02*
D03*
X-1283Y-633D02*
D03*
X-1088Y-889D02*
D03*
X-1088Y-929D02*
D03*
X-1144Y-870D02*
D03*
X-997Y-803D02*
D03*
X-1003Y-842D02*
D03*
X-1088Y-692D02*
D03*
X-1685Y-404D02*
D03*
X-650Y192D02*
D03*
X-854Y188D02*
D03*
X-725Y166D02*
D03*
X-1330Y543D02*
D03*
X-1312Y640D02*
D03*
X-215Y137D02*
D03*
X-214Y86D02*
D03*
X151Y92D02*
D03*
X-954Y-186D02*
D03*
X-1130Y-331D02*
D03*
X-1313Y-198D02*
D03*
X-1124Y-229D02*
D03*
X-1310Y-245D02*
D03*
X-1310Y-173D02*
D03*
X-1190Y-209D02*
D03*
X-1232Y-229D02*
D03*
X-1250Y-209D02*
D03*
X-1175Y-311D02*
D03*
X-966Y-148D02*
D03*
X-1421Y74D02*
D03*
X-1564Y210D02*
D03*
X-1603Y204D02*
D03*
X-1652Y233D02*
D03*
X-153Y-177D02*
D03*
X-207Y-219D02*
D03*
X28Y-165D02*
D03*
X-11Y-235D02*
D03*
X-789Y-119D02*
D03*
X-357Y18D02*
D03*
X-352Y86D02*
D03*
X-352Y163D02*
D03*
X-264Y113D02*
D03*
X-633Y-34D02*
D03*
X-467Y-37D02*
D03*
X-853Y-428D02*
D03*
X-814Y-331D02*
D03*
X-1064Y232D02*
D03*
X-824Y-202D02*
D03*
X193Y171D02*
D03*
X161Y-81D02*
D03*
X-1283Y236D02*
D03*
X-936Y-39D02*
D03*
X-702Y-94D02*
D03*
X-515Y-32D02*
D03*
X-538Y97D02*
D03*
X-501Y110D02*
D03*
X-352Y137D02*
D03*
X-351Y111D02*
D03*
X-559Y217D02*
D03*
X-508Y189D02*
D03*
X-579Y282D02*
D03*
X19Y-190D02*
D03*
X71Y-396D02*
D03*
X391Y588D02*
D03*
X-1465Y374D02*
D03*
X-1249Y512D02*
D03*
X-1088Y554D02*
D03*
X-661Y538D02*
D03*
X-473Y454D02*
D03*
X-436Y284D02*
D03*
X-500Y281D02*
D03*
X-399Y281D02*
D03*
X-474Y285D02*
D03*
X-499Y429D02*
D03*
X156Y-55D02*
D03*
X187Y-16D02*
D03*
X-616Y-375D02*
D03*
X74Y-173D02*
D03*
X141Y-273D02*
D03*
X89Y169D02*
D03*
X100Y110D02*
D03*
X133Y158D02*
D03*
X100Y283D02*
D03*
X193Y278D02*
D03*
X151Y251D02*
D03*
X-125Y99D02*
D03*
X-295Y169D02*
D03*
X-150Y282D02*
D03*
X26Y282D02*
D03*
X-201Y246D02*
D03*
X-187Y283D02*
D03*
X-464Y162D02*
D03*
X-603Y92D02*
D03*
X-934Y264D02*
D03*
X-975Y148D02*
D03*
X-1650Y114D02*
D03*
X-1721Y-376D02*
D03*
X-1388Y-546D02*
D03*
X-1292Y-541D02*
D03*
X-1148Y-308D02*
D03*
X-1294Y70D02*
D03*
X-981Y111D02*
D03*
X-1146Y46D02*
D03*
X-1253Y109D02*
D03*
X-1044Y58D02*
D03*
X-1198Y203D02*
D03*
X-1153Y156D02*
D03*
X-1079Y211D02*
D03*
X-1275Y89D02*
D03*
X-1221Y88D02*
D03*
X-545Y-36D02*
D03*
X-488Y-3D02*
D03*
X-1591Y-455D02*
D03*
X-1176Y52D02*
D03*
X-1093Y117D02*
D03*
X-1183Y154D02*
D03*
X-1583Y-111D02*
D03*
X77Y-444D02*
D03*
X-907Y-200D02*
D03*
X-731Y-192D02*
D03*
M02*
