M48
;Layer_Color=9474304
;FILE_FORMAT=2:4
INCH,LZ
;TYPE=PLATED
T1F00S00C0.0080
T2F00S00C0.0276
T3F00S00C0.0315
T4F00S00C0.0354
T5F00S00C0.0591
T6F00S00C0.0748
T7F00S00C0.1200
T8F00S00C0.1220
T9F00S00C0.2362
%
T01
X00553Y-009898
X00781Y-009684
X00828Y-009674
X00925Y-01012
X00959Y-01025
X00984Y-01034
X01107Y-009898
X00274Y-009674
X00227Y-009684
X-00003Y-009898
X-00282Y-009674
X-00329Y-009684
X-00559Y-009898
X-00838Y-009674
X-00885Y-009684
X-012827Y-006327
X-01319Y-00591
X-01292Y-00541
Y-0048
X-01319Y-00498
X-01388Y-00546
X-01446Y-00497
X-01445Y-00378
Y-00351
X-014598Y-003254
X-01498Y-00386
X-01528Y-00373
X-0156Y-00329
X-01614Y-00277
X-017017Y-00338
X-01721Y-00376
X-017203Y-004083
X-01685Y-00404
X-01664Y-00383
X-01638Y-00412
X-01617Y-00425
X-01591Y-00455
X-01585Y-00534
X-015657Y-005723
X-01737Y-0048
X-01716Y-00206
X-01763Y-00159
X-01695Y-00074
X-01693Y-00047
X-01665Y-00048
X-01648Y-00029
X-01554Y-0007
X-01583Y-00111
X-01601Y-00128
X-0141Y-001482
X-01401Y-001724
X-014002Y-001966
X-01414Y-00217
X-01376Y-00226
X-01321Y-00223
X-01313Y-00198
X-0131Y-00173
X-013096Y-002452
X-0125Y-00209
X-013241Y-00329
X-01349Y-00331
X-01371Y-00344
X-013657Y-00371
X-014064Y-004137
X-01426Y-00396
X-01411Y-00098
X-01435Y-00072
X-01376Y-00067
X-0135Y-0007
X-01469Y-00015
X-01459Y00037
X-01421Y00074
X-01477Y00098
Y00154
X-01435Y00205
X-01403
Y00301
X-0139Y00336
X-01465Y003744
X-01493Y0043
X-01464Y00459
X-0144Y00507
X-01514Y00484
X-0154Y00485
X-01536Y00541
X-013296Y005434
X-01249Y00512
X-012527Y004757
X-01283Y00236
X-01275Y00089
X-01294Y0007
X-01253Y00109
X-01558Y00115
X-01579Y00073
X-0165Y00114
X-01696Y00096
X-01729Y00113
X-01748Y00144
X-0181Y00207
X-01808Y0025
X-01778Y00301
X-01768Y00337
X-01766Y00387
X-017837Y004567
X-01742Y00511
X-016313Y004163
X-01605Y00337
X-01603Y00204
X-01564Y0021
X-01559Y00235
X-01652Y00233
X-01231Y00267
Y00333
X-0119Y00236
X-01198Y00203
X-01183Y00154
X-01153Y00156
X-01222Y00159
X-01221Y00088
X-012407Y000327
X-01242Y00004
X-01185Y00011
X-011756Y00052
X-01146Y00046
X-01107Y00033
X-01099Y-00027
X-01044Y00058
X-01093Y00117
X-01079Y00211
X-01064Y00232
X-01022Y00349
X-01092Y00372
X-011072Y004292
X-01129Y00448
X-01085Y00455
X-01088Y00554
X-0104Y00549
X-01156Y00554
X-0115Y00588
X-011707Y005207
X-011703Y004813
X-01206Y0054
X-00826Y00555
X-00766Y00518
X-00746Y00536
X-00717Y00534
X-00661Y00538
X-00569Y00536
X-005416Y004464
X-004994Y004291
X-00473Y00454
X-00398Y00447
X-00332Y00454
X-002566Y004456
X-00189Y00451
X-001126Y004466
X-00049Y00451
X000264Y004486
X000996Y004476
X00137Y00448
X001744Y004464
X00227Y00448
X00203Y00543
X000656Y005424
X000312Y005428
X-000375Y005435
X-001062Y005432
X-001749Y005439
X-002436Y005436
X-003123Y005443
X-00381Y00544
X-004493Y005433
X-00436Y00284
X-00474Y00285
X-005Y00281
X-00579Y00282
X-006164Y002824
X-00718Y00284
X-007554Y002844
X-00808Y00264
X-00854Y00188
X-008136Y001406
X-007248Y001662
X-00734Y00079
X-007747Y-000033
X-00789Y-00119
X-00876Y-00127
X-00907Y-002
X-00954Y-00186
X-00966Y-00148
X-00936Y-00039
X-00981Y00111
X-00975Y00148
X-00934Y00264
X-00903Y00409
X-006806Y004466
X-0065Y00436
X-006497Y00192
X-005594Y002174
X-00508Y00189
X-00464Y00162
X-00436Y00223
X-003986Y002806
X-003314Y002826
X-00294Y00282
X-002566Y002814
X-00249Y00229
X-00201Y00246
X-001874Y002834
X-0015Y00282
X-001126Y002824
X-000956Y002414
X-000484Y002844
X-00011Y00283
X000264Y002816
X000996Y002826
X00151Y00251
X00193Y00278
X001932Y001712
X00133Y00158
X00089Y00169
X001Y0011
X00151Y00092
X00187Y-00016
X00156Y-00055
X00161Y-00081
X00074Y-00173
X00028Y-00165
X00019Y-0019
X-00011Y-00235
X-00086Y-00237
X-0015Y-00239
X-00153Y-00177
X-001464Y-001094
X-002976
X-003039Y-000371
X-0026Y00004
X-00184Y00005
X-002138Y000858
X-002156Y001114
X-00215Y00137
X-002156Y001626
X-00253Y00151
X-00264Y00113
X-00295Y001694
X-003524Y001626
X-00352Y00137
X-003514Y001114
X-00352Y00086
X-00357Y00018
X-00488Y-00003
X-00467Y-00037
X-00515Y-00032
X-00545Y-00036
X-00633Y-00034
X-006357Y-001493
X-005892Y-001988
X-006148Y-002718
X-00616Y-00375
X-00589Y-00364
X-00615Y-00422
X-0064
X-00543Y-00408
X-00546Y-00442
X-004936Y-003966
X-004227Y-003343
X-003907Y-002477
X-00235Y-00262
X-00207Y-00219
X-0013Y-00394
X-00301Y-00398
X-00242Y-005688
X-00385
Y-006578
X-00439Y-007674
X-00441Y-008034
X-004466Y-008424
Y-008794
X-004445Y-009509
X-004143Y-009477
X-00353Y-008774
X-00239Y-007948
X-00034Y-007978
Y-008788
X-00063Y-00879
X-00103Y-009038
X-00003Y-009098
X001094Y-008794
Y-008424
X00115Y-008034
X00117Y-007674
X00171Y-006578
Y-005688
X00172Y-00481
X00077Y-00444
X00071Y-00396
X00141Y-00273
X00232Y-0028
X002776Y-003846
X00314Y-005688
X00317Y-007948
X00203Y-008774
X001417Y-009477
X001115Y-009509
X-00137Y-006808
X-00037Y-005708
X-00593
X-00695Y-0048
X-00811Y-0045
X-00853Y-00428
X-0089Y-00333
X-00927Y-0034
X-00814Y-00331
X-00824Y-00202
X-00731Y-00192
X-00733Y-00235
X-00702Y-00094
X-005Y-00117
X-00501Y0011
X-00538Y00097
X-00603Y00092
X-00125Y00099
X-00002Y00205
X-00006Y00238
X00289Y00057
X-01124Y-00229
X-0119Y-00209
X-01232Y-00229
X-01175Y-00311
X-01148Y-00308
X-0113Y-00331
X-01119Y-00396
X-01194Y-00429
X-01176Y-00453
X-01088Y-00692
X-00995Y-007674
X-00997Y-008034
X-010026Y-008424
Y-008794
X-010005Y-009509
X-009703Y-009477
X-00909Y-008774
X-01088Y-00889
X-010883Y-009287
X-01144Y-0087
X-00941Y-006578
Y-005688
X-00798
X-00693Y-006808
X-00795Y-007948
X-0059Y-007978
Y-008788
X-00619Y-00879
X-00659Y-009038
X-00559Y-009098
X00453Y-009038
X00493Y-00879
X00522Y-008788
X00553Y-009098
X006634Y-008794
Y-008424
X00669Y-008034
X00671Y-007674
X00725Y-006578
Y-005688
X00868
X01073Y-005708
X01057Y-00471
X01178Y-00426
X01289Y-00455
X0129Y-00514
X01384Y-00513
X01469Y-00545
X01497Y-00573
X01502Y-00497
X01521Y-00471
X01457Y-00442
X01536Y-00378
X015973Y-003917
X016363Y-003927
X01558Y-00529
X01578Y-00589
X01455Y-0072
X01414
X01364Y-00719
X01314
X01264Y-00641
X00973Y-006808
X00871Y-007948
X00757Y-008774
X006957Y-009477
X006655Y-009509
X00522Y-007978
X00419Y-006808
X00519Y-005708
X00508Y-00322
X006Y-00246
X00626Y-00265
X00656Y-00203
X00719Y-0028
X007053Y-003413
X00871Y-0028
X00955Y-00279
X010311Y-003131
X01106Y-00279
X01149Y-00208
X01043Y-00106
X01042Y-00008
X01264Y-00055
X01362Y-00054
X015701Y-000689
X01536Y-00144
Y-00226
Y00008
X01793Y-00069
X017843Y002723
X01753Y00272
X01721Y00273
X017233Y005277
X01753Y00528
X01786Y00527
X01792Y-00524
X013136Y-003244
X01418Y-00917
X01107Y-009098
X01076Y-008788
X01047Y-00879
X01007Y-009038
X01076Y-007978
X007726Y-000576
X00638Y-00035
X00578Y-00034
X00579Y-001
X005883Y000857
X00548Y00145
X005883Y002107
X00454Y-00008
X00377Y-00158
Y-00199
X00391Y00588
X00238Y00623
X001Y00625
X-00049Y00787
X-00073Y00815
X-00551Y00623
X-00618Y00624
X-00684
X-0075
X-00903Y00625
X-00892Y00714
X-00979Y00696
X-0103Y00755
X-01007Y00789
X-010709Y007919
X-01103Y00792
X-01145Y00785
X-01143Y00754
X-01198Y00696
X-012285Y006645
X-01147Y00613
X-01165Y00874
X-013797Y007967
X-014465Y007395
X-01536Y00749
X-015773Y007947
X-0152Y00639
X-01312Y0064
T02
X00397Y001791
Y003169
T03
X-01589Y-00709
X-01539
Y-00659
X-01589
X-01452Y-00661
Y-00711
Y-00761
X-01402
Y-00711
Y-00661
T04
X-017921Y005351
X-016921
X-007185Y00683
X-006398
X-00561
X-004823
X-004035
X-003248
X-002461
X-001673
X-000886
X-000098
X000689
X001476
X002264
Y007617
X001476
X000689
X-000098
X-000886
X-001673
X-002461
X-003248
X-004035
X-004823
X-00561
X-006398
X-007185
X-016921Y007351
X-017921
Y008351
X-016921
Y006351
X-017921
T05
X-009587Y009547
X-012461
T06
X00626Y003091
X007913
X009567
X01122
X012874
X014528
X016181
Y00526
X014528
X012874
X01122
X009567
X007913
X00626
T07
X-012794Y-009452
X012796
X017127Y000686
X-014764Y009055
T08
X00626Y008134
X016181
T09
X000001Y-000003
M30
