%FSLAX23Y23*%
%MOIN*%
G70*
G01*
G75*
G04 Layer_Physical_Order=3*
G04 Layer_Color=36540*
%ADD10R,0.020X0.020*%
%ADD11R,0.020X0.020*%
%ADD12R,0.022X0.057*%
%ADD13R,0.022X0.057*%
%ADD14R,0.055X0.039*%
%ADD15R,0.079X0.043*%
%ADD16R,0.031X0.031*%
%ADD17R,0.059X0.098*%
%ADD18R,0.098X0.059*%
%ADD19R,0.039X0.055*%
G04:AMPARAMS|DCode=20|XSize=142mil|YSize=79mil|CornerRadius=4mil|HoleSize=0mil|Usage=FLASHONLY|Rotation=180.000|XOffset=0mil|YOffset=0mil|HoleType=Round|Shape=RoundedRectangle|*
%AMROUNDEDRECTD20*
21,1,0.142,0.071,0,0,180.0*
21,1,0.134,0.079,0,0,180.0*
1,1,0.008,-0.067,0.035*
1,1,0.008,0.067,0.035*
1,1,0.008,0.067,-0.035*
1,1,0.008,-0.067,-0.035*
%
%ADD20ROUNDEDRECTD20*%
%ADD21R,0.020X0.014*%
%ADD22R,0.014X0.020*%
%ADD23R,0.057X0.018*%
%ADD24R,0.071X0.045*%
%ADD25C,0.020*%
%ADD26R,0.020X0.063*%
%ADD27R,0.083X0.114*%
%ADD28R,0.051X0.039*%
%ADD29R,0.055X0.024*%
%ADD30R,0.071X0.024*%
G04:AMPARAMS|DCode=31|XSize=75mil|YSize=126mil|CornerRadius=0mil|HoleSize=0mil|Usage=FLASHONLY|Rotation=90.000|XOffset=0mil|YOffset=0mil|HoleType=Round|Shape=Octagon|*
%AMOCTAGOND31*
4,1,8,-0.063,-0.019,-0.063,0.019,-0.044,0.037,0.044,0.037,0.063,0.019,0.063,-0.019,0.044,-0.037,-0.044,-0.037,-0.063,-0.019,0.0*
%
%ADD31OCTAGOND31*%

%ADD32R,0.017X0.050*%
%ADD33R,0.050X0.017*%
%ADD34R,0.087X0.024*%
G04:AMPARAMS|DCode=35|XSize=12mil|YSize=71mil|CornerRadius=0mil|HoleSize=0mil|Usage=FLASHONLY|Rotation=315.000|XOffset=0mil|YOffset=0mil|HoleType=Round|Shape=Round|*
%AMOVALD35*
21,1,0.059,0.012,0.000,0.000,45.0*
1,1,0.012,-0.021,-0.021*
1,1,0.012,0.021,0.021*
%
%ADD35OVALD35*%

G04:AMPARAMS|DCode=36|XSize=12mil|YSize=71mil|CornerRadius=0mil|HoleSize=0mil|Usage=FLASHONLY|Rotation=45.000|XOffset=0mil|YOffset=0mil|HoleType=Round|Shape=Round|*
%AMOVALD36*
21,1,0.059,0.012,0.000,0.000,135.0*
1,1,0.012,0.021,-0.021*
1,1,0.012,-0.021,0.021*
%
%ADD36OVALD36*%

%ADD37R,0.018X0.037*%
%ADD38R,0.037X0.018*%
G04:AMPARAMS|DCode=39|XSize=228mil|YSize=252mil|CornerRadius=17mil|HoleSize=0mil|Usage=FLASHONLY|Rotation=0.000|XOffset=0mil|YOffset=0mil|HoleType=Round|Shape=RoundedRectangle|*
%AMROUNDEDRECTD39*
21,1,0.228,0.218,0,0,0.0*
21,1,0.194,0.252,0,0,0.0*
1,1,0.034,0.097,-0.109*
1,1,0.034,-0.097,-0.109*
1,1,0.034,-0.097,0.109*
1,1,0.034,0.097,0.109*
%
%ADD39ROUNDEDRECTD39*%
G04:AMPARAMS|DCode=40|XSize=47mil|YSize=87mil|CornerRadius=4mil|HoleSize=0mil|Usage=FLASHONLY|Rotation=0.000|XOffset=0mil|YOffset=0mil|HoleType=Round|Shape=RoundedRectangle|*
%AMROUNDEDRECTD40*
21,1,0.047,0.080,0,0,0.0*
21,1,0.040,0.087,0,0,0.0*
1,1,0.007,0.020,-0.040*
1,1,0.007,-0.020,-0.040*
1,1,0.007,-0.020,0.040*
1,1,0.007,0.020,0.040*
%
%ADD40ROUNDEDRECTD40*%
%ADD41R,0.146X0.059*%
%ADD42R,0.059X0.146*%
G04:AMPARAMS|DCode=43|XSize=95mil|YSize=130mil|CornerRadius=7mil|HoleSize=0mil|Usage=FLASHONLY|Rotation=90.000|XOffset=0mil|YOffset=0mil|HoleType=Round|Shape=RoundedRectangle|*
%AMROUNDEDRECTD43*
21,1,0.095,0.116,0,0,90.0*
21,1,0.081,0.130,0,0,90.0*
1,1,0.014,0.058,0.040*
1,1,0.014,0.058,-0.040*
1,1,0.014,-0.058,-0.040*
1,1,0.014,-0.058,0.040*
%
%ADD43ROUNDEDRECTD43*%
G04:AMPARAMS|DCode=44|XSize=26mil|YSize=69mil|CornerRadius=2mil|HoleSize=0mil|Usage=FLASHONLY|Rotation=180.000|XOffset=0mil|YOffset=0mil|HoleType=Round|Shape=RoundedRectangle|*
%AMROUNDEDRECTD44*
21,1,0.026,0.065,0,0,180.0*
21,1,0.022,0.069,0,0,180.0*
1,1,0.004,-0.011,0.033*
1,1,0.004,0.011,0.033*
1,1,0.004,0.011,-0.033*
1,1,0.004,-0.011,-0.033*
%
%ADD44ROUNDEDRECTD44*%
%ADD45R,0.039X0.125*%
G04:AMPARAMS|DCode=46|XSize=95mil|YSize=130mil|CornerRadius=7mil|HoleSize=0mil|Usage=FLASHONLY|Rotation=0.000|XOffset=0mil|YOffset=0mil|HoleType=Round|Shape=RoundedRectangle|*
%AMROUNDEDRECTD46*
21,1,0.095,0.116,0,0,0.0*
21,1,0.081,0.130,0,0,0.0*
1,1,0.014,0.040,-0.058*
1,1,0.014,-0.040,-0.058*
1,1,0.014,-0.040,0.058*
1,1,0.014,0.040,0.058*
%
%ADD46ROUNDEDRECTD46*%
G04:AMPARAMS|DCode=47|XSize=26mil|YSize=69mil|CornerRadius=2mil|HoleSize=0mil|Usage=FLASHONLY|Rotation=90.000|XOffset=0mil|YOffset=0mil|HoleType=Round|Shape=RoundedRectangle|*
%AMROUNDEDRECTD47*
21,1,0.026,0.065,0,0,90.0*
21,1,0.022,0.069,0,0,90.0*
1,1,0.004,0.033,0.011*
1,1,0.004,0.033,-0.011*
1,1,0.004,-0.033,-0.011*
1,1,0.004,-0.033,0.011*
%
%ADD47ROUNDEDRECTD47*%
%ADD48R,0.125X0.039*%
%ADD49R,0.051X0.079*%
%ADD50R,0.043X0.039*%
%ADD51R,0.057X0.022*%
%ADD52R,0.057X0.022*%
%ADD53R,0.051X0.043*%
%ADD54R,0.043X0.051*%
%ADD55R,0.050X0.012*%
%ADD56C,0.006*%
%ADD57C,0.012*%
%ADD58C,0.016*%
%ADD59C,0.020*%
%ADD60C,0.025*%
%ADD61C,0.030*%
%ADD62C,0.010*%
%ADD63C,0.043*%
%ADD64C,0.145*%
%ADD65C,0.079*%
%ADD66C,0.256*%
%ADD67C,0.118*%
%ADD68C,0.157*%
%ADD69C,0.055*%
%ADD70C,0.059*%
%ADD71C,0.018*%
%ADD72C,0.040*%
%ADD73C,0.007*%
%ADD74C,0.056*%
%ADD75C,0.083*%
%ADD76C,0.260*%
%ADD77C,0.099*%
%ADD78C,0.146*%
%ADD79C,0.060*%
%ADD80C,0.052*%
%ADD81C,0.032*%
G36*
X1828Y632D02*
X1828D01*
X1828Y632D01*
X1829Y632D01*
X1829Y632D01*
X1830Y632D01*
X1830Y631D01*
X1831Y631D01*
X1832Y631D01*
Y90D01*
X1828Y106D01*
X1821Y124D01*
X1811Y140D01*
X1799Y154D01*
X1784Y167D01*
X1768Y177D01*
X1750Y184D01*
X1732Y188D01*
X1713Y190D01*
X1694Y188D01*
X1675Y184D01*
X1658Y177D01*
X1641Y167D01*
X1627Y154D01*
X1614Y140D01*
X1605Y124D01*
X1597Y106D01*
X1593Y88D01*
X1591Y69D01*
X1593Y50D01*
X1597Y31D01*
X1605Y13D01*
X1614Y-3D01*
X1627Y-17D01*
X1641Y-30D01*
X1658Y-40D01*
X1675Y-47D01*
X1694Y-51D01*
X1713Y-53D01*
X1732Y-51D01*
X1750Y-47D01*
X1768Y-40D01*
X1784Y-30D01*
X1799Y-17D01*
X1811Y-3D01*
X1821Y13D01*
X1828Y31D01*
X1832Y47D01*
Y-533D01*
X1399Y-965D01*
X1399Y-964D01*
X1401Y-945D01*
X1399Y-926D01*
X1395Y-908D01*
X1388Y-890D01*
X1378Y-874D01*
X1365Y-859D01*
X1351Y-847D01*
X1335Y-837D01*
X1317Y-830D01*
X1299Y-825D01*
X1280Y-824D01*
X1261Y-825D01*
X1242Y-830D01*
X1225Y-837D01*
X1208Y-847D01*
X1194Y-859D01*
X1181Y-874D01*
X1171Y-890D01*
X1164Y-908D01*
X1160Y-925D01*
X1160Y-925D01*
X1159Y-925D01*
X1159Y-925D01*
X1158Y-925D01*
X1157Y-925D01*
X1157Y-925D01*
X1157Y-925D01*
X1157Y-925D01*
X1156Y-925D01*
X1156Y-926D01*
X1156Y-926D01*
X1156Y-926D01*
X1156Y-926D01*
X1155Y-926D01*
X1155Y-926D01*
X1155Y-926D01*
X1155Y-926D01*
X1155Y-925D01*
X1154Y-925D01*
X1154Y-925D01*
Y-925D01*
X1151Y-922D01*
X1145Y-916D01*
X1139Y-916D01*
X1135Y-916D01*
X1135D01*
D01*
X1126Y-916D01*
X1126D01*
D01*
X1116Y-916D01*
X1116D01*
X1116D01*
X1116D01*
X1116D01*
X1116D01*
X1098Y-916D01*
X1098D01*
X839Y-916D01*
X761Y-916D01*
X614Y-916D01*
X414Y-916D01*
X369Y-916D01*
D01*
X7Y-915D01*
X7D01*
X-13Y-915D01*
X-13Y-915D01*
X-455Y-915D01*
X-549Y-915D01*
D01*
X-549D01*
D01*
D01*
X-569Y-915D01*
X-569D01*
X-696Y-915D01*
X-696Y-915D01*
X-697Y-915D01*
X-697Y-915D01*
X-697Y-915D01*
D01*
X-697Y-915D01*
X-697Y-915D01*
X-698Y-915D01*
X-698Y-915D01*
X-698Y-915D01*
X-698Y-915D01*
X-698Y-915D01*
X-698Y-915D01*
X-698Y-915D01*
X-698Y-915D01*
X-698Y-915D01*
X-698Y-914D01*
X-698Y-914D01*
X-698Y-914D01*
D01*
X-698Y-914D01*
D01*
X-698Y-914D01*
X-698Y-914D01*
Y-914D01*
Y-913D01*
X-698Y-913D01*
Y-702D01*
X-698Y-701D01*
X-698Y-701D01*
X-698Y-701D01*
X-698Y-700D01*
X-697Y-700D01*
X-697Y-700D01*
X-697Y-700D01*
X-697Y-699D01*
X-696Y-697D01*
X-693Y-698D01*
X-686Y-697D01*
X-681Y-693D01*
X-677Y-687D01*
X-676Y-681D01*
X-677Y-674D01*
X-681Y-669D01*
X-686Y-665D01*
X-693Y-663D01*
X-696Y-664D01*
D01*
X-697Y-662D01*
X-697Y-662D01*
X-697Y-662D01*
X-697Y-662D01*
X-698Y-661D01*
X-698Y-661D01*
X-698Y-660D01*
X-698Y-660D01*
X-698Y-660D01*
Y-520D01*
X-698Y-520D01*
X-698Y-519D01*
X-698Y-519D01*
X-698Y-519D01*
X-698Y-518D01*
X-698Y-518D01*
X-698Y-518D01*
X-698Y-518D01*
X-698Y-518D01*
X-697Y-517D01*
X-697Y-517D01*
X-697Y-517D01*
X-697Y-517D01*
X-697Y-517D01*
X-675Y-495D01*
X-667Y-487D01*
X-667Y-487D01*
X-646Y-466D01*
X-646Y-466D01*
X-646Y-466D01*
X-629Y-449D01*
X-629Y-449D01*
X-619Y-439D01*
X-615Y-439D01*
X-608Y-438D01*
X-603Y-434D01*
X-599Y-429D01*
X-598Y-422D01*
X-598Y-418D01*
X-560Y-380D01*
X-499D01*
X-500Y-381D01*
X-506Y-384D01*
X-510Y-390D01*
X-511Y-397D01*
X-510Y-403D01*
X-506Y-409D01*
X-500Y-413D01*
X-494Y-414D01*
X-487Y-413D01*
X-481Y-409D01*
X-478Y-403D01*
X-476Y-397D01*
X-478Y-390D01*
X-481Y-384D01*
X-487Y-381D01*
X-488Y-380D01*
X-140D01*
X-142Y-382D01*
X-146Y-387D01*
X-147Y-394D01*
X-146Y-401D01*
X-142Y-406D01*
X-137Y-410D01*
X-130Y-411D01*
X-123Y-410D01*
X-118Y-406D01*
X-114Y-401D01*
X-113Y-394D01*
X-114Y-387D01*
X-118Y-382D01*
X-120Y-380D01*
X64D01*
X59Y-384D01*
X55Y-389D01*
X54Y-396D01*
X55Y-403D01*
X59Y-408D01*
X64Y-412D01*
X71Y-413D01*
X78Y-412D01*
X83Y-408D01*
X87Y-403D01*
X88Y-396D01*
X87Y-389D01*
X83Y-384D01*
X78Y-380D01*
X148D01*
X154Y-379D01*
X160Y-376D01*
X170Y-365D01*
X178D01*
X208Y-335D01*
X239Y-304D01*
X239Y-304D01*
X239Y-304D01*
X290Y-253D01*
X290Y-253D01*
X292Y-251D01*
Y40D01*
X296Y41D01*
X301Y45D01*
X305Y50D01*
X306Y57D01*
X305Y64D01*
X301Y69D01*
X296Y73D01*
X292Y74D01*
Y628D01*
X292Y628D01*
X292Y628D01*
X292Y628D01*
X292Y628D01*
X292Y628D01*
X292Y628D01*
X292Y628D01*
X292Y628D01*
X292Y629D01*
X292Y629D01*
X292Y629D01*
X292Y629D01*
X292Y629D01*
X293Y629D01*
X293Y629D01*
X293Y629D01*
X293Y629D01*
X293Y629D01*
X293Y629D01*
X294Y629D01*
X294D01*
X294D01*
X1827Y632D01*
X1827Y632D01*
X1828Y632D01*
X1828Y632D01*
D02*
G37*
G36*
X1832Y654D02*
X1830Y643D01*
X1829Y641D01*
X1828Y640D01*
X1828Y640D01*
X1827Y640D01*
X1827Y640D01*
X1827Y640D01*
X294Y637D01*
D01*
X294D01*
X293Y637D01*
X293Y637D01*
X293Y637D01*
X293D01*
X293Y637D01*
X292Y637D01*
X292Y637D01*
X291Y637D01*
X290Y637D01*
X290Y637D01*
X290Y637D01*
X290Y637D01*
X290Y636D01*
X290Y636D01*
X289Y636D01*
X289Y636D01*
X289Y636D01*
X288Y636D01*
X288Y636D01*
X288Y635D01*
D01*
X288Y635D01*
X288Y635D01*
X288Y635D01*
X288Y635D01*
X288Y635D01*
X287Y635D01*
X287Y635D01*
X287Y635D01*
X287Y635D01*
X287Y635D01*
X287Y635D01*
X287Y635D01*
X287Y635D01*
X287Y635D01*
X287Y634D01*
X287Y634D01*
X287Y634D01*
X287Y634D01*
X287Y634D01*
X287Y634D01*
X286Y634D01*
X286Y634D01*
X286Y634D01*
X286Y634D01*
X286Y634D01*
X286Y634D01*
X286Y634D01*
X286Y634D01*
X286Y634D01*
X286Y634D01*
X286Y634D01*
X286Y633D01*
X286Y633D01*
X285Y633D01*
X285Y633D01*
X285Y633D01*
X285Y633D01*
X285Y633D01*
X285Y633D01*
X285Y633D01*
X285Y633D01*
X285Y632D01*
X285Y632D01*
X285Y632D01*
X285Y632D01*
X285Y632D01*
X285Y632D01*
X285Y632D01*
X285Y631D01*
X285Y631D01*
X285Y631D01*
X285Y631D01*
X285Y631D01*
X284Y631D01*
X284Y631D01*
X284Y630D01*
X284Y630D01*
X284Y630D01*
Y630D01*
X284Y630D01*
X284Y629D01*
X284Y629D01*
X284Y629D01*
X284Y628D01*
Y74D01*
X284Y73D01*
X282Y73D01*
X277Y69D01*
X273Y64D01*
X272Y57D01*
X273Y50D01*
X277Y45D01*
X282Y41D01*
X284Y41D01*
X284Y40D01*
Y-248D01*
X284Y-248D01*
X233Y-298D01*
X233Y-298D01*
X233Y-298D01*
X208Y-324D01*
X203Y-322D01*
Y-266D01*
X202Y-260D01*
X201Y-259D01*
Y-106D01*
X201Y-106D01*
X200Y-101D01*
X197Y-96D01*
X197Y-96D01*
X177Y-76D01*
X177Y-74D01*
X173Y-69D01*
X169Y-66D01*
X172Y-62D01*
X173Y-55D01*
X172Y-48D01*
X168Y-43D01*
X163Y-39D01*
X156Y-38D01*
X149Y-39D01*
X144Y-43D01*
X140Y-48D01*
X139Y-55D01*
X140Y-62D01*
X144Y-67D01*
X148Y-70D01*
X145Y-74D01*
X144Y-81D01*
X145Y-88D01*
X149Y-93D01*
X154Y-97D01*
X159Y-98D01*
X173Y-112D01*
Y-257D01*
X146D01*
X141Y-256D01*
X134Y-257D01*
X129Y-261D01*
X125Y-266D01*
X124Y-273D01*
X125Y-280D01*
X129Y-285D01*
X134Y-289D01*
X141Y-290D01*
X146Y-289D01*
X171D01*
Y-318D01*
X141Y-348D01*
X-406D01*
X-408Y-343D01*
X-407Y-341D01*
X-405Y-334D01*
X-407Y-328D01*
X-410Y-322D01*
X-416Y-318D01*
X-423Y-317D01*
X-429Y-318D01*
X-435Y-322D01*
X-439Y-328D01*
X-440Y-334D01*
X-439Y-341D01*
X-437Y-343D01*
X-440Y-348D01*
X-584D01*
X-589Y-347D01*
X-596Y-348D01*
X-601Y-352D01*
X-605Y-357D01*
X-609Y-359D01*
X-609Y-359D01*
X-616Y-358D01*
X-623Y-359D01*
X-628Y-363D01*
X-632Y-368D01*
X-633Y-375D01*
X-632Y-382D01*
X-628Y-387D01*
X-623Y-391D01*
X-616Y-392D01*
X-609Y-391D01*
X-604Y-387D01*
X-600Y-382D01*
X-596Y-380D01*
X-596Y-380D01*
X-589Y-381D01*
X-584Y-380D01*
X-578D01*
X-576Y-385D01*
X-601Y-410D01*
X-603Y-410D01*
X-608Y-406D01*
X-615Y-405D01*
X-622Y-406D01*
X-627Y-410D01*
X-628D01*
X-633Y-406D01*
X-640Y-405D01*
X-647Y-406D01*
X-652Y-410D01*
X-656Y-415D01*
X-657Y-422D01*
X-656Y-429D01*
X-652Y-434D01*
X-647Y-438D01*
X-640Y-439D01*
X-637Y-439D01*
X-636Y-440D01*
X-635Y-443D01*
X-652Y-461D01*
X-652Y-461D01*
X-652Y-461D01*
X-652Y-461D01*
X-673Y-481D01*
X-673Y-481D01*
X-677Y-480D01*
X-678Y-480D01*
X-679Y-473D01*
X-683Y-468D01*
X-688Y-464D01*
X-695Y-463D01*
X-702Y-464D01*
X-707Y-468D01*
X-711Y-473D01*
X-712Y-480D01*
X-711Y-487D01*
X-707Y-492D01*
X-702Y-496D01*
X-695Y-497D01*
X-695Y-498D01*
X-694Y-502D01*
X-703Y-511D01*
X-703Y-511D01*
X-703Y-512D01*
X-704Y-512D01*
X-704Y-513D01*
X-704Y-513D01*
X-704Y-513D01*
X-704Y-513D01*
X-705Y-514D01*
X-705Y-514D01*
X-705Y-514D01*
X-705Y-514D01*
X-705Y-515D01*
X-705Y-515D01*
D01*
X-706Y-516D01*
X-706Y-516D01*
X-706Y-516D01*
X-706Y-516D01*
X-706Y-516D01*
X-706Y-516D01*
X-706Y-517D01*
X-706Y-517D01*
X-706Y-518D01*
X-706Y-519D01*
X-706Y-520D01*
X-706Y-520D01*
Y-660D01*
X-706Y-660D01*
X-706Y-660D01*
X-706Y-661D01*
X-706Y-661D01*
X-706Y-661D01*
X-706Y-662D01*
X-706Y-662D01*
X-706Y-662D01*
X-706Y-663D01*
X-706Y-663D01*
X-705Y-663D01*
X-705Y-664D01*
X-705Y-664D01*
X-705Y-665D01*
X-705Y-665D01*
X-704Y-667D01*
X-704Y-667D01*
X-704Y-667D01*
X-704Y-667D01*
X-705Y-669D01*
X-709Y-674D01*
X-710Y-681D01*
X-709Y-687D01*
X-705Y-693D01*
X-704Y-694D01*
X-704Y-694D01*
X-704Y-695D01*
X-705Y-697D01*
D01*
X-705Y-697D01*
X-705Y-697D01*
X-705D01*
X-705Y-697D01*
X-705Y-697D01*
Y-697D01*
X-705Y-697D01*
D01*
X-705Y-697D01*
X-705Y-698D01*
X-705Y-698D01*
X-706Y-698D01*
X-706Y-699D01*
X-706Y-699D01*
X-706Y-699D01*
X-706Y-700D01*
X-706Y-701D01*
X-706Y-701D01*
X-706Y-701D01*
X-706Y-701D01*
X-706Y-701D01*
X-706Y-702D01*
Y-913D01*
X-706Y-913D01*
Y-914D01*
Y-914D01*
X-706Y-915D01*
X-706Y-916D01*
X-706Y-917D01*
X-706Y-917D01*
X-705Y-917D01*
Y-917D01*
X-705Y-917D01*
X-705Y-917D01*
X-705Y-917D01*
X-705Y-918D01*
X-705Y-918D01*
X-705Y-918D01*
X-705Y-918D01*
X-705Y-918D01*
X-705Y-918D01*
X-705Y-918D01*
X-705Y-919D01*
X-705Y-919D01*
X-704Y-919D01*
X-704Y-919D01*
X-704Y-919D01*
X-704Y-919D01*
X-704Y-919D01*
X-704Y-919D01*
X-704Y-919D01*
X-704Y-920D01*
X-704Y-920D01*
X-704Y-920D01*
X-704Y-920D01*
X-704Y-920D01*
X-704Y-920D01*
X-704Y-920D01*
X-704Y-920D01*
X-704Y-920D01*
X-703Y-920D01*
X-703Y-920D01*
X-703Y-920D01*
X-703Y-920D01*
X-703Y-920D01*
X-703Y-920D01*
X-703Y-920D01*
X-703Y-920D01*
X-703Y-921D01*
X-703Y-921D01*
X-703Y-921D01*
X-703Y-921D01*
X-703Y-921D01*
X-703Y-921D01*
X-702Y-921D01*
X-702Y-921D01*
X-702Y-921D01*
X-702Y-921D01*
X-702Y-921D01*
X-702Y-922D01*
X-702Y-922D01*
X-701Y-922D01*
X-701Y-922D01*
X-701Y-922D01*
X-700Y-922D01*
X-700Y-923D01*
X-700Y-923D01*
X-699Y-923D01*
X-698Y-923D01*
X-698Y-923D01*
X-697Y-923D01*
X-697Y-923D01*
X-696Y-923D01*
X-696Y-923D01*
X-569Y-923D01*
X-566Y-926D01*
X-559Y-927D01*
X-552Y-926D01*
X-549Y-923D01*
D01*
X-455Y-923D01*
D01*
X-13Y-924D01*
X-13Y-924D01*
X-10Y-926D01*
X-3Y-927D01*
X4Y-926D01*
X7Y-924D01*
X369Y-924D01*
X414Y-924D01*
X543Y-924D01*
X546Y-926D01*
X553Y-927D01*
X560Y-926D01*
X563Y-924D01*
X614Y-924D01*
X761Y-924D01*
X839Y-924D01*
X1098Y-924D01*
D01*
X1100Y-926D01*
X1107Y-927D01*
X1114Y-926D01*
X1116Y-924D01*
X1116D01*
X1126Y-924D01*
X1126D01*
D01*
X1135Y-924D01*
X1139Y-924D01*
X1139D01*
D01*
X1142Y-924D01*
X1145Y-928D01*
X1148Y-931D01*
X1148Y-931D01*
X1148Y-931D01*
X1148Y-931D01*
X1148Y-931D01*
X1148Y-931D01*
X1149Y-931D01*
X1149Y-931D01*
X1149Y-932D01*
X1149Y-932D01*
X1150Y-932D01*
X1150Y-932D01*
X1150Y-933D01*
X1151Y-933D01*
X1151Y-933D01*
X1151Y-933D01*
X1152Y-933D01*
X1152Y-933D01*
X1152Y-933D01*
X1152Y-933D01*
X1152Y-933D01*
X1152Y-933D01*
X1152Y-933D01*
X1152Y-933D01*
X1153Y-933D01*
X1153Y-934D01*
X1154Y-934D01*
X1154Y-934D01*
X1154Y-934D01*
X1155Y-934D01*
X1155Y-934D01*
D01*
D01*
D01*
D01*
D01*
X1155Y-934D01*
X1155D01*
D01*
D01*
D01*
D01*
D01*
D01*
D01*
X1155D01*
X1155D01*
X1156Y-934D01*
D01*
X1158Y-943D01*
X1158Y-945D01*
X1160Y-964D01*
X1164Y-983D01*
X1171Y-1000D01*
X1181Y-1017D01*
X1194Y-1031D01*
X1204Y-1040D01*
X1203Y-1045D01*
X1002D01*
X1000Y-1041D01*
X1001Y-1034D01*
X1000Y-1027D01*
X996Y-1022D01*
X991Y-1018D01*
X984Y-1017D01*
X977Y-1018D01*
X977Y-1018D01*
X977Y-1018D01*
X975Y-1018D01*
D01*
X971Y-1013D01*
X966Y-1009D01*
X959Y-1008D01*
X952Y-1009D01*
X947Y-1013D01*
X942Y-1009D01*
X941Y-1005D01*
X937Y-1000D01*
X932Y-996D01*
X925Y-995D01*
X918Y-996D01*
X913Y-1000D01*
X909Y-1005D01*
X908Y-1012D01*
X909Y-1019D01*
X913Y-1024D01*
X918Y-1028D01*
X925Y-1029D01*
X932Y-1028D01*
X937Y-1024D01*
X942Y-1028D01*
X943Y-1032D01*
X947Y-1037D01*
X951Y-1040D01*
X949Y-1045D01*
X-1202D01*
X-1204Y-1040D01*
X-1194Y-1031D01*
X-1181Y-1017D01*
X-1171Y-1000D01*
X-1164Y-983D01*
X-1160Y-964D01*
X-1158Y-945D01*
X-1160Y-926D01*
X-1164Y-908D01*
X-1171Y-890D01*
X-1181Y-874D01*
X-1194Y-859D01*
X-1208Y-847D01*
X-1224Y-837D01*
X-1242Y-830D01*
X-1260Y-825D01*
X-1279Y-824D01*
X-1298Y-825D01*
X-1317Y-830D01*
X-1335Y-837D01*
X-1351Y-847D01*
X-1365Y-859D01*
X-1378Y-874D01*
X-1388Y-890D01*
X-1395Y-908D01*
X-1399Y-926D01*
X-1401Y-945D01*
X-1400Y-958D01*
X-1404Y-960D01*
X-1832Y-533D01*
Y204D01*
X-1827Y204D01*
X-1826Y200D01*
X-1822Y195D01*
X-1817Y191D01*
X-1810Y190D01*
X-1803Y191D01*
X-1798Y195D01*
X-1794Y200D01*
X-1793Y207D01*
X-1794Y214D01*
X-1798Y219D01*
X-1803Y223D01*
X-1810Y224D01*
X-1817Y223D01*
X-1822Y219D01*
X-1826Y214D01*
X-1827Y210D01*
X-1832Y210D01*
Y520D01*
X-1827Y521D01*
X-1825Y516D01*
X-1819Y508D01*
X-1811Y502D01*
X-1802Y499D01*
X-1792Y497D01*
X-1782Y499D01*
X-1773Y502D01*
X-1765Y508D01*
X-1764Y510D01*
X-1759Y509D01*
X-1758Y504D01*
X-1754Y499D01*
X-1749Y495D01*
X-1742Y494D01*
X-1735Y495D01*
X-1730Y499D01*
X-1726Y504D01*
X-1725Y509D01*
X-1720Y510D01*
X-1719Y508D01*
X-1711Y502D01*
X-1702Y499D01*
X-1692Y497D01*
X-1682Y499D01*
X-1673Y502D01*
X-1665Y508D01*
X-1659Y516D01*
X-1656Y525D01*
X-1654Y535D01*
X-1656Y545D01*
X-1659Y554D01*
X-1665Y562D01*
X-1673Y568D01*
X-1682Y572D01*
X-1692Y573D01*
X-1702Y572D01*
X-1711Y568D01*
X-1719Y562D01*
X-1725Y554D01*
X-1729Y545D01*
X-1730Y535D01*
X-1729Y528D01*
X-1733Y526D01*
X-1735Y527D01*
X-1742Y528D01*
X-1749Y527D01*
X-1751Y525D01*
X-1755Y528D01*
X-1754Y535D01*
X-1756Y545D01*
X-1759Y554D01*
X-1765Y562D01*
X-1773Y568D01*
X-1782Y572D01*
X-1792Y573D01*
X-1802Y572D01*
X-1811Y568D01*
X-1819Y562D01*
X-1825Y554D01*
X-1827Y549D01*
X-1832Y550D01*
Y620D01*
X-1827Y621D01*
X-1825Y616D01*
X-1819Y608D01*
X-1811Y602D01*
X-1802Y599D01*
X-1792Y597D01*
X-1782Y599D01*
X-1773Y602D01*
X-1765Y608D01*
X-1759Y616D01*
X-1756Y625D01*
X-1754Y635D01*
X-1756Y645D01*
X-1759Y654D01*
X-1765Y662D01*
X-1773Y668D01*
X-1782Y672D01*
X-1792Y673D01*
X-1802Y672D01*
X-1811Y668D01*
X-1819Y662D01*
X-1825Y654D01*
X-1827Y649D01*
X-1832Y650D01*
Y720D01*
X-1827Y721D01*
X-1825Y716D01*
X-1819Y708D01*
X-1811Y702D01*
X-1802Y699D01*
X-1792Y697D01*
X-1782Y699D01*
X-1773Y702D01*
X-1765Y708D01*
X-1759Y716D01*
X-1756Y725D01*
X-1754Y735D01*
X-1756Y745D01*
X-1759Y754D01*
X-1765Y762D01*
X-1773Y768D01*
X-1782Y772D01*
X-1792Y773D01*
X-1802Y772D01*
X-1811Y768D01*
X-1819Y762D01*
X-1825Y754D01*
X-1827Y749D01*
X-1832Y750D01*
Y820D01*
X-1827Y821D01*
X-1825Y816D01*
X-1819Y808D01*
X-1811Y802D01*
X-1802Y799D01*
X-1792Y797D01*
X-1782Y799D01*
X-1773Y802D01*
X-1765Y808D01*
X-1759Y816D01*
X-1756Y825D01*
X-1754Y835D01*
X-1756Y845D01*
X-1759Y854D01*
X-1765Y862D01*
X-1773Y868D01*
X-1782Y872D01*
X-1792Y873D01*
X-1802Y872D01*
X-1811Y868D01*
X-1819Y862D01*
X-1825Y854D01*
X-1827Y849D01*
X-1832Y850D01*
Y1014D01*
X-1540D01*
X-1539Y1009D01*
X-1548Y1004D01*
X-1562Y991D01*
X-1575Y977D01*
X-1585Y961D01*
X-1592Y943D01*
X-1596Y924D01*
X-1598Y906D01*
X-1596Y887D01*
X-1592Y868D01*
X-1585Y850D01*
X-1575Y834D01*
X-1562Y820D01*
X-1548Y807D01*
X-1531Y797D01*
X-1514Y790D01*
X-1495Y786D01*
X-1476Y784D01*
X-1457Y786D01*
X-1439Y790D01*
X-1421Y797D01*
X-1405Y807D01*
X-1391Y820D01*
X-1378Y834D01*
X-1368Y850D01*
X-1361Y868D01*
X-1356Y887D01*
X-1355Y906D01*
X-1356Y924D01*
X-1361Y943D01*
X-1368Y961D01*
X-1378Y977D01*
X-1391Y991D01*
X-1405Y1004D01*
X-1421Y1014D01*
X-1421Y1014D01*
X1832D01*
Y654D01*
D02*
G37*
%LPC*%
G36*
X600Y-229D02*
X593Y-230D01*
X588Y-234D01*
X584Y-239D01*
X583Y-246D01*
X584Y-253D01*
X588Y-258D01*
X593Y-262D01*
X600Y-263D01*
X607Y-262D01*
X610Y-260D01*
X609Y-265D01*
X610Y-272D01*
X614Y-277D01*
X619Y-281D01*
X626Y-282D01*
X633Y-281D01*
X638Y-277D01*
X642Y-272D01*
X643Y-265D01*
X642Y-258D01*
X638Y-253D01*
X633Y-249D01*
X626Y-248D01*
X619Y-249D01*
X616Y-251D01*
X617Y-246D01*
X616Y-239D01*
X612Y-234D01*
X607Y-230D01*
X600Y-229D01*
D02*
G37*
G36*
X-615Y-254D02*
X-621Y-256D01*
X-627Y-260D01*
X-631Y-265D01*
X-632Y-272D01*
X-631Y-278D01*
X-627Y-284D01*
X-621Y-288D01*
X-615Y-289D01*
X-608Y-288D01*
X-603Y-284D01*
X-599Y-278D01*
X-597Y-272D01*
X-599Y-265D01*
X-603Y-260D01*
X-608Y-256D01*
X-615Y-254D01*
D02*
G37*
G36*
X-1310Y-156D02*
X-1317Y-157D01*
X-1322Y-161D01*
X-1326Y-166D01*
X-1327Y-173D01*
X-1326Y-180D01*
X-1323Y-184D01*
X-1325Y-186D01*
X-1329Y-191D01*
X-1330Y-198D01*
X-1329Y-205D01*
X-1328Y-207D01*
X-1328Y-207D01*
X-1333Y-211D01*
X-1337Y-216D01*
X-1338Y-223D01*
X-1337Y-230D01*
X-1333Y-235D01*
X-1328Y-239D01*
X-1326Y-239D01*
X-1327Y-245D01*
X-1326Y-252D01*
X-1322Y-257D01*
X-1316Y-261D01*
X-1310Y-263D01*
X-1303Y-261D01*
X-1297Y-257D01*
X-1294Y-252D01*
X-1292Y-245D01*
X-1294Y-239D01*
X-1297Y-233D01*
X-1303Y-229D01*
X-1305Y-229D01*
X-1304Y-223D01*
X-1305Y-216D01*
X-1306Y-214D01*
X-1306Y-214D01*
X-1301Y-210D01*
X-1297Y-205D01*
X-1296Y-198D01*
X-1297Y-191D01*
X-1299Y-189D01*
X-1298Y-185D01*
X-1298Y-185D01*
X-1298D01*
X-1294Y-180D01*
X-1293Y-173D01*
X-1294Y-166D01*
X-1298Y-161D01*
X-1303Y-157D01*
X-1310Y-156D01*
D02*
G37*
G36*
X-391Y-230D02*
X-397Y-232D01*
X-403Y-235D01*
X-407Y-241D01*
X-408Y-248D01*
X-407Y-254D01*
X-403Y-260D01*
X-397Y-264D01*
X-391Y-265D01*
X-384Y-264D01*
X-378Y-260D01*
X-375Y-254D01*
X-373Y-248D01*
X-375Y-241D01*
X-378Y-235D01*
X-384Y-232D01*
X-391Y-230D01*
D02*
G37*
G36*
X-235Y-245D02*
X-242Y-246D01*
X-247Y-250D01*
X-251Y-255D01*
X-252Y-262D01*
X-251Y-269D01*
X-247Y-274D01*
X-242Y-278D01*
X-235Y-279D01*
X-228Y-278D01*
X-223Y-274D01*
X-219Y-269D01*
X-218Y-262D01*
X-219Y-255D01*
X-223Y-250D01*
X-228Y-246D01*
X-235Y-245D01*
D02*
G37*
G36*
X719Y-263D02*
X712Y-264D01*
X707Y-268D01*
X703Y-273D01*
X702Y-280D01*
X703Y-287D01*
X707Y-292D01*
X712Y-296D01*
X719Y-297D01*
X726Y-296D01*
X731Y-292D01*
X735Y-287D01*
X736Y-280D01*
X735Y-273D01*
X731Y-268D01*
X726Y-264D01*
X719Y-263D01*
D02*
G37*
G36*
X-1324Y-312D02*
X-1331Y-313D01*
X-1336Y-317D01*
X-1337Y-318D01*
X-1342Y-315D01*
X-1349Y-314D01*
X-1356Y-315D01*
X-1361Y-319D01*
X-1365Y-324D01*
X-1365Y-324D01*
Y-324D01*
X-1369Y-327D01*
X-1371Y-327D01*
X-1378Y-328D01*
X-1383Y-332D01*
X-1387Y-337D01*
X-1388Y-344D01*
X-1387Y-351D01*
X-1383Y-356D01*
X-1378Y-360D01*
X-1371Y-361D01*
X-1364Y-360D01*
X-1359Y-356D01*
X-1355Y-351D01*
X-1355Y-351D01*
Y-351D01*
X-1351Y-348D01*
X-1349Y-348D01*
X-1342Y-347D01*
X-1337Y-343D01*
X-1336Y-342D01*
X-1331Y-345D01*
X-1324Y-346D01*
X-1318Y-345D01*
X-1312Y-341D01*
X-1308Y-336D01*
X-1307Y-329D01*
X-1308Y-322D01*
X-1312Y-317D01*
X-1318Y-313D01*
X-1324Y-312D01*
D02*
G37*
G36*
X871Y-263D02*
X864Y-264D01*
X859Y-268D01*
X855Y-273D01*
X854Y-280D01*
X855Y-287D01*
X859Y-292D01*
X864Y-296D01*
X871Y-297D01*
X878Y-296D01*
X883Y-292D01*
X887Y-287D01*
X888Y-280D01*
X887Y-273D01*
X883Y-268D01*
X878Y-264D01*
X871Y-263D01*
D02*
G37*
G36*
X-1614Y-260D02*
X-1621Y-261D01*
X-1626Y-265D01*
X-1630Y-270D01*
X-1631Y-277D01*
X-1630Y-284D01*
X-1626Y-289D01*
X-1621Y-293D01*
X-1614Y-294D01*
X-1607Y-293D01*
X-1602Y-289D01*
X-1598Y-284D01*
X-1597Y-277D01*
X-1598Y-270D01*
X-1602Y-265D01*
X-1607Y-261D01*
X-1614Y-260D01*
D02*
G37*
G36*
X-1148Y-291D02*
X-1155Y-292D01*
X-1160Y-296D01*
X-1160Y-296D01*
X-1165Y-297D01*
X-1168Y-295D01*
X-1175Y-294D01*
X-1182Y-295D01*
X-1187Y-299D01*
X-1191Y-304D01*
X-1192Y-311D01*
X-1191Y-318D01*
X-1187Y-323D01*
X-1182Y-327D01*
X-1175Y-328D01*
X-1168Y-327D01*
X-1163Y-323D01*
X-1163Y-323D01*
X-1158Y-322D01*
X-1155Y-324D01*
X-1148Y-325D01*
X-1147Y-327D01*
X-1147Y-331D01*
X-1146Y-338D01*
X-1142Y-343D01*
X-1137Y-347D01*
X-1130Y-348D01*
X-1123Y-347D01*
X-1118Y-343D01*
X-1114Y-338D01*
X-1113Y-331D01*
X-1114Y-324D01*
X-1118Y-319D01*
X-1123Y-315D01*
X-1130Y-314D01*
X-1131Y-312D01*
X-1131Y-308D01*
X-1132Y-301D01*
X-1136Y-296D01*
X-1141Y-292D01*
X-1148Y-291D01*
D02*
G37*
G36*
X-150Y-222D02*
X-157Y-223D01*
X-162Y-227D01*
X-166Y-232D01*
X-167Y-239D01*
X-166Y-246D01*
X-162Y-251D01*
X-157Y-255D01*
X-150Y-256D01*
X-143Y-255D01*
X-138Y-251D01*
X-134Y-246D01*
X-133Y-239D01*
X-134Y-232D01*
X-138Y-227D01*
X-143Y-223D01*
X-150Y-222D01*
D02*
G37*
G36*
X-207Y-202D02*
X-214Y-203D01*
X-219Y-207D01*
X-223Y-212D01*
X-224Y-219D01*
X-223Y-226D01*
X-219Y-231D01*
X-214Y-235D01*
X-207Y-236D01*
X-200Y-235D01*
X-195Y-231D01*
X-191Y-226D01*
X-190Y-219D01*
X-191Y-212D01*
X-195Y-207D01*
X-200Y-203D01*
X-207Y-202D01*
D02*
G37*
G36*
X1536Y-209D02*
X1529Y-210D01*
X1524Y-214D01*
X1520Y-219D01*
X1519Y-226D01*
X1520Y-233D01*
X1524Y-238D01*
X1529Y-242D01*
X1536Y-243D01*
X1543Y-242D01*
X1548Y-238D01*
X1552Y-233D01*
X1553Y-226D01*
X1552Y-219D01*
X1548Y-214D01*
X1543Y-210D01*
X1536Y-209D01*
D02*
G37*
G36*
X-1190Y-192D02*
X-1197Y-193D01*
X-1202Y-197D01*
X-1206Y-202D01*
X-1207Y-209D01*
X-1206Y-216D01*
X-1202Y-221D01*
X-1197Y-225D01*
X-1190Y-226D01*
X-1183Y-225D01*
X-1178Y-221D01*
X-1174Y-216D01*
X-1173Y-209D01*
X-1174Y-202D01*
X-1178Y-197D01*
X-1183Y-193D01*
X-1190Y-192D01*
D02*
G37*
G36*
X-1716Y-189D02*
X-1723Y-190D01*
X-1728Y-194D01*
X-1732Y-199D01*
X-1733Y-206D01*
X-1732Y-213D01*
X-1728Y-218D01*
X-1723Y-222D01*
X-1716Y-223D01*
X-1709Y-222D01*
X-1704Y-218D01*
X-1700Y-213D01*
X-1699Y-206D01*
X-1700Y-199D01*
X-1704Y-194D01*
X-1709Y-190D01*
X-1716Y-189D01*
D02*
G37*
G36*
X1149Y-191D02*
X1142Y-192D01*
X1137Y-196D01*
X1133Y-201D01*
X1132Y-208D01*
X1133Y-215D01*
X1137Y-220D01*
X1142Y-224D01*
X1149Y-225D01*
X1156Y-224D01*
X1161Y-220D01*
X1165Y-215D01*
X1166Y-208D01*
X1165Y-201D01*
X1161Y-196D01*
X1156Y-192D01*
X1149Y-191D01*
D02*
G37*
G36*
X-733Y-218D02*
X-740Y-219D01*
X-745Y-223D01*
X-749Y-228D01*
X-750Y-235D01*
X-749Y-242D01*
X-745Y-247D01*
X-740Y-251D01*
X-733Y-252D01*
X-726Y-251D01*
X-721Y-247D01*
X-717Y-242D01*
X-716Y-235D01*
X-717Y-228D01*
X-721Y-223D01*
X-726Y-219D01*
X-733Y-218D01*
D02*
G37*
G36*
X-86Y-220D02*
X-93Y-221D01*
X-98Y-225D01*
X-102Y-230D01*
X-103Y-237D01*
X-102Y-244D01*
X-98Y-249D01*
X-93Y-253D01*
X-86Y-254D01*
X-79Y-253D01*
X-74Y-249D01*
X-70Y-244D01*
X-69Y-237D01*
X-70Y-230D01*
X-74Y-225D01*
X-79Y-221D01*
X-86Y-220D01*
D02*
G37*
G36*
X-1250Y-192D02*
X-1257Y-193D01*
X-1262Y-197D01*
X-1266Y-202D01*
X-1267Y-209D01*
X-1266Y-216D01*
X-1262Y-221D01*
X-1257Y-225D01*
X-1250Y-226D01*
X-1249Y-227D01*
X-1249Y-229D01*
X-1248Y-236D01*
X-1244Y-241D01*
X-1239Y-245D01*
X-1232Y-246D01*
X-1225Y-245D01*
X-1220Y-241D01*
X-1216Y-236D01*
X-1215Y-229D01*
X-1216Y-222D01*
X-1220Y-217D01*
X-1225Y-213D01*
X-1232Y-212D01*
X-1233Y-211D01*
X-1233Y-209D01*
X-1234Y-202D01*
X-1238Y-197D01*
X-1243Y-193D01*
X-1250Y-192D01*
D02*
G37*
G36*
X-1410Y-131D02*
X-1417Y-132D01*
X-1422Y-136D01*
X-1426Y-142D01*
X-1427Y-148D01*
X-1426Y-155D01*
X-1422Y-160D01*
X-1417Y-164D01*
X-1417Y-164D01*
X-1417Y-166D01*
Y-166D01*
X-1418Y-172D01*
X-1417Y-179D01*
X-1413Y-185D01*
X-1413Y-185D01*
X-1416Y-190D01*
X-1418Y-197D01*
X-1417Y-200D01*
X-1421Y-201D01*
X-1426Y-205D01*
X-1430Y-210D01*
X-1431Y-217D01*
X-1430Y-224D01*
X-1426Y-229D01*
X-1421Y-233D01*
X-1414Y-234D01*
X-1407Y-233D01*
X-1402Y-229D01*
X-1398Y-224D01*
X-1397Y-217D01*
X-1397Y-216D01*
X-1393Y-213D01*
X-1390Y-216D01*
X-1392Y-219D01*
X-1393Y-226D01*
X-1392Y-233D01*
X-1388Y-238D01*
X-1383Y-242D01*
X-1376Y-243D01*
X-1369Y-242D01*
X-1364Y-238D01*
X-1360Y-233D01*
X-1359Y-226D01*
X-1360Y-219D01*
X-1364Y-214D01*
X-1369Y-210D01*
X-1376Y-209D01*
X-1383Y-210D01*
X-1383Y-210D01*
X-1386Y-207D01*
X-1384Y-203D01*
X-1383Y-197D01*
X-1384Y-190D01*
X-1388Y-184D01*
X-1388Y-184D01*
X-1385Y-179D01*
X-1384Y-172D01*
X-1385Y-166D01*
X-1389Y-160D01*
X-1394Y-156D01*
X-1395Y-156D01*
X-1394Y-155D01*
X-1393Y-148D01*
X-1394Y-142D01*
X-1398Y-136D01*
X-1403Y-132D01*
X-1410Y-131D01*
D02*
G37*
G36*
X-1124Y-212D02*
X-1131Y-213D01*
X-1136Y-217D01*
X-1140Y-222D01*
X-1141Y-229D01*
X-1140Y-236D01*
X-1136Y-241D01*
X-1131Y-245D01*
X-1124Y-246D01*
X-1117Y-245D01*
X-1112Y-241D01*
X-1108Y-236D01*
X-1107Y-229D01*
X-1108Y-222D01*
X-1112Y-217D01*
X-1117Y-213D01*
X-1124Y-212D01*
D02*
G37*
G36*
X-890Y-316D02*
X-897Y-317D01*
X-902Y-321D01*
X-906Y-326D01*
X-907Y-331D01*
X-912Y-332D01*
X-915Y-328D01*
X-920Y-324D01*
X-927Y-323D01*
X-934Y-324D01*
X-939Y-328D01*
X-943Y-333D01*
X-944Y-340D01*
X-943Y-347D01*
X-939Y-352D01*
X-934Y-356D01*
X-927Y-357D01*
X-920Y-356D01*
X-915Y-352D01*
X-911Y-347D01*
X-910Y-342D01*
X-905Y-341D01*
X-902Y-345D01*
X-897Y-349D01*
X-890Y-350D01*
X-883Y-349D01*
X-878Y-345D01*
X-874Y-340D01*
X-873Y-333D01*
X-874Y-326D01*
X-878Y-321D01*
X-883Y-317D01*
X-890Y-316D01*
D02*
G37*
G36*
X-301Y-381D02*
X-308Y-382D01*
X-313Y-386D01*
X-317Y-391D01*
X-318Y-398D01*
X-317Y-405D01*
X-313Y-410D01*
X-308Y-414D01*
X-301Y-415D01*
X-294Y-414D01*
X-289Y-410D01*
X-285Y-405D01*
X-284Y-398D01*
X-285Y-391D01*
X-289Y-386D01*
X-294Y-382D01*
X-301Y-381D01*
D02*
G37*
G36*
X1178Y-409D02*
X1171Y-410D01*
X1166Y-414D01*
X1162Y-419D01*
X1161Y-426D01*
X1162Y-433D01*
X1166Y-438D01*
X1171Y-442D01*
X1178Y-443D01*
X1185Y-442D01*
X1190Y-438D01*
X1194Y-433D01*
X1195Y-426D01*
X1194Y-419D01*
X1190Y-414D01*
X1185Y-410D01*
X1178Y-409D01*
D02*
G37*
G36*
X-1460Y-308D02*
X-1466Y-309D01*
X-1472Y-313D01*
X-1476Y-319D01*
X-1477Y-325D01*
X-1476Y-332D01*
X-1472Y-338D01*
X-1466Y-341D01*
X-1462Y-342D01*
X-1461Y-344D01*
X-1462Y-351D01*
X-1461Y-358D01*
X-1457Y-363D01*
Y-366D01*
X-1461Y-371D01*
X-1462Y-378D01*
X-1461Y-385D01*
X-1457Y-390D01*
X-1452Y-394D01*
X-1445Y-395D01*
D01*
X-1443Y-396D01*
D01*
X-1442Y-403D01*
X-1438Y-408D01*
X-1433Y-412D01*
X-1426Y-413D01*
X-1419Y-412D01*
X-1414Y-408D01*
X-1410Y-403D01*
X-1409Y-396D01*
X-1410Y-389D01*
X-1414Y-384D01*
X-1419Y-380D01*
X-1426Y-379D01*
D01*
X-1428Y-378D01*
X-1429Y-371D01*
X-1433Y-366D01*
Y-363D01*
X-1429Y-358D01*
X-1428Y-351D01*
X-1429Y-344D01*
X-1433Y-339D01*
X-1438Y-335D01*
X-1443Y-334D01*
X-1444Y-332D01*
X-1442Y-325D01*
X-1444Y-319D01*
X-1448Y-313D01*
X-1453Y-309D01*
X-1460Y-308D01*
D02*
G37*
G36*
X1636Y-375D02*
X1630Y-377D01*
X1624Y-380D01*
X1620Y-386D01*
X1619Y-393D01*
X1620Y-399D01*
X1624Y-405D01*
X1630Y-409D01*
X1636Y-410D01*
X1643Y-409D01*
X1649Y-405D01*
X1652Y-399D01*
X1654Y-393D01*
X1652Y-386D01*
X1649Y-380D01*
X1643Y-377D01*
X1636Y-375D01*
D02*
G37*
G36*
X-1119Y-379D02*
X-1126Y-380D01*
X-1131Y-384D01*
X-1135Y-389D01*
X-1136Y-396D01*
X-1135Y-403D01*
X-1131Y-408D01*
X-1126Y-412D01*
X-1119Y-413D01*
X-1112Y-412D01*
X-1107Y-408D01*
X-1103Y-403D01*
X-1102Y-396D01*
X-1103Y-389D01*
X-1107Y-384D01*
X-1112Y-380D01*
X-1119Y-379D01*
D02*
G37*
G36*
X1457Y-425D02*
X1450Y-426D01*
X1445Y-430D01*
X1441Y-435D01*
X1440Y-442D01*
X1441Y-449D01*
X1445Y-454D01*
X1450Y-458D01*
X1457Y-459D01*
X1464Y-458D01*
X1469Y-454D01*
X1473Y-449D01*
X1474Y-442D01*
X1473Y-435D01*
X1469Y-430D01*
X1464Y-426D01*
X1457Y-425D01*
D02*
G37*
G36*
X1289Y-438D02*
X1282Y-439D01*
X1277Y-443D01*
X1273Y-448D01*
X1272Y-455D01*
X1273Y-462D01*
X1277Y-467D01*
X1282Y-471D01*
X1289Y-472D01*
X1296Y-471D01*
X1301Y-467D01*
X1305Y-462D01*
X1306Y-455D01*
X1305Y-448D01*
X1301Y-443D01*
X1296Y-439D01*
X1289Y-438D01*
D02*
G37*
G36*
X-1591D02*
X-1598Y-439D01*
X-1603Y-443D01*
X-1607Y-448D01*
X-1608Y-455D01*
X-1607Y-462D01*
X-1603Y-467D01*
X-1598Y-471D01*
X-1591Y-472D01*
X-1584Y-471D01*
X-1579Y-467D01*
X-1575Y-462D01*
X-1574Y-455D01*
X-1575Y-448D01*
X-1579Y-443D01*
X-1584Y-439D01*
X-1591Y-438D01*
D02*
G37*
G36*
X-1194Y-412D02*
X-1201Y-413D01*
X-1206Y-417D01*
X-1210Y-422D01*
X-1211Y-429D01*
X-1210Y-436D01*
X-1206Y-441D01*
X-1201Y-445D01*
X-1194Y-446D01*
X-1193Y-451D01*
X-1193Y-453D01*
X-1192Y-460D01*
X-1188Y-465D01*
X-1183Y-469D01*
X-1176Y-470D01*
X-1169Y-469D01*
X-1164Y-465D01*
X-1160Y-460D01*
X-1159Y-453D01*
X-1160Y-446D01*
X-1164Y-441D01*
X-1169Y-437D01*
X-1176Y-436D01*
X-1177Y-431D01*
X-1177Y-429D01*
X-1178Y-422D01*
X-1182Y-417D01*
X-1187Y-413D01*
X-1194Y-412D01*
D02*
G37*
G36*
X-543Y-391D02*
X-550Y-392D01*
X-555Y-396D01*
X-559Y-401D01*
X-560Y-408D01*
X-559Y-415D01*
X-555Y-420D01*
X-550Y-424D01*
X-546Y-425D01*
X-553Y-426D01*
X-558Y-430D01*
X-562Y-435D01*
X-563Y-442D01*
X-562Y-449D01*
X-558Y-454D01*
X-553Y-458D01*
X-546Y-459D01*
X-539Y-458D01*
X-534Y-454D01*
X-530Y-449D01*
X-529Y-442D01*
X-530Y-435D01*
X-534Y-430D01*
X-539Y-426D01*
X-543Y-425D01*
X-536Y-424D01*
X-531Y-420D01*
X-527Y-415D01*
X-526Y-408D01*
X-527Y-401D01*
X-531Y-396D01*
X-536Y-392D01*
X-543Y-391D01*
D02*
G37*
G36*
X77Y-427D02*
X70Y-428D01*
X65Y-432D01*
X61Y-437D01*
X60Y-444D01*
X61Y-451D01*
X65Y-456D01*
X70Y-460D01*
X77Y-461D01*
X84Y-460D01*
X89Y-456D01*
X93Y-451D01*
X94Y-444D01*
X93Y-437D01*
X89Y-432D01*
X84Y-428D01*
X77Y-427D01*
D02*
G37*
G36*
X-814Y-314D02*
X-821Y-315D01*
X-826Y-319D01*
X-830Y-324D01*
X-831Y-331D01*
X-830Y-338D01*
X-826Y-343D01*
X-821Y-347D01*
X-814Y-348D01*
X-807Y-347D01*
X-802Y-343D01*
X-798Y-338D01*
X-797Y-331D01*
X-798Y-324D01*
X-802Y-319D01*
X-807Y-315D01*
X-814Y-314D01*
D02*
G37*
G36*
X-1702Y-321D02*
X-1708Y-322D01*
X-1714Y-326D01*
X-1718Y-331D01*
X-1719Y-338D01*
X-1718Y-345D01*
X-1714Y-350D01*
X-1708Y-354D01*
X-1702Y-355D01*
X-1695Y-354D01*
X-1689Y-350D01*
X-1686Y-345D01*
X-1684Y-338D01*
X-1686Y-331D01*
X-1689Y-326D01*
X-1695Y-322D01*
X-1702Y-321D01*
D02*
G37*
G36*
X-1560Y-312D02*
X-1567Y-313D01*
X-1572Y-317D01*
X-1576Y-322D01*
X-1577Y-329D01*
X-1576Y-336D01*
X-1572Y-341D01*
X-1567Y-345D01*
X-1560Y-346D01*
X-1553Y-345D01*
X-1548Y-341D01*
X-1544Y-336D01*
X-1543Y-329D01*
X-1544Y-322D01*
X-1548Y-317D01*
X-1553Y-313D01*
X-1560Y-312D01*
D02*
G37*
G36*
X508Y-305D02*
X501Y-306D01*
X496Y-310D01*
X492Y-315D01*
X491Y-322D01*
X492Y-329D01*
X496Y-334D01*
X501Y-338D01*
X508Y-339D01*
X515Y-338D01*
X520Y-334D01*
X524Y-329D01*
X525Y-322D01*
X524Y-315D01*
X520Y-310D01*
X515Y-306D01*
X508Y-305D01*
D02*
G37*
G36*
X1314Y-307D02*
X1307Y-308D01*
X1301Y-312D01*
X1298Y-318D01*
X1296Y-324D01*
X1298Y-331D01*
X1301Y-337D01*
X1307Y-340D01*
X1314Y-342D01*
X1320Y-340D01*
X1326Y-337D01*
X1330Y-331D01*
X1331Y-324D01*
X1330Y-318D01*
X1326Y-312D01*
X1320Y-308D01*
X1314Y-307D01*
D02*
G37*
G36*
X705Y-324D02*
X699Y-325D01*
X693Y-329D01*
X689Y-335D01*
X688Y-341D01*
X689Y-348D01*
X693Y-354D01*
X699Y-357D01*
X705Y-359D01*
X712Y-357D01*
X718Y-354D01*
X721Y-348D01*
X723Y-341D01*
X721Y-335D01*
X718Y-329D01*
X712Y-325D01*
X705Y-324D01*
D02*
G37*
G36*
X-1528Y-356D02*
X-1535Y-357D01*
X-1540Y-361D01*
X-1544Y-366D01*
X-1545Y-373D01*
X-1544Y-380D01*
X-1540Y-385D01*
X-1535Y-389D01*
X-1528Y-390D01*
X-1521Y-389D01*
X-1519Y-388D01*
X-1515Y-390D01*
X-1514Y-393D01*
X-1510Y-398D01*
X-1505Y-402D01*
X-1498Y-403D01*
X-1491Y-402D01*
X-1486Y-398D01*
X-1482Y-393D01*
X-1481Y-386D01*
X-1482Y-379D01*
X-1486Y-374D01*
X-1491Y-370D01*
X-1498Y-369D01*
X-1505Y-370D01*
X-1507Y-371D01*
X-1511Y-369D01*
X-1512Y-366D01*
X-1516Y-361D01*
X-1521Y-357D01*
X-1528Y-356D01*
D02*
G37*
G36*
X1597Y-374D02*
X1591Y-376D01*
X1585Y-379D01*
X1581Y-385D01*
X1580Y-392D01*
X1581Y-398D01*
X1585Y-404D01*
X1591Y-408D01*
X1597Y-409D01*
X1604Y-408D01*
X1610Y-404D01*
X1613Y-398D01*
X1615Y-392D01*
X1613Y-385D01*
X1610Y-379D01*
X1604Y-376D01*
X1597Y-374D01*
D02*
G37*
G36*
X278Y-367D02*
X271Y-369D01*
X265Y-372D01*
X262Y-378D01*
X260Y-385D01*
X262Y-391D01*
X265Y-397D01*
X271Y-401D01*
X278Y-402D01*
X284Y-401D01*
X290Y-397D01*
X294Y-391D01*
X295Y-385D01*
X294Y-378D01*
X290Y-372D01*
X284Y-369D01*
X278Y-367D01*
D02*
G37*
G36*
X-1664Y-366D02*
X-1671Y-367D01*
X-1676Y-371D01*
X-1680Y-376D01*
X-1681Y-383D01*
X-1681Y-383D01*
X-1685Y-387D01*
X-1685Y-387D01*
X-1692Y-388D01*
X-1697Y-392D01*
X-1701Y-397D01*
X-1701Y-398D01*
X-1706Y-399D01*
X-1708Y-396D01*
X-1714Y-392D01*
X-1720Y-391D01*
X-1727Y-392D01*
X-1733Y-396D01*
X-1736Y-402D01*
X-1738Y-408D01*
X-1736Y-415D01*
X-1733Y-421D01*
X-1727Y-424D01*
X-1720Y-426D01*
X-1714Y-424D01*
X-1708Y-421D01*
X-1704Y-415D01*
X-1704Y-414D01*
X-1699Y-413D01*
X-1697Y-416D01*
X-1692Y-420D01*
X-1685Y-421D01*
X-1678Y-420D01*
X-1673Y-416D01*
X-1669Y-411D01*
X-1668Y-404D01*
X-1668Y-404D01*
X-1664Y-400D01*
X-1664Y-400D01*
X-1657Y-399D01*
X-1654Y-397D01*
X-1654Y-397D01*
D01*
X-1651Y-400D01*
X-1654Y-405D01*
X-1655Y-412D01*
X-1654Y-419D01*
X-1650Y-424D01*
X-1645Y-428D01*
X-1638Y-429D01*
X-1631Y-428D01*
X-1626Y-424D01*
X-1622Y-419D01*
X-1621Y-412D01*
X-1622Y-405D01*
X-1626Y-400D01*
X-1631Y-396D01*
X-1638Y-395D01*
X-1645Y-396D01*
X-1648Y-398D01*
X-1648Y-398D01*
D01*
X-1651Y-395D01*
X-1648Y-390D01*
X-1647Y-383D01*
X-1648Y-376D01*
X-1652Y-371D01*
X-1657Y-367D01*
X-1664Y-366D01*
D02*
G37*
G36*
X1536Y-361D02*
X1529Y-362D01*
X1524Y-366D01*
X1520Y-371D01*
X1519Y-378D01*
X1520Y-385D01*
X1524Y-390D01*
X1529Y-394D01*
X1536Y-395D01*
X1543Y-394D01*
X1548Y-390D01*
X1552Y-385D01*
X1553Y-378D01*
X1552Y-371D01*
X1548Y-366D01*
X1543Y-362D01*
X1536Y-361D01*
D02*
G37*
G36*
X-304Y-20D02*
X-311Y-21D01*
X-316Y-25D01*
X-320Y-30D01*
X-321Y-37D01*
X-320Y-44D01*
X-316Y-49D01*
X-311Y-53D01*
X-304Y-54D01*
X-297Y-53D01*
X-292Y-49D01*
X-288Y-44D01*
X-287Y-37D01*
X-288Y-30D01*
X-292Y-25D01*
X-297Y-21D01*
X-304Y-20D01*
D02*
G37*
G36*
X-936Y-22D02*
X-943Y-23D01*
X-948Y-27D01*
X-952Y-32D01*
X-953Y-39D01*
X-952Y-46D01*
X-948Y-51D01*
X-943Y-55D01*
X-936Y-56D01*
X-929Y-55D01*
X-924Y-51D01*
X-920Y-46D01*
X-919Y-39D01*
X-920Y-32D01*
X-924Y-27D01*
X-929Y-23D01*
X-936Y-22D01*
D02*
G37*
G36*
X-467Y-20D02*
X-474Y-21D01*
X-479Y-25D01*
X-483Y-30D01*
X-484Y-37D01*
X-483Y-44D01*
X-479Y-49D01*
X-474Y-53D01*
X-467Y-54D01*
X-460Y-53D01*
X-455Y-49D01*
X-451Y-44D01*
X-450Y-37D01*
X-451Y-30D01*
X-455Y-25D01*
X-460Y-21D01*
X-467Y-20D01*
D02*
G37*
G36*
X-633Y-17D02*
X-640Y-18D01*
X-645Y-22D01*
X-649Y-27D01*
X-650Y-34D01*
X-649Y-41D01*
X-645Y-46D01*
X-640Y-50D01*
X-633Y-51D01*
X-626Y-50D01*
X-621Y-46D01*
X-617Y-41D01*
X-616Y-34D01*
X-617Y-27D01*
X-621Y-22D01*
X-626Y-18D01*
X-633Y-17D01*
D02*
G37*
G36*
X638Y-18D02*
X631Y-19D01*
X626Y-23D01*
X622Y-28D01*
X621Y-35D01*
X622Y-42D01*
X626Y-47D01*
X631Y-51D01*
X638Y-52D01*
X645Y-51D01*
X650Y-47D01*
X654Y-42D01*
X655Y-35D01*
X654Y-28D01*
X650Y-23D01*
X645Y-19D01*
X638Y-18D01*
D02*
G37*
G36*
X1362Y-37D02*
X1355Y-38D01*
X1350Y-42D01*
X1346Y-47D01*
X1345Y-54D01*
X1346Y-61D01*
X1350Y-66D01*
X1355Y-70D01*
X1362Y-71D01*
X1369Y-70D01*
X1374Y-66D01*
X1378Y-61D01*
X1379Y-54D01*
X1378Y-47D01*
X1374Y-42D01*
X1369Y-38D01*
X1362Y-37D01*
D02*
G37*
G36*
X-1376Y-50D02*
X-1383Y-51D01*
X-1388Y-55D01*
X-1392Y-60D01*
X-1393Y-67D01*
X-1392Y-74D01*
X-1388Y-79D01*
X-1383Y-83D01*
X-1376Y-84D01*
X-1369Y-83D01*
X-1364Y-79D01*
X-1362Y-82D01*
X-1357Y-86D01*
X-1350Y-87D01*
X-1343Y-86D01*
X-1338Y-82D01*
X-1334Y-77D01*
X-1333Y-70D01*
X-1334Y-63D01*
X-1338Y-58D01*
X-1343Y-54D01*
X-1350Y-53D01*
X-1357Y-54D01*
X-1362Y-58D01*
X-1364Y-55D01*
X-1369Y-51D01*
X-1376Y-50D01*
D02*
G37*
G36*
X-1554Y-53D02*
X-1561Y-54D01*
X-1566Y-58D01*
X-1570Y-63D01*
X-1571Y-70D01*
X-1570Y-77D01*
X-1566Y-82D01*
X-1561Y-86D01*
X-1554Y-87D01*
X-1547Y-86D01*
X-1542Y-82D01*
X-1538Y-77D01*
X-1537Y-70D01*
X-1538Y-63D01*
X-1542Y-58D01*
X-1547Y-54D01*
X-1554Y-53D01*
D02*
G37*
G36*
X1793Y-52D02*
X1786Y-53D01*
X1781Y-57D01*
X1777Y-62D01*
X1776Y-69D01*
X1777Y-76D01*
X1781Y-81D01*
X1786Y-85D01*
X1793Y-86D01*
X1800Y-85D01*
X1805Y-81D01*
X1809Y-76D01*
X1810Y-69D01*
X1809Y-62D01*
X1805Y-57D01*
X1800Y-53D01*
X1793Y-52D01*
D02*
G37*
G36*
X1264Y-38D02*
X1257Y-39D01*
X1252Y-43D01*
X1248Y-48D01*
X1247Y-55D01*
X1248Y-62D01*
X1252Y-67D01*
X1257Y-71D01*
X1264Y-72D01*
X1271Y-71D01*
X1276Y-67D01*
X1280Y-62D01*
X1281Y-55D01*
X1280Y-48D01*
X1276Y-43D01*
X1271Y-39D01*
X1264Y-38D01*
D02*
G37*
G36*
X773Y-40D02*
X766Y-42D01*
X760Y-45D01*
X757Y-51D01*
X755Y-58D01*
X757Y-64D01*
X760Y-70D01*
X766Y-74D01*
X773Y-75D01*
X779Y-74D01*
X785Y-70D01*
X789Y-64D01*
X790Y-58D01*
X789Y-51D01*
X785Y-45D01*
X779Y-42D01*
X773Y-40D01*
D02*
G37*
G36*
X-515Y-15D02*
X-522Y-16D01*
X-527Y-20D01*
X-528Y-20D01*
X-533Y-24D01*
X-538Y-20D01*
X-545Y-19D01*
X-552Y-20D01*
X-557Y-24D01*
X-561Y-29D01*
X-562Y-36D01*
X-561Y-43D01*
X-557Y-48D01*
X-552Y-52D01*
X-545Y-53D01*
X-538Y-52D01*
X-533Y-48D01*
X-532Y-48D01*
X-527Y-44D01*
X-522Y-48D01*
X-515Y-49D01*
X-508Y-48D01*
X-503Y-44D01*
X-499Y-39D01*
X-498Y-32D01*
X-499Y-25D01*
X-503Y-20D01*
X-508Y-16D01*
X-515Y-15D01*
D02*
G37*
G36*
X1042Y9D02*
X1035Y8D01*
X1030Y4D01*
X1026Y-1D01*
X1025Y-8D01*
X1026Y-15D01*
X1030Y-20D01*
X1035Y-24D01*
X1042Y-25D01*
X1049Y-24D01*
X1054Y-20D01*
X1058Y-15D01*
X1059Y-8D01*
X1058Y-1D01*
X1054Y4D01*
X1049Y8D01*
X1042Y9D01*
D02*
G37*
G36*
X-488Y14D02*
X-495Y13D01*
X-500Y9D01*
X-504Y4D01*
X-505Y-3D01*
X-504Y-10D01*
X-500Y-15D01*
X-495Y-19D01*
X-488Y-20D01*
X-481Y-19D01*
X-476Y-15D01*
X-472Y-10D01*
X-471Y-3D01*
X-472Y4D01*
X-476Y9D01*
X-481Y13D01*
X-488Y14D01*
D02*
G37*
G36*
X-184Y22D02*
X-191Y21D01*
X-196Y17D01*
X-200Y12D01*
X-201Y5D01*
X-200Y-2D01*
X-196Y-7D01*
X-191Y-11D01*
X-184Y-12D01*
X-177Y-11D01*
X-172Y-7D01*
X-168Y-2D01*
X-167Y5D01*
X-168Y12D01*
X-172Y17D01*
X-177Y21D01*
X-184Y22D01*
D02*
G37*
G36*
X-260Y21D02*
X-267Y20D01*
X-272Y16D01*
X-276Y11D01*
X-277Y4D01*
X-276Y-3D01*
X-272Y-8D01*
X-267Y-12D01*
X-260Y-13D01*
X-253Y-12D01*
X-248Y-8D01*
X-244Y-3D01*
X-243Y4D01*
X-244Y11D01*
X-248Y16D01*
X-253Y20D01*
X-260Y21D01*
D02*
G37*
G36*
X454Y9D02*
X447Y8D01*
X442Y4D01*
X438Y-1D01*
X437Y-8D01*
X438Y-15D01*
X442Y-20D01*
X447Y-24D01*
X454Y-25D01*
X461Y-24D01*
X466Y-20D01*
X470Y-15D01*
X471Y-8D01*
X470Y-1D01*
X466Y4D01*
X461Y8D01*
X454Y9D01*
D02*
G37*
G36*
X-1648Y-12D02*
X-1655Y-13D01*
X-1660Y-17D01*
X-1664Y-22D01*
X-1665Y-29D01*
X-1664Y-36D01*
X-1660Y-41D01*
X-1655Y-45D01*
X-1648Y-46D01*
X-1641Y-45D01*
X-1636Y-41D01*
X-1632Y-36D01*
X-1631Y-29D01*
X-1632Y-22D01*
X-1636Y-17D01*
X-1641Y-13D01*
X-1648Y-12D01*
D02*
G37*
G36*
X578Y-17D02*
X571Y-18D01*
X566Y-22D01*
X562Y-27D01*
X561Y-34D01*
X562Y-41D01*
X566Y-46D01*
X571Y-50D01*
X578Y-51D01*
X585Y-50D01*
X590Y-46D01*
X594Y-41D01*
X595Y-34D01*
X594Y-27D01*
X590Y-22D01*
X585Y-18D01*
X578Y-17D01*
D02*
G37*
G36*
X-1099Y-10D02*
X-1106Y-11D01*
X-1111Y-15D01*
X-1115Y-20D01*
X-1116Y-27D01*
X-1115Y-34D01*
X-1111Y-39D01*
X-1106Y-43D01*
X-1099Y-44D01*
X-1092Y-43D01*
X-1087Y-39D01*
X-1083Y-34D01*
X-1082Y-27D01*
X-1083Y-20D01*
X-1087Y-15D01*
X-1092Y-11D01*
X-1099Y-10D01*
D02*
G37*
G36*
X-1469Y2D02*
X-1476Y1D01*
X-1481Y-3D01*
X-1485Y-8D01*
X-1486Y-15D01*
X-1485Y-22D01*
X-1481Y-27D01*
X-1476Y-31D01*
X-1469Y-32D01*
X-1462Y-31D01*
X-1457Y-27D01*
X-1453Y-22D01*
X-1452Y-15D01*
X-1453Y-8D01*
X-1457Y-3D01*
X-1462Y1D01*
X-1469Y2D01*
D02*
G37*
G36*
X187Y1D02*
X180Y0D01*
X175Y-4D01*
X171Y-9D01*
X170Y-16D01*
X171Y-23D01*
X175Y-28D01*
X180Y-32D01*
X187Y-33D01*
X194Y-32D01*
X199Y-28D01*
X203Y-23D01*
X204Y-16D01*
X203Y-9D01*
X199Y-4D01*
X194Y0D01*
X187Y1D01*
D02*
G37*
G36*
X74Y-156D02*
X67Y-157D01*
X62Y-161D01*
X58Y-166D01*
X57Y-173D01*
X58Y-180D01*
X62Y-185D01*
X67Y-189D01*
X74Y-190D01*
X81Y-189D01*
X86Y-185D01*
X90Y-180D01*
X91Y-173D01*
X90Y-166D01*
X86Y-161D01*
X81Y-157D01*
X74Y-156D01*
D02*
G37*
G36*
X-153Y-160D02*
X-160Y-161D01*
X-165Y-165D01*
X-169Y-170D01*
X-170Y-177D01*
X-169Y-184D01*
X-165Y-189D01*
X-160Y-193D01*
X-153Y-194D01*
X-146Y-193D01*
X-141Y-189D01*
X-137Y-184D01*
X-136Y-177D01*
X-137Y-170D01*
X-141Y-165D01*
X-146Y-161D01*
X-153Y-160D01*
D02*
G37*
G36*
X-1763Y-142D02*
X-1770Y-143D01*
X-1775Y-147D01*
X-1779Y-152D01*
X-1780Y-159D01*
X-1779Y-166D01*
X-1775Y-171D01*
X-1770Y-175D01*
X-1763Y-176D01*
X-1756Y-175D01*
X-1751Y-171D01*
X-1747Y-166D01*
X-1746Y-159D01*
X-1747Y-152D01*
X-1751Y-147D01*
X-1756Y-143D01*
X-1763Y-142D01*
D02*
G37*
G36*
X-636Y-132D02*
X-642Y-133D01*
X-648Y-137D01*
X-652Y-143D01*
X-653Y-149D01*
X-652Y-156D01*
X-648Y-162D01*
X-642Y-165D01*
X-636Y-167D01*
X-629Y-165D01*
X-623Y-162D01*
X-620Y-156D01*
X-618Y-149D01*
X-620Y-143D01*
X-623Y-137D01*
X-629Y-133D01*
X-636Y-132D01*
D02*
G37*
G36*
X377Y-141D02*
X370Y-142D01*
X365Y-146D01*
X361Y-151D01*
X360Y-158D01*
X361Y-165D01*
X365Y-170D01*
X370Y-174D01*
X377Y-175D01*
X384Y-174D01*
X389Y-170D01*
X393Y-165D01*
X394Y-158D01*
X393Y-151D01*
X389Y-146D01*
X384Y-142D01*
X377Y-141D01*
D02*
G37*
G36*
X-954Y-169D02*
X-961Y-170D01*
X-966Y-174D01*
X-970Y-179D01*
X-971Y-186D01*
X-970Y-193D01*
X-966Y-198D01*
X-961Y-202D01*
X-954Y-203D01*
X-947Y-202D01*
X-942Y-198D01*
X-938Y-193D01*
X-937Y-186D01*
X-938Y-179D01*
X-942Y-174D01*
X-947Y-170D01*
X-954Y-169D01*
D02*
G37*
G36*
X-824Y-185D02*
X-831Y-186D01*
X-836Y-190D01*
X-840Y-195D01*
X-841Y-202D01*
X-840Y-209D01*
X-836Y-214D01*
X-831Y-218D01*
X-824Y-219D01*
X-817Y-218D01*
X-812Y-214D01*
X-808Y-209D01*
X-807Y-202D01*
X-808Y-195D01*
X-812Y-190D01*
X-817Y-186D01*
X-824Y-185D01*
D02*
G37*
G36*
X656Y-186D02*
X649Y-187D01*
X644Y-191D01*
X640Y-196D01*
X639Y-203D01*
X640Y-210D01*
X644Y-215D01*
X649Y-219D01*
X656Y-220D01*
X663Y-219D01*
X668Y-215D01*
X672Y-210D01*
X673Y-203D01*
X672Y-196D01*
X668Y-191D01*
X663Y-187D01*
X656Y-186D01*
D02*
G37*
G36*
X377Y-182D02*
X370Y-183D01*
X365Y-187D01*
X361Y-192D01*
X360Y-199D01*
X361Y-206D01*
X365Y-211D01*
X370Y-215D01*
X377Y-216D01*
X384Y-215D01*
X389Y-211D01*
X393Y-206D01*
X394Y-199D01*
X393Y-192D01*
X389Y-187D01*
X384Y-183D01*
X377Y-182D01*
D02*
G37*
G36*
X-731Y-175D02*
X-738Y-176D01*
X-743Y-180D01*
X-747Y-185D01*
X-748Y-192D01*
X-747Y-199D01*
X-743Y-204D01*
X-738Y-208D01*
X-731Y-209D01*
X-724Y-208D01*
X-719Y-204D01*
X-715Y-199D01*
X-714Y-192D01*
X-715Y-185D01*
X-719Y-180D01*
X-724Y-176D01*
X-731Y-175D01*
D02*
G37*
G36*
X-589Y-181D02*
X-596Y-183D01*
X-601Y-187D01*
X-605Y-192D01*
X-607Y-199D01*
X-605Y-205D01*
X-601Y-211D01*
X-596Y-215D01*
X-589Y-216D01*
X-583Y-215D01*
X-577Y-211D01*
X-573Y-205D01*
X-572Y-199D01*
X-573Y-192D01*
X-577Y-187D01*
X-583Y-183D01*
X-589Y-181D01*
D02*
G37*
G36*
X-1435Y-55D02*
X-1442Y-56D01*
X-1447Y-60D01*
X-1451Y-65D01*
X-1452Y-72D01*
X-1451Y-79D01*
X-1447Y-84D01*
X-1442Y-88D01*
X-1435Y-89D01*
X-1431Y-89D01*
X-1429Y-90D01*
X-1427Y-92D01*
X-1428Y-98D01*
X-1427Y-105D01*
X-1423Y-110D01*
X-1418Y-114D01*
X-1411Y-115D01*
X-1404Y-114D01*
X-1399Y-110D01*
X-1395Y-105D01*
X-1394Y-98D01*
X-1395Y-91D01*
X-1399Y-86D01*
X-1404Y-82D01*
X-1411Y-81D01*
X-1415Y-81D01*
X-1417Y-80D01*
X-1419Y-78D01*
X-1418Y-72D01*
X-1419Y-65D01*
X-1423Y-60D01*
X-1428Y-56D01*
X-1435Y-55D01*
D02*
G37*
G36*
X579Y-83D02*
X572Y-84D01*
X567Y-88D01*
X563Y-93D01*
X562Y-100D01*
X563Y-107D01*
X567Y-112D01*
X572Y-116D01*
X579Y-117D01*
X586Y-116D01*
X591Y-112D01*
X595Y-107D01*
X596Y-100D01*
X595Y-93D01*
X591Y-88D01*
X586Y-84D01*
X579Y-83D01*
D02*
G37*
G36*
X-702Y-77D02*
X-709Y-78D01*
X-714Y-82D01*
X-718Y-87D01*
X-719Y-94D01*
X-718Y-101D01*
X-714Y-106D01*
X-709Y-110D01*
X-702Y-111D01*
X-695Y-110D01*
X-690Y-106D01*
X-686Y-101D01*
X-685Y-94D01*
X-686Y-87D01*
X-690Y-82D01*
X-695Y-78D01*
X-702Y-77D01*
D02*
G37*
G36*
X-1693Y-30D02*
X-1700Y-31D01*
X-1705Y-35D01*
X-1709Y-40D01*
X-1710Y-47D01*
X-1709Y-54D01*
X-1705Y-59D01*
D01*
X-1707Y-62D01*
X-1707Y-62D01*
X-1711Y-67D01*
X-1712Y-74D01*
X-1711Y-81D01*
X-1707Y-86D01*
X-1702Y-90D01*
X-1695Y-91D01*
X-1688Y-90D01*
X-1683Y-86D01*
X-1679Y-81D01*
X-1678Y-74D01*
X-1679Y-67D01*
X-1683Y-62D01*
Y-61D01*
X-1681Y-59D01*
X-1677Y-54D01*
X-1676Y-47D01*
X-1677Y-40D01*
X-1681Y-35D01*
X-1686Y-31D01*
X-1693Y-30D01*
D02*
G37*
G36*
X-1583Y-94D02*
X-1590Y-95D01*
X-1595Y-99D01*
X-1599Y-104D01*
X-1600Y-111D01*
X-1601Y-111D01*
X-1608Y-112D01*
X-1613Y-116D01*
X-1617Y-121D01*
X-1618Y-128D01*
X-1617Y-135D01*
X-1613Y-140D01*
X-1608Y-144D01*
X-1601Y-145D01*
X-1594Y-144D01*
X-1589Y-140D01*
X-1585Y-135D01*
X-1584Y-128D01*
X-1583Y-128D01*
X-1576Y-127D01*
X-1571Y-123D01*
X-1567Y-118D01*
X-1566Y-111D01*
X-1567Y-104D01*
X-1571Y-99D01*
X-1576Y-95D01*
X-1583Y-94D01*
D02*
G37*
G36*
X1043Y-89D02*
X1036Y-90D01*
X1031Y-94D01*
X1027Y-99D01*
X1026Y-106D01*
X1027Y-113D01*
X1031Y-118D01*
X1036Y-122D01*
X1043Y-123D01*
X1050Y-122D01*
X1055Y-118D01*
X1059Y-113D01*
X1060Y-106D01*
X1059Y-99D01*
X1055Y-94D01*
X1050Y-90D01*
X1043Y-89D01*
D02*
G37*
G36*
X-876Y-110D02*
X-883Y-111D01*
X-888Y-115D01*
X-892Y-120D01*
X-893Y-127D01*
X-892Y-134D01*
X-888Y-139D01*
X-883Y-143D01*
X-876Y-144D01*
X-869Y-143D01*
X-864Y-139D01*
X-860Y-134D01*
X-859Y-127D01*
X-860Y-120D01*
X-864Y-115D01*
X-869Y-111D01*
X-876Y-110D01*
D02*
G37*
G36*
X-966Y-131D02*
X-973Y-132D01*
X-978Y-136D01*
X-982Y-141D01*
X-983Y-148D01*
X-982Y-155D01*
X-978Y-160D01*
X-973Y-164D01*
X-966Y-165D01*
X-959Y-164D01*
X-954Y-160D01*
X-950Y-155D01*
X-949Y-148D01*
X-950Y-141D01*
X-954Y-136D01*
X-959Y-132D01*
X-966Y-131D01*
D02*
G37*
G36*
X-500Y-100D02*
X-507Y-101D01*
X-512Y-105D01*
X-516Y-110D01*
X-517Y-117D01*
X-516Y-124D01*
X-512Y-129D01*
X-507Y-133D01*
X-500Y-134D01*
X-493Y-133D01*
X-488Y-129D01*
X-484Y-124D01*
X-483Y-117D01*
X-484Y-110D01*
X-488Y-105D01*
X-493Y-101D01*
X-500Y-100D01*
D02*
G37*
G36*
X-146Y-92D02*
X-153Y-93D01*
X-159Y-97D01*
X-162Y-103D01*
X-164Y-109D01*
X-162Y-116D01*
X-159Y-122D01*
X-153Y-125D01*
X-146Y-127D01*
X-140Y-125D01*
X-134Y-122D01*
X-130Y-116D01*
X-129Y-109D01*
X-130Y-103D01*
X-134Y-97D01*
X-140Y-93D01*
X-146Y-92D01*
D02*
G37*
G36*
X-298D02*
X-304Y-93D01*
X-310Y-97D01*
X-314Y-103D01*
X-315Y-109D01*
X-314Y-116D01*
X-310Y-122D01*
X-304Y-125D01*
X-298Y-127D01*
X-291Y-125D01*
X-285Y-122D01*
X-282Y-116D01*
X-280Y-109D01*
X-282Y-103D01*
X-285Y-97D01*
X-291Y-93D01*
X-298Y-92D01*
D02*
G37*
G36*
X663Y-825D02*
X657Y-826D01*
X651Y-830D01*
X647Y-836D01*
X646Y-842D01*
X647Y-849D01*
X651Y-855D01*
X657Y-858D01*
X663Y-860D01*
X670Y-858D01*
X676Y-855D01*
X679Y-849D01*
X681Y-842D01*
X679Y-836D01*
X676Y-830D01*
X670Y-826D01*
X663Y-825D01*
D02*
G37*
G36*
X109D02*
X103Y-826D01*
X97Y-830D01*
X93Y-836D01*
X92Y-842D01*
X93Y-849D01*
X97Y-855D01*
X103Y-858D01*
X109Y-860D01*
X116Y-858D01*
X122Y-855D01*
X125Y-849D01*
X127Y-842D01*
X125Y-836D01*
X122Y-830D01*
X116Y-826D01*
X109Y-825D01*
D02*
G37*
G36*
X-995Y-750D02*
X-1002Y-751D01*
X-1007Y-755D01*
X-1011Y-761D01*
X-1012Y-767D01*
X-1011Y-774D01*
X-1007Y-780D01*
X-1005Y-781D01*
X-1004Y-787D01*
X-1009Y-791D01*
X-1013Y-797D01*
X-1014Y-803D01*
X-1013Y-810D01*
X-1009Y-816D01*
X-1004Y-819D01*
X-997Y-821D01*
X-990Y-819D01*
X-985Y-816D01*
X-981Y-810D01*
X-980Y-803D01*
X-981Y-797D01*
X-985Y-791D01*
X-987Y-790D01*
X-988Y-783D01*
X-983Y-780D01*
X-979Y-774D01*
X-978Y-767D01*
X-979Y-761D01*
X-983Y-755D01*
X-988Y-751D01*
X-995Y-750D01*
D02*
G37*
G36*
X115Y-786D02*
X108Y-787D01*
X103Y-791D01*
X99Y-797D01*
X98Y-803D01*
X99Y-810D01*
X103Y-816D01*
X108Y-819D01*
X115Y-821D01*
X122Y-819D01*
X127Y-816D01*
X131Y-810D01*
X132Y-803D01*
X131Y-797D01*
X127Y-791D01*
X122Y-787D01*
X115Y-786D01*
D02*
G37*
G36*
X-441D02*
X-448Y-787D01*
X-453Y-791D01*
X-457Y-797D01*
X-458Y-803D01*
X-457Y-810D01*
X-453Y-816D01*
X-448Y-819D01*
X-441Y-821D01*
X-434Y-819D01*
X-429Y-816D01*
X-425Y-810D01*
X-424Y-803D01*
X-425Y-797D01*
X-429Y-791D01*
X-434Y-787D01*
X-441Y-786D01*
D02*
G37*
G36*
X-447Y-825D02*
X-453Y-826D01*
X-459Y-830D01*
X-463Y-836D01*
X-464Y-842D01*
X-463Y-849D01*
X-459Y-855D01*
X-453Y-858D01*
X-447Y-860D01*
X-440Y-858D01*
X-434Y-855D01*
X-431Y-849D01*
X-429Y-842D01*
X-431Y-836D01*
X-434Y-830D01*
X-440Y-826D01*
X-447Y-825D01*
D02*
G37*
G36*
X-353Y-860D02*
X-360Y-861D01*
X-365Y-865D01*
X-369Y-871D01*
X-370Y-877D01*
X-369Y-884D01*
X-365Y-890D01*
X-360Y-893D01*
X-353Y-895D01*
X-346Y-893D01*
X-341Y-890D01*
X-337Y-884D01*
X-336Y-877D01*
X-337Y-871D01*
X-341Y-865D01*
X-346Y-861D01*
X-353Y-860D01*
D02*
G37*
G36*
X-909D02*
X-916Y-861D01*
X-921Y-865D01*
X-925Y-871D01*
X-926Y-877D01*
X-925Y-884D01*
X-921Y-890D01*
X-916Y-893D01*
X-909Y-895D01*
X-902Y-893D01*
X-897Y-890D01*
X-893Y-884D01*
X-892Y-877D01*
X-893Y-871D01*
X-897Y-865D01*
X-902Y-861D01*
X-909Y-860D01*
D02*
G37*
G36*
X203D02*
X196Y-861D01*
X191Y-865D01*
X187Y-871D01*
X186Y-877D01*
X187Y-884D01*
X191Y-890D01*
X196Y-893D01*
X203Y-895D01*
X210Y-893D01*
X215Y-890D01*
X219Y-884D01*
X220Y-877D01*
X219Y-871D01*
X215Y-865D01*
X210Y-861D01*
X203Y-860D01*
D02*
G37*
G36*
X-1144Y-853D02*
X-1151Y-854D01*
X-1156Y-858D01*
X-1160Y-863D01*
X-1161Y-870D01*
X-1160Y-877D01*
X-1156Y-882D01*
X-1151Y-886D01*
X-1144Y-887D01*
X-1137Y-886D01*
X-1132Y-882D01*
X-1128Y-877D01*
X-1127Y-870D01*
X-1128Y-863D01*
X-1132Y-858D01*
X-1137Y-854D01*
X-1144Y-853D01*
D02*
G37*
G36*
X757Y-860D02*
X750Y-861D01*
X745Y-865D01*
X741Y-871D01*
X740Y-877D01*
X741Y-884D01*
X745Y-890D01*
X750Y-893D01*
X757Y-895D01*
X764Y-893D01*
X769Y-890D01*
X773Y-884D01*
X774Y-877D01*
X773Y-871D01*
X769Y-865D01*
X764Y-861D01*
X757Y-860D01*
D02*
G37*
G36*
X317Y-777D02*
X310Y-779D01*
X305Y-783D01*
X301Y-788D01*
X300Y-795D01*
X301Y-801D01*
X305Y-807D01*
X310Y-811D01*
X317Y-812D01*
X324Y-811D01*
X329Y-807D01*
X333Y-801D01*
X334Y-795D01*
X333Y-788D01*
X329Y-783D01*
X324Y-779D01*
X317Y-777D01*
D02*
G37*
G36*
X-239D02*
X-246Y-779D01*
X-251Y-783D01*
X-255Y-788D01*
X-256Y-795D01*
X-255Y-801D01*
X-251Y-807D01*
X-246Y-811D01*
X-239Y-812D01*
X-232Y-811D01*
X-227Y-807D01*
X-223Y-801D01*
X-222Y-795D01*
X-223Y-788D01*
X-227Y-783D01*
X-232Y-779D01*
X-239Y-777D01*
D02*
G37*
G36*
X871D02*
X864Y-779D01*
X859Y-783D01*
X855Y-788D01*
X854Y-795D01*
X855Y-801D01*
X859Y-807D01*
X864Y-811D01*
X871Y-812D01*
X878Y-811D01*
X883Y-807D01*
X887Y-801D01*
X888Y-795D01*
X887Y-788D01*
X883Y-783D01*
X878Y-779D01*
X871Y-777D01*
D02*
G37*
G36*
X117Y-750D02*
X110Y-751D01*
X105Y-755D01*
X101Y-761D01*
X100Y-767D01*
X101Y-774D01*
X105Y-780D01*
X110Y-783D01*
X117Y-785D01*
X124Y-783D01*
X129Y-780D01*
X133Y-774D01*
X134Y-767D01*
X133Y-761D01*
X129Y-755D01*
X124Y-751D01*
X117Y-750D01*
D02*
G37*
G36*
X-439D02*
X-446Y-751D01*
X-451Y-755D01*
X-455Y-761D01*
X-456Y-767D01*
X-455Y-774D01*
X-451Y-780D01*
X-446Y-783D01*
X-439Y-785D01*
X-432Y-783D01*
X-427Y-780D01*
X-423Y-774D01*
X-422Y-767D01*
X-423Y-761D01*
X-427Y-755D01*
X-432Y-751D01*
X-439Y-750D01*
D02*
G37*
G36*
X-795Y-777D02*
X-802Y-779D01*
X-807Y-783D01*
X-811Y-788D01*
X-812Y-795D01*
X-811Y-801D01*
X-807Y-807D01*
X-802Y-811D01*
X-795Y-812D01*
X-788Y-811D01*
X-783Y-807D01*
X-779Y-801D01*
X-778Y-795D01*
X-779Y-788D01*
X-783Y-783D01*
X-788Y-779D01*
X-795Y-777D01*
D02*
G37*
G36*
X-590Y-780D02*
X-597Y-782D01*
X-602Y-786D01*
X-606Y-791D01*
X-607Y-798D01*
X-606Y-804D01*
X-602Y-810D01*
X-597Y-814D01*
X-590Y-815D01*
X-583Y-814D01*
X-578Y-810D01*
X-574Y-804D01*
X-573Y-798D01*
X-574Y-791D01*
X-578Y-786D01*
X-583Y-782D01*
X-590Y-780D01*
D02*
G37*
G36*
X669Y-786D02*
X662Y-787D01*
X657Y-791D01*
X653Y-797D01*
X652Y-803D01*
X653Y-810D01*
X657Y-816D01*
X662Y-819D01*
X669Y-821D01*
X676Y-819D01*
X681Y-816D01*
X685Y-810D01*
X686Y-803D01*
X685Y-797D01*
X681Y-791D01*
X676Y-787D01*
X669Y-786D01*
D02*
G37*
G36*
X-34Y-780D02*
X-41Y-782D01*
X-46Y-786D01*
X-50Y-791D01*
X-51Y-798D01*
X-50Y-804D01*
X-46Y-810D01*
X-41Y-814D01*
X-34Y-815D01*
X-27Y-814D01*
X-22Y-810D01*
X-18Y-804D01*
X-17Y-798D01*
X-18Y-791D01*
X-22Y-786D01*
X-27Y-782D01*
X-34Y-780D01*
D02*
G37*
G36*
X1076D02*
X1069Y-782D01*
X1064Y-786D01*
X1060Y-791D01*
X1059Y-798D01*
X1060Y-804D01*
X1064Y-810D01*
X1069Y-814D01*
X1076Y-815D01*
X1083Y-814D01*
X1088Y-810D01*
X1092Y-804D01*
X1093Y-798D01*
X1092Y-791D01*
X1088Y-786D01*
X1083Y-782D01*
X1076Y-780D01*
D02*
G37*
G36*
X522D02*
X515Y-782D01*
X510Y-786D01*
X506Y-791D01*
X505Y-798D01*
X506Y-804D01*
X510Y-810D01*
X515Y-814D01*
X522Y-815D01*
X529Y-814D01*
X534Y-810D01*
X538Y-804D01*
X539Y-798D01*
X538Y-791D01*
X534Y-786D01*
X529Y-782D01*
X522Y-780D01*
D02*
G37*
G36*
X781Y-951D02*
X774Y-952D01*
X769Y-956D01*
X765Y-962D01*
X764Y-968D01*
X765Y-975D01*
X769Y-981D01*
X774Y-984D01*
X781Y-986D01*
X788Y-984D01*
X793Y-981D01*
X797Y-975D01*
X798Y-968D01*
X797Y-962D01*
X793Y-956D01*
X788Y-952D01*
X781Y-951D01*
D02*
G37*
G36*
X227D02*
X220Y-952D01*
X215Y-956D01*
X211Y-962D01*
X210Y-968D01*
X211Y-975D01*
X215Y-981D01*
X220Y-984D01*
X227Y-986D01*
X234Y-984D01*
X239Y-981D01*
X243Y-975D01*
X244Y-968D01*
X243Y-962D01*
X239Y-956D01*
X234Y-952D01*
X227Y-951D01*
D02*
G37*
G36*
X-838Y-950D02*
X-845Y-951D01*
X-850Y-955D01*
X-854Y-961D01*
X-855Y-967D01*
X-854Y-974D01*
X-850Y-980D01*
X-845Y-983D01*
X-838Y-985D01*
X-831Y-983D01*
X-826Y-980D01*
X-822Y-974D01*
X-821Y-967D01*
X-822Y-961D01*
X-826Y-955D01*
X-831Y-951D01*
X-838Y-950D01*
D02*
G37*
G36*
X274D02*
X267Y-951D01*
X262Y-955D01*
X258Y-961D01*
X257Y-967D01*
X258Y-974D01*
X262Y-980D01*
X267Y-983D01*
X274Y-985D01*
X281Y-983D01*
X286Y-980D01*
X290Y-974D01*
X291Y-967D01*
X290Y-961D01*
X286Y-955D01*
X281Y-951D01*
X274Y-950D01*
D02*
G37*
G36*
X-282D02*
X-289Y-951D01*
X-294Y-955D01*
X-298Y-961D01*
X-299Y-967D01*
X-298Y-974D01*
X-294Y-980D01*
X-289Y-983D01*
X-282Y-985D01*
X-275Y-983D01*
X-270Y-980D01*
X-266Y-974D01*
X-265Y-967D01*
X-266Y-961D01*
X-270Y-955D01*
X-275Y-951D01*
X-282Y-950D01*
D02*
G37*
G36*
X-329Y-951D02*
X-336Y-952D01*
X-341Y-956D01*
X-345Y-962D01*
X-346Y-968D01*
X-345Y-975D01*
X-341Y-981D01*
X-336Y-984D01*
X-329Y-986D01*
X-322Y-984D01*
X-317Y-981D01*
X-313Y-975D01*
X-312Y-968D01*
X-313Y-962D01*
X-317Y-956D01*
X-322Y-952D01*
X-329Y-951D01*
D02*
G37*
G36*
X-3Y-972D02*
X-10Y-974D01*
X-15Y-978D01*
X-19Y-983D01*
X-20Y-990D01*
X-19Y-996D01*
X-15Y-1002D01*
X-10Y-1006D01*
X-3Y-1007D01*
X4Y-1006D01*
X9Y-1002D01*
X13Y-996D01*
X14Y-990D01*
X13Y-983D01*
X9Y-978D01*
X4Y-974D01*
X-3Y-972D01*
D02*
G37*
G36*
X-559D02*
X-566Y-974D01*
X-571Y-978D01*
X-575Y-983D01*
X-576Y-990D01*
X-575Y-996D01*
X-571Y-1002D01*
X-566Y-1006D01*
X-559Y-1007D01*
X-552Y-1006D01*
X-547Y-1002D01*
X-543Y-996D01*
X-542Y-990D01*
X-543Y-983D01*
X-547Y-978D01*
X-552Y-974D01*
X-559Y-972D01*
D02*
G37*
G36*
X553D02*
X546Y-974D01*
X541Y-978D01*
X537Y-983D01*
X536Y-990D01*
X537Y-996D01*
X541Y-1002D01*
X546Y-1006D01*
X553Y-1007D01*
X560Y-1006D01*
X565Y-1002D01*
X569Y-996D01*
X570Y-990D01*
X569Y-983D01*
X565Y-978D01*
X560Y-974D01*
X553Y-972D01*
D02*
G37*
G36*
X-885Y-951D02*
X-892Y-952D01*
X-897Y-956D01*
X-901Y-962D01*
X-902Y-968D01*
X-901Y-975D01*
X-897Y-981D01*
X-892Y-984D01*
X-885Y-986D01*
X-878Y-984D01*
X-873Y-981D01*
X-869Y-975D01*
X-868Y-968D01*
X-869Y-962D01*
X-873Y-956D01*
X-878Y-952D01*
X-885Y-951D01*
D02*
G37*
G36*
X1107Y-972D02*
X1100Y-974D01*
X1095Y-978D01*
X1091Y-983D01*
X1090Y-990D01*
X1091Y-996D01*
X1095Y-1002D01*
X1100Y-1006D01*
X1107Y-1007D01*
X1114Y-1006D01*
X1119Y-1002D01*
X1123Y-996D01*
X1124Y-990D01*
X1123Y-983D01*
X1119Y-978D01*
X1114Y-974D01*
X1107Y-972D01*
D02*
G37*
G36*
X-1003Y-825D02*
X-1009Y-826D01*
X-1015Y-830D01*
X-1019Y-836D01*
X-1020Y-842D01*
X-1019Y-849D01*
X-1015Y-855D01*
X-1009Y-858D01*
Y-863D01*
X-1015Y-867D01*
X-1019Y-873D01*
X-1020Y-879D01*
X-1019Y-886D01*
X-1015Y-892D01*
X-1009Y-895D01*
X-1003Y-897D01*
X-996Y-895D01*
X-990Y-892D01*
X-987Y-886D01*
X-985Y-879D01*
X-987Y-873D01*
X-990Y-867D01*
X-996Y-863D01*
Y-858D01*
X-990Y-855D01*
X-987Y-849D01*
X-985Y-842D01*
X-987Y-836D01*
X-990Y-830D01*
X-996Y-826D01*
X-1003Y-825D01*
D02*
G37*
G36*
X-1088Y-872D02*
X-1095Y-873D01*
X-1100Y-877D01*
X-1104Y-882D01*
X-1105Y-889D01*
X-1104Y-896D01*
X-1100Y-901D01*
X-1095Y-905D01*
X-1088Y-906D01*
X-1081Y-905D01*
X-1076Y-901D01*
X-1072Y-896D01*
X-1071Y-889D01*
X-1072Y-882D01*
X-1076Y-877D01*
X-1081Y-873D01*
X-1088Y-872D01*
D02*
G37*
G36*
X-447Y-862D02*
X-453Y-863D01*
X-459Y-867D01*
X-463Y-873D01*
X-464Y-879D01*
X-463Y-886D01*
X-459Y-892D01*
X-453Y-895D01*
X-447Y-897D01*
X-440Y-895D01*
X-434Y-892D01*
X-431Y-886D01*
X-429Y-879D01*
X-431Y-873D01*
X-434Y-867D01*
X-440Y-863D01*
X-447Y-862D01*
D02*
G37*
G36*
X663D02*
X657Y-863D01*
X651Y-867D01*
X647Y-873D01*
X646Y-879D01*
X647Y-886D01*
X651Y-892D01*
X657Y-895D01*
X663Y-897D01*
X670Y-895D01*
X676Y-892D01*
X679Y-886D01*
X681Y-879D01*
X679Y-873D01*
X676Y-867D01*
X670Y-863D01*
X663Y-862D01*
D02*
G37*
G36*
X109D02*
X103Y-863D01*
X97Y-867D01*
X93Y-873D01*
X92Y-879D01*
X93Y-886D01*
X97Y-892D01*
X103Y-895D01*
X109Y-897D01*
X116Y-895D01*
X122Y-892D01*
X125Y-886D01*
X127Y-879D01*
X125Y-873D01*
X122Y-867D01*
X116Y-863D01*
X109Y-862D01*
D02*
G37*
G36*
X1418Y-900D02*
X1411Y-901D01*
X1406Y-905D01*
X1402Y-910D01*
X1401Y-917D01*
X1402Y-924D01*
X1406Y-929D01*
X1411Y-933D01*
X1418Y-934D01*
X1425Y-933D01*
X1430Y-929D01*
X1434Y-924D01*
X1435Y-917D01*
X1434Y-910D01*
X1430Y-905D01*
X1425Y-901D01*
X1418Y-900D01*
D02*
G37*
G36*
X-970Y-930D02*
X-977Y-932D01*
X-983Y-935D01*
X-985Y-938D01*
X-988Y-939D01*
X-988Y-939D01*
Y-939D01*
D01*
D01*
D01*
X-994Y-935D01*
X-1000Y-934D01*
X-1007Y-935D01*
X-1013Y-939D01*
X-1016Y-944D01*
X-1018Y-951D01*
X-1016Y-957D01*
X-1013Y-963D01*
X-1007Y-967D01*
X-1000Y-968D01*
X-994Y-967D01*
X-988Y-963D01*
X-987Y-961D01*
X-982Y-960D01*
X-977Y-964D01*
X-970Y-965D01*
X-964Y-964D01*
X-958Y-960D01*
X-954Y-954D01*
X-953Y-948D01*
X-954Y-941D01*
X-958Y-935D01*
X-964Y-932D01*
X-970Y-930D01*
D02*
G37*
G36*
X828Y-950D02*
X821Y-951D01*
X816Y-955D01*
X812Y-961D01*
X811Y-967D01*
X812Y-974D01*
X816Y-980D01*
X821Y-983D01*
X828Y-985D01*
X835Y-983D01*
X840Y-980D01*
X844Y-974D01*
X845Y-967D01*
X844Y-961D01*
X840Y-955D01*
X835Y-951D01*
X828Y-950D01*
D02*
G37*
G36*
X-414Y-930D02*
X-421Y-932D01*
X-427Y-935D01*
X-429Y-938D01*
X-432Y-939D01*
X-432Y-939D01*
Y-939D01*
D01*
D01*
D01*
X-438Y-935D01*
X-444Y-934D01*
X-451Y-935D01*
X-457Y-939D01*
X-460Y-944D01*
X-462Y-951D01*
X-460Y-957D01*
X-457Y-963D01*
X-451Y-967D01*
X-444Y-968D01*
X-438Y-967D01*
X-432Y-963D01*
X-431Y-961D01*
X-426Y-960D01*
X-421Y-964D01*
X-414Y-965D01*
X-408Y-964D01*
X-402Y-960D01*
X-398Y-954D01*
X-397Y-948D01*
X-398Y-941D01*
X-402Y-935D01*
X-408Y-932D01*
X-414Y-930D01*
D02*
G37*
G36*
X696D02*
X689Y-932D01*
X683Y-935D01*
X681Y-938D01*
X678Y-939D01*
X678Y-939D01*
Y-939D01*
D01*
D01*
D01*
X672Y-935D01*
X666Y-934D01*
X659Y-935D01*
X653Y-939D01*
X650Y-944D01*
X648Y-951D01*
X650Y-957D01*
X653Y-963D01*
X659Y-967D01*
X666Y-968D01*
X672Y-967D01*
X678Y-963D01*
X679Y-961D01*
X684Y-960D01*
X689Y-964D01*
X696Y-965D01*
X702Y-964D01*
X708Y-960D01*
X712Y-954D01*
X713Y-948D01*
X712Y-941D01*
X708Y-935D01*
X702Y-932D01*
X696Y-930D01*
D02*
G37*
G36*
X142D02*
X135Y-932D01*
X129Y-935D01*
X127Y-938D01*
X124Y-939D01*
X124Y-939D01*
Y-939D01*
D01*
D01*
D01*
X118Y-935D01*
X112Y-934D01*
X105Y-935D01*
X99Y-939D01*
X96Y-944D01*
X94Y-951D01*
X96Y-957D01*
X99Y-963D01*
X105Y-967D01*
X112Y-968D01*
X118Y-967D01*
X124Y-963D01*
X125Y-961D01*
X130Y-960D01*
X135Y-964D01*
X142Y-965D01*
X148Y-964D01*
X154Y-960D01*
X158Y-954D01*
X159Y-948D01*
X158Y-941D01*
X154Y-935D01*
X148Y-932D01*
X142Y-930D01*
D02*
G37*
G36*
X314Y-551D02*
X307Y-553D01*
X302Y-557D01*
X298Y-562D01*
X297Y-569D01*
X298Y-575D01*
X302Y-581D01*
X307Y-585D01*
X314Y-586D01*
X321Y-585D01*
X326Y-581D01*
X330Y-575D01*
X331Y-569D01*
X330Y-562D01*
X326Y-557D01*
X321Y-553D01*
X314Y-551D01*
D02*
G37*
G36*
X171D02*
X164Y-553D01*
X159Y-557D01*
X155Y-562D01*
X154Y-569D01*
X155Y-575D01*
X159Y-581D01*
X164Y-585D01*
X171Y-586D01*
X178Y-585D01*
X183Y-581D01*
X187Y-575D01*
X188Y-569D01*
X187Y-562D01*
X183Y-557D01*
X178Y-553D01*
X171Y-551D01*
D02*
G37*
G36*
X725D02*
X718Y-553D01*
X713Y-557D01*
X709Y-562D01*
X708Y-569D01*
X709Y-575D01*
X713Y-581D01*
X718Y-585D01*
X725Y-586D01*
X732Y-585D01*
X737Y-581D01*
X741Y-575D01*
X742Y-569D01*
X741Y-562D01*
X737Y-557D01*
X732Y-553D01*
X725Y-551D01*
D02*
G37*
G36*
X-1292Y-524D02*
X-1299Y-525D01*
X-1304Y-529D01*
X-1308Y-534D01*
X-1309Y-541D01*
X-1308Y-548D01*
X-1304Y-553D01*
X-1299Y-557D01*
X-1292Y-558D01*
X-1285Y-557D01*
X-1280Y-553D01*
X-1276Y-548D01*
X-1275Y-541D01*
X-1276Y-534D01*
X-1280Y-529D01*
X-1285Y-525D01*
X-1292Y-524D01*
D02*
G37*
G36*
X868Y-551D02*
X861Y-553D01*
X856Y-557D01*
X852Y-562D01*
X851Y-569D01*
X852Y-575D01*
X856Y-581D01*
X861Y-585D01*
X868Y-586D01*
X875Y-585D01*
X880Y-581D01*
X884Y-575D01*
X885Y-569D01*
X884Y-562D01*
X880Y-557D01*
X875Y-553D01*
X868Y-551D01*
D02*
G37*
G36*
X-242D02*
X-249Y-553D01*
X-254Y-557D01*
X-258Y-562D01*
X-259Y-569D01*
X-258Y-575D01*
X-254Y-581D01*
X-249Y-585D01*
X-242Y-586D01*
X-235Y-585D01*
X-230Y-581D01*
X-226Y-575D01*
X-225Y-569D01*
X-226Y-562D01*
X-230Y-557D01*
X-235Y-553D01*
X-242Y-551D01*
D02*
G37*
G36*
X1073Y-553D02*
X1066Y-555D01*
X1061Y-559D01*
X1057Y-564D01*
X1056Y-571D01*
X1057Y-577D01*
X1061Y-583D01*
X1066Y-587D01*
X1073Y-588D01*
X1080Y-587D01*
X1085Y-583D01*
X1089Y-577D01*
X1090Y-571D01*
X1089Y-564D01*
X1085Y-559D01*
X1080Y-555D01*
X1073Y-553D01*
D02*
G37*
G36*
X519D02*
X512Y-555D01*
X507Y-559D01*
X503Y-564D01*
X502Y-571D01*
X503Y-577D01*
X507Y-583D01*
X512Y-587D01*
X519Y-588D01*
X526Y-587D01*
X531Y-583D01*
X535Y-577D01*
X536Y-571D01*
X535Y-564D01*
X531Y-559D01*
X526Y-555D01*
X519Y-553D01*
D02*
G37*
G36*
X-941Y-551D02*
X-948Y-553D01*
X-953Y-557D01*
X-957Y-562D01*
X-958Y-569D01*
X-957Y-575D01*
X-953Y-581D01*
X-948Y-585D01*
X-941Y-586D01*
X-934Y-585D01*
X-929Y-581D01*
X-925Y-575D01*
X-924Y-569D01*
X-925Y-562D01*
X-929Y-557D01*
X-934Y-553D01*
X-941Y-551D01*
D02*
G37*
G36*
X-385D02*
X-392Y-553D01*
X-397Y-557D01*
X-401Y-562D01*
X-402Y-569D01*
X-401Y-575D01*
X-397Y-581D01*
X-392Y-585D01*
X-385Y-586D01*
X-378Y-585D01*
X-373Y-581D01*
X-369Y-575D01*
X-368Y-569D01*
X-369Y-562D01*
X-373Y-557D01*
X-378Y-553D01*
X-385Y-551D01*
D02*
G37*
G36*
X-798D02*
X-805Y-553D01*
X-810Y-557D01*
X-814Y-562D01*
X-815Y-569D01*
X-814Y-575D01*
X-810Y-581D01*
X-805Y-585D01*
X-798Y-586D01*
X-791Y-585D01*
X-786Y-581D01*
X-782Y-575D01*
X-781Y-569D01*
X-782Y-562D01*
X-786Y-557D01*
X-791Y-553D01*
X-798Y-551D01*
D02*
G37*
G36*
X-1737Y-463D02*
X-1744Y-464D01*
X-1749Y-468D01*
X-1753Y-473D01*
X-1754Y-480D01*
X-1753Y-487D01*
X-1749Y-492D01*
X-1744Y-496D01*
X-1737Y-497D01*
X-1730Y-496D01*
X-1725Y-492D01*
X-1721Y-487D01*
X-1720Y-480D01*
X-1721Y-473D01*
X-1725Y-468D01*
X-1730Y-464D01*
X-1737Y-463D01*
D02*
G37*
G36*
X172Y-464D02*
X165Y-465D01*
X160Y-469D01*
X156Y-474D01*
X155Y-481D01*
X156Y-488D01*
X160Y-493D01*
X165Y-497D01*
X172Y-498D01*
X179Y-497D01*
X184Y-493D01*
X188Y-488D01*
X189Y-481D01*
X188Y-474D01*
X184Y-469D01*
X179Y-465D01*
X172Y-464D01*
D02*
G37*
G36*
X1057Y-454D02*
X1050Y-455D01*
X1045Y-459D01*
X1041Y-464D01*
X1040Y-471D01*
X1041Y-478D01*
X1045Y-483D01*
X1050Y-487D01*
X1057Y-488D01*
X1064Y-487D01*
X1069Y-483D01*
X1073Y-478D01*
X1074Y-471D01*
X1073Y-464D01*
X1069Y-459D01*
X1064Y-455D01*
X1057Y-454D01*
D02*
G37*
G36*
X1521D02*
X1514Y-455D01*
X1509Y-459D01*
X1505Y-464D01*
X1504Y-471D01*
X1505Y-478D01*
X1507Y-481D01*
X1502Y-480D01*
X1495Y-481D01*
X1490Y-485D01*
X1486Y-490D01*
X1485Y-497D01*
X1486Y-504D01*
X1490Y-509D01*
X1495Y-513D01*
X1502Y-514D01*
X1509Y-513D01*
X1514Y-509D01*
X1518Y-504D01*
X1519Y-497D01*
X1518Y-490D01*
X1516Y-487D01*
X1521Y-488D01*
X1528Y-487D01*
X1533Y-483D01*
X1537Y-478D01*
X1538Y-471D01*
X1537Y-464D01*
X1533Y-459D01*
X1528Y-455D01*
X1521Y-454D01*
D02*
G37*
G36*
X-1292Y-463D02*
X-1299Y-464D01*
X-1304Y-468D01*
X-1308Y-473D01*
X-1309Y-480D01*
X-1312Y-482D01*
X-1312Y-482D01*
X-1319Y-481D01*
X-1326Y-482D01*
X-1331Y-486D01*
X-1335Y-491D01*
X-1336Y-498D01*
X-1335Y-505D01*
X-1331Y-510D01*
X-1326Y-514D01*
X-1319Y-515D01*
X-1312Y-514D01*
X-1307Y-510D01*
X-1303Y-505D01*
X-1302Y-498D01*
X-1299Y-496D01*
X-1299Y-496D01*
X-1292Y-497D01*
X-1285Y-496D01*
X-1280Y-492D01*
X-1276Y-487D01*
X-1275Y-480D01*
X-1276Y-473D01*
X-1280Y-468D01*
X-1285Y-464D01*
X-1292Y-463D01*
D02*
G37*
G36*
X-1446Y-480D02*
X-1453Y-481D01*
X-1458Y-485D01*
X-1462Y-490D01*
X-1463Y-497D01*
X-1462Y-504D01*
X-1458Y-509D01*
X-1453Y-513D01*
X-1446Y-514D01*
X-1439Y-513D01*
X-1434Y-509D01*
X-1430Y-504D01*
X-1429Y-497D01*
X-1430Y-490D01*
X-1434Y-485D01*
X-1439Y-481D01*
X-1446Y-480D01*
D02*
G37*
G36*
X1558Y-512D02*
X1551Y-513D01*
X1546Y-517D01*
X1542Y-522D01*
X1541Y-529D01*
X1542Y-536D01*
X1546Y-541D01*
X1551Y-545D01*
X1558Y-546D01*
X1565Y-545D01*
X1570Y-541D01*
X1574Y-536D01*
X1575Y-529D01*
X1574Y-522D01*
X1570Y-517D01*
X1565Y-513D01*
X1558Y-512D01*
D02*
G37*
G36*
X-1585Y-517D02*
X-1592Y-518D01*
X-1597Y-522D01*
X-1601Y-527D01*
X-1602Y-534D01*
X-1601Y-541D01*
X-1597Y-546D01*
X-1592Y-550D01*
X-1585Y-551D01*
X-1578Y-550D01*
X-1573Y-546D01*
X-1569Y-541D01*
X-1568Y-534D01*
X-1569Y-527D01*
X-1573Y-522D01*
X-1578Y-518D01*
X-1585Y-517D01*
D02*
G37*
G36*
X1792Y-507D02*
X1785Y-508D01*
X1780Y-512D01*
X1776Y-517D01*
X1775Y-524D01*
X1776Y-531D01*
X1780Y-536D01*
X1785Y-540D01*
X1792Y-541D01*
X1799Y-540D01*
X1804Y-536D01*
X1808Y-531D01*
X1809Y-524D01*
X1808Y-517D01*
X1804Y-512D01*
X1799Y-508D01*
X1792Y-507D01*
D02*
G37*
G36*
X1384Y-496D02*
X1377Y-497D01*
X1372Y-501D01*
X1368Y-506D01*
X1367Y-513D01*
X1368Y-520D01*
X1372Y-525D01*
X1377Y-529D01*
X1384Y-530D01*
X1391Y-529D01*
X1396Y-525D01*
X1400Y-520D01*
X1401Y-513D01*
X1400Y-506D01*
X1396Y-501D01*
X1391Y-497D01*
X1384Y-496D01*
D02*
G37*
G36*
X1290Y-497D02*
X1283Y-498D01*
X1278Y-502D01*
X1274Y-507D01*
X1273Y-514D01*
X1274Y-521D01*
X1278Y-526D01*
X1283Y-530D01*
X1290Y-531D01*
X1297Y-530D01*
X1302Y-526D01*
X1306Y-521D01*
X1307Y-514D01*
X1306Y-507D01*
X1302Y-502D01*
X1297Y-498D01*
X1290Y-497D01*
D02*
G37*
G36*
X-137Y-663D02*
X-144Y-665D01*
X-149Y-669D01*
X-153Y-674D01*
X-154Y-681D01*
X-153Y-687D01*
X-149Y-693D01*
X-144Y-697D01*
X-137Y-698D01*
X-130Y-697D01*
X-125Y-693D01*
X-121Y-687D01*
X-120Y-681D01*
X-121Y-674D01*
X-125Y-669D01*
X-130Y-665D01*
X-137Y-663D01*
D02*
G37*
G36*
X-1088Y-675D02*
X-1095Y-676D01*
X-1100Y-680D01*
X-1104Y-685D01*
X-1105Y-692D01*
X-1104Y-699D01*
X-1100Y-704D01*
X-1095Y-708D01*
X-1088Y-709D01*
X-1081Y-708D01*
X-1076Y-704D01*
X-1072Y-699D01*
X-1071Y-692D01*
X-1072Y-685D01*
X-1076Y-680D01*
X-1081Y-676D01*
X-1088Y-675D01*
D02*
G37*
G36*
X419Y-663D02*
X412Y-665D01*
X407Y-669D01*
X403Y-674D01*
X402Y-681D01*
X403Y-687D01*
X407Y-693D01*
X412Y-697D01*
X419Y-698D01*
X426Y-697D01*
X431Y-693D01*
X435Y-687D01*
X436Y-681D01*
X435Y-674D01*
X431Y-669D01*
X426Y-665D01*
X419Y-663D01*
D02*
G37*
G36*
X-1402Y-631D02*
X-1410Y-632D01*
X-1417Y-635D01*
X-1423Y-640D01*
X-1428Y-646D01*
X-1431Y-653D01*
X-1432Y-661D01*
X-1431Y-669D01*
X-1428Y-676D01*
X-1423Y-682D01*
X-1421Y-683D01*
Y-688D01*
X-1423Y-690D01*
X-1424Y-692D01*
X-1429D01*
X-1431Y-690D01*
X-1437Y-685D01*
X-1444Y-682D01*
X-1452Y-681D01*
X-1460Y-682D01*
X-1467Y-685D01*
X-1473Y-690D01*
X-1478Y-696D01*
X-1481Y-703D01*
X-1482Y-711D01*
X-1481Y-719D01*
X-1478Y-726D01*
X-1473Y-732D01*
X-1471Y-734D01*
Y-738D01*
X-1473Y-740D01*
X-1478Y-746D01*
X-1481Y-753D01*
X-1482Y-761D01*
X-1481Y-769D01*
X-1478Y-776D01*
X-1473Y-782D01*
X-1467Y-787D01*
X-1460Y-790D01*
X-1452Y-791D01*
X-1444Y-790D01*
X-1437Y-787D01*
X-1431Y-782D01*
X-1429Y-780D01*
X-1424D01*
X-1423Y-782D01*
X-1417Y-787D01*
X-1410Y-790D01*
X-1402Y-791D01*
X-1394Y-790D01*
X-1387Y-787D01*
X-1381Y-782D01*
X-1376Y-776D01*
X-1373Y-769D01*
X-1372Y-761D01*
X-1373Y-753D01*
X-1376Y-746D01*
X-1381Y-740D01*
X-1383Y-738D01*
Y-734D01*
X-1381Y-732D01*
X-1376Y-726D01*
X-1373Y-719D01*
X-1372Y-711D01*
X-1373Y-703D01*
X-1376Y-696D01*
X-1381Y-690D01*
X-1383Y-688D01*
Y-683D01*
X-1381Y-682D01*
X-1376Y-676D01*
X-1373Y-669D01*
X-1372Y-661D01*
X-1373Y-653D01*
X-1376Y-646D01*
X-1381Y-640D01*
X-1387Y-635D01*
X-1394Y-632D01*
X-1402Y-631D01*
D02*
G37*
G36*
X973Y-663D02*
X966Y-665D01*
X961Y-669D01*
X957Y-674D01*
X956Y-681D01*
X957Y-687D01*
X961Y-693D01*
X966Y-697D01*
X973Y-698D01*
X980Y-697D01*
X985Y-693D01*
X989Y-687D01*
X990Y-681D01*
X989Y-674D01*
X985Y-669D01*
X980Y-665D01*
X973Y-663D01*
D02*
G37*
G36*
X1364Y-702D02*
X1357Y-703D01*
X1352Y-707D01*
X1348Y-712D01*
X1347Y-719D01*
X1348Y-726D01*
X1352Y-731D01*
X1357Y-735D01*
X1364Y-736D01*
X1371Y-735D01*
X1376Y-731D01*
X1380Y-726D01*
X1381Y-719D01*
X1380Y-712D01*
X1376Y-707D01*
X1371Y-703D01*
X1364Y-702D01*
D02*
G37*
G36*
X-1589Y-629D02*
X-1597Y-630D01*
X-1604Y-633D01*
X-1610Y-638D01*
X-1615Y-644D01*
X-1618Y-651D01*
X-1619Y-659D01*
X-1618Y-667D01*
X-1615Y-674D01*
X-1610Y-680D01*
X-1608Y-682D01*
Y-687D01*
X-1610Y-688D01*
X-1615Y-694D01*
X-1618Y-701D01*
X-1619Y-709D01*
X-1618Y-717D01*
X-1615Y-724D01*
X-1610Y-730D01*
X-1604Y-735D01*
X-1597Y-738D01*
X-1589Y-739D01*
X-1581Y-738D01*
X-1574Y-735D01*
X-1568Y-730D01*
X-1566Y-728D01*
X-1561D01*
X-1560Y-730D01*
X-1554Y-735D01*
X-1547Y-738D01*
X-1539Y-739D01*
X-1531Y-738D01*
X-1524Y-735D01*
X-1518Y-730D01*
X-1513Y-724D01*
X-1510Y-717D01*
X-1509Y-709D01*
X-1510Y-701D01*
X-1513Y-694D01*
X-1518Y-688D01*
X-1524Y-683D01*
X-1531Y-680D01*
X-1539Y-679D01*
X-1547Y-680D01*
X-1554Y-683D01*
X-1560Y-688D01*
X-1561Y-690D01*
X-1566D01*
X-1568Y-688D01*
X-1570Y-687D01*
Y-682D01*
X-1568Y-680D01*
X-1563Y-674D01*
X-1560Y-667D01*
X-1559Y-659D01*
X-1560Y-651D01*
X-1563Y-644D01*
X-1568Y-638D01*
X-1574Y-633D01*
X-1581Y-630D01*
X-1589Y-629D01*
D02*
G37*
G36*
X671Y-750D02*
X664Y-751D01*
X659Y-755D01*
X655Y-761D01*
X654Y-767D01*
X655Y-774D01*
X659Y-780D01*
X664Y-783D01*
X671Y-785D01*
X678Y-783D01*
X683Y-780D01*
X687Y-774D01*
X688Y-767D01*
X687Y-761D01*
X683Y-755D01*
X678Y-751D01*
X671Y-750D01*
D02*
G37*
G36*
X1414Y-703D02*
X1407Y-704D01*
X1402Y-708D01*
X1398Y-713D01*
X1397Y-720D01*
X1398Y-727D01*
X1402Y-732D01*
X1407Y-736D01*
X1414Y-737D01*
X1421Y-736D01*
X1426Y-732D01*
X1430Y-727D01*
X1431Y-720D01*
X1430Y-713D01*
X1426Y-708D01*
X1421Y-704D01*
X1414Y-703D01*
D02*
G37*
G36*
X1314Y-702D02*
X1307Y-703D01*
X1302Y-707D01*
X1298Y-712D01*
X1297Y-719D01*
X1298Y-726D01*
X1302Y-731D01*
X1307Y-735D01*
X1314Y-736D01*
X1321Y-735D01*
X1326Y-731D01*
X1330Y-726D01*
X1331Y-719D01*
X1330Y-712D01*
X1326Y-707D01*
X1321Y-703D01*
X1314Y-702D01*
D02*
G37*
G36*
X1455Y-703D02*
X1448Y-704D01*
X1443Y-708D01*
X1439Y-713D01*
X1438Y-720D01*
X1439Y-727D01*
X1443Y-732D01*
X1448Y-736D01*
X1455Y-737D01*
X1462Y-736D01*
X1467Y-732D01*
X1471Y-727D01*
X1472Y-720D01*
X1471Y-713D01*
X1467Y-708D01*
X1462Y-704D01*
X1455Y-703D01*
D02*
G37*
G36*
X1578Y-572D02*
X1571Y-573D01*
X1566Y-577D01*
X1562Y-582D01*
X1561Y-589D01*
X1562Y-596D01*
X1566Y-601D01*
X1571Y-605D01*
X1578Y-606D01*
X1585Y-605D01*
X1590Y-601D01*
X1594Y-596D01*
X1595Y-589D01*
X1594Y-582D01*
X1590Y-577D01*
X1585Y-573D01*
X1578Y-572D01*
D02*
G37*
G36*
X-1319Y-574D02*
X-1326Y-575D01*
X-1331Y-579D01*
X-1335Y-584D01*
X-1336Y-591D01*
X-1335Y-598D01*
X-1331Y-603D01*
X-1326Y-607D01*
X-1319Y-608D01*
X-1312Y-607D01*
X-1307Y-603D01*
X-1303Y-598D01*
X-1302Y-591D01*
X-1303Y-584D01*
X-1307Y-579D01*
X-1312Y-575D01*
X-1319Y-574D01*
D02*
G37*
G36*
X1469Y-528D02*
X1462Y-529D01*
X1457Y-533D01*
X1453Y-538D01*
X1452Y-545D01*
X1453Y-552D01*
X1457Y-557D01*
X1461Y-560D01*
X1482Y-581D01*
X1485Y-585D01*
X1490Y-589D01*
X1497Y-590D01*
X1504Y-589D01*
X1509Y-585D01*
X1513Y-580D01*
X1514Y-573D01*
X1513Y-566D01*
X1509Y-561D01*
X1505Y-558D01*
X1484Y-537D01*
X1481Y-533D01*
X1476Y-529D01*
X1469Y-528D01*
D02*
G37*
G36*
X-37Y-553D02*
X-44Y-555D01*
X-49Y-559D01*
X-53Y-564D01*
X-54Y-571D01*
X-53Y-577D01*
X-49Y-583D01*
X-44Y-587D01*
X-37Y-588D01*
X-30Y-587D01*
X-25Y-583D01*
X-21Y-577D01*
X-20Y-571D01*
X-21Y-564D01*
X-25Y-559D01*
X-30Y-555D01*
X-37Y-553D01*
D02*
G37*
G36*
X-593D02*
X-600Y-555D01*
X-605Y-559D01*
X-609Y-564D01*
X-610Y-571D01*
X-609Y-577D01*
X-605Y-583D01*
X-600Y-587D01*
X-593Y-588D01*
X-586Y-587D01*
X-581Y-583D01*
X-577Y-577D01*
X-576Y-571D01*
X-577Y-564D01*
X-581Y-559D01*
X-586Y-555D01*
X-593Y-553D01*
D02*
G37*
G36*
X-1283Y-615D02*
X-1289Y-617D01*
X-1295Y-620D01*
X-1299Y-626D01*
X-1300Y-633D01*
X-1299Y-639D01*
X-1295Y-645D01*
X-1289Y-649D01*
X-1283Y-650D01*
X-1276Y-649D01*
X-1270Y-645D01*
X-1267Y-639D01*
X-1265Y-633D01*
X-1267Y-626D01*
X-1270Y-620D01*
X-1276Y-617D01*
X-1283Y-615D01*
D02*
G37*
G36*
X-385Y-640D02*
X-392Y-642D01*
X-397Y-646D01*
X-401Y-651D01*
X-402Y-658D01*
X-401Y-664D01*
X-397Y-670D01*
X-392Y-674D01*
X-385Y-675D01*
X-378Y-674D01*
X-373Y-670D01*
X-369Y-664D01*
X-368Y-658D01*
X-369Y-651D01*
X-373Y-646D01*
X-378Y-642D01*
X-385Y-640D01*
D02*
G37*
G36*
X-941D02*
X-948Y-642D01*
X-953Y-646D01*
X-957Y-651D01*
X-958Y-658D01*
X-957Y-664D01*
X-953Y-670D01*
X-948Y-674D01*
X-941Y-675D01*
X-934Y-674D01*
X-929Y-670D01*
X-925Y-664D01*
X-924Y-658D01*
X-925Y-651D01*
X-929Y-646D01*
X-934Y-642D01*
X-941Y-640D01*
D02*
G37*
G36*
X171D02*
X164Y-642D01*
X159Y-646D01*
X155Y-651D01*
X154Y-658D01*
X155Y-664D01*
X159Y-670D01*
X164Y-674D01*
X171Y-675D01*
X178Y-674D01*
X183Y-670D01*
X187Y-664D01*
X188Y-658D01*
X187Y-651D01*
X183Y-646D01*
X178Y-642D01*
X171Y-640D01*
D02*
G37*
G36*
X1264Y-624D02*
X1257Y-625D01*
X1252Y-629D01*
X1248Y-634D01*
X1247Y-641D01*
X1248Y-648D01*
X1252Y-653D01*
X1257Y-657D01*
X1264Y-658D01*
X1271Y-657D01*
X1276Y-653D01*
X1280Y-648D01*
X1281Y-641D01*
X1280Y-634D01*
X1276Y-629D01*
X1271Y-625D01*
X1264Y-624D01*
D02*
G37*
G36*
X725Y-640D02*
X718Y-642D01*
X713Y-646D01*
X709Y-651D01*
X708Y-658D01*
X709Y-664D01*
X713Y-670D01*
X718Y-674D01*
X725Y-675D01*
X732Y-674D01*
X737Y-670D01*
X741Y-664D01*
X742Y-658D01*
X741Y-651D01*
X737Y-646D01*
X732Y-642D01*
X725Y-640D01*
D02*
G37*
G36*
X-175Y561D02*
X-182Y560D01*
X-187Y556D01*
X-191Y551D01*
X-192Y544D01*
X-191Y537D01*
X-187Y532D01*
X-182Y528D01*
X-175Y527D01*
X-168Y528D01*
X-163Y532D01*
X-159Y537D01*
X-158Y544D01*
X-159Y551D01*
X-163Y556D01*
X-168Y560D01*
X-175Y561D01*
D02*
G37*
G36*
X-244Y561D02*
X-250Y560D01*
X-256Y556D01*
X-260Y550D01*
X-261Y544D01*
X-260Y537D01*
X-256Y531D01*
X-250Y528D01*
X-244Y526D01*
X-237Y528D01*
X-231Y531D01*
X-228Y537D01*
X-226Y544D01*
X-228Y550D01*
X-231Y556D01*
X-237Y560D01*
X-244Y561D01*
D02*
G37*
G36*
X-381Y561D02*
X-388Y560D01*
X-393Y556D01*
X-397Y551D01*
X-398Y544D01*
X-397Y537D01*
X-393Y532D01*
X-388Y528D01*
X-381Y527D01*
X-374Y528D01*
X-369Y532D01*
X-365Y537D01*
X-364Y544D01*
X-365Y551D01*
X-369Y556D01*
X-374Y560D01*
X-381Y561D01*
D02*
G37*
G36*
X-1040Y566D02*
X-1047Y565D01*
X-1052Y561D01*
X-1056Y556D01*
X-1057Y549D01*
X-1056Y542D01*
X-1052Y537D01*
X-1047Y533D01*
X-1040Y532D01*
X-1033Y533D01*
X-1028Y537D01*
X-1024Y542D01*
X-1023Y549D01*
X-1024Y556D01*
X-1028Y561D01*
X-1033Y565D01*
X-1040Y566D01*
D02*
G37*
G36*
X-312Y562D02*
X-319Y560D01*
X-325Y557D01*
X-328Y551D01*
X-330Y544D01*
X-328Y538D01*
X-325Y532D01*
X-319Y528D01*
X-312Y527D01*
X-306Y528D01*
X-300Y532D01*
X-296Y538D01*
X-295Y544D01*
X-296Y551D01*
X-300Y557D01*
X-306Y560D01*
X-312Y562D01*
D02*
G37*
G36*
X-37Y561D02*
X-44Y559D01*
X-50Y556D01*
X-53Y550D01*
X-55Y543D01*
X-53Y537D01*
X-50Y531D01*
X-44Y527D01*
X-37Y526D01*
X-31Y527D01*
X-25Y531D01*
X-21Y537D01*
X-20Y543D01*
X-21Y550D01*
X-25Y556D01*
X-31Y559D01*
X-37Y561D01*
D02*
G37*
G36*
X203Y560D02*
X196Y559D01*
X191Y555D01*
X187Y550D01*
X186Y543D01*
X187Y536D01*
X191Y531D01*
X196Y527D01*
X203Y526D01*
X210Y527D01*
X215Y531D01*
X219Y536D01*
X220Y543D01*
X219Y550D01*
X215Y555D01*
X210Y559D01*
X203Y560D01*
D02*
G37*
G36*
X31Y560D02*
X25Y559D01*
X19Y555D01*
X15Y549D01*
X14Y543D01*
X15Y536D01*
X19Y531D01*
X25Y527D01*
X31Y525D01*
X38Y527D01*
X43Y531D01*
X46Y534D01*
X51D01*
X53Y530D01*
X59Y526D01*
X66Y525D01*
X72Y526D01*
X78Y530D01*
X82Y536D01*
X83Y542D01*
X82Y549D01*
X78Y555D01*
X72Y558D01*
X66Y560D01*
X59Y558D01*
X53Y555D01*
X51Y551D01*
X46D01*
X43Y555D01*
X38Y559D01*
X31Y560D01*
D02*
G37*
G36*
X-106Y561D02*
X-113Y559D01*
X-118Y555D01*
X-122Y550D01*
X-124Y543D01*
X-122Y537D01*
X-118Y531D01*
X-113Y527D01*
X-106Y526D01*
X-100Y527D01*
X-94Y531D01*
X-90Y537D01*
X-89Y543D01*
X-90Y550D01*
X-94Y555D01*
X-100Y559D01*
X-106Y561D01*
D02*
G37*
G36*
X-1330Y561D02*
X-1336Y559D01*
X-1342Y556D01*
X-1346Y550D01*
X-1347Y543D01*
X-1346Y537D01*
X-1342Y531D01*
X-1336Y527D01*
X-1330Y526D01*
X-1323Y527D01*
X-1317Y531D01*
X-1314Y537D01*
X-1312Y543D01*
X-1314Y550D01*
X-1317Y556D01*
X-1323Y559D01*
X-1330Y561D01*
D02*
G37*
G36*
X-449Y561D02*
X-456Y559D01*
X-462Y556D01*
X-465Y550D01*
X-467Y543D01*
X-465Y537D01*
X-462Y531D01*
X-456Y527D01*
X-449Y526D01*
X-443Y527D01*
X-437Y531D01*
X-433Y537D01*
X-432Y543D01*
X-433Y550D01*
X-437Y556D01*
X-443Y559D01*
X-449Y561D01*
D02*
G37*
G36*
X-684Y641D02*
X-691Y640D01*
X-696Y636D01*
X-700Y631D01*
X-701Y624D01*
X-700Y617D01*
X-696Y612D01*
X-691Y608D01*
X-684Y607D01*
X-677Y608D01*
X-672Y612D01*
X-668Y617D01*
X-667Y624D01*
X-668Y631D01*
X-672Y636D01*
X-677Y640D01*
X-684Y641D01*
D02*
G37*
G36*
X-750D02*
X-757Y640D01*
X-762Y636D01*
X-766Y631D01*
X-767Y624D01*
X-766Y617D01*
X-762Y612D01*
X-757Y608D01*
X-750Y607D01*
X-743Y608D01*
X-738Y612D01*
X-734Y617D01*
X-733Y624D01*
X-734Y631D01*
X-738Y636D01*
X-743Y640D01*
X-750Y641D01*
D02*
G37*
G36*
X-618D02*
X-625Y640D01*
X-630Y636D01*
X-634Y631D01*
X-635Y624D01*
X-634Y617D01*
X-630Y612D01*
X-625Y608D01*
X-618Y607D01*
X-611Y608D01*
X-606Y612D01*
X-602Y617D01*
X-601Y624D01*
X-602Y631D01*
X-606Y636D01*
X-611Y640D01*
X-618Y641D01*
D02*
G37*
G36*
X100Y642D02*
X93Y641D01*
X88Y637D01*
X84Y632D01*
X83Y625D01*
X84Y618D01*
X88Y613D01*
X93Y609D01*
X100Y608D01*
X107Y609D01*
X112Y613D01*
X116Y618D01*
X117Y625D01*
X116Y632D01*
X112Y637D01*
X107Y641D01*
X100Y642D01*
D02*
G37*
G36*
X-903Y642D02*
X-910Y641D01*
X-915Y637D01*
X-919Y632D01*
X-920Y625D01*
X-919Y618D01*
X-915Y613D01*
X-910Y609D01*
X-903Y608D01*
X-896Y609D01*
X-891Y613D01*
X-887Y618D01*
X-886Y625D01*
X-887Y632D01*
X-891Y637D01*
X-896Y641D01*
X-903Y642D01*
D02*
G37*
G36*
X238Y640D02*
X231Y639D01*
X226Y635D01*
X222Y630D01*
X221Y623D01*
X222Y616D01*
X226Y611D01*
X231Y607D01*
X238Y606D01*
X245Y607D01*
X250Y611D01*
X254Y616D01*
X255Y623D01*
X254Y630D01*
X250Y635D01*
X245Y639D01*
X238Y640D01*
D02*
G37*
G36*
X-1088Y571D02*
X-1095Y570D01*
X-1100Y566D01*
X-1104Y561D01*
X-1105Y554D01*
X-1104Y547D01*
X-1100Y542D01*
X-1095Y538D01*
X-1088Y537D01*
X-1081Y538D01*
X-1076Y542D01*
X-1072Y547D01*
X-1071Y554D01*
X-1072Y561D01*
X-1076Y566D01*
X-1081Y570D01*
X-1088Y571D01*
D02*
G37*
G36*
X-746Y553D02*
X-753Y552D01*
X-758Y548D01*
X-762Y543D01*
X-763Y536D01*
X-764Y535D01*
X-766Y535D01*
X-773Y534D01*
X-778Y530D01*
X-782Y525D01*
X-783Y518D01*
X-782Y511D01*
X-778Y506D01*
X-773Y502D01*
X-766Y501D01*
X-759Y502D01*
X-754Y506D01*
X-750Y511D01*
X-749Y518D01*
X-748Y519D01*
X-746Y519D01*
X-739Y520D01*
X-735Y523D01*
X-730Y522D01*
X-729Y522D01*
X-724Y518D01*
X-717Y517D01*
X-710Y518D01*
X-705Y522D01*
X-701Y527D01*
X-700Y534D01*
X-701Y541D01*
X-705Y546D01*
X-710Y550D01*
X-717Y551D01*
X-724Y550D01*
X-728Y547D01*
X-733Y548D01*
X-734Y548D01*
X-739Y552D01*
X-746Y553D01*
D02*
G37*
G36*
X-826Y572D02*
X-833Y571D01*
X-838Y567D01*
X-842Y562D01*
X-843Y555D01*
X-842Y548D01*
X-838Y543D01*
X-833Y539D01*
X-826Y538D01*
X-819Y539D01*
X-814Y543D01*
X-810Y548D01*
X-809Y555D01*
X-810Y562D01*
X-814Y567D01*
X-819Y571D01*
X-826Y572D01*
D02*
G37*
G36*
X-551Y640D02*
X-558Y639D01*
X-563Y635D01*
X-567Y630D01*
X-568Y623D01*
X-567Y616D01*
X-563Y611D01*
X-558Y607D01*
X-551Y606D01*
X-544Y607D01*
X-539Y611D01*
X-535Y616D01*
X-534Y623D01*
X-535Y630D01*
X-539Y635D01*
X-544Y639D01*
X-551Y640D01*
D02*
G37*
G36*
X-1692Y673D02*
X-1702Y672D01*
X-1711Y668D01*
X-1719Y662D01*
X-1725Y654D01*
X-1729Y645D01*
X-1730Y635D01*
X-1729Y625D01*
X-1725Y616D01*
X-1719Y608D01*
X-1711Y602D01*
X-1702Y599D01*
X-1692Y597D01*
X-1682Y599D01*
X-1673Y602D01*
X-1665Y608D01*
X-1659Y616D01*
X-1656Y625D01*
X-1654Y635D01*
X-1656Y645D01*
X-1659Y654D01*
X-1665Y662D01*
X-1673Y668D01*
X-1682Y672D01*
X-1692Y673D01*
D02*
G37*
G36*
X-1085Y472D02*
X-1092Y471D01*
X-1097Y467D01*
X-1101Y462D01*
X-1102Y455D01*
X-1101Y450D01*
X-1105Y446D01*
X-1107Y446D01*
X-1110Y446D01*
X-1112Y448D01*
X-1113Y455D01*
X-1117Y460D01*
X-1122Y464D01*
X-1129Y465D01*
X-1136Y464D01*
X-1141Y460D01*
X-1145Y455D01*
X-1146Y448D01*
X-1145Y441D01*
X-1141Y436D01*
X-1136Y432D01*
X-1129Y431D01*
X-1126Y431D01*
X-1124Y429D01*
X-1123Y423D01*
X-1119Y417D01*
X-1114Y413D01*
X-1107Y412D01*
X-1101Y413D01*
X-1095Y417D01*
X-1091Y423D01*
X-1090Y429D01*
X-1091Y435D01*
X-1087Y438D01*
X-1085Y438D01*
X-1078Y439D01*
X-1073Y443D01*
X-1069Y448D01*
X-1068Y455D01*
X-1069Y462D01*
X-1073Y467D01*
X-1078Y471D01*
X-1085Y472D01*
D02*
G37*
G36*
X-473Y471D02*
X-480Y470D01*
X-485Y466D01*
X-489Y461D01*
X-490Y454D01*
X-490Y450D01*
X-493Y445D01*
X-499Y446D01*
X-506Y445D01*
X-512Y441D01*
X-515Y436D01*
X-517Y429D01*
X-515Y422D01*
X-512Y417D01*
X-506Y413D01*
X-499Y412D01*
X-493Y413D01*
X-487Y417D01*
X-483Y422D01*
X-482Y429D01*
X-483Y433D01*
X-480Y438D01*
X-473Y437D01*
X-466Y438D01*
X-461Y442D01*
X-457Y447D01*
X-456Y454D01*
X-457Y461D01*
X-461Y466D01*
X-466Y470D01*
X-473Y471D01*
D02*
G37*
G36*
X137Y465D02*
X130Y464D01*
X125Y460D01*
X121Y455D01*
X121Y453D01*
X116D01*
X116Y454D01*
X112Y460D01*
X106Y464D01*
X100Y465D01*
X93Y464D01*
X87Y460D01*
X84Y454D01*
X82Y448D01*
X84Y441D01*
X87Y435D01*
X93Y432D01*
X100Y430D01*
X106Y432D01*
X112Y435D01*
X116Y441D01*
X116Y442D01*
X121D01*
X121Y441D01*
X125Y436D01*
X130Y432D01*
X137Y431D01*
X144Y432D01*
X149Y436D01*
X153Y441D01*
X153Y442D01*
X158D01*
X158Y440D01*
X162Y434D01*
X168Y430D01*
X174Y429D01*
X181Y430D01*
X187Y434D01*
X190Y440D01*
X192Y446D01*
X190Y453D01*
X187Y459D01*
X181Y462D01*
X174Y464D01*
X168Y462D01*
X162Y459D01*
X158Y453D01*
X158Y453D01*
X153D01*
X153Y455D01*
X149Y460D01*
X144Y464D01*
X137Y465D01*
D02*
G37*
G36*
X791Y593D02*
X778Y592D01*
X766Y588D01*
X754Y582D01*
X744Y574D01*
X735Y563D01*
X729Y552D01*
X725Y539D01*
X724Y526D01*
X725Y513D01*
X729Y500D01*
X735Y489D01*
X744Y478D01*
X754Y470D01*
X766Y464D01*
X778Y460D01*
X791Y459D01*
X804Y460D01*
X817Y464D01*
X829Y470D01*
X839Y478D01*
X847Y489D01*
X854Y500D01*
X857Y513D01*
X859Y526D01*
X857Y539D01*
X854Y552D01*
X847Y563D01*
X839Y574D01*
X829Y582D01*
X817Y588D01*
X804Y592D01*
X791Y593D01*
D02*
G37*
G36*
X-1249Y529D02*
X-1256Y528D01*
X-1261Y524D01*
X-1265Y519D01*
X-1266Y512D01*
X-1265Y505D01*
X-1261Y500D01*
X-1257Y497D01*
X-1258Y492D01*
X-1259Y492D01*
X-1265Y488D01*
X-1269Y482D01*
X-1270Y476D01*
X-1269Y469D01*
X-1265Y463D01*
X-1259Y460D01*
X-1253Y458D01*
X-1246Y460D01*
X-1240Y463D01*
X-1237Y469D01*
X-1235Y476D01*
X-1237Y482D01*
X-1240Y488D01*
X-1245Y491D01*
X-1244Y496D01*
X-1242Y496D01*
X-1237Y500D01*
X-1233Y505D01*
X-1232Y512D01*
X-1233Y519D01*
X-1237Y524D01*
X-1242Y528D01*
X-1249Y529D01*
D02*
G37*
G36*
X-1464Y476D02*
X-1471Y475D01*
X-1476Y471D01*
X-1480Y466D01*
X-1481Y459D01*
X-1480Y452D01*
X-1476Y447D01*
X-1471Y443D01*
X-1464Y442D01*
X-1457Y443D01*
X-1452Y447D01*
X-1448Y452D01*
X-1447Y459D01*
X-1448Y466D01*
X-1452Y471D01*
X-1457Y475D01*
X-1464Y476D01*
D02*
G37*
G36*
X26Y466D02*
X20Y465D01*
X14Y461D01*
X10Y455D01*
X9Y449D01*
X10Y442D01*
X14Y436D01*
X20Y433D01*
X26Y431D01*
X33Y433D01*
X39Y436D01*
X42Y442D01*
X44Y449D01*
X42Y455D01*
X39Y461D01*
X33Y465D01*
X26Y466D01*
D02*
G37*
G36*
X227Y465D02*
X220Y464D01*
X215Y460D01*
X211Y455D01*
X210Y448D01*
X211Y441D01*
X215Y436D01*
X220Y432D01*
X227Y431D01*
X234Y432D01*
X239Y436D01*
X243Y441D01*
X244Y448D01*
X243Y455D01*
X239Y460D01*
X234Y464D01*
X227Y465D01*
D02*
G37*
G36*
X-189Y468D02*
X-196Y467D01*
X-201Y463D01*
X-205Y458D01*
X-206Y451D01*
X-205Y444D01*
X-201Y439D01*
X-196Y435D01*
X-189Y434D01*
X-182Y435D01*
X-177Y439D01*
X-173Y444D01*
X-172Y451D01*
X-173Y458D01*
X-177Y463D01*
X-182Y467D01*
X-189Y468D01*
D02*
G37*
G36*
X-332Y471D02*
X-339Y470D01*
X-344Y466D01*
X-348Y461D01*
X-349Y454D01*
X-348Y447D01*
X-344Y442D01*
X-339Y438D01*
X-332Y437D01*
X-325Y438D01*
X-320Y442D01*
X-316Y447D01*
X-315Y454D01*
X-316Y461D01*
X-320Y466D01*
X-325Y470D01*
X-332Y471D01*
D02*
G37*
G36*
X-49Y468D02*
X-56Y467D01*
X-61Y463D01*
X-65Y458D01*
X-66Y451D01*
X-65Y444D01*
X-61Y439D01*
X-56Y435D01*
X-49Y434D01*
X-42Y435D01*
X-37Y439D01*
X-33Y444D01*
X-32Y451D01*
X-33Y458D01*
X-37Y463D01*
X-42Y467D01*
X-49Y468D01*
D02*
G37*
G36*
X-569Y553D02*
X-576Y552D01*
X-581Y548D01*
X-585Y543D01*
X-586Y536D01*
X-585Y529D01*
X-581Y524D01*
X-576Y520D01*
X-569Y519D01*
X-562Y520D01*
X-557Y524D01*
X-553Y529D01*
X-552Y536D01*
X-553Y543D01*
X-557Y548D01*
X-562Y552D01*
X-569Y553D01*
D02*
G37*
G36*
X-1147Y630D02*
X-1154Y629D01*
X-1159Y625D01*
X-1163Y620D01*
X-1164Y613D01*
X-1163Y606D01*
X-1161Y604D01*
X-1162Y600D01*
X-1162Y600D01*
X-1162D01*
X-1166Y595D01*
X-1167Y588D01*
X-1166Y581D01*
X-1162Y576D01*
X-1161Y575D01*
X-1162Y570D01*
X-1163Y570D01*
X-1168Y566D01*
X-1172Y561D01*
X-1173Y554D01*
X-1172Y547D01*
X-1169Y543D01*
X-1171Y538D01*
X-1177Y537D01*
X-1183Y533D01*
X-1187Y527D01*
X-1188Y521D01*
X-1187Y514D01*
X-1183Y508D01*
X-1177Y505D01*
X-1171Y503D01*
X-1164Y505D01*
X-1158Y508D01*
X-1155Y514D01*
X-1153Y521D01*
X-1155Y527D01*
X-1158Y532D01*
X-1156Y537D01*
X-1149Y538D01*
X-1144Y542D01*
X-1140Y547D01*
X-1139Y554D01*
X-1140Y561D01*
X-1144Y566D01*
X-1145Y567D01*
X-1144Y572D01*
X-1143Y572D01*
X-1138Y576D01*
X-1134Y581D01*
X-1133Y588D01*
X-1134Y595D01*
X-1137Y599D01*
X-1135Y601D01*
X-1131Y606D01*
X-1130Y613D01*
X-1131Y620D01*
X-1135Y625D01*
X-1140Y629D01*
X-1147Y630D01*
D02*
G37*
G36*
X-661Y555D02*
X-668Y554D01*
X-673Y550D01*
X-677Y545D01*
X-678Y538D01*
X-677Y531D01*
X-673Y526D01*
X-668Y522D01*
X-661Y521D01*
X-654Y522D01*
X-649Y526D01*
X-645Y531D01*
X-644Y538D01*
X-645Y545D01*
X-649Y550D01*
X-654Y554D01*
X-661Y555D01*
D02*
G37*
G36*
X-1536Y558D02*
X-1543Y557D01*
X-1548Y553D01*
X-1552Y548D01*
X-1553Y541D01*
X-1552Y534D01*
X-1548Y529D01*
X-1543Y525D01*
X-1536Y524D01*
X-1529Y525D01*
X-1524Y529D01*
X-1520Y534D01*
X-1519Y541D01*
X-1520Y548D01*
X-1524Y553D01*
X-1529Y557D01*
X-1536Y558D01*
D02*
G37*
G36*
X-1206Y557D02*
X-1213Y556D01*
X-1218Y552D01*
X-1222Y547D01*
X-1223Y540D01*
X-1222Y533D01*
X-1218Y528D01*
X-1213Y524D01*
X-1206Y523D01*
X-1199Y524D01*
X-1194Y528D01*
X-1190Y533D01*
X-1189Y540D01*
X-1190Y547D01*
X-1194Y552D01*
X-1199Y556D01*
X-1206Y557D01*
D02*
G37*
G36*
X-1440Y524D02*
X-1447Y523D01*
X-1452Y519D01*
X-1456Y514D01*
X-1457Y507D01*
X-1456Y500D01*
X-1452Y495D01*
X-1447Y491D01*
X-1440Y490D01*
X-1433Y491D01*
X-1428Y495D01*
X-1424Y500D01*
X-1423Y507D01*
X-1424Y514D01*
X-1428Y519D01*
X-1433Y523D01*
X-1440Y524D01*
D02*
G37*
G36*
X1122Y593D02*
X1109Y592D01*
X1096Y588D01*
X1085Y582D01*
X1074Y574D01*
X1066Y563D01*
X1060Y552D01*
X1056Y539D01*
X1055Y526D01*
X1056Y513D01*
X1060Y500D01*
X1066Y489D01*
X1074Y478D01*
X1085Y470D01*
X1096Y464D01*
X1109Y460D01*
X1122Y459D01*
X1135Y460D01*
X1148Y464D01*
X1159Y470D01*
X1170Y478D01*
X1178Y489D01*
X1184Y500D01*
X1188Y513D01*
X1189Y526D01*
X1188Y539D01*
X1184Y552D01*
X1178Y563D01*
X1170Y574D01*
X1159Y582D01*
X1148Y588D01*
X1135Y592D01*
X1122Y593D01*
D02*
G37*
G36*
X957D02*
X944Y592D01*
X931Y588D01*
X919Y582D01*
X909Y574D01*
X901Y563D01*
X894Y552D01*
X891Y539D01*
X889Y526D01*
X891Y513D01*
X894Y500D01*
X901Y489D01*
X909Y478D01*
X919Y470D01*
X931Y464D01*
X944Y460D01*
X957Y459D01*
X970Y460D01*
X982Y464D01*
X994Y470D01*
X1004Y478D01*
X1013Y489D01*
X1019Y500D01*
X1023Y513D01*
X1024Y526D01*
X1023Y539D01*
X1019Y552D01*
X1013Y563D01*
X1004Y574D01*
X994Y582D01*
X982Y588D01*
X970Y592D01*
X957Y593D01*
D02*
G37*
G36*
X1453D02*
X1440Y592D01*
X1427Y588D01*
X1415Y582D01*
X1405Y574D01*
X1397Y563D01*
X1391Y552D01*
X1387Y539D01*
X1385Y526D01*
X1387Y513D01*
X1391Y500D01*
X1397Y489D01*
X1405Y478D01*
X1415Y470D01*
X1427Y464D01*
X1440Y460D01*
X1453Y459D01*
X1466Y460D01*
X1479Y464D01*
X1490Y470D01*
X1500Y478D01*
X1509Y489D01*
X1515Y500D01*
X1519Y513D01*
X1520Y526D01*
X1519Y539D01*
X1515Y552D01*
X1509Y563D01*
X1500Y574D01*
X1490Y582D01*
X1479Y588D01*
X1466Y592D01*
X1453Y593D01*
D02*
G37*
G36*
X-1540Y502D02*
X-1547Y501D01*
X-1552Y497D01*
X-1556Y492D01*
X-1557Y485D01*
X-1556Y478D01*
X-1552Y473D01*
X-1547Y469D01*
X-1540Y468D01*
X-1533Y469D01*
X-1528Y473D01*
X-1526Y472D01*
X-1526Y472D01*
X-1521Y468D01*
X-1514Y467D01*
X-1507Y468D01*
X-1502Y472D01*
X-1498Y477D01*
X-1497Y484D01*
X-1498Y491D01*
X-1502Y496D01*
X-1507Y500D01*
X-1514Y501D01*
X-1521Y500D01*
X-1526Y496D01*
X-1528Y497D01*
X-1528Y497D01*
X-1533Y501D01*
X-1540Y502D01*
D02*
G37*
G36*
X1618Y593D02*
X1605Y592D01*
X1592Y588D01*
X1581Y582D01*
X1570Y574D01*
X1562Y563D01*
X1556Y552D01*
X1552Y539D01*
X1551Y526D01*
X1552Y513D01*
X1556Y500D01*
X1562Y489D01*
X1570Y478D01*
X1581Y470D01*
X1592Y464D01*
X1605Y460D01*
X1618Y459D01*
X1631Y460D01*
X1644Y464D01*
X1656Y470D01*
X1666Y478D01*
X1674Y489D01*
X1680Y500D01*
X1684Y513D01*
X1685Y526D01*
X1684Y539D01*
X1680Y552D01*
X1674Y563D01*
X1666Y574D01*
X1656Y582D01*
X1644Y588D01*
X1631Y592D01*
X1618Y593D01*
D02*
G37*
G36*
X626Y901D02*
X609Y899D01*
X593Y894D01*
X578Y886D01*
X564Y875D01*
X554Y862D01*
X545Y847D01*
X540Y830D01*
X539Y813D01*
X540Y796D01*
X545Y780D01*
X554Y765D01*
X564Y752D01*
X578Y741D01*
X593Y733D01*
X609Y728D01*
X626Y726D01*
X643Y728D01*
X659Y733D01*
X674Y741D01*
X688Y752D01*
X698Y765D01*
X707Y780D01*
X711Y796D01*
X713Y813D01*
X711Y830D01*
X707Y847D01*
X698Y862D01*
X688Y875D01*
X674Y886D01*
X659Y894D01*
X643Y899D01*
X626Y901D01*
D02*
G37*
G36*
X226Y798D02*
X217Y796D01*
X208Y793D01*
X201Y787D01*
X195Y780D01*
X192Y771D01*
X191Y762D01*
X192Y752D01*
X195Y744D01*
X201Y736D01*
X208Y731D01*
X217Y727D01*
X226Y726D01*
X236Y727D01*
X244Y731D01*
X252Y736D01*
X257Y744D01*
X261Y752D01*
X262Y762D01*
X261Y771D01*
X257Y780D01*
X252Y787D01*
X244Y793D01*
X236Y796D01*
X226Y798D01*
D02*
G37*
G36*
X1618Y901D02*
X1601Y899D01*
X1585Y894D01*
X1570Y886D01*
X1556Y875D01*
X1546Y862D01*
X1538Y847D01*
X1533Y830D01*
X1531Y813D01*
X1533Y796D01*
X1538Y780D01*
X1546Y765D01*
X1556Y752D01*
X1570Y741D01*
X1585Y733D01*
X1601Y728D01*
X1618Y726D01*
X1635Y728D01*
X1651Y733D01*
X1667Y741D01*
X1680Y752D01*
X1691Y765D01*
X1699Y780D01*
X1704Y796D01*
X1705Y813D01*
X1704Y830D01*
X1699Y847D01*
X1691Y862D01*
X1680Y875D01*
X1667Y886D01*
X1651Y894D01*
X1635Y899D01*
X1618Y901D01*
D02*
G37*
G36*
X-1145Y802D02*
X-1152Y801D01*
X-1157Y797D01*
X-1161Y792D01*
X-1162Y785D01*
X-1161Y778D01*
X-1157Y773D01*
X-1155Y771D01*
Y766D01*
X-1155Y766D01*
X-1159Y761D01*
X-1160Y754D01*
X-1159Y747D01*
X-1155Y742D01*
X-1150Y738D01*
X-1143Y737D01*
X-1136Y738D01*
X-1131Y742D01*
X-1127Y747D01*
X-1126Y754D01*
X-1127Y761D01*
X-1131Y766D01*
X-1136Y770D01*
X-1136Y770D01*
X-1133Y773D01*
X-1129Y778D01*
X-1128Y785D01*
X-1129Y792D01*
X-1133Y797D01*
X-1138Y801D01*
X-1145Y802D01*
D02*
G37*
G36*
X-1536Y766D02*
X-1543Y765D01*
X-1548Y761D01*
X-1552Y756D01*
X-1553Y749D01*
X-1552Y742D01*
X-1548Y737D01*
X-1543Y733D01*
X-1536Y732D01*
X-1529Y733D01*
X-1524Y737D01*
X-1520Y742D01*
X-1519Y749D01*
X-1520Y756D01*
X-1524Y761D01*
X-1529Y765D01*
X-1536Y766D01*
D02*
G37*
G36*
X148Y798D02*
X138Y796D01*
X130Y793D01*
X122Y787D01*
X117Y780D01*
X113Y771D01*
X112Y762D01*
X113Y752D01*
X117Y744D01*
X122Y736D01*
X130Y731D01*
X138Y727D01*
X148Y726D01*
X157Y727D01*
X166Y731D01*
X173Y736D01*
X179Y744D01*
X182Y752D01*
X184Y762D01*
X182Y771D01*
X179Y780D01*
X173Y787D01*
X166Y793D01*
X157Y796D01*
X148Y798D01*
D02*
G37*
G36*
X-325D02*
X-334Y796D01*
X-343Y793D01*
X-350Y787D01*
X-356Y780D01*
X-359Y771D01*
X-361Y762D01*
X-359Y752D01*
X-356Y744D01*
X-350Y736D01*
X-343Y731D01*
X-334Y727D01*
X-325Y726D01*
X-316Y727D01*
X-307Y731D01*
X-299Y736D01*
X-294Y744D01*
X-290Y752D01*
X-289Y762D01*
X-290Y771D01*
X-294Y780D01*
X-299Y787D01*
X-307Y793D01*
X-316Y796D01*
X-325Y798D01*
D02*
G37*
G36*
X-404D02*
X-413Y796D01*
X-421Y793D01*
X-429Y787D01*
X-435Y780D01*
X-438Y771D01*
X-439Y762D01*
X-438Y752D01*
X-435Y744D01*
X-429Y736D01*
X-421Y731D01*
X-413Y727D01*
X-404Y726D01*
X-394Y727D01*
X-386Y731D01*
X-378Y736D01*
X-372Y744D01*
X-369Y752D01*
X-368Y762D01*
X-369Y771D01*
X-372Y780D01*
X-378Y787D01*
X-386Y793D01*
X-394Y796D01*
X-404Y798D01*
D02*
G37*
G36*
X-246D02*
X-255Y796D01*
X-264Y793D01*
X-271Y787D01*
X-277Y780D01*
X-281Y771D01*
X-282Y762D01*
X-281Y752D01*
X-277Y744D01*
X-271Y736D01*
X-264Y731D01*
X-255Y727D01*
X-246Y726D01*
X-237Y727D01*
X-228Y731D01*
X-221Y736D01*
X-215Y744D01*
X-211Y752D01*
X-210Y762D01*
X-211Y771D01*
X-215Y780D01*
X-221Y787D01*
X-228Y793D01*
X-237Y796D01*
X-246Y798D01*
D02*
G37*
G36*
X69D02*
X60Y796D01*
X51Y793D01*
X44Y787D01*
X38Y780D01*
X34Y771D01*
X33Y762D01*
X34Y752D01*
X38Y744D01*
X44Y736D01*
X51Y731D01*
X60Y727D01*
X69Y726D01*
X78Y727D01*
X87Y731D01*
X94Y736D01*
X100Y744D01*
X104Y752D01*
X105Y762D01*
X104Y771D01*
X100Y780D01*
X94Y787D01*
X87Y793D01*
X78Y796D01*
X69Y798D01*
D02*
G37*
G36*
X-167D02*
X-177Y796D01*
X-185Y793D01*
X-193Y787D01*
X-198Y780D01*
X-202Y771D01*
X-203Y762D01*
X-202Y752D01*
X-198Y744D01*
X-193Y736D01*
X-185Y731D01*
X-177Y727D01*
X-167Y726D01*
X-158Y727D01*
X-149Y731D01*
X-142Y736D01*
X-136Y744D01*
X-133Y752D01*
X-131Y762D01*
X-133Y771D01*
X-136Y780D01*
X-142Y787D01*
X-149Y793D01*
X-158Y796D01*
X-167Y798D01*
D02*
G37*
G36*
X-1165Y891D02*
X-1172Y890D01*
X-1177Y886D01*
X-1181Y881D01*
X-1182Y874D01*
X-1181Y867D01*
X-1177Y862D01*
X-1172Y858D01*
X-1165Y857D01*
X-1158Y858D01*
X-1153Y862D01*
X-1149Y867D01*
X-1148Y874D01*
X-1149Y881D01*
X-1153Y886D01*
X-1158Y890D01*
X-1165Y891D01*
D02*
G37*
G36*
X-1692Y873D02*
X-1702Y872D01*
X-1711Y868D01*
X-1719Y862D01*
X-1725Y854D01*
X-1729Y845D01*
X-1730Y835D01*
X-1729Y825D01*
X-1725Y816D01*
X-1719Y808D01*
X-1711Y802D01*
X-1702Y799D01*
X-1692Y797D01*
X-1682Y799D01*
X-1673Y802D01*
X-1665Y808D01*
X-1659Y816D01*
X-1656Y825D01*
X-1654Y835D01*
X-1656Y845D01*
X-1659Y854D01*
X-1665Y862D01*
X-1673Y868D01*
X-1682Y872D01*
X-1692Y873D01*
D02*
G37*
G36*
X-1246Y1003D02*
X-1258Y1001D01*
X-1270Y996D01*
X-1280Y989D01*
X-1287Y979D01*
X-1292Y967D01*
X-1294Y955D01*
X-1292Y942D01*
X-1287Y931D01*
X-1280Y921D01*
X-1270Y913D01*
X-1258Y909D01*
X-1246Y907D01*
X-1234Y909D01*
X-1222Y913D01*
X-1212Y921D01*
X-1205Y931D01*
X-1200Y942D01*
X-1198Y955D01*
X-1200Y967D01*
X-1205Y979D01*
X-1212Y989D01*
X-1222Y996D01*
X-1234Y1001D01*
X-1246Y1003D01*
D02*
G37*
G36*
X1816Y998D02*
X1763D01*
Y933D01*
X1816D01*
Y998D01*
D02*
G37*
G36*
X-959Y1003D02*
X-971Y1001D01*
X-983Y996D01*
X-992Y989D01*
X-1000Y979D01*
X-1005Y967D01*
X-1006Y955D01*
X-1005Y942D01*
X-1000Y931D01*
X-992Y921D01*
X-983Y913D01*
X-971Y909D01*
X-959Y907D01*
X-946Y909D01*
X-935Y913D01*
X-925Y921D01*
X-917Y931D01*
X-913Y942D01*
X-911Y955D01*
X-913Y967D01*
X-917Y979D01*
X-925Y989D01*
X-935Y996D01*
X-946Y1001D01*
X-959Y1003D01*
D02*
G37*
G36*
X-73Y832D02*
X-80Y831D01*
X-85Y827D01*
X-89Y822D01*
X-90Y815D01*
X-89Y808D01*
X-85Y803D01*
X-84Y802D01*
X-86Y797D01*
X-89Y798D01*
X-98Y796D01*
X-107Y793D01*
X-114Y787D01*
X-120Y780D01*
X-123Y771D01*
X-124Y762D01*
X-123Y752D01*
X-120Y744D01*
X-114Y736D01*
X-107Y731D01*
X-98Y727D01*
X-89Y726D01*
X-79Y727D01*
X-71Y731D01*
X-63Y736D01*
X-58Y744D01*
X-54Y752D01*
X-53Y762D01*
X-53Y766D01*
X-50Y770D01*
X-49Y770D01*
X-49Y770D01*
X-45Y766D01*
X-46Y762D01*
X-44Y752D01*
X-41Y744D01*
X-35Y736D01*
X-28Y731D01*
X-19Y727D01*
X-10Y726D01*
X-1Y727D01*
X8Y731D01*
X16Y736D01*
X21Y744D01*
X25Y752D01*
X26Y762D01*
X25Y771D01*
X21Y780D01*
X16Y787D01*
X8Y793D01*
X-1Y796D01*
X-10Y798D01*
X-19Y796D01*
X-28Y793D01*
X-29Y792D01*
X-33Y794D01*
X-37Y799D01*
X-42Y803D01*
X-49Y804D01*
X-55Y803D01*
X-58Y807D01*
X-57Y808D01*
X-56Y815D01*
X-57Y822D01*
X-61Y827D01*
X-66Y831D01*
X-73Y832D01*
D02*
G37*
G36*
X-1007Y806D02*
X-1014Y805D01*
X-1019Y801D01*
X-1023Y796D01*
X-1024Y789D01*
X-1023Y782D01*
X-1019Y777D01*
X-1014Y773D01*
X-1007Y772D01*
X-1000Y773D01*
X-995Y777D01*
X-991Y782D01*
X-990Y789D01*
X-991Y796D01*
X-995Y801D01*
X-1000Y805D01*
X-1007Y806D01*
D02*
G37*
G36*
X-1030Y772D02*
X-1037Y771D01*
X-1042Y767D01*
X-1046Y762D01*
X-1047Y755D01*
X-1046Y748D01*
X-1042Y743D01*
X-1037Y739D01*
X-1030Y738D01*
X-1023Y739D01*
X-1018Y743D01*
X-1014Y748D01*
X-1013Y755D01*
X-1014Y762D01*
X-1018Y767D01*
X-1023Y771D01*
X-1030Y772D01*
D02*
G37*
G36*
X-1103Y809D02*
X-1110Y808D01*
X-1115Y804D01*
X-1119Y799D01*
X-1120Y792D01*
X-1119Y785D01*
X-1115Y780D01*
X-1110Y776D01*
X-1103Y775D01*
X-1096Y776D01*
X-1091Y780D01*
X-1089Y782D01*
X-1084D01*
X-1083Y780D01*
X-1077Y776D01*
X-1071Y775D01*
X-1064Y776D01*
X-1059Y780D01*
X-1055Y785D01*
X-1054Y792D01*
X-1055Y798D01*
X-1059Y804D01*
X-1064Y808D01*
X-1071Y809D01*
X-1077Y808D01*
X-1083Y804D01*
X-1084Y802D01*
X-1089D01*
X-1091Y804D01*
X-1096Y808D01*
X-1103Y809D01*
D02*
G37*
G36*
X-1380Y814D02*
X-1386Y813D01*
X-1392Y809D01*
X-1396Y803D01*
X-1397Y797D01*
X-1396Y790D01*
X-1392Y784D01*
X-1386Y781D01*
X-1380Y779D01*
X-1373Y781D01*
X-1367Y784D01*
X-1364Y790D01*
X-1362Y797D01*
X-1364Y803D01*
X-1367Y809D01*
X-1373Y813D01*
X-1380Y814D01*
D02*
G37*
G36*
X-1577Y812D02*
X-1584Y811D01*
X-1590Y807D01*
X-1593Y801D01*
X-1595Y795D01*
X-1593Y788D01*
X-1590Y782D01*
X-1584Y779D01*
X-1577Y777D01*
X-1571Y779D01*
X-1565Y782D01*
X-1561Y788D01*
X-1560Y795D01*
X-1561Y801D01*
X-1565Y807D01*
X-1571Y811D01*
X-1577Y812D01*
D02*
G37*
G36*
X-246Y719D02*
X-255Y718D01*
X-264Y714D01*
X-271Y708D01*
X-277Y701D01*
X-281Y692D01*
X-282Y683D01*
X-281Y674D01*
X-277Y665D01*
X-271Y658D01*
X-264Y652D01*
X-255Y648D01*
X-246Y647D01*
X-237Y648D01*
X-228Y652D01*
X-221Y658D01*
X-215Y665D01*
X-211Y674D01*
X-210Y683D01*
X-211Y692D01*
X-215Y701D01*
X-221Y708D01*
X-228Y714D01*
X-237Y718D01*
X-246Y719D01*
D02*
G37*
G36*
X-325D02*
X-334Y718D01*
X-343Y714D01*
X-350Y708D01*
X-356Y701D01*
X-359Y692D01*
X-361Y683D01*
X-359Y674D01*
X-356Y665D01*
X-350Y658D01*
X-343Y652D01*
X-334Y648D01*
X-325Y647D01*
X-316Y648D01*
X-307Y652D01*
X-299Y658D01*
X-294Y665D01*
X-290Y674D01*
X-289Y683D01*
X-290Y692D01*
X-294Y701D01*
X-299Y708D01*
X-307Y714D01*
X-316Y718D01*
X-325Y719D01*
D02*
G37*
G36*
X-167D02*
X-177Y718D01*
X-185Y714D01*
X-193Y708D01*
X-198Y701D01*
X-202Y692D01*
X-203Y683D01*
X-202Y674D01*
X-198Y665D01*
X-193Y658D01*
X-185Y652D01*
X-177Y648D01*
X-167Y647D01*
X-158Y648D01*
X-149Y652D01*
X-142Y658D01*
X-136Y665D01*
X-133Y674D01*
X-131Y683D01*
X-133Y692D01*
X-136Y701D01*
X-142Y708D01*
X-149Y714D01*
X-158Y718D01*
X-167Y719D01*
D02*
G37*
G36*
X69D02*
X60Y718D01*
X51Y714D01*
X44Y708D01*
X38Y701D01*
X34Y692D01*
X33Y683D01*
X34Y674D01*
X38Y665D01*
X44Y658D01*
X51Y652D01*
X60Y648D01*
X69Y647D01*
X78Y648D01*
X87Y652D01*
X94Y658D01*
X100Y665D01*
X104Y674D01*
X105Y683D01*
X104Y692D01*
X100Y701D01*
X94Y708D01*
X87Y714D01*
X78Y718D01*
X69Y719D01*
D02*
G37*
G36*
X-10D02*
X-19Y718D01*
X-28Y714D01*
X-35Y708D01*
X-41Y701D01*
X-44Y692D01*
X-46Y683D01*
X-44Y674D01*
X-41Y665D01*
X-35Y658D01*
X-28Y652D01*
X-19Y648D01*
X-10Y647D01*
X-1Y648D01*
X8Y652D01*
X16Y658D01*
X21Y665D01*
X25Y674D01*
X26Y683D01*
X25Y692D01*
X21Y701D01*
X16Y708D01*
X8Y714D01*
X-1Y718D01*
X-10Y719D01*
D02*
G37*
G36*
X-404D02*
X-413Y718D01*
X-421Y714D01*
X-429Y708D01*
X-435Y701D01*
X-438Y692D01*
X-439Y683D01*
X-438Y674D01*
X-435Y665D01*
X-429Y658D01*
X-421Y652D01*
X-413Y648D01*
X-404Y647D01*
X-394Y648D01*
X-386Y652D01*
X-378Y658D01*
X-372Y665D01*
X-369Y674D01*
X-368Y683D01*
X-369Y692D01*
X-372Y701D01*
X-378Y708D01*
X-386Y714D01*
X-394Y718D01*
X-404Y719D01*
D02*
G37*
G36*
X-1312Y657D02*
X-1319Y656D01*
X-1324Y652D01*
X-1328Y647D01*
X-1329Y640D01*
X-1328Y633D01*
X-1324Y628D01*
X-1319Y624D01*
X-1312Y623D01*
X-1305Y624D01*
X-1300Y628D01*
X-1296Y633D01*
X-1295Y640D01*
X-1296Y647D01*
X-1300Y652D01*
X-1305Y656D01*
X-1312Y657D01*
D02*
G37*
G36*
X-1520Y656D02*
X-1527Y655D01*
X-1532Y651D01*
X-1536Y646D01*
X-1537Y639D01*
X-1536Y632D01*
X-1532Y627D01*
X-1527Y623D01*
X-1520Y622D01*
X-1513Y623D01*
X-1508Y627D01*
X-1504Y632D01*
X-1503Y639D01*
X-1504Y646D01*
X-1508Y651D01*
X-1513Y655D01*
X-1520Y656D01*
D02*
G37*
G36*
X-640Y719D02*
X-649Y718D01*
X-658Y714D01*
X-665Y708D01*
X-671Y701D01*
X-674Y692D01*
X-676Y683D01*
X-674Y674D01*
X-671Y665D01*
X-665Y658D01*
X-658Y652D01*
X-649Y648D01*
X-640Y647D01*
X-630Y648D01*
X-622Y652D01*
X-614Y658D01*
X-609Y665D01*
X-605Y674D01*
X-604Y683D01*
X-605Y692D01*
X-609Y701D01*
X-614Y708D01*
X-622Y714D01*
X-630Y718D01*
X-640Y719D01*
D02*
G37*
G36*
X-482D02*
X-492Y718D01*
X-500Y714D01*
X-508Y708D01*
X-513Y701D01*
X-517Y692D01*
X-518Y683D01*
X-517Y674D01*
X-513Y665D01*
X-508Y658D01*
X-500Y652D01*
X-492Y648D01*
X-482Y647D01*
X-473Y648D01*
X-464Y652D01*
X-457Y658D01*
X-451Y665D01*
X-448Y674D01*
X-446Y683D01*
X-448Y692D01*
X-451Y701D01*
X-457Y708D01*
X-464Y714D01*
X-473Y718D01*
X-482Y719D01*
D02*
G37*
G36*
X-561D02*
X-570Y718D01*
X-579Y714D01*
X-586Y708D01*
X-592Y701D01*
X-596Y692D01*
X-597Y683D01*
X-596Y674D01*
X-592Y665D01*
X-586Y658D01*
X-579Y652D01*
X-570Y648D01*
X-561Y647D01*
X-552Y648D01*
X-543Y652D01*
X-536Y658D01*
X-530Y665D01*
X-526Y674D01*
X-525Y683D01*
X-526Y692D01*
X-530Y701D01*
X-536Y708D01*
X-543Y714D01*
X-552Y718D01*
X-561Y719D01*
D02*
G37*
G36*
X-719Y798D02*
X-728Y796D01*
X-736Y793D01*
X-744Y787D01*
X-750Y780D01*
X-753Y771D01*
X-754Y762D01*
X-753Y752D01*
X-750Y744D01*
X-744Y736D01*
X-736Y731D01*
X-728Y727D01*
X-719Y726D01*
X-709Y727D01*
X-701Y731D01*
X-693Y736D01*
X-687Y744D01*
X-684Y752D01*
X-683Y762D01*
X-684Y771D01*
X-687Y780D01*
X-693Y787D01*
X-701Y793D01*
X-709Y796D01*
X-719Y798D01*
D02*
G37*
G36*
X-1446Y757D02*
X-1453Y756D01*
X-1459Y752D01*
X-1463Y746D01*
X-1464Y739D01*
X-1463Y733D01*
X-1459Y727D01*
X-1453Y723D01*
X-1446Y722D01*
X-1440Y723D01*
X-1434Y727D01*
X-1430Y733D01*
X-1429Y739D01*
X-1430Y746D01*
X-1434Y752D01*
X-1440Y756D01*
X-1446Y757D01*
D02*
G37*
G36*
X-640Y798D02*
X-649Y796D01*
X-658Y793D01*
X-665Y787D01*
X-671Y780D01*
X-674Y771D01*
X-676Y762D01*
X-674Y752D01*
X-671Y744D01*
X-665Y736D01*
X-658Y731D01*
X-649Y727D01*
X-640Y726D01*
X-630Y727D01*
X-622Y731D01*
X-614Y736D01*
X-609Y744D01*
X-605Y752D01*
X-604Y762D01*
X-605Y771D01*
X-609Y780D01*
X-614Y787D01*
X-622Y793D01*
X-630Y796D01*
X-640Y798D01*
D02*
G37*
G36*
X-482D02*
X-492Y796D01*
X-500Y793D01*
X-508Y787D01*
X-513Y780D01*
X-517Y771D01*
X-518Y762D01*
X-517Y752D01*
X-513Y744D01*
X-508Y736D01*
X-500Y731D01*
X-492Y727D01*
X-482Y726D01*
X-473Y727D01*
X-464Y731D01*
X-457Y736D01*
X-451Y744D01*
X-448Y752D01*
X-446Y762D01*
X-448Y771D01*
X-451Y780D01*
X-457Y787D01*
X-464Y793D01*
X-473Y796D01*
X-482Y798D01*
D02*
G37*
G36*
X-561D02*
X-570Y796D01*
X-579Y793D01*
X-586Y787D01*
X-592Y780D01*
X-596Y771D01*
X-597Y762D01*
X-596Y752D01*
X-592Y744D01*
X-586Y736D01*
X-579Y731D01*
X-570Y727D01*
X-561Y726D01*
X-552Y727D01*
X-543Y731D01*
X-536Y736D01*
X-530Y744D01*
X-526Y752D01*
X-525Y762D01*
X-526Y771D01*
X-530Y780D01*
X-536Y787D01*
X-543Y793D01*
X-552Y796D01*
X-561Y798D01*
D02*
G37*
G36*
X-892Y731D02*
X-899Y730D01*
X-904Y726D01*
X-908Y721D01*
X-909Y714D01*
X-908Y707D01*
X-904Y702D01*
X-899Y698D01*
X-892Y697D01*
X-885Y698D01*
X-880Y702D01*
X-876Y707D01*
X-875Y714D01*
X-876Y721D01*
X-880Y726D01*
X-885Y730D01*
X-892Y731D01*
D02*
G37*
G36*
X226Y719D02*
X217Y718D01*
X208Y714D01*
X201Y708D01*
X195Y701D01*
X192Y692D01*
X191Y683D01*
X192Y674D01*
X195Y665D01*
X201Y658D01*
X208Y652D01*
X217Y648D01*
X226Y647D01*
X236Y648D01*
X244Y652D01*
X252Y658D01*
X257Y665D01*
X261Y674D01*
X262Y683D01*
X261Y692D01*
X257Y701D01*
X252Y708D01*
X244Y714D01*
X236Y718D01*
X226Y719D01*
D02*
G37*
G36*
X148D02*
X138Y718D01*
X130Y714D01*
X122Y708D01*
X117Y701D01*
X113Y692D01*
X112Y683D01*
X113Y674D01*
X117Y665D01*
X122Y658D01*
X130Y652D01*
X138Y648D01*
X148Y647D01*
X157Y648D01*
X166Y652D01*
X173Y658D01*
X179Y665D01*
X182Y674D01*
X184Y683D01*
X182Y692D01*
X179Y701D01*
X173Y708D01*
X166Y714D01*
X157Y718D01*
X148Y719D01*
D02*
G37*
G36*
X-1229Y682D02*
X-1235Y681D01*
X-1241Y677D01*
X-1245Y671D01*
X-1246Y664D01*
X-1245Y658D01*
X-1241Y652D01*
X-1235Y648D01*
X-1229Y647D01*
X-1222Y648D01*
X-1216Y652D01*
X-1212Y658D01*
X-1211Y664D01*
X-1212Y671D01*
X-1216Y677D01*
X-1222Y681D01*
X-1229Y682D01*
D02*
G37*
G36*
X-979Y713D02*
X-986Y712D01*
X-991Y708D01*
X-995Y703D01*
X-996Y696D01*
X-995Y689D01*
X-991Y684D01*
X-986Y680D01*
X-979Y679D01*
X-972Y680D01*
X-967Y684D01*
X-963Y689D01*
X-962Y696D01*
X-963Y703D01*
X-967Y708D01*
X-972Y712D01*
X-979Y713D01*
D02*
G37*
G36*
X-1198D02*
X-1205Y712D01*
X-1210Y708D01*
X-1214Y703D01*
X-1215Y696D01*
X-1214Y689D01*
X-1210Y684D01*
X-1205Y680D01*
X-1198Y679D01*
X-1191Y680D01*
X-1186Y684D01*
X-1182Y689D01*
X-1181Y696D01*
X-1182Y703D01*
X-1186Y708D01*
X-1191Y712D01*
X-1198Y713D01*
D02*
G37*
G36*
X-725Y184D02*
X-731Y182D01*
X-737Y178D01*
X-741Y173D01*
X-742Y166D01*
X-741Y160D01*
X-737Y154D01*
X-731Y150D01*
X-725Y149D01*
X-718Y150D01*
X-713Y154D01*
X-709Y160D01*
X-707Y166D01*
X-709Y173D01*
X-713Y178D01*
X-718Y182D01*
X-725Y184D01*
D02*
G37*
G36*
X-464Y179D02*
X-471Y178D01*
X-476Y174D01*
X-480Y169D01*
X-481Y162D01*
X-480Y155D01*
X-476Y150D01*
X-471Y146D01*
X-464Y145D01*
X-457Y146D01*
X-452Y150D01*
X-448Y155D01*
X-447Y162D01*
X-448Y169D01*
X-452Y174D01*
X-457Y178D01*
X-464Y179D01*
D02*
G37*
G36*
X89Y186D02*
X82Y185D01*
X77Y181D01*
X73Y176D01*
X72Y169D01*
X73Y162D01*
X77Y157D01*
X82Y153D01*
X89Y152D01*
X96Y153D01*
X101Y157D01*
X105Y162D01*
X106Y169D01*
X105Y176D01*
X101Y181D01*
X96Y185D01*
X89Y186D01*
D02*
G37*
G36*
X193Y189D02*
X187Y187D01*
X181Y183D01*
X177Y178D01*
X176Y171D01*
X177Y165D01*
X181Y159D01*
X187Y155D01*
X193Y154D01*
X200Y155D01*
X205Y159D01*
X209Y165D01*
X211Y171D01*
X209Y178D01*
X205Y183D01*
X200Y187D01*
X193Y189D01*
D02*
G37*
G36*
X-295Y187D02*
X-302Y185D01*
X-307Y182D01*
X-311Y176D01*
X-312Y169D01*
X-311Y163D01*
X-307Y157D01*
X-302Y153D01*
X-295Y152D01*
X-288Y153D01*
X-283Y157D01*
X-279Y163D01*
X-278Y169D01*
X-279Y176D01*
X-283Y182D01*
X-288Y185D01*
X-295Y187D01*
D02*
G37*
G36*
X-1222Y176D02*
X-1229Y175D01*
X-1234Y171D01*
X-1238Y166D01*
X-1239Y159D01*
X-1238Y152D01*
X-1234Y147D01*
X-1229Y143D01*
X-1222Y142D01*
X-1215Y143D01*
X-1210Y147D01*
X-1206Y152D01*
X-1205Y159D01*
X-1206Y166D01*
X-1210Y171D01*
X-1215Y175D01*
X-1222Y176D01*
D02*
G37*
G36*
X-814Y158D02*
X-820Y157D01*
X-826Y153D01*
X-830Y147D01*
X-831Y141D01*
X-830Y134D01*
X-826Y128D01*
X-820Y125D01*
X-814Y123D01*
X-807Y125D01*
X-801Y128D01*
X-798Y134D01*
X-796Y141D01*
X-798Y147D01*
X-801Y153D01*
X-807Y157D01*
X-814Y158D01*
D02*
G37*
G36*
X-1253Y126D02*
X-1260Y125D01*
X-1265Y121D01*
X-1269Y116D01*
X-1270Y109D01*
X-1273Y106D01*
X-1275Y106D01*
X-1282Y105D01*
X-1287Y101D01*
X-1291Y96D01*
X-1292Y89D01*
X-1294Y87D01*
X-1301Y86D01*
X-1306Y82D01*
X-1310Y77D01*
X-1311Y70D01*
X-1310Y63D01*
X-1306Y58D01*
X-1301Y54D01*
X-1294Y53D01*
X-1287Y54D01*
X-1282Y58D01*
X-1278Y63D01*
X-1277Y70D01*
X-1275Y72D01*
X-1268Y73D01*
X-1263Y77D01*
X-1259Y82D01*
X-1258Y89D01*
X-1255Y92D01*
X-1253Y92D01*
X-1246Y93D01*
X-1241Y96D01*
X-1237Y94D01*
X-1238Y88D01*
X-1237Y81D01*
X-1233Y76D01*
X-1228Y72D01*
X-1221Y71D01*
X-1214Y72D01*
X-1209Y76D01*
X-1205Y81D01*
X-1204Y88D01*
X-1205Y95D01*
X-1209Y100D01*
X-1214Y104D01*
X-1221Y105D01*
X-1228Y104D01*
X-1233Y101D01*
X-1237Y103D01*
X-1236Y109D01*
X-1237Y116D01*
X-1241Y121D01*
X-1246Y125D01*
X-1253Y126D01*
D02*
G37*
G36*
X548Y162D02*
X541Y161D01*
X536Y157D01*
X532Y152D01*
X531Y145D01*
X532Y138D01*
X536Y133D01*
X541Y129D01*
X548Y128D01*
X555Y129D01*
X560Y133D01*
X564Y138D01*
X565Y145D01*
X564Y152D01*
X560Y157D01*
X555Y161D01*
X548Y162D01*
D02*
G37*
G36*
X133Y175D02*
X126Y174D01*
X121Y170D01*
X117Y165D01*
X116Y158D01*
X117Y151D01*
X121Y146D01*
X126Y142D01*
X133Y141D01*
X140Y142D01*
X145Y146D01*
X149Y151D01*
X150Y158D01*
X149Y165D01*
X145Y170D01*
X140Y174D01*
X133Y175D01*
D02*
G37*
G36*
X-1477Y171D02*
X-1484Y170D01*
X-1489Y166D01*
X-1493Y161D01*
X-1494Y154D01*
X-1493Y147D01*
X-1489Y142D01*
X-1484Y138D01*
X-1477Y137D01*
X-1470Y138D01*
X-1465Y142D01*
X-1461Y147D01*
X-1460Y154D01*
X-1461Y161D01*
X-1465Y166D01*
X-1470Y170D01*
X-1477Y171D01*
D02*
G37*
G36*
X588Y228D02*
X582Y227D01*
X576Y223D01*
X572Y217D01*
X571Y211D01*
X572Y204D01*
X576Y198D01*
X582Y195D01*
X588Y193D01*
X595Y195D01*
X601Y198D01*
X604Y204D01*
X606Y211D01*
X604Y217D01*
X601Y223D01*
X595Y227D01*
X588Y228D01*
D02*
G37*
G36*
X-1559Y252D02*
X-1566Y251D01*
X-1571Y247D01*
X-1575Y242D01*
X-1576Y235D01*
X-1575Y228D01*
X-1573Y225D01*
X-1576Y222D01*
X-1580Y217D01*
X-1581Y210D01*
X-1580Y203D01*
X-1576Y198D01*
X-1571Y194D01*
X-1564Y193D01*
X-1557Y194D01*
X-1552Y198D01*
X-1548Y203D01*
X-1547Y210D01*
X-1548Y217D01*
X-1550Y220D01*
X-1547Y223D01*
X-1543Y228D01*
X-1542Y235D01*
X-1543Y242D01*
X-1547Y247D01*
X-1552Y251D01*
X-1559Y252D01*
D02*
G37*
G36*
X-436Y240D02*
X-443Y239D01*
X-448Y235D01*
X-452Y230D01*
X-453Y223D01*
X-452Y216D01*
X-448Y211D01*
X-443Y207D01*
X-436Y206D01*
X-429Y207D01*
X-424Y211D01*
X-420Y216D01*
X-419Y223D01*
X-420Y230D01*
X-424Y235D01*
X-429Y239D01*
X-436Y240D01*
D02*
G37*
G36*
X-1403Y222D02*
X-1410Y221D01*
X-1415Y217D01*
X-1416Y215D01*
X-1421D01*
X-1423Y217D01*
X-1428Y221D01*
X-1435Y222D01*
X-1442Y221D01*
X-1447Y217D01*
X-1451Y212D01*
X-1452Y205D01*
X-1451Y198D01*
X-1447Y193D01*
X-1442Y189D01*
X-1435Y188D01*
X-1428Y189D01*
X-1423Y193D01*
X-1421Y195D01*
X-1416D01*
X-1415Y193D01*
X-1410Y189D01*
X-1403Y188D01*
X-1396Y189D01*
X-1391Y193D01*
X-1387Y198D01*
X-1386Y205D01*
X-1387Y212D01*
X-1391Y217D01*
X-1396Y221D01*
X-1403Y222D01*
D02*
G37*
G36*
X-249Y246D02*
X-256Y245D01*
X-261Y241D01*
X-265Y236D01*
X-266Y229D01*
X-265Y222D01*
X-261Y217D01*
X-256Y213D01*
X-249Y212D01*
X-242Y213D01*
X-237Y217D01*
X-233Y222D01*
X-232Y229D01*
X-233Y236D01*
X-237Y241D01*
X-242Y245D01*
X-249Y246D01*
D02*
G37*
G36*
X-1603Y221D02*
X-1610Y220D01*
X-1615Y216D01*
X-1619Y211D01*
X-1620Y204D01*
X-1619Y197D01*
X-1615Y192D01*
X-1610Y188D01*
X-1603Y187D01*
X-1596Y188D01*
X-1591Y192D01*
X-1587Y197D01*
X-1586Y204D01*
X-1587Y211D01*
X-1591Y216D01*
X-1596Y220D01*
X-1603Y221D01*
D02*
G37*
G36*
X-1153Y173D02*
X-1160Y172D01*
X-1165Y168D01*
X-1166Y167D01*
X-1171Y166D01*
X-1176Y170D01*
X-1183Y171D01*
X-1190Y170D01*
X-1195Y166D01*
X-1199Y161D01*
X-1200Y154D01*
X-1199Y147D01*
X-1195Y142D01*
X-1190Y138D01*
X-1183Y137D01*
X-1176Y138D01*
X-1171Y142D01*
X-1170Y143D01*
X-1165Y144D01*
X-1160Y140D01*
X-1153Y139D01*
X-1146Y140D01*
X-1141Y144D01*
X-1137Y149D01*
X-1136Y156D01*
X-1137Y163D01*
X-1141Y168D01*
X-1146Y172D01*
X-1153Y173D01*
D02*
G37*
G36*
X-216Y180D02*
X-222Y179D01*
X-228Y175D01*
X-232Y169D01*
X-233Y163D01*
X-232Y159D01*
X-232Y159D01*
X-237Y158D01*
X-237Y158D01*
X-237Y158D01*
X-241Y163D01*
X-246Y167D01*
X-253Y168D01*
X-260Y167D01*
X-265Y163D01*
X-269Y158D01*
X-270Y151D01*
X-269Y144D01*
X-265Y139D01*
X-260Y135D01*
X-253Y134D01*
X-246Y135D01*
X-241Y139D01*
X-237Y144D01*
X-236Y151D01*
X-236Y155D01*
X-232Y156D01*
X-232Y156D01*
X-232Y156D01*
X-228Y150D01*
X-228Y150D01*
X-228D01*
X-227Y149D01*
X-227Y149D01*
X-227D01*
X-231Y144D01*
X-232Y137D01*
X-231Y130D01*
X-227Y125D01*
X-227Y125D01*
X-228Y124D01*
X-228Y124D01*
X-228D01*
X-232Y118D01*
X-233Y111D01*
X-232Y105D01*
X-228Y99D01*
X-226Y98D01*
X-230Y92D01*
X-231Y86D01*
X-230Y79D01*
X-226Y74D01*
X-220Y70D01*
X-214Y68D01*
X-207Y70D01*
X-202Y74D01*
X-198Y79D01*
X-196Y86D01*
X-198Y92D01*
X-202Y98D01*
Y98D01*
X-202D01*
X-202Y101D01*
X-200Y105D01*
X-198Y111D01*
X-200Y118D01*
X-203Y124D01*
Y124D01*
X-203Y125D01*
X-199Y130D01*
X-198Y137D01*
X-199Y144D01*
X-203Y149D01*
X-203Y150D01*
Y150D01*
X-200Y156D01*
X-198Y163D01*
X-200Y169D01*
X-203Y175D01*
X-209Y179D01*
X-216Y180D01*
D02*
G37*
G36*
X-854Y205D02*
X-861Y204D01*
X-866Y200D01*
X-870Y195D01*
X-871Y188D01*
X-870Y181D01*
X-866Y176D01*
X-861Y172D01*
X-854Y171D01*
X-847Y172D01*
X-842Y176D01*
X-838Y181D01*
X-837Y188D01*
X-838Y195D01*
X-842Y200D01*
X-847Y204D01*
X-854Y205D01*
D02*
G37*
G36*
X-650Y209D02*
X-656Y208D01*
X-662Y204D01*
X-666Y199D01*
X-667Y192D01*
X-666Y185D01*
X-662Y180D01*
X-656Y176D01*
X-650Y175D01*
X-643Y176D01*
X-637Y180D01*
X-634Y185D01*
X-632Y192D01*
X-634Y199D01*
X-637Y204D01*
X-643Y208D01*
X-650Y209D01*
D02*
G37*
G36*
X-508Y206D02*
X-515Y205D01*
X-520Y201D01*
X-524Y196D01*
X-525Y189D01*
X-524Y182D01*
X-520Y177D01*
X-515Y173D01*
X-508Y172D01*
X-501Y173D01*
X-496Y177D01*
X-492Y182D01*
X-491Y189D01*
X-492Y196D01*
X-496Y201D01*
X-501Y205D01*
X-508Y206D01*
D02*
G37*
G36*
X-1579Y90D02*
X-1586Y89D01*
X-1591Y85D01*
X-1595Y80D01*
X-1596Y73D01*
X-1595Y66D01*
X-1591Y61D01*
X-1586Y57D01*
X-1579Y56D01*
X-1572Y57D01*
X-1567Y61D01*
X-1563Y66D01*
X-1562Y73D01*
X-1563Y80D01*
X-1567Y85D01*
X-1572Y89D01*
X-1579Y90D01*
D02*
G37*
G36*
X-1044Y75D02*
X-1051Y74D01*
X-1056Y70D01*
X-1060Y65D01*
X-1061Y58D01*
X-1060Y51D01*
X-1056Y46D01*
X-1051Y42D01*
X-1044Y41D01*
X-1037Y42D01*
X-1032Y46D01*
X-1028Y51D01*
X-1027Y58D01*
X-1028Y65D01*
X-1032Y70D01*
X-1037Y74D01*
X-1044Y75D01*
D02*
G37*
G36*
X-1421Y91D02*
X-1428Y90D01*
X-1433Y86D01*
X-1437Y81D01*
X-1438Y74D01*
X-1437Y67D01*
X-1433Y62D01*
X-1428Y58D01*
X-1421Y57D01*
X-1414Y58D01*
X-1409Y62D01*
X-1405Y67D01*
X-1404Y74D01*
X-1405Y81D01*
X-1409Y86D01*
X-1414Y90D01*
X-1421Y91D01*
D02*
G37*
G36*
X-352Y180D02*
X-359Y179D01*
X-365Y175D01*
X-368Y169D01*
X-370Y163D01*
X-368Y156D01*
X-365Y150D01*
X-365Y150D01*
X-365D01*
X-364Y149D01*
Y149D01*
D01*
X-368Y144D01*
X-369Y137D01*
X-368Y130D01*
X-364Y125D01*
X-364Y125D01*
X-364D01*
X-364Y124D01*
X-364Y124D01*
X-364D01*
X-367Y118D01*
X-369Y111D01*
X-367Y105D01*
X-364Y99D01*
X-364Y99D01*
X-364Y98D01*
X-364Y98D01*
X-364D01*
X-368Y93D01*
X-369Y86D01*
X-368Y79D01*
X-364Y74D01*
X-359Y70D01*
X-352Y69D01*
X-345Y70D01*
X-340Y74D01*
X-336Y79D01*
X-335Y86D01*
X-336Y93D01*
X-340Y98D01*
Y99D01*
X-339Y99D01*
X-335Y105D01*
X-334Y111D01*
X-335Y118D01*
X-339Y124D01*
X-340Y124D01*
Y125D01*
X-336Y130D01*
X-335Y137D01*
X-336Y144D01*
X-340Y149D01*
X-340Y150D01*
Y150D01*
X-336Y156D01*
X-335Y163D01*
X-336Y169D01*
X-340Y175D01*
X-346Y179D01*
X-352Y180D01*
D02*
G37*
G36*
X588Y103D02*
X582Y102D01*
X576Y98D01*
X572Y92D01*
X571Y86D01*
X572Y79D01*
X576Y73D01*
X582Y70D01*
X588Y68D01*
X595Y70D01*
X601Y73D01*
X604Y79D01*
X606Y86D01*
X604Y92D01*
X601Y98D01*
X595Y102D01*
X588Y103D01*
D02*
G37*
G36*
X-1176Y69D02*
X-1182Y68D01*
X-1188Y64D01*
X-1192Y59D01*
X-1193Y52D01*
X-1192Y45D01*
X-1188Y40D01*
X-1182Y36D01*
X-1176Y35D01*
X-1169Y36D01*
X-1166Y38D01*
X-1161Y37D01*
X-1158Y34D01*
X-1153Y30D01*
X-1146Y29D01*
X-1139Y30D01*
X-1134Y34D01*
X-1130Y39D01*
X-1129Y46D01*
X-1130Y53D01*
X-1134Y58D01*
X-1139Y62D01*
X-1146Y63D01*
X-1153Y62D01*
X-1156Y60D01*
X-1161Y61D01*
X-1163Y64D01*
X-1169Y68D01*
X-1176Y69D01*
D02*
G37*
G36*
X-357Y35D02*
X-364Y34D01*
X-369Y30D01*
X-373Y25D01*
X-374Y18D01*
X-373Y11D01*
X-369Y6D01*
X-364Y2D01*
X-357Y1D01*
X-350Y2D01*
X-345Y6D01*
X-341Y11D01*
X-340Y18D01*
X-341Y25D01*
X-345Y30D01*
X-350Y34D01*
X-357Y35D01*
D02*
G37*
G36*
X-1185Y28D02*
X-1192Y27D01*
X-1197Y23D01*
X-1201Y18D01*
X-1202Y11D01*
X-1201Y4D01*
X-1197Y-1D01*
X-1192Y-5D01*
X-1185Y-6D01*
X-1178Y-5D01*
X-1173Y-1D01*
X-1169Y4D01*
X-1168Y11D01*
X-1169Y18D01*
X-1173Y23D01*
X-1178Y27D01*
X-1185Y28D01*
D02*
G37*
G36*
X-1241Y50D02*
X-1247Y49D01*
X-1253Y45D01*
X-1257Y39D01*
X-1258Y33D01*
X-1257Y26D01*
X-1253Y20D01*
X-1247Y17D01*
X-1241Y15D01*
X-1234Y17D01*
X-1228Y20D01*
X-1225Y26D01*
X-1223Y33D01*
X-1225Y39D01*
X-1228Y45D01*
X-1234Y49D01*
X-1241Y50D01*
D02*
G37*
G36*
X-1459Y54D02*
X-1466Y53D01*
X-1471Y49D01*
X-1475Y44D01*
X-1476Y37D01*
X-1475Y30D01*
X-1471Y25D01*
X-1466Y21D01*
X-1459Y20D01*
X-1452Y21D01*
X-1447Y25D01*
X-1443Y30D01*
X-1442Y37D01*
X-1443Y44D01*
X-1447Y49D01*
X-1452Y53D01*
X-1459Y54D01*
D02*
G37*
G36*
X-1107Y50D02*
X-1114Y49D01*
X-1119Y45D01*
X-1123Y40D01*
X-1124Y33D01*
X-1123Y26D01*
X-1119Y21D01*
X-1114Y17D01*
X-1107Y16D01*
X-1100Y17D01*
X-1095Y21D01*
X-1091Y26D01*
X-1090Y33D01*
X-1091Y40D01*
X-1095Y45D01*
X-1100Y49D01*
X-1107Y50D01*
D02*
G37*
G36*
X-1650Y131D02*
X-1657Y130D01*
X-1662Y126D01*
X-1666Y121D01*
X-1667Y114D01*
X-1666Y107D01*
X-1662Y102D01*
X-1657Y98D01*
X-1650Y97D01*
X-1643Y98D01*
X-1638Y102D01*
X-1634Y107D01*
X-1633Y114D01*
X-1634Y121D01*
X-1638Y126D01*
X-1643Y130D01*
X-1650Y131D01*
D02*
G37*
G36*
X-264Y130D02*
X-271Y129D01*
X-276Y125D01*
X-280Y120D01*
X-281Y113D01*
X-280Y106D01*
X-276Y101D01*
X-271Y97D01*
X-264Y96D01*
X-257Y97D01*
X-252Y101D01*
X-248Y106D01*
X-247Y113D01*
X-248Y120D01*
X-252Y125D01*
X-257Y129D01*
X-264Y130D01*
D02*
G37*
G36*
X-1558Y132D02*
X-1565Y131D01*
X-1570Y127D01*
X-1574Y122D01*
X-1575Y115D01*
X-1574Y108D01*
X-1570Y103D01*
X-1565Y99D01*
X-1558Y98D01*
X-1551Y99D01*
X-1546Y103D01*
X-1542Y108D01*
X-1541Y115D01*
X-1542Y122D01*
X-1546Y127D01*
X-1551Y131D01*
X-1558Y132D01*
D02*
G37*
G36*
X-501Y127D02*
X-508Y126D01*
X-513Y122D01*
X-517Y117D01*
X-518Y110D01*
X-517Y106D01*
X-518Y106D01*
X-518Y106D01*
D01*
D01*
X-518Y106D01*
X-522Y104D01*
X-522Y104D01*
X-526Y109D01*
X-531Y113D01*
X-538Y114D01*
X-545Y113D01*
X-550Y109D01*
X-554Y104D01*
X-555Y97D01*
X-554Y90D01*
X-550Y85D01*
X-545Y81D01*
X-538Y80D01*
X-531Y81D01*
X-526Y85D01*
X-522Y90D01*
X-521Y97D01*
X-522Y101D01*
X-521Y101D01*
X-521Y101D01*
X-517Y103D01*
X-517Y103D01*
X-513Y98D01*
X-508Y94D01*
X-501Y93D01*
X-494Y94D01*
X-489Y98D01*
X-485Y103D01*
X-484Y110D01*
X-485Y117D01*
X-489Y122D01*
X-494Y126D01*
X-501Y127D01*
D02*
G37*
G36*
X-1093Y134D02*
X-1100Y133D01*
X-1105Y129D01*
X-1109Y124D01*
X-1110Y117D01*
X-1109Y110D01*
X-1105Y105D01*
X-1100Y101D01*
X-1093Y100D01*
X-1086Y101D01*
X-1081Y105D01*
X-1077Y110D01*
X-1076Y117D01*
X-1077Y124D01*
X-1081Y129D01*
X-1086Y133D01*
X-1093Y134D01*
D02*
G37*
G36*
X-1064Y249D02*
X-1071Y248D01*
X-1076Y244D01*
X-1080Y239D01*
X-1081Y232D01*
X-1081Y228D01*
X-1086Y227D01*
X-1091Y223D01*
X-1095Y218D01*
X-1096Y211D01*
X-1095Y204D01*
X-1091Y199D01*
X-1086Y195D01*
X-1080Y194D01*
X-998Y112D01*
X-998Y111D01*
X-997Y104D01*
X-993Y99D01*
X-988Y95D01*
X-981Y94D01*
X-974Y95D01*
X-969Y99D01*
X-965Y104D01*
X-964Y111D01*
X-965Y118D01*
X-969Y123D01*
X-969Y123D01*
X-969Y125D01*
X-963Y128D01*
X-960Y134D01*
X-959Y140D01*
Y143D01*
X-958Y148D01*
X-959Y155D01*
X-963Y160D01*
X-968Y164D01*
X-975Y165D01*
X-977Y165D01*
X-1047Y235D01*
X-1048Y239D01*
X-1052Y244D01*
X-1057Y248D01*
X-1064Y249D01*
D02*
G37*
G36*
X151Y109D02*
X144Y108D01*
X139Y104D01*
X135Y99D01*
X134Y92D01*
X135Y85D01*
X139Y80D01*
X144Y76D01*
X151Y75D01*
X158Y76D01*
X163Y80D01*
X167Y85D01*
X168Y92D01*
X167Y99D01*
X163Y104D01*
X158Y108D01*
X151Y109D01*
D02*
G37*
G36*
X-603D02*
X-610Y108D01*
X-615Y104D01*
X-619Y99D01*
X-620Y92D01*
X-619Y85D01*
X-615Y80D01*
X-610Y76D01*
X-603Y75D01*
X-596Y76D01*
X-591Y80D01*
X-587Y85D01*
X-586Y92D01*
X-587Y99D01*
X-591Y104D01*
X-596Y108D01*
X-603Y109D01*
D02*
G37*
G36*
X-1748Y161D02*
X-1755Y160D01*
X-1760Y156D01*
X-1764Y151D01*
X-1765Y144D01*
X-1764Y137D01*
X-1760Y132D01*
X-1755Y128D01*
X-1748Y127D01*
X-1746Y127D01*
X-1743Y123D01*
X-1745Y120D01*
X-1746Y113D01*
X-1745Y106D01*
X-1741Y101D01*
X-1736Y97D01*
X-1729Y96D01*
X-1722Y97D01*
X-1717Y100D01*
X-1713Y98D01*
X-1713Y96D01*
X-1712Y89D01*
X-1708Y84D01*
X-1703Y80D01*
X-1696Y79D01*
X-1689Y80D01*
X-1684Y84D01*
X-1680Y89D01*
X-1679Y96D01*
X-1680Y103D01*
X-1684Y108D01*
X-1689Y112D01*
X-1696Y113D01*
X-1703Y112D01*
X-1708Y109D01*
X-1712Y111D01*
X-1712Y113D01*
X-1713Y120D01*
X-1717Y125D01*
X-1722Y129D01*
X-1729Y130D01*
X-1731Y130D01*
X-1734Y134D01*
X-1732Y137D01*
X-1731Y144D01*
X-1732Y151D01*
X-1736Y156D01*
X-1741Y160D01*
X-1748Y161D01*
D02*
G37*
G36*
X0Y136D02*
X-21Y134D01*
X-42Y129D01*
X-62Y121D01*
X-80Y110D01*
X-96Y96D01*
X-108Y82D01*
X-113Y84D01*
Y87D01*
X-113Y87D01*
X-109Y92D01*
X-108Y99D01*
X-109Y106D01*
X-113Y111D01*
X-114Y112D01*
X-116Y115D01*
X-120Y117D01*
X-124Y118D01*
X-128Y117D01*
X-132Y115D01*
X-132Y115D01*
X-132Y115D01*
X-137Y111D01*
X-141Y106D01*
X-142Y99D01*
X-141Y92D01*
X-137Y87D01*
X-135Y85D01*
Y80D01*
X-149Y66D01*
X-151Y62D01*
X-152Y58D01*
X-152Y58D01*
Y-63D01*
X-152Y-63D01*
X-151Y-67D01*
X-149Y-71D01*
X-73Y-147D01*
X-73Y-147D01*
X-69Y-149D01*
X-65Y-150D01*
X-16D01*
X-4Y-162D01*
Y-174D01*
X-4Y-174D01*
X-3Y-178D01*
X-1Y-182D01*
X3Y-185D01*
X2Y-190D01*
X3Y-197D01*
X7Y-202D01*
X12Y-206D01*
X19Y-207D01*
X26Y-206D01*
X31Y-202D01*
X35Y-197D01*
X36Y-190D01*
X35Y-183D01*
X34Y-182D01*
X35Y-181D01*
X40Y-177D01*
X44Y-172D01*
X45Y-165D01*
X44Y-158D01*
X40Y-153D01*
X35Y-149D01*
X28Y-148D01*
X21Y-149D01*
X20Y-150D01*
X15Y-149D01*
X15Y-149D01*
Y-149D01*
X15Y-149D01*
X7Y-141D01*
X8Y-136D01*
X21Y-135D01*
X42Y-130D01*
X62Y-122D01*
X80Y-111D01*
X97Y-97D01*
X110Y-80D01*
X122Y-62D01*
X130Y-42D01*
X135Y-22D01*
X136Y-0D01*
X135Y21D01*
X130Y42D01*
X122Y62D01*
X110Y80D01*
X100Y92D01*
X100Y93D01*
X107Y94D01*
X112Y98D01*
X116Y103D01*
X117Y110D01*
X116Y117D01*
X112Y122D01*
X107Y126D01*
X100Y127D01*
X93Y126D01*
X88Y122D01*
X84Y117D01*
X83Y114D01*
X82Y113D01*
X79Y111D01*
X62Y121D01*
X42Y129D01*
X21Y134D01*
X0Y136D01*
D02*
G37*
G36*
X-1477Y115D02*
X-1484Y114D01*
X-1489Y110D01*
X-1493Y105D01*
X-1494Y98D01*
X-1493Y91D01*
X-1489Y86D01*
X-1484Y82D01*
X-1477Y81D01*
X-1470Y82D01*
X-1465Y86D01*
X-1461Y91D01*
X-1460Y98D01*
X-1461Y105D01*
X-1465Y110D01*
X-1470Y114D01*
X-1477Y115D01*
D02*
G37*
G36*
X397Y347D02*
X389Y346D01*
X382Y343D01*
X376Y338D01*
X371Y332D01*
X368Y325D01*
X367Y317D01*
X368Y309D01*
X371Y302D01*
X376Y296D01*
X382Y291D01*
X389Y288D01*
X397Y287D01*
X405Y288D01*
X412Y291D01*
X418Y296D01*
X423Y302D01*
X426Y309D01*
X427Y317D01*
X426Y325D01*
X423Y332D01*
X418Y338D01*
X412Y343D01*
X405Y346D01*
X397Y347D01*
D02*
G37*
G36*
X-1768Y354D02*
X-1775Y353D01*
X-1780Y349D01*
X-1784Y344D01*
X-1785Y337D01*
X-1784Y330D01*
X-1780Y325D01*
X-1778Y323D01*
X-1779Y318D01*
X-1785Y317D01*
X-1790Y313D01*
X-1794Y308D01*
X-1795Y301D01*
X-1794Y294D01*
X-1790Y289D01*
X-1785Y285D01*
X-1778Y284D01*
X-1771Y285D01*
X-1766Y289D01*
X-1762Y294D01*
X-1761Y301D01*
X-1762Y308D01*
X-1766Y313D01*
X-1768Y315D01*
X-1767Y320D01*
X-1761Y321D01*
X-1756Y325D01*
X-1752Y330D01*
X-1751Y337D01*
X-1752Y344D01*
X-1756Y349D01*
X-1761Y353D01*
X-1768Y354D01*
D02*
G37*
G36*
X-474Y302D02*
X-481Y301D01*
X-486Y297D01*
X-489Y294D01*
X-493Y297D01*
X-500Y298D01*
X-507Y297D01*
X-512Y293D01*
X-516Y288D01*
X-517Y281D01*
X-516Y274D01*
X-512Y269D01*
X-507Y265D01*
X-500Y264D01*
X-493Y265D01*
X-488Y269D01*
X-485Y272D01*
X-481Y269D01*
X-474Y268D01*
X-467Y269D01*
X-462Y273D01*
X-458Y278D01*
X-457Y285D01*
X-458Y292D01*
X-462Y297D01*
X-467Y301D01*
X-474Y302D01*
D02*
G37*
G36*
X-1390Y353D02*
X-1397Y352D01*
X-1402Y348D01*
X-1406Y343D01*
X-1407Y336D01*
X-1406Y329D01*
X-1402Y324D01*
X-1401Y323D01*
X-1403Y318D01*
X-1403Y318D01*
X-1410Y317D01*
X-1415Y313D01*
X-1419Y308D01*
X-1420Y301D01*
X-1419Y294D01*
X-1415Y289D01*
X-1410Y285D01*
X-1403Y284D01*
X-1396Y285D01*
X-1391Y289D01*
X-1387Y294D01*
X-1386Y301D01*
X-1387Y308D01*
X-1391Y313D01*
X-1392Y314D01*
X-1390Y319D01*
X-1390Y319D01*
X-1383Y320D01*
X-1378Y324D01*
X-1374Y329D01*
X-1373Y336D01*
X-1374Y343D01*
X-1378Y348D01*
X-1383Y352D01*
X-1390Y353D01*
D02*
G37*
G36*
X-1231Y350D02*
X-1238Y349D01*
X-1243Y345D01*
X-1247Y340D01*
X-1248Y333D01*
X-1247Y326D01*
X-1243Y321D01*
X-1238Y317D01*
X-1231Y316D01*
X-1224Y317D01*
X-1219Y321D01*
X-1215Y326D01*
X-1214Y333D01*
X-1215Y340D01*
X-1219Y345D01*
X-1224Y349D01*
X-1231Y350D01*
D02*
G37*
G36*
X-48Y302D02*
X-55Y300D01*
X-61Y297D01*
X-64Y291D01*
X-66Y284D01*
X-64Y278D01*
X-61Y272D01*
X-55Y268D01*
X-48Y267D01*
X-42Y268D01*
X-36Y272D01*
X-32Y278D01*
X-31Y284D01*
X-32Y291D01*
X-36Y297D01*
X-42Y300D01*
X-48Y302D01*
D02*
G37*
G36*
X-616Y300D02*
X-623Y298D01*
X-629Y295D01*
X-632Y289D01*
X-634Y282D01*
X-632Y276D01*
X-629Y270D01*
X-623Y266D01*
X-616Y265D01*
X-610Y266D01*
X-604Y270D01*
X-600Y276D01*
X-599Y282D01*
X-600Y289D01*
X-604Y295D01*
X-610Y298D01*
X-616Y300D01*
D02*
G37*
G36*
X-113Y300D02*
X-119Y298D01*
X-125Y295D01*
X-129Y289D01*
X-130Y282D01*
X-129Y276D01*
X-125Y270D01*
X-119Y266D01*
X-113Y265D01*
X-106Y266D01*
X-100Y270D01*
X-97Y276D01*
X-95Y282D01*
X-97Y289D01*
X-100Y295D01*
X-106Y298D01*
X-113Y300D01*
D02*
G37*
G36*
X-331Y300D02*
X-338Y299D01*
X-344Y295D01*
X-347Y289D01*
X-349Y283D01*
X-347Y276D01*
X-344Y270D01*
X-338Y267D01*
X-331Y265D01*
X-325Y267D01*
X-319Y270D01*
X-315Y276D01*
X-314Y283D01*
X-315Y289D01*
X-319Y295D01*
X-325Y299D01*
X-331Y300D01*
D02*
G37*
G36*
X-755Y302D02*
X-762Y300D01*
X-768Y297D01*
X-771Y291D01*
X-773Y284D01*
X-771Y278D01*
X-768Y272D01*
X-762Y268D01*
X-755Y267D01*
X-749Y268D01*
X-743Y272D01*
X-739Y278D01*
X-738Y284D01*
X-739Y291D01*
X-743Y297D01*
X-749Y300D01*
X-755Y302D01*
D02*
G37*
G36*
X-187Y301D02*
X-194Y299D01*
X-200Y296D01*
X-203Y290D01*
X-205Y283D01*
X-203Y277D01*
X-200Y271D01*
X-194Y267D01*
X-187Y266D01*
X-181Y267D01*
X-175Y271D01*
X-171Y277D01*
X-170Y283D01*
X-171Y290D01*
X-175Y296D01*
X-181Y299D01*
X-187Y301D01*
D02*
G37*
G36*
X-257Y463D02*
X-263Y462D01*
X-269Y458D01*
X-273Y452D01*
X-274Y446D01*
X-273Y439D01*
X-269Y433D01*
X-263Y430D01*
X-257Y428D01*
X-250Y430D01*
X-244Y433D01*
X-241Y439D01*
X-239Y446D01*
X-241Y452D01*
X-244Y458D01*
X-250Y462D01*
X-257Y463D01*
D02*
G37*
G36*
X-681Y464D02*
X-687Y463D01*
X-693Y459D01*
X-697Y453D01*
X-698Y447D01*
X-697Y440D01*
X-693Y434D01*
X-687Y431D01*
X-681Y429D01*
X-674Y431D01*
X-671Y433D01*
X-666Y431D01*
X-666Y429D01*
X-662Y424D01*
X-657Y420D01*
X-650Y419D01*
X-643Y420D01*
X-638Y424D01*
X-634Y429D01*
X-633Y436D01*
X-634Y443D01*
X-638Y448D01*
X-643Y452D01*
X-650Y453D01*
X-657Y452D01*
X-660Y450D01*
X-664Y452D01*
X-665Y453D01*
X-668Y459D01*
X-674Y463D01*
X-681Y464D01*
D02*
G37*
G36*
X-542Y464D02*
X-548Y462D01*
X-554Y459D01*
X-558Y453D01*
X-559Y446D01*
X-558Y440D01*
X-554Y434D01*
X-548Y430D01*
X-542Y429D01*
X-535Y430D01*
X-529Y434D01*
X-526Y440D01*
X-524Y446D01*
X-526Y453D01*
X-529Y459D01*
X-535Y462D01*
X-542Y464D01*
D02*
G37*
G36*
X-398Y464D02*
X-405Y463D01*
X-410Y459D01*
X-414Y454D01*
X-415Y447D01*
X-414Y440D01*
X-410Y435D01*
X-405Y431D01*
X-398Y430D01*
X-391Y431D01*
X-386Y435D01*
X-382Y440D01*
X-381Y447D01*
X-382Y454D01*
X-386Y459D01*
X-391Y463D01*
X-398Y464D01*
D02*
G37*
G36*
X-113Y464D02*
X-119Y463D01*
X-125Y459D01*
X-129Y453D01*
X-130Y447D01*
X-129Y440D01*
X-125Y434D01*
X-119Y431D01*
X-113Y429D01*
X-106Y431D01*
X-100Y434D01*
X-97Y440D01*
X-95Y447D01*
X-97Y453D01*
X-100Y459D01*
X-106Y463D01*
X-113Y464D01*
D02*
G37*
G36*
X-1493Y447D02*
X-1500Y446D01*
X-1505Y442D01*
X-1509Y437D01*
X-1510Y430D01*
X-1509Y423D01*
X-1505Y418D01*
X-1500Y414D01*
X-1493Y413D01*
X-1486Y414D01*
X-1481Y418D01*
X-1477Y423D01*
X-1476Y430D01*
X-1477Y437D01*
X-1481Y442D01*
X-1486Y446D01*
X-1493Y447D01*
D02*
G37*
G36*
X-1022Y366D02*
X-1029Y365D01*
X-1034Y361D01*
X-1038Y356D01*
X-1039Y349D01*
X-1038Y342D01*
X-1034Y337D01*
X-1029Y333D01*
X-1022Y332D01*
X-1015Y333D01*
X-1010Y337D01*
X-1006Y342D01*
X-1005Y349D01*
X-1006Y356D01*
X-1010Y361D01*
X-1015Y365D01*
X-1022Y366D01*
D02*
G37*
G36*
X-1605Y354D02*
X-1612Y353D01*
X-1617Y349D01*
X-1621Y344D01*
X-1622Y337D01*
X-1621Y330D01*
X-1617Y325D01*
X-1612Y321D01*
X-1605Y320D01*
X-1598Y321D01*
X-1593Y325D01*
X-1589Y330D01*
X-1588Y337D01*
X-1589Y344D01*
X-1593Y349D01*
X-1598Y353D01*
X-1605Y354D01*
D02*
G37*
G36*
X-1092Y389D02*
X-1099Y388D01*
X-1104Y384D01*
X-1108Y379D01*
X-1109Y372D01*
X-1108Y365D01*
X-1104Y360D01*
X-1099Y356D01*
X-1092Y355D01*
X-1085Y356D01*
X-1080Y360D01*
X-1076Y365D01*
X-1075Y372D01*
X-1076Y379D01*
X-1080Y384D01*
X-1085Y388D01*
X-1092Y389D01*
D02*
G37*
G36*
X-1766Y404D02*
X-1773Y403D01*
X-1778Y399D01*
X-1782Y394D01*
X-1783Y387D01*
X-1782Y380D01*
X-1778Y375D01*
X-1773Y371D01*
X-1766Y370D01*
X-1759Y371D01*
X-1754Y375D01*
X-1750Y380D01*
X-1749Y387D01*
X-1750Y394D01*
X-1754Y399D01*
X-1759Y403D01*
X-1766Y404D01*
D02*
G37*
G36*
X-1465Y392D02*
X-1472Y390D01*
X-1477Y387D01*
X-1481Y381D01*
X-1482Y374D01*
X-1481Y368D01*
X-1477Y362D01*
X-1472Y358D01*
X-1465Y357D01*
X-1458Y358D01*
X-1453Y362D01*
X-1449Y368D01*
X-1448Y374D01*
X-1449Y381D01*
X-1453Y387D01*
X-1458Y390D01*
X-1465Y392D01*
D02*
G37*
G36*
X100Y300D02*
X93Y299D01*
X87Y295D01*
X84Y289D01*
X82Y283D01*
X84Y276D01*
X87Y270D01*
X93Y267D01*
X96Y266D01*
X120Y242D01*
X120Y242D01*
X123Y240D01*
X125Y239D01*
X130Y238D01*
X130Y238D01*
X140D01*
X144Y235D01*
X151Y234D01*
X158Y235D01*
X163Y239D01*
X167Y244D01*
X168Y251D01*
X167Y258D01*
X163Y263D01*
X158Y267D01*
X151Y268D01*
X144Y267D01*
X143Y266D01*
X136D01*
X116Y286D01*
X116Y289D01*
X112Y295D01*
X106Y299D01*
X100Y300D01*
D02*
G37*
G36*
X-1808Y267D02*
X-1815Y266D01*
X-1820Y262D01*
X-1824Y257D01*
X-1825Y250D01*
X-1824Y243D01*
X-1820Y238D01*
X-1815Y234D01*
X-1808Y233D01*
X-1801Y234D01*
X-1796Y238D01*
X-1792Y243D01*
X-1791Y250D01*
X-1792Y257D01*
X-1796Y262D01*
X-1801Y266D01*
X-1808Y267D01*
D02*
G37*
G36*
X791Y376D02*
X778Y375D01*
X766Y371D01*
X754Y365D01*
X744Y357D01*
X735Y346D01*
X729Y335D01*
X725Y322D01*
X724Y309D01*
X725Y296D01*
X729Y283D01*
X735Y272D01*
X744Y261D01*
X754Y253D01*
X766Y247D01*
X778Y243D01*
X791Y242D01*
X804Y243D01*
X817Y247D01*
X829Y253D01*
X839Y261D01*
X847Y272D01*
X854Y283D01*
X857Y296D01*
X859Y309D01*
X857Y322D01*
X854Y335D01*
X847Y346D01*
X839Y357D01*
X829Y365D01*
X817Y371D01*
X804Y375D01*
X791Y376D01*
D02*
G37*
G36*
X1122D02*
X1109Y375D01*
X1096Y371D01*
X1085Y365D01*
X1074Y357D01*
X1066Y346D01*
X1060Y335D01*
X1056Y322D01*
X1055Y309D01*
X1056Y296D01*
X1060Y283D01*
X1066Y272D01*
X1074Y261D01*
X1085Y253D01*
X1096Y247D01*
X1109Y243D01*
X1122Y242D01*
X1135Y243D01*
X1148Y247D01*
X1159Y253D01*
X1170Y261D01*
X1178Y272D01*
X1184Y283D01*
X1188Y296D01*
X1189Y309D01*
X1188Y322D01*
X1184Y335D01*
X1178Y346D01*
X1170Y357D01*
X1159Y365D01*
X1148Y371D01*
X1135Y375D01*
X1122Y376D01*
D02*
G37*
G36*
X957D02*
X944Y375D01*
X931Y371D01*
X919Y365D01*
X909Y357D01*
X901Y346D01*
X894Y335D01*
X891Y322D01*
X889Y309D01*
X891Y296D01*
X894Y283D01*
X901Y272D01*
X909Y261D01*
X919Y253D01*
X931Y247D01*
X944Y243D01*
X957Y242D01*
X970Y243D01*
X982Y247D01*
X994Y253D01*
X1004Y261D01*
X1013Y272D01*
X1019Y283D01*
X1023Y296D01*
X1024Y309D01*
X1023Y322D01*
X1019Y335D01*
X1013Y346D01*
X1004Y357D01*
X994Y365D01*
X982Y371D01*
X970Y375D01*
X957Y376D01*
D02*
G37*
G36*
X-201Y263D02*
X-208Y262D01*
X-213Y258D01*
X-217Y253D01*
X-218Y246D01*
X-217Y239D01*
X-213Y234D01*
X-208Y230D01*
X-201Y229D01*
X-194Y230D01*
X-189Y234D01*
X-185Y239D01*
X-184Y246D01*
X-185Y253D01*
X-189Y258D01*
X-194Y262D01*
X-201Y263D01*
D02*
G37*
G36*
X-1283Y253D02*
X-1290Y252D01*
X-1295Y248D01*
X-1299Y243D01*
X-1300Y236D01*
X-1299Y229D01*
X-1295Y224D01*
X-1290Y220D01*
X-1283Y219D01*
X-1276Y220D01*
X-1271Y224D01*
X-1267Y229D01*
X-1266Y236D01*
X-1267Y243D01*
X-1271Y248D01*
X-1276Y252D01*
X-1283Y253D01*
D02*
G37*
G36*
X-1652Y250D02*
X-1659Y249D01*
X-1664Y245D01*
X-1668Y240D01*
X-1669Y233D01*
X-1668Y226D01*
X-1664Y221D01*
X-1659Y217D01*
X-1652Y216D01*
X-1645Y217D01*
X-1640Y221D01*
X-1636Y226D01*
X-1635Y233D01*
X-1636Y240D01*
X-1640Y245D01*
X-1645Y249D01*
X-1652Y250D01*
D02*
G37*
G36*
X-6Y255D02*
X-13Y254D01*
X-18Y250D01*
X-22Y245D01*
X-23Y238D01*
X-22Y231D01*
X-18Y226D01*
X-13Y222D01*
X-6Y221D01*
X1Y222D01*
X6Y226D01*
X10Y231D01*
X11Y238D01*
X10Y245D01*
X6Y250D01*
X1Y254D01*
X-6Y255D01*
D02*
G37*
G36*
X-96Y259D02*
X-102Y257D01*
X-108Y254D01*
X-112Y248D01*
X-113Y241D01*
X-112Y235D01*
X-108Y229D01*
X-102Y225D01*
X-96Y224D01*
X-89Y225D01*
X-83Y229D01*
X-80Y235D01*
X-78Y241D01*
X-80Y248D01*
X-83Y254D01*
X-89Y257D01*
X-96Y259D01*
D02*
G37*
G36*
X-1190Y253D02*
X-1197Y252D01*
X-1202Y248D01*
X-1206Y243D01*
X-1207Y236D01*
X-1206Y229D01*
X-1202Y224D01*
Y224D01*
Y224D01*
X-1202Y224D01*
X-1202D01*
X-1203Y219D01*
X-1205Y219D01*
X-1210Y215D01*
X-1214Y210D01*
X-1215Y203D01*
X-1214Y196D01*
X-1210Y191D01*
X-1205Y187D01*
X-1198Y186D01*
X-1191Y187D01*
X-1186Y191D01*
X-1182Y196D01*
X-1181Y203D01*
X-1182Y210D01*
X-1186Y215D01*
X-1190Y218D01*
X-1190Y219D01*
X-1183Y220D01*
D01*
X-1183D01*
X-1183Y220D01*
X-1178Y224D01*
X-1174Y229D01*
X-1173Y236D01*
X-1174Y243D01*
X-1178Y248D01*
X-1183Y252D01*
X-1190Y253D01*
D02*
G37*
G36*
X193Y295D02*
X186Y294D01*
X181Y290D01*
X177Y285D01*
X176Y278D01*
X177Y271D01*
X181Y266D01*
X186Y262D01*
X193Y261D01*
X200Y262D01*
X205Y266D01*
X209Y271D01*
X210Y278D01*
X209Y285D01*
X205Y290D01*
X200Y294D01*
X193Y295D01*
D02*
G37*
G36*
X1721Y290D02*
X1714Y289D01*
X1709Y285D01*
X1705Y280D01*
X1704Y273D01*
X1705Y266D01*
X1709Y261D01*
X1714Y257D01*
X1721Y256D01*
X1728Y257D01*
X1733Y261D01*
X1737Y266D01*
X1737Y265D01*
X1741Y260D01*
X1746Y256D01*
X1753Y255D01*
X1760Y256D01*
X1765Y260D01*
X1769Y265D01*
X1772Y260D01*
X1778Y256D01*
X1784Y255D01*
X1791Y256D01*
X1797Y260D01*
X1800Y266D01*
X1802Y272D01*
X1800Y279D01*
X1797Y285D01*
X1791Y288D01*
X1784Y290D01*
X1778Y288D01*
X1772Y285D01*
X1769Y279D01*
X1765Y284D01*
X1760Y288D01*
X1753Y289D01*
X1746Y288D01*
X1741Y284D01*
X1737Y279D01*
X1737Y280D01*
X1733Y285D01*
X1728Y289D01*
X1721Y290D01*
D02*
G37*
G36*
X-399Y298D02*
X-405Y297D01*
X-411Y293D01*
X-415Y287D01*
X-416Y281D01*
X-415Y274D01*
X-411Y268D01*
X-405Y265D01*
X-399Y263D01*
X-392Y265D01*
X-386Y268D01*
X-383Y274D01*
X-381Y281D01*
X-383Y287D01*
X-386Y293D01*
X-392Y297D01*
X-399Y298D01*
D02*
G37*
G36*
X26Y299D02*
X20Y298D01*
X14Y294D01*
X10Y288D01*
X9Y282D01*
X10Y275D01*
X14Y269D01*
X20Y266D01*
X26Y264D01*
X33Y266D01*
X39Y269D01*
X42Y275D01*
X44Y282D01*
X42Y288D01*
X39Y294D01*
X33Y298D01*
X26Y299D01*
D02*
G37*
G36*
X-257Y299D02*
X-263Y297D01*
X-269Y294D01*
X-273Y288D01*
X-274Y281D01*
X-273Y275D01*
X-269Y269D01*
X-263Y265D01*
X-257Y264D01*
X-250Y265D01*
X-244Y269D01*
X-241Y275D01*
X-239Y281D01*
X-241Y288D01*
X-244Y294D01*
X-250Y297D01*
X-257Y299D01*
D02*
G37*
G36*
X-1231Y284D02*
X-1238Y283D01*
X-1243Y279D01*
X-1247Y274D01*
X-1248Y267D01*
X-1247Y260D01*
X-1243Y255D01*
X-1238Y251D01*
X-1231Y250D01*
X-1224Y251D01*
X-1219Y255D01*
X-1215Y260D01*
X-1214Y267D01*
X-1215Y274D01*
X-1219Y279D01*
X-1224Y283D01*
X-1231Y284D01*
D02*
G37*
G36*
X1453Y376D02*
X1440Y375D01*
X1427Y371D01*
X1415Y365D01*
X1405Y357D01*
X1397Y346D01*
X1391Y335D01*
X1387Y322D01*
X1385Y309D01*
X1387Y296D01*
X1391Y283D01*
X1397Y272D01*
X1405Y261D01*
X1415Y253D01*
X1427Y247D01*
X1440Y243D01*
X1453Y242D01*
X1466Y243D01*
X1479Y247D01*
X1490Y253D01*
X1500Y261D01*
X1509Y272D01*
X1515Y283D01*
X1519Y296D01*
X1520Y309D01*
X1519Y322D01*
X1515Y335D01*
X1509Y346D01*
X1500Y357D01*
X1490Y365D01*
X1479Y371D01*
X1466Y375D01*
X1453Y376D01*
D02*
G37*
G36*
X1287D02*
X1274Y375D01*
X1262Y371D01*
X1250Y365D01*
X1240Y357D01*
X1231Y346D01*
X1225Y335D01*
X1221Y322D01*
X1220Y309D01*
X1221Y296D01*
X1225Y283D01*
X1231Y272D01*
X1240Y261D01*
X1250Y253D01*
X1262Y247D01*
X1274Y243D01*
X1287Y242D01*
X1301Y243D01*
X1313Y247D01*
X1325Y253D01*
X1335Y261D01*
X1343Y272D01*
X1350Y283D01*
X1353Y296D01*
X1355Y309D01*
X1353Y322D01*
X1350Y335D01*
X1343Y346D01*
X1335Y357D01*
X1325Y365D01*
X1313Y371D01*
X1301Y375D01*
X1287Y376D01*
D02*
G37*
G36*
X1618D02*
X1605Y375D01*
X1592Y371D01*
X1581Y365D01*
X1570Y357D01*
X1562Y346D01*
X1556Y335D01*
X1552Y322D01*
X1551Y309D01*
X1552Y296D01*
X1556Y283D01*
X1562Y272D01*
X1570Y261D01*
X1581Y253D01*
X1592Y247D01*
X1605Y243D01*
X1618Y242D01*
X1631Y243D01*
X1644Y247D01*
X1656Y253D01*
X1666Y261D01*
X1674Y272D01*
X1680Y283D01*
X1684Y296D01*
X1685Y309D01*
X1684Y322D01*
X1680Y335D01*
X1674Y346D01*
X1666Y357D01*
X1656Y365D01*
X1644Y371D01*
X1631Y375D01*
X1618Y376D01*
D02*
G37*
G36*
X-808Y281D02*
X-815Y280D01*
X-820Y276D01*
X-824Y271D01*
X-825Y264D01*
X-824Y257D01*
X-820Y252D01*
X-815Y248D01*
X-808Y247D01*
X-801Y248D01*
X-796Y252D01*
X-792Y257D01*
X-791Y264D01*
X-792Y271D01*
X-796Y276D01*
X-801Y280D01*
X-808Y281D01*
D02*
G37*
G36*
X-934D02*
X-941Y280D01*
X-946Y276D01*
X-950Y271D01*
X-951Y264D01*
X-950Y257D01*
X-946Y252D01*
X-941Y248D01*
X-934Y247D01*
X-927Y248D01*
X-922Y252D01*
X-918Y257D01*
X-917Y264D01*
X-918Y271D01*
X-922Y276D01*
X-927Y280D01*
X-934Y281D01*
D02*
G37*
%LPD*%
D56*
X-1081Y211D02*
X-981Y111D01*
X-124Y75D02*
Y107D01*
X-141Y58D02*
X-124Y75D01*
X-141Y-63D02*
Y58D01*
Y-63D02*
X-65Y-139D01*
X-11D01*
X20Y-189D02*
Y-187D01*
X-125Y106D02*
X-124Y107D01*
X-125Y99D02*
Y106D01*
X7Y-174D02*
X20Y-187D01*
X7Y-174D02*
Y-157D01*
X-11Y-139D02*
X7Y-157D01*
D57*
X164Y-83D02*
X187Y-106D01*
Y-266D02*
Y-106D01*
X100Y283D02*
X130Y252D01*
X152D01*
D58*
X1469Y-545D02*
X1496Y-572D01*
X-589Y-364D02*
X148D01*
X187Y-325D01*
Y-266D01*
X180Y-273D02*
X187Y-266D01*
X141Y-273D02*
X180D01*
X-975Y140D02*
Y148D01*
X-1064Y229D02*
X-975Y140D01*
D62*
X-1870Y-532D02*
G03*
X-1835Y-615I118J0D01*
G01*
X-1402Y-1048D02*
G03*
X-1319Y-1083I84J84D01*
G01*
X1319D02*
G03*
X1402Y-1048I0J118D01*
G01*
X1836Y-615D02*
G03*
X1870Y-532I-84J84D01*
G01*
X-1835Y-615D02*
X-1402Y-1048D01*
X-1319Y-1083D02*
X1319D01*
X1402Y-1048D02*
X1836Y-615D01*
X1870Y-532D02*
Y1053D01*
X-1870D02*
X1870D01*
X-1870Y-532D02*
Y1053D01*
D63*
X-1539Y-659D02*
D03*
X397Y179D02*
D03*
X-1452Y-661D02*
D03*
D67*
X626Y309D02*
D03*
X1287Y526D02*
D03*
X626D02*
D03*
D69*
X-89Y683D02*
D03*
X-719D02*
D03*
D70*
X-1692Y735D02*
D03*
D71*
X-1631Y416D02*
D03*
X-1617Y-425D02*
D03*
X-1242Y4D02*
D03*
X1007Y-904D02*
D03*
X1076Y-879D02*
D03*
X1047Y-879D02*
D03*
X1107Y-910D02*
D03*
X453Y-904D02*
D03*
X522Y-879D02*
D03*
X493Y-879D02*
D03*
X553Y-910D02*
D03*
X-103Y-904D02*
D03*
X-34Y-879D02*
D03*
X-63Y-879D02*
D03*
X-3Y-910D02*
D03*
X1570Y-69D02*
D03*
X1536Y-144D02*
D03*
Y8D02*
D03*
X1031Y-313D02*
D03*
X955Y-279D02*
D03*
X1106D02*
D03*
X-559Y-910D02*
D03*
X-590Y-879D02*
D03*
X-619Y-879D02*
D03*
X-659Y-904D02*
D03*
X-1406Y-414D02*
D03*
X-811Y-450D02*
D03*
X-589Y-364D02*
D03*
X1753Y528D02*
D03*
X1723Y528D02*
D03*
X1786Y527D02*
D03*
X1469Y-545D02*
D03*
X1497Y-573D02*
D03*
X-294Y282D02*
D03*
X-11Y283D02*
D03*
X-734Y79D02*
D03*
X-775Y-3D02*
D03*
X-718Y284D02*
D03*
X-903Y409D02*
D03*
X-1566Y-572D02*
D03*
X232Y-280D02*
D03*
X-1366Y-371D02*
D03*
X-1170Y481D02*
D03*
X-1665Y-48D02*
D03*
X-2Y205D02*
D03*
X-1784Y457D02*
D03*
X-1088Y-929D02*
D03*
X-11Y-235D02*
D03*
X-789Y-119D02*
D03*
X-853Y-428D02*
D03*
X-1064Y232D02*
D03*
X161Y-81D02*
D03*
X-559Y217D02*
D03*
X-579Y282D02*
D03*
X19Y-190D02*
D03*
X391Y588D02*
D03*
X-436Y284D02*
D03*
X141Y-273D02*
D03*
X100Y283D02*
D03*
X151Y251D02*
D03*
X-125Y99D02*
D03*
X-150Y282D02*
D03*
X-975Y148D02*
D03*
X-1721Y-376D02*
D03*
X-1388Y-546D02*
D03*
X-981Y111D02*
D03*
X-1079Y211D02*
D03*
X-907Y-200D02*
D03*
D73*
X1778Y977D02*
X1784Y983D01*
X1795D01*
X1801Y977D01*
Y971D01*
X1795Y965D01*
X1790D01*
X1795D01*
X1801Y960D01*
Y954D01*
X1795Y948D01*
X1784D01*
X1778Y954D01*
M02*
