%
M48
M72
T01C0.0150
T02C0.0276
T03C0.0354
T04C0.0400
T05C0.0433
T06C0.0472
T07C0.0591
T08C0.0630
T09C0.0866
T10C0.1102
T11C0.1260
T12C0.1280
%
T01
X2530Y2195
X4030Y1945
X3218Y4258
X3093Y4695
X3030Y5195
X3030Y5945
X3780Y5570
X4218Y4570
X5405Y5389
X5655Y5695
X5905Y5389
X5599Y6195
X5349Y6508
X5549Y6820
X6286Y7252
X7655Y5945
X7655Y5508
X8905Y3445
X10655Y5070
X10343Y5820
X10343Y6320
X11655Y6070
X11530Y4445
X13780Y2195
X14155Y5133
X13030Y7820
X14405Y9008
X15530Y10320
X15843Y10695
X15030Y10570
X14530Y10570
X13655Y10752
X12155Y10945
X10686Y12008
X10336Y11820
X10118Y11508
X10411Y11252
X9905Y10945
X9218Y11070
X9030Y11695
X9030Y12320
X9030Y12820
X8936Y13420
X9155Y13820
X9843Y14508
X10155Y14070
X10343Y13695
X10343Y13008
X11530Y12820
X12655Y13820
X13093Y13820
X13780Y13820
X13549Y12820
X14405Y12820
X14905Y13695
X14905Y14195
X14905Y14695
X14780Y15070
X15280Y16070
X16155Y16320
X16093Y17570
X15530Y18820
X13780Y18945
X13030Y18758
X12663Y19234
X13069Y17688
X12593Y17508
X12655Y16195
X12343Y15883
X11905Y15570
X12852Y15110
X13405Y15070
X15968Y15008
X16718Y14695
X16155Y13564
X16655Y13070
X16530Y12445
X16530Y12070
X16655Y11633
X18030Y12570
X19030Y13195
X18093Y15008
X17405Y16002
X18030Y17070
X18343Y16758
X19161Y17702
X18905Y19445
X18405Y19570
X17905Y19570
X11280Y18968
X10155Y18945
X10155Y18320
X9655Y17945
X9280Y18195
X8943Y17977
X8780Y17620
X8868Y16465
X8382Y16198
X7984Y16133
X8086Y15600
X7405Y15758
X7093Y16014
X7155Y14383
X6780Y14258
X6211Y14445
X5468Y14820
X5436Y15758
X5405Y17133
X4155Y17808
X3155Y17508
X3030Y17070
X3093Y16695
X3093Y16070
X3280Y15064
X3161Y14464
X3155Y14070
X3280Y13320
X3218Y12695
X3030Y12320
X3593Y11758
X4155Y12070
X3968Y12820
X4030Y13820
X5780Y13570
X6030Y13195
X6593Y13070
X7155Y12808
X7155Y12433
X7780Y11945
X7718Y11320
X7405Y11008
X8030Y11008
X8343Y11258
X7530Y10064
X7099Y10045
X6368Y9427
X5349Y9439
X5349Y10452
X5718Y11008
X5718Y11633
X5718Y12070
X5780Y12445
X6718Y11508
X4280Y10602
X4105Y10239
X4280Y9883
X3905Y9695
X3530Y10145
X3093Y10133
X3093Y9633
X3218Y9133
X3155Y8383
X3030Y7820
X3536Y7577
X4280Y7570
X1961Y10133
X1961Y10508
X1655Y10883
X1218Y12820
X3718Y10758
X3999Y11033
X7655Y14383
X8155Y14195
X9343Y15945
X9780Y15695
X10405Y16695
X10155Y17070
X9280Y18820
X8073Y18777
X7899Y19194
X5218Y18883
X4280Y18883
X3093Y18133
X2405Y18945
X4280Y20570
X10530Y9445
X10530Y9008
X8155Y8820
X1405Y4570
X16155Y9320
X17280Y8570
X18780Y7695
X19280Y7820
X19780Y7695
X18905Y6195
X19280Y5195
X17655Y5445
X19280Y10070
X19780Y10070
T02
X15155Y5195
X15530Y3695
X16155Y3445
X16780Y3445
X15530Y2695
X12905Y2195
T03
X13655Y6870
X14655Y6870
X15655Y6870
X16655Y6870
X16155Y7870
X15155Y7870
X14155Y7870
X17155Y7870
X18155Y11756
X18155Y13134
X18155Y16256
X18155Y17634
T04
X17555Y9770
X16555Y9770
X14255Y9770
X13255Y9770
X19530Y4570
X19530Y3570
X6780Y18070
X5780Y18070
X5843Y8945
X5843Y7945
T05
X3655Y18754
T06
X3655Y3636
T07
X8146Y20073
X14414Y20073
T08
X12355Y5570
X18455Y5570
T09
X9905Y4198
X5905Y4198
T10
X1496Y2161
X1496Y20165
X19500Y20165
X19500Y2161
T11
X16201Y20077
X6359Y20077
T12
X13155Y4370
X17655Y4370
M30
