  0
SECTION
  2
HEADER
  9
$ACADVER
  1
AC1015
  9
$ACADMAINTVER
 70
     6
  9
$DWGCODEPAGE
  3
ANSI_1252
  9
$INSBASE
 10
0.0
 20
0.0
 30
0.0
  9
$EXTMIN
 10
0.0
 20
0.0
 30
0.0
  9
$EXTMAX
 10
279.4
 20
215.9
 30
0.0
  9
$LIMMIN
 10
0.0
 20
0.0
  9
$LIMMAX
 10
279.4
 20
215.9
  9
$ORTHOMODE
 70
     0
  9
$REGENMODE
 70
     1
  9
$FILLMODE
 70
     1
  9
$QTEXTMODE
 70
     0
  9
$MIRRTEXT
 70
     1
  9
$LTSCALE
 40
1.0
  9
$ATTMODE
 70
     1
  9
$TEXTSIZE
 40
3.5
  9
$TRACEWID
 40
1.0
  9
$TEXTSTYLE
  7
Standard
  9
$CLAYER
  8
0
  9
$CELTYPE
  6
ByLayer
  9
$CECOLOR
 62
   256
  9
$CELTSCALE
 40
1.0
  9
$DISPSILH
 70
     0
  9
$DIMSCALE
 40
1.0
  9
$DIMASZ
 40
3.302
  9
$DIMEXO
 40
1.0
  9
$DIMDLI
 40
3.75
  9
$DIMRND
 40
0.0
  9
$DIMDLE
 40
0.0
  9
$DIMEXE
 40
1.0
  9
$DIMTP
 40
0.0
  9
$DIMTM
 40
0.0
  9
$DIMTXT
 40
3.5
  9
$DIMCEN
 40
2.5
  9
$DIMTSZ
 40
0.0
  9
$DIMTOL
 70
     0
  9
$DIMLIM
 70
     0
  9
$DIMTIH
 70
     1
  9
$DIMTOH
 70
     1
  9
$DIMSE1
 70
     0
  9
$DIMSE2
 70
     0
  9
$DIMTAD
 70
     1
  9
$DIMZIN
 70
     0
  9
$DIMBLK
  1

  9
$DIMASO
 70
     1
  9
$DIMSHO
 70
     1
  9
$DIMPOST
  1

  9
$DIMAPOST
  1

  9
$DIMALT
 70
     0
  9
$DIMALTD
 70
     3
  9
$DIMALTF
 40
0.0393700787
  9
$DIMLFAC
 40
1.0
  9
$DIMTOFL
 70
     1
  9
$DIMTVP
 40
0.0
  9
$DIMTIX
 70
     0
  9
$DIMSOXD
 70
     0
  9
$DIMSAH
 70
     0
  9
$DIMBLK1
  1

  9
$DIMBLK2
  1

  9
$DIMSTYLE
  2
ISO-25
  9
$DIMCLRD
 70
     0
  9
$DIMCLRE
 70
     0
  9
$DIMCLRT
 70
     0
  9
$DIMTFAC
 40
1.0
  9
$DIMGAP
 40
1.524
  9
$DIMJUST
 70
     0
  9
$DIMSD1
 70
     0
  9
$DIMSD2
 70
     0
  9
$DIMTOLJ
 70
     0
  9
$DIMTZIN
 70
     0
  9
$DIMALTZ
 70
     0
  9
$DIMALTTZ
 70
     0
  9
$DIMUPT
 70
     0
  9
$DIMDEC
 70
     3
  9
$DIMTDEC
 70
     3
  9
$DIMALTU
 70
     2
  9
$DIMALTTD
 70
     3
  9
$DIMTXSTY
  7
Standard
  9
$DIMAUNIT
 70
     0
  9
$DIMADEC
 70
     2
  9
$DIMALTRND
 40
0.0
  9
$DIMAZIN
 70
     0
  9
$DIMDSEP
 70
    44
  9
$DIMATFIT
 70
     3
  9
$DIMFRAC
 70
     0
  9
$DIMLDRBLK
  1

  9
$DIMLUNIT
 70
     2
  9
$DIMLWD
 70
    -2
  9
$DIMLWE
 70
    -2
  9
$DIMTMOVE
 70
     0
  9
$LUNITS
 70
     2
  9
$LUPREC
 70
     2
  9
$SKETCHINC
 40
1.0
  9
$FILLETRAD
 40
10.0
  9
$AUNITS
 70
     0
  9
$AUPREC
 70
     2
  9
$MENU
  1
.
  9
$ELEVATION
 40
0.0
  9
$PELEVATION
 40
0.0
  9
$THICKNESS
 40
0.0
  9
$LIMCHECK
 70
     0
  9
$CHAMFERA
 40
10.0
  9
$CHAMFERB
 40
10.0
  9
$CHAMFERC
 40
20.0
  9
$CHAMFERD
 40
0.0
  9
$SKPOLY
 70
     0
  9
$TDCREATE
 40
2456177.417859595
  9
$TDUCREATE
 40
2456177.584526262
  9
$TDUPDATE
 40
2456177.417859606
  9
$TDUUPDATE
 40
2456177.584526273
  9
$TDINDWG
 40
0.0000000116
  9
$TDUSRTIMER
 40
0.0000000116
  9
$USRTIMER
 70
     1
  9
$ANGBASE
 50
0.0
  9
$ANGDIR
 70
     0
  9
$PDMODE
 70
     0
  9
$PDSIZE
 40
-1.0
  9
$PLINEWID
 40
0.0
  9
$SPLFRAME
 70
     0
  9
$SPLINETYPE
 70
     6
  9
$SPLINESEGS
 70
     8
  9
$HANDSEED
  5
EF
  9
$SURFTAB1
 70
     6
  9
$SURFTAB2
 70
     6
  9
$SURFTYPE
 70
     6
  9
$SURFU
 70
     6
  9
$SURFV
 70
     6
  9
$UCSBASE
  2

  9
$UCSNAME
  2

  9
$UCSORG
 10
0.0
 20
0.0
 30
0.0
  9
$UCSXDIR
 10
1.0
 20
0.0
 30
0.0
  9
$UCSYDIR
 10
0.0
 20
1.0
 30
0.0
  9
$UCSORTHOREF
  2

  9
$UCSORTHOVIEW
 70
     0
  9
$UCSORGTOP
 10
0.0
 20
0.0
 30
0.0
  9
$UCSORGBOTTOM
 10
0.0
 20
0.0
 30
0.0
  9
$UCSORGLEFT
 10
0.0
 20
0.0
 30
0.0
  9
$UCSORGRIGHT
 10
0.0
 20
0.0
 30
0.0
  9
$UCSORGFRONT
 10
0.0
 20
0.0
 30
0.0
  9
$UCSORGBACK
 10
0.0
 20
0.0
 30
0.0
  9
$PUCSBASE
  2

  9
$PUCSNAME
  2

  9
$PUCSORG
 10
0.0
 20
0.0
 30
0.0
  9
$PUCSXDIR
 10
1.0
 20
0.0
 30
0.0
  9
$PUCSYDIR
 10
0.0
 20
1.0
 30
0.0
  9
$PUCSORTHOREF
  2

  9
$PUCSORTHOVIEW
 70
     0
  9
$PUCSORGTOP
 10
0.0
 20
0.0
 30
0.0
  9
$PUCSORGBOTTOM
 10
0.0
 20
0.0
 30
0.0
  9
$PUCSORGLEFT
 10
0.0
 20
0.0
 30
0.0
  9
$PUCSORGRIGHT
 10
0.0
 20
0.0
 30
0.0
  9
$PUCSORGFRONT
 10
0.0
 20
0.0
 30
0.0
  9
$PUCSORGBACK
 10
0.0
 20
0.0
 30
0.0
  9
$USERI1
 70
     0
  9
$USERI2
 70
     0
  9
$USERI3
 70
     0
  9
$USERI4
 70
     0
  9
$USERI5
 70
     0
  9
$USERR1
 40
0.0
  9
$USERR2
 40
0.0
  9
$USERR3
 40
0.0
  9
$USERR4
 40
0.0
  9
$USERR5
 40
0.0
  9
$WORLDVIEW
 70
     1
  9
$SHADEDGE
 70
     3
  9
$SHADEDIF
 70
    70
  9
$TILEMODE
 70
     1
  9
$MAXACTVP
 70
    64
  9
$PINSBASE
 10
0.0
 20
0.0
 30
0.0
  9
$PLIMCHECK
 70
     0
  9
$PEXTMIN
 10
1.0000000000E+20
 20
1.0000000000E+20
 30
1.0000000000E+20
  9
$PEXTMAX
 10
-1.0000000000E+20
 20
-1.0000000000E+20
 30
-1.0000000000E+20
  9
$PLIMMIN
 10
0.0
 20
0.0
  9
$PLIMMAX
 10
420.0
 20
297.0
  9
$UNITMODE
 70
     0
  9
$VISRETAIN
 70
     1
  9
$PLINEGEN
 70
     0
  9
$PSLTSCALE
 70
     1
  9
$TREEDEPTH
 70
  3020
  9
$CMLSTYLE
  2
Standard
  9
$CMLJUST
 70
     0
  9
$CMLSCALE
 40
20.0
  9
$PROXYGRAPHICS
 70
     1
  9
$MEASUREMENT
 70
     1
  9
$CELWEIGHT
370
    -1
  9
$ENDCAPS
280
     0
  9
$JOINSTYLE
280
     0
  9
$LWDISPLAY
290
     1
  9
$INSUNITS
 70
     4
  9
$HYPERLINKBASE
  1

  9
$STYLESHEET
  1

  9
$XEDIT
290
     1
  9
$CEPSNTYPE
380
     0
  9
$PSTYLEMODE
290
     1
  9
$FINGERPRINTGUID
  2
{497A1500-2ED8-43D5-98F5-B52F42952D0A}
  9
$VERSIONGUID
  2
{FAEB1C32-E019-11D5-929B-00C0DF256EC4}
  9
$EXTNAMES
290
     1
  9
$PSVPSCALE
 40
0.0
  9
$OLESTARTUP
290
     0
  0
ENDSEC
  0
SECTION
  2
CLASSES
  0
CLASS
  1
ACDBDICTIONARYWDFLT
  2
AcDbDictionaryWithDefault
  3
ObjectDBX Classes
 90
        0
280
     0
281
     0
  0
CLASS
  1
VISUALSTYLE
  2
AcDbVisualStyle
  3
ObjectDBX Classes
 90
     4095
280
     0
281
     0
  0
CLASS
  1
MATERIAL
  2
AcDbMaterial
  3
ObjectDBX Classes
 90
     1153
280
     0
281
     0
  0
CLASS
  1
ACDBPLACEHOLDER
  2
AcDbPlaceHolder
  3
ObjectDBX Classes
 90
        0
280
     0
281
     0
  0
CLASS
  1
LAYOUT
  2
AcDbLayout
  3
ObjectDBX Classes
 90
        0
280
     0
281
     0
  0
ENDSEC
  0
SECTION
  2
TABLES
  0
TABLE
  2
VPORT
  5
8
330
0
100
AcDbSymbolTable
 70
     1
  0
VPORT
  5
29
330
8
100
AcDbSymbolTableRecord
100
AcDbViewportTableRecord
  2
*Active
 70
     0
 10
0.0
 20
0.0
 11
1.0
 21
1.0
 12
139.7
 22
107.95
 13
0.0
 23
0.0
 14
10.0
 24
10.0
 15
10.0
 25
10.0
 16
0.0
 26
0.0
 36
1.0
 17
0.0
 27
0.0
 37
0.0
 40
215.9
 41
1.2941176471
 42
50.0
 43
0.0
 44
0.0
 50
0.0
 51
0.0
 71
     0
 72
  2000
 73
     1
 74
     3
 75
     0
 76
     0
 77
     0
 78
     0
281
     0
 65
     1
110
0.0
120
0.0
130
0.0
111
1.0
121
0.0
131
0.0
112
0.0
122
1.0
132
0.0
 79
     0
146
0.0
  0
ENDTAB
  0
TABLE
  2
LTYPE
  5
5
330
0
100
AcDbSymbolTable
 70
     6
  0
LTYPE
  5
14
330
5
100
AcDbSymbolTableRecord
100
AcDbLinetypeTableRecord
  2
ByBlock
 70
     0
  3

 72
    65
 73
     0
 40
0.0
  0
LTYPE
  5
15
330
5
100
AcDbSymbolTableRecord
100
AcDbLinetypeTableRecord
  2
ByLayer
 70
     0
  3

 72
    65
 73
     0
 40
0.0
  0
LTYPE
  5
16
330
5
100
AcDbSymbolTableRecord
100
AcDbLinetypeTableRecord
  2
Continuous
 70
     0
  3
Solid line
 72
    65
 73
     0
 40
0.0
  0
LTYPE
  5
3F
330
5
100
AcDbSymbolTableRecord
100
AcDbLinetypeTableRecord
  2
HIDDEN
 70
     0
  3
Hidden __ __ __ __ __ __ __ __ __ __ __ __ __ __
 72
    65
 73
     2
 40
1.905
 49
1.27
 74
     0
 49
-0.635
 74
     0
  0
LTYPE
  5
40
330
5
100
AcDbSymbolTableRecord
100
AcDbLinetypeTableRecord
  2
PHANTOM
 70
     0
  3
Phantom ______  __  __  ______  __  __  ______
 72
    65
 73
     6
 40
12.7
 49
6.35
 74
     0
 49
-1.27
 74
     0
 49
1.27
 74
     0
 49
-1.27
 74
     0
 49
1.27
 74
     0
 49
-1.27
 74
     0
  0
LTYPE
  5
41
330
5
100
AcDbSymbolTableRecord
100
AcDbLinetypeTableRecord
  2
CENTER
 70
     0
  3
Center ____ _ ____ _ ____ _ ____ _ ____ _ ____
 72
    65
 73
     4
 40
10.16
 49
6.35
 74
     0
 49
-1.27
 74
     0
 49
1.27
 74
     0
 49
-1.27
 74
     0
  0
LTYPE
  5
42
330
5
100
AcDbSymbolTableRecord
100
AcDbLinetypeTableRecord
  2
CENTERX2
 70
     0
  3
Center (2x) ________  __  ________  __  _____
 72
    65
 73
     4
 40
20.32
 49
12.7
 74
     0
 49
-2.54
 74
     0
 49
2.54
 74
     0
 49
-2.54
 74
     0
  0
LTYPE
  5
43
330
5
100
AcDbSymbolTableRecord
100
AcDbLinetypeTableRecord
  2
DOT2
 70
     0
  3
Dot (.5x) ........................................
 72
    65
 73
     2
 40
0.635
 49
0.0
 74
     0
 49
-0.635
 74
     0
  0
ENDTAB
  0
TABLE
  2
LAYER
  5
2
330
0
100
AcDbSymbolTable
 70
     1
  0
LAYER
  5
10
330
2
100
AcDbSymbolTableRecord
100
AcDbLayerTableRecord
  2
0
 70
     0
 62
     7
  6
Continuous
370
    -3
390
F
  0
ENDTAB
  0
TABLE
  2
STYLE
  5
3
330
0
100
AcDbSymbolTable
 70
     2
  0
STYLE
  5
11
330
3
100
AcDbSymbolTableRecord
100
AcDbTextStyleTableRecord
  2
Standard
 70
     0
 40
0.0
 41
1.0
 50
0.0
 71
     0
 42
2.5
  3
txt
  4

  0
STYLE
  5
C6
330
3
100
AcDbSymbolTableRecord
100
AcDbTextStyleTableRecord
  2
SLDTEXTSTYLE0
 70
     0
 40
0.0
 41
0.75
 50
0.0
 71
     0
 42
0.2
  3
TXT
  4

  0
ENDTAB
  0
TABLE
  2
VIEW
  5
6
330
0
100
AcDbSymbolTable
 70
     0
  0
ENDTAB
  0
TABLE
  2
UCS
  5
7
330
0
100
AcDbSymbolTable
 70
     0
  0
ENDTAB
  0
TABLE
  2
APPID
  5
9
330
0
100
AcDbSymbolTable
 70
     1
  0
APPID
  5
12
330
9
100
AcDbSymbolTableRecord
100
AcDbRegAppTableRecord
  2
ACAD
 70
     0
  0
ENDTAB
  0
TABLE
  2
DIMSTYLE
  5
A
330
0
100
AcDbSymbolTable
 70
     2
100
AcDbDimStyleTable
  0
DIMSTYLE
105
27
330
A
100
AcDbSymbolTableRecord
100
AcDbDimStyleTableRecord
  2
ISO-25
 70
     0
 41
2.5
 42
0.625
 43
3.75
 44
1.25
 73
     0
 74
     0
 77
     1
 78
     8
140
2.5
141
2.5
143
0.0393700787
147
0.625
171
     3
172
     1
178
     0
271
     2
272
     2
274
     3
278
    44
283
     0
284
     8
340
11
  0
DIMSTYLE
105
C7
102
{ACAD_REACTORS
330
C5
330
D1
330
DB
330
E5
102
}
330
A
100
AcDbSymbolTableRecord
100
AcDbDimStyleTableRecord
  2
SLDDIMSTYLE0
 70
     0
 41
3.302
 44
0.0
 45
0.000000001
 73
     0
 74
     0
 77
     1
 78
    12
 79
     3
140
3.5
147
0.875
173
     1
178
     0
271
     2
272
     2
276
     2
284
    12
340
C6
  0
ENDTAB
  0
TABLE
  2
BLOCK_RECORD
  5
1
330
0
100
AcDbSymbolTable
 70
     5
  0
BLOCK_RECORD
  5
1F
330
1
100
AcDbSymbolTableRecord
100
AcDbBlockTableRecord
  2
*Model_Space
340
22
  0
BLOCK_RECORD
  5
1B
330
1
100
AcDbSymbolTableRecord
100
AcDbBlockTableRecord
  2
*Paper_Space
340
1E
  0
BLOCK_RECORD
  5
23
330
1
100
AcDbSymbolTableRecord
100
AcDbBlockTableRecord
  2
*Paper_Space0
340
26
  0
BLOCK_RECORD
  5
C8
330
1
100
AcDbSymbolTableRecord
100
AcDbBlockTableRecord
  2
*D1
340
0
  0
BLOCK_RECORD
  5
D2
330
1
100
AcDbSymbolTableRecord
100
AcDbBlockTableRecord
  2
*D2
340
0
  0
BLOCK_RECORD
  5
DC
330
1
100
AcDbSymbolTableRecord
100
AcDbBlockTableRecord
  2
*D3
340
0
  0
BLOCK_RECORD
  5
E6
330
1
100
AcDbSymbolTableRecord
100
AcDbBlockTableRecord
  2
*D4
340
0
  0
ENDTAB
  0
ENDSEC
  0
SECTION
  2
BLOCKS
  0
BLOCK
  5
20
330
1F
100
AcDbEntity
  8
0
100
AcDbBlockBegin
  2
*Model_Space
 70
     0
 10
0.0
 20
0.0
 30
0.0
  3
*Model_Space
  1

  0
ENDBLK
  5
21
330
1F
100
AcDbEntity
  8
0
100
AcDbBlockEnd
  0
BLOCK
  5
1C
330
1B
100
AcDbEntity
 67
     1
  8
0
100
AcDbBlockBegin
  2
*Paper_Space
 70
     0
 10
0.0
 20
0.0
 30
0.0
  3
*Paper_Space
  1

  0
ENDBLK
  5
1D
330
1B
100
AcDbEntity
 67
     1
  8
0
100
AcDbBlockEnd
  0
BLOCK
  5
24
330
23
100
AcDbEntity
  8
0
100
AcDbBlockBegin
  2
*Paper_Space0
 70
     0
 10
0.0
 20
0.0
 30
0.0
  3
*Paper_Space0
  1

  0
ENDBLK
  5
25
330
23
100
AcDbEntity
  8
0
100
AcDbBlockEnd
  0
BLOCK
  5
C9
330
C8
100
AcDbEntity
  8
0
100
AcDbBlockBegin
  2
*D1
 70
     1
 10
0.0
 20
0.0
 30
0.0
  3
*D1
  1

  0
SOLID
  5
CB
330
C8
100
AcDbEntity
  8
0
  6
Continuous
 62
     7
370
     0
100
AcDbTrace
 10
200.1220954357
 20
151.9822459199
 30
0.0
 11
196.8200954357
 21
152.4902459199
 31
0.0
 12
196.8200954357
 22
151.4742459199
 32
0.0
 13
196.8200954357
 23
151.4742459199
 33
0.0
  0
SOLID
  5
CC
330
C8
100
AcDbEntity
  8
0
  6
Continuous
 62
     7
370
     0
100
AcDbTrace
 10
102.1220954357
 20
151.9822459199
 30
0.0
 11
105.4240954357
 21
151.4742459199
 31
0.0
 12
105.4240954357
 22
152.4902459199
 32
0.0
 13
105.4240954357
 23
152.4902459199
 33
0.0
  0
LINE
  5
CD
330
C8
100
AcDbEntity
  8
0
  6
Continuous
 62
     7
370
     0
100
AcDbLine
 10
200.1220954357
 20
136.7225767635
 30
0.0
 11
200.1220954357
 21
152.9822459199
 31
0.0
  0
LINE
  5
CE
330
C8
100
AcDbEntity
  8
0
  6
Continuous
 62
     7
370
     0
100
AcDbLine
 10
102.1220954357
 20
136.7225767635
 30
0.0
 11
102.1220954357
 21
152.9822459199
 31
0.0
  0
LINE
  5
CF
330
C8
100
AcDbEntity
  8
0
  6
Continuous
 62
     7
370
     0
100
AcDbLine
 10
200.1220954357
 20
151.9822459199
 30
0.0
 11
102.1220954357
 21
151.9822459199
 31
0.0
  0
MTEXT
  5
D0
330
C8
100
AcDbEntity
  8
0
  6
Continuous
 62
     7
370
     0
100
AcDbMText
 10
148.866634788
 20
156.4939828345
 30
-0.45
 40
3.5
 41
0.0
 71
     1
 72
     1
  1
98
  7
SLDTEXTSTYLE0
 73
     1
 44
1.0
  0
ENDBLK
  5
CA
330
C8
100
AcDbEntity
  8
0
100
AcDbBlockEnd
  0
BLOCK
  5
D3
330
D2
100
AcDbEntity
  8
0
100
AcDbBlockBegin
  2
*D2
 70
     1
 10
0.0
 20
0.0
 30
0.0
  3
*D2
  1

  0
SOLID
  5
D5
330
D2
100
AcDbEntity
  8
0
  6
Continuous
 62
     7
370
     0
100
AcDbTrace
 10
220.9196572397
 20
109.7225767635
 30
0.0
 11
221.4276572397
 21
113.0245767635
 31
0.0
 12
220.4116572397
 22
113.0245767635
 32
0.0
 13
220.4116572397
 23
113.0245767635
 33
0.0
  0
SOLID
  5
D6
330
D2
100
AcDbEntity
  8
0
  6
Continuous
 62
     7
370
     0
100
AcDbTrace
 10
220.9196572397
 20
135.7225767635
 30
0.0
 11
220.4116572397
 21
132.4205767635
 31
0.0
 12
221.4276572397
 22
132.4205767635
 32
0.0
 13
221.4276572397
 23
132.4205767635
 33
0.0
  0
LINE
  5
D7
330
D2
100
AcDbEntity
  8
0
  6
Continuous
 62
     7
370
     0
100
AcDbLine
 10
201.1220954357
 20
109.7225767635
 30
0.0
 11
221.9196572397
 21
109.7225767635
 31
0.0
  0
LINE
  5
D8
330
D2
100
AcDbEntity
  8
0
  6
Continuous
 62
     7
370
     0
100
AcDbLine
 10
201.1220954357
 20
135.7225767635
 30
0.0
 11
221.9196572397
 21
135.7225767635
 31
0.0
  0
LINE
  5
D9
330
D2
100
AcDbEntity
  8
0
  6
Continuous
 62
     7
370
     0
100
AcDbLine
 10
220.9196572397
 20
109.7225767635
 30
0.0
 11
220.9196572397
 21
135.7225767635
 31
0.0
  0
MTEXT
  5
DA
330
D2
100
AcDbEntity
  8
0
  6
Continuous
 62
     7
370
     0
100
AcDbMText
 10
216.4079203252
 20
117.926649607
 30
-0.45
 40
3.5
 41
0.0
 71
     1
 72
     1
  1
26
  7
SLDTEXTSTYLE0
 11
6.123233995736766E-17
 21
1.0
 31
0.0
 73
     1
 44
1.0
  0
ENDBLK
  5
D4
330
D2
100
AcDbEntity
  8
0
100
AcDbBlockEnd
  0
BLOCK
  5
DD
330
DC
100
AcDbEntity
  8
0
100
AcDbBlockBegin
  2
*D3
 70
     1
 10
0.0
 20
0.0
 30
0.0
  3
*D3
  1

  0
SOLID
  5
DF
330
DC
100
AcDbEntity
  8
0
  6
Continuous
 62
     7
370
     0
100
AcDbTrace
 10
141.2146954357
 20
102.531694881
 30
0.0
 11
137.9126954357
 21
103.039694881
 31
0.0
 12
137.9126954357
 22
102.023694881
 32
0.0
 13
137.9126954357
 23
102.023694881
 33
0.0
  0
SOLID
  5
E0
330
DC
100
AcDbEntity
  8
0
  6
Continuous
 62
     7
370
     0
100
AcDbTrace
 10
102.1220954357
 20
102.531694881
 30
0.0
 11
105.4240954357
 21
102.023694881
 31
0.0
 12
105.4240954357
 22
103.039694881
 32
0.0
 13
105.4240954357
 23
103.039694881
 33
0.0
  0
LINE
  5
E1
330
DC
100
AcDbEntity
  8
0
  6
Continuous
 62
     7
370
     0
100
AcDbLine
 10
141.2146954357
 20
114.3225767635
 30
0.0
 11
141.2146954357
 21
101.531694881
 31
0.0
  0
LINE
  5
E2
330
DC
100
AcDbEntity
  8
0
  6
Continuous
 62
     7
370
     0
100
AcDbLine
 10
102.1220954357
 20
108.7225767635
 30
0.0
 11
102.1220954357
 21
101.531694881
 31
0.0
  0
LINE
  5
E3
330
DC
100
AcDbEntity
  8
0
  6
Continuous
 62
     7
370
     0
100
AcDbLine
 10
141.2146954357
 20
102.531694881
 30
0.0
 11
102.1220954357
 21
102.531694881
 31
0.0
  0
MTEXT
  5
E4
330
DC
100
AcDbEntity
  8
0
  6
Continuous
 62
     7
370
     0
100
AcDbMText
 10
111.3289920164
 20
107.0434317956
 30
-0.45
 40
3.5
 41
0.0
 71
     1
 72
     1
  1
39,093
  7
SLDTEXTSTYLE0
 73
     1
 44
1.0
  0
ENDBLK
  5
DE
330
DC
100
AcDbEntity
  8
0
100
AcDbBlockEnd
  0
BLOCK
  5
E7
330
E6
100
AcDbEntity
  8
0
100
AcDbBlockBegin
  2
*D4
 70
     1
 10
0.0
 20
0.0
 30
0.0
  3
*D4
  1

  0
SOLID
  5
E9
330
E6
100
AcDbEntity
  8
0
  6
Continuous
 62
     7
370
     0
100
AcDbTrace
 10
193.7780808121
 20
93.7225767635
 30
0.0
 11
190.4760808121
 21
94.2305767635
 31
0.0
 12
190.4760808121
 22
93.2145767635
 32
0.0
 13
190.4760808121
 23
93.2145767635
 33
0.0
  0
SOLID
  5
EA
330
E6
100
AcDbEntity
  8
0
  6
Continuous
 62
     7
370
     0
100
AcDbTrace
 10
102.1220954357
 20
93.7225767635
 30
0.0
 11
105.4240954357
 21
93.2145767635
 31
0.0
 12
105.4240954357
 22
94.2305767635
 32
0.0
 13
105.4240954357
 23
94.2305767635
 33
0.0
  0
LINE
  5
EB
330
E6
100
AcDbEntity
  8
0
  6
Continuous
 62
     7
370
     0
100
AcDbLine
 10
193.7780808121
 20
116.2125767635
 30
0.0
 11
193.7780808121
 21
92.7225767635
 31
0.0
  0
LINE
  5
EC
330
E6
100
AcDbEntity
  8
0
  6
Continuous
 62
     7
370
     0
100
AcDbLine
 10
102.1220954357
 20
108.7225767635
 30
0.0
 11
102.1220954357
 21
92.7225767635
 31
0.0
  0
LINE
  5
ED
330
E6
100
AcDbEntity
  8
0
  6
Continuous
 62
     7
370
     0
100
AcDbLine
 10
193.7780808121
 20
93.7225767635
 30
0.0
 11
102.1220954357
 21
93.7225767635
 31
0.0
  0
MTEXT
  5
EE
330
E6
100
AcDbEntity
  8
0
  6
Continuous
 62
     7
370
     0
100
AcDbMText
 10
141.7808299858
 20
98.2343136781
 30
-0.45
 40
3.5
 41
0.0
 71
     1
 72
     1
  1
91,656
  7
SLDTEXTSTYLE0
 73
     1
 44
1.0
  0
ENDBLK
  5
E8
330
E6
100
AcDbEntity
  8
0
100
AcDbBlockEnd
  0
ENDSEC
  0
SECTION
  2
ENTITIES
  0
LINE
  5
44
330
1F
100
AcDbEntity
  8
0
  6
Continuous
 62
     7
370
    15
100
AcDbLine
 10
183.1373809805
 20
131.5887505217
 30
0.0
 11
182.8232784164
 21
131.5887505217
 31
0.0
  0
SPLINE
  5
45
330
1F
100
AcDbEntity
  8
0
  6
Continuous
 62
     7
370
    15
100
AcDbSpline
210
0.0
220
0.0
230
1.0
 70
     8
 71
     3
 72
    23
 73
    19
 74
     0
 42
0.00000001
 43
0.00000001
 40
0.0
 40
0.0
 40
0.0
 40
0.0
 40
0.0726253460834363
 40
0.1419766113262343
 40
0.208984928418939
 40
0.2739568703644442
 40
0.3368893473968398
 40
0.3987449534945882
 40
0.4601158852788607
 40
0.5208249225900288
 40
0.5809944586324843
 40
0.6401519276014626
 40
0.698622450756255
 40
0.7572710809271624
 40
0.8164266940046595
 40
0.8762540482034705
 40
0.9371652930625378
 40
1.0
 40
1.0
 40
1.0
 40
1.0
 10
182.8232784163669
 20
131.5887505217484
 30
0.0
 10
182.8317879670479
 20
131.6239830057237
 30
0.0
 10
182.8484234426051
 20
131.6928596301144
 30
0.0
 10
182.8831210160739
 20
131.7912668909617
 30
0.0
 10
182.9209202712686
 20
131.8843904123524
 30
0.0
 10
182.9663093758333
 20
131.9704864860478
 30
0.0
 10
183.0158181300594
 20
132.0512853887805
 30
0.0
 10
183.0725408515953
 20
132.1249545132486
 30
0.0
 10
183.1338605741612
 20
132.1933674787158
 30
0.0
 10
183.201685523463
 20
132.254080716273
 30
0.0
 10
183.2728141851038
 20
132.3090584454796
 30
0.0
 10
183.3482488048545
 20
132.355933502822
 30
0.0
 10
183.4264716985251
 20
132.3962576556865
 30
0.0
 10
183.5080248314737
 20
132.4294778875619
 30
0.0
 10
183.5931510031657
 20
132.454503411228
 30
0.0
 10
183.6810806264865
 20
132.4726602168188
 30
0.0
 10
183.7720441266012
 20
132.4844513310332
 30
0.0
 10
183.8337917171995
 20
132.4856020941196
 30
0.0
 10
183.8651454035464
 20
132.4861864191842
 30
0.0
  0
SPLINE
  5
46
330
1F
100
AcDbEntity
  8
0
  6
Continuous
 62
     7
370
    15
100
AcDbSpline
210
0.0
220
0.0
230
1.0
 70
     8
 71
     3
 72
    19
 73
    15
 74
     0
 42
0.00000001
 43
0.00000001
 40
0.0
 40
0.0
 40
0.0
 40
0.0
 40
0.090254249342677
 40
0.1785397915286818
 40
0.2660930338538192
 40
0.3546309779571716
 40
0.4418861533505614
 40
0.5257469151636457
 40
0.608113633603635
 40
0.6901972728278801
 40
0.7708214843303342
 40
0.8483261812554104
 40
0.9240117400247434
 40
1.0
 40
1.0
 40
1.0
 40
1.0
 10
183.8651454035464
 20
132.4861864191842
 30
0.0
 10
183.9108281456215
 20
132.4848071889393
 30
0.0
 10
184.001197156565
 20
132.4820788134645
 30
0.0
 10
184.1339602035155
 20
132.4571643769854
 30
0.0
 10
184.2619870226176
 20
132.4177392446312
 30
0.0
 10
184.3838762704339
 20
132.3632655174942
 30
0.0
 10
184.4970947030302
 20
132.2960782043321
 30
0.0
 10
184.5978308897773
 20
132.2161134674373
 30
0.0
 10
184.6847194005812
 20
132.12491416595
 30
0.0
 10
184.7576137782414
 20
132.0241816016314
 30
0.0
 10
184.8146887772951
 20
131.9165260922445
 30
0.0
 10
184.8567751507748
 20
131.8057259350972
 30
0.0
 10
184.8823968317734
 20
131.6920439637083
 30
0.0
 10
184.8857173885837
 20
131.6152866845331
 30
0.0
 10
184.8873809804695
 20
131.5768314512355
 30
0.0
  0
SPLINE
  5
47
330
1F
100
AcDbEntity
  8
0
  6
Continuous
 62
     7
370
    15
100
AcDbSpline
210
0.0
220
0.0
230
1.0
 70
     8
 71
     3
 72
    15
 73
    11
 74
     0
 42
0.00000001
 43
0.00000001
 40
0.0
 40
0.0
 40
0.0
 40
0.0
 40
0.1280675485958901
 40
0.2506083188676682
 40
0.370630165914504
 40
0.4900722467299496
 40
0.6103747641546182
 40
0.734313069911525
 40
0.8632165042449841
 40
1.0
 40
1.0
 40
1.0
 40
1.0
 10
184.8873809804695
 20
131.5768314512355
 30
0.0
 10
184.8862173894225
 20
131.5398246565299
 30
0.0
 10
184.8839404223113
 20
131.4674081020668
 30
0.0
 10
184.864606716749
 20
131.3616866049287
 30
0.0
 10
184.8320704538728
 20
131.2620450046465
 30
0.0
 10
184.7870006912949
 20
131.168063842523
 30
0.0
 10
184.7286591410546
 20
131.0803390026999
 30
0.0
 10
184.6579864441643
 20
130.9986731118394
 30
0.0
 10
184.5744837823888
 20
130.9227039537111
 30
0.0
 10
184.5112048443655
 20
130.8791844807356
 30
0.0
 10
184.4786269740593
 20
130.8567793679022
 30
0.0
  0
SPLINE
  5
48
330
1F
100
AcDbEntity
  8
0
  6
Continuous
 62
     7
370
    15
100
AcDbSpline
210
0.0
220
0.0
230
1.0
 70
     8
 71
     3
 72
    11
 73
     7
 74
     0
 42
0.00000001
 43
0.00000001
 40
0.0
 40
0.0
 40
0.0
 40
0.0
 40
0.2538796003266579
 40
0.5030089172783601
 40
0.7502910806899696
 40
1.0
 40
1.0
 40
1.0
 40
1.0
 10
184.4786269740593
 20
130.8567793679022
 30
0.0
 10
184.5158587286326
 20
130.8388011963607
 30
0.0
 10
184.5896256028998
 20
130.8031812387505
 30
0.0
 10
184.6901761324327
 20
130.7333254812333
 30
0.0
 10
184.7814540077897
 20
130.6526691338794
 30
0.0
 10
184.8323577267935
 20
130.5897264809658
 30
0.0
 10
184.8579338650849
 20
130.5581014832868
 30
0.0
  0
SPLINE
  5
49
330
1F
100
AcDbEntity
  8
0
  6
Continuous
 62
     7
370
    15
100
AcDbSpline
210
0.0
220
0.0
230
1.0
 70
     8
 71
     3
 72
    15
 73
    11
 74
     0
 42
0.00000001
 43
0.00000001
 40
0.0
 40
0.0
 40
0.0
 40
0.0
 40
0.1281355097972537
 40
0.2541727119019803
 40
0.3781116451390002
 40
0.5017122630072811
 40
0.6239863093684853
 40
0.7470956136177406
 40
0.8728746366500613
 40
1.0
 40
1.0
 40
1.0
 40
1.0
 10
184.8579338650849
 20
130.5581014832868
 30
0.0
 10
184.8747752074376
 20
130.5350437316781
 30
0.0
 10
184.9081821035013
 20
130.4893058151084
 30
0.0
 10
184.949417637253
 20
130.4157693892243
 30
0.0
 10
184.9868267515593
 20
130.3414178999423
 30
0.0
 10
185.0159769708861
 20
130.2642584939162
 30
0.0
 10
185.0385508377229
 20
130.1851854802181
 30
0.0
 10
185.0546868699627
 20
130.1040630841597
 30
0.0
 10
185.0647110108436
 20
130.0208250617354
 30
0.0
 10
185.0661465628581
 20
129.9645125815149
 30
0.0
 10
185.0668681599567
 20
129.9362064512355
 30
0.0
  0
SPLINE
  5
4A
330
1F
100
AcDbEntity
  8
0
  6
Continuous
 62
     7
370
    15
100
AcDbSpline
210
0.0
220
0.0
230
1.0
 70
     8
 71
     3
 72
    19
 73
    15
 74
     0
 42
0.00000001
 43
0.00000001
 40
0.0
 40
0.0
 40
0.0
 40
0.0
 40
0.0796482511802276
 40
0.1589216764181121
 40
0.2396194947370312
 40
0.3226094298185601
 40
0.4060346366179239
 40
0.4876020954923864
 40
0.5696846265959293
 40
0.6530361450088332
 40
0.7374357177222867
 40
0.8224778158555103
 40
0.9097476551184044
 40
0.9999999999999999
 40
0.9999999999999999
 40
0.9999999999999999
 40
0.9999999999999999
 10
185.0668681599567
 20
129.9362064512355
 30
0.0
 10
185.0650736464382
 20
129.8871967300483
 30
0.0
 10
185.0614930644106
 20
129.7894079282046
 30
0.0
 10
185.029488990103
 20
129.6449332065712
 30
0.0
 10
184.979875749409
 20
129.503707704295
 30
0.0
 10
184.9094188134414
 20
129.3686328650493
 30
0.0
 10
184.8235513046129
 20
129.242252484049
 30
0.0
 10
184.7213939804347
 20
129.1291761750112
 30
0.0
 10
184.6041075720244
 20
129.0319775706751
 30
0.0
 10
184.4733019231737
 20
128.9507673426202
 30
0.0
 10
184.3315847946894
 20
128.8858494204269
 30
0.0
 10
184.1800092026924
 20
128.8407919775803
 30
0.0
 10
184.0207591487273
 20
128.8114459779091
 30
0.0
 10
183.9115518511749
 20
128.808299109019
 30
0.0
 10
183.8560308202131
 20
128.8066992396971
 30
0.0
  0
SPLINE
  5
4B
330
1F
100
AcDbEntity
  8
0
  6
Continuous
 62
     7
370
    15
100
AcDbSpline
210
0.0
220
0.0
230
1.0
 70
     8
 71
     3
 72
    23
 73
    19
 74
     0
 42
0.00000001
 43
0.00000001
 40
0.0
 40
0.0
 40
0.0
 40
0.0
 40
0.0655411703374
 40
0.1289631677825914
 40
0.1903771361885614
 40
0.2500923616690521
 40
0.3085484324592004
 40
0.3663979630552961
 40
0.4245421892666779
 40
0.4831699964229056
 40
0.5422433998311195
 40
0.6017393520173296
 40
0.6625060022496075
 40
0.7248555134488472
 40
0.7891278292811812
 40
0.8563463998785108
 40
0.9262952349869059
 40
1.0
 40
1.0
 40
1.0
 40
1.0
 10
183.8560308202131
 20
128.8066992396971
 30
0.0
 10
183.81861151993
 20
128.8075674529556
 30
0.0
 10
183.7449828148599
 20
128.8092758071328
 30
0.0
 10
183.6367393164736
 20
128.8209544083294
 30
0.0
 10
183.5334176171091
 20
128.8422844135672
 30
0.0
 10
183.4348780192524
 20
128.8709877189333
 30
0.0
 10
183.3410329828588
 20
128.9073794610138
 30
0.0
 10
183.2521688776811
 20
128.9526981590351
 30
0.0
 10
183.167738984161
 20
129.0060096610869
 30
0.0
 10
183.0885400330164
 20
129.0679432488935
 30
0.0
 10
183.0145814653102
 20
129.1372245886502
 30
0.0
 10
182.9478287410801
 20
129.2150835986179
 30
0.0
 10
182.8871689481379
 20
129.3000810025389
 30
0.0
 10
182.8342263094265
 20
129.3932040587377
 30
0.0
 10
182.7865893568106
 20
129.4932493160155
 30
0.0
 10
182.7474084001633
 20
129.6014978143971
 30
0.0
 10
182.712922831527
 20
129.7169818363861
 30
0.0
 10
182.696889367281
 20
129.7974595765619
 30
0.0
 10
182.6886630317516
 20
129.8387505217484
 30
0.0
  0
LINE
  5
4C
330
1F
100
AcDbEntity
  8
0
  6
Continuous
 62
     7
370
    15
100
AcDbLine
 10
182.6886630318
 20
129.8387505217
 30
0.0
 11
183.0027655959
 21
129.8387505217
 31
0.0
  0
SPLINE
  5
4D
330
1F
100
AcDbEntity
  8
0
  6
Continuous
 62
     7
370
    15
100
AcDbSpline
210
0.0
220
0.0
230
1.0
 70
     8
 71
     3
 72
    15
 73
    11
 74
     0
 42
0.00000001
 43
0.00000001
 40
0.0
 40
0.0
 40
0.0
 40
0.0
 40
0.149770386031965
 40
0.2913164099952457
 40
0.425966373104743
 40
0.5521595739695256
 40
0.6715274135235942
 40
0.7861216286916634
 40
0.8953250730704518
 40
1.0
 40
1.0
 40
1.0
 40
1.0
 10
183.0027655958541
 20
129.8387505217484
 30
0.0
 10
183.0109488872944
 20
129.8118015084797
 30
0.0
 10
183.0268660999523
 20
129.7593833368616
 30
0.0
 10
183.0539603979874
 20
129.6839430311867
 30
0.0
 10
183.0848286700579
 20
129.6147849779619
 30
0.0
 10
183.1179432286939
 20
129.551401855984
 30
0.0
 10
183.1527216747167
 20
129.4931694535198
 30
0.0
 10
183.1916365998531
 20
129.4416275844857
 30
0.0
 10
183.2318057450004
 20
129.3945123822759
 30
0.0
 10
183.2620850983517
 20
129.3679677703357
 30
0.0
 10
183.276904217649
 20
129.3549764832868
 30
0.0
  0
SPLINE
  5
4E
330
1F
100
AcDbEntity
  8
0
  6
Continuous
 62
     7
370
    15
100
AcDbSpline
210
0.0
220
0.0
230
1.0
 70
     8
 71
     3
 72
    23
 73
    19
 74
     0
 42
0.00000001
 43
0.00000001
 40
0.0
 40
0.0
 40
0.0
 40
0.0
 40
0.0760717369555634
 40
0.1487517145745103
 40
0.2184027938458452
 40
0.2857595810623825
 40
0.3505980236748789
 40
0.4149640445981276
 40
0.4780693385717816
 40
0.5417606760069084
 40
0.6043498585387171
 40
0.6640750210708953
 40
0.7214636230801982
 40
0.777587128236443
 40
0.8326444469271315
 40
0.887843511068459
 40
0.9434603426519464
 40
1.0
 40
1.0
 40
1.0
 40
1.0
 10
183.8616397945721
 20
129.1656735986714
 30
0.0
 10
183.8943932972204
 20
129.1662895039186
 30
0.0
 10
183.9584399441388
 20
129.1674938534601
 30
0.0
 10
184.0518948034695
 20
129.1785695603062
 30
0.0
 10
184.1408022510353
 20
129.1946999737507
 30
0.0
 10
184.2241751768042
 20
129.2196129565687
 30
0.0
 10
184.3031056841552
 20
129.2503938080257
 30
0.0
 10
184.3764873337782
 20
129.2890422134623
 30
0.0
 10
184.4452834399717
 20
129.3343869350995
 30
0.0
 10
184.508612845398
 20
129.3859260937406
 30
0.0
 10
184.5655583529109
 20
129.4423475888216
 30
0.0
 10
184.6156978661523
 20
129.501360659932
 30
0.0
 10
184.6583225276317
 20
129.5627164894417
 30
0.0
 10
184.6927061058207
 20
129.6267546103584
 30
0.0
 10
184.7198566561213
 20
129.6932098392385
 30
0.0
 10
184.7383398566901
 20
129.762268668593
 30
0.0
 10
184.7511913718151
 20
129.833365934797
 30
0.0
 10
184.7522379839927
 20
129.8816949037387
 30
0.0
 10
184.7527655958541
 20
129.906058214056
 30
0.0
  0
SPLINE
  5
4F
330
1F
100
AcDbEntity
  8
0
  6
Continuous
 62
     7
370
    15
100
AcDbSpline
210
0.0
220
0.0
230
1.0
 70
     8
 71
     3
 72
    23
 73
    19
 74
     0
 42
0.00000001
 43
0.00000001
 40
0.0
 40
0.0
 40
0.0
 40
0.0
 40
0.0669091856056563
 40
0.1334854404229645
 40
0.2010351165700815
 40
0.2712343400187626
 40
0.3428799841615833
 40
0.4138361296100185
 40
0.485976621974419
 40
0.5602295572555462
 40
0.599884180752387
 40
0.6440548396425939
 40
0.6918919315842521
 40
0.7446875244737684
 40
0.8014917751698747
 40
0.862857698220091
 40
0.9293283793947408
 40
1.0
 40
1.0
 40
1.0
 40
1.0
 10
184.7527655958541
 20
129.906058214056
 30
0.0
 10
184.7512352943283
 20
129.9386695529261
 30
0.0
 10
184.748182305844
 20
130.0037299611861
 30
0.0
 10
184.7248737264026
 20
130.0994475354586
 30
0.0
 10
184.6865348621951
 20
130.1916709478977
 30
0.0
 10
184.632862350887
 20
130.2788267379557
 30
0.0
 10
184.5675266222416
 20
130.3596026394901
 30
0.0
 10
184.4911617153826
 20
130.4316741219682
 30
0.0
 10
184.4031334870093
 20
130.4911442130393
 30
0.0
 10
184.3221136179761
 20
130.5322328694379
 30
0.0
 10
184.250348461464
 20
130.5602699446217
 30
0.0
 10
184.1889330770264
 20
130.578944909071
 30
0.0
 10
184.120176473653
 20
130.5947585647471
 30
0.0
 10
184.0449101247759
 20
130.6094708362718
 30
0.0
 10
183.9625669083329
 20
130.6219921844236
 30
0.0
 10
183.8732364703548
 20
130.6324340001671
 30
0.0
 10
183.7769007087498
 20
130.6407890411116
 30
0.0
 10
183.7102095428915
 20
130.644520136393
 30
0.0
 10
183.675842518931
 20
130.6464428294406
 30
0.0
  0
LINE
  5
50
330
1F
100
AcDbEntity
  8
0
  6
Continuous
 62
     7
370
    15
100
AcDbLine
 10
183.6758425189
 20
130.6464428294
 30
0.0
 11
183.6758425189
 21
131.0054171884
 31
0.0
  0
SPLINE
  5
51
330
1F
100
AcDbEntity
  8
0
  6
Continuous
 62
     7
370
    15
100
AcDbSpline
210
0.0
220
0.0
230
1.0
 70
     8
 71
     3
 72
    19
 73
    15
 74
     0
 42
0.00000001
 43
0.00000001
 40
0.0
 40
0.0
 40
0.0
 40
0.0
 40
0.1101655532114457
 40
0.2157872561749774
 40
0.3180274349094214
 40
0.417573954165514
 40
0.511650487647449
 40
0.5961620971027662
 40
0.6729345334850002
 40
0.7436695573498577
 40
0.8106770010653633
 40
0.8740589623137363
 40
0.9366963019193736
 40
0.9999999999999999
 40
0.9999999999999999
 40
0.9999999999999999
 40
0.9999999999999999
 10
183.675842518931
 20
131.005417188415
 30
0.0
 10
183.7191436846513
 20
131.0061519921362
 30
0.0
 10
183.8039600312094
 20
131.007591292119
 30
0.0
 10
183.9278543359693
 20
131.024999302514
 30
0.0
 10
184.0463276481046
 20
131.0490799305697
 30
0.0
 10
184.1567543901055
 20
131.0859651228401
 30
0.0
 10
184.2574031034562
 20
131.1288054196994
 30
0.0
 10
184.3447227055381
 20
131.1786576292151
 30
0.0
 10
184.417489852812
 20
131.2340723784618
 30
0.0
 10
184.4753509243033
 20
131.2959049878042
 30
0.0
 10
184.5188801529509
 20
131.3622200352875
 30
0.0
 10
184.5507069503769
 20
131.431336692975
 30
0.0
 10
184.569507276622
 20
131.5038607539114
 30
0.0
 10
184.5720169435399
 20
131.5533554218424
 30
0.0
 10
184.5732784163669
 20
131.5782336948253
 30
0.0
  0
SPLINE
  5
52
330
1F
100
AcDbEntity
  8
0
  6
Continuous
 62
     7
370
    15
100
AcDbSpline
210
0.0
220
0.0
230
1.0
 70
     8
 71
     3
 72
    23
 73
    19
 74
     0
 42
0.00000001
 43
0.00000001
 40
0.0
 40
0.0
 40
0.0
 40
0.0
 40
0.0552745490875277
 40
0.1099660938819837
 40
0.163247442851808
 40
0.2180761854823627
 40
0.2733008743735945
 40
0.3309093000114384
 40
0.3909945233652099
 40
0.4541759534308247
 40
0.5188615408488297
 40
0.5833105320111694
 40
0.6485166818638243
 40
0.7150308870971841
 40
0.7825020728543349
 40
0.8523226850768582
 40
0.9249284897844308
 40
1.0
 40
1.0
 40
1.0
 40
1.0
 10
184.5732784163669
 20
131.5782336948253
 30
0.0
 10
184.5728640054052
 20
131.5965114399678
 30
0.0
 10
184.5720395544513
 20
131.6328741470631
 30
0.0
 10
184.5616422766678
 20
131.6859992157516
 30
0.0
 10
184.5460182356851
 20
131.7375001616777
 30
0.0
 10
184.5245385063782
 20
131.7871579719319
 30
0.0
 10
184.4957883076715
 20
131.8346282458299
 30
0.0
 10
184.4613823211472
 20
131.8803156947701
 30
0.0
 10
184.4204142208676
 20
131.9239594737763
 30
0.0
 10
184.3734687738591
 20
131.9646397933309
 30
0.0
 10
184.3230569688901
 20
132.0034090304964
 30
0.0
 10
184.2678071938421
 20
132.0363226674758
 30
0.0
 10
184.2093853191302
 20
132.0644677295522
 30
0.0
 10
184.1477266642802
 20
132.0876772316562
 30
0.0
 10
184.0826311339619
 20
132.1051365198728
 30
0.0
 10
184.0144045763032
 20
132.1176723612747
 30
0.0
 10
183.9429168927907
 20
132.1255100160063
 30
0.0
 10
183.8941451607836
 20
132.1266384319147
 30
0.0
 10
183.8693521343156
 20
132.1272120602099
 30
0.0
  0
SPLINE
  5
53
330
1F
100
AcDbEntity
  8
0
  6
Continuous
 62
     7
370
    15
100
AcDbSpline
210
0.0
220
0.0
230
1.0
 70
     8
 71
     3
 72
    19
 73
    15
 74
     0
 42
0.00000001
 43
0.00000001
 40
0.0
 40
0.0
 40
0.0
 40
0.0
 40
0.1227119423657775
 40
0.2396849640167732
 40
0.3518158552560978
 40
0.4637661328620847
 40
0.5208177931608339
 40
0.579448291448002
 40
0.6406041451203188
 40
0.7052975118059833
 40
0.7736338807131333
 40
0.8446693818863777
 40
0.9200565080211427
 40
1.0
 40
1.0
 40
1.0
 40
1.0
 10
183.8693521343156
 20
132.1272120602099
 30
0.0
 10
183.8295004663127
 20
132.1258206982068
 30
0.0
 10
183.7516608899263
 20
132.1231030446091
 30
0.0
 10
183.6394459730209
 20
132.099300031159
 30
0.0
 10
183.5351266390204
 20
132.0613219476656
 30
0.0
 10
183.4553879724311
 20
132.0159889282338
 30
0.0
 10
183.3965053982726
 20
131.9712384943828
 30
0.0
 10
183.3544284600693
 20
131.9321561080116
 30
0.0
 10
183.3131079496645
 20
131.8887232843501
 30
0.0
 10
183.2752622728153
 20
131.8382649090726
 30
0.0
 10
183.2369882961406
 20
131.7841981188818
 30
0.0
 10
183.202143734612
 20
131.7237744373402
 30
0.0
 10
183.1682840423606
 20
131.6585700430383
 30
0.0
 10
183.147881492742
 20
131.6124744084863
 30
0.0
 10
183.1373809804695
 20
131.5887505217484
 30
0.0
  0
SPLINE
  5
54
330
1F
100
AcDbEntity
  8
0
  6
Continuous
 62
     7
370
    15
100
AcDbSpline
210
0.0
220
0.0
230
1.0
 70
     8
 71
     3
 72
    15
 73
    11
 74
     0
 42
0.00000001
 43
0.00000001
 40
0.0
 40
0.0
 40
0.0
 40
0.0
 40
0.1182713048357282
 40
0.2361775330837586
 40
0.3556629329485142
 40
0.475904164670676
 40
0.6001273417110835
 40
0.7286081161551146
 40
0.8613134756739408
 40
1.0
 40
1.0
 40
1.0
 40
1.0
 10
183.276904217649
 20
129.3549764832868
 30
0.0
 10
183.2965007941741
 20
129.3398681494013
 30
0.0
 10
183.3356334570548
 20
129.3096981176168
 30
0.0
 10
183.3994016881533
 20
129.2711964890791
 30
0.0
 10
183.466466574239
 20
129.2378354637443
 30
0.0
 10
183.5382812484599
 20
129.212351768028
 30
0.0
 10
183.613296018914
 20
129.1907741072388
 30
0.0
 10
183.6927233841458
 20
129.1766535881063
 30
0.0
 10
183.7758626012576
 20
129.1669654167631
 30
0.0
 10
183.8326303647406
 20
129.1661104852707
 30
0.0
 10
183.8616397945721
 20
129.1656735986714
 30
0.0
  0
LINE
  5
55
330
1F
100
AcDbEntity
  8
0
  6
Continuous
 62
     7
370
    15
100
AcDbLine
 10
177.2591758523
 20
132.3964428294
 30
0.0
 11
177.5732784164
 21
132.3964428294
 31
0.0
  0
LINE
  5
56
330
1F
100
AcDbEntity
  8
0
  6
Continuous
 62
     7
370
    15
100
AcDbLine
 10
177.5732784164
 20
132.3964428294
 30
0.0
 11
177.5732784164
 21
130.299387541
 31
0.0
  0
SPLINE
  5
57
330
1F
100
AcDbEntity
  8
0
  6
Continuous
 62
     7
370
    15
100
AcDbSpline
210
0.0
220
0.0
230
1.0
 70
     8
 71
     3
 72
    15
 73
    11
 74
     0
 42
0.00000001
 43
0.00000001
 40
0.0
 40
0.0
 40
0.0
 40
0.0
 40
0.1910785917157207
 40
0.3626045563099708
 40
0.5160987502785593
 40
0.6500380260398404
 40
0.7659767209867921
 40
0.8623740257993889
 40
0.9408420582211765
 40
1.0
 40
1.0
 40
1.0
 40
1.0
 10
177.5732784163669
 20
130.2993875409791
 30
0.0
 10
177.5732316723942
 20
130.2697068052344
 30
0.0
 10
177.5731429676506
 20
130.2133824942845
 30
0.0
 10
177.5737354815219
 20
130.1332141937548
 30
0.0
 10
177.5753948499352
 20
130.061941734703
 30
0.0
 10
177.5764410094935
 20
129.9992903871348
 30
0.0
 10
177.5787683430286
 20
129.945547639676
 30
0.0
 10
177.5806663899286
 20
129.9004223289921
 30
0.0
 10
177.5831069466374
 20
129.8641281265376
 30
0.0
 10
177.5860400641371
 20
129.8429472004867
 30
0.0
 10
177.5873008522644
 20
129.8338426691842
 30
0.0
  0
SPLINE
  5
58
330
1F
100
AcDbEntity
  8
0
  6
Continuous
 62
     7
370
    15
100
AcDbSpline
210
0.0
220
0.0
230
1.0
 70
     8
 71
     3
 72
    19
 73
    15
 74
     0
 42
0.00000001
 43
0.00000001
 40
0.0
 40
0.0
 40
0.0
 40
0.0
 40
0.0828906475568701
 40
0.1653025405594714
 40
0.2477618761145897
 40
0.3315277110598011
 40
0.4152798127751572
 40
0.4963662304840524
 40
0.5771513480211469
 40
0.6577825401388812
 40
0.7393216419943455
 40
0.8237930816663163
 40
0.9094759533791141
 40
1.0
 40
1.0
 40
1.0
 40
1.0
 10
178.3977976471362
 20
129.1656735986714
 30
0.0
 10
178.4263513875288
 20
129.1667474489531
 30
0.0
 10
178.4832939494281
 20
129.1688889472399
 30
0.0
 10
178.5679003801169
 20
129.1821503782694
 30
0.0
 10
178.6503004887672
 20
129.20605094395
 30
0.0
 10
178.7309011686745
 20
129.2368907023687
 30
0.0
 10
178.8064521530941
 20
129.2776382934638
 30
0.0
 10
178.8769955951056
 20
129.3247091329361
 30
0.0
 10
178.939959529334
 20
129.3799200089539
 30
0.0
 10
178.9974175271661
 20
129.4410203534847
 30
0.0
 10
179.0474524630187
 20
129.5099601534519
 30
0.0
 10
179.0908236046205
 20
129.5852382915008
 30
0.0
 10
179.126349534266
 20
129.6679876383834
 30
0.0
 10
179.1438930591054
 20
129.7261420606333
 30
0.0
 10
179.1529058202131
 20
129.7560181499535
 30
0.0
  0
LINE
  5
59
330
1F
100
AcDbEntity
  8
0
  6
Continuous
 62
     7
370
    15
100
AcDbLine
 10
179.1886630318
 20
130.299387541
 30
0.0
 11
179.1886630318
 21
132.3964428294
 31
0.0
  0
LINE
  5
5A
330
1F
100
AcDbEntity
  8
0
  6
Continuous
 62
     7
370
    15
100
AcDbLine
 10
179.1886630318
 20
132.3964428294
 30
0.0
 11
179.5027655959
 21
132.3964428294
 31
0.0
  0
LINE
  5
5B
330
1F
100
AcDbEntity
  8
0
  6
Continuous
 62
     7
370
    15
100
AcDbLine
 10
179.5027655959
 20
132.3964428294
 30
0.0
 11
179.5027655959
 21
130.2825606179
 31
0.0
  0
SPLINE
  5
5C
330
1F
100
AcDbEntity
  8
0
  6
Continuous
 62
     7
370
    15
100
AcDbSpline
210
0.0
220
0.0
230
1.0
 70
     8
 71
     3
 72
    31
 73
    27
 74
     0
 42
0.00000001
 43
0.00000001
 40
0.0
 40
0.0
 40
0.0
 40
0.0
 40
0.0548580354451537
 40
0.107058791542641
 40
0.1569783545765238
 40
0.2039922771829772
 40
0.2484915357868487
 40
0.2904833137405231
 40
0.3304890042981898
 40
0.367885925762964
 40
0.4038581313538715
 40
0.4400093433074121
 40
0.4762950107796844
 40
0.5127922945733495
 40
0.5504848246303727
 40
0.5883811157748439
 40
0.6276453271698541
 40
0.6679794644543822
 40
0.7084327575000846
 40
0.7486023022886344
 40
0.7890877771957836
 40
0.8294612046317067
 40
0.8703710453051788
 40
0.9122142271494434
 40
0.9555465749316863
 40
1.0
 40
1.0
 40
1.0
 40
1.0
 10
179.5027655958541
 20
130.2825606179022
 30
0.0
 10
179.5025114754696
 20
130.2444622389534
 30
0.0
 10
179.5020155440887
 20
130.1701109360515
 30
0.0
 10
179.4977149675916
 20
130.0611595770275
 30
0.0
 10
179.4908579677394
 20
129.9578065957206
 30
0.0
 10
179.4811698797653
 20
129.860038099193
 30
0.0
 10
179.4683328765953
 20
129.7682039399494
 30
0.0
 10
179.4540576560906
 20
129.681499171774
 30
0.0
 10
179.4358781230336
 20
129.600546179127
 30
0.0
 10
179.4146447218504
 20
129.5247137614815
 30
0.0
 10
179.3903711738136
 20
129.4525282480676
 30
0.0
 10
179.3589300254727
 20
129.3840196334038
 30
0.0
 10
179.3235055255398
 20
129.3171052337736
 30
0.0
 10
179.2814908726281
 20
129.2527971248917
 30
0.0
 10
179.2342794899853
 20
129.1908105717541
 30
0.0
 10
179.180827809238
 20
129.1315214967444
 30
0.0
 10
179.1229036483441
 20
129.0739824504697
 30
0.0
 10
179.0595440887465
 20
129.019669384317
 30
0.0
 10
178.9917935634898
 20
128.9698607074294
 30
0.0
 10
178.9198536058316
 20
128.9260629363456
 30
0.0
 10
178.844276836079
 20
128.8890393188645
 30
0.0
 10
178.7652597099548
 20
128.8585633944634
 30
0.0
 10
178.6827685070654
 20
128.8356487952657
 30
0.0
 10
178.5968011473414
 20
128.8185736394847
 30
0.0
 10
178.5071619540268
 20
128.8088713419452
 30
0.0
 10
178.4461972978287
 20
128.8074294118854
 30
0.0
 10
178.415325692008
 20
128.8066992396971
 30
0.0
  0
SPLINE
  5
5D
330
1F
100
AcDbEntity
  8
0
  6
Continuous
 62
     7
370
    15
100
AcDbSpline
210
0.0
220
0.0
230
1.0
 70
     8
 71
     3
 72
    23
 73
    19
 74
     0
 42
0.00000001
 43
0.00000001
 40
0.0
 40
0.0
 40
0.0
 40
0.0
 40
0.071174503745635
 40
0.1396441217506254
 40
0.206317223911965
 40
0.2713732401918853
 40
0.3354180839163137
 40
0.3980763446528618
 40
0.4606079146322853
 40
0.5229695111172334
 40
0.5847157240924603
 40
0.6448949403163626
 40
0.7042905608207908
 40
0.7629981899193217
 40
0.8210874309038766
 40
0.880103891476701
 40
0.9393884881896686
 40
1.0
 40
1.0
 40
1.0
 40
1.0
 10
178.415325692008
 20
128.8066992396971
 30
0.0
 10
178.3816565894
 20
128.8074840049612
 30
0.0
 10
178.3155979305209
 20
128.8090237116023
 30
0.0
 10
178.2182598632412
 20
128.8178464617302
 30
0.0
 10
178.1249456669421
 20
128.8344648560454
 30
0.0
 10
178.0346697899172
 20
128.8556247997684
 30
0.0
 10
177.9486612927822
 20
128.8848085370469
 30
0.0
 10
177.8657678484004
 20
128.918906661907
 30
0.0
 10
177.7874091672816
 20
128.96078392219
 30
0.0
 10
177.7123140386662
 20
129.0073773152099
 30
0.0
 10
177.64248928251
 20
129.0598019533786
 30
0.0
 10
177.5783918794023
 20
129.1169421273293
 30
0.0
 10
177.519916008811
 20
129.1778825047247
 30
0.0
 10
177.4680473124629
 20
129.243282870493
 30
0.0
 10
177.4219264278826
 20
129.3126345774969
 30
0.0
 10
177.3821962144794
 20
129.386133817306
 30
0.0
 10
177.3480829703593
 20
129.4637521334604
 30
0.0
 10
177.3304764033014
 20
129.5177053338656
 30
0.0
 10
177.321575692008
 20
129.5449804896971
 30
0.0
  0
SPLINE
  5
5E
330
1F
100
AcDbEntity
  8
0
  6
Continuous
 62
     7
370
    15
100
AcDbSpline
210
0.0
220
0.0
230
1.0
 70
     8
 71
     3
 72
    15
 73
    11
 74
     0
 42
0.00000001
 43
0.00000001
 40
0.0
 40
0.0
 40
0.0
 40
0.0
 40
0.078129865158427
 40
0.1694654174977334
 40
0.2743352908540843
 40
0.3921101633539201
 40
0.5236873298575194
 40
0.6683654211389632
 40
0.8271319021257841
 40
0.9999999999999999
 40
0.9999999999999999
 40
0.9999999999999999
 40
0.9999999999999999
 10
177.321575692008
 20
129.5449804896971
 30
0.0
 10
177.3163985338336
 20
129.5636130641463
 30
0.0
 10
177.3051691624572
 20
129.6040275330782
 30
0.0
 10
177.2931438648124
 20
129.6709140216357
 30
0.0
 10
177.2830347831709
 20
129.747928939286
 30
0.0
 10
177.2735292249497
 20
129.835077557654
 30
0.0
 10
177.267920266993
 20
129.9324274242565
 30
0.0
 10
177.2630028282967
 20
130.039936340126
 30
0.0
 10
177.2591412095001
 20
130.1577343018122
 30
0.0
 10
177.2591639819036
 20
130.2397888174298
 30
0.0
 10
177.2591758522644
 20
130.2825606179022
 30
0.0
  0
LINE
  5
5F
330
1F
100
AcDbEntity
  8
0
  6
Continuous
 62
     7
370
    15
100
AcDbLine
 10
177.2591758523
 20
130.2825606179
 30
0.0
 11
177.2591758523
 21
132.3964428294
 31
0.0
  0
SPLINE
  5
60
330
1F
100
AcDbEntity
  8
0
  6
Continuous
 62
     7
370
    15
100
AcDbSpline
210
0.0
220
0.0
230
1.0
 70
     8
 71
     3
 72
    19
 73
    15
 74
     0
 42
0.00000001
 43
0.00000001
 40
0.0
 40
0.0
 40
0.0
 40
0.0
 40
0.0863150037405914
 40
0.1677664659179406
 40
0.244432684384859
 40
0.3181346623514529
 40
0.3918841069799638
 40
0.4700680503917554
 40
0.5539041787139107
 40
0.6443394983098213
 40
0.7368746633345092
 40
0.8261683643076472
 40
0.9136785948895798
 40
1.0
 40
1.0
 40
1.0
 40
1.0
 10
177.5873008522644
 20
129.8338426691842
 30
0.0
 10
177.5924783110696
 20
129.8009959058327
 30
0.0
 10
177.6025414974052
 20
129.7371531766951
 30
0.0
 10
177.6281878751814
 20
129.64624489485
 30
0.0
 10
177.6640053761825
 20
129.5643134365729
 30
0.0
 10
177.7064484189087
 20
129.4888021454609
 30
0.0
 10
177.7623810302591
 20
129.4218127854163
 30
0.0
 10
177.8293845655358
 20
129.3601011326244
 30
0.0
 10
177.9105623340668
 20
129.3061293279823
 30
0.0
 10
178.0008229397401
 20
129.2567785161613
 30
0.0
 10
178.0981081772551
 20
129.2171134337946
 30
0.0
 10
178.1975194436063
 20
129.1871200694542
 30
0.0
 10
178.2975624227614
 20
129.1688411696807
 30
0.0
 10
178.3645385878421
 20
129.166724630708
 30
0.0
 10
178.3977976471362
 20
129.1656735986714
 30
0.0
  0
SPLINE
  5
61
330
1F
100
AcDbEntity
  8
0
  6
Continuous
 62
     7
370
    15
100
AcDbSpline
210
0.0
220
0.0
230
1.0
 70
     8
 71
     3
 72
    15
 73
    11
 74
     0
 42
0.00000001
 43
0.00000001
 40
0.0
 40
0.0
 40
0.0
 40
0.0
 40
0.0698351039154358
 40
0.1556207549116649
 40
0.257801556658275
 40
0.3738112340663711
 40
0.5064024926743711
 40
0.6555644581431036
 40
0.8200792824038523
 40
1.0
 40
1.0
 40
1.0
 40
1.0
 10
179.1529058202131
 20
129.7560181499535
 30
0.0
 10
179.1559059455081
 20
129.7683667242962
 30
0.0
 10
179.1625914337091
 20
129.7958843243792
 30
0.0
 10
179.1688384786952
 20
129.8424056149338
 30
0.0
 10
179.1753450041109
 20
129.8972949789006
 30
0.0
 10
179.1798595741118
 20
129.9609467917111
 30
0.0
 10
179.1842607945262
 20
130.0331477643154
 30
0.0
 10
179.1868938673226
 20
130.1142740217988
 30
0.0
 10
179.1881109002467
 20
130.20403098261
 30
0.0
 10
179.1884735806012
 20
130.2666681443857
 30
0.0
 10
179.1886630317516
 20
130.2993875409791
 30
0.0
  0
LINE
  5
62
330
1F
100
AcDbEntity
  8
0
  6
Continuous
 62
     7
370
    15
100
AcDbLine
 10
185.8296886728
 20
131.3195197525
 30
0.0
 11
185.5155861087
 21
131.3195197525
 31
0.0
  0
SPLINE
  5
63
330
1F
100
AcDbEntity
  8
0
  6
Continuous
 62
     7
370
    15
100
AcDbSpline
210
0.0
220
0.0
230
1.0
 70
     8
 71
     3
 72
    23
 73
    19
 74
     0
 42
0.00000001
 43
0.00000001
 40
0.0
 40
0.0
 40
0.0
 40
0.0
 40
0.0694754602496706
 40
0.1365167976178004
 40
0.2007888236092603
 40
0.2638296728558245
 40
0.3257350229654182
 40
0.3872906922152902
 40
0.4495092187626035
 40
0.5129678195454417
 40
0.5762752154930617
 40
0.6375801002639235
 40
0.697902605917101
 40
0.7571720884269842
 40
0.8165985284886553
 40
0.8766531708928198
 40
0.9372896424102398
 40
1.0
 40
1.0
 40
1.0
 40
1.0
 10
186.6570123907259
 20
132.4861864191842
 30
0.0
 10
186.6953904648133
 20
132.4852879627388
 30
0.0
 10
186.7708020094697
 20
132.4835225279178
 30
0.0
 10
186.8808640239226
 20
132.4683614986506
 30
0.0
 10
186.985641318386
 20
132.4446159070153
 30
0.0
 10
187.0849290849079
 20
132.411300490702
 30
0.0
 10
187.1779351494791
 20
132.3665160633095
 30
0.0
 10
187.2653581940354
 20
132.3127185246514
 30
0.0
 10
187.3482390048264
 20
132.2504986932792
 30
0.0
 10
187.4228457884386
 20
132.1772448798308
 30
0.0
 10
187.4913538676749
 20
132.0990424953604
 30
0.0
 10
187.5504561228191
 20
132.0155545917483
 30
0.0
 10
187.6010692862924
 20
131.9293253060332
 30
0.0
 10
187.6432569661736
 20
131.8396971044517
 30
0.0
 10
187.6743131051128
 20
131.745826076039
 30
0.0
 10
187.6978913131422
 20
131.6490788732474
 30
0.0
 10
187.7112187268302
 20
131.5484540622408
 30
0.0
 10
187.7132641503281
 20
131.4803475065931
 30
0.0
 10
187.7143040573926
 20
131.4457216755945
 30
0.0
  0
SPLINE
  5
64
330
1F
100
AcDbEntity
  8
0
  6
Continuous
 62
     7
370
    15
100
AcDbSpline
210
0.0
220
0.0
230
1.0
 70
     8
 71
     3
 72
    19
 73
    15
 74
     0
 42
0.00000001
 43
0.00000001
 40
0.0
 40
0.0
 40
0.0
 40
0.0
 40
0.0987021963061535
 40
0.1956723088106644
 40
0.2924224265079551
 40
0.3913425437998252
 40
0.4444624406718908
 40
0.5042287754493175
 40
0.5703523379946785
 40
0.6425457530977481
 40
0.7222875053440181
 40
0.8079211226827127
 40
0.9004695379850156
 40
1.0
 40
1.0
 40
1.0
 40
1.0
 10
187.7143040573926
 20
131.4457216755945
 30
0.0
 10
187.7126107945361
 20
131.3969738410197
 30
0.0
 10
187.7092539831889
 20
131.3003336273492
 30
0.0
 10
187.6805396066215
 20
131.1583187646
 30
0.0
 10
187.6356930955261
 20
131.0207253455133
 30
0.0
 10
187.5816957386767
 20
130.9099880434289
 30
0.0
 10
187.5272232946151
 20
130.8207545496718
 30
0.0
 10
187.4781357870214
 20
130.7472858447521
 30
0.0
 10
187.4206709759996
 20
130.6681803763627
 30
0.0
 10
187.3539924780369
 20
130.5837030389887
 30
0.0
 10
187.2794796058861
 20
130.4931921338901
 30
0.0
 10
187.1964574425295
 20
130.3967023384918
 30
0.0
 10
187.1043339605081
 20
130.2952305686717
 30
0.0
 10
187.0396754597538
 20
130.2259249672839
 30
0.0
 10
187.0061710445721
 20
130.1900125409791
 30
0.0
  0
LINE
  5
65
330
1F
100
AcDbEntity
  8
0
  6
Continuous
 62
     7
370
    15
100
AcDbLine
 10
187.0061710446
 20
130.190012541
 30
0.0
 11
186.1304699228
 21
129.2554171884
 31
0.0
  0
LINE
  5
66
330
1F
100
AcDbEntity
  8
0
  6
Continuous
 62
     7
370
    15
100
AcDbLine
 10
186.1304699228
 20
129.2554171884
 30
0.0
 11
187.7591758523
 21
129.2554171884
 31
0.0
  0
LINE
  5
67
330
1F
100
AcDbEntity
  8
0
  6
Continuous
 62
     7
370
    15
100
AcDbLine
 10
187.7591758523
 20
129.2554171884
 30
0.0
 11
187.7591758523
 21
128.8964428294
 31
0.0
  0
LINE
  5
68
330
1F
100
AcDbEntity
  8
0
  6
Continuous
 62
     7
370
    15
100
AcDbLine
 10
187.7591758523
 20
128.8964428294
 30
0.0
 11
185.3809707241
 21
128.8964428294
 31
0.0
  0
LINE
  5
69
330
1F
100
AcDbEntity
  8
0
  6
Continuous
 62
     7
370
    15
100
AcDbLine
 10
185.3809707241
 20
128.8964428294
 30
0.0
 11
186.7383425189
 21
130.3449604576
 31
0.0
  0
SPLINE
  5
6A
330
1F
100
AcDbEntity
  8
0
  6
Continuous
 62
     7
370
    15
100
AcDbSpline
210
0.0
220
0.0
230
1.0
 70
     8
 71
     3
 72
    19
 73
    15
 74
     0
 42
0.00000001
 43
0.00000001
 40
0.0
 40
0.0
 40
0.0
 40
0.0
 40
0.1108026438013213
 40
0.2128292023477734
 40
0.3061013098231118
 40
0.3906473211160113
 40
0.4669244693608534
 40
0.5344810392840311
 40
0.5935869409656735
 40
0.6445570045087162
 40
0.736200452629373
 40
0.8250240256188631
 40
0.9119855848297581
 40
1.0
 40
1.0
 40
1.0
 40
1.0
 10
186.738342518931
 20
130.3449604576458
 30
0.0
 10
186.7713904057389
 20
130.3794587641944
 30
0.0
 10
186.8348686328578
 20
130.4457229507986
 30
0.0
 10
186.924651209667
 20
130.5424659109326
 30
0.0
 10
187.0052901979794
 20
130.6322154516847
 30
0.0
 10
187.0773075907512
 20
130.7148020001292
 30
0.0
 10
187.1391410961171
 20
130.7914335679247
 30
0.0
 10
187.1940133280648
 20
130.8596282715125
 30
0.0
 10
187.2379789190469
 20
130.9223827218204
 30
0.0
 10
187.2856943147346
 20
130.9951233357329
 30
0.0
 10
187.3319082961328
 20
131.083935652907
 30
0.0
 10
187.3716206521732
 20
131.192469342168
 30
0.0
 10
187.3958355006218
 20
131.304196594844
 30
0.0
 10
187.3987403361276
 20
131.3796986318913
 30
0.0
 10
187.40020149329
 20
131.4176768037996
 30
0.0
  0
SPLINE
  5
6B
330
1F
100
AcDbEntity
  8
0
  6
Continuous
 62
     7
370
    15
100
AcDbSpline
210
0.0
220
0.0
230
1.0
 70
     8
 71
     3
 72
    23
 73
    19
 74
     0
 42
0.00000001
 43
0.00000001
 40
0.0
 40
0.0
 40
0.0
 40
0.0
 40
0.0619654006870618
 40
0.1221219056382957
 40
0.1809884968498415
 40
0.2399332164519019
 40
0.2999058311065242
 40
0.3599888474769884
 40
0.4217757417416481
 40
0.486575826421127
 40
0.5515348046197404
 40
0.6150175427599807
 40
0.6772586166616601
 40
0.7397299623627113
 40
0.803050102662949
 40
0.8664951320156961
 40
0.9319734741771509
 40
1.0
 40
1.0
 40
1.0
 40
1.0
 10
187.40020149329
 20
131.4176768037996
 30
0.0
 10
187.3995657509906
 20
131.4415582022104
 30
0.0
 10
187.398312824999
 20
131.4886238525717
 30
0.0
 10
187.3872551275052
 20
131.5576296115904
 30
0.0
 10
187.3705446214107
 20
131.6241944254062
 30
0.0
 10
187.3465993633628
 20
131.688523044524
 30
0.0
 10
187.3149926232774
 20
131.7499686965902
 30
0.0
 10
187.2765192433598
 20
131.8086061767938
 30
0.0
 10
187.232129179942
 20
131.8652951419938
 30
0.0
 10
187.1807779106111
 20
131.9184484400519
 30
0.0
 10
187.1243663908045
 20
131.9671296455344
 30
0.0
 10
187.0647721412193
 20
132.0102537309488
 30
0.0
 10
187.0017220369594
 20
132.0462928417476
 30
0.0
 10
186.9354819147836
 20
132.075836338928
 30
0.0
 10
186.8662364453752
 20
132.0990117201243
 30
0.0
 10
186.7938517002528
 20
132.1150702995475
 30
0.0
 10
186.7185276839703
 20
132.1251527834941
 30
0.0
 10
186.6670941882797
 20
132.1265169554025
 30
0.0
 10
186.6408865894439
 20
132.1272120602099
 30
0.0
  0
SPLINE
  5
6C
330
1F
100
AcDbEntity
  8
0
  6
Continuous
 62
     7
370
    15
100
AcDbSpline
210
0.0
220
0.0
230
1.0
 70
     8
 71
     3
 72
    23
 73
    19
 74
     0
 42
0.00000001
 43
0.00000001
 40
0.0
 40
0.0
 40
0.0
 40
0.0
 40
0.0644386715952398
 40
0.1265469112716777
 40
0.1868871534365695
 40
0.2458775355894539
 40
0.3040408846912655
 40
0.36219121807266
 40
0.4209759327916452
 40
0.480660283279665
 40
0.54060027495376
 40
0.6006890983494548
 40
0.6619357897571955
 40
0.7244425059139831
 40
0.7890383938817433
 40
0.856313757050995
 40
0.926352028205864
 40
1.0
 40
1.0
 40
1.0
 40
1.0
 10
186.6408865894439
 20
132.1272120602099
 30
0.0
 10
186.6135157566875
 20
132.126497027946
 30
0.0
 10
186.559763960468
 20
132.1250928226416
 30
0.0
 10
186.4808449275315
 20
132.1152701586496
 30
0.0
 10
186.4055591500076
 20
132.0983243182526
 30
0.0
 10
186.3337172470547
 20
132.0751476438656
 30
0.0
 10
186.265197661242
 20
132.0456890950433
 30
0.0
 10
186.2003336172046
 20
132.0089973503645
 30
0.0
 10
186.1392707279447
 20
131.965213857212
 30
0.0
 10
186.0818942045992
 20
131.9155733008879
 30
0.0
 10
186.0290302255356
 20
131.860305699672
 30
0.0
 10
185.9825833496707
 20
131.7986957366051
 30
0.0
 10
185.9419993355271
 20
131.7318683212339
 30
0.0
 10
185.9065901020473
 20
131.6600037706646
 30
0.0
 10
185.8778344119645
 20
131.5824499906801
 30
0.0
 10
185.8558612615334
 20
131.4994822858317
 30
0.0
 10
185.8384744148118
 20
131.4114609043931
 30
0.0
 10
185.832665894207
 20
131.3506758195365
 30
0.0
 10
185.8296886727772
 20
131.3195197525176
 30
0.0
  0
SPLINE
  5
6D
330
1F
100
AcDbEntity
  8
0
  6
Continuous
 62
     7
370
    15
100
AcDbSpline
210
0.0
220
0.0
230
1.0
 70
     8
 71
     3
 72
    23
 73
    19
 74
     0
 42
0.00000001
 43
0.00000001
 40
0.0
 40
0.0
 40
0.0
 40
0.0
 40
0.0687907943906184
 40
0.1351032894311275
 40
0.1989786743106504
 40
0.261904299780855
 40
0.3234949693679683
 40
0.3851953779660514
 40
0.4469692387407741
 40
0.5097647767031314
 40
0.5722505688473655
 40
0.6334051756611506
 40
0.6932511629217503
 40
0.7525831627856704
 40
0.8125792661534197
 40
0.8732750849201915
 40
0.9355499428950294
 40
0.9999999999999999
 40
0.9999999999999999
 40
0.9999999999999999
 40
0.9999999999999999
 10
185.5155861086746
 20
131.3195197525176
 30
0.0
 10
185.5176332616826
 20
131.3611906402854
 30
0.0
 10
185.5216538157086
 20
131.4430311548603
 30
0.0
 10
185.5404821049703
 20
131.5623550612594
 30
0.0
 10
185.5674229821752
 20
131.6764098599842
 30
0.0
 10
185.60551443619
 20
131.7842797739539
 30
0.0
 10
185.6528207139598
 20
131.8869185811842
 30
0.0
 10
185.7095507413406
 20
131.9839185968755
 30
0.0
 10
185.7767445918541
 20
132.0749097855901
 30
0.0
 10
185.8529513258995
 20
132.1590486288856
 30
0.0
 10
185.9357199649545
 20
132.2362361996849
 30
0.0
 10
186.0250259044255
 20
132.3028914424911
 30
0.0
 10
186.1188709317119
 20
132.359209113853
 30
0.0
 10
186.2169703306772
 20
132.4062903556769
 30
0.0
 10
186.3204308942367
 20
132.4416302015994
 30
0.0
 10
186.4283137520761
 20
132.467851841204
 30
0.0
 10
186.5410928884856
 20
132.4836281869256
 30
0.0
 10
186.6179329105325
 20
132.4853239725299
 30
0.0
 10
186.6570123907259
 20
132.4861864191842
 30
0.0
  0
LINE
  5
6E
330
1F
100
AcDbEntity
  8
0
  6
Continuous
 62
     7
370
    15
100
AcDbLine
 10
182.3745604676
 20
132.3964428294
 30
0.0
 11
182.3745604676
 21
132.0374684705
 31
0.0
  0
LINE
  5
6F
330
1F
100
AcDbEntity
  8
0
  6
Continuous
 62
     7
370
    15
100
AcDbLine
 10
182.3745604676
 20
132.0374684705
 30
0.0
 11
180.7143040574
 21
132.0374684705
 31
0.0
  0
LINE
  5
70
330
1F
100
AcDbEntity
  8
0
  6
Continuous
 62
     7
370
    15
100
AcDbLine
 10
180.7143040574
 20
130.9605453935
 30
0.0
 11
182.3745604676
 21
130.9605453935
 31
0.0
  0
LINE
  5
71
330
1F
100
AcDbEntity
  8
0
  6
Continuous
 62
     7
370
    15
100
AcDbLine
 10
182.3745604676
 20
130.9605453935
 30
0.0
 11
182.3745604676
 21
130.6015710346
 31
0.0
  0
LINE
  5
72
330
1F
100
AcDbEntity
  8
0
  6
Continuous
 62
     7
370
    15
100
AcDbLine
 10
182.3745604676
 20
130.6015710346
 30
0.0
 11
180.7143040574
 21
130.6015710346
 31
0.0
  0
LINE
  5
73
330
1F
100
AcDbEntity
  8
0
  6
Continuous
 62
     7
370
    15
100
AcDbLine
 10
182.3745604676
 20
129.2554171884
 30
0.0
 11
182.3745604676
 21
128.8964428294
 31
0.0
  0
LINE
  5
74
330
1F
100
AcDbEntity
  8
0
  6
Continuous
 62
     7
370
    15
100
AcDbLine
 10
182.3745604676
 20
128.8964428294
 30
0.0
 11
180.4002014933
 21
128.8964428294
 31
0.0
  0
LINE
  5
75
330
1F
100
AcDbEntity
  8
0
  6
Continuous
 62
     7
370
    15
100
AcDbLine
 10
180.4002014933
 20
132.3964428294
 30
0.0
 11
182.3745604676
 21
132.3964428294
 31
0.0
  0
LINE
  5
76
330
1F
100
AcDbEntity
  8
0
  6
Continuous
 62
     7
370
    15
100
AcDbLine
 10
180.7143040574
 20
132.0374684705
 30
0.0
 11
180.7143040574
 21
130.9605453935
 31
0.0
  0
LINE
  5
77
330
1F
100
AcDbEntity
  8
0
  6
Continuous
 62
     7
370
    15
100
AcDbLine
 10
180.7143040574
 20
129.2554171884
 30
0.0
 11
182.3745604676
 21
129.2554171884
 31
0.0
  0
LINE
  5
78
330
1F
100
AcDbEntity
  8
0
  6
Continuous
 62
     7
370
    15
100
AcDbLine
 10
180.7143040574
 20
130.6015710346
 30
0.0
 11
180.7143040574
 21
129.2554171884
 31
0.0
  0
LINE
  5
79
330
1F
100
AcDbEntity
  8
0
  6
Continuous
 62
     7
370
    15
100
AcDbLine
 10
180.4002014933
 20
128.8964428294
 30
0.0
 11
180.4002014933
 21
132.3964428294
 31
0.0
  0
LINE
  5
7A
330
1F
100
AcDbEntity
  8
0
  6
Continuous
 62
     7
370
    15
100
AcDbLine
 10
173.6245604676
 20
132.3964428294
 30
0.0
 11
173.9610989292
 21
132.3964428294
 31
0.0
  0
LINE
  5
7B
330
1F
100
AcDbEntity
  8
0
  6
Continuous
 62
     7
370
    15
100
AcDbLine
 10
176.2944322625
 20
132.3964428294
 30
0.0
 11
176.6309707241
 21
132.3964428294
 31
0.0
  0
LINE
  5
7C
330
1F
100
AcDbEntity
  8
0
  6
Continuous
 62
     7
370
    15
100
AcDbLine
 10
176.6309707241
 20
132.3964428294
 30
0.0
 11
175.1502014933
 21
128.8964428294
 31
0.0
  0
LINE
  5
7D
330
1F
100
AcDbEntity
  8
0
  6
Continuous
 62
     7
370
    15
100
AcDbLine
 10
175.1502014933
 20
128.8964428294
 30
0.0
 11
175.1053296984
 21
128.8964428294
 31
0.0
  0
LINE
  5
7E
330
1F
100
AcDbEntity
  8
0
  6
Continuous
 62
     7
370
    15
100
AcDbLine
 10
173.9610989292
 20
132.3964428294
 30
0.0
 11
175.1277655959
 21
129.6382296884
 31
0.0
  0
LINE
  5
7F
330
1F
100
AcDbEntity
  8
0
  6
Continuous
 62
     7
370
    15
100
AcDbLine
 10
175.1277655959
 20
129.6382296884
 30
0.0
 11
176.2944322625
 21
132.3964428294
 31
0.0
  0
LINE
  5
80
330
1F
100
AcDbEntity
  8
0
  6
Continuous
 62
     7
370
    15
100
AcDbLine
 10
175.1053296984
 20
128.8964428294
 30
0.0
 11
173.6245604676
 21
132.3964428294
 31
0.0
  0
LINE
  5
81
330
1F
100
AcDbEntity
  8
0
  6
Continuous
 62
     7
370
    15
100
AcDbLine
 10
200.1220954357
 20
135.7225767635
 30
0.0
 11
102.1220954357
 21
135.7225767635
 31
0.0
  0
LINE
  5
82
330
1F
100
AcDbEntity
  8
0
  6
Continuous
 62
     7
370
    15
100
AcDbLine
 10
200.1220954357
 20
109.7225767635
 30
0.0
 11
200.1220954357
 21
135.7225767635
 31
0.0
  0
LINE
  5
83
330
1F
100
AcDbEntity
  8
0
  6
Continuous
 62
     7
370
    15
100
AcDbLine
 10
102.1220954357
 20
109.7225767635
 30
0.0
 11
200.1220954357
 21
109.7225767635
 31
0.0
  0
LINE
  5
84
330
1F
100
AcDbEntity
  8
0
  6
Continuous
 62
     7
370
    15
100
AcDbLine
 10
102.1220954357
 20
135.7225767635
 30
0.0
 11
102.1220954357
 21
109.7225767635
 31
0.0
  0
ARC
  5
85
330
1F
100
AcDbEntity
  8
0
  6
Continuous
 62
     7
370
    15
100
AcDbCircle
 10
126.5146954357
 20
132.9225767635
 30
0.0
 40
0.2000000000000171
100
AcDbArc
 50
0.0
 51
90.0
  0
LINE
  5
86
330
1F
100
AcDbEntity
  8
0
  6
Continuous
 62
     7
370
    15
100
AcDbLine
 10
126.5146954357
 20
133.1225767635
 30
0.0
 11
118.9146954357
 21
133.1225767635
 31
0.0
  0
ARC
  5
87
330
1F
100
AcDbEntity
  8
0
  6
Continuous
 62
     7
370
    15
100
AcDbCircle
 10
118.9146954357
 20
132.9225767635
 30
0.0
 40
0.2000000000000028
100
AcDbArc
 50
90.0
 51
180.0
  0
LINE
  5
88
330
1F
100
AcDbEntity
  8
0
  6
Continuous
 62
     7
370
    15
100
AcDbLine
 10
118.7146954357
 20
132.9225767635
 30
0.0
 11
118.7146954357
 21
131.3225767635
 31
0.0
  0
ARC
  5
89
330
1F
100
AcDbEntity
  8
0
  6
Continuous
 62
     7
370
    15
100
AcDbCircle
 10
118.5146954357
 20
131.3225767635
 30
0.0
 40
0.2000000000000171
100
AcDbArc
 50
270.0
 51
0.0
  0
LINE
  5
8A
330
1F
100
AcDbEntity
  8
0
  6
Continuous
 62
     7
370
    15
100
AcDbLine
 10
118.5146954357
 20
131.1225767635
 30
0.0
 11
104.4146954357
 21
131.1225767635
 31
0.0
  0
ARC
  5
8B
330
1F
100
AcDbEntity
  8
0
  6
Continuous
 62
     7
370
    15
100
AcDbCircle
 10
104.4146954357
 20
130.9225767635
 30
0.0
 40
0.1999999999999886
100
AcDbArc
 50
90.0
 51
180.0
  0
LINE
  5
8C
330
1F
100
AcDbEntity
  8
0
  6
Continuous
 62
     7
370
    15
100
AcDbLine
 10
104.2146954357
 20
130.9225767635
 30
0.0
 11
104.2146954357
 21
115.3225767635
 31
0.0
  0
ARC
  5
8D
330
1F
100
AcDbEntity
  8
0
  6
Continuous
 62
     7
370
    15
100
AcDbCircle
 10
104.4146954357
 20
115.3225767635
 30
0.0
 40
0.2000000000000028
100
AcDbArc
 50
180.0
 51
270.0
  0
LINE
  5
8E
330
1F
100
AcDbEntity
  8
0
  6
Continuous
 62
     7
370
    15
100
AcDbLine
 10
104.4146954357
 20
115.1225767635
 30
0.0
 11
141.0146954357
 21
115.1225767635
 31
0.0
  0
ARC
  5
8F
330
1F
100
AcDbEntity
  8
0
  6
Continuous
 62
     7
370
    15
100
AcDbCircle
 10
141.0146954357
 20
115.3225767635
 30
0.0
 40
0.2000000000000171
100
AcDbArc
 50
270.0
 51
0.0
  0
LINE
  5
90
330
1F
100
AcDbEntity
  8
0
  6
Continuous
 62
     7
370
    15
100
AcDbLine
 10
141.2146954357
 20
115.3225767635
 30
0.0
 11
141.2146954357
 21
130.9225767635
 31
0.0
  0
ARC
  5
91
330
1F
100
AcDbEntity
  8
0
  6
Continuous
 62
     7
370
    15
100
AcDbCircle
 10
141.0146954357
 20
130.9225767635
 30
0.0
 40
0.2000000000000171
100
AcDbArc
 50
0.0
 51
90.0
  0
LINE
  5
92
330
1F
100
AcDbEntity
  8
0
  6
Continuous
 62
     7
370
    15
100
AcDbLine
 10
141.0146954357
 20
131.1225767635
 30
0.0
 11
126.9146954357
 21
131.1225767635
 31
0.0
  0
ARC
  5
93
330
1F
100
AcDbEntity
  8
0
  6
Continuous
 62
     7
370
    15
100
AcDbCircle
 10
126.9146954357
 20
131.3225767635
 30
0.0
 40
0.2000000000000171
100
AcDbArc
 50
180.0
 51
270.0
  0
LINE
  5
94
330
1F
100
AcDbEntity
  8
0
  6
Continuous
 62
     7
370
    15
100
AcDbLine
 10
126.7146954357
 20
131.3225767635
 30
0.0
 11
126.7146954357
 21
132.9225767635
 31
0.0
  0
ARC
  5
95
330
1F
100
AcDbEntity
  8
0
  6
Continuous
 62
     7
370
    15
100
AcDbCircle
 10
143.0720954357
 20
115.3225767635
 30
0.0
 40
0.2000000000000171
100
AcDbArc
 50
180.0
 51
270.0
  0
LINE
  5
96
330
1F
100
AcDbEntity
  8
0
  6
Continuous
 62
     7
370
    15
100
AcDbLine
 10
143.0720954357
 20
115.1225767635
 30
0.0
 11
171.6720954357
 21
115.1225767635
 31
0.0
  0
ARC
  5
97
330
1F
100
AcDbEntity
  8
0
  6
Continuous
 62
     7
370
    15
100
AcDbCircle
 10
171.6720954357
 20
115.3225767635
 30
0.0
 40
0.2000000000000171
100
AcDbArc
 50
270.0
 51
0.0
  0
LINE
  5
98
330
1F
100
AcDbEntity
  8
0
  6
Continuous
 62
     7
370
    15
100
AcDbLine
 10
171.8720954357
 20
115.3225767635
 30
0.0
 11
171.8720954357
 21
124.2225767635
 31
0.0
  0
ARC
  5
99
330
1F
100
AcDbEntity
  8
0
  6
Continuous
 62
     7
370
    15
100
AcDbCircle
 10
171.6720954357
 20
124.2225767635
 30
0.0
 40
0.2000000000000028
100
AcDbArc
 50
0.0
 51
90.0
  0
LINE
  5
9A
330
1F
100
AcDbEntity
  8
0
  6
Continuous
 62
     7
370
    15
100
AcDbLine
 10
171.6720954357
 20
124.4225767635
 30
0.0
 11
143.0720954357
 21
124.4225767635
 31
0.0
  0
ARC
  5
9B
330
1F
100
AcDbEntity
  8
0
  6
Continuous
 62
     7
370
    15
100
AcDbCircle
 10
143.0720954357
 20
124.2225767635
 30
0.0
 40
0.2000000000000171
100
AcDbArc
 50
90.0
 51
180.0
  0
LINE
  5
9C
330
1F
100
AcDbEntity
  8
0
  6
Continuous
 62
     7
370
    15
100
AcDbLine
 10
142.8720954357
 20
124.2225767635
 30
0.0
 11
142.8720954357
 21
115.3225767635
 31
0.0
  0
ARC
  5
9D
330
1F
100
AcDbEntity
  8
0
  6
Continuous
 62
     7
370
    15
100
AcDbCircle
 10
174.9720954357
 20
115.5725767635
 30
0.0
 40
0.2000000000000171
100
AcDbArc
 50
180.0
 51
270.0
  0
LINE
  5
9E
330
1F
100
AcDbEntity
  8
0
  6
Continuous
 62
     7
370
    15
100
AcDbLine
 10
174.9720954357
 20
115.3725767635
 30
0.0
 11
183.2720954357
 21
115.3725767635
 31
0.0
  0
ARC
  5
9F
330
1F
100
AcDbEntity
  8
0
  6
Continuous
 62
     7
370
    15
100
AcDbCircle
 10
183.2720954357
 20
115.5725767635
 30
0.0
 40
0.2000000000000028
100
AcDbArc
 50
270.0
 51
0.0
  0
LINE
  5
A0
330
1F
100
AcDbEntity
  8
0
  6
Continuous
 62
     7
370
    15
100
AcDbLine
 10
183.4720954357
 20
115.5725767635
 30
0.0
 11
183.4720954357
 21
119.6725767635
 31
0.0
  0
ARC
  5
A1
330
1F
100
AcDbEntity
  8
0
  6
Continuous
 62
     7
370
    15
100
AcDbCircle
 10
183.2720954357
 20
119.6725767635
 30
0.0
 40
0.2000000000000171
100
AcDbArc
 50
0.0
 51
90.0
  0
LINE
  5
A2
330
1F
100
AcDbEntity
  8
0
  6
Continuous
 62
     7
370
    15
100
AcDbLine
 10
183.2720954357
 20
119.8725767635
 30
0.0
 11
174.9720954357
 21
119.8725767635
 31
0.0
  0
ARC
  5
A3
330
1F
100
AcDbEntity
  8
0
  6
Continuous
 62
     7
370
    15
100
AcDbCircle
 10
174.9720954357
 20
119.6725767635
 30
0.0
 40
0.2000000000000171
100
AcDbArc
 50
90.0
 51
180.0
  0
LINE
  5
A4
330
1F
100
AcDbEntity
  8
0
  6
Continuous
 62
     7
370
    15
100
AcDbLine
 10
174.7720954357
 20
119.6725767635
 30
0.0
 11
174.7720954357
 21
115.5725767635
 31
0.0
  0
ARC
  5
A5
330
1F
100
AcDbEntity
  8
0
  6
Continuous
 62
     7
370
    15
100
AcDbCircle
 10
196.7780808121
 20
126.6325767635
 30
0.0
 40
0.2000000000000171
100
AcDbArc
 50
0.0
 51
90.0
  0
LINE
  5
A6
330
1F
100
AcDbEntity
  8
0
  6
Continuous
 62
     7
370
    15
100
AcDbLine
 10
196.7780808121
 20
126.8325767635
 30
0.0
 11
193.9780808121
 21
126.8325767635
 31
0.0
  0
ARC
  5
A7
330
1F
100
AcDbEntity
  8
0
  6
Continuous
 62
     7
370
    15
100
AcDbCircle
 10
193.9780808121
 20
126.6325767635
 30
0.0
 40
0.2000000000000171
100
AcDbArc
 50
90.0
 51
180.0
  0
LINE
  5
A8
330
1F
100
AcDbEntity
  8
0
  6
Continuous
 62
     7
370
    15
100
AcDbLine
 10
193.7780808121
 20
126.6325767635
 30
0.0
 11
193.7780808121
 21
124.8325767635
 31
0.0
  0
ARC
  5
A9
330
1F
100
AcDbEntity
  8
0
  6
Continuous
 62
     7
370
    15
100
AcDbCircle
 10
193.9780808121
 20
124.8325767635
 30
0.0
 40
0.2000000000000171
100
AcDbArc
 50
180.0
 51
270.0
  0
LINE
  5
AA
330
1F
100
AcDbEntity
  8
0
  6
Continuous
 62
     7
370
    15
100
AcDbLine
 10
193.9780808121
 20
124.6325767635
 30
0.0
 11
196.7780808121
 21
124.6325767635
 31
0.0
  0
ARC
  5
AB
330
1F
100
AcDbEntity
  8
0
  6
Continuous
 62
     7
370
    15
100
AcDbCircle
 10
196.7780808121
 20
124.8325767635
 30
0.0
 40
0.2000000000000171
100
AcDbArc
 50
270.0
 51
0.0
  0
LINE
  5
AC
330
1F
100
AcDbEntity
  8
0
  6
Continuous
 62
     7
370
    15
100
AcDbLine
 10
196.9780808121
 20
124.8325767635
 30
0.0
 11
196.9780808121
 21
126.6325767635
 31
0.0
  0
ARC
  5
AD
330
1F
100
AcDbEntity
  8
0
  6
Continuous
 62
     7
370
    15
100
AcDbCircle
 10
196.7780808121
 20
124.0925767635
 30
0.0
 40
0.2000000000000171
100
AcDbArc
 50
0.0
 51
90.0
  0
LINE
  5
AE
330
1F
100
AcDbEntity
  8
0
  6
Continuous
 62
     7
370
    15
100
AcDbLine
 10
196.7780808121
 20
124.2925767635
 30
0.0
 11
193.9780808121
 21
124.2925767635
 31
0.0
  0
ARC
  5
AF
330
1F
100
AcDbEntity
  8
0
  6
Continuous
 62
     7
370
    15
100
AcDbCircle
 10
193.9780808121
 20
124.0925767635
 30
0.0
 40
0.2000000000000171
100
AcDbArc
 50
90.0
 51
180.0
  0
LINE
  5
B0
330
1F
100
AcDbEntity
  8
0
  6
Continuous
 62
     7
370
    15
100
AcDbLine
 10
193.7780808121
 20
124.0925767635
 30
0.0
 11
193.7780808121
 21
122.2925767635
 31
0.0
  0
ARC
  5
B1
330
1F
100
AcDbEntity
  8
0
  6
Continuous
 62
     7
370
    15
100
AcDbCircle
 10
193.9780808121
 20
122.2925767635
 30
0.0
 40
0.2000000000000171
100
AcDbArc
 50
180.0
 51
270.0
  0
LINE
  5
B2
330
1F
100
AcDbEntity
  8
0
  6
Continuous
 62
     7
370
    15
100
AcDbLine
 10
193.9780808121
 20
122.0925767635
 30
0.0
 11
196.7780808121
 21
122.0925767635
 31
0.0
  0
ARC
  5
B3
330
1F
100
AcDbEntity
  8
0
  6
Continuous
 62
     7
370
    15
100
AcDbCircle
 10
196.7780808121
 20
122.2925767635
 30
0.0
 40
0.2000000000000171
100
AcDbArc
 50
270.0
 51
0.0
  0
LINE
  5
B4
330
1F
100
AcDbEntity
  8
0
  6
Continuous
 62
     7
370
    15
100
AcDbLine
 10
196.9780808121
 20
122.2925767635
 30
0.0
 11
196.9780808121
 21
124.0925767635
 31
0.0
  0
ARC
  5
B5
330
1F
100
AcDbEntity
  8
0
  6
Continuous
 62
     7
370
    15
100
AcDbCircle
 10
196.7780808121
 20
121.5525767635
 30
0.0
 40
0.2000000000000171
100
AcDbArc
 50
0.0
 51
90.0
  0
LINE
  5
B6
330
1F
100
AcDbEntity
  8
0
  6
Continuous
 62
     7
370
    15
100
AcDbLine
 10
196.7780808121
 20
121.7525767635
 30
0.0
 11
193.9780808121
 21
121.7525767635
 31
0.0
  0
ARC
  5
B7
330
1F
100
AcDbEntity
  8
0
  6
Continuous
 62
     7
370
    15
100
AcDbCircle
 10
193.9780808121
 20
121.5525767635
 30
0.0
 40
0.2000000000000171
100
AcDbArc
 50
90.0
 51
180.0
  0
LINE
  5
B8
330
1F
100
AcDbEntity
  8
0
  6
Continuous
 62
     7
370
    15
100
AcDbLine
 10
193.7780808121
 20
121.5525767635
 30
0.0
 11
193.7780808121
 21
119.7525767635
 31
0.0
  0
ARC
  5
B9
330
1F
100
AcDbEntity
  8
0
  6
Continuous
 62
     7
370
    15
100
AcDbCircle
 10
193.9780808121
 20
119.7525767635
 30
0.0
 40
0.2000000000000171
100
AcDbArc
 50
180.0
 51
270.0
  0
LINE
  5
BA
330
1F
100
AcDbEntity
  8
0
  6
Continuous
 62
     7
370
    15
100
AcDbLine
 10
193.9780808121
 20
119.5525767635
 30
0.0
 11
196.7780808121
 21
119.5525767635
 31
0.0
  0
ARC
  5
BB
330
1F
100
AcDbEntity
  8
0
  6
Continuous
 62
     7
370
    15
100
AcDbCircle
 10
196.7780808121
 20
119.7525767635
 30
0.0
 40
0.2000000000000171
100
AcDbArc
 50
270.0
 51
0.0
  0
LINE
  5
BC
330
1F
100
AcDbEntity
  8
0
  6
Continuous
 62
     7
370
    15
100
AcDbLine
 10
196.9780808121
 20
119.7525767635
 30
0.0
 11
196.9780808121
 21
121.5525767635
 31
0.0
  0
ARC
  5
BD
330
1F
100
AcDbEntity
  8
0
  6
Continuous
 62
     7
370
    15
100
AcDbCircle
 10
196.7780808121
 20
119.0125767635
 30
0.0
 40
0.2000000000000171
100
AcDbArc
 50
0.0
 51
90.0
  0
LINE
  5
BE
330
1F
100
AcDbEntity
  8
0
  6
Continuous
 62
     7
370
    15
100
AcDbLine
 10
196.7780808121
 20
119.2125767635
 30
0.0
 11
193.9780808121
 21
119.2125767635
 31
0.0
  0
ARC
  5
BF
330
1F
100
AcDbEntity
  8
0
  6
Continuous
 62
     7
370
    15
100
AcDbCircle
 10
193.9780808121
 20
119.0125767635
 30
0.0
 40
0.2000000000000171
100
AcDbArc
 50
90.0
 51
180.0
  0
LINE
  5
C0
330
1F
100
AcDbEntity
  8
0
  6
Continuous
 62
     7
370
    15
100
AcDbLine
 10
193.7780808121
 20
119.0125767635
 30
0.0
 11
193.7780808121
 21
117.2125767635
 31
0.0
  0
ARC
  5
C1
330
1F
100
AcDbEntity
  8
0
  6
Continuous
 62
     7
370
    15
100
AcDbCircle
 10
193.9780808121
 20
117.2125767635
 30
0.0
 40
0.2000000000000171
100
AcDbArc
 50
180.0
 51
270.0
  0
LINE
  5
C2
330
1F
100
AcDbEntity
  8
0
  6
Continuous
 62
     7
370
    15
100
AcDbLine
 10
193.9780808121
 20
117.0125767635
 30
0.0
 11
196.7780808121
 21
117.0125767635
 31
0.0
  0
ARC
  5
C3
330
1F
100
AcDbEntity
  8
0
  6
Continuous
 62
     7
370
    15
100
AcDbCircle
 10
196.7780808121
 20
117.2125767635
 30
0.0
 40
0.2000000000000171
100
AcDbArc
 50
270.0
 51
0.0
  0
LINE
  5
C4
330
1F
100
AcDbEntity
  8
0
  6
Continuous
 62
     7
370
    15
100
AcDbLine
 10
196.9780808121
 20
117.2125767635
 30
0.0
 11
196.9780808121
 21
119.0125767635
 31
0.0
  0
DIMENSION
  5
C5
330
1F
100
AcDbEntity
  8
0
  6
Continuous
 62
     7
370
     0
100
AcDbDimension
  2
*D1
 10
102.1220954357
 20
151.9822459199
 30
0.0
 11
152.8746210691
 21
151.9822459199
 31
0.0
 70
   160
 71
     2
 42
-1.0
  3
SLDDIMSTYLE0
100
AcDbAlignedDimension
 13
200.1220954357
 23
135.7225767635
 33
0.0
 14
102.1220954357
 24
135.7225767635
 34
0.0
100
AcDbRotatedDimension
  0
DIMENSION
  5
D1
330
1F
100
AcDbEntity
  8
0
  6
Continuous
 62
     7
370
     0
100
AcDbDimension
  2
*D2
 10
220.9196572397
 20
135.7225767635
 30
0.0
 11
220.9196572397
 21
121.9346358881
 31
0.0
 70
   160
 71
     2
 42
-1.0
  3
SLDDIMSTYLE0
100
AcDbAlignedDimension
 13
200.1220954357
 23
109.7225767635
 33
0.0
 14
200.1220954357
 24
135.7225767635
 34
0.0
 50
90.0
100
AcDbRotatedDimension
  0
DIMENSION
  5
DB
330
1F
100
AcDbEntity
  8
0
  6
Continuous
 62
     7
370
     0
100
AcDbDimension
  2
*D3
 10
102.1220954357
 20
102.531694881
 30
0.0
 11
119.8626728279
 21
102.531694881
 31
0.0
 70
   160
 71
     2
 42
-1.0
  3
SLDDIMSTYLE0
100
AcDbAlignedDimension
 13
141.2146954357
 23
115.3225767635
 33
0.0
 14
102.1220954357
 24
109.7225767635
 34
0.0
100
AcDbRotatedDimension
  0
DIMENSION
  5
E5
330
1F
100
AcDbEntity
  8
0
  6
Continuous
 62
     7
370
     0
100
AcDbDimension
  2
*D4
 10
102.1220954357
 20
93.7225767635
 30
0.0
 11
150.3145107973
 21
93.7225767635
 31
0.0
 70
   160
 71
     2
 42
-1.0
  3
SLDDIMSTYLE0
100
AcDbAlignedDimension
 13
193.7780808121
 23
117.2125767635
 33
0.0
 14
102.1220954357
 24
109.7225767635
 34
0.0
100
AcDbRotatedDimension
  0
ENDSEC
  0
SECTION
  2
OBJECTS
  0
DICTIONARY
  5
C
330
0
100
AcDbDictionary
281
     1
  3
ACAD_GROUP
350
D
  3
ACAD_LAYOUT
350
1A
  3
ACAD_MLINESTYLE
350
17
  3
ACAD_PLOTSETTINGS
350
19
  3
ACAD_PLOTSTYLENAME
350
E
  0
DICTIONARY
  5
D
102
{ACAD_REACTORS
330
C
102
}
330
C
100
AcDbDictionary
281
     1
  0
DICTIONARY
  5
1A
102
{ACAD_REACTORS
330
C
102
}
330
C
100
AcDbDictionary
281
     1
  3
Layout1
350
1E
  3
Layout2
350
26
  3
Model
350
22
  0
DICTIONARY
  5
17
102
{ACAD_REACTORS
330
C
102
}
330
C
100
AcDbDictionary
281
     1
  3
Standard
350
18
  0
DICTIONARY
  5
19
102
{ACAD_REACTORS
330
C
102
}
330
C
100
AcDbDictionary
281
     1
  0
ACDBDICTIONARYWDFLT
  5
E
102
{ACAD_REACTORS
330
C
102
}
330
C
100
AcDbDictionary
281
     1
  3
Normal
350
F
100
AcDbDictionaryWithDefault
340
F
  0
LAYOUT
  5
1E
102
{ACAD_REACTORS
330
1A
102
}
330
1A
100
AcDbPlotSettings
  1

  2
none_device
  4

  6

 40
0.0
 41
0.0
 42
0.0
 43
0.0
 44
0.0
 45
0.0
 46
0.0
 47
0.0
 48
0.0
 49
0.0
140
0.0
141
0.0
142
1.0
143
1.0
 70
   688
 72
     0
 73
     0
 74
     5
  7

 75
    16
147
1.0
148
0.0
149
0.0
100
AcDbLayout
  1
Layout1
 70
     1
 71
     1
 10
0.0
 20
0.0
 11
420.0
 21
297.0
 12
0.0
 22
0.0
 32
0.0
 14
1.0000000000E+20
 24
1.0000000000E+20
 34
1.0000000000E+20
 15
-1.0000000000E+20
 25
-1.0000000000E+20
 35
-1.0000000000E+20
146
0.0
 13
0.0
 23
0.0
 33
0.0
 16
1.0
 26
0.0
 36
0.0
 17
0.0
 27
1.0
 37
0.0
 76
     0
330
1B
  0
LAYOUT
  5
26
102
{ACAD_REACTORS
330
1A
102
}
330
1A
100
AcDbPlotSettings
  1

  2
none_device
  4

  6

 40
0.0
 41
0.0
 42
0.0
 43
0.0
 44
0.0
 45
0.0
 46
0.0
 47
0.0
 48
0.0
 49
0.0
140
0.0
141
0.0
142
1.0
143
1.0
 70
   688
 72
     0
 73
     0
 74
     5
  7

 75
    16
147
1.0
148
0.0
149
0.0
100
AcDbLayout
  1
Layout2
 70
     1
 71
     2
 10
0.0
 20
0.0
 11
0.0
 21
0.0
 12
0.0
 22
0.0
 32
0.0
 14
0.0
 24
0.0
 34
0.0
 15
0.0
 25
0.0
 35
0.0
146
0.0
 13
0.0
 23
0.0
 33
0.0
 16
1.0
 26
0.0
 36
0.0
 17
0.0
 27
1.0
 37
0.0
 76
     0
330
23
  0
LAYOUT
  5
22
102
{ACAD_REACTORS
330
1A
102
}
330
1A
100
AcDbPlotSettings
  1

  2
none_device
  4

  6

 40
0.0
 41
0.0
 42
0.0
 43
0.0
 44
0.0
 45
0.0
 46
0.0
 47
0.0
 48
0.0
 49
0.0
140
0.0
141
0.0
142
1.0
143
1.0
 70
  1712
 72
     0
 73
     0
 74
     0
  7

 75
     0
147
1.0
148
0.0
149
0.0
100
AcDbLayout
  1
Model
 70
     1
 71
     0
 10
0.0
 20
0.0
 11
279.4
 21
215.9
 12
0.0
 22
0.0
 32
0.0
 14
0.0
 24
0.0
 34
0.0
 15
279.4
 25
215.9
 35
0.0
146
0.0
 13
0.0
 23
0.0
 33
0.0
 16
1.0
 26
0.0
 36
0.0
 17
0.0
 27
1.0
 37
0.0
 76
     0
330
1F
331
29
  0
MLINESTYLE
  5
18
102
{ACAD_REACTORS
330
17
102
}
330
17
100
AcDbMlineStyle
  2
Standard
 70
     0
  3

 62
   256
 51
90.0
 52
90.0
 71
     2
 49
0.5
 62
   256
  6
BYLAYER
 49
-0.5
 62
   256
  6
BYLAYER
  0
ACDBPLACEHOLDER
  5
F
102
{ACAD_REACTORS
330
E
102
}
330
E
  0
ENDSEC
  0
EOF
