G75*
G70*
%OFA0B0*%
%FSLAX24Y24*%
%IPPOS*%
%LPD*%
%AMOC8*
5,1,8,0,0,1.08239X$1,22.5*
%
%ADD10C,0.0000*%
%ADD11C,0.0080*%
%ADD12C,0.0110*%
%ADD13C,0.0050*%
%ADD14C,0.0118*%
%ADD15C,0.0040*%
%ADD16C,0.0060*%
%ADD17C,0.0100*%
%ADD18C,0.0079*%
D10*
X000655Y001320D02*
X000655Y021005D01*
X020340Y021005D01*
X020340Y001320D01*
X000655Y001320D01*
X000945Y002161D02*
X000947Y002208D01*
X000953Y002254D01*
X000963Y002300D01*
X000976Y002345D01*
X000994Y002388D01*
X001015Y002430D01*
X001039Y002470D01*
X001067Y002507D01*
X001098Y002542D01*
X001132Y002575D01*
X001168Y002604D01*
X001207Y002630D01*
X001248Y002653D01*
X001291Y002672D01*
X001335Y002688D01*
X001380Y002700D01*
X001426Y002708D01*
X001473Y002712D01*
X001519Y002712D01*
X001566Y002708D01*
X001612Y002700D01*
X001657Y002688D01*
X001701Y002672D01*
X001744Y002653D01*
X001785Y002630D01*
X001824Y002604D01*
X001860Y002575D01*
X001894Y002542D01*
X001925Y002507D01*
X001953Y002470D01*
X001977Y002430D01*
X001998Y002388D01*
X002016Y002345D01*
X002029Y002300D01*
X002039Y002254D01*
X002045Y002208D01*
X002047Y002161D01*
X002045Y002114D01*
X002039Y002068D01*
X002029Y002022D01*
X002016Y001977D01*
X001998Y001934D01*
X001977Y001892D01*
X001953Y001852D01*
X001925Y001815D01*
X001894Y001780D01*
X001860Y001747D01*
X001824Y001718D01*
X001785Y001692D01*
X001744Y001669D01*
X001701Y001650D01*
X001657Y001634D01*
X001612Y001622D01*
X001566Y001614D01*
X001519Y001610D01*
X001473Y001610D01*
X001426Y001614D01*
X001380Y001622D01*
X001335Y001634D01*
X001291Y001650D01*
X001248Y001669D01*
X001207Y001692D01*
X001168Y001718D01*
X001132Y001747D01*
X001098Y001780D01*
X001067Y001815D01*
X001039Y001852D01*
X001015Y001892D01*
X000994Y001934D01*
X000976Y001977D01*
X000963Y002022D01*
X000953Y002068D01*
X000947Y002114D01*
X000945Y002161D01*
X003419Y003636D02*
X003421Y003666D01*
X003427Y003696D01*
X003436Y003725D01*
X003449Y003752D01*
X003466Y003777D01*
X003485Y003800D01*
X003508Y003821D01*
X003533Y003838D01*
X003559Y003852D01*
X003588Y003862D01*
X003617Y003869D01*
X003647Y003872D01*
X003678Y003871D01*
X003708Y003866D01*
X003737Y003857D01*
X003764Y003845D01*
X003790Y003830D01*
X003814Y003811D01*
X003835Y003789D01*
X003853Y003765D01*
X003868Y003738D01*
X003879Y003710D01*
X003887Y003681D01*
X003891Y003651D01*
X003891Y003621D01*
X003887Y003591D01*
X003879Y003562D01*
X003868Y003534D01*
X003853Y003507D01*
X003835Y003483D01*
X003814Y003461D01*
X003790Y003442D01*
X003764Y003427D01*
X003737Y003415D01*
X003708Y003406D01*
X003678Y003401D01*
X003647Y003400D01*
X003617Y003403D01*
X003588Y003410D01*
X003559Y003420D01*
X003533Y003434D01*
X003508Y003451D01*
X003485Y003472D01*
X003466Y003495D01*
X003449Y003520D01*
X003436Y003547D01*
X003427Y003576D01*
X003421Y003606D01*
X003419Y003636D01*
X005472Y004198D02*
X005474Y004239D01*
X005480Y004280D01*
X005490Y004320D01*
X005503Y004359D01*
X005520Y004396D01*
X005541Y004432D01*
X005565Y004466D01*
X005592Y004497D01*
X005621Y004525D01*
X005654Y004551D01*
X005688Y004573D01*
X005725Y004592D01*
X005763Y004607D01*
X005803Y004619D01*
X005843Y004627D01*
X005884Y004631D01*
X005926Y004631D01*
X005967Y004627D01*
X006007Y004619D01*
X006047Y004607D01*
X006085Y004592D01*
X006121Y004573D01*
X006156Y004551D01*
X006189Y004525D01*
X006218Y004497D01*
X006245Y004466D01*
X006269Y004432D01*
X006290Y004396D01*
X006307Y004359D01*
X006320Y004320D01*
X006330Y004280D01*
X006336Y004239D01*
X006338Y004198D01*
X006336Y004157D01*
X006330Y004116D01*
X006320Y004076D01*
X006307Y004037D01*
X006290Y004000D01*
X006269Y003964D01*
X006245Y003930D01*
X006218Y003899D01*
X006189Y003871D01*
X006156Y003845D01*
X006122Y003823D01*
X006085Y003804D01*
X006047Y003789D01*
X006007Y003777D01*
X005967Y003769D01*
X005926Y003765D01*
X005884Y003765D01*
X005843Y003769D01*
X005803Y003777D01*
X005763Y003789D01*
X005725Y003804D01*
X005689Y003823D01*
X005654Y003845D01*
X005621Y003871D01*
X005592Y003899D01*
X005565Y003930D01*
X005541Y003964D01*
X005520Y004000D01*
X005503Y004037D01*
X005490Y004076D01*
X005480Y004116D01*
X005474Y004157D01*
X005472Y004198D01*
X009472Y004198D02*
X009474Y004239D01*
X009480Y004280D01*
X009490Y004320D01*
X009503Y004359D01*
X009520Y004396D01*
X009541Y004432D01*
X009565Y004466D01*
X009592Y004497D01*
X009621Y004525D01*
X009654Y004551D01*
X009688Y004573D01*
X009725Y004592D01*
X009763Y004607D01*
X009803Y004619D01*
X009843Y004627D01*
X009884Y004631D01*
X009926Y004631D01*
X009967Y004627D01*
X010007Y004619D01*
X010047Y004607D01*
X010085Y004592D01*
X010121Y004573D01*
X010156Y004551D01*
X010189Y004525D01*
X010218Y004497D01*
X010245Y004466D01*
X010269Y004432D01*
X010290Y004396D01*
X010307Y004359D01*
X010320Y004320D01*
X010330Y004280D01*
X010336Y004239D01*
X010338Y004198D01*
X010336Y004157D01*
X010330Y004116D01*
X010320Y004076D01*
X010307Y004037D01*
X010290Y004000D01*
X010269Y003964D01*
X010245Y003930D01*
X010218Y003899D01*
X010189Y003871D01*
X010156Y003845D01*
X010122Y003823D01*
X010085Y003804D01*
X010047Y003789D01*
X010007Y003777D01*
X009967Y003769D01*
X009926Y003765D01*
X009884Y003765D01*
X009843Y003769D01*
X009803Y003777D01*
X009763Y003789D01*
X009725Y003804D01*
X009689Y003823D01*
X009654Y003845D01*
X009621Y003871D01*
X009592Y003899D01*
X009565Y003930D01*
X009541Y003964D01*
X009520Y004000D01*
X009503Y004037D01*
X009490Y004076D01*
X009480Y004116D01*
X009474Y004157D01*
X009472Y004198D01*
X012515Y004370D02*
X012517Y004420D01*
X012523Y004470D01*
X012533Y004519D01*
X012546Y004568D01*
X012564Y004615D01*
X012585Y004661D01*
X012609Y004704D01*
X012637Y004746D01*
X012668Y004786D01*
X012702Y004823D01*
X012739Y004857D01*
X012779Y004888D01*
X012821Y004916D01*
X012864Y004940D01*
X012910Y004961D01*
X012957Y004979D01*
X013006Y004992D01*
X013055Y005002D01*
X013105Y005008D01*
X013155Y005010D01*
X013205Y005008D01*
X013255Y005002D01*
X013304Y004992D01*
X013353Y004979D01*
X013400Y004961D01*
X013446Y004940D01*
X013489Y004916D01*
X013531Y004888D01*
X013571Y004857D01*
X013608Y004823D01*
X013642Y004786D01*
X013673Y004746D01*
X013701Y004704D01*
X013725Y004661D01*
X013746Y004615D01*
X013764Y004568D01*
X013777Y004519D01*
X013787Y004470D01*
X013793Y004420D01*
X013795Y004370D01*
X013793Y004320D01*
X013787Y004270D01*
X013777Y004221D01*
X013764Y004172D01*
X013746Y004125D01*
X013725Y004079D01*
X013701Y004036D01*
X013673Y003994D01*
X013642Y003954D01*
X013608Y003917D01*
X013571Y003883D01*
X013531Y003852D01*
X013489Y003824D01*
X013446Y003800D01*
X013400Y003779D01*
X013353Y003761D01*
X013304Y003748D01*
X013255Y003738D01*
X013205Y003732D01*
X013155Y003730D01*
X013105Y003732D01*
X013055Y003738D01*
X013006Y003748D01*
X012957Y003761D01*
X012910Y003779D01*
X012864Y003800D01*
X012821Y003824D01*
X012779Y003852D01*
X012739Y003883D01*
X012702Y003917D01*
X012668Y003954D01*
X012637Y003994D01*
X012609Y004036D01*
X012585Y004079D01*
X012564Y004125D01*
X012546Y004172D01*
X012533Y004221D01*
X012523Y004270D01*
X012517Y004320D01*
X012515Y004370D01*
X017015Y004370D02*
X017017Y004420D01*
X017023Y004470D01*
X017033Y004519D01*
X017046Y004568D01*
X017064Y004615D01*
X017085Y004661D01*
X017109Y004704D01*
X017137Y004746D01*
X017168Y004786D01*
X017202Y004823D01*
X017239Y004857D01*
X017279Y004888D01*
X017321Y004916D01*
X017364Y004940D01*
X017410Y004961D01*
X017457Y004979D01*
X017506Y004992D01*
X017555Y005002D01*
X017605Y005008D01*
X017655Y005010D01*
X017705Y005008D01*
X017755Y005002D01*
X017804Y004992D01*
X017853Y004979D01*
X017900Y004961D01*
X017946Y004940D01*
X017989Y004916D01*
X018031Y004888D01*
X018071Y004857D01*
X018108Y004823D01*
X018142Y004786D01*
X018173Y004746D01*
X018201Y004704D01*
X018225Y004661D01*
X018246Y004615D01*
X018264Y004568D01*
X018277Y004519D01*
X018287Y004470D01*
X018293Y004420D01*
X018295Y004370D01*
X018293Y004320D01*
X018287Y004270D01*
X018277Y004221D01*
X018264Y004172D01*
X018246Y004125D01*
X018225Y004079D01*
X018201Y004036D01*
X018173Y003994D01*
X018142Y003954D01*
X018108Y003917D01*
X018071Y003883D01*
X018031Y003852D01*
X017989Y003824D01*
X017946Y003800D01*
X017900Y003779D01*
X017853Y003761D01*
X017804Y003748D01*
X017755Y003738D01*
X017705Y003732D01*
X017655Y003730D01*
X017605Y003732D01*
X017555Y003738D01*
X017506Y003748D01*
X017457Y003761D01*
X017410Y003779D01*
X017364Y003800D01*
X017321Y003824D01*
X017279Y003852D01*
X017239Y003883D01*
X017202Y003917D01*
X017168Y003954D01*
X017137Y003994D01*
X017109Y004036D01*
X017085Y004079D01*
X017064Y004125D01*
X017046Y004172D01*
X017033Y004221D01*
X017023Y004270D01*
X017017Y004320D01*
X017015Y004370D01*
X018949Y002161D02*
X018951Y002208D01*
X018957Y002254D01*
X018967Y002300D01*
X018980Y002345D01*
X018998Y002388D01*
X019019Y002430D01*
X019043Y002470D01*
X019071Y002507D01*
X019102Y002542D01*
X019136Y002575D01*
X019172Y002604D01*
X019211Y002630D01*
X019252Y002653D01*
X019295Y002672D01*
X019339Y002688D01*
X019384Y002700D01*
X019430Y002708D01*
X019477Y002712D01*
X019523Y002712D01*
X019570Y002708D01*
X019616Y002700D01*
X019661Y002688D01*
X019705Y002672D01*
X019748Y002653D01*
X019789Y002630D01*
X019828Y002604D01*
X019864Y002575D01*
X019898Y002542D01*
X019929Y002507D01*
X019957Y002470D01*
X019981Y002430D01*
X020002Y002388D01*
X020020Y002345D01*
X020033Y002300D01*
X020043Y002254D01*
X020049Y002208D01*
X020051Y002161D01*
X020049Y002114D01*
X020043Y002068D01*
X020033Y002022D01*
X020020Y001977D01*
X020002Y001934D01*
X019981Y001892D01*
X019957Y001852D01*
X019929Y001815D01*
X019898Y001780D01*
X019864Y001747D01*
X019828Y001718D01*
X019789Y001692D01*
X019748Y001669D01*
X019705Y001650D01*
X019661Y001634D01*
X019616Y001622D01*
X019570Y001614D01*
X019523Y001610D01*
X019477Y001610D01*
X019430Y001614D01*
X019384Y001622D01*
X019339Y001634D01*
X019295Y001650D01*
X019252Y001669D01*
X019211Y001692D01*
X019172Y001718D01*
X019136Y001747D01*
X019102Y001780D01*
X019071Y001815D01*
X019043Y001852D01*
X019019Y001892D01*
X018998Y001934D01*
X018980Y001977D01*
X018967Y002022D01*
X018957Y002068D01*
X018951Y002114D01*
X018949Y002161D01*
X017978Y011756D02*
X017980Y011782D01*
X017986Y011808D01*
X017996Y011833D01*
X018009Y011856D01*
X018025Y011876D01*
X018045Y011894D01*
X018067Y011909D01*
X018090Y011921D01*
X018116Y011929D01*
X018142Y011933D01*
X018168Y011933D01*
X018194Y011929D01*
X018220Y011921D01*
X018244Y011909D01*
X018265Y011894D01*
X018285Y011876D01*
X018301Y011856D01*
X018314Y011833D01*
X018324Y011808D01*
X018330Y011782D01*
X018332Y011756D01*
X018330Y011730D01*
X018324Y011704D01*
X018314Y011679D01*
X018301Y011656D01*
X018285Y011636D01*
X018265Y011618D01*
X018243Y011603D01*
X018220Y011591D01*
X018194Y011583D01*
X018168Y011579D01*
X018142Y011579D01*
X018116Y011583D01*
X018090Y011591D01*
X018066Y011603D01*
X018045Y011618D01*
X018025Y011636D01*
X018009Y011656D01*
X017996Y011679D01*
X017986Y011704D01*
X017980Y011730D01*
X017978Y011756D01*
X017978Y013134D02*
X017980Y013160D01*
X017986Y013186D01*
X017996Y013211D01*
X018009Y013234D01*
X018025Y013254D01*
X018045Y013272D01*
X018067Y013287D01*
X018090Y013299D01*
X018116Y013307D01*
X018142Y013311D01*
X018168Y013311D01*
X018194Y013307D01*
X018220Y013299D01*
X018244Y013287D01*
X018265Y013272D01*
X018285Y013254D01*
X018301Y013234D01*
X018314Y013211D01*
X018324Y013186D01*
X018330Y013160D01*
X018332Y013134D01*
X018330Y013108D01*
X018324Y013082D01*
X018314Y013057D01*
X018301Y013034D01*
X018285Y013014D01*
X018265Y012996D01*
X018243Y012981D01*
X018220Y012969D01*
X018194Y012961D01*
X018168Y012957D01*
X018142Y012957D01*
X018116Y012961D01*
X018090Y012969D01*
X018066Y012981D01*
X018045Y012996D01*
X018025Y013014D01*
X018009Y013034D01*
X017996Y013057D01*
X017986Y013082D01*
X017980Y013108D01*
X017978Y013134D01*
X017978Y016256D02*
X017980Y016282D01*
X017986Y016308D01*
X017996Y016333D01*
X018009Y016356D01*
X018025Y016376D01*
X018045Y016394D01*
X018067Y016409D01*
X018090Y016421D01*
X018116Y016429D01*
X018142Y016433D01*
X018168Y016433D01*
X018194Y016429D01*
X018220Y016421D01*
X018244Y016409D01*
X018265Y016394D01*
X018285Y016376D01*
X018301Y016356D01*
X018314Y016333D01*
X018324Y016308D01*
X018330Y016282D01*
X018332Y016256D01*
X018330Y016230D01*
X018324Y016204D01*
X018314Y016179D01*
X018301Y016156D01*
X018285Y016136D01*
X018265Y016118D01*
X018243Y016103D01*
X018220Y016091D01*
X018194Y016083D01*
X018168Y016079D01*
X018142Y016079D01*
X018116Y016083D01*
X018090Y016091D01*
X018066Y016103D01*
X018045Y016118D01*
X018025Y016136D01*
X018009Y016156D01*
X017996Y016179D01*
X017986Y016204D01*
X017980Y016230D01*
X017978Y016256D01*
X017978Y017634D02*
X017980Y017660D01*
X017986Y017686D01*
X017996Y017711D01*
X018009Y017734D01*
X018025Y017754D01*
X018045Y017772D01*
X018067Y017787D01*
X018090Y017799D01*
X018116Y017807D01*
X018142Y017811D01*
X018168Y017811D01*
X018194Y017807D01*
X018220Y017799D01*
X018244Y017787D01*
X018265Y017772D01*
X018285Y017754D01*
X018301Y017734D01*
X018314Y017711D01*
X018324Y017686D01*
X018330Y017660D01*
X018332Y017634D01*
X018330Y017608D01*
X018324Y017582D01*
X018314Y017557D01*
X018301Y017534D01*
X018285Y017514D01*
X018265Y017496D01*
X018243Y017481D01*
X018220Y017469D01*
X018194Y017461D01*
X018168Y017457D01*
X018142Y017457D01*
X018116Y017461D01*
X018090Y017469D01*
X018066Y017481D01*
X018045Y017496D01*
X018025Y017514D01*
X018009Y017534D01*
X017996Y017557D01*
X017986Y017582D01*
X017980Y017608D01*
X017978Y017634D01*
X018949Y020165D02*
X018951Y020212D01*
X018957Y020258D01*
X018967Y020304D01*
X018980Y020349D01*
X018998Y020392D01*
X019019Y020434D01*
X019043Y020474D01*
X019071Y020511D01*
X019102Y020546D01*
X019136Y020579D01*
X019172Y020608D01*
X019211Y020634D01*
X019252Y020657D01*
X019295Y020676D01*
X019339Y020692D01*
X019384Y020704D01*
X019430Y020712D01*
X019477Y020716D01*
X019523Y020716D01*
X019570Y020712D01*
X019616Y020704D01*
X019661Y020692D01*
X019705Y020676D01*
X019748Y020657D01*
X019789Y020634D01*
X019828Y020608D01*
X019864Y020579D01*
X019898Y020546D01*
X019929Y020511D01*
X019957Y020474D01*
X019981Y020434D01*
X020002Y020392D01*
X020020Y020349D01*
X020033Y020304D01*
X020043Y020258D01*
X020049Y020212D01*
X020051Y020165D01*
X020049Y020118D01*
X020043Y020072D01*
X020033Y020026D01*
X020020Y019981D01*
X020002Y019938D01*
X019981Y019896D01*
X019957Y019856D01*
X019929Y019819D01*
X019898Y019784D01*
X019864Y019751D01*
X019828Y019722D01*
X019789Y019696D01*
X019748Y019673D01*
X019705Y019654D01*
X019661Y019638D01*
X019616Y019626D01*
X019570Y019618D01*
X019523Y019614D01*
X019477Y019614D01*
X019430Y019618D01*
X019384Y019626D01*
X019339Y019638D01*
X019295Y019654D01*
X019252Y019673D01*
X019211Y019696D01*
X019172Y019722D01*
X019136Y019751D01*
X019102Y019784D01*
X019071Y019819D01*
X019043Y019856D01*
X019019Y019896D01*
X018998Y019938D01*
X018980Y019981D01*
X018967Y020026D01*
X018957Y020072D01*
X018951Y020118D01*
X018949Y020165D01*
X014119Y020073D02*
X014121Y020107D01*
X014127Y020141D01*
X014137Y020174D01*
X014150Y020205D01*
X014168Y020235D01*
X014188Y020263D01*
X014212Y020288D01*
X014238Y020310D01*
X014266Y020328D01*
X014297Y020344D01*
X014329Y020356D01*
X014363Y020364D01*
X014397Y020368D01*
X014431Y020368D01*
X014465Y020364D01*
X014499Y020356D01*
X014531Y020344D01*
X014561Y020328D01*
X014590Y020310D01*
X014616Y020288D01*
X014640Y020263D01*
X014660Y020235D01*
X014678Y020205D01*
X014691Y020174D01*
X014701Y020141D01*
X014707Y020107D01*
X014709Y020073D01*
X014707Y020039D01*
X014701Y020005D01*
X014691Y019972D01*
X014678Y019941D01*
X014660Y019911D01*
X014640Y019883D01*
X014616Y019858D01*
X014590Y019836D01*
X014562Y019818D01*
X014531Y019802D01*
X014499Y019790D01*
X014465Y019782D01*
X014431Y019778D01*
X014397Y019778D01*
X014363Y019782D01*
X014329Y019790D01*
X014297Y019802D01*
X014266Y019818D01*
X014238Y019836D01*
X014212Y019858D01*
X014188Y019883D01*
X014168Y019911D01*
X014150Y019941D01*
X014137Y019972D01*
X014127Y020005D01*
X014121Y020039D01*
X014119Y020073D01*
X007851Y020073D02*
X007853Y020107D01*
X007859Y020141D01*
X007869Y020174D01*
X007882Y020205D01*
X007900Y020235D01*
X007920Y020263D01*
X007944Y020288D01*
X007970Y020310D01*
X007998Y020328D01*
X008029Y020344D01*
X008061Y020356D01*
X008095Y020364D01*
X008129Y020368D01*
X008163Y020368D01*
X008197Y020364D01*
X008231Y020356D01*
X008263Y020344D01*
X008293Y020328D01*
X008322Y020310D01*
X008348Y020288D01*
X008372Y020263D01*
X008392Y020235D01*
X008410Y020205D01*
X008423Y020174D01*
X008433Y020141D01*
X008439Y020107D01*
X008441Y020073D01*
X008439Y020039D01*
X008433Y020005D01*
X008423Y019972D01*
X008410Y019941D01*
X008392Y019911D01*
X008372Y019883D01*
X008348Y019858D01*
X008322Y019836D01*
X008294Y019818D01*
X008263Y019802D01*
X008231Y019790D01*
X008197Y019782D01*
X008163Y019778D01*
X008129Y019778D01*
X008095Y019782D01*
X008061Y019790D01*
X008029Y019802D01*
X007998Y019818D01*
X007970Y019836D01*
X007944Y019858D01*
X007920Y019883D01*
X007900Y019911D01*
X007882Y019941D01*
X007869Y019972D01*
X007859Y020005D01*
X007853Y020039D01*
X007851Y020073D01*
X003438Y018754D02*
X003440Y018783D01*
X003446Y018811D01*
X003455Y018839D01*
X003468Y018865D01*
X003485Y018888D01*
X003504Y018910D01*
X003526Y018929D01*
X003551Y018944D01*
X003577Y018957D01*
X003605Y018965D01*
X003633Y018970D01*
X003662Y018971D01*
X003691Y018968D01*
X003719Y018961D01*
X003746Y018951D01*
X003772Y018937D01*
X003795Y018920D01*
X003816Y018900D01*
X003834Y018877D01*
X003849Y018852D01*
X003860Y018825D01*
X003868Y018797D01*
X003872Y018768D01*
X003872Y018740D01*
X003868Y018711D01*
X003860Y018683D01*
X003849Y018656D01*
X003834Y018631D01*
X003816Y018608D01*
X003795Y018588D01*
X003772Y018571D01*
X003746Y018557D01*
X003719Y018547D01*
X003691Y018540D01*
X003662Y018537D01*
X003633Y018538D01*
X003605Y018543D01*
X003577Y018551D01*
X003551Y018564D01*
X003526Y018579D01*
X003504Y018598D01*
X003485Y018620D01*
X003468Y018643D01*
X003455Y018669D01*
X003446Y018697D01*
X003440Y018725D01*
X003438Y018754D01*
X000945Y020165D02*
X000947Y020212D01*
X000953Y020258D01*
X000963Y020304D01*
X000976Y020349D01*
X000994Y020392D01*
X001015Y020434D01*
X001039Y020474D01*
X001067Y020511D01*
X001098Y020546D01*
X001132Y020579D01*
X001168Y020608D01*
X001207Y020634D01*
X001248Y020657D01*
X001291Y020676D01*
X001335Y020692D01*
X001380Y020704D01*
X001426Y020712D01*
X001473Y020716D01*
X001519Y020716D01*
X001566Y020712D01*
X001612Y020704D01*
X001657Y020692D01*
X001701Y020676D01*
X001744Y020657D01*
X001785Y020634D01*
X001824Y020608D01*
X001860Y020579D01*
X001894Y020546D01*
X001925Y020511D01*
X001953Y020474D01*
X001977Y020434D01*
X001998Y020392D01*
X002016Y020349D01*
X002029Y020304D01*
X002039Y020258D01*
X002045Y020212D01*
X002047Y020165D01*
X002045Y020118D01*
X002039Y020072D01*
X002029Y020026D01*
X002016Y019981D01*
X001998Y019938D01*
X001977Y019896D01*
X001953Y019856D01*
X001925Y019819D01*
X001894Y019784D01*
X001860Y019751D01*
X001824Y019722D01*
X001785Y019696D01*
X001744Y019673D01*
X001701Y019654D01*
X001657Y019638D01*
X001612Y019626D01*
X001566Y019618D01*
X001519Y019614D01*
X001473Y019614D01*
X001426Y019618D01*
X001380Y019626D01*
X001335Y019638D01*
X001291Y019654D01*
X001248Y019673D01*
X001207Y019696D01*
X001168Y019722D01*
X001132Y019751D01*
X001098Y019784D01*
X001067Y019819D01*
X001039Y019856D01*
X001015Y019896D01*
X000994Y019938D01*
X000976Y019981D01*
X000963Y020026D01*
X000953Y020072D01*
X000947Y020118D01*
X000945Y020165D01*
D11*
X002513Y019463D02*
X002966Y019463D01*
X002506Y019443D02*
X002506Y002947D01*
X002513Y002928D02*
X002966Y002928D01*
X004344Y002928D02*
X004757Y002928D01*
X004765Y002947D02*
X004765Y019246D01*
X004561Y019463D02*
X004344Y019463D01*
X008631Y018810D02*
X008631Y016330D01*
X010679Y016330D02*
X010679Y018810D01*
X008631Y018810D01*
X011156Y008028D02*
X011396Y008028D01*
X011396Y007548D01*
X011156Y007548D01*
X011076Y007628D01*
X011076Y007948D01*
X011156Y008028D01*
X011592Y008028D02*
X011912Y008028D01*
X011912Y007548D01*
X011912Y007788D02*
X011752Y007788D01*
X012107Y008028D02*
X012268Y008028D01*
X012187Y008028D02*
X012187Y007628D01*
X012268Y007548D01*
X012348Y007548D01*
X012428Y007628D01*
X012437Y007341D02*
X012598Y007341D01*
X012678Y007261D01*
X012437Y007341D02*
X012357Y007261D01*
X012357Y007181D01*
X012678Y006860D01*
X012357Y006860D01*
X012162Y006860D02*
X012162Y007341D01*
X011922Y007181D02*
X012162Y007020D01*
X011922Y006860D01*
X011732Y006860D02*
X011412Y006860D01*
X011572Y006860D02*
X011572Y007341D01*
X011732Y007181D01*
X011217Y007261D02*
X011217Y006940D01*
X010896Y007261D01*
X010896Y006940D01*
X010976Y006860D01*
X011137Y006860D01*
X011217Y006940D01*
X011217Y007261D02*
X011137Y007341D01*
X010976Y007341D01*
X010896Y007261D01*
X014240Y003895D02*
X014240Y002495D01*
X016820Y002495D01*
X016820Y003895D01*
X014240Y003895D01*
D12*
X013163Y010250D02*
X012966Y010250D01*
X013064Y010250D02*
X013064Y010841D01*
X012966Y010841D02*
X013163Y010841D01*
X012733Y010644D02*
X012733Y010250D01*
X012733Y010644D02*
X012438Y010644D01*
X012339Y010546D01*
X012339Y010250D01*
X012088Y010644D02*
X011892Y010644D01*
X011990Y010742D02*
X011990Y010349D01*
X011892Y010250D01*
X011659Y010250D02*
X011659Y010841D01*
X011364Y010841D01*
X011265Y010742D01*
X011265Y010546D01*
X011364Y010447D01*
X011659Y010447D01*
X011462Y010447D02*
X011265Y010250D01*
X011014Y010349D02*
X011014Y010546D01*
X010916Y010644D01*
X010719Y010644D01*
X010621Y010546D01*
X010621Y010349D01*
X010719Y010250D01*
X010916Y010250D01*
X011014Y010349D01*
X010370Y010250D02*
X009976Y010250D01*
X009725Y010349D02*
X009627Y010447D01*
X009331Y010447D01*
X009331Y010546D02*
X009331Y010250D01*
X009627Y010250D01*
X009725Y010349D01*
X009627Y010644D02*
X009430Y010644D01*
X009331Y010546D01*
X009081Y010644D02*
X008785Y010644D01*
X008687Y010546D01*
X008687Y010349D01*
X008785Y010250D01*
X009081Y010250D01*
X009081Y010841D01*
X010370Y010841D02*
X010370Y010250D01*
D13*
X009905Y003049D02*
X008822Y003049D01*
X008822Y002911D01*
X008822Y001730D01*
X008822Y001592D01*
X009905Y001592D01*
X010988Y001592D01*
X010988Y001730D01*
X011283Y001730D01*
X011283Y002163D01*
X011260Y002165D01*
X011237Y002170D01*
X011215Y002179D01*
X011195Y002190D01*
X011176Y002205D01*
X011160Y002222D01*
X011147Y002241D01*
X011137Y002263D01*
X011130Y002285D01*
X011126Y002308D01*
X011126Y002332D01*
X011130Y002355D01*
X011137Y002377D01*
X011147Y002398D01*
X011160Y002418D01*
X011176Y002435D01*
X011195Y002450D01*
X011215Y002461D01*
X011237Y002470D01*
X011260Y002475D01*
X011283Y002477D01*
X011283Y002478D02*
X011283Y002911D01*
X010988Y002911D01*
X010988Y003049D01*
X009905Y003049D01*
X008822Y002911D02*
X008527Y002911D01*
X008527Y002478D01*
X008527Y002477D02*
X008552Y002475D01*
X008576Y002470D01*
X008599Y002460D01*
X008621Y002448D01*
X008641Y002432D01*
X008658Y002414D01*
X008672Y002393D01*
X008682Y002371D01*
X008690Y002347D01*
X008694Y002322D01*
X008694Y002298D01*
X008690Y002273D01*
X008682Y002249D01*
X008672Y002226D01*
X008658Y002206D01*
X008641Y002188D01*
X008621Y002172D01*
X008599Y002160D01*
X008576Y002150D01*
X008552Y002145D01*
X008527Y002143D01*
X008527Y001730D01*
X008822Y001730D01*
X009452Y001592D02*
X009452Y001395D01*
X009413Y001316D01*
X009413Y001277D01*
X010397Y001277D01*
X010397Y001316D01*
X010358Y001395D01*
X010358Y001592D01*
X009905Y001592D01*
X009452Y001592D01*
X008033Y001730D02*
X007738Y001730D01*
X007738Y001592D01*
X006655Y001592D01*
X005572Y001592D01*
X005572Y001730D01*
X005277Y001730D01*
X005277Y002143D01*
X005302Y002145D01*
X005326Y002150D01*
X005349Y002160D01*
X005371Y002172D01*
X005391Y002188D01*
X005408Y002206D01*
X005422Y002226D01*
X005432Y002249D01*
X005440Y002273D01*
X005444Y002298D01*
X005444Y002322D01*
X005440Y002347D01*
X005432Y002371D01*
X005422Y002393D01*
X005408Y002414D01*
X005391Y002432D01*
X005371Y002448D01*
X005349Y002460D01*
X005326Y002470D01*
X005302Y002475D01*
X005277Y002477D01*
X005277Y002478D02*
X005277Y002911D01*
X005572Y002911D01*
X005572Y003049D01*
X006655Y003049D01*
X007738Y003049D01*
X007738Y002911D01*
X007738Y001730D01*
X008033Y001730D02*
X008033Y002163D01*
X008010Y002165D01*
X007987Y002170D01*
X007965Y002179D01*
X007945Y002190D01*
X007926Y002205D01*
X007910Y002222D01*
X007897Y002241D01*
X007887Y002263D01*
X007880Y002285D01*
X007876Y002308D01*
X007876Y002332D01*
X007880Y002355D01*
X007887Y002377D01*
X007897Y002398D01*
X007910Y002418D01*
X007926Y002435D01*
X007945Y002450D01*
X007965Y002461D01*
X007987Y002470D01*
X008010Y002475D01*
X008033Y002477D01*
X008033Y002478D02*
X008033Y002911D01*
X007738Y002911D01*
X007108Y001592D02*
X006655Y001592D01*
X006202Y001592D01*
X006202Y001395D01*
X006163Y001316D01*
X006163Y001277D01*
X007147Y001277D01*
X007147Y001316D01*
X007108Y001395D01*
X007108Y001592D01*
X005572Y001730D02*
X005572Y002911D01*
X010988Y002911D02*
X010988Y001730D01*
D14*
X013799Y018177D03*
D15*
X013848Y018285D02*
X013691Y018285D01*
X013691Y018127D01*
X013691Y016513D02*
X013691Y016356D01*
X013848Y016356D01*
X015462Y016356D02*
X015620Y016356D01*
X015620Y016513D01*
X015620Y018127D02*
X015620Y018285D01*
X015462Y018285D01*
D16*
X015781Y018311D02*
X015781Y018368D01*
X015837Y018425D01*
X015894Y018425D01*
X015837Y018425D02*
X015781Y018482D01*
X015781Y018538D01*
X015837Y018595D01*
X015951Y018595D01*
X016007Y018538D01*
X016149Y018538D02*
X016206Y018595D01*
X016319Y018595D01*
X016376Y018538D01*
X016376Y018311D01*
X016319Y018255D01*
X016206Y018255D01*
X016149Y018311D01*
X016007Y018311D02*
X015951Y018255D01*
X015837Y018255D01*
X015781Y018311D01*
X016508Y018255D02*
X016621Y018255D01*
X016564Y018255D02*
X016564Y018595D01*
X016508Y018595D02*
X016621Y018595D01*
X017223Y018551D02*
X017563Y018551D01*
X017563Y018721D01*
X017506Y018778D01*
X017393Y018778D01*
X017336Y018721D01*
X017336Y018551D01*
X017336Y018665D02*
X017223Y018778D01*
X017279Y018920D02*
X017223Y018976D01*
X017223Y019090D01*
X017279Y019146D01*
X017336Y019146D01*
X017393Y019090D01*
X017393Y018920D01*
X017279Y018920D01*
X017393Y018920D02*
X017506Y019033D01*
X017563Y019146D01*
X018306Y019825D02*
X018306Y019882D01*
X018079Y020109D01*
X018079Y020166D01*
X018306Y020166D01*
X018447Y020109D02*
X018447Y019995D01*
X018504Y019939D01*
X018674Y019939D01*
X018561Y019939D02*
X018447Y019825D01*
X018674Y019825D02*
X018674Y020166D01*
X018504Y020166D01*
X018447Y020109D01*
X014443Y015566D02*
X014500Y015509D01*
X014500Y015282D01*
X014443Y015225D01*
X014330Y015225D01*
X014273Y015282D01*
X014132Y015225D02*
X013905Y015452D01*
X013905Y015509D01*
X013962Y015566D01*
X014075Y015566D01*
X014132Y015509D01*
X014273Y015509D02*
X014330Y015566D01*
X014443Y015566D01*
X014132Y015225D02*
X013905Y015225D01*
X013764Y015282D02*
X013707Y015225D01*
X013593Y015225D01*
X013537Y015282D01*
X013537Y015395D01*
X013593Y015452D01*
X013650Y015452D01*
X013764Y015395D01*
X013764Y015566D01*
X013537Y015566D01*
X013637Y014771D02*
X013694Y014771D01*
X013750Y014715D01*
X013750Y014601D01*
X013694Y014545D01*
X013694Y014403D02*
X013637Y014403D01*
X013580Y014346D01*
X013524Y014403D01*
X013467Y014403D01*
X013410Y014346D01*
X013410Y014233D01*
X013467Y014176D01*
X013467Y014035D02*
X013410Y013978D01*
X013410Y013865D01*
X013467Y013808D01*
X013694Y013808D01*
X013750Y013865D01*
X013750Y013978D01*
X013694Y014035D01*
X013694Y014176D02*
X013750Y014233D01*
X013750Y014346D01*
X013694Y014403D01*
X013580Y014346D02*
X013580Y014290D01*
X013410Y014545D02*
X013637Y014771D01*
X013410Y014771D02*
X013410Y014545D01*
X012756Y015620D02*
X012529Y015620D01*
X012473Y015677D01*
X012473Y015791D01*
X012529Y015847D01*
X012473Y015989D02*
X012473Y016216D01*
X012473Y016102D02*
X012813Y016102D01*
X012699Y015989D01*
X012756Y015847D02*
X012813Y015791D01*
X012813Y015677D01*
X012756Y015620D01*
X012643Y016357D02*
X012643Y016527D01*
X012586Y016584D01*
X012529Y016584D01*
X012473Y016527D01*
X012473Y016414D01*
X012529Y016357D01*
X012643Y016357D01*
X012756Y016470D01*
X012813Y016584D01*
X012531Y017850D02*
X012304Y017850D01*
X012248Y017907D01*
X012248Y018020D01*
X012304Y018077D01*
X012248Y018219D02*
X012248Y018445D01*
X012248Y018332D02*
X012588Y018332D01*
X012474Y018219D01*
X012531Y018077D02*
X012588Y018020D01*
X012588Y017907D01*
X012531Y017850D01*
X012588Y018587D02*
X012418Y018587D01*
X012474Y018700D01*
X012474Y018757D01*
X012418Y018814D01*
X012304Y018814D01*
X012248Y018757D01*
X012248Y018644D01*
X012304Y018587D01*
X012588Y018587D02*
X012588Y018814D01*
X013037Y019446D02*
X013264Y019219D01*
X013264Y019163D01*
X013405Y019163D02*
X013632Y019163D01*
X013518Y019163D02*
X013518Y019503D01*
X013632Y019390D01*
X013773Y019446D02*
X013830Y019503D01*
X013943Y019503D01*
X014000Y019446D01*
X014000Y019219D01*
X013943Y019163D01*
X013830Y019163D01*
X013773Y019219D01*
X013264Y019503D02*
X013037Y019503D01*
X013037Y019446D01*
X009959Y019453D02*
X009845Y019453D01*
X009902Y019453D02*
X009902Y019113D01*
X009959Y019113D02*
X009845Y019113D01*
X009713Y019169D02*
X009656Y019113D01*
X009543Y019113D01*
X009486Y019169D01*
X009345Y019113D02*
X009118Y019340D01*
X009118Y019396D01*
X009175Y019453D01*
X009288Y019453D01*
X009345Y019396D01*
X009486Y019396D02*
X009543Y019453D01*
X009656Y019453D01*
X009713Y019396D01*
X009713Y019169D01*
X009345Y019113D02*
X009118Y019113D01*
X008168Y018546D02*
X008168Y018320D01*
X008111Y018263D01*
X007997Y018263D01*
X007941Y018320D01*
X007799Y018263D02*
X007572Y018263D01*
X007686Y018263D02*
X007686Y018603D01*
X007799Y018490D01*
X007941Y018546D02*
X007997Y018603D01*
X008111Y018603D01*
X008168Y018546D01*
X007431Y018433D02*
X007204Y018433D01*
X007261Y018263D02*
X007261Y018603D01*
X007431Y018433D01*
X007125Y017220D02*
X006785Y017220D01*
X006785Y017107D02*
X006785Y017334D01*
X007012Y017107D02*
X007125Y017220D01*
X006785Y016966D02*
X006785Y016739D01*
X006785Y016852D02*
X007125Y016852D01*
X007012Y016739D01*
X007069Y016597D02*
X007125Y016541D01*
X007125Y016427D01*
X007069Y016370D01*
X006842Y016370D01*
X006785Y016427D01*
X006785Y016541D01*
X006842Y016597D01*
X006150Y016645D02*
X006150Y016532D01*
X006094Y016475D01*
X005867Y016475D01*
X005810Y016532D01*
X005810Y016645D01*
X005867Y016702D01*
X005810Y016844D02*
X005810Y017071D01*
X005810Y016957D02*
X006150Y016957D01*
X006037Y016844D01*
X006094Y016702D02*
X006150Y016645D01*
X006094Y017212D02*
X005867Y017212D01*
X006094Y017439D01*
X005867Y017439D01*
X005810Y017382D01*
X005810Y017269D01*
X005867Y017212D01*
X006094Y017212D02*
X006150Y017269D01*
X006150Y017382D01*
X006094Y017439D01*
X007029Y015209D02*
X006973Y015152D01*
X006973Y015039D01*
X007029Y014982D01*
X007029Y014841D02*
X006973Y014784D01*
X006973Y014670D01*
X007029Y014614D01*
X007256Y014614D01*
X007313Y014670D01*
X007313Y014784D01*
X007256Y014841D01*
X007256Y014982D02*
X007313Y015039D01*
X007313Y015152D01*
X007256Y015209D01*
X007199Y015209D01*
X007143Y015152D01*
X007086Y015209D01*
X007029Y015209D01*
X007143Y015152D02*
X007143Y015095D01*
X007473Y015039D02*
X007529Y014982D01*
X007473Y015039D02*
X007473Y015152D01*
X007529Y015209D01*
X007756Y015209D01*
X007813Y015152D01*
X007813Y015039D01*
X007756Y014982D01*
X007699Y014982D01*
X007643Y015039D01*
X007643Y015209D01*
X007756Y014841D02*
X007813Y014784D01*
X007813Y014670D01*
X007756Y014614D01*
X007529Y014614D01*
X007473Y014670D01*
X007473Y014784D01*
X007529Y014841D01*
X008473Y014666D02*
X008529Y014722D01*
X008473Y014666D02*
X008473Y014552D01*
X008529Y014495D01*
X008756Y014495D01*
X008813Y014552D01*
X008813Y014666D01*
X008756Y014722D01*
X008643Y014864D02*
X008643Y015091D01*
X008473Y015034D02*
X008813Y015034D01*
X008643Y014864D01*
X008756Y015232D02*
X008813Y015289D01*
X008813Y015402D01*
X008756Y015459D01*
X008699Y015459D01*
X008473Y015232D01*
X008473Y015459D01*
X008337Y013503D02*
X008507Y013333D01*
X008280Y013333D01*
X008337Y013163D02*
X008337Y013503D01*
X008139Y013446D02*
X008082Y013503D01*
X007968Y013503D01*
X007912Y013446D01*
X007912Y013390D01*
X007968Y013333D01*
X007912Y013276D01*
X007912Y013220D01*
X007968Y013163D01*
X008082Y013163D01*
X008139Y013220D01*
X008025Y013333D02*
X007968Y013333D01*
X008648Y013220D02*
X008705Y013163D01*
X008818Y013163D01*
X008875Y013220D01*
X008875Y013446D01*
X008818Y013503D01*
X008705Y013503D01*
X008648Y013446D01*
X009280Y012503D02*
X009393Y012446D01*
X009507Y012333D01*
X009337Y012333D01*
X009280Y012276D01*
X009280Y012219D01*
X009337Y012163D01*
X009450Y012163D01*
X009507Y012219D01*
X009507Y012333D01*
X009648Y012446D02*
X009705Y012503D01*
X009818Y012503D01*
X009875Y012446D01*
X009875Y012219D01*
X009818Y012163D01*
X009705Y012163D01*
X009648Y012219D01*
X009705Y011941D02*
X009818Y011941D01*
X009875Y011884D01*
X009875Y011657D01*
X009818Y011600D01*
X009705Y011600D01*
X009648Y011657D01*
X009507Y011657D02*
X009450Y011600D01*
X009337Y011600D01*
X009280Y011657D01*
X009280Y011770D01*
X009337Y011827D01*
X009393Y011827D01*
X009507Y011770D01*
X009507Y011941D01*
X009280Y011941D01*
X009648Y011884D02*
X009705Y011941D01*
X008563Y010303D02*
X008563Y010019D01*
X008506Y009963D01*
X008392Y009963D01*
X008336Y010019D01*
X008336Y010303D01*
X008194Y010190D02*
X008081Y010303D01*
X008081Y009963D01*
X008194Y009963D02*
X007967Y009963D01*
X007844Y010288D02*
X007617Y010288D01*
X007560Y010345D01*
X007560Y010458D01*
X007617Y010515D01*
X007617Y010656D02*
X007560Y010656D01*
X007617Y010656D02*
X007844Y010883D01*
X007900Y010883D01*
X007900Y010656D01*
X007844Y010515D02*
X007900Y010458D01*
X007900Y010345D01*
X007844Y010288D01*
X007438Y010413D02*
X007438Y010753D01*
X007267Y010753D01*
X007211Y010696D01*
X007211Y010470D01*
X007267Y010413D01*
X007438Y010413D01*
X007069Y010413D02*
X006842Y010413D01*
X006956Y010413D02*
X006956Y010753D01*
X007069Y010640D01*
X006715Y010885D02*
X006715Y011205D01*
X006495Y011205D01*
X005815Y011205D02*
X005595Y011205D01*
X005595Y010885D01*
X005506Y011739D02*
X005279Y011739D01*
X005223Y011795D01*
X005223Y011909D01*
X005279Y011966D01*
X005279Y012107D02*
X005336Y012107D01*
X005393Y012164D01*
X005393Y012277D01*
X005336Y012334D01*
X005279Y012334D01*
X005223Y012277D01*
X005223Y012164D01*
X005279Y012107D01*
X005393Y012164D02*
X005449Y012107D01*
X005506Y012107D01*
X005563Y012164D01*
X005563Y012277D01*
X005506Y012334D01*
X005449Y012334D01*
X005393Y012277D01*
X005506Y011966D02*
X005563Y011909D01*
X005563Y011795D01*
X005506Y011739D01*
X005823Y012638D02*
X005823Y012978D01*
X005993Y012808D01*
X005767Y012808D01*
X006135Y012921D02*
X006192Y012978D01*
X006305Y012978D01*
X006362Y012921D01*
X006362Y012695D01*
X006305Y012638D01*
X006192Y012638D01*
X006135Y012695D01*
X006462Y010128D02*
X006405Y010071D01*
X006405Y010015D01*
X006462Y009958D01*
X006575Y009958D01*
X006632Y010015D01*
X006632Y010071D01*
X006575Y010128D01*
X006462Y010128D01*
X006462Y009958D02*
X006405Y009901D01*
X006405Y009844D01*
X006462Y009788D01*
X006575Y009788D01*
X006632Y009844D01*
X006632Y009901D01*
X006575Y009958D01*
X006773Y009958D02*
X006773Y010071D01*
X006830Y010128D01*
X007000Y010128D01*
X007000Y009788D01*
X007000Y009901D02*
X006830Y009901D01*
X006773Y009958D01*
X006887Y009901D02*
X006773Y009788D01*
X006687Y007478D02*
X006573Y007478D01*
X006517Y007421D01*
X006743Y007195D01*
X006687Y007138D01*
X006573Y007138D01*
X006517Y007195D01*
X006517Y007421D01*
X006687Y007478D02*
X006743Y007421D01*
X006743Y007195D01*
X006885Y007138D02*
X007112Y007138D01*
X006998Y007138D02*
X006998Y007478D01*
X007112Y007365D01*
X007253Y007421D02*
X007253Y007308D01*
X007310Y007251D01*
X007480Y007251D01*
X007480Y007138D02*
X007480Y007478D01*
X007310Y007478D01*
X007253Y007421D01*
X007367Y007251D02*
X007253Y007138D01*
X008030Y007150D02*
X008257Y007150D01*
X008030Y007377D01*
X008030Y007434D01*
X008087Y007491D01*
X008200Y007491D01*
X008257Y007434D01*
X008398Y007491D02*
X008398Y007207D01*
X008455Y007150D01*
X008568Y007150D01*
X008625Y007207D01*
X008625Y007491D01*
X009748Y007507D02*
X009804Y007564D01*
X010031Y007564D01*
X010088Y007507D01*
X010088Y007394D01*
X010031Y007337D01*
X009974Y007337D01*
X009918Y007394D01*
X009918Y007564D01*
X009748Y007507D02*
X009748Y007394D01*
X009804Y007337D01*
X009748Y007195D02*
X009748Y006969D01*
X009748Y007082D02*
X010088Y007082D01*
X009974Y006969D01*
X010031Y006827D02*
X010088Y006770D01*
X010088Y006657D01*
X010031Y006600D01*
X009804Y006600D01*
X009748Y006657D01*
X009748Y006770D01*
X009804Y006827D01*
X010992Y005383D02*
X010935Y005326D01*
X010935Y005213D01*
X010992Y005156D01*
X011105Y005156D02*
X011162Y005270D01*
X011162Y005326D01*
X011105Y005383D01*
X010992Y005383D01*
X011105Y005156D02*
X011275Y005156D01*
X011275Y005383D01*
X011219Y005015D02*
X011105Y005015D01*
X011049Y004958D01*
X011049Y004788D01*
X011049Y004901D02*
X010935Y005015D01*
X010935Y004788D02*
X011275Y004788D01*
X011275Y004958D01*
X011219Y005015D01*
X011712Y004191D02*
X011655Y004134D01*
X011655Y004077D01*
X011712Y004020D01*
X011655Y003964D01*
X011655Y003907D01*
X011712Y003850D01*
X011825Y003850D01*
X011882Y003907D01*
X012023Y003907D02*
X012023Y004134D01*
X012080Y004191D01*
X012250Y004191D01*
X012250Y003850D01*
X012080Y003850D01*
X012023Y003907D01*
X011882Y004134D02*
X011825Y004191D01*
X011712Y004191D01*
X011712Y004020D02*
X011768Y004020D01*
X012345Y003630D02*
X012665Y003630D01*
X012665Y003410D01*
X013160Y002902D02*
X013217Y002959D01*
X013444Y002959D01*
X013500Y002902D01*
X013500Y002789D01*
X013444Y002732D01*
X013387Y002732D01*
X013330Y002789D01*
X013330Y002959D01*
X013160Y002902D02*
X013160Y002789D01*
X013217Y002732D01*
X013217Y002591D02*
X013160Y002534D01*
X013160Y002420D01*
X013217Y002364D01*
X013217Y002222D02*
X013160Y002166D01*
X013160Y002052D01*
X013217Y001995D01*
X013444Y001995D01*
X013500Y002052D01*
X013500Y002166D01*
X013444Y002222D01*
X013444Y002364D02*
X013500Y002420D01*
X013500Y002534D01*
X013444Y002591D01*
X013387Y002591D01*
X013330Y002534D01*
X013274Y002591D01*
X013217Y002591D01*
X013330Y002534D02*
X013330Y002477D01*
X012665Y002510D02*
X012665Y002730D01*
X012665Y002510D02*
X012345Y002510D01*
X013842Y001871D02*
X014068Y001871D01*
X014068Y001700D01*
X013955Y001757D01*
X013898Y001757D01*
X013842Y001700D01*
X013842Y001587D01*
X013898Y001530D01*
X014012Y001530D01*
X014068Y001587D01*
X014210Y001587D02*
X014267Y001530D01*
X014380Y001530D01*
X014437Y001587D01*
X014437Y001814D01*
X014380Y001871D01*
X014267Y001871D01*
X014210Y001814D01*
X014569Y001871D02*
X014682Y001871D01*
X014626Y001871D02*
X014626Y001530D01*
X014682Y001530D02*
X014569Y001530D01*
X017645Y002260D02*
X017645Y002480D01*
X017645Y002260D02*
X017965Y002260D01*
X017894Y002066D02*
X017781Y002066D01*
X017724Y002009D01*
X017724Y001952D01*
X017781Y001895D01*
X017894Y001895D01*
X017951Y001952D01*
X017951Y002009D01*
X017894Y002066D01*
X017894Y001895D02*
X017951Y001839D01*
X017951Y001782D01*
X017894Y001725D01*
X017781Y001725D01*
X017724Y001782D01*
X017724Y001839D01*
X017781Y001895D01*
X018092Y001839D02*
X018092Y001782D01*
X018149Y001725D01*
X018263Y001725D01*
X018319Y001782D01*
X018461Y001782D02*
X018518Y001725D01*
X018631Y001725D01*
X018688Y001782D01*
X018688Y002009D01*
X018631Y002066D01*
X018518Y002066D01*
X018461Y002009D01*
X018319Y002009D02*
X018263Y002066D01*
X018149Y002066D01*
X018092Y002009D01*
X018092Y001952D01*
X018149Y001895D01*
X018092Y001839D01*
X018149Y001895D02*
X018206Y001895D01*
X017645Y003160D02*
X017645Y003380D01*
X017965Y003380D01*
X018373Y003600D02*
X018373Y003770D01*
X018429Y003827D01*
X018656Y003827D01*
X018713Y003770D01*
X018713Y003600D01*
X018373Y003600D01*
X018543Y003969D02*
X018543Y004195D01*
X018373Y004139D02*
X018713Y004139D01*
X018543Y003969D01*
X019723Y005370D02*
X020063Y005370D01*
X020063Y005541D01*
X020006Y005597D01*
X019893Y005597D01*
X019836Y005541D01*
X019836Y005370D01*
X019836Y005484D02*
X019723Y005597D01*
X019779Y005739D02*
X019723Y005795D01*
X019723Y005909D01*
X019779Y005966D01*
X019836Y005966D01*
X019893Y005909D01*
X019893Y005852D01*
X019893Y005909D02*
X019949Y005966D01*
X020006Y005966D01*
X020063Y005909D01*
X020063Y005795D01*
X020006Y005739D01*
X020063Y006107D02*
X019893Y006107D01*
X019949Y006220D01*
X019949Y006277D01*
X019893Y006334D01*
X019779Y006334D01*
X019723Y006277D01*
X019723Y006164D01*
X019779Y006107D01*
X020063Y006107D02*
X020063Y006334D01*
X020063Y006600D02*
X020063Y006941D01*
X019892Y006941D01*
X019836Y006884D01*
X019836Y006770D01*
X019892Y006714D01*
X020063Y006714D01*
X019949Y006714D02*
X019836Y006600D01*
X019694Y006657D02*
X019638Y006600D01*
X019524Y006600D01*
X019467Y006657D01*
X019467Y006714D01*
X019524Y006770D01*
X019581Y006770D01*
X019524Y006770D02*
X019467Y006827D01*
X019467Y006884D01*
X019524Y006941D01*
X019638Y006941D01*
X019694Y006884D01*
X019326Y006770D02*
X019099Y006770D01*
X019156Y006600D02*
X019156Y006941D01*
X019326Y006770D01*
X018605Y006359D02*
X018605Y006132D01*
X018548Y006075D01*
X018435Y006075D01*
X018378Y006132D01*
X018237Y006075D02*
X018010Y006302D01*
X018010Y006359D01*
X018067Y006416D01*
X018180Y006416D01*
X018237Y006359D01*
X018378Y006359D02*
X018435Y006416D01*
X018548Y006416D01*
X018605Y006359D01*
X018237Y006075D02*
X018010Y006075D01*
X017868Y006075D02*
X017642Y006302D01*
X017642Y006359D01*
X017698Y006416D01*
X017812Y006416D01*
X017868Y006359D01*
X017868Y006075D02*
X017642Y006075D01*
X018160Y007120D02*
X018500Y007120D01*
X018500Y007291D01*
X018444Y007347D01*
X018330Y007347D01*
X018274Y007291D01*
X018274Y007120D01*
X018274Y007234D02*
X018160Y007347D01*
X018160Y007489D02*
X018160Y007716D01*
X018160Y007602D02*
X018500Y007602D01*
X018387Y007489D01*
X018444Y007857D02*
X018500Y007914D01*
X018500Y008027D01*
X018444Y008084D01*
X018387Y008084D01*
X018330Y008027D01*
X018274Y008084D01*
X018217Y008084D01*
X018160Y008027D01*
X018160Y007914D01*
X018217Y007857D01*
X018330Y007970D02*
X018330Y008027D01*
X018473Y008558D02*
X018813Y008558D01*
X018813Y008728D01*
X018756Y008785D01*
X018643Y008785D01*
X018586Y008728D01*
X018586Y008558D01*
X018586Y008671D02*
X018473Y008785D01*
X018529Y008926D02*
X018473Y008983D01*
X018473Y009096D01*
X018529Y009153D01*
X018586Y009153D01*
X018643Y009096D01*
X018643Y009040D01*
X018643Y009096D02*
X018699Y009153D01*
X018756Y009153D01*
X018813Y009096D01*
X018813Y008983D01*
X018756Y008926D01*
X018699Y009295D02*
X018813Y009408D01*
X018473Y009408D01*
X018473Y009295D02*
X018473Y009521D01*
X017355Y009166D02*
X017355Y008825D01*
X017355Y008939D02*
X017185Y008939D01*
X017128Y008995D01*
X017128Y009109D01*
X017185Y009166D01*
X017355Y009166D01*
X017242Y008939D02*
X017128Y008825D01*
X016987Y008825D02*
X016760Y008825D01*
X016873Y008825D02*
X016873Y009166D01*
X016987Y009052D01*
X016618Y008995D02*
X016392Y008995D01*
X016448Y008825D02*
X016448Y009166D01*
X016618Y008995D01*
X015813Y008908D02*
X015473Y008908D01*
X015473Y008795D02*
X015473Y009021D01*
X015699Y008795D02*
X015813Y008908D01*
X015756Y008653D02*
X015813Y008596D01*
X015813Y008483D01*
X015756Y008426D01*
X015756Y008285D02*
X015813Y008228D01*
X015813Y008115D01*
X015756Y008058D01*
X015529Y008058D01*
X015473Y008115D01*
X015473Y008228D01*
X015529Y008285D01*
X015473Y008426D02*
X015699Y008653D01*
X015756Y008653D01*
X015473Y008653D02*
X015473Y008426D01*
X015566Y009575D02*
X015679Y009689D01*
X015622Y009689D02*
X015793Y009689D01*
X015793Y009575D02*
X015793Y009916D01*
X015622Y009916D01*
X015566Y009859D01*
X015566Y009745D01*
X015622Y009689D01*
X015424Y009632D02*
X015368Y009575D01*
X015254Y009575D01*
X015197Y009632D01*
X015197Y009689D01*
X015254Y009745D01*
X015311Y009745D01*
X015254Y009745D02*
X015197Y009802D01*
X015197Y009859D01*
X015254Y009916D01*
X015368Y009916D01*
X015424Y009859D01*
X015056Y009859D02*
X015056Y009632D01*
X014829Y009859D01*
X014829Y009632D01*
X014886Y009575D01*
X014999Y009575D01*
X015056Y009632D01*
X015056Y009859D02*
X014999Y009916D01*
X014886Y009916D01*
X014829Y009859D01*
X014298Y011638D02*
X014185Y011638D01*
X014128Y011695D01*
X013987Y011695D02*
X013930Y011638D01*
X013817Y011638D01*
X013760Y011695D01*
X013760Y011751D01*
X013817Y011808D01*
X013873Y011808D01*
X013817Y011808D02*
X013760Y011865D01*
X013760Y011921D01*
X013817Y011978D01*
X013930Y011978D01*
X013987Y011921D01*
X014128Y011921D02*
X014185Y011978D01*
X014298Y011978D01*
X014355Y011921D01*
X014355Y011695D01*
X014298Y011638D01*
X013618Y011638D02*
X013392Y011638D01*
X013505Y011638D02*
X013505Y011978D01*
X013618Y011865D01*
X013313Y011916D02*
X013313Y011802D01*
X013256Y011745D01*
X013029Y011745D01*
X012973Y011802D01*
X012973Y011916D01*
X013029Y011972D01*
X013029Y012114D02*
X012973Y012170D01*
X012973Y012284D01*
X013029Y012341D01*
X013086Y012341D01*
X013143Y012284D01*
X013143Y012227D01*
X013143Y012284D02*
X013199Y012341D01*
X013256Y012341D01*
X013313Y012284D01*
X013313Y012170D01*
X013256Y012114D01*
X013256Y011972D02*
X013313Y011916D01*
X013256Y012482D02*
X013029Y012482D01*
X013256Y012709D01*
X013029Y012709D01*
X012973Y012652D01*
X012973Y012539D01*
X013029Y012482D01*
X013256Y012482D02*
X013313Y012539D01*
X013313Y012652D01*
X013256Y012709D01*
X012813Y012652D02*
X012643Y012482D01*
X012643Y012709D01*
X012473Y012652D02*
X012813Y012652D01*
X012756Y012341D02*
X012699Y012341D01*
X012643Y012284D01*
X012586Y012341D01*
X012529Y012341D01*
X012473Y012284D01*
X012473Y012170D01*
X012529Y012114D01*
X012529Y011972D02*
X012473Y011916D01*
X012473Y011802D01*
X012529Y011745D01*
X012756Y011745D01*
X012813Y011802D01*
X012813Y011916D01*
X012756Y011972D01*
X012756Y012114D02*
X012813Y012170D01*
X012813Y012284D01*
X012756Y012341D01*
X012643Y012284D02*
X012643Y012227D01*
X012319Y013745D02*
X012092Y013745D01*
X012035Y013802D01*
X012035Y013916D01*
X012092Y013972D01*
X012092Y014114D02*
X012035Y014170D01*
X012035Y014284D01*
X012092Y014341D01*
X012149Y014341D01*
X012205Y014284D01*
X012205Y014227D01*
X012205Y014284D02*
X012262Y014341D01*
X012319Y014341D01*
X012375Y014284D01*
X012375Y014170D01*
X012319Y014114D01*
X012319Y013972D02*
X012375Y013916D01*
X012375Y013802D01*
X012319Y013745D01*
X012205Y014482D02*
X012205Y014652D01*
X012149Y014709D01*
X012092Y014709D01*
X012035Y014652D01*
X012035Y014539D01*
X012092Y014482D01*
X012205Y014482D01*
X012319Y014595D01*
X012375Y014709D01*
X014599Y013503D02*
X014826Y013503D01*
X014826Y013333D01*
X014713Y013390D01*
X014656Y013390D01*
X014599Y013333D01*
X014599Y013220D01*
X014656Y013163D01*
X014769Y013163D01*
X014826Y013220D01*
X014967Y013220D02*
X015024Y013163D01*
X015138Y013163D01*
X015194Y013220D01*
X015336Y013220D02*
X015392Y013163D01*
X015506Y013163D01*
X015563Y013220D01*
X015563Y013446D01*
X015506Y013503D01*
X015392Y013503D01*
X015336Y013446D01*
X015194Y013446D02*
X015138Y013503D01*
X015024Y013503D01*
X014967Y013446D01*
X014967Y013390D01*
X015024Y013333D01*
X014967Y013276D01*
X014967Y013220D01*
X015024Y013333D02*
X015081Y013333D01*
X015138Y013066D02*
X015194Y013009D01*
X015138Y013066D02*
X015024Y013066D01*
X014967Y013009D01*
X014967Y012952D01*
X015194Y012725D01*
X014967Y012725D01*
X014826Y012782D02*
X014826Y012839D01*
X014769Y012895D01*
X014656Y012895D01*
X014599Y012839D01*
X014599Y012782D01*
X014656Y012725D01*
X014769Y012725D01*
X014826Y012782D01*
X014769Y012895D02*
X014826Y012952D01*
X014826Y013009D01*
X014769Y013066D01*
X014656Y013066D01*
X014599Y013009D01*
X014599Y012952D01*
X014656Y012895D01*
X015336Y012782D02*
X015393Y012725D01*
X015506Y012725D01*
X015563Y012782D01*
X015563Y013009D01*
X015506Y013066D01*
X015393Y013066D01*
X015336Y013009D01*
X015332Y014038D02*
X015389Y014095D01*
X015332Y014038D02*
X015218Y014038D01*
X015162Y014095D01*
X015162Y014151D01*
X015218Y014208D01*
X015275Y014208D01*
X015218Y014208D02*
X015162Y014265D01*
X015162Y014321D01*
X015218Y014378D01*
X015332Y014378D01*
X015389Y014321D01*
X015530Y014321D02*
X015530Y014265D01*
X015587Y014208D01*
X015530Y014151D01*
X015530Y014095D01*
X015587Y014038D01*
X015700Y014038D01*
X015757Y014095D01*
X015898Y014095D02*
X015955Y014038D01*
X016068Y014038D01*
X016125Y014095D01*
X016125Y014321D01*
X016068Y014378D01*
X015955Y014378D01*
X015898Y014321D01*
X015757Y014321D02*
X015700Y014378D01*
X015587Y014378D01*
X015530Y014321D01*
X015587Y014208D02*
X015643Y014208D01*
X016474Y013634D02*
X016474Y013407D01*
X016531Y013350D01*
X016644Y013350D01*
X016701Y013407D01*
X016644Y013520D02*
X016701Y013577D01*
X016701Y013634D01*
X016644Y013691D01*
X016531Y013691D01*
X016474Y013634D01*
X016474Y013520D02*
X016644Y013520D01*
X016842Y013577D02*
X016842Y013634D01*
X016899Y013691D01*
X017013Y013691D01*
X017069Y013634D01*
X017211Y013634D02*
X017268Y013691D01*
X017381Y013691D01*
X017438Y013634D01*
X017438Y013407D01*
X017381Y013350D01*
X017268Y013350D01*
X017211Y013407D01*
X017069Y013350D02*
X016842Y013577D01*
X016842Y013350D02*
X017069Y013350D01*
X012938Y009095D02*
X012598Y009095D01*
X012598Y008982D02*
X012598Y009209D01*
X012824Y008982D02*
X012938Y009095D01*
X012881Y008841D02*
X012824Y008841D01*
X012598Y008614D01*
X012598Y008841D01*
X012881Y008841D02*
X012938Y008784D01*
X012938Y008670D01*
X012881Y008614D01*
X012881Y008472D02*
X012768Y008472D01*
X012711Y008416D01*
X012711Y008245D01*
X012598Y008245D02*
X012938Y008245D01*
X012938Y008416D01*
X012881Y008472D01*
X012711Y008359D02*
X012598Y008472D01*
X011088Y008657D02*
X011031Y008600D01*
X010804Y008600D01*
X010748Y008657D01*
X010748Y008770D01*
X010804Y008827D01*
X010748Y008969D02*
X010748Y009195D01*
X010804Y009337D02*
X010748Y009394D01*
X010748Y009507D01*
X010804Y009564D01*
X011031Y009564D01*
X010804Y009337D01*
X011031Y009337D01*
X011088Y009394D01*
X011088Y009507D01*
X011031Y009564D01*
X011031Y009195D02*
X011088Y009139D01*
X011088Y009025D01*
X011031Y008969D01*
X011031Y008827D02*
X011088Y008770D01*
X011088Y008657D01*
X010748Y008969D02*
X010974Y009195D01*
X011031Y009195D01*
X013973Y006402D02*
X014029Y006459D01*
X014086Y006459D01*
X014143Y006402D01*
X014143Y006232D01*
X014029Y006232D01*
X013973Y006289D01*
X013973Y006402D01*
X014143Y006232D02*
X014256Y006345D01*
X014313Y006459D01*
X014313Y005977D02*
X013973Y005977D01*
X013973Y005864D02*
X013973Y006091D01*
X014199Y005864D02*
X014313Y005977D01*
X014256Y005722D02*
X014143Y005722D01*
X014086Y005666D01*
X014086Y005495D01*
X013973Y005495D02*
X014313Y005495D01*
X014313Y005666D01*
X014256Y005722D01*
X014086Y005609D02*
X013973Y005722D01*
X015035Y005722D02*
X015149Y005609D01*
X015149Y005666D02*
X015149Y005495D01*
X015035Y005495D02*
X015375Y005495D01*
X015375Y005666D01*
X015319Y005722D01*
X015205Y005722D01*
X015149Y005666D01*
X015262Y005864D02*
X015375Y005977D01*
X015035Y005977D01*
X015035Y005864D02*
X015035Y006091D01*
X015092Y006232D02*
X015035Y006289D01*
X015035Y006402D01*
X015092Y006459D01*
X015205Y006459D01*
X015262Y006402D01*
X015262Y006345D01*
X015205Y006232D01*
X015375Y006232D01*
X015375Y006459D01*
X015998Y006470D02*
X015998Y006583D01*
X016054Y006640D01*
X015998Y006470D02*
X016054Y006413D01*
X016281Y006413D01*
X016338Y006470D01*
X016338Y006583D01*
X016281Y006640D01*
X016168Y006781D02*
X016168Y007008D01*
X016338Y006951D02*
X016168Y006781D01*
X015998Y006951D02*
X016338Y006951D01*
X016281Y007149D02*
X016054Y007149D01*
X016281Y007376D01*
X016054Y007376D01*
X015998Y007320D01*
X015998Y007206D01*
X016054Y007149D01*
X016281Y007149D02*
X016338Y007206D01*
X016338Y007320D01*
X016281Y007376D01*
X016060Y006189D02*
X016060Y005962D01*
X016060Y006075D02*
X016400Y006075D01*
X016287Y005962D01*
X016230Y005820D02*
X016230Y005594D01*
X016400Y005764D01*
X016060Y005764D01*
X016117Y005452D02*
X016060Y005395D01*
X016060Y005282D01*
X016117Y005225D01*
X016344Y005225D01*
X016400Y005282D01*
X016400Y005395D01*
X016344Y005452D01*
X008688Y004402D02*
X008688Y004289D01*
X008631Y004232D01*
X008631Y004091D02*
X008688Y004034D01*
X008688Y003864D01*
X008348Y003864D01*
X008348Y004034D01*
X008404Y004091D01*
X008631Y004091D01*
X008688Y004402D02*
X008631Y004459D01*
X008574Y004459D01*
X008348Y004232D01*
X008348Y004459D01*
X007528Y004755D02*
X007208Y004755D01*
X007208Y004535D01*
X007208Y003855D02*
X007208Y003635D01*
X007528Y003635D01*
X002796Y019645D02*
X002740Y019645D01*
X002683Y019702D01*
X002683Y019985D01*
X002740Y019985D02*
X002626Y019985D01*
X002485Y019815D02*
X002258Y019815D01*
X002315Y019645D02*
X002315Y019985D01*
X002485Y019815D01*
X002796Y019645D02*
X002853Y019702D01*
D17*
X005101Y018514D02*
X005101Y018248D01*
X005101Y018381D02*
X005501Y018381D01*
X005368Y018248D01*
X001826Y003973D02*
X001893Y003906D01*
X001893Y003773D01*
X001826Y003706D01*
X001826Y003513D02*
X001759Y003513D01*
X001693Y003446D01*
X001626Y003513D01*
X001559Y003513D01*
X001493Y003446D01*
X001493Y003312D01*
X001559Y003246D01*
X001693Y003379D02*
X001693Y003446D01*
X001826Y003513D02*
X001893Y003446D01*
X001893Y003312D01*
X001826Y003246D01*
X001893Y002919D02*
X001493Y002919D01*
X001493Y003052D02*
X001493Y002785D01*
X001759Y002785D02*
X001893Y002919D01*
X001493Y003706D02*
X001759Y003973D01*
X001826Y003973D01*
X001493Y003973D02*
X001493Y003706D01*
D18*
X004757Y019266D02*
X004561Y019463D01*
M02*
