G75*
G70*
%OFA0B0*%
%FSLAX24Y24*%
%IPPOS*%
%LPD*%
%AMOC8*
5,1,8,0,0,1.08239X$1,22.5*
%
%ADD10C,0.0000*%
%ADD11C,0.0060*%
%ADD12C,0.0110*%
%ADD13C,0.0080*%
%ADD14C,0.0100*%
%ADD15R,0.0472X0.0079*%
%ADD16R,0.0079X0.0472*%
%ADD17R,0.0059X0.0118*%
%ADD18R,0.0118X0.0118*%
%ADD19R,0.0098X0.0098*%
%ADD20C,0.0079*%
%ADD21R,1.2200X0.0200*%
%ADD22C,0.0040*%
%ADD23C,0.0050*%
%ADD24R,0.0276X0.0118*%
%ADD25C,0.0028*%
%ADD26R,0.0787X0.0236*%
%ADD27R,0.0350X0.2000*%
%ADD28R,0.0150X0.0150*%
D10*
X000655Y001320D02*
X000655Y021005D01*
X020340Y021005D01*
X020340Y001320D01*
X000655Y001320D01*
X000945Y002161D02*
X000947Y002208D01*
X000953Y002254D01*
X000963Y002300D01*
X000976Y002345D01*
X000994Y002388D01*
X001015Y002430D01*
X001039Y002470D01*
X001067Y002507D01*
X001098Y002542D01*
X001132Y002575D01*
X001168Y002604D01*
X001207Y002630D01*
X001248Y002653D01*
X001291Y002672D01*
X001335Y002688D01*
X001380Y002700D01*
X001426Y002708D01*
X001473Y002712D01*
X001519Y002712D01*
X001566Y002708D01*
X001612Y002700D01*
X001657Y002688D01*
X001701Y002672D01*
X001744Y002653D01*
X001785Y002630D01*
X001824Y002604D01*
X001860Y002575D01*
X001894Y002542D01*
X001925Y002507D01*
X001953Y002470D01*
X001977Y002430D01*
X001998Y002388D01*
X002016Y002345D01*
X002029Y002300D01*
X002039Y002254D01*
X002045Y002208D01*
X002047Y002161D01*
X002045Y002114D01*
X002039Y002068D01*
X002029Y002022D01*
X002016Y001977D01*
X001998Y001934D01*
X001977Y001892D01*
X001953Y001852D01*
X001925Y001815D01*
X001894Y001780D01*
X001860Y001747D01*
X001824Y001718D01*
X001785Y001692D01*
X001744Y001669D01*
X001701Y001650D01*
X001657Y001634D01*
X001612Y001622D01*
X001566Y001614D01*
X001519Y001610D01*
X001473Y001610D01*
X001426Y001614D01*
X001380Y001622D01*
X001335Y001634D01*
X001291Y001650D01*
X001248Y001669D01*
X001207Y001692D01*
X001168Y001718D01*
X001132Y001747D01*
X001098Y001780D01*
X001067Y001815D01*
X001039Y001852D01*
X001015Y001892D01*
X000994Y001934D01*
X000976Y001977D01*
X000963Y002022D01*
X000953Y002068D01*
X000947Y002114D01*
X000945Y002161D01*
X003419Y003636D02*
X003421Y003666D01*
X003427Y003696D01*
X003436Y003725D01*
X003449Y003752D01*
X003466Y003777D01*
X003485Y003800D01*
X003508Y003821D01*
X003533Y003838D01*
X003559Y003852D01*
X003588Y003862D01*
X003617Y003869D01*
X003647Y003872D01*
X003678Y003871D01*
X003708Y003866D01*
X003737Y003857D01*
X003764Y003845D01*
X003790Y003830D01*
X003814Y003811D01*
X003835Y003789D01*
X003853Y003765D01*
X003868Y003738D01*
X003879Y003710D01*
X003887Y003681D01*
X003891Y003651D01*
X003891Y003621D01*
X003887Y003591D01*
X003879Y003562D01*
X003868Y003534D01*
X003853Y003507D01*
X003835Y003483D01*
X003814Y003461D01*
X003790Y003442D01*
X003764Y003427D01*
X003737Y003415D01*
X003708Y003406D01*
X003678Y003401D01*
X003647Y003400D01*
X003617Y003403D01*
X003588Y003410D01*
X003559Y003420D01*
X003533Y003434D01*
X003508Y003451D01*
X003485Y003472D01*
X003466Y003495D01*
X003449Y003520D01*
X003436Y003547D01*
X003427Y003576D01*
X003421Y003606D01*
X003419Y003636D01*
X005472Y004198D02*
X005474Y004239D01*
X005480Y004280D01*
X005490Y004320D01*
X005503Y004359D01*
X005520Y004396D01*
X005541Y004432D01*
X005565Y004466D01*
X005592Y004497D01*
X005621Y004525D01*
X005654Y004551D01*
X005688Y004573D01*
X005725Y004592D01*
X005763Y004607D01*
X005803Y004619D01*
X005843Y004627D01*
X005884Y004631D01*
X005926Y004631D01*
X005967Y004627D01*
X006007Y004619D01*
X006047Y004607D01*
X006085Y004592D01*
X006121Y004573D01*
X006156Y004551D01*
X006189Y004525D01*
X006218Y004497D01*
X006245Y004466D01*
X006269Y004432D01*
X006290Y004396D01*
X006307Y004359D01*
X006320Y004320D01*
X006330Y004280D01*
X006336Y004239D01*
X006338Y004198D01*
X006336Y004157D01*
X006330Y004116D01*
X006320Y004076D01*
X006307Y004037D01*
X006290Y004000D01*
X006269Y003964D01*
X006245Y003930D01*
X006218Y003899D01*
X006189Y003871D01*
X006156Y003845D01*
X006122Y003823D01*
X006085Y003804D01*
X006047Y003789D01*
X006007Y003777D01*
X005967Y003769D01*
X005926Y003765D01*
X005884Y003765D01*
X005843Y003769D01*
X005803Y003777D01*
X005763Y003789D01*
X005725Y003804D01*
X005689Y003823D01*
X005654Y003845D01*
X005621Y003871D01*
X005592Y003899D01*
X005565Y003930D01*
X005541Y003964D01*
X005520Y004000D01*
X005503Y004037D01*
X005490Y004076D01*
X005480Y004116D01*
X005474Y004157D01*
X005472Y004198D01*
X009472Y004198D02*
X009474Y004239D01*
X009480Y004280D01*
X009490Y004320D01*
X009503Y004359D01*
X009520Y004396D01*
X009541Y004432D01*
X009565Y004466D01*
X009592Y004497D01*
X009621Y004525D01*
X009654Y004551D01*
X009688Y004573D01*
X009725Y004592D01*
X009763Y004607D01*
X009803Y004619D01*
X009843Y004627D01*
X009884Y004631D01*
X009926Y004631D01*
X009967Y004627D01*
X010007Y004619D01*
X010047Y004607D01*
X010085Y004592D01*
X010121Y004573D01*
X010156Y004551D01*
X010189Y004525D01*
X010218Y004497D01*
X010245Y004466D01*
X010269Y004432D01*
X010290Y004396D01*
X010307Y004359D01*
X010320Y004320D01*
X010330Y004280D01*
X010336Y004239D01*
X010338Y004198D01*
X010336Y004157D01*
X010330Y004116D01*
X010320Y004076D01*
X010307Y004037D01*
X010290Y004000D01*
X010269Y003964D01*
X010245Y003930D01*
X010218Y003899D01*
X010189Y003871D01*
X010156Y003845D01*
X010122Y003823D01*
X010085Y003804D01*
X010047Y003789D01*
X010007Y003777D01*
X009967Y003769D01*
X009926Y003765D01*
X009884Y003765D01*
X009843Y003769D01*
X009803Y003777D01*
X009763Y003789D01*
X009725Y003804D01*
X009689Y003823D01*
X009654Y003845D01*
X009621Y003871D01*
X009592Y003899D01*
X009565Y003930D01*
X009541Y003964D01*
X009520Y004000D01*
X009503Y004037D01*
X009490Y004076D01*
X009480Y004116D01*
X009474Y004157D01*
X009472Y004198D01*
X012515Y004370D02*
X012517Y004420D01*
X012523Y004470D01*
X012533Y004519D01*
X012546Y004568D01*
X012564Y004615D01*
X012585Y004661D01*
X012609Y004704D01*
X012637Y004746D01*
X012668Y004786D01*
X012702Y004823D01*
X012739Y004857D01*
X012779Y004888D01*
X012821Y004916D01*
X012864Y004940D01*
X012910Y004961D01*
X012957Y004979D01*
X013006Y004992D01*
X013055Y005002D01*
X013105Y005008D01*
X013155Y005010D01*
X013205Y005008D01*
X013255Y005002D01*
X013304Y004992D01*
X013353Y004979D01*
X013400Y004961D01*
X013446Y004940D01*
X013489Y004916D01*
X013531Y004888D01*
X013571Y004857D01*
X013608Y004823D01*
X013642Y004786D01*
X013673Y004746D01*
X013701Y004704D01*
X013725Y004661D01*
X013746Y004615D01*
X013764Y004568D01*
X013777Y004519D01*
X013787Y004470D01*
X013793Y004420D01*
X013795Y004370D01*
X013793Y004320D01*
X013787Y004270D01*
X013777Y004221D01*
X013764Y004172D01*
X013746Y004125D01*
X013725Y004079D01*
X013701Y004036D01*
X013673Y003994D01*
X013642Y003954D01*
X013608Y003917D01*
X013571Y003883D01*
X013531Y003852D01*
X013489Y003824D01*
X013446Y003800D01*
X013400Y003779D01*
X013353Y003761D01*
X013304Y003748D01*
X013255Y003738D01*
X013205Y003732D01*
X013155Y003730D01*
X013105Y003732D01*
X013055Y003738D01*
X013006Y003748D01*
X012957Y003761D01*
X012910Y003779D01*
X012864Y003800D01*
X012821Y003824D01*
X012779Y003852D01*
X012739Y003883D01*
X012702Y003917D01*
X012668Y003954D01*
X012637Y003994D01*
X012609Y004036D01*
X012585Y004079D01*
X012564Y004125D01*
X012546Y004172D01*
X012533Y004221D01*
X012523Y004270D01*
X012517Y004320D01*
X012515Y004370D01*
X017015Y004370D02*
X017017Y004420D01*
X017023Y004470D01*
X017033Y004519D01*
X017046Y004568D01*
X017064Y004615D01*
X017085Y004661D01*
X017109Y004704D01*
X017137Y004746D01*
X017168Y004786D01*
X017202Y004823D01*
X017239Y004857D01*
X017279Y004888D01*
X017321Y004916D01*
X017364Y004940D01*
X017410Y004961D01*
X017457Y004979D01*
X017506Y004992D01*
X017555Y005002D01*
X017605Y005008D01*
X017655Y005010D01*
X017705Y005008D01*
X017755Y005002D01*
X017804Y004992D01*
X017853Y004979D01*
X017900Y004961D01*
X017946Y004940D01*
X017989Y004916D01*
X018031Y004888D01*
X018071Y004857D01*
X018108Y004823D01*
X018142Y004786D01*
X018173Y004746D01*
X018201Y004704D01*
X018225Y004661D01*
X018246Y004615D01*
X018264Y004568D01*
X018277Y004519D01*
X018287Y004470D01*
X018293Y004420D01*
X018295Y004370D01*
X018293Y004320D01*
X018287Y004270D01*
X018277Y004221D01*
X018264Y004172D01*
X018246Y004125D01*
X018225Y004079D01*
X018201Y004036D01*
X018173Y003994D01*
X018142Y003954D01*
X018108Y003917D01*
X018071Y003883D01*
X018031Y003852D01*
X017989Y003824D01*
X017946Y003800D01*
X017900Y003779D01*
X017853Y003761D01*
X017804Y003748D01*
X017755Y003738D01*
X017705Y003732D01*
X017655Y003730D01*
X017605Y003732D01*
X017555Y003738D01*
X017506Y003748D01*
X017457Y003761D01*
X017410Y003779D01*
X017364Y003800D01*
X017321Y003824D01*
X017279Y003852D01*
X017239Y003883D01*
X017202Y003917D01*
X017168Y003954D01*
X017137Y003994D01*
X017109Y004036D01*
X017085Y004079D01*
X017064Y004125D01*
X017046Y004172D01*
X017033Y004221D01*
X017023Y004270D01*
X017017Y004320D01*
X017015Y004370D01*
X018949Y002161D02*
X018951Y002208D01*
X018957Y002254D01*
X018967Y002300D01*
X018980Y002345D01*
X018998Y002388D01*
X019019Y002430D01*
X019043Y002470D01*
X019071Y002507D01*
X019102Y002542D01*
X019136Y002575D01*
X019172Y002604D01*
X019211Y002630D01*
X019252Y002653D01*
X019295Y002672D01*
X019339Y002688D01*
X019384Y002700D01*
X019430Y002708D01*
X019477Y002712D01*
X019523Y002712D01*
X019570Y002708D01*
X019616Y002700D01*
X019661Y002688D01*
X019705Y002672D01*
X019748Y002653D01*
X019789Y002630D01*
X019828Y002604D01*
X019864Y002575D01*
X019898Y002542D01*
X019929Y002507D01*
X019957Y002470D01*
X019981Y002430D01*
X020002Y002388D01*
X020020Y002345D01*
X020033Y002300D01*
X020043Y002254D01*
X020049Y002208D01*
X020051Y002161D01*
X020049Y002114D01*
X020043Y002068D01*
X020033Y002022D01*
X020020Y001977D01*
X020002Y001934D01*
X019981Y001892D01*
X019957Y001852D01*
X019929Y001815D01*
X019898Y001780D01*
X019864Y001747D01*
X019828Y001718D01*
X019789Y001692D01*
X019748Y001669D01*
X019705Y001650D01*
X019661Y001634D01*
X019616Y001622D01*
X019570Y001614D01*
X019523Y001610D01*
X019477Y001610D01*
X019430Y001614D01*
X019384Y001622D01*
X019339Y001634D01*
X019295Y001650D01*
X019252Y001669D01*
X019211Y001692D01*
X019172Y001718D01*
X019136Y001747D01*
X019102Y001780D01*
X019071Y001815D01*
X019043Y001852D01*
X019019Y001892D01*
X018998Y001934D01*
X018980Y001977D01*
X018967Y002022D01*
X018957Y002068D01*
X018951Y002114D01*
X018949Y002161D01*
X017978Y011756D02*
X017980Y011782D01*
X017986Y011808D01*
X017996Y011833D01*
X018009Y011856D01*
X018025Y011876D01*
X018045Y011894D01*
X018067Y011909D01*
X018090Y011921D01*
X018116Y011929D01*
X018142Y011933D01*
X018168Y011933D01*
X018194Y011929D01*
X018220Y011921D01*
X018244Y011909D01*
X018265Y011894D01*
X018285Y011876D01*
X018301Y011856D01*
X018314Y011833D01*
X018324Y011808D01*
X018330Y011782D01*
X018332Y011756D01*
X018330Y011730D01*
X018324Y011704D01*
X018314Y011679D01*
X018301Y011656D01*
X018285Y011636D01*
X018265Y011618D01*
X018243Y011603D01*
X018220Y011591D01*
X018194Y011583D01*
X018168Y011579D01*
X018142Y011579D01*
X018116Y011583D01*
X018090Y011591D01*
X018066Y011603D01*
X018045Y011618D01*
X018025Y011636D01*
X018009Y011656D01*
X017996Y011679D01*
X017986Y011704D01*
X017980Y011730D01*
X017978Y011756D01*
X017978Y013134D02*
X017980Y013160D01*
X017986Y013186D01*
X017996Y013211D01*
X018009Y013234D01*
X018025Y013254D01*
X018045Y013272D01*
X018067Y013287D01*
X018090Y013299D01*
X018116Y013307D01*
X018142Y013311D01*
X018168Y013311D01*
X018194Y013307D01*
X018220Y013299D01*
X018244Y013287D01*
X018265Y013272D01*
X018285Y013254D01*
X018301Y013234D01*
X018314Y013211D01*
X018324Y013186D01*
X018330Y013160D01*
X018332Y013134D01*
X018330Y013108D01*
X018324Y013082D01*
X018314Y013057D01*
X018301Y013034D01*
X018285Y013014D01*
X018265Y012996D01*
X018243Y012981D01*
X018220Y012969D01*
X018194Y012961D01*
X018168Y012957D01*
X018142Y012957D01*
X018116Y012961D01*
X018090Y012969D01*
X018066Y012981D01*
X018045Y012996D01*
X018025Y013014D01*
X018009Y013034D01*
X017996Y013057D01*
X017986Y013082D01*
X017980Y013108D01*
X017978Y013134D01*
X015590Y013115D02*
X015590Y013005D01*
X015180Y013005D01*
X015180Y013115D01*
X015590Y013115D01*
X015590Y013205D02*
X015590Y013315D01*
X015180Y013315D01*
X015180Y013205D01*
X015590Y013205D01*
X015590Y013395D02*
X015180Y013395D01*
X015180Y013505D01*
X015590Y013505D01*
X015590Y013395D01*
X015590Y013595D02*
X015180Y013595D01*
X015180Y013705D01*
X015590Y013705D01*
X015590Y013595D01*
X015590Y013795D02*
X015590Y013905D01*
X015180Y013905D01*
X015180Y013795D01*
X015590Y013795D01*
X015590Y013985D02*
X015180Y013985D01*
X015180Y014095D01*
X015590Y014095D01*
X015590Y013985D01*
X015590Y014185D02*
X015180Y014185D01*
X015180Y014295D01*
X015590Y014295D01*
X015590Y014185D01*
X015590Y014385D02*
X015180Y014385D01*
X015180Y014495D01*
X015590Y014495D01*
X015590Y014385D01*
X015590Y014575D02*
X015180Y014575D01*
X015180Y014685D01*
X015590Y014685D01*
X015590Y014575D01*
X015590Y014775D02*
X015180Y014775D01*
X015180Y014885D01*
X015590Y014885D01*
X015590Y014775D01*
X015590Y014975D02*
X015590Y015085D01*
X015180Y015085D01*
X015180Y014975D01*
X015590Y014975D01*
X015180Y015345D02*
X012380Y015345D01*
X012380Y012545D01*
X015180Y012545D01*
X015180Y015345D01*
X014920Y015345D02*
X014920Y015755D01*
X014810Y015755D01*
X014810Y015345D01*
X014920Y015345D01*
X014720Y015345D02*
X014720Y015755D01*
X014610Y015755D01*
X014610Y015345D01*
X014720Y015345D01*
X014520Y015345D02*
X014520Y015755D01*
X014410Y015755D01*
X014410Y015345D01*
X014520Y015345D01*
X014330Y015345D02*
X014330Y015755D01*
X014220Y015755D01*
X014220Y015345D01*
X014330Y015345D01*
X014130Y015345D02*
X014130Y015755D01*
X014020Y015755D01*
X014020Y015345D01*
X014130Y015345D01*
X013930Y015345D02*
X013930Y015755D01*
X013820Y015755D01*
X013820Y015345D01*
X013930Y015345D01*
X013740Y015345D02*
X013740Y015755D01*
X013630Y015755D01*
X013630Y015345D01*
X013740Y015345D01*
X013540Y015345D02*
X013540Y015755D01*
X013430Y015755D01*
X013430Y015345D01*
X013540Y015345D01*
X013340Y015345D02*
X013340Y015755D01*
X013230Y015755D01*
X013230Y015345D01*
X013340Y015345D01*
X013150Y015345D02*
X013150Y015755D01*
X013040Y015755D01*
X013040Y015345D01*
X013150Y015345D01*
X012950Y015345D02*
X012950Y015755D01*
X012840Y015755D01*
X012840Y015345D01*
X012880Y015345D01*
X012380Y014845D01*
X012380Y014885D01*
X011970Y014885D01*
X011970Y014775D01*
X012380Y014775D01*
X012380Y014845D01*
X012380Y014975D02*
X011970Y014975D01*
X011970Y015085D01*
X012380Y015085D01*
X012380Y014975D01*
X012380Y014685D02*
X011970Y014685D01*
X011970Y014575D01*
X012380Y014575D01*
X012380Y014685D01*
X012380Y014495D02*
X011970Y014495D01*
X011970Y014385D01*
X012380Y014385D01*
X012380Y014495D01*
X012380Y014295D02*
X011970Y014295D01*
X011970Y014185D01*
X012380Y014185D01*
X012380Y014295D01*
X012380Y014095D02*
X011970Y014095D01*
X011970Y013985D01*
X012380Y013985D01*
X012380Y014095D01*
X012380Y013905D02*
X011970Y013905D01*
X011970Y013795D01*
X012380Y013795D01*
X012380Y013905D01*
X012380Y013705D02*
X011970Y013705D01*
X011970Y013595D01*
X012380Y013595D01*
X012380Y013705D01*
X012380Y013505D02*
X011970Y013505D01*
X011970Y013395D01*
X012380Y013395D01*
X012380Y013505D01*
X012380Y013315D02*
X011970Y013315D01*
X011970Y013205D01*
X012380Y013205D01*
X012380Y013315D01*
X012380Y013115D02*
X011970Y013115D01*
X011970Y013005D01*
X012380Y013005D01*
X012380Y013115D01*
X012380Y012915D02*
X011970Y012915D01*
X011970Y012805D01*
X012380Y012805D01*
X012380Y012915D01*
X012640Y012545D02*
X012640Y012135D01*
X012750Y012135D01*
X012750Y012545D01*
X012640Y012545D01*
X012840Y012545D02*
X012840Y012135D01*
X012950Y012135D01*
X012950Y012545D01*
X012840Y012545D01*
X013040Y012545D02*
X013040Y012135D01*
X013150Y012135D01*
X013150Y012545D01*
X013040Y012545D01*
X013230Y012545D02*
X013230Y012135D01*
X013340Y012135D01*
X013340Y012545D01*
X013230Y012545D01*
X013430Y012545D02*
X013430Y012135D01*
X013540Y012135D01*
X013540Y012545D01*
X013430Y012545D01*
X013630Y012545D02*
X013630Y012135D01*
X013740Y012135D01*
X013740Y012545D01*
X013630Y012545D01*
X013820Y012545D02*
X013820Y012135D01*
X013930Y012135D01*
X013930Y012545D01*
X013820Y012545D01*
X014020Y012545D02*
X014020Y012135D01*
X014130Y012135D01*
X014130Y012545D01*
X014020Y012545D01*
X014220Y012545D02*
X014220Y012135D01*
X014330Y012135D01*
X014330Y012545D01*
X014220Y012545D01*
X014410Y012545D02*
X014410Y012135D01*
X014520Y012135D01*
X014520Y012545D01*
X014410Y012545D01*
X014610Y012545D02*
X014610Y012135D01*
X014720Y012135D01*
X014720Y012545D01*
X014610Y012545D01*
X014810Y012545D02*
X014810Y012135D01*
X014920Y012135D01*
X014920Y012545D01*
X014810Y012545D01*
X015180Y012805D02*
X015180Y012915D01*
X015590Y012915D01*
X015590Y012805D01*
X015180Y012805D01*
X012950Y015345D02*
X012880Y015345D01*
X012750Y015345D02*
X012750Y015755D01*
X012640Y015755D01*
X012640Y015345D01*
X012750Y015345D01*
X014119Y020073D02*
X014121Y020107D01*
X014127Y020141D01*
X014137Y020174D01*
X014150Y020205D01*
X014168Y020235D01*
X014188Y020263D01*
X014212Y020288D01*
X014238Y020310D01*
X014266Y020328D01*
X014297Y020344D01*
X014329Y020356D01*
X014363Y020364D01*
X014397Y020368D01*
X014431Y020368D01*
X014465Y020364D01*
X014499Y020356D01*
X014531Y020344D01*
X014561Y020328D01*
X014590Y020310D01*
X014616Y020288D01*
X014640Y020263D01*
X014660Y020235D01*
X014678Y020205D01*
X014691Y020174D01*
X014701Y020141D01*
X014707Y020107D01*
X014709Y020073D01*
X014707Y020039D01*
X014701Y020005D01*
X014691Y019972D01*
X014678Y019941D01*
X014660Y019911D01*
X014640Y019883D01*
X014616Y019858D01*
X014590Y019836D01*
X014562Y019818D01*
X014531Y019802D01*
X014499Y019790D01*
X014465Y019782D01*
X014431Y019778D01*
X014397Y019778D01*
X014363Y019782D01*
X014329Y019790D01*
X014297Y019802D01*
X014266Y019818D01*
X014238Y019836D01*
X014212Y019858D01*
X014188Y019883D01*
X014168Y019911D01*
X014150Y019941D01*
X014137Y019972D01*
X014127Y020005D01*
X014121Y020039D01*
X014119Y020073D01*
X017978Y017634D02*
X017980Y017660D01*
X017986Y017686D01*
X017996Y017711D01*
X018009Y017734D01*
X018025Y017754D01*
X018045Y017772D01*
X018067Y017787D01*
X018090Y017799D01*
X018116Y017807D01*
X018142Y017811D01*
X018168Y017811D01*
X018194Y017807D01*
X018220Y017799D01*
X018244Y017787D01*
X018265Y017772D01*
X018285Y017754D01*
X018301Y017734D01*
X018314Y017711D01*
X018324Y017686D01*
X018330Y017660D01*
X018332Y017634D01*
X018330Y017608D01*
X018324Y017582D01*
X018314Y017557D01*
X018301Y017534D01*
X018285Y017514D01*
X018265Y017496D01*
X018243Y017481D01*
X018220Y017469D01*
X018194Y017461D01*
X018168Y017457D01*
X018142Y017457D01*
X018116Y017461D01*
X018090Y017469D01*
X018066Y017481D01*
X018045Y017496D01*
X018025Y017514D01*
X018009Y017534D01*
X017996Y017557D01*
X017986Y017582D01*
X017980Y017608D01*
X017978Y017634D01*
X017978Y016256D02*
X017980Y016282D01*
X017986Y016308D01*
X017996Y016333D01*
X018009Y016356D01*
X018025Y016376D01*
X018045Y016394D01*
X018067Y016409D01*
X018090Y016421D01*
X018116Y016429D01*
X018142Y016433D01*
X018168Y016433D01*
X018194Y016429D01*
X018220Y016421D01*
X018244Y016409D01*
X018265Y016394D01*
X018285Y016376D01*
X018301Y016356D01*
X018314Y016333D01*
X018324Y016308D01*
X018330Y016282D01*
X018332Y016256D01*
X018330Y016230D01*
X018324Y016204D01*
X018314Y016179D01*
X018301Y016156D01*
X018285Y016136D01*
X018265Y016118D01*
X018243Y016103D01*
X018220Y016091D01*
X018194Y016083D01*
X018168Y016079D01*
X018142Y016079D01*
X018116Y016083D01*
X018090Y016091D01*
X018066Y016103D01*
X018045Y016118D01*
X018025Y016136D01*
X018009Y016156D01*
X017996Y016179D01*
X017986Y016204D01*
X017980Y016230D01*
X017978Y016256D01*
X018949Y020165D02*
X018951Y020212D01*
X018957Y020258D01*
X018967Y020304D01*
X018980Y020349D01*
X018998Y020392D01*
X019019Y020434D01*
X019043Y020474D01*
X019071Y020511D01*
X019102Y020546D01*
X019136Y020579D01*
X019172Y020608D01*
X019211Y020634D01*
X019252Y020657D01*
X019295Y020676D01*
X019339Y020692D01*
X019384Y020704D01*
X019430Y020712D01*
X019477Y020716D01*
X019523Y020716D01*
X019570Y020712D01*
X019616Y020704D01*
X019661Y020692D01*
X019705Y020676D01*
X019748Y020657D01*
X019789Y020634D01*
X019828Y020608D01*
X019864Y020579D01*
X019898Y020546D01*
X019929Y020511D01*
X019957Y020474D01*
X019981Y020434D01*
X020002Y020392D01*
X020020Y020349D01*
X020033Y020304D01*
X020043Y020258D01*
X020049Y020212D01*
X020051Y020165D01*
X020049Y020118D01*
X020043Y020072D01*
X020033Y020026D01*
X020020Y019981D01*
X020002Y019938D01*
X019981Y019896D01*
X019957Y019856D01*
X019929Y019819D01*
X019898Y019784D01*
X019864Y019751D01*
X019828Y019722D01*
X019789Y019696D01*
X019748Y019673D01*
X019705Y019654D01*
X019661Y019638D01*
X019616Y019626D01*
X019570Y019618D01*
X019523Y019614D01*
X019477Y019614D01*
X019430Y019618D01*
X019384Y019626D01*
X019339Y019638D01*
X019295Y019654D01*
X019252Y019673D01*
X019211Y019696D01*
X019172Y019722D01*
X019136Y019751D01*
X019102Y019784D01*
X019071Y019819D01*
X019043Y019856D01*
X019019Y019896D01*
X018998Y019938D01*
X018980Y019981D01*
X018967Y020026D01*
X018957Y020072D01*
X018951Y020118D01*
X018949Y020165D01*
X007851Y020073D02*
X007853Y020107D01*
X007859Y020141D01*
X007869Y020174D01*
X007882Y020205D01*
X007900Y020235D01*
X007920Y020263D01*
X007944Y020288D01*
X007970Y020310D01*
X007998Y020328D01*
X008029Y020344D01*
X008061Y020356D01*
X008095Y020364D01*
X008129Y020368D01*
X008163Y020368D01*
X008197Y020364D01*
X008231Y020356D01*
X008263Y020344D01*
X008293Y020328D01*
X008322Y020310D01*
X008348Y020288D01*
X008372Y020263D01*
X008392Y020235D01*
X008410Y020205D01*
X008423Y020174D01*
X008433Y020141D01*
X008439Y020107D01*
X008441Y020073D01*
X008439Y020039D01*
X008433Y020005D01*
X008423Y019972D01*
X008410Y019941D01*
X008392Y019911D01*
X008372Y019883D01*
X008348Y019858D01*
X008322Y019836D01*
X008294Y019818D01*
X008263Y019802D01*
X008231Y019790D01*
X008197Y019782D01*
X008163Y019778D01*
X008129Y019778D01*
X008095Y019782D01*
X008061Y019790D01*
X008029Y019802D01*
X007998Y019818D01*
X007970Y019836D01*
X007944Y019858D01*
X007920Y019883D01*
X007900Y019911D01*
X007882Y019941D01*
X007869Y019972D01*
X007859Y020005D01*
X007853Y020039D01*
X007851Y020073D01*
X003438Y018754D02*
X003440Y018783D01*
X003446Y018811D01*
X003455Y018839D01*
X003468Y018865D01*
X003485Y018888D01*
X003504Y018910D01*
X003526Y018929D01*
X003551Y018944D01*
X003577Y018957D01*
X003605Y018965D01*
X003633Y018970D01*
X003662Y018971D01*
X003691Y018968D01*
X003719Y018961D01*
X003746Y018951D01*
X003772Y018937D01*
X003795Y018920D01*
X003816Y018900D01*
X003834Y018877D01*
X003849Y018852D01*
X003860Y018825D01*
X003868Y018797D01*
X003872Y018768D01*
X003872Y018740D01*
X003868Y018711D01*
X003860Y018683D01*
X003849Y018656D01*
X003834Y018631D01*
X003816Y018608D01*
X003795Y018588D01*
X003772Y018571D01*
X003746Y018557D01*
X003719Y018547D01*
X003691Y018540D01*
X003662Y018537D01*
X003633Y018538D01*
X003605Y018543D01*
X003577Y018551D01*
X003551Y018564D01*
X003526Y018579D01*
X003504Y018598D01*
X003485Y018620D01*
X003468Y018643D01*
X003455Y018669D01*
X003446Y018697D01*
X003440Y018725D01*
X003438Y018754D01*
X000945Y020165D02*
X000947Y020212D01*
X000953Y020258D01*
X000963Y020304D01*
X000976Y020349D01*
X000994Y020392D01*
X001015Y020434D01*
X001039Y020474D01*
X001067Y020511D01*
X001098Y020546D01*
X001132Y020579D01*
X001168Y020608D01*
X001207Y020634D01*
X001248Y020657D01*
X001291Y020676D01*
X001335Y020692D01*
X001380Y020704D01*
X001426Y020712D01*
X001473Y020716D01*
X001519Y020716D01*
X001566Y020712D01*
X001612Y020704D01*
X001657Y020692D01*
X001701Y020676D01*
X001744Y020657D01*
X001785Y020634D01*
X001824Y020608D01*
X001860Y020579D01*
X001894Y020546D01*
X001925Y020511D01*
X001953Y020474D01*
X001977Y020434D01*
X001998Y020392D01*
X002016Y020349D01*
X002029Y020304D01*
X002039Y020258D01*
X002045Y020212D01*
X002047Y020165D01*
X002045Y020118D01*
X002039Y020072D01*
X002029Y020026D01*
X002016Y019981D01*
X001998Y019938D01*
X001977Y019896D01*
X001953Y019856D01*
X001925Y019819D01*
X001894Y019784D01*
X001860Y019751D01*
X001824Y019722D01*
X001785Y019696D01*
X001744Y019673D01*
X001701Y019654D01*
X001657Y019638D01*
X001612Y019626D01*
X001566Y019618D01*
X001519Y019614D01*
X001473Y019614D01*
X001426Y019618D01*
X001380Y019626D01*
X001335Y019638D01*
X001291Y019654D01*
X001248Y019673D01*
X001207Y019696D01*
X001168Y019722D01*
X001132Y019751D01*
X001098Y019784D01*
X001067Y019819D01*
X001039Y019856D01*
X001015Y019896D01*
X000994Y019938D01*
X000976Y019981D01*
X000963Y020026D01*
X000953Y020072D01*
X000947Y020118D01*
X000945Y020165D01*
D11*
X001574Y019666D02*
X001574Y019325D01*
X001574Y019439D02*
X001744Y019439D01*
X001800Y019495D01*
X001800Y019609D01*
X001744Y019666D01*
X001574Y019666D01*
X001687Y019439D02*
X001800Y019325D01*
X001942Y019325D02*
X002169Y019552D01*
X002169Y019609D01*
X002112Y019666D01*
X001999Y019666D01*
X001942Y019609D01*
X001942Y019325D02*
X002169Y019325D01*
X003185Y019413D02*
X003412Y019640D01*
X003412Y019696D01*
X003355Y019753D01*
X003242Y019753D01*
X003185Y019696D01*
X003185Y019413D02*
X003412Y019413D01*
X004123Y020032D02*
X004179Y019975D01*
X004293Y019975D01*
X004349Y020032D01*
X004349Y020089D01*
X004293Y020145D01*
X004236Y020145D01*
X004293Y020145D02*
X004349Y020202D01*
X004349Y020259D01*
X004293Y020316D01*
X004179Y020316D01*
X004123Y020259D01*
X004404Y019820D02*
X004461Y019820D01*
X004518Y019764D01*
X004574Y019820D01*
X004631Y019820D01*
X004688Y019764D01*
X004688Y019650D01*
X004631Y019594D01*
X004688Y019452D02*
X004574Y019339D01*
X004574Y019395D02*
X004574Y019225D01*
X004688Y019225D02*
X004347Y019225D01*
X004347Y019395D01*
X004404Y019452D01*
X004518Y019452D01*
X004574Y019395D01*
X004785Y019395D02*
X004785Y019225D01*
X005125Y019225D01*
X005012Y019225D02*
X005012Y019395D01*
X004955Y019452D01*
X004842Y019452D01*
X004785Y019395D01*
X005012Y019339D02*
X005125Y019452D01*
X005180Y019550D02*
X017380Y019550D01*
X017380Y019578D01*
X017380Y019550D02*
X017380Y021028D01*
X005180Y021028D01*
X005180Y021228D01*
X017380Y021228D01*
X017380Y021028D01*
X018535Y020807D02*
X018535Y020580D01*
X018705Y020580D01*
X018648Y020694D01*
X018648Y020750D01*
X018705Y020807D01*
X018818Y020807D01*
X018875Y020750D01*
X018875Y020637D01*
X018818Y020580D01*
X018818Y020439D02*
X018592Y020439D01*
X018535Y020382D01*
X018535Y020212D01*
X018875Y020212D01*
X018875Y020382D01*
X018818Y020439D01*
X018875Y020070D02*
X018875Y019844D01*
X018535Y019844D01*
X018535Y020070D01*
X018705Y019957D02*
X018705Y019844D01*
X018875Y019702D02*
X018875Y019475D01*
X018535Y019475D01*
X018537Y018941D02*
X018310Y018600D01*
X018537Y018600D02*
X018310Y018941D01*
X018678Y018884D02*
X018735Y018941D01*
X018849Y018941D01*
X018905Y018884D01*
X018905Y018827D01*
X018678Y018600D01*
X018905Y018600D01*
X017775Y018666D02*
X017775Y018440D01*
X017435Y018440D01*
X017435Y018808D02*
X017775Y018808D01*
X017775Y019035D01*
X017775Y019176D02*
X017775Y019346D01*
X017718Y019403D01*
X017492Y019403D01*
X017435Y019346D01*
X017435Y019176D01*
X017775Y019176D01*
X017605Y018921D02*
X017605Y018808D01*
X017435Y018808D02*
X017435Y019035D01*
X017605Y019545D02*
X017435Y019715D01*
X017775Y019715D01*
X017605Y019771D02*
X017605Y019545D01*
X015818Y017814D02*
X015875Y017757D01*
X015875Y017644D01*
X015818Y017587D01*
X015762Y017587D01*
X015705Y017644D01*
X015705Y017757D01*
X015762Y017814D01*
X015818Y017814D01*
X015705Y017757D02*
X015648Y017814D01*
X015592Y017814D01*
X015535Y017757D01*
X015535Y017644D01*
X015592Y017587D01*
X015648Y017587D01*
X015705Y017644D01*
X015875Y017445D02*
X015875Y017219D01*
X015875Y017332D02*
X015535Y017332D01*
X015648Y017219D01*
X015592Y017077D02*
X015535Y017020D01*
X015535Y016907D01*
X015592Y016850D01*
X015818Y016850D01*
X015875Y016907D01*
X015875Y017020D01*
X015818Y017077D01*
X015973Y016741D02*
X015803Y016570D01*
X016030Y016570D01*
X015973Y016400D02*
X015973Y016741D01*
X015662Y016684D02*
X015662Y016627D01*
X015435Y016400D01*
X015662Y016400D01*
X015662Y016684D02*
X015605Y016741D01*
X015491Y016741D01*
X015435Y016684D01*
X015293Y016684D02*
X015236Y016741D01*
X015123Y016741D01*
X015066Y016684D01*
X015066Y016457D01*
X015123Y016400D01*
X015236Y016400D01*
X015293Y016457D01*
X015097Y016558D02*
X014757Y016558D01*
X014757Y016728D01*
X014813Y016785D01*
X014927Y016785D01*
X014984Y016728D01*
X014984Y016558D01*
X014984Y016671D02*
X015097Y016785D01*
X015097Y016926D02*
X014870Y017153D01*
X014813Y017153D01*
X014757Y017096D01*
X014757Y016983D01*
X014813Y016926D01*
X015097Y016926D02*
X015097Y017153D01*
X015040Y017294D02*
X015097Y017351D01*
X015097Y017465D01*
X015040Y017521D01*
X014984Y017521D01*
X014927Y017465D01*
X014927Y017408D01*
X014927Y017465D02*
X014870Y017521D01*
X014813Y017521D01*
X014757Y017465D01*
X014757Y017351D01*
X014813Y017294D01*
X014274Y017282D02*
X014217Y017225D01*
X014103Y017225D01*
X014047Y017282D01*
X014047Y017395D02*
X014160Y017452D01*
X014217Y017452D01*
X014274Y017395D01*
X014274Y017282D01*
X014047Y017395D02*
X014047Y017566D01*
X014274Y017566D01*
X013905Y017509D02*
X013849Y017566D01*
X013735Y017566D01*
X013678Y017509D01*
X013537Y017509D02*
X013537Y017395D01*
X013480Y017339D01*
X013310Y017339D01*
X013424Y017339D02*
X013537Y017225D01*
X013678Y017225D02*
X013905Y017452D01*
X013905Y017509D01*
X013905Y017225D02*
X013678Y017225D01*
X013537Y017509D02*
X013480Y017566D01*
X013310Y017566D01*
X013310Y017225D01*
X013024Y016753D02*
X012910Y016696D01*
X012797Y016583D01*
X012967Y016583D01*
X013024Y016526D01*
X013024Y016470D01*
X012967Y016413D01*
X012853Y016413D01*
X012797Y016470D01*
X012797Y016583D01*
X012655Y016640D02*
X012655Y016696D01*
X012599Y016753D01*
X012485Y016753D01*
X012428Y016696D01*
X012287Y016696D02*
X012287Y016583D01*
X012230Y016526D01*
X012060Y016526D01*
X012060Y016413D02*
X012060Y016753D01*
X012230Y016753D01*
X012287Y016696D01*
X012174Y016526D02*
X012287Y016413D01*
X012428Y016413D02*
X012655Y016640D01*
X012655Y016413D02*
X012428Y016413D01*
X011774Y016259D02*
X011717Y016316D01*
X011603Y016316D01*
X011547Y016259D01*
X011774Y016259D02*
X011774Y016202D01*
X011547Y015975D01*
X011774Y015975D01*
X011717Y015816D02*
X011774Y015759D01*
X011547Y015532D01*
X011603Y015475D01*
X011717Y015475D01*
X011774Y015532D01*
X011774Y015759D01*
X011717Y015816D02*
X011603Y015816D01*
X011547Y015759D01*
X011547Y015532D01*
X011405Y015475D02*
X011178Y015475D01*
X011405Y015702D01*
X011405Y015759D01*
X011349Y015816D01*
X011235Y015816D01*
X011178Y015759D01*
X011037Y015759D02*
X011037Y015645D01*
X010980Y015589D01*
X010810Y015589D01*
X010924Y015589D02*
X011037Y015475D01*
X010810Y015475D02*
X010810Y015816D01*
X010980Y015816D01*
X011037Y015759D01*
X010980Y015975D02*
X010867Y015975D01*
X010810Y016032D01*
X010810Y016259D01*
X010867Y016316D01*
X010980Y016316D01*
X011037Y016259D01*
X011178Y016202D02*
X011292Y016316D01*
X011292Y015975D01*
X011405Y015975D02*
X011178Y015975D01*
X011037Y016032D02*
X010980Y015975D01*
X010500Y015399D02*
X010443Y015399D01*
X010217Y015626D01*
X010160Y015626D01*
X010160Y015399D01*
X010160Y015145D02*
X010500Y015145D01*
X010500Y015258D02*
X010500Y015031D01*
X010500Y014890D02*
X010387Y014776D01*
X010387Y014833D02*
X010387Y014663D01*
X010500Y014663D02*
X010160Y014663D01*
X010160Y014833D01*
X010217Y014890D01*
X010330Y014890D01*
X010387Y014833D01*
X010273Y015031D02*
X010160Y015145D01*
X010242Y014521D02*
X010298Y014521D01*
X010355Y014465D01*
X010355Y014351D01*
X010298Y014295D01*
X010242Y014295D01*
X010185Y014351D01*
X010185Y014465D01*
X010242Y014521D01*
X010355Y014465D02*
X010412Y014521D01*
X010468Y014521D01*
X010525Y014465D01*
X010525Y014351D01*
X010468Y014295D01*
X010412Y014295D01*
X010355Y014351D01*
X010525Y014153D02*
X010525Y013926D01*
X010525Y014040D02*
X010185Y014040D01*
X010298Y013926D01*
X010242Y013785D02*
X010355Y013785D01*
X010412Y013728D01*
X010412Y013558D01*
X010525Y013558D02*
X010185Y013558D01*
X010185Y013728D01*
X010242Y013785D01*
X010412Y013671D02*
X010525Y013785D01*
X010518Y013416D02*
X010688Y013416D01*
X010745Y013359D01*
X010745Y013245D01*
X010688Y013189D01*
X010518Y013189D01*
X010631Y013189D02*
X010745Y013075D01*
X010886Y013075D02*
X011113Y013075D01*
X010999Y013075D02*
X010999Y013416D01*
X010886Y013302D01*
X011254Y013359D02*
X011311Y013416D01*
X011424Y013416D01*
X011481Y013359D01*
X011481Y013302D01*
X011254Y013075D01*
X011481Y013075D01*
X011218Y012396D02*
X011162Y012396D01*
X011105Y012340D01*
X011105Y012169D01*
X011218Y012169D01*
X011275Y012226D01*
X011275Y012340D01*
X011218Y012396D01*
X010992Y012283D02*
X011105Y012169D01*
X011048Y012028D02*
X010992Y012028D01*
X010935Y011971D01*
X010935Y011858D01*
X010992Y011801D01*
X010992Y011660D02*
X010935Y011603D01*
X010935Y011490D01*
X010992Y011433D01*
X011218Y011433D01*
X011275Y011490D01*
X011275Y011603D01*
X011218Y011660D01*
X011275Y011801D02*
X011048Y012028D01*
X011275Y012028D02*
X011275Y011801D01*
X010992Y012283D02*
X010935Y012396D01*
X010518Y013075D02*
X010518Y013416D01*
X010769Y011224D02*
X010882Y011224D01*
X010939Y011167D01*
X010939Y010941D01*
X010882Y010884D01*
X010769Y010884D01*
X010712Y010941D01*
X010712Y011167D01*
X010769Y011224D01*
X010825Y010997D02*
X010939Y010884D01*
X011080Y010884D02*
X011307Y010884D01*
X011194Y010884D02*
X011194Y011224D01*
X011080Y011111D01*
X012435Y011166D02*
X012435Y011052D01*
X012492Y010995D01*
X012718Y010995D01*
X012775Y011052D01*
X012775Y011166D01*
X012718Y011222D01*
X012775Y011364D02*
X012548Y011591D01*
X012492Y011591D01*
X012435Y011534D01*
X012435Y011420D01*
X012492Y011364D01*
X012492Y011222D02*
X012435Y011166D01*
X012775Y011364D02*
X012775Y011591D01*
X012775Y011732D02*
X012718Y011732D01*
X012492Y011959D01*
X012435Y011959D01*
X012435Y011732D01*
X012873Y011378D02*
X012873Y011038D01*
X012873Y011151D02*
X013043Y011151D01*
X013099Y011208D01*
X013099Y011321D01*
X013043Y011378D01*
X012873Y011378D01*
X012986Y011151D02*
X013099Y011038D01*
X013241Y011038D02*
X013468Y011265D01*
X013468Y011321D01*
X013411Y011378D01*
X013298Y011378D01*
X013241Y011321D01*
X013241Y011038D02*
X013468Y011038D01*
X013609Y011095D02*
X013609Y011151D01*
X013666Y011208D01*
X013779Y011208D01*
X013836Y011151D01*
X013836Y011095D01*
X013779Y011038D01*
X013666Y011038D01*
X013609Y011095D01*
X013666Y011208D02*
X013609Y011265D01*
X013609Y011321D01*
X013666Y011378D01*
X013779Y011378D01*
X013836Y011321D01*
X013836Y011265D01*
X013779Y011208D01*
X013735Y010566D02*
X013678Y010509D01*
X013735Y010566D02*
X013849Y010566D01*
X013905Y010509D01*
X013905Y010452D01*
X013678Y010225D01*
X013905Y010225D01*
X014047Y010225D02*
X014047Y010282D01*
X014274Y010509D01*
X014274Y010566D01*
X014047Y010566D01*
X013537Y010509D02*
X013537Y010395D01*
X013480Y010339D01*
X013310Y010339D01*
X013424Y010339D02*
X013537Y010225D01*
X013310Y010225D02*
X013310Y010566D01*
X013480Y010566D01*
X013537Y010509D01*
X015310Y010683D02*
X015310Y010853D01*
X015367Y010910D01*
X015480Y010910D01*
X015537Y010853D01*
X015537Y010683D01*
X015650Y010683D02*
X015310Y010683D01*
X015537Y010796D02*
X015650Y010910D01*
X015722Y010913D02*
X015722Y011083D01*
X015779Y011140D01*
X015892Y011140D01*
X015949Y011083D01*
X015949Y010913D01*
X015949Y011026D02*
X016063Y011140D01*
X016063Y011281D02*
X015836Y011508D01*
X015779Y011508D01*
X015722Y011451D01*
X015722Y011338D01*
X015779Y011281D01*
X015650Y011278D02*
X015650Y011051D01*
X015423Y011278D01*
X015367Y011278D01*
X015310Y011221D01*
X015310Y011108D01*
X015367Y011051D01*
X015480Y011420D02*
X015480Y011646D01*
X015650Y011590D02*
X015310Y011590D01*
X015480Y011420D01*
X015722Y011706D02*
X015779Y011649D01*
X015722Y011706D02*
X015722Y011820D01*
X015779Y011876D01*
X015836Y011876D01*
X016063Y011649D01*
X016063Y011876D01*
X016063Y011508D02*
X016063Y011281D01*
X016063Y010913D02*
X015722Y010913D01*
X017873Y010628D02*
X018099Y010288D01*
X018241Y010458D02*
X018468Y010458D01*
X018411Y010288D02*
X018411Y010628D01*
X018241Y010458D01*
X018099Y010628D02*
X017873Y010288D01*
X018685Y010215D02*
X018685Y010101D01*
X018742Y010044D01*
X018742Y009903D02*
X018798Y009903D01*
X018855Y009846D01*
X018912Y009903D01*
X018968Y009903D01*
X019025Y009846D01*
X019025Y009733D01*
X018968Y009676D01*
X019025Y009535D02*
X018912Y009421D01*
X018912Y009478D02*
X018912Y009308D01*
X019025Y009308D02*
X018685Y009308D01*
X018685Y009478D01*
X018742Y009535D01*
X018855Y009535D01*
X018912Y009478D01*
X018742Y009676D02*
X018685Y009733D01*
X018685Y009846D01*
X018742Y009903D01*
X018855Y009846D02*
X018855Y009790D01*
X019025Y010044D02*
X018798Y010271D01*
X018742Y010271D01*
X018685Y010215D01*
X019025Y010271D02*
X019025Y010044D01*
X018943Y008995D02*
X018887Y008995D01*
X018830Y008938D01*
X018830Y008768D01*
X018943Y008768D01*
X019000Y008824D01*
X019000Y008938D01*
X018943Y008995D01*
X018717Y008881D02*
X018830Y008768D01*
X018717Y008881D02*
X018660Y008995D01*
X018717Y008626D02*
X018660Y008570D01*
X018660Y008399D01*
X019000Y008399D01*
X019000Y008570D01*
X018943Y008626D01*
X018717Y008626D01*
X018660Y008258D02*
X018660Y008031D01*
X019000Y008031D01*
X019000Y008258D01*
X018830Y008145D02*
X018830Y008031D01*
X019000Y007890D02*
X019000Y007663D01*
X018660Y007663D01*
X018685Y007441D02*
X018685Y007100D01*
X018912Y007100D01*
X019053Y007100D02*
X019280Y007100D01*
X019422Y007100D02*
X019592Y007100D01*
X019649Y007157D01*
X019649Y007384D01*
X019592Y007441D01*
X019422Y007441D01*
X019422Y007100D01*
X019790Y007100D02*
X019790Y007157D01*
X020017Y007384D01*
X020017Y007441D01*
X019790Y007441D01*
X019910Y007600D02*
X019910Y007770D01*
X019967Y007827D01*
X020080Y007827D01*
X020137Y007770D01*
X020137Y007600D01*
X020250Y007600D02*
X019910Y007600D01*
X020137Y007714D02*
X020250Y007827D01*
X020193Y007969D02*
X020250Y008025D01*
X020250Y008139D01*
X020193Y008195D01*
X020137Y008195D01*
X020080Y008139D01*
X020080Y008082D01*
X020080Y008139D02*
X020023Y008195D01*
X019967Y008195D01*
X019910Y008139D01*
X019910Y008025D01*
X019967Y007969D01*
X019967Y008337D02*
X019910Y008394D01*
X019910Y008507D01*
X019967Y008564D01*
X020023Y008564D01*
X020080Y008507D01*
X020137Y008564D01*
X020193Y008564D01*
X020250Y008507D01*
X020250Y008394D01*
X020193Y008337D01*
X020080Y008450D02*
X020080Y008507D01*
X019280Y007441D02*
X019053Y007441D01*
X019053Y007100D01*
X019053Y007270D02*
X019167Y007270D01*
X019280Y006628D02*
X019053Y006628D01*
X019053Y006288D01*
X019280Y006288D01*
X019422Y006288D02*
X019422Y006628D01*
X019592Y006628D01*
X019649Y006571D01*
X019649Y006344D01*
X019592Y006288D01*
X019422Y006288D01*
X019790Y006344D02*
X019790Y006401D01*
X019847Y006458D01*
X019960Y006458D01*
X020017Y006401D01*
X020017Y006344D01*
X019960Y006288D01*
X019847Y006288D01*
X019790Y006344D01*
X019847Y006458D02*
X019790Y006515D01*
X019790Y006571D01*
X019847Y006628D01*
X019960Y006628D01*
X020017Y006571D01*
X020017Y006515D01*
X019960Y006458D01*
X019948Y005786D02*
X020062Y005786D01*
X020119Y005729D01*
X020119Y005672D01*
X020062Y005615D01*
X020119Y005559D01*
X020119Y005502D01*
X020062Y005445D01*
X019948Y005445D01*
X019892Y005502D01*
X020005Y005615D02*
X020062Y005615D01*
X019892Y005729D02*
X019948Y005786D01*
X019750Y005729D02*
X019750Y005615D01*
X019694Y005559D01*
X019523Y005559D01*
X019523Y005445D02*
X019523Y005786D01*
X019694Y005786D01*
X019750Y005729D01*
X019382Y005786D02*
X019269Y005786D01*
X019325Y005786D02*
X019325Y005502D01*
X019269Y005445D01*
X019212Y005445D01*
X019155Y005502D01*
X019280Y005070D02*
X019780Y005070D01*
X020030Y004820D01*
X020030Y004320D01*
X019780Y004070D01*
X020030Y003820D01*
X020030Y003320D01*
X019780Y003070D01*
X019280Y003070D01*
X019030Y003320D01*
X019030Y003820D01*
X019280Y004070D01*
X019030Y004320D01*
X019030Y004820D01*
X019280Y005070D01*
X019280Y004070D02*
X019780Y004070D01*
X018912Y006288D02*
X018685Y006288D01*
X018685Y006628D01*
X019053Y006458D02*
X019167Y006458D01*
X016875Y013413D02*
X016535Y013413D01*
X016535Y013583D01*
X016592Y013640D01*
X016705Y013640D01*
X016762Y013583D01*
X016762Y013413D01*
X016762Y013526D02*
X016875Y013640D01*
X016875Y013781D02*
X016875Y014008D01*
X016875Y013895D02*
X016535Y013895D01*
X016648Y013781D01*
X016648Y014149D02*
X016705Y014206D01*
X016705Y014376D01*
X016818Y014376D02*
X016592Y014376D01*
X016535Y014320D01*
X016535Y014206D01*
X016592Y014149D01*
X016648Y014149D01*
X016818Y014149D02*
X016875Y014206D01*
X016875Y014320D01*
X016818Y014376D01*
X016693Y015120D02*
X016467Y015120D01*
X016410Y015177D01*
X016410Y015291D01*
X016467Y015347D01*
X016467Y015489D02*
X016410Y015545D01*
X016410Y015659D01*
X016467Y015716D01*
X016523Y015716D01*
X016580Y015659D01*
X016637Y015716D01*
X016693Y015716D01*
X016750Y015659D01*
X016750Y015545D01*
X016693Y015489D01*
X016693Y015347D02*
X016750Y015291D01*
X016750Y015177D01*
X016693Y015120D01*
X016580Y015602D02*
X016580Y015659D01*
X016693Y015857D02*
X016750Y015857D01*
X016693Y015857D02*
X016467Y016084D01*
X016410Y016084D01*
X016410Y015857D01*
X015103Y016171D02*
X014876Y016171D01*
X015046Y016341D01*
X015046Y016001D01*
X014735Y016057D02*
X014678Y016001D01*
X014565Y016001D01*
X014508Y016057D01*
X014508Y016284D01*
X014565Y016341D01*
X014678Y016341D01*
X014735Y016284D01*
X014376Y016341D02*
X014263Y016341D01*
X014319Y016341D02*
X014319Y016001D01*
X014263Y016001D02*
X014376Y016001D01*
X014699Y018138D02*
X014925Y018138D01*
X015067Y018138D02*
X015294Y018138D01*
X015180Y018138D02*
X015180Y018478D01*
X015067Y018365D01*
X014699Y018478D02*
X014699Y018138D01*
X014211Y018446D02*
X014211Y018673D01*
X014154Y018730D01*
X014041Y018730D01*
X013984Y018673D01*
X013984Y018617D01*
X014041Y018560D01*
X014211Y018560D01*
X014211Y018446D02*
X014154Y018390D01*
X014041Y018390D01*
X013984Y018446D01*
X013843Y018390D02*
X013616Y018390D01*
X013843Y018617D01*
X013843Y018673D01*
X013786Y018730D01*
X013673Y018730D01*
X013616Y018673D01*
X013474Y018673D02*
X013474Y018560D01*
X013418Y018503D01*
X013248Y018503D01*
X013361Y018503D02*
X013474Y018390D01*
X013248Y018390D02*
X013248Y018730D01*
X013418Y018730D01*
X013474Y018673D01*
X014545Y019100D02*
X014772Y019441D01*
X014913Y019384D02*
X014970Y019441D01*
X015083Y019441D01*
X015140Y019384D01*
X015140Y019327D01*
X015083Y019270D01*
X015140Y019214D01*
X015140Y019157D01*
X015083Y019100D01*
X014970Y019100D01*
X014913Y019157D01*
X014772Y019100D02*
X014545Y019441D01*
X015027Y019270D02*
X015083Y019270D01*
X011093Y018696D02*
X011036Y018753D01*
X010923Y018753D01*
X010866Y018696D01*
X010724Y018696D02*
X010724Y018469D01*
X010668Y018413D01*
X010554Y018413D01*
X010498Y018469D01*
X010498Y018696D01*
X010554Y018753D01*
X010668Y018753D01*
X010724Y018696D01*
X010611Y018526D02*
X010724Y018413D01*
X010866Y018413D02*
X011093Y018640D01*
X011093Y018696D01*
X011093Y018413D02*
X010866Y018413D01*
X009737Y017185D02*
X009794Y017129D01*
X009794Y017072D01*
X009737Y017015D01*
X009794Y016958D01*
X009794Y016902D01*
X009737Y016845D01*
X009624Y016845D01*
X009567Y016902D01*
X009426Y016845D02*
X009199Y016845D01*
X009312Y016845D02*
X009312Y017185D01*
X009199Y017072D01*
X009058Y017129D02*
X009001Y017185D01*
X008887Y017185D01*
X008831Y017129D01*
X008831Y016902D01*
X008887Y016845D01*
X009001Y016845D01*
X009058Y016902D01*
X009567Y017129D02*
X009624Y017185D01*
X009737Y017185D01*
X009737Y017015D02*
X009681Y017015D01*
X009904Y016814D02*
X009961Y016814D01*
X010018Y016757D01*
X010074Y016814D01*
X010131Y016814D01*
X010188Y016757D01*
X010188Y016644D01*
X010131Y016587D01*
X010188Y016446D02*
X010188Y016219D01*
X009961Y016446D01*
X009904Y016446D01*
X009847Y016389D01*
X009847Y016275D01*
X009904Y016219D01*
X009904Y016077D02*
X009847Y016020D01*
X009847Y015907D01*
X009904Y015850D01*
X010131Y015850D01*
X010188Y015907D01*
X010188Y016020D01*
X010131Y016077D01*
X009904Y016587D02*
X009847Y016644D01*
X009847Y016757D01*
X009904Y016814D01*
X010018Y016757D02*
X010018Y016700D01*
X007442Y017143D02*
X007442Y017370D01*
X007385Y017426D01*
X007272Y017426D01*
X007215Y017370D01*
X007215Y017313D01*
X007272Y017256D01*
X007442Y017256D01*
X007442Y017143D02*
X007385Y017086D01*
X007272Y017086D01*
X007215Y017143D01*
X007073Y017086D02*
X006960Y017200D01*
X007017Y017200D02*
X006847Y017200D01*
X006847Y017086D02*
X006847Y017426D01*
X007017Y017426D01*
X007073Y017370D01*
X007073Y017256D01*
X007017Y017200D01*
X007030Y017570D02*
X007280Y017820D01*
X007280Y018320D01*
X007030Y018570D01*
X006530Y018570D01*
X006280Y018320D01*
X006030Y018570D01*
X005530Y018570D01*
X005280Y018320D01*
X005280Y017820D01*
X005530Y017570D01*
X006030Y017570D01*
X006280Y017820D01*
X006280Y018320D01*
X006280Y017820D02*
X006530Y017570D01*
X007030Y017570D01*
X005120Y017456D02*
X004780Y017456D01*
X004780Y017626D01*
X004837Y017683D01*
X004950Y017683D01*
X005007Y017626D01*
X005007Y017456D01*
X005063Y017258D02*
X004780Y017258D01*
X004780Y017201D02*
X004780Y017315D01*
X005063Y017258D02*
X005120Y017201D01*
X005120Y017145D01*
X005063Y017088D01*
X005120Y017824D02*
X005120Y018051D01*
X005120Y017938D02*
X004780Y017938D01*
X004893Y017824D01*
X004853Y018338D02*
X005080Y018565D01*
X005080Y018621D01*
X005024Y018678D01*
X004910Y018678D01*
X004853Y018621D01*
X004712Y018678D02*
X004599Y018678D01*
X004655Y018678D02*
X004655Y018394D01*
X004599Y018338D01*
X004542Y018338D01*
X004485Y018394D01*
X004853Y018338D02*
X005080Y018338D01*
X005180Y019550D02*
X005180Y021028D01*
X004955Y019820D02*
X004955Y019594D01*
X004785Y019764D01*
X005125Y019764D01*
X005180Y019578D02*
X005180Y019550D01*
X004518Y019707D02*
X004518Y019764D01*
X004404Y019820D02*
X004347Y019764D01*
X004347Y019650D01*
X004404Y019594D01*
X002537Y020538D02*
X002310Y020538D01*
X002424Y020538D02*
X002424Y020878D01*
X002310Y020765D01*
X004752Y015419D02*
X004865Y015419D01*
X004808Y015419D02*
X004808Y015079D01*
X004752Y015079D02*
X004865Y015079D01*
X004997Y015135D02*
X005054Y015079D01*
X005167Y015079D01*
X005224Y015135D01*
X005365Y015079D02*
X005592Y015079D01*
X005479Y015079D02*
X005479Y015419D01*
X005365Y015306D01*
X005224Y015362D02*
X005167Y015419D01*
X005054Y015419D01*
X004997Y015362D01*
X004997Y015135D01*
X005024Y011053D02*
X005080Y010996D01*
X005080Y010940D01*
X005024Y010883D01*
X005080Y010826D01*
X005080Y010769D01*
X005024Y010713D01*
X004910Y010713D01*
X004853Y010769D01*
X004967Y010883D02*
X005024Y010883D01*
X005024Y011053D02*
X004910Y011053D01*
X004853Y010996D01*
X004712Y011053D02*
X004599Y011053D01*
X004655Y011053D02*
X004655Y010769D01*
X004599Y010713D01*
X004542Y010713D01*
X004485Y010769D01*
X005593Y009445D02*
X005343Y009195D01*
X005343Y008695D01*
X005593Y008445D01*
X005343Y008195D01*
X005343Y007695D01*
X005593Y007445D01*
X006093Y007445D01*
X006343Y007695D01*
X006343Y008195D01*
X006093Y008445D01*
X005593Y008445D01*
X006093Y008445D02*
X006343Y008695D01*
X006343Y009195D01*
X006093Y009445D01*
X005593Y009445D01*
X004995Y009114D02*
X004995Y008887D01*
X004768Y009114D01*
X004712Y009114D01*
X004655Y009057D01*
X004655Y008944D01*
X004712Y008887D01*
X004712Y008746D02*
X004825Y008746D01*
X004882Y008689D01*
X004882Y008519D01*
X004995Y008519D02*
X004655Y008519D01*
X004655Y008689D01*
X004712Y008746D01*
X004655Y008377D02*
X004655Y008264D01*
X004655Y008321D02*
X004938Y008321D01*
X004995Y008264D01*
X004995Y008207D01*
X004938Y008150D01*
X007748Y009100D02*
X007748Y009441D01*
X007918Y009441D01*
X007974Y009384D01*
X007974Y009270D01*
X007918Y009214D01*
X007748Y009214D01*
X007861Y009214D02*
X007974Y009100D01*
X008116Y009100D02*
X008343Y009100D01*
X008229Y009100D02*
X008229Y009441D01*
X008116Y009327D01*
X008116Y009538D02*
X008343Y009538D01*
X008229Y009538D02*
X008229Y009878D01*
X008116Y009765D01*
X007974Y009821D02*
X007974Y009708D01*
X007918Y009651D01*
X007748Y009651D01*
X007861Y009651D02*
X007974Y009538D01*
X007748Y009538D02*
X007748Y009878D01*
X007918Y009878D01*
X007974Y009821D01*
X008484Y009765D02*
X008598Y009878D01*
X008598Y009538D01*
X008711Y009538D02*
X008484Y009538D01*
X009122Y009608D02*
X009179Y009551D01*
X009406Y009551D01*
X009463Y009608D01*
X009463Y009721D01*
X009406Y009778D01*
X009463Y009920D02*
X009463Y010146D01*
X009463Y010033D02*
X009122Y010033D01*
X009236Y009920D01*
X009179Y009778D02*
X009122Y009721D01*
X009122Y009608D01*
X011847Y007014D02*
X011847Y006900D01*
X011904Y006844D01*
X011904Y006702D02*
X011847Y006645D01*
X011847Y006532D01*
X011904Y006475D01*
X012131Y006475D01*
X012188Y006532D01*
X012188Y006645D01*
X012131Y006702D01*
X012188Y006844D02*
X011961Y007070D01*
X011904Y007070D01*
X011847Y007014D01*
X012188Y007070D02*
X012188Y006844D01*
X018248Y014100D02*
X018474Y014441D01*
X018616Y014327D02*
X018729Y014441D01*
X018729Y014100D01*
X018616Y014100D02*
X018843Y014100D01*
X018474Y014100D02*
X018248Y014441D01*
X004042Y002628D02*
X004042Y002288D01*
X004155Y002288D02*
X003928Y002288D01*
X003730Y002345D02*
X003730Y002628D01*
X003674Y002628D02*
X003787Y002628D01*
X003928Y002515D02*
X004042Y002628D01*
X003730Y002345D02*
X003674Y002288D01*
X003617Y002288D01*
X003560Y002345D01*
D12*
X004641Y016303D02*
X004641Y016894D01*
X004936Y016894D01*
X005034Y016796D01*
X005034Y016599D01*
X004936Y016500D01*
X004641Y016500D01*
X005285Y016303D02*
X005482Y016303D01*
X005384Y016303D02*
X005384Y016894D01*
X005482Y016894D02*
X005285Y016894D01*
X005715Y016796D02*
X005715Y016402D01*
X005813Y016303D01*
X006010Y016303D01*
X006109Y016402D01*
X006359Y016402D02*
X006458Y016303D01*
X006655Y016303D01*
X006753Y016402D01*
X006753Y016500D01*
X006655Y016599D01*
X006556Y016599D01*
X006655Y016599D02*
X006753Y016697D01*
X006753Y016796D01*
X006655Y016894D01*
X006458Y016894D01*
X006359Y016796D01*
X006109Y016796D02*
X006010Y016894D01*
X005813Y016894D01*
X005715Y016796D01*
X007004Y016796D02*
X007102Y016894D01*
X007299Y016894D01*
X007398Y016796D01*
X007398Y016697D01*
X007004Y016303D01*
X007398Y016303D01*
D13*
X006857Y016050D02*
X006717Y015770D01*
X006576Y016050D01*
X006396Y015980D02*
X006396Y015910D01*
X006116Y015910D01*
X006116Y015840D02*
X006116Y015980D01*
X006186Y016050D01*
X006326Y016050D01*
X006396Y015980D01*
X006326Y015770D02*
X006186Y015770D01*
X006116Y015840D01*
X005936Y015770D02*
X005936Y016190D01*
X005936Y016050D02*
X005726Y016050D01*
X005656Y015980D01*
X005656Y015840D01*
X005726Y015770D01*
X005936Y015770D01*
X005677Y014651D02*
X009141Y014651D01*
X009299Y014494D01*
X009299Y012840D01*
X009299Y011029D01*
X009141Y010871D01*
X005677Y010871D01*
X005519Y011029D01*
X005519Y012840D01*
X005519Y014494D01*
X005677Y014651D01*
X007764Y017660D02*
X007904Y017940D01*
X008085Y018010D02*
X008155Y018080D01*
X008295Y018080D01*
X008365Y018010D01*
X008365Y017940D01*
X008085Y017660D01*
X008365Y017660D01*
X007764Y017660D02*
X007624Y017940D01*
X010460Y018082D02*
X010460Y017059D01*
X010475Y017057D01*
X010490Y017053D01*
X010504Y017046D01*
X010516Y017036D01*
X010526Y017024D01*
X010533Y017010D01*
X010537Y016995D01*
X010539Y016980D01*
X010460Y018082D02*
X010475Y018084D01*
X010490Y018088D01*
X010504Y018095D01*
X010516Y018105D01*
X010526Y018117D01*
X010533Y018131D01*
X010537Y018146D01*
X010539Y018161D01*
X012271Y018161D02*
X012273Y018146D01*
X012277Y018131D01*
X012284Y018117D01*
X012294Y018105D01*
X012306Y018095D01*
X012320Y018088D01*
X012335Y018084D01*
X012350Y018082D01*
X012350Y017059D01*
X012335Y017057D01*
X012320Y017053D01*
X012306Y017046D01*
X012294Y017036D01*
X012284Y017024D01*
X012277Y017010D01*
X012273Y016995D01*
X012271Y016980D01*
X012265Y010088D02*
X012265Y006062D01*
X012265Y010088D02*
X018545Y010088D01*
X018545Y006102D01*
D14*
X005723Y014336D02*
X005725Y014356D01*
X005730Y014376D01*
X005740Y014394D01*
X005752Y014411D01*
X005767Y014425D01*
X005785Y014435D01*
X005804Y014443D01*
X005824Y014447D01*
X005844Y014447D01*
X005864Y014443D01*
X005883Y014435D01*
X005901Y014425D01*
X005916Y014411D01*
X005928Y014394D01*
X005938Y014376D01*
X005943Y014356D01*
X005945Y014336D01*
X005943Y014316D01*
X005938Y014296D01*
X005928Y014278D01*
X005916Y014261D01*
X005901Y014247D01*
X005883Y014237D01*
X005864Y014229D01*
X005844Y014225D01*
X005824Y014225D01*
X005804Y014229D01*
X005785Y014237D01*
X005767Y014247D01*
X005752Y014261D01*
X005740Y014278D01*
X005730Y014296D01*
X005725Y014316D01*
X005723Y014336D01*
D15*
X005283Y014238D03*
X005283Y014041D03*
X005283Y013844D03*
X005283Y013647D03*
X005283Y013450D03*
X005283Y013253D03*
X005283Y013057D03*
X005283Y012860D03*
X005283Y012663D03*
X005283Y012466D03*
X005283Y012269D03*
X005283Y012072D03*
X005283Y011875D03*
X005283Y011679D03*
X005283Y011482D03*
X005283Y011285D03*
X009535Y011285D03*
X009535Y011482D03*
X009535Y011679D03*
X009535Y011875D03*
X009535Y012072D03*
X009535Y012269D03*
X009535Y012466D03*
X009535Y012663D03*
X009535Y012860D03*
X009535Y013057D03*
X009535Y013253D03*
X009535Y013450D03*
X009535Y013647D03*
X009535Y013844D03*
X009535Y014041D03*
X009535Y014238D03*
D16*
X008885Y014887D03*
X008689Y014887D03*
X008492Y014887D03*
X008295Y014887D03*
X008098Y014887D03*
X007901Y014887D03*
X007704Y014887D03*
X007507Y014887D03*
X007311Y014887D03*
X007114Y014887D03*
X006917Y014887D03*
X006720Y014887D03*
X006523Y014887D03*
X006326Y014887D03*
X006130Y014887D03*
X005933Y014887D03*
X005933Y010635D03*
X006130Y010635D03*
X006326Y010635D03*
X006523Y010635D03*
X006720Y010635D03*
X006917Y010635D03*
X007114Y010635D03*
X007311Y010635D03*
X007507Y010635D03*
X007704Y010635D03*
X007901Y010635D03*
X008098Y010635D03*
X008295Y010635D03*
X008492Y010635D03*
X008689Y010635D03*
X008885Y010635D03*
D17*
X003928Y020379D03*
X003632Y020379D03*
X003428Y020379D03*
X003132Y020379D03*
X002928Y020379D03*
X002632Y020379D03*
D18*
X002780Y020379D03*
X003280Y020379D03*
X003780Y020379D03*
D19*
X017780Y020370D03*
X018218Y020370D03*
X019704Y008945D03*
X019704Y006820D03*
X019704Y006070D03*
D20*
X018555Y005059D02*
X018555Y001397D01*
X012256Y001397D02*
X012256Y005059D01*
D21*
X011280Y021128D03*
D22*
X017151Y018814D02*
X017151Y018444D01*
X019232Y018444D01*
X019232Y018814D01*
X019231Y018814D02*
X019232Y018827D01*
X019237Y018840D01*
X019244Y018852D01*
X019254Y018862D01*
X019266Y018869D01*
X019279Y018874D01*
X019292Y018875D01*
X019292Y018874D02*
X019292Y018874D01*
X019307Y018872D01*
X019321Y018867D01*
X019333Y018860D01*
X019344Y018849D01*
X019351Y018837D01*
X019356Y018823D01*
X019358Y018808D01*
X019358Y018747D01*
X019359Y018747D02*
X019361Y018730D01*
X019366Y018713D01*
X019374Y018698D01*
X019385Y018685D01*
X019398Y018674D01*
X019413Y018666D01*
X019430Y018661D01*
X019447Y018659D01*
X019458Y018659D01*
X019458Y018660D02*
X019475Y018662D01*
X019492Y018667D01*
X019507Y018675D01*
X019520Y018686D01*
X019531Y018699D01*
X019539Y018714D01*
X019544Y018731D01*
X019546Y018748D01*
X019546Y018747D02*
X019546Y018814D01*
X019548Y018828D01*
X019552Y018840D01*
X019559Y018852D01*
X019569Y018862D01*
X019581Y018869D01*
X019593Y018873D01*
X019607Y018875D01*
X019607Y018874D02*
X019622Y018872D01*
X019636Y018867D01*
X019648Y018860D01*
X019659Y018849D01*
X019666Y018837D01*
X019671Y018823D01*
X019673Y018808D01*
X019673Y018466D01*
X019232Y018444D02*
X020155Y018444D01*
X020186Y018422D02*
X020186Y017815D01*
X020184Y017793D01*
X020179Y017772D01*
X020171Y017752D01*
X020160Y017734D01*
X020146Y017717D01*
X020129Y017703D01*
X020111Y017692D01*
X020091Y017684D01*
X020070Y017679D01*
X020048Y017677D01*
X020032Y017677D01*
X018586Y017611D01*
X018586Y017610D02*
X018572Y017611D01*
X018558Y017615D01*
X018547Y017623D01*
X018537Y017633D01*
X018530Y017645D01*
X018526Y017658D01*
X018525Y017672D01*
X018528Y017686D01*
X018534Y017699D01*
X018542Y017709D01*
X018554Y017718D01*
X018566Y017724D01*
X018580Y017726D01*
X019916Y017815D01*
X019915Y017814D02*
X019934Y017817D01*
X019951Y017824D01*
X019967Y017833D01*
X019981Y017846D01*
X019992Y017861D01*
X020000Y017877D01*
X020005Y017895D01*
X020006Y017914D01*
X020004Y017932D01*
X019998Y017950D01*
X019989Y017966D01*
X019977Y017980D01*
X019962Y017992D01*
X019946Y018001D01*
X019928Y018006D01*
X019910Y018008D01*
X018569Y018096D01*
X018557Y018098D01*
X018546Y018104D01*
X018537Y018112D01*
X018530Y018122D01*
X018526Y018133D01*
X018525Y018145D01*
X018525Y018146D02*
X018525Y018422D01*
X017592Y018466D02*
X017592Y018808D01*
X017590Y018823D01*
X017585Y018837D01*
X017578Y018849D01*
X017567Y018860D01*
X017555Y018867D01*
X017541Y018872D01*
X017526Y018874D01*
X017526Y018875D02*
X017512Y018873D01*
X017500Y018869D01*
X017488Y018862D01*
X017478Y018852D01*
X017471Y018840D01*
X017467Y018828D01*
X017465Y018814D01*
X017465Y018747D01*
X017463Y018730D01*
X017458Y018713D01*
X017450Y018698D01*
X017439Y018685D01*
X017426Y018674D01*
X017411Y018666D01*
X017394Y018661D01*
X017377Y018659D01*
X017366Y018659D01*
X017349Y018661D01*
X017332Y018666D01*
X017317Y018674D01*
X017304Y018685D01*
X017293Y018698D01*
X017285Y018713D01*
X017280Y018730D01*
X017278Y018747D01*
X017278Y018808D01*
X017277Y018808D02*
X017275Y018823D01*
X017270Y018837D01*
X017263Y018849D01*
X017252Y018860D01*
X017240Y018867D01*
X017226Y018872D01*
X017211Y018874D01*
X017211Y018874D01*
X017211Y018875D02*
X017198Y018874D01*
X017185Y018869D01*
X017173Y018862D01*
X017163Y018852D01*
X017156Y018840D01*
X017151Y018827D01*
X017150Y018814D01*
X017151Y018444D02*
X017151Y017942D01*
X017153Y017920D01*
X017158Y017899D01*
X017166Y017879D01*
X017177Y017861D01*
X017191Y017844D01*
X017208Y017830D01*
X017226Y017819D01*
X017246Y017811D01*
X017267Y017806D01*
X017289Y017804D01*
X017521Y017804D01*
X018409Y017230D02*
X018409Y016650D01*
X018411Y016629D01*
X018416Y016609D01*
X018424Y016590D01*
X018434Y016572D01*
X018448Y016556D01*
X018464Y016542D01*
X018482Y016532D01*
X018501Y016524D01*
X018521Y016519D01*
X018542Y016517D01*
X018542Y016518D02*
X020126Y016435D01*
X020125Y016434D02*
X020139Y016435D01*
X020152Y016440D01*
X020163Y016448D01*
X020172Y016458D01*
X020178Y016471D01*
X020181Y016484D01*
X020180Y016498D01*
X020175Y016511D01*
X020167Y016522D01*
X020157Y016531D01*
X020144Y016537D01*
X020131Y016540D01*
X018906Y016606D01*
X018882Y016608D01*
X018858Y016613D01*
X018835Y016621D01*
X018814Y016633D01*
X018794Y016648D01*
X018777Y016665D01*
X018762Y016685D01*
X018750Y016706D01*
X018742Y016729D01*
X018737Y016753D01*
X018735Y016777D01*
X018735Y017125D01*
X018734Y017125D02*
X018736Y017149D01*
X018741Y017172D01*
X018749Y017194D01*
X018760Y017215D01*
X018775Y017234D01*
X018791Y017250D01*
X018810Y017265D01*
X018831Y017276D01*
X018853Y017284D01*
X018876Y017289D01*
X018900Y017291D01*
X018900Y017290D02*
X018928Y017290D01*
X020126Y017346D01*
X020139Y017348D01*
X020152Y017354D01*
X020163Y017363D01*
X020171Y017374D01*
X020176Y017387D01*
X020178Y017401D01*
X020176Y017415D01*
X020171Y017428D01*
X020163Y017439D01*
X020152Y017448D01*
X020139Y017454D01*
X020126Y017456D01*
X018553Y017373D01*
X018553Y017374D02*
X018530Y017372D01*
X018509Y017367D01*
X018488Y017358D01*
X018468Y017346D01*
X018451Y017332D01*
X018437Y017315D01*
X018425Y017295D01*
X018416Y017274D01*
X018411Y017253D01*
X018409Y017230D01*
X018586Y016280D02*
X020032Y016214D01*
X020048Y016214D01*
X020070Y016212D01*
X020091Y016207D01*
X020111Y016199D01*
X020129Y016188D01*
X020146Y016174D01*
X020160Y016157D01*
X020171Y016139D01*
X020179Y016119D01*
X020184Y016098D01*
X020186Y016076D01*
X020186Y015469D01*
X020155Y015447D02*
X017151Y015447D01*
X017151Y015944D01*
X017153Y015966D01*
X017158Y015988D01*
X017167Y016009D01*
X017178Y016028D01*
X017193Y016045D01*
X017210Y016060D01*
X017229Y016071D01*
X017250Y016080D01*
X017272Y016085D01*
X017294Y016087D01*
X017504Y016087D01*
X017592Y015447D02*
X017592Y015077D01*
X017593Y015077D02*
X017591Y015064D01*
X017587Y015051D01*
X017580Y015039D01*
X017570Y015029D01*
X017558Y015022D01*
X017545Y015017D01*
X017532Y015016D01*
X017531Y015016D01*
X017532Y015017D02*
X017517Y015019D01*
X017503Y015024D01*
X017491Y015031D01*
X017480Y015042D01*
X017473Y015054D01*
X017468Y015068D01*
X017466Y015083D01*
X017465Y015083D02*
X017465Y015143D01*
X017463Y015160D01*
X017458Y015177D01*
X017450Y015192D01*
X017439Y015205D01*
X017426Y015216D01*
X017411Y015224D01*
X017394Y015229D01*
X017377Y015231D01*
X017377Y015232D02*
X017366Y015232D01*
X017366Y015231D02*
X017349Y015229D01*
X017332Y015224D01*
X017317Y015216D01*
X017304Y015205D01*
X017293Y015192D01*
X017285Y015177D01*
X017280Y015160D01*
X017278Y015143D01*
X017278Y015077D01*
X017276Y015063D01*
X017272Y015051D01*
X017265Y015039D01*
X017255Y015029D01*
X017243Y015022D01*
X017231Y015018D01*
X017217Y015016D01*
X017217Y015017D02*
X017202Y015019D01*
X017188Y015024D01*
X017176Y015031D01*
X017165Y015042D01*
X017158Y015054D01*
X017153Y015068D01*
X017151Y015083D01*
X017151Y015452D01*
X017211Y014374D02*
X017211Y014374D01*
X017211Y014375D02*
X017198Y014374D01*
X017185Y014369D01*
X017173Y014362D01*
X017163Y014352D01*
X017156Y014340D01*
X017151Y014327D01*
X017150Y014314D01*
X017151Y014314D02*
X017151Y013944D01*
X019232Y013944D01*
X019232Y014314D01*
X019231Y014314D02*
X019232Y014327D01*
X019237Y014340D01*
X019244Y014352D01*
X019254Y014362D01*
X019266Y014369D01*
X019279Y014374D01*
X019292Y014375D01*
X019292Y014374D02*
X019292Y014374D01*
X019307Y014372D01*
X019321Y014367D01*
X019333Y014360D01*
X019344Y014349D01*
X019351Y014337D01*
X019356Y014323D01*
X019358Y014308D01*
X019358Y014247D01*
X019359Y014247D02*
X019361Y014230D01*
X019366Y014213D01*
X019374Y014198D01*
X019385Y014185D01*
X019398Y014174D01*
X019413Y014166D01*
X019430Y014161D01*
X019447Y014159D01*
X019458Y014159D01*
X019458Y014160D02*
X019475Y014162D01*
X019492Y014167D01*
X019507Y014175D01*
X019520Y014186D01*
X019531Y014199D01*
X019539Y014214D01*
X019544Y014231D01*
X019546Y014248D01*
X019546Y014247D02*
X019546Y014314D01*
X019548Y014328D01*
X019552Y014340D01*
X019559Y014352D01*
X019569Y014362D01*
X019581Y014369D01*
X019593Y014373D01*
X019607Y014375D01*
X019607Y014374D02*
X019622Y014372D01*
X019636Y014367D01*
X019648Y014360D01*
X019659Y014349D01*
X019666Y014337D01*
X019671Y014323D01*
X019673Y014308D01*
X019673Y013966D01*
X019232Y013944D02*
X020155Y013944D01*
X020186Y013922D02*
X020186Y013315D01*
X020184Y013293D01*
X020179Y013272D01*
X020171Y013252D01*
X020160Y013234D01*
X020146Y013217D01*
X020129Y013203D01*
X020111Y013192D01*
X020091Y013184D01*
X020070Y013179D01*
X020048Y013177D01*
X020032Y013177D01*
X018586Y013111D01*
X018586Y013110D02*
X018572Y013111D01*
X018558Y013115D01*
X018547Y013123D01*
X018537Y013133D01*
X018530Y013145D01*
X018526Y013158D01*
X018525Y013172D01*
X018528Y013186D01*
X018534Y013199D01*
X018542Y013209D01*
X018554Y013218D01*
X018566Y013224D01*
X018580Y013226D01*
X019916Y013315D01*
X019915Y013314D02*
X019934Y013317D01*
X019951Y013324D01*
X019967Y013333D01*
X019981Y013346D01*
X019992Y013361D01*
X020000Y013377D01*
X020005Y013395D01*
X020006Y013414D01*
X020004Y013432D01*
X019998Y013450D01*
X019989Y013466D01*
X019977Y013480D01*
X019962Y013492D01*
X019946Y013501D01*
X019928Y013506D01*
X019910Y013508D01*
X018569Y013596D01*
X018557Y013598D01*
X018546Y013604D01*
X018537Y013612D01*
X018530Y013622D01*
X018526Y013633D01*
X018525Y013645D01*
X018525Y013646D02*
X018525Y013922D01*
X017592Y013966D02*
X017592Y014308D01*
X017590Y014323D01*
X017585Y014337D01*
X017578Y014349D01*
X017567Y014360D01*
X017555Y014367D01*
X017541Y014372D01*
X017526Y014374D01*
X017526Y014375D02*
X017512Y014373D01*
X017500Y014369D01*
X017488Y014362D01*
X017478Y014352D01*
X017471Y014340D01*
X017467Y014328D01*
X017465Y014314D01*
X017465Y014247D01*
X017463Y014230D01*
X017458Y014213D01*
X017450Y014198D01*
X017439Y014185D01*
X017426Y014174D01*
X017411Y014166D01*
X017394Y014161D01*
X017377Y014159D01*
X017366Y014159D01*
X017349Y014161D01*
X017332Y014166D01*
X017317Y014174D01*
X017304Y014185D01*
X017293Y014198D01*
X017285Y014213D01*
X017280Y014230D01*
X017278Y014247D01*
X017278Y014308D01*
X017277Y014308D02*
X017275Y014323D01*
X017270Y014337D01*
X017263Y014349D01*
X017252Y014360D01*
X017240Y014367D01*
X017226Y014372D01*
X017211Y014374D01*
X017151Y013944D02*
X017151Y013442D01*
X017153Y013420D01*
X017158Y013399D01*
X017166Y013379D01*
X017177Y013361D01*
X017191Y013344D01*
X017208Y013330D01*
X017226Y013319D01*
X017246Y013311D01*
X017267Y013306D01*
X017289Y013304D01*
X017521Y013304D01*
X018409Y012730D02*
X018409Y012150D01*
X018411Y012129D01*
X018416Y012109D01*
X018424Y012090D01*
X018434Y012072D01*
X018448Y012056D01*
X018464Y012042D01*
X018482Y012032D01*
X018501Y012024D01*
X018521Y012019D01*
X018542Y012017D01*
X018542Y012018D02*
X020126Y011935D01*
X020125Y011934D02*
X020139Y011935D01*
X020152Y011940D01*
X020163Y011948D01*
X020172Y011958D01*
X020178Y011971D01*
X020181Y011984D01*
X020180Y011998D01*
X020175Y012011D01*
X020167Y012022D01*
X020157Y012031D01*
X020144Y012037D01*
X020131Y012040D01*
X018906Y012106D01*
X018882Y012108D01*
X018858Y012113D01*
X018835Y012121D01*
X018814Y012133D01*
X018794Y012148D01*
X018777Y012165D01*
X018762Y012185D01*
X018750Y012206D01*
X018742Y012229D01*
X018737Y012253D01*
X018735Y012277D01*
X018735Y012625D01*
X018734Y012625D02*
X018736Y012649D01*
X018741Y012672D01*
X018749Y012694D01*
X018760Y012715D01*
X018775Y012734D01*
X018791Y012750D01*
X018810Y012765D01*
X018831Y012776D01*
X018853Y012784D01*
X018876Y012789D01*
X018900Y012791D01*
X018900Y012790D02*
X018928Y012790D01*
X020126Y012846D01*
X020139Y012848D01*
X020152Y012854D01*
X020163Y012863D01*
X020171Y012874D01*
X020176Y012887D01*
X020178Y012901D01*
X020176Y012915D01*
X020171Y012928D01*
X020163Y012939D01*
X020152Y012948D01*
X020139Y012954D01*
X020126Y012956D01*
X018553Y012873D01*
X018553Y012874D02*
X018530Y012872D01*
X018509Y012867D01*
X018488Y012858D01*
X018468Y012846D01*
X018451Y012832D01*
X018437Y012815D01*
X018425Y012795D01*
X018416Y012774D01*
X018411Y012753D01*
X018409Y012730D01*
X018586Y011780D02*
X020032Y011714D01*
X020048Y011714D01*
X020070Y011712D01*
X020091Y011707D01*
X020111Y011699D01*
X020129Y011688D01*
X020146Y011674D01*
X020160Y011657D01*
X020171Y011639D01*
X020179Y011619D01*
X020184Y011598D01*
X020186Y011576D01*
X020186Y010969D01*
X020155Y010947D02*
X017151Y010947D01*
X017151Y011444D01*
X017153Y011466D01*
X017158Y011488D01*
X017167Y011509D01*
X017178Y011528D01*
X017193Y011545D01*
X017210Y011560D01*
X017229Y011571D01*
X017250Y011580D01*
X017272Y011585D01*
X017294Y011587D01*
X017504Y011587D01*
X017592Y010947D02*
X017592Y010577D01*
X017593Y010577D02*
X017591Y010564D01*
X017587Y010551D01*
X017580Y010539D01*
X017570Y010529D01*
X017558Y010522D01*
X017545Y010517D01*
X017532Y010516D01*
X017531Y010516D01*
X017532Y010517D02*
X017517Y010519D01*
X017503Y010524D01*
X017491Y010531D01*
X017480Y010542D01*
X017473Y010554D01*
X017468Y010568D01*
X017466Y010583D01*
X017465Y010583D02*
X017465Y010643D01*
X017463Y010660D01*
X017458Y010677D01*
X017450Y010692D01*
X017439Y010705D01*
X017426Y010716D01*
X017411Y010724D01*
X017394Y010729D01*
X017377Y010731D01*
X017377Y010732D02*
X017366Y010732D01*
X017366Y010731D02*
X017349Y010729D01*
X017332Y010724D01*
X017317Y010716D01*
X017304Y010705D01*
X017293Y010692D01*
X017285Y010677D01*
X017280Y010660D01*
X017278Y010643D01*
X017278Y010577D01*
X017276Y010563D01*
X017272Y010551D01*
X017265Y010539D01*
X017255Y010529D01*
X017243Y010522D01*
X017231Y010518D01*
X017217Y010516D01*
X017217Y010517D02*
X017202Y010519D01*
X017188Y010524D01*
X017176Y010531D01*
X017165Y010542D01*
X017158Y010554D01*
X017153Y010568D01*
X017151Y010583D01*
X017151Y010952D01*
X018525Y010969D02*
X018525Y011245D01*
X018526Y011257D01*
X018530Y011268D01*
X018537Y011278D01*
X018546Y011286D01*
X018557Y011292D01*
X018569Y011294D01*
X018569Y011295D02*
X019910Y011383D01*
X019911Y011383D02*
X019929Y011385D01*
X019947Y011390D01*
X019963Y011399D01*
X019978Y011411D01*
X019990Y011425D01*
X019999Y011441D01*
X020005Y011459D01*
X020007Y011477D01*
X020006Y011496D01*
X020001Y011514D01*
X019993Y011530D01*
X019982Y011545D01*
X019968Y011558D01*
X019952Y011567D01*
X019935Y011574D01*
X019916Y011577D01*
X019916Y011576D02*
X018580Y011664D01*
X018566Y011666D01*
X018554Y011672D01*
X018542Y011681D01*
X018534Y011691D01*
X018528Y011704D01*
X018525Y011718D01*
X018526Y011732D01*
X018530Y011745D01*
X018537Y011757D01*
X018547Y011767D01*
X018558Y011775D01*
X018572Y011779D01*
X018586Y011780D01*
X019231Y010925D02*
X019231Y010583D01*
X019232Y010583D02*
X019234Y010568D01*
X019239Y010554D01*
X019246Y010542D01*
X019257Y010531D01*
X019269Y010524D01*
X019283Y010519D01*
X019298Y010517D01*
X019298Y010516D02*
X019312Y010518D01*
X019324Y010522D01*
X019336Y010529D01*
X019346Y010539D01*
X019353Y010551D01*
X019357Y010563D01*
X019359Y010577D01*
X019358Y010577D02*
X019358Y010643D01*
X019359Y010643D02*
X019361Y010660D01*
X019366Y010677D01*
X019374Y010692D01*
X019385Y010705D01*
X019398Y010716D01*
X019413Y010724D01*
X019430Y010729D01*
X019447Y010731D01*
X019447Y010732D02*
X019458Y010732D01*
X019458Y010731D02*
X019475Y010729D01*
X019492Y010724D01*
X019507Y010716D01*
X019520Y010705D01*
X019531Y010692D01*
X019539Y010677D01*
X019544Y010660D01*
X019546Y010643D01*
X019546Y010583D01*
X019548Y010568D01*
X019553Y010554D01*
X019560Y010542D01*
X019571Y010531D01*
X019583Y010524D01*
X019597Y010519D01*
X019612Y010517D01*
X019612Y010516D02*
X019612Y010516D01*
X019613Y010516D02*
X019626Y010517D01*
X019639Y010522D01*
X019651Y010529D01*
X019661Y010539D01*
X019668Y010551D01*
X019673Y010564D01*
X019674Y010577D01*
X019673Y010577D02*
X019673Y010947D01*
X019612Y015016D02*
X019612Y015016D01*
X019613Y015016D02*
X019626Y015017D01*
X019639Y015022D01*
X019651Y015029D01*
X019661Y015039D01*
X019668Y015051D01*
X019673Y015064D01*
X019674Y015077D01*
X019673Y015077D02*
X019673Y015447D01*
X019458Y015232D02*
X019447Y015232D01*
X019447Y015231D02*
X019430Y015229D01*
X019413Y015224D01*
X019398Y015216D01*
X019385Y015205D01*
X019374Y015192D01*
X019366Y015177D01*
X019361Y015160D01*
X019359Y015143D01*
X019358Y015143D02*
X019358Y015077D01*
X019359Y015077D02*
X019357Y015063D01*
X019353Y015051D01*
X019346Y015039D01*
X019336Y015029D01*
X019324Y015022D01*
X019312Y015018D01*
X019298Y015016D01*
X019298Y015017D02*
X019283Y015019D01*
X019269Y015024D01*
X019257Y015031D01*
X019246Y015042D01*
X019239Y015054D01*
X019234Y015068D01*
X019232Y015083D01*
X019231Y015083D02*
X019231Y015425D01*
X019458Y015231D02*
X019475Y015229D01*
X019492Y015224D01*
X019507Y015216D01*
X019520Y015205D01*
X019531Y015192D01*
X019539Y015177D01*
X019544Y015160D01*
X019546Y015143D01*
X019546Y015083D01*
X019548Y015068D01*
X019553Y015054D01*
X019560Y015042D01*
X019571Y015031D01*
X019583Y015024D01*
X019597Y015019D01*
X019612Y015017D01*
X019910Y015883D02*
X018569Y015795D01*
X018569Y015794D02*
X018557Y015792D01*
X018546Y015786D01*
X018537Y015778D01*
X018530Y015768D01*
X018526Y015757D01*
X018525Y015745D01*
X018525Y015469D01*
X018580Y016164D02*
X019916Y016076D01*
X019916Y016077D02*
X019935Y016074D01*
X019952Y016067D01*
X019968Y016058D01*
X019982Y016045D01*
X019993Y016030D01*
X020001Y016014D01*
X020006Y015996D01*
X020007Y015977D01*
X020005Y015959D01*
X019999Y015941D01*
X019990Y015925D01*
X019978Y015911D01*
X019963Y015899D01*
X019947Y015890D01*
X019929Y015885D01*
X019911Y015883D01*
X018580Y016164D02*
X018566Y016166D01*
X018554Y016172D01*
X018542Y016181D01*
X018534Y016191D01*
X018528Y016204D01*
X018525Y016218D01*
X018526Y016232D01*
X018530Y016245D01*
X018537Y016257D01*
X018547Y016267D01*
X018558Y016275D01*
X018572Y016279D01*
X018586Y016280D01*
D23*
X016542Y018320D02*
X015558Y018320D01*
X008526Y017125D02*
X008293Y017125D01*
X008468Y017300D01*
X008468Y016950D01*
X008158Y017125D02*
X007924Y017125D01*
X008100Y017300D01*
X008100Y016950D01*
X007790Y017008D02*
X007731Y016950D01*
X007614Y016950D01*
X007556Y017008D01*
X007556Y017242D01*
X007614Y017300D01*
X007731Y017300D01*
X007790Y017242D01*
X004405Y019270D02*
X000905Y019270D01*
X000905Y011370D01*
X004405Y011370D01*
X004405Y019270D01*
X003955Y018870D02*
X003955Y011770D01*
X001355Y011770D01*
X001355Y018870D01*
X003955Y018870D01*
X004405Y011020D02*
X000905Y011020D01*
X000905Y003120D01*
X004405Y003120D01*
X004405Y011020D01*
X003955Y010620D02*
X003955Y003520D01*
X001355Y003520D01*
X001355Y010620D01*
X003955Y010620D01*
X004651Y007320D02*
X004651Y001379D01*
X005305Y001379D01*
X005305Y007320D01*
X004651Y007320D01*
X005305Y007320D02*
X007905Y007320D01*
X010506Y007320D01*
X010506Y001379D01*
X011159Y001379D01*
X011159Y007320D01*
X010506Y007320D01*
X010440Y008014D02*
X011621Y008014D01*
X011739Y008132D01*
X011739Y010258D01*
X011621Y010376D01*
X010440Y010376D01*
X010321Y010258D01*
X010321Y008132D01*
X010440Y008014D01*
X011148Y008743D02*
X011030Y008861D01*
X011030Y009018D01*
X011384Y009018D01*
X011030Y009018D02*
X010676Y009018D01*
X010676Y009372D02*
X011030Y009372D01*
X011030Y009530D01*
X010912Y009648D01*
X011030Y009372D02*
X011384Y009372D01*
X011553Y008191D02*
X011555Y008201D01*
X011560Y008210D01*
X011569Y008216D01*
X011578Y008219D01*
X011589Y008218D01*
X011598Y008213D01*
X011605Y008206D01*
X011609Y008196D01*
X011609Y008186D01*
X011605Y008176D01*
X011598Y008169D01*
X011589Y008164D01*
X011578Y008163D01*
X011569Y008166D01*
X011560Y008172D01*
X011555Y008181D01*
X011553Y008191D01*
X010506Y001379D02*
X005305Y001379D01*
D24*
X016030Y018320D03*
D25*
X016424Y018074D02*
X015636Y018074D01*
X015636Y018566D02*
X016424Y018566D01*
D26*
X011030Y009195D03*
D27*
X001130Y007070D03*
X001130Y015320D03*
D28*
X002130Y015295D03*
X002130Y014295D03*
X002130Y013295D03*
X002130Y013295D03*
X003180Y013295D03*
X003180Y014295D03*
X003180Y015295D03*
X003180Y016295D03*
X003180Y017295D03*
X003180Y017295D03*
X002130Y017295D03*
X002130Y016295D03*
X002130Y009045D03*
X002130Y008045D03*
X002130Y007045D03*
X002130Y006045D03*
X002130Y005045D03*
X002130Y005045D03*
X003180Y005045D03*
X003180Y006045D03*
X003180Y007045D03*
X003180Y008045D03*
X003180Y009045D03*
X003180Y009045D03*
M02*
