G75*
G70*
%OFA0B0*%
%FSLAX24Y24*%
%IPPOS*%
%LPD*%
%AMOC8*
5,1,8,0,0,1.08239X$1,22.5*
%
%ADD10R,0.0472X0.0091*%
%ADD11R,0.0091X0.0472*%
%ADD12R,0.0276X0.0354*%
%ADD13R,0.0315X0.0315*%
%ADD14R,0.0354X0.0276*%
%ADD15R,0.0520X0.0090*%
%ADD16R,0.0090X0.0520*%
%ADD17R,0.0870X0.0870*%
%ADD18C,0.0945*%
%ADD19C,0.0591*%
%ADD20C,0.0600*%
%ADD21R,0.0315X0.1457*%
%ADD22C,0.1660*%
%ADD23R,0.0866X0.0984*%
%ADD24R,0.0787X0.0197*%
%ADD25C,0.0500*%
%ADD26R,0.0394X0.0433*%
%ADD27R,0.0472X0.0394*%
%ADD28C,0.0600*%
%ADD29R,0.0630X0.0591*%
%ADD30R,0.0248X0.2268*%
%ADD31R,0.1969X0.1575*%
%ADD32R,0.0748X0.1024*%
%ADD33R,0.0800X0.0500*%
%ADD34R,0.0433X0.0394*%
%ADD35C,0.0080*%
%ADD36C,0.0310*%
%ADD37C,0.0436*%
%ADD38C,0.0400*%
%ADD39C,0.0100*%
%ADD40C,0.0060*%
%ADD41C,0.0160*%
%ADD42C,0.0120*%
D10*
X005165Y011285D03*
X005165Y011482D03*
X005165Y011679D03*
X005165Y011875D03*
X005165Y012072D03*
X005165Y012269D03*
X005165Y012466D03*
X005165Y012663D03*
X005165Y012860D03*
X005165Y013057D03*
X005165Y013253D03*
X005165Y013450D03*
X005165Y013647D03*
X005165Y013844D03*
X005165Y014041D03*
X005165Y014238D03*
X009653Y014238D03*
X009653Y014041D03*
X009653Y013844D03*
X009653Y013647D03*
X009653Y013450D03*
X009653Y013253D03*
X009653Y013057D03*
X009653Y012860D03*
X009653Y012663D03*
X009653Y012466D03*
X009653Y012269D03*
X009653Y012072D03*
X009653Y011875D03*
X009653Y011679D03*
X009653Y011482D03*
X009653Y011285D03*
D11*
X008885Y010517D03*
X008689Y010517D03*
X008492Y010517D03*
X008295Y010517D03*
X008098Y010517D03*
X007901Y010517D03*
X007704Y010517D03*
X007507Y010517D03*
X007311Y010517D03*
X007114Y010517D03*
X006917Y010517D03*
X006720Y010517D03*
X006523Y010517D03*
X006326Y010517D03*
X006130Y010517D03*
X005933Y010517D03*
X005933Y015005D03*
X006130Y015005D03*
X006326Y015005D03*
X006523Y015005D03*
X006720Y015005D03*
X006917Y015005D03*
X007114Y015005D03*
X007311Y015005D03*
X007507Y015005D03*
X007704Y015005D03*
X007901Y015005D03*
X008098Y015005D03*
X008295Y015005D03*
X008492Y015005D03*
X008689Y015005D03*
X008885Y015005D03*
D12*
X010774Y015195D03*
X010774Y014695D03*
X010774Y014195D03*
X010774Y013695D03*
X011286Y013695D03*
X011286Y014195D03*
X011286Y014695D03*
X011286Y015195D03*
X011149Y016570D03*
X011661Y016570D03*
X012899Y018110D03*
X013411Y018110D03*
X015655Y015870D03*
X015649Y015408D03*
X016161Y015408D03*
X016167Y015870D03*
X019274Y009570D03*
X019786Y009570D03*
X019786Y008320D03*
X019274Y008320D03*
X009721Y017439D03*
X009209Y017439D03*
X006545Y017234D03*
X006033Y017234D03*
X004161Y019570D03*
X003649Y019570D03*
X002911Y019570D03*
X002399Y019570D03*
X006899Y009258D03*
X006899Y008820D03*
X007411Y008820D03*
X007411Y009258D03*
D13*
X003780Y020025D03*
X003280Y020025D03*
X002780Y020025D03*
X002780Y020616D03*
X003280Y020616D03*
X003780Y020616D03*
X017780Y020616D03*
X018218Y020616D03*
X018218Y020025D03*
X017780Y020025D03*
X019360Y008945D03*
X019950Y008945D03*
X019950Y006820D03*
X019360Y006820D03*
X019360Y006070D03*
X019950Y006070D03*
D14*
X016280Y010564D03*
X016280Y011076D03*
X015030Y010939D03*
X014530Y010939D03*
X014093Y010939D03*
X014093Y011451D03*
X014530Y011451D03*
X015030Y011451D03*
X016280Y013939D03*
X016280Y014451D03*
X014477Y016439D03*
X014477Y016951D03*
X013780Y016951D03*
X013780Y016439D03*
X013280Y016439D03*
X013280Y016951D03*
X010155Y017439D03*
X010155Y017951D03*
X011530Y012076D03*
X011530Y011564D03*
X009780Y010139D03*
X009780Y009627D03*
X011655Y007076D03*
X011655Y006564D03*
X016530Y017064D03*
X016530Y017576D03*
X004780Y020064D03*
X004780Y020576D03*
D15*
X012090Y015025D03*
X012090Y014835D03*
X012090Y014635D03*
X012090Y014435D03*
X012090Y014245D03*
X012090Y014045D03*
X012090Y013845D03*
X012090Y013645D03*
X012090Y013455D03*
X012090Y013255D03*
X012090Y013055D03*
X012090Y012865D03*
X015470Y012865D03*
X015470Y013055D03*
X015470Y013255D03*
X015470Y013455D03*
X015470Y013645D03*
X015470Y013845D03*
X015470Y014045D03*
X015470Y014245D03*
X015470Y014435D03*
X015470Y014635D03*
X015470Y014835D03*
X015470Y015025D03*
D16*
X014860Y015635D03*
X014670Y015635D03*
X014470Y015635D03*
X014270Y015635D03*
X014080Y015635D03*
X013880Y015635D03*
X013680Y015635D03*
X013480Y015635D03*
X013290Y015635D03*
X013090Y015635D03*
X012890Y015635D03*
X012700Y015635D03*
X012700Y012255D03*
X012890Y012255D03*
X013090Y012255D03*
X013290Y012255D03*
X013480Y012255D03*
X013680Y012255D03*
X013880Y012255D03*
X014080Y012255D03*
X014270Y012255D03*
X014470Y012255D03*
X014670Y012255D03*
X014860Y012255D03*
D17*
X013780Y013945D03*
D18*
X012355Y005570D03*
X018455Y005570D03*
D19*
X016655Y006870D03*
X015655Y006870D03*
X014655Y006870D03*
X013655Y006870D03*
X014155Y007870D03*
X015155Y007870D03*
X016155Y007870D03*
X017155Y007870D03*
D20*
X017555Y009770D03*
X016555Y009770D03*
X014255Y009770D03*
X013255Y009770D03*
D21*
X013461Y020323D03*
X012916Y020323D03*
X012371Y020323D03*
X011825Y020323D03*
X011280Y020323D03*
X010735Y020323D03*
X010190Y020323D03*
X009644Y020323D03*
X009099Y020323D03*
D22*
X006359Y020077D03*
X016201Y020077D03*
D23*
X017368Y018599D03*
X019454Y018599D03*
X019454Y015292D03*
X019454Y014099D03*
X017368Y014099D03*
X017368Y015292D03*
X017368Y010792D03*
X019454Y010792D03*
D24*
X017269Y011815D03*
X017269Y012130D03*
X017269Y012445D03*
X017269Y012760D03*
X017269Y013075D03*
X017269Y016315D03*
X017269Y016630D03*
X017269Y016945D03*
X017269Y017260D03*
X017269Y017575D03*
D25*
X015655Y012195D03*
D26*
X012155Y012155D03*
X012155Y011486D03*
D27*
X015597Y018320D03*
X016463Y018320D03*
D28*
X006780Y018370D02*
X006780Y017770D01*
X005780Y017770D02*
X005780Y018370D01*
X005543Y008945D02*
X006143Y008945D01*
X006143Y007945D02*
X005543Y007945D01*
X019230Y004570D02*
X019830Y004570D01*
X019830Y003570D02*
X019230Y003570D01*
D29*
X011897Y017118D03*
X011897Y018023D03*
X010913Y018023D03*
X010913Y017118D03*
D30*
X009155Y007320D03*
X008655Y007320D03*
X008155Y007320D03*
X007655Y007320D03*
X007155Y007320D03*
X006655Y007320D03*
D31*
X005405Y002710D03*
X010405Y002710D03*
D32*
X010479Y008132D03*
X011581Y008132D03*
X011581Y010258D03*
X010479Y010258D03*
D33*
X003905Y009070D03*
X003905Y008070D03*
X003905Y007070D03*
X003905Y006070D03*
X003905Y005070D03*
X001405Y005070D03*
X001405Y006070D03*
X001405Y007070D03*
X001405Y008070D03*
X001405Y009070D03*
X001405Y013320D03*
X001405Y014320D03*
X001405Y015320D03*
X001405Y016320D03*
X001405Y017320D03*
X003905Y017320D03*
X003905Y016320D03*
X003905Y015320D03*
X003905Y014320D03*
X003905Y013320D03*
D34*
X007761Y016635D03*
X008431Y016635D03*
D35*
X008431Y016246D01*
X008382Y016198D01*
X008655Y016252D02*
X008655Y015758D01*
X008530Y015633D01*
X008530Y015633D01*
X008295Y015398D01*
X008295Y015005D01*
X008492Y015005D02*
X008492Y015344D01*
X008718Y015570D01*
X008968Y015570D01*
X009343Y015945D01*
X009468Y015695D02*
X009780Y015695D01*
X009468Y015695D02*
X009155Y015383D01*
X008780Y015383D01*
X008689Y015291D01*
X008689Y015005D01*
X008885Y015005D02*
X009028Y015005D01*
X009343Y015320D01*
X009405Y015383D01*
X010343Y015383D01*
X010530Y015570D01*
X011905Y015570D01*
X011968Y015883D02*
X013030Y016945D01*
X013274Y016945D01*
X013280Y016951D01*
X013086Y017258D02*
X011898Y016070D01*
X010294Y016070D01*
X009731Y016633D01*
X009690Y016675D01*
X009277Y016675D01*
X008844Y017108D01*
X007427Y017108D01*
X007191Y016871D01*
X007191Y016596D01*
X007072Y016478D01*
X006915Y016478D01*
X006639Y016202D01*
X006639Y015809D01*
X006523Y015692D01*
X006523Y015005D01*
X006326Y015005D02*
X006326Y016283D01*
X007309Y017265D01*
X008923Y017265D01*
X009356Y016832D01*
X009789Y016832D01*
X010380Y016242D01*
X011836Y016242D01*
X013017Y017423D01*
X013883Y017423D01*
X014120Y017186D01*
X014120Y016242D01*
X014270Y016091D01*
X014270Y015635D01*
X014270Y015250D01*
X013805Y014785D01*
X012702Y014785D01*
X012506Y014982D01*
X012506Y015139D01*
X012700Y015262D02*
X012852Y015110D01*
X012700Y015262D02*
X012700Y015635D01*
X012890Y015635D02*
X012890Y015960D01*
X012655Y016195D01*
X013280Y016195D02*
X013280Y016439D01*
X013280Y016195D02*
X013480Y015995D01*
X013480Y015635D01*
X013680Y015635D02*
X013680Y016095D01*
X013780Y016195D01*
X013780Y016439D01*
X013780Y016951D02*
X013780Y017133D01*
X013655Y017258D01*
X013086Y017258D01*
X013069Y017688D02*
X014051Y017688D01*
X014474Y017265D01*
X014474Y016954D01*
X014477Y016951D01*
X014477Y016439D02*
X014470Y016433D01*
X014470Y015635D01*
X014080Y015635D02*
X014080Y015370D01*
X013780Y015070D01*
X013405Y015070D01*
X014530Y014820D02*
X014780Y015070D01*
X014860Y015150D01*
X014860Y015635D01*
X015402Y015635D01*
X015655Y015870D01*
X015649Y015408D02*
X015470Y015266D01*
X015470Y015025D01*
X015470Y014835D01*
X015045Y014835D01*
X014905Y014695D01*
X014530Y014820D02*
X014530Y013195D01*
X013905Y013195D01*
X013905Y012814D01*
X013680Y012589D01*
X013680Y012255D01*
X013480Y012255D02*
X013480Y011270D01*
X013280Y011070D01*
X013280Y010695D01*
X013780Y010195D01*
X014830Y010195D01*
X017155Y007870D01*
X016155Y007870D02*
X015330Y008695D01*
X014155Y008695D01*
X013780Y009070D01*
X013780Y009945D01*
X013093Y010633D01*
X013093Y011195D01*
X013290Y011393D01*
X013290Y012255D01*
X013090Y012255D02*
X013090Y012630D01*
X013280Y012820D01*
X013549Y012820D01*
X013905Y013195D02*
X013030Y013195D01*
X012155Y012320D01*
X012155Y012155D01*
X012133Y012133D01*
X011905Y012133D01*
X011849Y012076D01*
X011530Y012076D01*
X011218Y012383D02*
X010938Y012663D01*
X009653Y012663D01*
X009653Y012860D02*
X009069Y012860D01*
X009030Y012820D01*
X009030Y012320D02*
X009081Y012269D01*
X009653Y012269D01*
X009653Y012466D02*
X010759Y012466D01*
X011030Y012195D01*
X011030Y011445D01*
X010530Y010945D01*
X010530Y010309D01*
X010479Y010258D01*
X010359Y010139D01*
X009780Y010139D01*
X009780Y009627D02*
X010349Y009627D01*
X010530Y009445D01*
X009968Y008945D02*
X009968Y005633D01*
X008968Y004633D01*
X006780Y004633D01*
X006280Y005133D01*
X004968Y005133D01*
X004530Y005570D01*
X003780Y005570D01*
X003905Y005070D02*
X004218Y004570D01*
X003968Y004195D02*
X004655Y004195D01*
X005405Y004945D01*
X006218Y004945D01*
X006718Y004445D01*
X009030Y004445D01*
X009655Y005070D01*
X010655Y005070D01*
X009780Y005695D02*
X009780Y008820D01*
X008689Y009912D01*
X008689Y010517D01*
X008885Y010517D02*
X008885Y010028D01*
X009968Y008945D01*
X009593Y008695D02*
X008218Y010070D01*
X008218Y010070D01*
X008098Y010190D01*
X008098Y010517D01*
X007901Y010517D02*
X007901Y010074D01*
X009405Y008570D01*
X009405Y005945D01*
X008655Y005195D01*
X007093Y005195D01*
X006405Y005883D01*
X006405Y006883D01*
X006280Y007008D01*
X006286Y007252D01*
X006655Y007320D02*
X006655Y008383D01*
X006593Y008445D01*
X006593Y008570D01*
X006405Y008570D01*
X006280Y008445D01*
X004843Y008445D01*
X004718Y008570D01*
X003405Y008570D01*
X002780Y009195D01*
X002780Y009758D01*
X002905Y009883D01*
X003093Y010133D02*
X002030Y011195D01*
X002030Y016133D01*
X001843Y016320D01*
X001405Y016320D01*
X003093Y016070D02*
X003280Y015883D01*
X005280Y015883D01*
X005436Y015758D01*
X005705Y015870D02*
X005468Y016108D01*
X005468Y016570D01*
X005780Y016883D01*
X005780Y018070D01*
X006033Y017234D02*
X006009Y017210D01*
X006009Y016871D01*
X005655Y016517D01*
X005655Y016508D01*
X005655Y016508D01*
X005655Y016133D01*
X005905Y015883D01*
X005905Y015445D01*
X005593Y015133D01*
X004718Y015133D01*
X003905Y014320D01*
X003843Y014258D01*
X003843Y014070D01*
X003530Y013758D01*
X003530Y013758D01*
X003468Y013695D01*
X003218Y013695D01*
X002968Y013445D01*
X002718Y013195D01*
X002718Y010958D01*
X003530Y010145D01*
X003655Y009883D02*
X003280Y009883D01*
X003093Y009633D02*
X003093Y009633D01*
X003280Y009439D01*
X005349Y009439D01*
X005718Y009508D02*
X005405Y009820D01*
X004686Y009820D01*
X004480Y009620D01*
X003980Y009620D01*
X003843Y009758D01*
X003905Y009695D01*
X003655Y009883D02*
X003830Y010058D01*
X003843Y010070D01*
X003843Y010258D01*
X003780Y010320D01*
X003780Y010320D01*
X003280Y010820D01*
X003280Y011883D01*
X003530Y012133D01*
X003843Y012133D01*
X004766Y013057D01*
X005165Y013057D01*
X005165Y013253D02*
X004713Y013253D01*
X004280Y012820D01*
X003968Y012820D01*
X003905Y013320D02*
X003593Y013320D01*
X003280Y013320D01*
X002968Y013445D02*
X002968Y013445D01*
X004030Y013758D02*
X004030Y013820D01*
X004093Y013883D01*
X004468Y013883D01*
X004703Y013647D01*
X005165Y013647D01*
X005165Y013450D02*
X005660Y013450D01*
X005780Y013570D01*
X005972Y013253D02*
X006030Y013195D01*
X005972Y013253D02*
X005165Y013253D01*
X005165Y012663D02*
X005498Y012663D01*
X005655Y012808D01*
X007155Y012808D01*
X007155Y012433D02*
X007905Y012433D01*
X009218Y011070D01*
X008968Y010945D02*
X009155Y010758D01*
X009718Y010758D01*
X009905Y010945D01*
X009968Y011195D02*
X009878Y011285D01*
X009653Y011285D01*
X009653Y011482D02*
X010067Y011482D01*
X010118Y011508D01*
X009968Y011195D02*
X010343Y011195D01*
X010411Y011252D01*
X010336Y011820D02*
X010225Y011875D01*
X009653Y011875D01*
X009653Y011679D02*
X009155Y011679D01*
X009030Y011695D01*
X008343Y011633D02*
X008343Y011258D01*
X008343Y011258D01*
X008093Y011008D02*
X008030Y011008D01*
X008093Y011008D02*
X008295Y010806D01*
X008295Y010517D01*
X008492Y010517D02*
X008492Y010844D01*
X008593Y010945D01*
X008968Y010945D01*
X008343Y011633D02*
X008093Y011633D01*
X008093Y011633D01*
X007530Y011633D01*
X007468Y011570D01*
X007468Y011570D01*
X006720Y010823D01*
X006720Y010517D01*
X006523Y010517D02*
X006523Y010876D01*
X007593Y011945D01*
X007780Y011945D01*
X007843Y012258D02*
X008093Y012008D01*
X008343Y011758D01*
X008343Y011633D01*
X007718Y011320D02*
X007704Y011146D01*
X007704Y010517D01*
X007507Y010517D02*
X007507Y010905D01*
X007405Y011008D01*
X007311Y010517D02*
X007311Y010227D01*
X007530Y010064D01*
X007930Y009720D02*
X008655Y009008D01*
X008655Y007320D01*
X008155Y007320D02*
X008155Y008445D01*
X008468Y008758D01*
X008468Y008945D01*
X007855Y009558D01*
X006618Y009558D01*
X006468Y009708D01*
X005780Y009708D01*
X005468Y010008D01*
X004905Y010008D01*
X004280Y010602D01*
X004932Y011285D01*
X005165Y011285D01*
X005165Y011482D02*
X005494Y011482D01*
X005593Y011383D01*
X005593Y011258D01*
X005030Y010695D01*
X005030Y010320D01*
X005155Y010195D01*
X005530Y010195D01*
X005843Y009883D01*
X006530Y009883D01*
X006693Y009720D01*
X007930Y009720D01*
X007718Y009258D02*
X008155Y008820D01*
X007718Y009258D02*
X007655Y009258D01*
X007411Y009258D01*
X007411Y008820D02*
X007343Y008814D01*
X007343Y008695D01*
X007280Y008633D01*
X007280Y008633D01*
X007155Y008508D01*
X007155Y007320D01*
X007155Y006008D01*
X007468Y005695D01*
X007655Y005508D01*
X007655Y005945D02*
X007655Y007320D01*
X006593Y008570D02*
X006593Y008695D01*
X006718Y008820D01*
X006899Y008820D01*
X006899Y009258D02*
X006593Y009258D01*
X006337Y009002D01*
X006337Y008945D01*
X005843Y008945D01*
X005718Y009508D02*
X006280Y009508D01*
X006368Y009427D01*
X006780Y010133D02*
X005843Y010133D01*
X005530Y010445D01*
X005349Y010452D01*
X005718Y011008D02*
X006780Y012070D01*
X007218Y012070D01*
X007405Y012258D01*
X007843Y012258D01*
X008161Y013333D02*
X009343Y014508D01*
X009605Y014770D01*
X010080Y014770D01*
X010593Y014258D01*
X010712Y014258D01*
X010774Y014195D01*
X010774Y013695D02*
X010343Y013695D01*
X010150Y013450D02*
X010280Y013320D01*
X011155Y013320D01*
X011280Y013445D01*
X011280Y013689D01*
X011286Y013695D01*
X011530Y013695D01*
X011680Y013845D01*
X012090Y013845D01*
X012090Y014435D02*
X011770Y014435D01*
X011530Y014195D01*
X011286Y014195D01*
X011286Y014695D02*
X011530Y014695D01*
X011590Y014635D01*
X012090Y014635D01*
X012090Y014835D02*
X011765Y014835D01*
X011405Y015195D01*
X011286Y015195D01*
X010774Y015195D02*
X009530Y015195D01*
X008030Y013695D01*
X006568Y013695D01*
X006025Y014238D01*
X005165Y014238D01*
X005165Y014041D02*
X005997Y014041D01*
X006530Y013508D01*
X008093Y013508D01*
X009593Y015008D01*
X010462Y015008D01*
X010774Y014695D01*
X010155Y014070D02*
X010126Y014041D01*
X009653Y014041D01*
X009653Y014238D02*
X009653Y014318D01*
X009843Y014508D01*
X009653Y013844D02*
X009241Y013844D01*
X009155Y013820D01*
X009653Y013450D02*
X010150Y013450D01*
X010097Y013253D02*
X010343Y013008D01*
X010343Y013008D01*
X010155Y013195D01*
X010097Y013253D02*
X009653Y013253D01*
X008161Y013333D02*
X006449Y013333D01*
X005944Y013844D01*
X005165Y013844D01*
X005933Y014543D02*
X006030Y014445D01*
X006211Y014445D01*
X006468Y014508D02*
X006468Y014070D01*
X006655Y013883D01*
X007843Y013883D01*
X008155Y014195D01*
X008098Y015005D02*
X008098Y015502D01*
X008093Y015554D01*
X008086Y015600D01*
X007820Y015454D02*
X007820Y015769D01*
X007978Y015927D01*
X007978Y016127D01*
X007984Y016133D01*
X007663Y016537D02*
X007663Y015572D01*
X007507Y015417D01*
X007507Y015005D01*
X007311Y015005D02*
X007311Y014538D01*
X007155Y014383D01*
X006905Y014508D02*
X006843Y014445D01*
X006780Y014383D01*
X006780Y014258D01*
X006843Y014445D02*
X006843Y014445D01*
X006905Y014508D02*
X006905Y014508D01*
X007114Y014716D01*
X007114Y015005D01*
X007114Y015279D01*
X007405Y015570D01*
X007405Y015758D01*
X007093Y015570D02*
X007093Y016014D01*
X006836Y016163D02*
X006994Y016320D01*
X007191Y016320D01*
X007348Y016478D01*
X007348Y016793D01*
X007506Y016950D01*
X008765Y016950D01*
X009198Y016517D01*
X009597Y016517D01*
X010231Y015883D01*
X011968Y015883D01*
X011780Y016570D02*
X011905Y016695D01*
X011905Y017235D01*
X011897Y017118D01*
X011913Y017133D01*
X012343Y017133D01*
X012593Y017383D01*
X012593Y017508D01*
X012860Y018070D02*
X012899Y018110D01*
X012860Y018070D02*
X011944Y018070D01*
X011897Y018023D01*
X011968Y018508D02*
X012405Y018945D01*
X012405Y019934D01*
X012371Y020323D01*
X011825Y020323D02*
X011825Y018991D01*
X011530Y018695D01*
X011030Y018695D01*
X010780Y018945D01*
X010780Y019924D01*
X010735Y020323D01*
X010190Y020323D02*
X010190Y018980D01*
X010155Y018945D01*
X010280Y018633D02*
X009843Y018633D01*
X009644Y018831D01*
X009644Y020323D01*
X009099Y020323D01*
X009280Y018820D02*
X009280Y018195D01*
X008999Y017977D02*
X009198Y017777D01*
X009198Y017450D01*
X009209Y017439D01*
X008780Y017620D02*
X008780Y017695D01*
X008655Y017820D01*
X008655Y018195D01*
X008074Y018777D01*
X008073Y018777D01*
X007899Y019194D02*
X007427Y018722D01*
X007427Y017620D01*
X006718Y016911D01*
X006285Y016911D01*
X006009Y016635D01*
X006009Y016005D01*
X006130Y015885D01*
X006130Y015846D01*
X006129Y015858D01*
X006130Y015846D02*
X006130Y015005D01*
X005933Y015005D02*
X005933Y014543D01*
X006468Y014508D02*
X006593Y014633D01*
X006780Y014633D01*
X006917Y014770D01*
X006917Y015005D01*
X006917Y015395D01*
X007093Y015570D01*
X006836Y015689D02*
X006720Y015573D01*
X006718Y015575D01*
X006720Y015573D02*
X006720Y015005D01*
X006836Y015689D02*
X006836Y016163D01*
X007663Y016537D02*
X007761Y016635D01*
X006797Y017305D02*
X006797Y018054D01*
X006780Y018070D01*
X006797Y017305D02*
X006726Y017234D01*
X006545Y017234D01*
X005405Y017133D02*
X004655Y017133D01*
X004280Y016758D01*
X003155Y016758D01*
X003093Y016695D01*
X003093Y016695D01*
X003155Y017508D02*
X003155Y017758D01*
X003468Y018070D01*
X004405Y018070D01*
X005218Y018883D01*
X005218Y020383D01*
X005030Y020570D01*
X004786Y020570D01*
X004780Y020576D01*
X004280Y020570D02*
X004235Y020616D01*
X003780Y020616D01*
X003280Y020616D01*
X002780Y020616D01*
X002780Y020025D02*
X002780Y019945D01*
X002905Y019576D02*
X002911Y019570D01*
X003280Y019695D02*
X003280Y020025D01*
X003280Y019695D02*
X003405Y019570D01*
X003649Y019570D01*
X003780Y020025D02*
X004741Y020025D01*
X004780Y020064D01*
X004161Y019570D02*
X004155Y019564D01*
X004155Y019258D01*
X004280Y019133D01*
X004280Y018883D01*
X004280Y018570D01*
X003968Y018258D01*
X003218Y018258D01*
X003093Y018133D01*
X002405Y018945D02*
X002405Y019564D01*
X005705Y015870D02*
X005705Y015495D01*
X005530Y015320D01*
X003905Y015320D01*
X004555Y012470D02*
X004155Y012070D01*
X004280Y011695D02*
X003655Y011695D01*
X003593Y011758D01*
X004280Y011695D02*
X004657Y012072D01*
X005165Y012072D01*
X005165Y011875D02*
X005475Y011875D01*
X005718Y011633D01*
X005718Y012070D02*
X005519Y012269D01*
X005165Y012269D01*
X005165Y012466D02*
X005759Y012466D01*
X005780Y012445D01*
X005143Y012470D02*
X004555Y012470D01*
X004645Y011679D02*
X003999Y011033D01*
X004645Y011679D02*
X005165Y011679D01*
X005718Y011008D02*
X005718Y011008D01*
X006326Y011117D02*
X006326Y010517D01*
X006917Y010517D02*
X006917Y010270D01*
X006780Y010133D01*
X006326Y011117D02*
X006718Y011508D01*
X009593Y008695D02*
X009593Y005820D01*
X008780Y005008D01*
X006968Y005008D01*
X006218Y005758D01*
X006218Y006508D01*
X005905Y006820D01*
X005549Y006820D01*
X005405Y007070D02*
X005843Y007508D01*
X005843Y007945D01*
X005405Y007070D02*
X003905Y007070D01*
X003030Y007258D02*
X003030Y005945D01*
X003905Y006070D02*
X004530Y006070D01*
X004905Y005695D01*
X005655Y005695D01*
X006068Y005633D02*
X006843Y004820D01*
X008905Y004820D01*
X009780Y005695D01*
X011655Y006070D02*
X011655Y006564D01*
X011655Y007076D02*
X011655Y008059D01*
X011581Y008132D01*
X011655Y008206D01*
X011655Y008945D01*
X011030Y009570D01*
X011030Y010945D01*
X011218Y011133D01*
X011218Y012383D01*
X011530Y011564D02*
X011786Y011564D01*
X011843Y011508D01*
X012133Y011508D01*
X012155Y011486D01*
X012155Y010945D01*
X012700Y010365D02*
X012530Y010195D01*
X012530Y008820D01*
X014405Y006945D01*
X014580Y006945D01*
X014655Y006870D01*
X015405Y006945D02*
X014655Y007695D01*
X014655Y008070D01*
X014280Y008445D01*
X013530Y008445D01*
X012780Y009195D01*
X012780Y010070D01*
X012890Y010180D01*
X012890Y012255D01*
X012700Y012255D02*
X012700Y010365D01*
X013655Y010752D02*
X013655Y011695D01*
X013880Y011920D01*
X013880Y012255D01*
X014080Y012255D02*
X014080Y011495D01*
X014093Y011445D01*
X014093Y011451D01*
X014530Y011451D02*
X014530Y011695D01*
X014270Y011955D01*
X014270Y012255D01*
X014470Y012255D02*
X014470Y012630D01*
X014405Y012820D01*
X014670Y013055D02*
X014530Y013195D01*
X014670Y013055D02*
X014670Y012255D01*
X014860Y012255D02*
X014860Y011990D01*
X015030Y011820D01*
X015030Y011451D01*
X015530Y011695D02*
X015530Y010320D01*
X015843Y010695D02*
X015843Y010883D01*
X016030Y011070D01*
X016274Y011070D01*
X016280Y011076D01*
X016655Y011258D02*
X016655Y010320D01*
X017155Y009820D01*
X017505Y009820D01*
X017555Y009770D01*
X016555Y009770D02*
X016280Y010045D01*
X016280Y010564D01*
X016655Y011258D02*
X016218Y011695D01*
X016218Y012758D01*
X015920Y013055D01*
X015470Y013055D01*
X015470Y012865D02*
X015470Y012755D01*
X015655Y012570D01*
X015655Y012195D01*
X015530Y011695D02*
X015030Y012195D01*
X015030Y013320D01*
X015165Y013455D01*
X015470Y013455D01*
X015470Y013255D02*
X016340Y013255D01*
X016530Y013445D01*
X017843Y013445D01*
X017968Y013570D01*
X018655Y013570D01*
X019030Y013195D01*
X018030Y012570D02*
X017840Y012760D01*
X017269Y012760D01*
X017269Y012445D02*
X016530Y012445D01*
X016590Y012130D02*
X016530Y012070D01*
X016590Y012130D02*
X017269Y012130D01*
X017264Y011820D02*
X017269Y011815D01*
X017264Y011820D02*
X016843Y011820D01*
X016655Y011633D01*
X016655Y011633D01*
X016655Y013070D02*
X016660Y013075D01*
X017269Y013075D01*
X016530Y013945D02*
X016286Y013945D01*
X016280Y013939D01*
X016274Y013945D01*
X016030Y013945D01*
X015930Y013845D01*
X015470Y013845D01*
X015470Y014045D02*
X015130Y014045D01*
X014905Y013820D01*
X014905Y013695D01*
X014905Y014195D02*
X014955Y014245D01*
X015470Y014245D01*
X015830Y014245D01*
X016030Y014445D01*
X016274Y014445D01*
X016280Y014451D01*
X015970Y014635D02*
X016155Y014820D01*
X016280Y014820D01*
X016655Y015195D01*
X016655Y016320D01*
X014905Y018070D01*
X013450Y018070D01*
X013411Y018110D01*
X013411Y018801D01*
X012978Y019234D01*
X012663Y019234D01*
X011968Y018508D02*
X010405Y018508D01*
X010280Y018633D01*
X010155Y018320D02*
X010155Y017951D01*
X010155Y017945D01*
X010161Y017945D02*
X010835Y017945D01*
X010913Y018023D01*
X010913Y017118D01*
X011149Y016570D02*
X010530Y016570D01*
X010405Y016695D01*
X010155Y017070D02*
X010155Y017439D01*
X009721Y017439D01*
X010161Y017945D02*
X010155Y017951D01*
X011280Y018968D02*
X011280Y020323D01*
X008999Y017977D02*
X008943Y017977D01*
X008868Y016465D02*
X008655Y016252D01*
X007820Y015454D02*
X007704Y015338D01*
X007704Y015005D01*
X009343Y015320D02*
X009343Y015320D01*
X011661Y016570D02*
X011780Y016570D01*
X013780Y013945D02*
X013780Y013820D01*
X015470Y014635D02*
X015970Y014635D01*
X015968Y015008D02*
X016161Y015201D01*
X016161Y015408D01*
X016167Y015870D02*
X016155Y015951D01*
X016155Y016320D01*
X016530Y016695D02*
X016905Y016320D01*
X017264Y016320D01*
X017269Y016315D01*
X017269Y016630D02*
X017715Y016630D01*
X017843Y016758D01*
X018343Y016758D01*
X018030Y017070D02*
X017905Y016945D01*
X017269Y016945D01*
X017269Y017575D02*
X016531Y017575D01*
X016530Y017576D01*
X016161Y017576D01*
X016093Y017570D01*
X015780Y017445D02*
X016161Y017064D01*
X016530Y017064D01*
X016530Y016695D01*
X015780Y017445D02*
X015780Y017695D01*
X016405Y018320D01*
X016405Y018387D01*
X016463Y018320D01*
X015597Y018320D02*
X015530Y018512D01*
X015530Y018820D01*
X017468Y019570D02*
X018155Y018945D01*
X018155Y018383D01*
X018836Y017702D01*
X019161Y017702D01*
X018905Y019445D02*
X018905Y019633D01*
X018530Y020008D01*
X018530Y020508D01*
X018422Y020616D01*
X018218Y020616D01*
X017780Y020616D02*
X017700Y020616D01*
X017468Y020383D01*
X017468Y019570D01*
X017780Y019695D02*
X017780Y020025D01*
X017780Y019695D02*
X017905Y019570D01*
X018218Y019758D02*
X018218Y020025D01*
X018218Y019758D02*
X018405Y019570D01*
X016718Y014695D02*
X016718Y014133D01*
X016530Y013945D01*
X015030Y010939D02*
X015030Y010570D01*
X014530Y010570D02*
X014530Y010939D01*
X014093Y010939D01*
X015405Y006945D02*
X015580Y006945D01*
X015655Y006870D01*
X018905Y006195D02*
X019030Y006070D01*
X019360Y006070D01*
X019950Y006070D02*
X019950Y005366D01*
X019530Y004945D01*
X019530Y004570D01*
X019950Y006070D02*
X019950Y006820D01*
X019360Y006820D02*
X019360Y007275D01*
X019780Y007695D01*
X019405Y007820D02*
X019280Y007820D01*
X019405Y007820D02*
X019786Y008201D01*
X019786Y008320D01*
X019274Y008320D02*
X019280Y008201D01*
X019280Y008570D01*
X019360Y008650D01*
X019360Y008945D01*
X019780Y009320D02*
X019780Y009439D01*
X019786Y009570D01*
X019780Y009451D01*
X019780Y010070D01*
X019280Y010070D02*
X019274Y010064D01*
X019274Y009570D01*
X019780Y009320D02*
X019950Y009150D01*
X019950Y008945D01*
X006068Y006289D02*
X006068Y005633D01*
X006068Y006289D02*
X005843Y006508D01*
X005349Y006508D01*
X003218Y004258D02*
X003030Y004258D01*
X002718Y004570D01*
X002718Y007195D01*
X001843Y008070D01*
X001405Y008070D01*
X002093Y008195D02*
X003030Y007258D01*
X003155Y008383D02*
X002280Y009258D01*
X002280Y010195D01*
X002218Y010258D01*
X002218Y010258D01*
X001968Y010508D01*
X001961Y010508D01*
X001655Y010883D02*
X001718Y010945D01*
X001655Y010883D02*
X001655Y010008D01*
X002093Y009570D01*
X002093Y008195D01*
X001405Y005070D02*
X001405Y004570D01*
X001218Y012820D02*
X001405Y013008D01*
X001405Y013320D01*
D36*
X002530Y002195D03*
X004030Y001945D03*
X003218Y004258D03*
X003093Y004695D03*
X003030Y005195D03*
X003030Y005945D03*
X003780Y005570D03*
X004218Y004570D03*
X005405Y005389D03*
X005655Y005695D03*
X005905Y005389D03*
X005599Y006195D03*
X005349Y006508D03*
X005549Y006820D03*
X006286Y007252D03*
X007655Y005945D03*
X007655Y005508D03*
X008905Y003445D03*
X010655Y005070D03*
X010343Y005820D03*
X010343Y006320D03*
X011655Y006070D03*
X011530Y004445D03*
X013780Y002195D03*
X014155Y005133D03*
X013030Y007820D03*
X014405Y009008D03*
X015530Y010320D03*
X015843Y010695D03*
X015030Y010570D03*
X014530Y010570D03*
X013655Y010752D03*
X012155Y010945D03*
X010686Y012008D03*
X010336Y011820D03*
X010118Y011508D03*
X010411Y011252D03*
X009905Y010945D03*
X009218Y011070D03*
X009030Y011695D03*
X009030Y012320D03*
X009030Y012820D03*
X008936Y013420D03*
X009155Y013820D03*
X009843Y014508D03*
X010155Y014070D03*
X010343Y013695D03*
X010343Y013008D03*
X011530Y012820D03*
X012655Y013820D03*
X013093Y013820D03*
X013780Y013820D03*
X013549Y012820D03*
X014405Y012820D03*
X014905Y013695D03*
X014905Y014195D03*
X014905Y014695D03*
X014780Y015070D03*
X015280Y016070D03*
X016155Y016320D03*
X016093Y017570D03*
X015530Y018820D03*
X013780Y018945D03*
X013030Y018758D03*
X012663Y019234D03*
X013069Y017688D03*
X012593Y017508D03*
X012655Y016195D03*
X012343Y015883D03*
X011905Y015570D03*
X012852Y015110D03*
X013405Y015070D03*
X015968Y015008D03*
X016718Y014695D03*
X016155Y013564D03*
X016655Y013070D03*
X016530Y012445D03*
X016530Y012070D03*
X016655Y011633D03*
X018030Y012570D03*
X019030Y013195D03*
X018093Y015008D03*
X017405Y016002D03*
X018030Y017070D03*
X018343Y016758D03*
X019161Y017702D03*
X018905Y019445D03*
X018405Y019570D03*
X017905Y019570D03*
X011280Y018968D03*
X010155Y018945D03*
X010155Y018320D03*
X009655Y017945D03*
X009280Y018195D03*
X008943Y017977D03*
X008780Y017620D03*
X008868Y016465D03*
X008382Y016198D03*
X007984Y016133D03*
X008086Y015600D03*
X007405Y015758D03*
X007093Y016014D03*
X007155Y014383D03*
X006780Y014258D03*
X006211Y014445D03*
X005468Y014820D03*
X005436Y015758D03*
X005405Y017133D03*
X004155Y017808D03*
X003155Y017508D03*
X003030Y017070D03*
X003093Y016695D03*
X003093Y016070D03*
X003280Y015064D03*
X003161Y014464D03*
X003155Y014070D03*
X003280Y013320D03*
X003218Y012695D03*
X003030Y012320D03*
X003593Y011758D03*
X004155Y012070D03*
X003968Y012820D03*
X004030Y013820D03*
X005780Y013570D03*
X006030Y013195D03*
X006593Y013070D03*
X007155Y012808D03*
X007155Y012433D03*
X007780Y011945D03*
X007718Y011320D03*
X007405Y011008D03*
X008030Y011008D03*
X008343Y011258D03*
X007530Y010064D03*
X007099Y010045D03*
X006368Y009427D03*
X005349Y009439D03*
X005349Y010452D03*
X005718Y011008D03*
X005718Y011633D03*
X005718Y012070D03*
X005780Y012445D03*
X006718Y011508D03*
X004280Y010602D03*
X004105Y010239D03*
X004280Y009883D03*
X003905Y009695D03*
X003530Y010145D03*
X003093Y010133D03*
X003093Y009633D03*
X003218Y009133D03*
X003155Y008383D03*
X003030Y007820D03*
X003536Y007577D03*
X004280Y007570D03*
X001961Y010133D03*
X001961Y010508D03*
X001655Y010883D03*
X001218Y012820D03*
X003718Y010758D03*
X003999Y011033D03*
X007655Y014383D03*
X008155Y014195D03*
X009343Y015945D03*
X009780Y015695D03*
X010405Y016695D03*
X010155Y017070D03*
X009280Y018820D03*
X008073Y018777D03*
X007899Y019194D03*
X005218Y018883D03*
X004280Y018883D03*
X003093Y018133D03*
X002405Y018945D03*
X004280Y020570D03*
X010530Y009445D03*
X010530Y009008D03*
X008155Y008820D03*
X001405Y004570D03*
X016155Y009320D03*
X017280Y008570D03*
X018780Y007695D03*
X019280Y007820D03*
X019780Y007695D03*
X018905Y006195D03*
X019280Y005195D03*
X017655Y005445D03*
X019280Y010070D03*
X019780Y010070D03*
D37*
X015155Y005195D03*
X015530Y003695D03*
X016155Y003445D03*
X016780Y003445D03*
X015530Y002695D03*
X012905Y002195D03*
D38*
X015155Y005195D02*
X015468Y005195D01*
X016155Y004508D01*
X016155Y003445D01*
D39*
X013780Y018945D02*
X013593Y018945D01*
X013461Y019077D01*
X013461Y020323D01*
X002405Y019564D02*
X002399Y019570D01*
D40*
X002780Y019883D02*
X002905Y019758D01*
X002905Y019576D01*
X002780Y019883D02*
X002780Y019945D01*
X005165Y013057D02*
X005731Y013057D01*
X005843Y012945D01*
X006155Y012945D01*
X006280Y013070D01*
X006593Y013070D01*
X005165Y011482D02*
X004810Y011482D01*
X004086Y010758D01*
X003718Y010758D01*
X003280Y009883D02*
X002905Y009883D01*
X003405Y008570D02*
X003405Y007883D01*
X003286Y007714D01*
X003286Y005733D01*
X003286Y004889D01*
X003093Y004695D01*
X003411Y004764D02*
X003968Y004195D01*
X003411Y004764D02*
X003411Y007452D01*
X003536Y007577D01*
X003905Y007070D02*
X003905Y006695D01*
X004093Y006508D01*
X004530Y006508D01*
X005093Y005945D01*
X005780Y005945D01*
X005905Y005820D01*
X005905Y005389D01*
X009653Y012072D02*
X010528Y012072D01*
X010686Y012008D01*
D41*
X014655Y005945D02*
X014155Y005445D01*
X014155Y005133D01*
X014155Y005133D01*
X014155Y002008D01*
X014093Y001945D01*
X014093Y001945D01*
X013780Y001633D01*
X003093Y001633D01*
X002530Y002195D01*
X014655Y005945D02*
X017030Y005945D01*
X018780Y007695D01*
X018780Y009633D01*
X018155Y010258D01*
X018155Y011133D01*
D42*
X017780Y011508D01*
X017405Y011508D01*
X017269Y011644D01*
X017269Y011815D01*
M02*
