G75*
G70*
%OFA0B0*%
%FSLAX24Y24*%
%IPPOS*%
%LPD*%
%AMOC8*
5,1,8,0,0,1.08239X$1,22.5*
%
%ADD10R,0.0669X0.1457*%
%ADD11C,0.0252*%
%ADD12C,0.0027*%
%ADD13R,0.0276X0.0354*%
%ADD14R,0.0354X0.0276*%
%ADD15R,0.0591X0.0118*%
%ADD16C,0.0945*%
%ADD17C,0.0591*%
%ADD18C,0.0600*%
%ADD19C,0.1660*%
%ADD20R,0.0394X0.0551*%
%ADD21R,0.0866X0.0236*%
%ADD22R,0.0551X0.0394*%
%ADD23C,0.0600*%
%ADD24R,0.0480X0.0880*%
%ADD25R,0.1417X0.0866*%
%ADD26R,0.1220X0.0630*%
%ADD27R,0.0630X0.0236*%
%ADD28R,0.0630X0.0091*%
%ADD29R,0.0433X0.0394*%
%ADD30C,0.0310*%
%ADD31C,0.0080*%
%ADD32C,0.0436*%
%ADD33C,0.0320*%
%ADD34C,0.0160*%
%ADD35C,0.0240*%
%ADD36C,0.0100*%
%ADD37C,0.0060*%
D10*
X005494Y002320D03*
X007817Y002320D03*
X008744Y002320D03*
X011067Y002320D03*
D11*
X014151Y016816D02*
X014151Y017824D01*
X015159Y017824D01*
X015159Y016816D01*
X014151Y016816D01*
X014151Y017067D02*
X015159Y017067D01*
X015159Y017318D02*
X014151Y017318D01*
X014151Y017569D02*
X015159Y017569D01*
X015159Y017820D02*
X014151Y017820D01*
D12*
X013855Y017780D02*
X013645Y017780D01*
X013645Y017844D01*
X013855Y017844D01*
X013855Y017780D01*
X013855Y017806D02*
X013645Y017806D01*
X013645Y017832D02*
X013855Y017832D01*
X013845Y017977D02*
X013635Y017977D01*
X013635Y018041D01*
X013845Y018041D01*
X013845Y017977D01*
X013845Y018003D02*
X013635Y018003D01*
X013635Y018029D02*
X013845Y018029D01*
X013934Y018131D02*
X013934Y018341D01*
X013998Y018341D01*
X013998Y018131D01*
X013934Y018131D01*
X013934Y018157D02*
X013998Y018157D01*
X013998Y018183D02*
X013934Y018183D01*
X013934Y018209D02*
X013998Y018209D01*
X013998Y018235D02*
X013934Y018235D01*
X013934Y018261D02*
X013998Y018261D01*
X013998Y018287D02*
X013934Y018287D01*
X013934Y018313D02*
X013998Y018313D01*
X013998Y018339D02*
X013934Y018339D01*
X014131Y018331D02*
X014131Y018121D01*
X014131Y018331D02*
X014195Y018331D01*
X014195Y018121D01*
X014131Y018121D01*
X014131Y018147D02*
X014195Y018147D01*
X014195Y018173D02*
X014131Y018173D01*
X014131Y018199D02*
X014195Y018199D01*
X014195Y018225D02*
X014131Y018225D01*
X014131Y018251D02*
X014195Y018251D01*
X014195Y018277D02*
X014131Y018277D01*
X014131Y018303D02*
X014195Y018303D01*
X014195Y018329D02*
X014131Y018329D01*
X014328Y018331D02*
X014328Y018121D01*
X014328Y018331D02*
X014392Y018331D01*
X014392Y018121D01*
X014328Y018121D01*
X014328Y018147D02*
X014392Y018147D01*
X014392Y018173D02*
X014328Y018173D01*
X014328Y018199D02*
X014392Y018199D01*
X014392Y018225D02*
X014328Y018225D01*
X014328Y018251D02*
X014392Y018251D01*
X014392Y018277D02*
X014328Y018277D01*
X014328Y018303D02*
X014392Y018303D01*
X014392Y018329D02*
X014328Y018329D01*
X014525Y018331D02*
X014525Y018121D01*
X014525Y018331D02*
X014589Y018331D01*
X014589Y018121D01*
X014525Y018121D01*
X014525Y018147D02*
X014589Y018147D01*
X014589Y018173D02*
X014525Y018173D01*
X014525Y018199D02*
X014589Y018199D01*
X014589Y018225D02*
X014525Y018225D01*
X014525Y018251D02*
X014589Y018251D01*
X014589Y018277D02*
X014525Y018277D01*
X014525Y018303D02*
X014589Y018303D01*
X014589Y018329D02*
X014525Y018329D01*
X014722Y018331D02*
X014722Y018121D01*
X014722Y018331D02*
X014786Y018331D01*
X014786Y018121D01*
X014722Y018121D01*
X014722Y018147D02*
X014786Y018147D01*
X014786Y018173D02*
X014722Y018173D01*
X014722Y018199D02*
X014786Y018199D01*
X014786Y018225D02*
X014722Y018225D01*
X014722Y018251D02*
X014786Y018251D01*
X014786Y018277D02*
X014722Y018277D01*
X014722Y018303D02*
X014786Y018303D01*
X014786Y018329D02*
X014722Y018329D01*
X014918Y018331D02*
X014918Y018121D01*
X014918Y018331D02*
X014982Y018331D01*
X014982Y018121D01*
X014918Y018121D01*
X014918Y018147D02*
X014982Y018147D01*
X014982Y018173D02*
X014918Y018173D01*
X014918Y018199D02*
X014982Y018199D01*
X014982Y018225D02*
X014918Y018225D01*
X014918Y018251D02*
X014982Y018251D01*
X014982Y018277D02*
X014918Y018277D01*
X014918Y018303D02*
X014982Y018303D01*
X014982Y018329D02*
X014918Y018329D01*
X015115Y018331D02*
X015115Y018121D01*
X015115Y018331D02*
X015179Y018331D01*
X015179Y018121D01*
X015115Y018121D01*
X015115Y018147D02*
X015179Y018147D01*
X015179Y018173D02*
X015115Y018173D01*
X015115Y018199D02*
X015179Y018199D01*
X015179Y018225D02*
X015115Y018225D01*
X015115Y018251D02*
X015179Y018251D01*
X015179Y018277D02*
X015115Y018277D01*
X015115Y018303D02*
X015179Y018303D01*
X015179Y018329D02*
X015115Y018329D01*
X015312Y018341D02*
X015312Y018131D01*
X015312Y018341D02*
X015376Y018341D01*
X015376Y018131D01*
X015312Y018131D01*
X015312Y018157D02*
X015376Y018157D01*
X015376Y018183D02*
X015312Y018183D01*
X015312Y018209D02*
X015376Y018209D01*
X015376Y018235D02*
X015312Y018235D01*
X015312Y018261D02*
X015376Y018261D01*
X015376Y018287D02*
X015312Y018287D01*
X015312Y018313D02*
X015376Y018313D01*
X015376Y018339D02*
X015312Y018339D01*
X015466Y018041D02*
X015676Y018041D01*
X015676Y017977D01*
X015466Y017977D01*
X015466Y018041D01*
X015466Y018003D02*
X015676Y018003D01*
X015676Y018029D02*
X015466Y018029D01*
X015456Y017844D02*
X015666Y017844D01*
X015666Y017780D01*
X015456Y017780D01*
X015456Y017844D01*
X015456Y017806D02*
X015666Y017806D01*
X015666Y017832D02*
X015456Y017832D01*
X015456Y017648D02*
X015666Y017648D01*
X015666Y017584D01*
X015456Y017584D01*
X015456Y017648D01*
X015456Y017610D02*
X015666Y017610D01*
X015666Y017636D02*
X015456Y017636D01*
X015456Y017451D02*
X015666Y017451D01*
X015666Y017387D01*
X015456Y017387D01*
X015456Y017451D01*
X015456Y017413D02*
X015666Y017413D01*
X015666Y017439D02*
X015456Y017439D01*
X015456Y017254D02*
X015666Y017254D01*
X015666Y017190D01*
X015456Y017190D01*
X015456Y017254D01*
X015456Y017216D02*
X015666Y017216D01*
X015666Y017242D02*
X015456Y017242D01*
X015456Y017057D02*
X015666Y017057D01*
X015666Y016993D01*
X015456Y016993D01*
X015456Y017057D01*
X015456Y017019D02*
X015666Y017019D01*
X015666Y017045D02*
X015456Y017045D01*
X015456Y016860D02*
X015666Y016860D01*
X015666Y016796D01*
X015456Y016796D01*
X015456Y016860D01*
X015456Y016822D02*
X015666Y016822D01*
X015666Y016848D02*
X015456Y016848D01*
X015466Y016663D02*
X015676Y016663D01*
X015676Y016599D01*
X015466Y016599D01*
X015466Y016663D01*
X015466Y016625D02*
X015676Y016625D01*
X015676Y016651D02*
X015466Y016651D01*
X015376Y016510D02*
X015376Y016300D01*
X015312Y016300D01*
X015312Y016510D01*
X015376Y016510D01*
X015376Y016326D02*
X015312Y016326D01*
X015312Y016352D02*
X015376Y016352D01*
X015376Y016378D02*
X015312Y016378D01*
X015312Y016404D02*
X015376Y016404D01*
X015376Y016430D02*
X015312Y016430D01*
X015312Y016456D02*
X015376Y016456D01*
X015376Y016482D02*
X015312Y016482D01*
X015312Y016508D02*
X015376Y016508D01*
X015179Y016520D02*
X015179Y016310D01*
X015115Y016310D01*
X015115Y016520D01*
X015179Y016520D01*
X015179Y016336D02*
X015115Y016336D01*
X015115Y016362D02*
X015179Y016362D01*
X015179Y016388D02*
X015115Y016388D01*
X015115Y016414D02*
X015179Y016414D01*
X015179Y016440D02*
X015115Y016440D01*
X015115Y016466D02*
X015179Y016466D01*
X015179Y016492D02*
X015115Y016492D01*
X015115Y016518D02*
X015179Y016518D01*
X014982Y016520D02*
X014982Y016310D01*
X014918Y016310D01*
X014918Y016520D01*
X014982Y016520D01*
X014982Y016336D02*
X014918Y016336D01*
X014918Y016362D02*
X014982Y016362D01*
X014982Y016388D02*
X014918Y016388D01*
X014918Y016414D02*
X014982Y016414D01*
X014982Y016440D02*
X014918Y016440D01*
X014918Y016466D02*
X014982Y016466D01*
X014982Y016492D02*
X014918Y016492D01*
X014918Y016518D02*
X014982Y016518D01*
X014786Y016520D02*
X014786Y016310D01*
X014722Y016310D01*
X014722Y016520D01*
X014786Y016520D01*
X014786Y016336D02*
X014722Y016336D01*
X014722Y016362D02*
X014786Y016362D01*
X014786Y016388D02*
X014722Y016388D01*
X014722Y016414D02*
X014786Y016414D01*
X014786Y016440D02*
X014722Y016440D01*
X014722Y016466D02*
X014786Y016466D01*
X014786Y016492D02*
X014722Y016492D01*
X014722Y016518D02*
X014786Y016518D01*
X014589Y016520D02*
X014589Y016310D01*
X014525Y016310D01*
X014525Y016520D01*
X014589Y016520D01*
X014589Y016336D02*
X014525Y016336D01*
X014525Y016362D02*
X014589Y016362D01*
X014589Y016388D02*
X014525Y016388D01*
X014525Y016414D02*
X014589Y016414D01*
X014589Y016440D02*
X014525Y016440D01*
X014525Y016466D02*
X014589Y016466D01*
X014589Y016492D02*
X014525Y016492D01*
X014525Y016518D02*
X014589Y016518D01*
X014392Y016520D02*
X014392Y016310D01*
X014328Y016310D01*
X014328Y016520D01*
X014392Y016520D01*
X014392Y016336D02*
X014328Y016336D01*
X014328Y016362D02*
X014392Y016362D01*
X014392Y016388D02*
X014328Y016388D01*
X014328Y016414D02*
X014392Y016414D01*
X014392Y016440D02*
X014328Y016440D01*
X014328Y016466D02*
X014392Y016466D01*
X014392Y016492D02*
X014328Y016492D01*
X014328Y016518D02*
X014392Y016518D01*
X014195Y016520D02*
X014195Y016310D01*
X014131Y016310D01*
X014131Y016520D01*
X014195Y016520D01*
X014195Y016336D02*
X014131Y016336D01*
X014131Y016362D02*
X014195Y016362D01*
X014195Y016388D02*
X014131Y016388D01*
X014131Y016414D02*
X014195Y016414D01*
X014195Y016440D02*
X014131Y016440D01*
X014131Y016466D02*
X014195Y016466D01*
X014195Y016492D02*
X014131Y016492D01*
X014131Y016518D02*
X014195Y016518D01*
X013998Y016510D02*
X013998Y016300D01*
X013934Y016300D01*
X013934Y016510D01*
X013998Y016510D01*
X013998Y016326D02*
X013934Y016326D01*
X013934Y016352D02*
X013998Y016352D01*
X013998Y016378D02*
X013934Y016378D01*
X013934Y016404D02*
X013998Y016404D01*
X013998Y016430D02*
X013934Y016430D01*
X013934Y016456D02*
X013998Y016456D01*
X013998Y016482D02*
X013934Y016482D01*
X013934Y016508D02*
X013998Y016508D01*
X013845Y016599D02*
X013635Y016599D01*
X013635Y016663D01*
X013845Y016663D01*
X013845Y016599D01*
X013845Y016625D02*
X013635Y016625D01*
X013635Y016651D02*
X013845Y016651D01*
X013855Y016796D02*
X013645Y016796D01*
X013645Y016860D01*
X013855Y016860D01*
X013855Y016796D01*
X013855Y016822D02*
X013645Y016822D01*
X013645Y016848D02*
X013855Y016848D01*
X013855Y016993D02*
X013645Y016993D01*
X013645Y017057D01*
X013855Y017057D01*
X013855Y016993D01*
X013855Y017019D02*
X013645Y017019D01*
X013645Y017045D02*
X013855Y017045D01*
X013855Y017190D02*
X013645Y017190D01*
X013645Y017254D01*
X013855Y017254D01*
X013855Y017190D01*
X013855Y017216D02*
X013645Y017216D01*
X013645Y017242D02*
X013855Y017242D01*
X013855Y017387D02*
X013645Y017387D01*
X013645Y017451D01*
X013855Y017451D01*
X013855Y017387D01*
X013855Y017413D02*
X013645Y017413D01*
X013645Y017439D02*
X013855Y017439D01*
X013855Y017584D02*
X013645Y017584D01*
X013645Y017648D01*
X013855Y017648D01*
X013855Y017584D01*
X013855Y017610D02*
X013645Y017610D01*
X013645Y017636D02*
X013855Y017636D01*
D13*
X013286Y018320D03*
X012774Y018320D03*
X014524Y018820D03*
X015036Y018820D03*
X014411Y014945D03*
X013899Y014945D03*
X014024Y014195D03*
X014536Y014195D03*
X014411Y013320D03*
X013899Y013320D03*
X014899Y012445D03*
X015411Y012445D03*
X015774Y013070D03*
X016286Y013070D03*
X015536Y009320D03*
X015024Y009320D03*
X015161Y008570D03*
X014649Y008570D03*
X016149Y008570D03*
X016661Y008570D03*
X017524Y006695D03*
X018036Y006695D03*
X017161Y006070D03*
X016649Y006070D03*
X016649Y005445D03*
X017161Y005445D03*
X019274Y007195D03*
X019786Y007195D03*
X017411Y001945D03*
X016899Y001945D03*
X008661Y011695D03*
X008661Y012320D03*
X008149Y012320D03*
X008149Y011695D03*
X006661Y011945D03*
X006661Y012445D03*
X006149Y012445D03*
X006149Y011945D03*
X006161Y009820D03*
X005649Y009820D03*
D14*
X007280Y011377D03*
X007280Y011889D03*
X007155Y013439D03*
X007155Y013951D03*
X007655Y013951D03*
X007655Y013439D03*
X008655Y013752D03*
X008655Y014264D03*
X007405Y016564D03*
X007405Y017076D03*
X007405Y017564D03*
X007405Y018076D03*
X006405Y017326D03*
X006405Y016814D03*
X012655Y014701D03*
X013155Y014701D03*
X013155Y014189D03*
X012655Y014189D03*
X012655Y013451D03*
X013155Y013451D03*
X013155Y012939D03*
X012655Y012939D03*
X013968Y012701D03*
X013968Y012189D03*
X013280Y008951D03*
X013280Y008439D03*
X014655Y006076D03*
X014655Y005564D03*
X015655Y005564D03*
X015655Y006076D03*
X017905Y007314D03*
X017905Y007826D03*
X018155Y008814D03*
X018155Y009326D03*
X019405Y006201D03*
X019405Y005689D03*
X013780Y003076D03*
X013780Y002564D03*
X011030Y003939D03*
X011030Y004451D03*
X009905Y005814D03*
X009905Y006326D03*
X010030Y008814D03*
X010030Y009326D03*
X005968Y006951D03*
X005968Y006439D03*
X013093Y016189D03*
X013093Y016701D03*
X017905Y018689D03*
X017905Y019201D03*
X018405Y019201D03*
X018405Y018689D03*
D15*
X011082Y018466D03*
X011082Y018210D03*
X011082Y017954D03*
X011082Y017698D03*
X011082Y017442D03*
X011082Y017186D03*
X011082Y016931D03*
X011082Y016675D03*
X008228Y016675D03*
X008228Y016931D03*
X008228Y017186D03*
X008228Y017442D03*
X008228Y017698D03*
X008228Y017954D03*
X008228Y018210D03*
X008228Y018466D03*
D16*
X012355Y005570D03*
X018455Y005570D03*
D17*
X016655Y006870D03*
X015655Y006870D03*
X014655Y006870D03*
X013655Y006870D03*
X014155Y007870D03*
X015155Y007870D03*
X016155Y007870D03*
X017155Y007870D03*
D18*
X017555Y009770D03*
X016555Y009770D03*
X014255Y009770D03*
X013255Y009770D03*
D19*
X016201Y020077D03*
X006359Y020077D03*
D20*
X006155Y011378D03*
X005781Y010512D03*
X006529Y010512D03*
D21*
X007131Y009570D03*
X007131Y009070D03*
X007131Y008570D03*
X007131Y008070D03*
X006881Y006820D03*
X006881Y006320D03*
X006881Y005820D03*
X006881Y005320D03*
X008929Y005320D03*
X008929Y005820D03*
X008929Y006320D03*
X008929Y006820D03*
X009179Y008070D03*
X009179Y008570D03*
X009179Y009070D03*
X009179Y009570D03*
D22*
X007901Y004569D03*
X007901Y003821D03*
X007035Y004195D03*
X011972Y003444D03*
X011972Y002696D03*
X012838Y003070D03*
X017472Y002820D03*
X018338Y002446D03*
X018338Y003194D03*
D23*
X019230Y003570D02*
X019830Y003570D01*
X019830Y004570D02*
X019230Y004570D01*
X006780Y017770D02*
X006780Y018370D01*
X005780Y018370D02*
X005780Y017770D01*
X005543Y008945D02*
X006143Y008945D01*
X006143Y007945D02*
X005543Y007945D01*
D24*
X014620Y004415D03*
X015530Y004415D03*
X016440Y004415D03*
D25*
X015530Y001975D03*
D26*
X003655Y002947D03*
X003655Y019443D03*
D27*
X002494Y017101D03*
X002494Y014739D03*
X002494Y012376D03*
X002494Y010014D03*
X002494Y007652D03*
X002494Y005290D03*
X004817Y005290D03*
X004817Y007652D03*
X004817Y010014D03*
X004817Y012376D03*
X004817Y014739D03*
X004817Y017101D03*
D28*
X004817Y016806D03*
X004817Y016609D03*
X004817Y016412D03*
X004817Y016215D03*
X004817Y016018D03*
X004817Y015821D03*
X004817Y015624D03*
X004817Y015428D03*
X004817Y015231D03*
X004817Y015034D03*
X004817Y014443D03*
X004817Y014246D03*
X004817Y014050D03*
X004817Y013853D03*
X004817Y013656D03*
X004817Y013459D03*
X004817Y013262D03*
X004817Y013065D03*
X004817Y012869D03*
X004817Y012672D03*
X004817Y012081D03*
X004817Y011884D03*
X004817Y011687D03*
X004817Y011491D03*
X004817Y011294D03*
X004817Y011097D03*
X004817Y010900D03*
X004817Y010703D03*
X004817Y010506D03*
X004817Y010309D03*
X004817Y009719D03*
X004817Y009522D03*
X004817Y009325D03*
X004817Y009128D03*
X004817Y008932D03*
X004817Y008735D03*
X004817Y008538D03*
X004817Y008341D03*
X004817Y008144D03*
X004817Y007947D03*
X004817Y007357D03*
X004817Y007160D03*
X004817Y006963D03*
X004817Y006766D03*
X004817Y006569D03*
X004817Y006372D03*
X004817Y006176D03*
X004817Y005979D03*
X004817Y005782D03*
X004817Y005585D03*
X004817Y004995D03*
X004817Y004798D03*
X004817Y004601D03*
X004817Y004404D03*
X004817Y004207D03*
X002494Y004207D03*
X002494Y004404D03*
X002494Y004601D03*
X002494Y004798D03*
X002494Y004995D03*
X002494Y005585D03*
X002494Y005782D03*
X002494Y005979D03*
X002494Y006176D03*
X002494Y006372D03*
X002494Y006569D03*
X002494Y006766D03*
X002494Y006963D03*
X002494Y007160D03*
X002494Y007357D03*
X002494Y007947D03*
X002494Y008144D03*
X002494Y008341D03*
X002494Y008538D03*
X002494Y008735D03*
X002494Y008932D03*
X002494Y009128D03*
X002494Y009325D03*
X002494Y009522D03*
X002494Y009719D03*
X002494Y010309D03*
X002494Y010506D03*
X002494Y010703D03*
X002494Y010900D03*
X002494Y011097D03*
X002494Y011294D03*
X002494Y011491D03*
X002494Y011687D03*
X002494Y011884D03*
X002494Y012081D03*
X002494Y012672D03*
X002494Y012869D03*
X002494Y013065D03*
X002494Y013262D03*
X002494Y013459D03*
X002494Y013656D03*
X002494Y013853D03*
X002494Y014050D03*
X002494Y014246D03*
X002494Y014443D03*
X002494Y015034D03*
X002494Y015231D03*
X002494Y015428D03*
X002494Y015624D03*
X002494Y015821D03*
X002494Y016018D03*
X002494Y016215D03*
X002494Y016412D03*
X002494Y016609D03*
X002494Y016806D03*
X002494Y017396D03*
X002494Y017593D03*
X002494Y017790D03*
X002494Y017987D03*
X002494Y018184D03*
X004817Y018184D03*
X004817Y017987D03*
X004817Y017790D03*
X004817Y017593D03*
X004817Y017396D03*
D29*
X007758Y012883D03*
X008427Y012883D03*
D30*
X002530Y002195D03*
X004030Y001945D03*
X003218Y004258D03*
X003093Y004695D03*
X003030Y005195D03*
X003030Y005945D03*
X003780Y005570D03*
X004218Y004570D03*
X005405Y005389D03*
X005655Y005695D03*
X005905Y005389D03*
X005599Y006195D03*
X005349Y006508D03*
X005549Y006820D03*
X006286Y007252D03*
X007655Y005945D03*
X007655Y005508D03*
X008905Y003445D03*
X010655Y005070D03*
X010343Y005820D03*
X010343Y006320D03*
X011655Y006070D03*
X011530Y004445D03*
X013780Y002195D03*
X014155Y005133D03*
X013030Y007820D03*
X014405Y009008D03*
X015530Y010320D03*
X015843Y010695D03*
X015030Y010570D03*
X014530Y010570D03*
X013655Y010752D03*
X012155Y010945D03*
X010686Y012008D03*
X010336Y011820D03*
X010118Y011508D03*
X010411Y011252D03*
X009905Y010945D03*
X009218Y011070D03*
X009030Y011695D03*
X009030Y012320D03*
X009030Y012820D03*
X008936Y013420D03*
X009155Y013820D03*
X009843Y014508D03*
X010155Y014070D03*
X010343Y013695D03*
X010343Y013008D03*
X011530Y012820D03*
X012655Y013820D03*
X013093Y013820D03*
X013780Y013820D03*
X013549Y012820D03*
X014405Y012820D03*
X014905Y013695D03*
X014905Y014195D03*
X014905Y014695D03*
X014780Y015070D03*
X015280Y016070D03*
X016155Y016320D03*
X016093Y017570D03*
X015530Y018820D03*
X013780Y018945D03*
X013030Y018758D03*
X012663Y019234D03*
X013069Y017688D03*
X012593Y017508D03*
X012655Y016195D03*
X012343Y015883D03*
X011905Y015570D03*
X012852Y015110D03*
X013405Y015070D03*
X015968Y015008D03*
X016718Y014695D03*
X016155Y013564D03*
X016655Y013070D03*
X016530Y012445D03*
X016530Y012070D03*
X016655Y011633D03*
X018030Y012570D03*
X019030Y013195D03*
X018093Y015008D03*
X017405Y016002D03*
X018030Y017070D03*
X018343Y016758D03*
X019161Y017702D03*
X018905Y019445D03*
X018405Y019570D03*
X017905Y019570D03*
X011280Y018968D03*
X010155Y018945D03*
X010155Y018320D03*
X009655Y017945D03*
X009280Y018195D03*
X008943Y017977D03*
X008780Y017620D03*
X008868Y016465D03*
X008382Y016198D03*
X007984Y016133D03*
X008086Y015600D03*
X007405Y015758D03*
X007093Y016014D03*
X007155Y014383D03*
X006780Y014258D03*
X006211Y014445D03*
X005468Y014820D03*
X005436Y015758D03*
X005405Y017133D03*
X004155Y017808D03*
X003155Y017508D03*
X003030Y017070D03*
X003093Y016695D03*
X003093Y016070D03*
X003280Y015064D03*
X003161Y014464D03*
X003155Y014070D03*
X003280Y013320D03*
X003218Y012695D03*
X003030Y012320D03*
X003593Y011758D03*
X004155Y012070D03*
X003968Y012820D03*
X004030Y013820D03*
X005780Y013570D03*
X006030Y013195D03*
X006593Y013070D03*
X007155Y012808D03*
X007155Y012433D03*
X007780Y011945D03*
X007718Y011320D03*
X007405Y011008D03*
X008030Y011008D03*
X008343Y011258D03*
X007530Y010064D03*
X007099Y010045D03*
X006368Y009427D03*
X005349Y009439D03*
X005349Y010452D03*
X005718Y011008D03*
X005718Y011633D03*
X005718Y012070D03*
X005780Y012445D03*
X006718Y011508D03*
X004280Y010602D03*
X004105Y010239D03*
X004280Y009883D03*
X003905Y009695D03*
X003530Y010145D03*
X003093Y010133D03*
X003093Y009633D03*
X003218Y009133D03*
X003155Y008383D03*
X003030Y007820D03*
X003536Y007577D03*
X004280Y007570D03*
X001961Y010133D03*
X001961Y010508D03*
X001655Y010883D03*
X001218Y012820D03*
X003718Y010758D03*
X003999Y011033D03*
X007655Y014383D03*
X008155Y014195D03*
X009343Y015945D03*
X009780Y015695D03*
X010405Y016695D03*
X010155Y017070D03*
X009280Y018820D03*
X008073Y018777D03*
X007899Y019194D03*
X005218Y018883D03*
X004280Y018883D03*
X003093Y018133D03*
X002405Y018945D03*
X004280Y020570D03*
X010530Y009445D03*
X010530Y009008D03*
X008155Y008820D03*
X001405Y004570D03*
X016155Y009320D03*
X017280Y008570D03*
X018780Y007695D03*
X019280Y007820D03*
X019780Y007695D03*
X018905Y006195D03*
X019280Y005195D03*
X017655Y005445D03*
X019280Y010070D03*
X019780Y010070D03*
D31*
X019780Y012445D01*
X019030Y013195D01*
X018593Y013320D02*
X018593Y011445D01*
X018155Y011008D01*
X012968Y011008D01*
X012593Y010633D01*
X011968Y010633D01*
X011655Y010945D01*
X009905Y010945D01*
X009780Y010633D02*
X010405Y010633D01*
X011343Y009695D01*
X011343Y005758D01*
X010655Y005070D01*
X010655Y004070D01*
X010780Y003945D01*
X011024Y003945D01*
X011030Y003939D01*
X011030Y002357D01*
X011067Y002320D01*
X011030Y004451D02*
X011524Y004451D01*
X011530Y004445D01*
X010337Y005814D02*
X010343Y005820D01*
X010337Y005814D02*
X009905Y005814D01*
X009899Y005820D01*
X008929Y005820D01*
X008929Y005320D02*
X008218Y005320D01*
X008218Y007258D01*
X008343Y007383D01*
X008411Y007445D01*
X008411Y010633D01*
X008030Y011008D01*
X008343Y011258D02*
X008530Y011070D01*
X008593Y011008D01*
X008593Y007445D01*
X008905Y007133D01*
X008905Y006844D01*
X008929Y006820D01*
X008929Y006320D02*
X009899Y006320D01*
X009905Y006326D01*
X010337Y006326D01*
X010343Y006320D01*
X010280Y008070D02*
X009179Y008070D01*
X009179Y008570D02*
X009655Y008570D01*
X009843Y008758D01*
X009974Y008758D01*
X010030Y008814D01*
X010337Y008814D01*
X010530Y009008D01*
X010411Y009326D02*
X010030Y009326D01*
X009962Y009258D01*
X009843Y009258D01*
X009655Y009070D01*
X009179Y009070D01*
X009179Y009570D02*
X009179Y010484D01*
X008843Y010820D01*
X008843Y011133D01*
X009036Y011327D01*
X009224Y011327D01*
X009405Y011508D01*
X009405Y012945D01*
X009193Y013158D01*
X008755Y013158D01*
X008155Y013758D01*
X008155Y014195D01*
X007780Y014508D02*
X007655Y014383D01*
X007655Y013951D01*
X007655Y013439D02*
X007655Y013195D01*
X007758Y013092D01*
X007758Y012883D01*
X008427Y012883D02*
X008427Y012736D01*
X008593Y012570D01*
X008593Y012389D01*
X008661Y012320D01*
X009030Y012320D01*
X009030Y011695D02*
X008661Y011695D01*
X009218Y011070D02*
X009218Y011070D01*
X009218Y010758D01*
X009530Y010445D01*
X010093Y010445D01*
X010843Y009695D01*
X010843Y008633D01*
X010280Y008070D01*
X010030Y008814D02*
X010024Y008820D01*
X010024Y009320D02*
X010030Y009326D01*
X010411Y009326D02*
X010530Y009445D01*
X009780Y010633D02*
X009593Y010820D01*
X009593Y011195D01*
X009718Y011320D01*
X009718Y013008D01*
X009155Y013570D01*
X009155Y013820D01*
X008936Y013420D02*
X008743Y013420D01*
X008655Y013508D01*
X008655Y013752D01*
X008655Y013752D01*
X008655Y013695D01*
X008655Y014264D02*
X008655Y014445D01*
X008593Y014508D01*
X007780Y014508D01*
X007155Y014383D02*
X007155Y013951D01*
X006780Y014258D02*
X006780Y013320D01*
X006893Y013208D01*
X006893Y012708D01*
X007155Y012433D01*
X007337Y011945D02*
X007280Y011889D01*
X006718Y011889D01*
X006661Y011945D01*
X006718Y011508D02*
X006843Y011508D01*
X006968Y011383D01*
X007280Y011383D01*
X007280Y011377D02*
X007161Y011320D01*
X007718Y011320D01*
X007280Y011377D02*
X007149Y011320D01*
X007337Y011945D02*
X007655Y011945D01*
X006336Y013070D02*
X006336Y013445D01*
X006218Y013570D01*
X005780Y013570D01*
X005780Y014445D01*
X006405Y015070D01*
X008468Y015070D01*
X009030Y015570D01*
X009030Y016008D01*
X009224Y016202D01*
X011530Y016195D01*
X012093Y016758D01*
X012093Y018258D01*
X011884Y018466D01*
X011082Y018466D01*
X011132Y018820D02*
X010655Y018820D01*
X010530Y018633D01*
X009968Y018633D01*
X009801Y018466D01*
X008228Y018466D01*
X008228Y018210D02*
X008765Y018210D01*
X008968Y018008D01*
X009280Y018195D02*
X009280Y017820D01*
X009655Y017445D01*
X011079Y017445D01*
X011082Y017442D01*
X011091Y017195D02*
X011082Y017186D01*
X011091Y017195D02*
X011468Y017195D01*
X011593Y017320D01*
X011593Y017570D01*
X011465Y017698D01*
X011082Y017698D01*
X010027Y017698D01*
X009780Y017945D01*
X009655Y017945D01*
X008883Y017501D02*
X008883Y016480D01*
X008868Y016465D01*
X009155Y016383D02*
X008843Y016070D01*
X008843Y015633D01*
X008405Y015258D01*
X006343Y015258D01*
X005468Y014383D01*
X005468Y013383D01*
X005655Y013195D01*
X006030Y013195D01*
X006336Y013070D02*
X006155Y012883D01*
X005718Y012883D01*
X005655Y012945D01*
X005655Y012945D01*
X005338Y013262D01*
X004817Y013262D01*
X004817Y013459D02*
X004266Y013459D01*
X004030Y013695D01*
X004030Y013820D01*
X004343Y013758D02*
X004343Y014008D01*
X004218Y014133D01*
X003843Y014133D01*
X003718Y014008D01*
X003718Y013570D01*
X004280Y013008D01*
X004280Y012758D01*
X004366Y012672D01*
X004817Y012672D01*
X005554Y012672D01*
X005780Y012445D01*
X006149Y012445D01*
X006149Y011945D01*
X005718Y012008D02*
X005718Y012070D01*
X005718Y012008D02*
X005200Y011491D01*
X004817Y011491D01*
X004485Y011491D01*
X004218Y011758D01*
X004030Y011758D01*
X003718Y012070D01*
X003218Y012070D01*
X003093Y011945D01*
X003093Y011945D01*
X002835Y011687D01*
X002494Y011687D01*
X002494Y011491D02*
X003593Y011491D01*
X003593Y011758D01*
X003593Y011491D02*
X004235Y011491D01*
X004432Y011294D01*
X004817Y011294D01*
X004817Y011097D02*
X004379Y011097D01*
X004182Y011294D01*
X002494Y011294D01*
X002494Y010900D02*
X003263Y010900D01*
X003405Y010758D01*
X003718Y010758D01*
X003999Y010602D02*
X004280Y010602D01*
X004263Y010900D02*
X004817Y010900D01*
X004817Y010703D02*
X005225Y010703D01*
X005530Y011008D01*
X005718Y011008D01*
X005718Y011008D01*
X005307Y011097D02*
X005718Y011508D01*
X005718Y011633D01*
X005307Y011097D02*
X004817Y011097D01*
X004817Y010506D02*
X005282Y010506D01*
X005349Y010452D01*
X005211Y010014D02*
X005405Y009820D01*
X005649Y009820D01*
X005211Y010014D02*
X004817Y010014D01*
X004411Y010014D01*
X004280Y009883D01*
X004105Y010239D02*
X004166Y010309D01*
X004817Y010309D01*
X003999Y010602D02*
X003799Y010402D01*
X003136Y010402D01*
X002835Y010703D01*
X002494Y010703D01*
X001961Y010508D02*
X001968Y013383D01*
X002044Y013459D01*
X002494Y013459D01*
X002494Y013853D02*
X001938Y013853D01*
X001780Y013695D01*
X001780Y011008D01*
X001655Y010883D01*
X002494Y012376D02*
X002974Y012376D01*
X003030Y012320D01*
X003086Y012376D01*
X004817Y012376D01*
X004817Y012081D02*
X004166Y012081D01*
X004155Y012070D01*
X003968Y012820D02*
X003530Y012820D01*
X003343Y013008D01*
X003093Y013008D01*
X002968Y013133D01*
X002968Y013695D01*
X002810Y013853D01*
X002494Y013853D01*
X002494Y014050D02*
X003134Y014050D01*
X003155Y014070D01*
X003180Y014445D02*
X003161Y014464D01*
X002887Y014739D01*
X002494Y014739D01*
X002494Y015034D02*
X002879Y015034D01*
X003155Y014758D01*
X004218Y014758D01*
X004494Y015034D01*
X004817Y015034D01*
X005254Y015034D01*
X005468Y014820D01*
X005343Y015445D02*
X005164Y015624D01*
X004817Y015624D01*
X004289Y015624D01*
X003843Y016070D01*
X003843Y017883D01*
X003280Y018445D01*
X002655Y018445D01*
X002405Y018695D01*
X002405Y018945D01*
X003093Y018133D02*
X003093Y017945D01*
X003655Y017383D01*
X003655Y015695D01*
X003387Y015428D01*
X002494Y015428D01*
X002075Y015428D01*
X002030Y015383D01*
X001968Y015320D01*
X001968Y014383D01*
X002104Y014246D01*
X002494Y014246D01*
X003180Y014445D02*
X004155Y014445D01*
X004448Y014739D01*
X004817Y014739D01*
X005343Y015445D02*
X007931Y015445D01*
X008086Y015600D01*
X007984Y016133D02*
X007796Y016320D01*
X007093Y016320D01*
X006843Y016570D01*
X007405Y016564D02*
X007411Y016570D01*
X007655Y016570D01*
X007759Y016675D01*
X008228Y016675D01*
X008228Y016352D01*
X008382Y016198D01*
X007655Y017070D02*
X007411Y017070D01*
X007405Y017076D01*
X007655Y017070D02*
X007771Y017186D01*
X008228Y017186D01*
X008228Y017442D02*
X007777Y017442D01*
X007655Y017320D01*
X006411Y017320D01*
X006405Y017326D01*
X006080Y016958D02*
X005718Y017333D01*
X005593Y017333D01*
X005343Y017570D01*
X005343Y018758D01*
X005218Y018883D01*
X005411Y019139D02*
X004974Y019139D01*
X004718Y018883D01*
X004280Y018883D01*
X004155Y017808D02*
X004155Y017320D01*
X004405Y017070D01*
X004786Y017070D01*
X004817Y017101D01*
X005436Y015758D02*
X007405Y015758D01*
X006586Y014820D02*
X006211Y014445D01*
X006586Y014820D02*
X011780Y014820D01*
X012343Y015383D01*
X012961Y015383D01*
X013273Y015070D01*
X013405Y015070D01*
X013218Y015383D02*
X014843Y015383D01*
X015530Y014695D01*
X016718Y014695D01*
X017030Y015758D02*
X017405Y015758D01*
X017405Y016002D01*
X017405Y015758D02*
X018280Y015758D01*
X018655Y016133D01*
X018655Y017758D01*
X018155Y018258D01*
X018155Y018689D01*
X017905Y018689D01*
X018155Y018689D02*
X018405Y018689D01*
X018405Y019201D02*
X018405Y019570D01*
X018905Y019445D02*
X018905Y016070D01*
X018343Y015508D01*
X015218Y015508D01*
X014968Y015758D01*
X014843Y015758D01*
X014557Y016044D01*
X014557Y016415D01*
X014754Y016415D02*
X014754Y016097D01*
X014905Y015945D01*
X015030Y015945D01*
X015280Y015695D01*
X015530Y015695D01*
X016155Y016320D01*
X016071Y016405D01*
X015344Y016405D01*
X015571Y016631D02*
X016219Y016631D01*
X017030Y015758D01*
X016530Y016695D02*
X016397Y016828D01*
X015561Y016828D01*
X015561Y017025D02*
X017985Y017025D01*
X018030Y017070D01*
X018343Y016758D02*
X018280Y016695D01*
X016530Y016695D01*
X015280Y016070D02*
X015155Y016070D01*
X015093Y016133D01*
X015093Y016133D01*
X014950Y016275D01*
X014950Y016415D01*
X014360Y016415D02*
X014360Y015991D01*
X014780Y015570D01*
X014905Y015570D01*
X015155Y015320D01*
X018530Y015320D01*
X019161Y015952D01*
X019161Y017702D01*
X017905Y019201D02*
X017905Y019570D01*
X015530Y018820D02*
X015036Y018820D01*
X014557Y018788D02*
X014524Y018820D01*
X014155Y018820D01*
X014030Y018945D01*
X013780Y018945D01*
X013593Y018633D02*
X013405Y018820D01*
X013405Y018820D01*
X013218Y019008D01*
X013218Y019008D01*
X013155Y019070D01*
X012933Y019070D01*
X012269Y018407D01*
X012269Y016706D01*
X012280Y016695D01*
X011593Y016008D01*
X009405Y016008D01*
X009343Y015945D01*
X009155Y016383D02*
X011343Y016383D01*
X011905Y016945D01*
X011905Y017570D01*
X011521Y017954D01*
X011082Y017954D01*
X011132Y018820D02*
X011280Y018968D01*
X010155Y018945D02*
X009405Y018945D01*
X009280Y018820D01*
X008228Y017954D02*
X007771Y017954D01*
X007655Y018070D01*
X007411Y018070D01*
X007405Y018076D01*
X007783Y017698D02*
X007655Y017570D01*
X007411Y017570D01*
X007405Y017564D01*
X007783Y017698D02*
X008228Y017698D01*
X008780Y017620D02*
X008780Y017605D01*
X008883Y017501D01*
X008073Y018777D02*
X006561Y018777D01*
X006405Y018633D01*
X006155Y018633D01*
X005968Y018820D01*
X005718Y018820D01*
X005411Y019139D01*
X003405Y017258D02*
X003155Y017508D01*
X003405Y017258D02*
X003405Y015883D01*
X003147Y015624D01*
X002494Y015624D01*
X002494Y015231D02*
X003120Y015231D01*
X003280Y015064D01*
X003093Y016070D02*
X003093Y016258D01*
X002939Y016412D01*
X002494Y016412D01*
X002494Y016609D02*
X003006Y016609D01*
X003093Y016695D01*
X003030Y017070D02*
X003061Y017101D01*
X003030Y017070D02*
X003000Y017101D01*
X002494Y017101D01*
X002030Y015383D02*
X002030Y015383D01*
X002494Y012672D02*
X003194Y012672D01*
X003218Y012695D01*
X004343Y013758D02*
X004445Y013656D01*
X004817Y013656D01*
X003530Y010145D02*
X003530Y010070D01*
X003905Y009695D01*
X004329Y008932D02*
X004218Y008820D01*
X004218Y008258D01*
X003749Y007789D01*
X003155Y008383D01*
X003030Y007820D02*
X003030Y007758D01*
X002924Y007652D01*
X002494Y007652D01*
X003536Y007577D02*
X003749Y007789D01*
X004280Y007570D02*
X004362Y007652D01*
X004817Y007652D01*
X004817Y008144D02*
X004331Y008144D01*
X004218Y008258D01*
X004329Y008932D02*
X004817Y008932D01*
X005530Y007508D02*
X005468Y007445D01*
X005468Y007445D01*
X005182Y007160D01*
X004817Y007160D01*
X004817Y006963D02*
X005235Y006963D01*
X005524Y007252D01*
X006286Y007252D01*
X006218Y006945D02*
X005974Y006945D01*
X005968Y006951D01*
X006218Y006945D02*
X006343Y006820D01*
X006881Y006820D01*
X006881Y006320D02*
X006343Y006320D01*
X006280Y006258D01*
X006280Y005945D01*
X006030Y005695D01*
X005655Y005695D01*
X005905Y005389D02*
X006036Y005389D01*
X006468Y005820D01*
X006881Y005820D01*
X006881Y006320D02*
X007468Y006320D01*
X007593Y006445D01*
X007593Y007320D01*
X008155Y007883D01*
X008155Y008820D01*
X007899Y008008D02*
X007899Y009883D01*
X007718Y010070D01*
X007530Y010064D01*
X007899Y008008D02*
X007718Y007820D01*
X007718Y007820D01*
X007405Y007508D01*
X005530Y007508D01*
X005281Y006569D02*
X004817Y006569D01*
X002494Y006569D01*
X002494Y006372D02*
X003780Y006372D01*
X003780Y005570D01*
X004030Y005258D02*
X003468Y005258D01*
X003030Y005695D01*
X002936Y005290D02*
X003030Y005195D01*
X003155Y005070D01*
X004155Y005070D01*
X004375Y005290D01*
X004817Y005290D01*
X004817Y005585D02*
X004357Y005585D01*
X004030Y005258D01*
X003780Y004570D02*
X004843Y003508D01*
X006343Y003508D01*
X006593Y003758D01*
X006593Y004445D01*
X006780Y004633D01*
X007837Y004633D01*
X007901Y004569D01*
X007902Y004570D01*
X008280Y004570D01*
X008468Y004383D01*
X008468Y003570D01*
X007817Y002919D01*
X007817Y002320D01*
X008744Y002320D02*
X008744Y003284D01*
X008905Y003445D01*
X007655Y005008D02*
X007968Y005320D01*
X008218Y005320D01*
X007655Y005008D02*
X005593Y005008D01*
X005186Y004601D01*
X004817Y004601D01*
X003780Y004570D02*
X003093Y004570D01*
X003093Y004695D01*
X003093Y004570D02*
X003030Y004508D01*
X003030Y004508D01*
X002926Y004404D01*
X002494Y004404D01*
X003218Y004258D02*
X003780Y004258D01*
X004780Y003258D01*
X006718Y003258D01*
X007093Y003633D01*
X007093Y004137D01*
X007035Y004195D01*
X006905Y004195D01*
X005494Y002320D02*
X004405Y002320D01*
X004030Y001945D01*
X002936Y005290D02*
X002494Y005290D01*
X003780Y006372D02*
X004817Y006372D01*
X005281Y006569D02*
X005349Y006508D01*
X003093Y009633D02*
X003093Y010133D01*
X009780Y015695D02*
X011530Y015695D01*
X012468Y016627D01*
X012468Y016820D01*
X012843Y017195D01*
X013030Y017195D01*
X013450Y017616D01*
X013750Y017616D01*
X013966Y018236D02*
X013966Y018384D01*
X013905Y018445D01*
X013655Y018445D01*
X013530Y018320D01*
X013286Y018320D01*
X013280Y018320D01*
X013280Y018508D01*
X013030Y018758D01*
X012774Y018320D02*
X012774Y017689D01*
X012593Y017508D01*
X012786Y016701D02*
X012280Y016195D01*
X012280Y015945D01*
X012343Y015883D01*
X012655Y016195D02*
X012661Y016189D01*
X013093Y016189D01*
X013286Y016195D01*
X013405Y016195D01*
X013405Y016695D01*
X013538Y016828D01*
X013750Y016828D01*
X013966Y016405D02*
X013966Y016256D01*
X013905Y016195D01*
X013405Y016195D01*
X013093Y016701D02*
X012786Y016701D01*
X013030Y015570D02*
X011905Y015570D01*
X012655Y014913D02*
X012655Y014701D01*
X013155Y014701D01*
X012852Y015110D02*
X012655Y014913D01*
X013218Y015383D02*
X013030Y015570D01*
X013899Y014945D02*
X013899Y014639D01*
X014030Y014508D01*
X014030Y014201D01*
X014024Y014195D01*
X014024Y014064D01*
X013780Y013820D01*
X013899Y013320D02*
X013655Y013320D01*
X013274Y012939D01*
X013155Y012939D01*
X012655Y012939D01*
X012655Y012945D01*
X011655Y012945D01*
X011530Y012820D01*
X010686Y012008D02*
X010749Y011945D01*
X015905Y011945D01*
X016405Y012445D01*
X016530Y012445D01*
X016280Y012695D02*
X016280Y013064D01*
X016286Y013070D01*
X016286Y013439D01*
X016155Y013564D01*
X015774Y013070D02*
X015155Y013070D01*
X014899Y012814D01*
X014899Y012445D01*
X014530Y012445D01*
X014274Y012189D01*
X013968Y012189D01*
X013536Y012189D01*
X013155Y012570D01*
X013155Y012939D01*
X013155Y013451D02*
X012655Y013451D01*
X012655Y013820D02*
X012655Y014195D01*
X012661Y014189D01*
X013155Y014189D01*
X012655Y014189D01*
X013093Y013820D02*
X013093Y013514D01*
X013155Y013451D01*
X013968Y012701D02*
X014286Y012701D01*
X014405Y012820D01*
X014405Y013314D01*
X014411Y013320D01*
X014905Y013695D02*
X014905Y013820D01*
X018093Y013820D01*
X018593Y013320D01*
X018030Y012570D02*
X018030Y012258D01*
X017011Y011264D01*
X010411Y011252D01*
X010118Y011508D02*
X016530Y011508D01*
X016655Y011633D01*
X016530Y012070D02*
X016155Y011695D01*
X010468Y011695D01*
X010336Y011820D01*
X013255Y009770D02*
X013280Y009745D01*
X013280Y008951D01*
X013280Y008439D02*
X013280Y008070D01*
X013030Y007820D01*
X014405Y008814D02*
X014649Y008570D01*
X014405Y008814D02*
X014405Y009008D01*
X014705Y009320D02*
X014255Y009770D01*
X014618Y010133D01*
X015468Y010133D01*
X015530Y010195D01*
X015530Y010320D01*
X015536Y009320D02*
X016155Y009320D01*
X016149Y008570D02*
X016149Y007876D01*
X016155Y007870D01*
X016661Y008570D02*
X017280Y008570D01*
X018030Y008570D01*
X018155Y008695D01*
X018155Y008814D01*
X018155Y009326D02*
X018155Y009570D01*
X017955Y009770D01*
X017555Y009770D01*
X017861Y007870D02*
X017155Y007870D01*
X017861Y007870D02*
X017905Y007826D01*
X017905Y007314D02*
X017649Y007314D01*
X017530Y007195D01*
X017530Y006701D01*
X017524Y006695D01*
X017155Y006695D01*
X017030Y006820D01*
X016705Y006820D01*
X016655Y006870D01*
X016649Y006864D01*
X016649Y006070D01*
X016649Y005445D01*
X016655Y005439D01*
X016655Y005070D01*
X016440Y004855D01*
X016440Y004415D01*
X016280Y005445D02*
X016649Y005445D01*
X016280Y005445D02*
X016161Y005564D01*
X015655Y005564D01*
X014655Y005564D01*
X014655Y006076D02*
X014655Y006870D01*
X015655Y006870D02*
X015655Y006076D01*
X017161Y006070D02*
X017161Y005445D01*
X017655Y005445D01*
X017780Y006070D02*
X017161Y006070D01*
X017780Y006070D02*
X018036Y006326D01*
X018036Y006695D01*
X018905Y006195D02*
X019399Y006195D01*
X019405Y006201D01*
X019405Y005689D02*
X019405Y005320D01*
X019280Y005195D01*
X019786Y007195D02*
X019780Y007201D01*
X019780Y007695D01*
X016030Y012445D02*
X015411Y012445D01*
X016030Y012445D02*
X016280Y012695D01*
X014905Y014195D02*
X014536Y014195D01*
X014655Y014945D02*
X014411Y014945D01*
X014655Y014945D02*
X014780Y015070D01*
X014557Y018226D02*
X014557Y018788D01*
X014163Y018500D02*
X014163Y018226D01*
X014163Y018500D02*
X014030Y018633D01*
X013593Y018633D01*
X012663Y019234D02*
X007939Y019234D01*
X007899Y019194D01*
X010405Y016695D02*
X010426Y016675D01*
X011082Y016675D01*
X011082Y016931D01*
X014705Y009320D02*
X015024Y009320D01*
X015030Y009326D01*
X015161Y008570D02*
X015161Y007876D01*
X015155Y007870D01*
X013780Y002564D02*
X013780Y002195D01*
D32*
X012905Y002195D03*
X015530Y002695D03*
X016155Y003445D03*
X016780Y003445D03*
X015530Y003695D03*
X015155Y005195D03*
D33*
X015530Y004415D02*
X015530Y003695D01*
X016155Y003445D02*
X016405Y003445D01*
X016405Y004320D01*
X016405Y003445D02*
X016780Y003445D01*
X015530Y002695D02*
X015530Y001975D01*
X012905Y002195D02*
X012718Y002008D01*
X012280Y002008D01*
X011972Y002316D01*
X011972Y002696D01*
D34*
X014155Y005133D02*
X014405Y005133D01*
X014593Y004945D01*
X014593Y004443D01*
X014620Y004415D01*
X014655Y004380D01*
X018155Y008820D02*
X018405Y008820D01*
X019280Y009695D01*
X019280Y010070D01*
X018780Y007695D02*
X018780Y007445D01*
X019030Y007195D01*
X019274Y007195D01*
X018093Y015008D02*
X015968Y015008D01*
X002530Y003320D02*
X002530Y002195D01*
X002530Y003320D02*
X001968Y003883D01*
X001968Y007945D01*
X001968Y008133D01*
X001968Y009508D01*
X001343Y010133D01*
D35*
X012838Y003070D02*
X013774Y003070D01*
X013780Y003076D01*
X014036Y003076D01*
X014655Y003695D01*
X015155Y003195D01*
X015655Y003195D01*
X016030Y002820D01*
X017472Y002820D01*
X017411Y002759D01*
X017411Y001945D01*
X016899Y001945D02*
X015560Y001945D01*
X015530Y001975D01*
X014655Y003695D02*
X014655Y004380D01*
X018338Y003194D02*
X018339Y003195D01*
X018780Y003195D01*
X019155Y003570D01*
X019530Y003570D01*
D36*
X008149Y011695D02*
X008149Y011945D01*
X007780Y011945D01*
X007655Y011945D01*
X008149Y011945D02*
X008149Y012320D01*
X007155Y012808D02*
X007155Y013439D01*
X007655Y013439D01*
X006661Y012445D02*
X006661Y011945D01*
X002494Y010014D02*
X002086Y010014D01*
X001961Y010133D01*
X001343Y010133D02*
X001343Y011070D01*
X001593Y011320D01*
X001593Y017695D01*
X001655Y017758D01*
X002143Y018184D01*
X002494Y018184D01*
D37*
X005405Y017133D02*
X005655Y017133D01*
X005905Y016883D01*
X005905Y016695D01*
X006155Y016445D01*
X006661Y016445D01*
X007093Y016014D01*
X006843Y016570D02*
X006205Y016570D01*
X006080Y016695D01*
X006080Y016958D01*
X006405Y016814D02*
X007587Y016814D01*
X007703Y016931D01*
X008228Y016931D01*
X008943Y017977D02*
X008968Y018002D01*
X008968Y018008D01*
X006593Y013070D02*
X006593Y012883D01*
X006405Y012695D01*
X006405Y011758D01*
X006468Y011695D01*
X006468Y011195D01*
X006530Y011133D01*
X006530Y010513D01*
X006529Y010512D01*
X006155Y010258D02*
X006155Y011378D01*
X006097Y011320D01*
X006155Y010258D02*
X006093Y010195D01*
X006093Y010195D01*
X006030Y010133D01*
X006030Y010133D01*
X005968Y010070D01*
X005968Y010070D01*
X005905Y010008D01*
X005905Y009570D01*
X005780Y009445D01*
X005355Y009445D01*
X005349Y009439D01*
X006161Y009820D02*
X006881Y009820D01*
X007131Y009570D01*
X007343Y009814D02*
X007099Y010045D01*
X007343Y009814D02*
X007655Y009814D01*
X007718Y009745D01*
X007718Y008695D01*
X007593Y008570D01*
X007131Y008570D01*
X007131Y009070D02*
X006881Y009320D01*
X006593Y009320D01*
X006486Y009427D01*
X006368Y009427D01*
X004817Y007947D02*
X004220Y007947D01*
X003968Y007695D01*
X003968Y007383D01*
X003780Y007195D01*
X003343Y007195D01*
X003218Y007320D01*
X003218Y007633D01*
X003343Y007758D01*
X003343Y007945D01*
X003218Y008070D01*
X003030Y008070D01*
X002905Y008195D01*
X002905Y008820D01*
X003218Y009133D01*
X002494Y009522D02*
X001982Y009522D01*
X001968Y009508D01*
X002494Y009522D02*
X002494Y009719D01*
X002494Y011097D02*
X003935Y011097D01*
X003999Y011033D01*
X004132Y010900D01*
X004263Y010900D01*
X002494Y008144D02*
X001979Y008144D01*
X001968Y008133D01*
X001970Y007947D02*
X001968Y007945D01*
X001970Y007947D02*
X002494Y007947D01*
X003030Y005945D02*
X003030Y005695D01*
X004817Y005782D02*
X005256Y005782D01*
X005343Y005695D01*
X005343Y005508D01*
X005405Y005389D01*
X005599Y006195D02*
X005724Y006195D01*
X005968Y006439D01*
X005549Y006820D02*
X005343Y006820D01*
X005289Y006766D01*
X004817Y006766D01*
M02*
