%
M48
M72
T01C0.0150
T02C0.0354
T03C0.0400
T04C0.0512
T05C0.0520
T06C0.1260
T07C0.1280
%
T01
X6256Y4881
X7131Y4756
X8469Y4331
X9131Y4006
X10131Y5131
X11131Y4881
X11631Y4881
X10506Y6006
X10881Y6756
X10631Y7131
X10131Y7381
X9631Y7381
X7169Y7131
X4256Y6881
X8131Y10006
X9506Y10506
X9756Y10131
X10506Y10131
X10256Y10756
X10881Y11256
X12381Y10256
X13031Y10256
X13381Y9506
X12969Y8881
X13969Y8881
X14756Y8131
X15131Y7756
X15619Y8131
X15131Y8756
X15881Y9506
X15381Y10131
X14756Y10381
X14506Y11256
X14344Y12006
X14506Y12881
X14131Y14006
X12756Y12131
X12756Y11381
X11756Y12844
X9881Y13506
X7631Y13506
X7631Y14756
X8631Y16381
X7381Y17381
X8381Y17756
X9256Y17881
X10631Y17131
X12006Y16506
X13631Y18006
X17131Y15506
X18006Y13881
X17506Y13256
X17006Y11756
X16506Y11756
X16506Y11006
X17006Y11006
X17381Y10756
X17381Y10131
X17006Y10006
X17256Y8756
X17381Y8381
X18006Y8756
X18381Y8881
X18756Y8756
X19131Y8881
X19131Y7881
X18756Y7881
X17756Y7506
X17469Y7256
X17131Y7006
X17131Y6631
X16756Y6381
X17131Y6131
X16756Y5881
X18273Y5502
X18756Y5506
X19131Y5506
X19881Y5506
X19631Y4131
X20006Y3256
X22756Y4631
X22881Y3881
X21756Y5756
X21756Y6881
X21756Y8381
X21756Y9506
X20319Y9506
X21756Y10881
X21756Y12381
X22256Y12381
X22256Y12881
X21756Y12881
X21756Y13381
X22256Y13381
X22256Y13881
X21756Y13881
X21131Y13881
X21131Y13381
X20631Y13381
X20631Y13881
X20631Y12881
X20631Y12381
X21131Y12381
X21131Y12881
X19006Y11756
X18381Y11756
X20006Y15006
X21381Y16656
X20631Y17256
X18631Y19006
X22881Y15756
X23631Y15381
X24881Y15631
X17256Y7756
X19756Y7131
X15194Y4994
X13881Y5881
X14256Y6131
X13881Y6381
X14256Y6631
X13881Y7006
X14506Y7131
X13131Y6881
X11256Y9506
X8506Y11631
X4381Y12194
X4381Y10819
X756Y12881
X3256Y13881
X5256Y15131
X5381Y15881
X4631Y15881
X756Y15131
T02
X5385Y17454
X6763Y17454
T03
X8526Y15105
X9526Y15105
X10526Y15105
X11814Y15100
X12814Y15100
X13814Y15100
X17506Y11506
X23663Y11848
X24663Y11848
X24663Y10848
X23663Y10848
X23663Y9848
X24663Y9848
X24663Y8848
X23663Y8848
X23663Y7848
X24663Y7848
X24663Y6848
X24663Y5848
X23663Y5848
X23663Y6848
X23663Y4848
X24663Y4848
X20756Y4631
X20756Y3631
X20777Y2281
X19777Y2281
X18777Y2281
X17777Y2281
X16777Y2281
X15777Y2281
X14777Y2281
X13777Y2281
X13777Y1281
X14777Y1281
X15777Y1281
X16777Y1281
X17777Y1281
X18777Y1281
X19777Y1281
X20777Y1281
X12060Y1281
X12060Y2281
X11060Y2281
X10060Y2281
X9060Y2281
X8060Y2281
X7060Y2281
X6060Y2281
X5060Y2281
X5060Y1281
X6060Y1281
X7060Y1281
X8060Y1281
X9060Y1281
X10060Y1281
X11060Y1281
X23663Y12848
X24663Y12848
T04
X1942Y10643
X1942Y9265
X1942Y7887
X1942Y6509
X1942Y5048
T05
X12336Y18635
T06
X2100Y2100
X2100Y17848
X23753Y17848
X23753Y2100
T07
X19237Y17631
X15237Y17631
M30
