%FSLAX23Y23*%
%MOIN*%
G70*
G01*
G75*
G04 Layer_Physical_Order=4*
G04 Layer_Color=16711680*
%ADD10R,0.020X0.020*%
%ADD11R,0.020X0.020*%
%ADD12R,0.022X0.057*%
%ADD13R,0.022X0.057*%
%ADD14R,0.055X0.039*%
%ADD15R,0.079X0.043*%
%ADD16R,0.031X0.031*%
%ADD17R,0.059X0.098*%
%ADD18R,0.098X0.059*%
%ADD19R,0.039X0.055*%
G04:AMPARAMS|DCode=20|XSize=142mil|YSize=79mil|CornerRadius=4mil|HoleSize=0mil|Usage=FLASHONLY|Rotation=180.000|XOffset=0mil|YOffset=0mil|HoleType=Round|Shape=RoundedRectangle|*
%AMROUNDEDRECTD20*
21,1,0.142,0.071,0,0,180.0*
21,1,0.134,0.079,0,0,180.0*
1,1,0.008,-0.067,0.035*
1,1,0.008,0.067,0.035*
1,1,0.008,0.067,-0.035*
1,1,0.008,-0.067,-0.035*
%
%ADD20ROUNDEDRECTD20*%
%ADD21R,0.020X0.014*%
%ADD22R,0.014X0.020*%
%ADD23R,0.057X0.018*%
%ADD24R,0.071X0.045*%
%ADD25C,0.020*%
%ADD26R,0.020X0.063*%
%ADD27R,0.083X0.114*%
%ADD28R,0.051X0.039*%
%ADD29R,0.055X0.024*%
%ADD30R,0.071X0.024*%
G04:AMPARAMS|DCode=31|XSize=75mil|YSize=126mil|CornerRadius=0mil|HoleSize=0mil|Usage=FLASHONLY|Rotation=90.000|XOffset=0mil|YOffset=0mil|HoleType=Round|Shape=Octagon|*
%AMOCTAGOND31*
4,1,8,-0.063,-0.019,-0.063,0.019,-0.044,0.037,0.044,0.037,0.063,0.019,0.063,-0.019,0.044,-0.037,-0.044,-0.037,-0.063,-0.019,0.0*
%
%ADD31OCTAGOND31*%

%ADD32R,0.017X0.050*%
%ADD33R,0.050X0.017*%
%ADD34R,0.087X0.024*%
G04:AMPARAMS|DCode=35|XSize=12mil|YSize=71mil|CornerRadius=0mil|HoleSize=0mil|Usage=FLASHONLY|Rotation=315.000|XOffset=0mil|YOffset=0mil|HoleType=Round|Shape=Round|*
%AMOVALD35*
21,1,0.059,0.012,0.000,0.000,45.0*
1,1,0.012,-0.021,-0.021*
1,1,0.012,0.021,0.021*
%
%ADD35OVALD35*%

G04:AMPARAMS|DCode=36|XSize=12mil|YSize=71mil|CornerRadius=0mil|HoleSize=0mil|Usage=FLASHONLY|Rotation=45.000|XOffset=0mil|YOffset=0mil|HoleType=Round|Shape=Round|*
%AMOVALD36*
21,1,0.059,0.012,0.000,0.000,135.0*
1,1,0.012,0.021,-0.021*
1,1,0.012,-0.021,0.021*
%
%ADD36OVALD36*%

%ADD37R,0.018X0.037*%
%ADD38R,0.037X0.018*%
G04:AMPARAMS|DCode=39|XSize=228mil|YSize=252mil|CornerRadius=17mil|HoleSize=0mil|Usage=FLASHONLY|Rotation=0.000|XOffset=0mil|YOffset=0mil|HoleType=Round|Shape=RoundedRectangle|*
%AMROUNDEDRECTD39*
21,1,0.228,0.218,0,0,0.0*
21,1,0.194,0.252,0,0,0.0*
1,1,0.034,0.097,-0.109*
1,1,0.034,-0.097,-0.109*
1,1,0.034,-0.097,0.109*
1,1,0.034,0.097,0.109*
%
%ADD39ROUNDEDRECTD39*%
G04:AMPARAMS|DCode=40|XSize=47mil|YSize=87mil|CornerRadius=4mil|HoleSize=0mil|Usage=FLASHONLY|Rotation=0.000|XOffset=0mil|YOffset=0mil|HoleType=Round|Shape=RoundedRectangle|*
%AMROUNDEDRECTD40*
21,1,0.047,0.080,0,0,0.0*
21,1,0.040,0.087,0,0,0.0*
1,1,0.007,0.020,-0.040*
1,1,0.007,-0.020,-0.040*
1,1,0.007,-0.020,0.040*
1,1,0.007,0.020,0.040*
%
%ADD40ROUNDEDRECTD40*%
%ADD41R,0.146X0.059*%
%ADD42R,0.059X0.146*%
G04:AMPARAMS|DCode=43|XSize=95mil|YSize=130mil|CornerRadius=7mil|HoleSize=0mil|Usage=FLASHONLY|Rotation=90.000|XOffset=0mil|YOffset=0mil|HoleType=Round|Shape=RoundedRectangle|*
%AMROUNDEDRECTD43*
21,1,0.095,0.116,0,0,90.0*
21,1,0.081,0.130,0,0,90.0*
1,1,0.014,0.058,0.040*
1,1,0.014,0.058,-0.040*
1,1,0.014,-0.058,-0.040*
1,1,0.014,-0.058,0.040*
%
%ADD43ROUNDEDRECTD43*%
G04:AMPARAMS|DCode=44|XSize=26mil|YSize=69mil|CornerRadius=2mil|HoleSize=0mil|Usage=FLASHONLY|Rotation=180.000|XOffset=0mil|YOffset=0mil|HoleType=Round|Shape=RoundedRectangle|*
%AMROUNDEDRECTD44*
21,1,0.026,0.065,0,0,180.0*
21,1,0.022,0.069,0,0,180.0*
1,1,0.004,-0.011,0.033*
1,1,0.004,0.011,0.033*
1,1,0.004,0.011,-0.033*
1,1,0.004,-0.011,-0.033*
%
%ADD44ROUNDEDRECTD44*%
%ADD45R,0.039X0.125*%
G04:AMPARAMS|DCode=46|XSize=95mil|YSize=130mil|CornerRadius=7mil|HoleSize=0mil|Usage=FLASHONLY|Rotation=0.000|XOffset=0mil|YOffset=0mil|HoleType=Round|Shape=RoundedRectangle|*
%AMROUNDEDRECTD46*
21,1,0.095,0.116,0,0,0.0*
21,1,0.081,0.130,0,0,0.0*
1,1,0.014,0.040,-0.058*
1,1,0.014,-0.040,-0.058*
1,1,0.014,-0.040,0.058*
1,1,0.014,0.040,0.058*
%
%ADD46ROUNDEDRECTD46*%
G04:AMPARAMS|DCode=47|XSize=26mil|YSize=69mil|CornerRadius=2mil|HoleSize=0mil|Usage=FLASHONLY|Rotation=90.000|XOffset=0mil|YOffset=0mil|HoleType=Round|Shape=RoundedRectangle|*
%AMROUNDEDRECTD47*
21,1,0.026,0.065,0,0,90.0*
21,1,0.022,0.069,0,0,90.0*
1,1,0.004,0.033,0.011*
1,1,0.004,0.033,-0.011*
1,1,0.004,-0.033,-0.011*
1,1,0.004,-0.033,0.011*
%
%ADD47ROUNDEDRECTD47*%
%ADD48R,0.125X0.039*%
%ADD49R,0.051X0.079*%
%ADD50R,0.043X0.039*%
%ADD51R,0.057X0.022*%
%ADD52R,0.057X0.022*%
%ADD53R,0.051X0.043*%
%ADD54R,0.043X0.051*%
%ADD55R,0.050X0.012*%
%ADD56C,0.006*%
%ADD57C,0.012*%
%ADD58C,0.016*%
%ADD59C,0.020*%
%ADD60C,0.025*%
%ADD61C,0.030*%
%ADD62C,0.010*%
%ADD63C,0.043*%
%ADD64C,0.145*%
%ADD65C,0.079*%
%ADD66C,0.256*%
%ADD67C,0.118*%
%ADD68C,0.157*%
%ADD69C,0.055*%
%ADD70C,0.059*%
%ADD71C,0.018*%
%ADD72C,0.040*%
%ADD73C,0.007*%
%ADD74C,0.056*%
%ADD75C,0.083*%
%ADD76C,0.260*%
%ADD77C,0.099*%
%ADD78C,0.146*%
%ADD79C,0.060*%
%ADD80C,0.052*%
%ADD81C,0.032*%
%ADD82R,0.039X0.043*%
%ADD83C,0.055*%
G36*
X58Y-837D02*
X-291D01*
Y-746D01*
X-463D01*
Y-503D01*
X58D01*
Y-837D01*
D02*
G37*
G36*
X1222Y324D02*
X1221Y322D01*
X1220Y309D01*
X1221Y296D01*
X1222Y294D01*
Y270D01*
X1332Y185D01*
Y-172D01*
X1169Y-366D01*
Y-412D01*
X1166Y-414D01*
X1163Y-418D01*
X1126Y-455D01*
X1064D01*
X1064Y-455D01*
X1057Y-454D01*
X1050Y-455D01*
X1045Y-459D01*
X1041Y-464D01*
X1040Y-471D01*
X1041Y-478D01*
X1045Y-483D01*
X1050Y-487D01*
X1057Y-488D01*
X1059Y-488D01*
X1132D01*
X1139Y-487D01*
X1144Y-483D01*
X1144Y-483D01*
X1144Y-483D01*
X1164Y-463D01*
X1169Y-465D01*
Y-515D01*
X1168D01*
Y-821D01*
X1140Y-836D01*
X819Y-837D01*
Y-746D01*
X647D01*
Y-515D01*
Y-344D01*
X648Y-343D01*
X674Y-317D01*
X700Y-291D01*
X700Y-291D01*
X701Y-290D01*
X701Y-290D01*
X701Y-290D01*
X702Y-290D01*
X702Y-290D01*
X703Y-290D01*
X703Y-290D01*
X703D01*
X703D01*
Y-290D01*
X703Y-290D01*
X705Y-290D01*
X707Y-292D01*
X712Y-296D01*
X719Y-297D01*
X726Y-296D01*
X731Y-292D01*
X735Y-287D01*
X736Y-280D01*
X735Y-273D01*
X731Y-268D01*
X728Y-266D01*
X728Y-265D01*
X729Y-264D01*
X729Y-263D01*
X729Y-263D01*
X729Y-262D01*
X729Y-262D01*
X729Y-262D01*
X730Y-261D01*
X730Y-261D01*
X1039Y48D01*
Y51D01*
X1039Y51D01*
X1039Y51D01*
Y388D01*
X1039Y388D01*
X1039Y388D01*
Y388D01*
Y401D01*
X1040Y402D01*
X1222D01*
Y324D01*
D02*
G37*
G36*
X-498Y-837D02*
X-847D01*
Y-746D01*
X-1019D01*
Y-503D01*
X-498D01*
Y-837D01*
D02*
G37*
G36*
X1031Y388D02*
Y51D01*
X723Y-256D01*
X723Y-256D01*
X723Y-257D01*
X722Y-258D01*
X722Y-259D01*
X722Y-259D01*
X721Y-259D01*
X721Y-260D01*
X718Y-263D01*
X712Y-264D01*
X707Y-268D01*
X703Y-273D01*
X702Y-279D01*
X699Y-282D01*
X698Y-282D01*
X698Y-283D01*
X698Y-283D01*
X697Y-283D01*
X696Y-284D01*
X695Y-284D01*
X695Y-284D01*
X641Y-338D01*
X639Y-341D01*
X639Y-342D01*
X613Y-368D01*
X614Y-503D01*
X614D01*
Y-837D01*
X265D01*
Y-746D01*
X93D01*
Y-503D01*
X97D01*
X96Y-503D01*
X137Y-450D01*
Y-368D01*
X153Y-352D01*
X159D01*
X168Y-350D01*
X177Y-347D01*
X184Y-341D01*
X215Y-310D01*
X215Y-310D01*
X215Y-310D01*
X220Y-303D01*
X222Y-299D01*
X223Y-297D01*
X225Y-296D01*
X232Y-297D01*
X239Y-296D01*
X244Y-292D01*
X248Y-287D01*
X249Y-280D01*
X248Y-273D01*
X244Y-268D01*
X243Y-267D01*
Y-262D01*
X336Y-169D01*
X364D01*
X365Y-170D01*
X370Y-174D01*
X377Y-175D01*
X384Y-174D01*
X389Y-170D01*
X393Y-165D01*
X394Y-158D01*
X393Y-151D01*
X389Y-146D01*
X384Y-142D01*
X377Y-141D01*
X370Y-142D01*
X369Y-143D01*
X366Y-139D01*
X577Y72D01*
X582Y70D01*
X588Y68D01*
X595Y70D01*
X601Y73D01*
X604Y79D01*
X606Y86D01*
X604Y92D01*
X602Y97D01*
X757Y252D01*
X766Y247D01*
X778Y243D01*
X791Y242D01*
X804Y243D01*
X817Y247D01*
X829Y253D01*
X839Y261D01*
X847Y272D01*
X854Y283D01*
X857Y296D01*
X859Y309D01*
X857Y322D01*
X854Y335D01*
X847Y346D01*
X839Y357D01*
X830Y364D01*
X845Y386D01*
X1009D01*
X1018Y387D01*
X1023Y390D01*
X1027Y391D01*
X1031Y388D01*
D02*
G37*
G36*
X-160Y-77D02*
X-160Y-77D01*
X-160Y-81D01*
X-157Y-85D01*
X-153Y-89D01*
X-154Y-94D01*
X-159Y-97D01*
X-162Y-103D01*
X-164Y-109D01*
X-162Y-116D01*
X-159Y-122D01*
X-153Y-125D01*
X-146Y-127D01*
X-143Y-129D01*
X-143Y-158D01*
X-147Y-161D01*
X-153Y-160D01*
X-160Y-161D01*
X-165Y-165D01*
X-169Y-170D01*
X-170Y-177D01*
X-169Y-184D01*
X-165Y-189D01*
X-160Y-193D01*
X-153Y-194D01*
X-147Y-193D01*
X-143Y-196D01*
X-143Y-219D01*
X-147Y-222D01*
X-150Y-222D01*
X-157Y-223D01*
X-162Y-227D01*
X-166Y-232D01*
X-167Y-239D01*
X-166Y-246D01*
X-162Y-251D01*
X-157Y-255D01*
X-155Y-255D01*
X-154Y-260D01*
X-282Y-388D01*
X-287Y-388D01*
X-289Y-386D01*
X-294Y-382D01*
X-301Y-381D01*
X-308Y-382D01*
X-313Y-386D01*
X-317Y-391D01*
X-318Y-398D01*
X-317Y-405D01*
X-316Y-407D01*
X-318Y-411D01*
X-482D01*
X-491Y-412D01*
X-496Y-415D01*
X-500Y-416D01*
X-507Y-422D01*
X-554Y-468D01*
X-657D01*
Y-437D01*
X-652Y-434D01*
X-647Y-438D01*
X-640Y-439D01*
X-633Y-438D01*
X-628Y-434D01*
X-627D01*
X-622Y-438D01*
X-615Y-439D01*
X-608Y-438D01*
X-603Y-434D01*
X-599Y-429D01*
X-598Y-422D01*
X-599Y-415D01*
X-603Y-410D01*
X-602Y-407D01*
X-561D01*
X-560Y-408D01*
X-559Y-415D01*
X-555Y-420D01*
X-550Y-424D01*
X-543Y-425D01*
X-536Y-424D01*
X-531Y-420D01*
X-527Y-415D01*
X-526Y-408D01*
X-527Y-401D01*
X-531Y-396D01*
X-536Y-392D01*
X-543Y-391D01*
X-544Y-391D01*
X-547Y-388D01*
X-551Y-386D01*
X-555Y-385D01*
X-555Y-385D01*
X-581D01*
X-582Y-380D01*
X-577Y-376D01*
X-573Y-371D01*
X-572Y-364D01*
X-573Y-357D01*
X-577Y-352D01*
X-582Y-348D01*
X-589Y-347D01*
X-596Y-348D01*
X-601Y-352D01*
X-604Y-356D01*
X-609Y-357D01*
X-657Y-309D01*
Y-155D01*
X-652Y-154D01*
X-652Y-156D01*
X-648Y-162D01*
X-642Y-165D01*
X-636Y-167D01*
X-629Y-165D01*
X-623Y-162D01*
X-620Y-156D01*
X-618Y-149D01*
X-620Y-143D01*
X-623Y-137D01*
X-629Y-133D01*
X-636Y-132D01*
X-636Y-132D01*
X-554Y-50D01*
X-552Y-52D01*
X-545Y-53D01*
X-538Y-52D01*
X-533Y-48D01*
X-532Y-48D01*
X-527Y-44D01*
X-522Y-48D01*
X-515Y-49D01*
X-508Y-48D01*
X-503Y-44D01*
X-499Y-39D01*
X-498Y-32D01*
X-498Y-31D01*
X-487Y-20D01*
X-481Y-19D01*
X-476Y-15D01*
X-472Y-10D01*
X-471Y-3D01*
X-472Y4D01*
X-471Y5D01*
X-368D01*
X-364Y2D01*
X-357Y1D01*
X-350Y2D01*
X-345Y6D01*
X-341Y11D01*
X-340Y18D01*
X-340Y18D01*
X-337Y22D01*
X-160D01*
Y-77D01*
D02*
G37*
%LPC*%
G36*
X-235Y-245D02*
X-242Y-246D01*
X-247Y-250D01*
X-251Y-255D01*
X-252Y-258D01*
X-313Y-320D01*
X-413D01*
X-416Y-318D01*
X-423Y-317D01*
X-429Y-318D01*
X-435Y-322D01*
X-439Y-328D01*
X-440Y-334D01*
X-439Y-341D01*
X-435Y-347D01*
X-429Y-350D01*
X-423Y-352D01*
X-416Y-350D01*
X-413Y-349D01*
X-307D01*
X-307Y-349D01*
X-302Y-347D01*
X-297Y-344D01*
X-231Y-279D01*
X-228Y-278D01*
X-223Y-274D01*
X-219Y-269D01*
X-218Y-262D01*
X-219Y-255D01*
X-223Y-250D01*
X-228Y-246D01*
X-235Y-245D01*
D02*
G37*
G36*
X871Y-263D02*
X864Y-264D01*
X859Y-268D01*
X855Y-273D01*
X854Y-280D01*
X855Y-287D01*
X859Y-292D01*
X864Y-296D01*
X871Y-297D01*
X878Y-296D01*
X883Y-292D01*
X887Y-287D01*
X888Y-280D01*
X887Y-273D01*
X883Y-268D01*
X878Y-264D01*
X871Y-263D01*
D02*
G37*
G36*
X1106Y-262D02*
X1099Y-263D01*
X1094Y-267D01*
X1090Y-272D01*
X1089Y-279D01*
X1090Y-286D01*
X1094Y-291D01*
X1099Y-295D01*
X1106Y-296D01*
X1113Y-295D01*
X1118Y-291D01*
X1122Y-286D01*
X1123Y-279D01*
X1122Y-272D01*
X1118Y-267D01*
X1113Y-263D01*
X1106Y-262D01*
D02*
G37*
G36*
X955D02*
X948Y-263D01*
X943Y-267D01*
X939Y-272D01*
X938Y-279D01*
X939Y-286D01*
X943Y-291D01*
X948Y-295D01*
X955Y-296D01*
X962Y-295D01*
X967Y-291D01*
X971Y-286D01*
X972Y-279D01*
X971Y-272D01*
X967Y-267D01*
X962Y-263D01*
X955Y-262D01*
D02*
G37*
G36*
X278Y-367D02*
X271Y-369D01*
X265Y-372D01*
X262Y-378D01*
X260Y-385D01*
X262Y-391D01*
X265Y-397D01*
X271Y-401D01*
X278Y-402D01*
X284Y-401D01*
X290Y-397D01*
X294Y-391D01*
X295Y-385D01*
X294Y-378D01*
X290Y-372D01*
X284Y-369D01*
X278Y-367D01*
D02*
G37*
G36*
X172Y-464D02*
X165Y-465D01*
X160Y-469D01*
X156Y-474D01*
X155Y-481D01*
X156Y-488D01*
X160Y-493D01*
X165Y-497D01*
X172Y-498D01*
X179Y-497D01*
X184Y-493D01*
X188Y-488D01*
X189Y-481D01*
X188Y-474D01*
X184Y-469D01*
X179Y-465D01*
X172Y-464D01*
D02*
G37*
G36*
X705Y-324D02*
X699Y-325D01*
X693Y-329D01*
X689Y-335D01*
X688Y-341D01*
X689Y-348D01*
X693Y-354D01*
X699Y-357D01*
X705Y-359D01*
X712Y-357D01*
X718Y-354D01*
X721Y-348D01*
X723Y-341D01*
X721Y-335D01*
X718Y-329D01*
X712Y-325D01*
X705Y-324D01*
D02*
G37*
G36*
X1031Y-296D02*
X1024Y-297D01*
X1019Y-301D01*
X1015Y-306D01*
X1014Y-313D01*
X1015Y-320D01*
X1019Y-325D01*
X1024Y-329D01*
X1031Y-330D01*
X1038Y-329D01*
X1043Y-325D01*
X1047Y-320D01*
X1048Y-313D01*
X1047Y-306D01*
X1043Y-301D01*
X1038Y-297D01*
X1031Y-296D01*
D02*
G37*
G36*
X508Y-305D02*
X501Y-306D01*
X496Y-310D01*
X492Y-315D01*
X491Y-322D01*
X492Y-329D01*
X496Y-334D01*
X501Y-338D01*
X508Y-339D01*
X515Y-338D01*
X520Y-334D01*
X524Y-329D01*
X525Y-322D01*
X524Y-315D01*
X520Y-310D01*
X515Y-306D01*
X508Y-305D01*
D02*
G37*
G36*
X1264Y-38D02*
X1257Y-39D01*
X1252Y-43D01*
X1248Y-48D01*
X1247Y-55D01*
X1248Y-62D01*
X1252Y-67D01*
X1257Y-71D01*
X1264Y-72D01*
X1271Y-71D01*
X1276Y-67D01*
X1280Y-62D01*
X1281Y-55D01*
X1280Y-48D01*
X1276Y-43D01*
X1271Y-39D01*
X1264Y-38D01*
D02*
G37*
G36*
X579Y-83D02*
X572Y-84D01*
X567Y-88D01*
X563Y-93D01*
X562Y-100D01*
X563Y-107D01*
X567Y-112D01*
X572Y-116D01*
X579Y-117D01*
X586Y-116D01*
X591Y-112D01*
X595Y-107D01*
X596Y-100D01*
X595Y-93D01*
X591Y-88D01*
X586Y-84D01*
X579Y-83D01*
D02*
G37*
G36*
X1043Y-89D02*
X1036Y-90D01*
X1031Y-94D01*
X1027Y-99D01*
X1026Y-106D01*
X1027Y-113D01*
X1031Y-118D01*
X1036Y-122D01*
X1043Y-123D01*
X1050Y-122D01*
X1055Y-118D01*
X1059Y-113D01*
X1060Y-106D01*
X1059Y-99D01*
X1055Y-94D01*
X1050Y-90D01*
X1043Y-89D01*
D02*
G37*
G36*
X1042Y9D02*
X1035Y8D01*
X1030Y4D01*
X1026Y-1D01*
X1025Y-8D01*
X1026Y-15D01*
X1030Y-20D01*
X1035Y-24D01*
X1042Y-25D01*
X1049Y-24D01*
X1054Y-20D01*
X1058Y-15D01*
X1059Y-8D01*
X1058Y-1D01*
X1054Y4D01*
X1049Y8D01*
X1042Y9D01*
D02*
G37*
G36*
X578Y-17D02*
X571Y-18D01*
X566Y-22D01*
X562Y-27D01*
X561Y-34D01*
X562Y-41D01*
X566Y-46D01*
X571Y-50D01*
X578Y-51D01*
X585Y-50D01*
X590Y-46D01*
X594Y-41D01*
X595Y-34D01*
X594Y-27D01*
X590Y-22D01*
X585Y-18D01*
X578Y-17D01*
D02*
G37*
G36*
X638Y-18D02*
X631Y-19D01*
X626Y-23D01*
X622Y-28D01*
X621Y-35D01*
X622Y-42D01*
X626Y-47D01*
X631Y-51D01*
X638Y-52D01*
X645Y-51D01*
X650Y-47D01*
X654Y-42D01*
X655Y-35D01*
X654Y-28D01*
X650Y-23D01*
X645Y-19D01*
X638Y-18D01*
D02*
G37*
G36*
X-589Y-181D02*
X-596Y-183D01*
X-601Y-187D01*
X-605Y-192D01*
X-607Y-199D01*
X-605Y-205D01*
X-601Y-211D01*
X-596Y-215D01*
X-589Y-216D01*
X-583Y-215D01*
X-577Y-211D01*
X-573Y-205D01*
X-572Y-199D01*
X-573Y-192D01*
X-577Y-187D01*
X-583Y-183D01*
X-589Y-181D01*
D02*
G37*
G36*
X377Y-182D02*
X370Y-183D01*
X365Y-187D01*
X361Y-192D01*
X360Y-199D01*
X361Y-206D01*
X365Y-211D01*
X370Y-215D01*
X377Y-216D01*
X384Y-215D01*
X389Y-211D01*
X393Y-206D01*
X394Y-199D01*
X393Y-192D01*
X389Y-187D01*
X384Y-183D01*
X377Y-182D01*
D02*
G37*
G36*
X1149Y-191D02*
X1142Y-192D01*
X1137Y-196D01*
X1133Y-201D01*
X1132Y-208D01*
X1133Y-215D01*
X1137Y-220D01*
X1142Y-224D01*
X1149Y-225D01*
X1156Y-224D01*
X1161Y-220D01*
X1165Y-215D01*
X1166Y-208D01*
X1165Y-201D01*
X1161Y-196D01*
X1156Y-192D01*
X1149Y-191D01*
D02*
G37*
G36*
X-298Y-92D02*
X-304Y-93D01*
X-310Y-97D01*
X-314Y-103D01*
X-315Y-109D01*
X-314Y-116D01*
X-310Y-122D01*
X-304Y-125D01*
X-298Y-127D01*
X-291Y-125D01*
X-285Y-122D01*
X-282Y-116D01*
X-280Y-109D01*
X-282Y-103D01*
X-285Y-97D01*
X-291Y-93D01*
X-298Y-92D01*
D02*
G37*
G36*
X-500Y-100D02*
X-507Y-101D01*
X-512Y-105D01*
X-516Y-110D01*
X-517Y-117D01*
X-516Y-124D01*
X-512Y-129D01*
X-507Y-133D01*
X-500Y-134D01*
X-493Y-133D01*
X-488Y-129D01*
X-484Y-124D01*
X-483Y-117D01*
X-484Y-110D01*
X-488Y-105D01*
X-493Y-101D01*
X-500Y-100D01*
D02*
G37*
G36*
X773Y-40D02*
X766Y-42D01*
X760Y-45D01*
X757Y-51D01*
X755Y-58D01*
X757Y-64D01*
X760Y-70D01*
X761Y-71D01*
Y-115D01*
X677Y-199D01*
X672Y-198D01*
X672Y-196D01*
X668Y-191D01*
X663Y-187D01*
X656Y-186D01*
X649Y-187D01*
X644Y-191D01*
X640Y-196D01*
X639Y-203D01*
X639Y-207D01*
X636Y-211D01*
X624D01*
X620Y-212D01*
X616Y-214D01*
X616Y-214D01*
X601Y-229D01*
X600Y-229D01*
X593Y-230D01*
X588Y-234D01*
X584Y-239D01*
X583Y-246D01*
X584Y-253D01*
X588Y-258D01*
X593Y-262D01*
X600Y-263D01*
X600Y-263D01*
X609Y-265D01*
X610Y-272D01*
X614Y-277D01*
X619Y-281D01*
X626Y-282D01*
X633Y-281D01*
X638Y-277D01*
X642Y-272D01*
X643Y-265D01*
X642Y-258D01*
X638Y-253D01*
X633Y-249D01*
X626Y-248D01*
X626Y-248D01*
X618Y-246D01*
X617Y-245D01*
X629Y-233D01*
X670D01*
X670Y-233D01*
X674Y-232D01*
X678Y-230D01*
X781Y-127D01*
X781Y-127D01*
X783Y-124D01*
X784Y-119D01*
Y-71D01*
X785Y-70D01*
X789Y-64D01*
X790Y-58D01*
X789Y-51D01*
X785Y-45D01*
X779Y-42D01*
X773Y-40D01*
D02*
G37*
%LPD*%
D50*
X-1604Y236D02*
D03*
Y302D02*
D03*
X-1231Y236D02*
D03*
Y302D02*
D03*
X-1112Y755D02*
D03*
Y821D02*
D03*
X-1061Y755D02*
D03*
Y821D02*
D03*
D56*
X-1229Y236D02*
X-1186D01*
X-1602D02*
X-1601Y235D01*
X-1559D01*
X-1561Y237D02*
X-1559Y235D01*
X-1248Y5D02*
X-1245D01*
X-1244Y4D01*
X-1326Y-329D02*
X-1324D01*
X-1502Y-50D02*
Y99D01*
X227Y452D02*
Y471D01*
X238Y482D01*
Y623D01*
X-598Y565D02*
X-569Y536D01*
X-748Y565D02*
X-598D01*
X-697Y540D02*
X-659D01*
X-892Y714D02*
X-891Y715D01*
X-273Y323D02*
X-257Y307D01*
X-137Y335D02*
X-113Y311D01*
X-26Y347D02*
X26Y295D01*
X-717Y516D02*
X-650Y449D01*
X100Y448D02*
Y629D01*
X-473Y404D02*
Y454D01*
X-332Y404D02*
Y454D01*
X-189Y390D02*
Y451D01*
X-257Y281D02*
Y307D01*
X-113Y282D02*
Y311D01*
X-49Y423D02*
Y451D01*
X26Y282D02*
Y295D01*
X-257Y281D02*
X-257Y281D01*
X-113Y282D02*
X-113Y282D01*
X26Y282D02*
X28Y280D01*
X238Y623D02*
Y624D01*
X-304Y-37D02*
X-303Y-38D01*
X-185Y3D02*
X-184Y2D01*
X-547Y-442D02*
X-544D01*
X-496Y-399D02*
X-494Y-397D01*
X-391Y-248D02*
X-389Y-246D01*
X-615Y-272D02*
X-615Y-272D01*
X-717Y516D02*
Y534D01*
X-718Y282D02*
X-718Y282D01*
X712Y-904D02*
X1007D01*
X666Y-951D02*
X712Y-904D01*
X760Y-948D02*
X781Y-968D01*
X696Y-948D02*
X760D01*
X158Y-904D02*
X453D01*
X112Y-951D02*
X158Y-904D01*
X206Y-948D02*
X227Y-968D01*
X142Y-948D02*
X206D01*
X-398Y-904D02*
X-103D01*
X-444Y-951D02*
X-398Y-904D01*
X-350Y-948D02*
X-329Y-968D01*
X-414Y-948D02*
X-350D01*
X-954Y-904D02*
X-659D01*
X-1000Y-951D02*
X-954Y-904D01*
X-906Y-948D02*
X-885Y-968D01*
X-970Y-948D02*
X-906D01*
X-1426Y-394D02*
X-1410Y-378D01*
X983Y-1034D02*
X984D01*
X-1308Y-246D02*
X-1262Y-292D01*
X-1303Y-179D02*
X-1292Y-190D01*
X-1423Y-357D02*
X-1423Y-357D01*
X-1444Y-378D02*
X-1423Y-357D01*
X-1422Y-356D01*
X-1445Y-342D02*
X-1436Y-333D01*
X-1465Y-312D02*
X-1461Y-316D01*
X-1414Y-217D02*
Y-216D01*
X-1415Y-215D02*
X-1414Y-216D01*
X-1445Y-351D02*
Y-342D01*
X-1415Y-148D02*
X-1410D01*
X-1415Y-148D02*
X-1415Y-148D01*
X-1262Y-331D02*
Y-292D01*
X773Y-119D02*
Y-58D01*
X670Y-222D02*
X773Y-119D01*
X624Y-222D02*
X670D01*
X600Y-246D02*
X624Y-222D01*
X1364Y-744D02*
Y-719D01*
X1314Y-726D02*
Y-719D01*
X1246Y-794D02*
X1314Y-726D01*
X1388Y-738D02*
Y-656D01*
X1515Y-529D01*
X1229Y-822D02*
X1304D01*
X1388Y-738D01*
X1228Y-806D02*
X1302D01*
X1364Y-744D01*
X997Y-1016D02*
X1002Y-1021D01*
X925Y-1012D02*
X934Y-1003D01*
X1060D01*
X1132Y-931D01*
Y-884D01*
X1157Y-895D02*
X1229Y-822D01*
X1145Y-889D02*
X1228Y-806D01*
X1223Y-794D02*
X1246D01*
X1191Y-825D02*
X1223Y-794D01*
X1132Y-884D02*
X1191Y-825D01*
X1192Y-824D01*
X-973Y-1043D02*
X534D01*
X-969Y-1030D02*
X-2D01*
X-1029Y-817D02*
Y-541D01*
Y-817D02*
X-1004Y-842D01*
X534Y-1043D02*
X632Y-945D01*
Y-873D01*
X663Y-842D01*
X-2Y-1030D02*
X81Y-947D01*
Y-870D01*
X108Y-843D01*
X-964Y-1017D02*
X-545D01*
X-483Y-955D01*
Y-878D01*
X-447Y-842D01*
X-436Y284D02*
X-436Y284D01*
X-294Y282D02*
X-292Y280D01*
X-11Y283D02*
X-11Y283D01*
X-194Y241D02*
X-96D01*
X-200Y247D02*
X-194Y241D01*
X-1061Y755D02*
X-1031D01*
X-1031Y755D01*
X-1107Y429D02*
X-1107D01*
X-1130Y443D02*
X-1126Y448D01*
X-1156Y554D02*
X-1085D01*
X-1206Y540D02*
Y563D01*
X-1158Y611D01*
X-1144D01*
X-1140Y787D02*
Y788D01*
X-1143Y755D02*
X-1112D01*
X-1225Y572D02*
X-1173Y624D01*
X-1618Y-424D02*
X-1617Y-425D01*
X-1619Y-424D02*
X-1618D01*
X-1415Y-215D02*
X-1392D01*
X-1295Y-154D02*
X-1192Y-51D01*
X-1191Y-50D01*
X-1165Y412D02*
X-1129Y448D01*
X-1343Y286D02*
X-1233Y396D01*
X-1240Y412D02*
X-1165D01*
X-1359Y293D02*
X-1240Y412D01*
X-1343Y168D02*
Y286D01*
X-1359Y175D02*
Y293D01*
X-650Y436D02*
Y449D01*
X-964Y247D02*
Y277D01*
X-977Y252D02*
Y282D01*
X-989Y287D02*
X-957Y319D01*
X-989Y257D02*
Y287D01*
X-1001Y292D02*
X-962Y331D01*
X-1001Y262D02*
Y292D01*
X-915Y294D02*
X-849Y360D01*
X-920Y307D02*
X-854Y372D01*
X-925Y319D02*
X-860Y384D01*
X-930Y331D02*
X-865Y397D01*
X-952Y242D02*
Y272D01*
X-1253Y109D02*
X-1249Y105D01*
X-1214Y122D02*
Y122D01*
X-1477Y154D02*
X-1397D01*
X-1371Y180D01*
Y298D01*
X-1109Y32D02*
X-1105D01*
X-952Y272D02*
X-942Y282D01*
X-964Y277D02*
X-947Y294D01*
X-915D01*
X-977Y282D02*
X-952Y307D01*
X-920D01*
X-957Y319D02*
X-925D01*
X-962Y331D02*
X-930D01*
X-1147Y29D02*
Y45D01*
X-1103Y792D02*
Y818D01*
X-1071Y792D02*
Y820D01*
X-1070Y821D01*
X-1231Y302D02*
Y333D01*
Y238D02*
Y268D01*
X-1232Y237D02*
X-1231Y238D01*
X-1195Y-428D02*
X-1194Y-429D01*
X-1066Y-950D02*
Y-527D01*
X-1053Y-945D02*
Y-522D01*
X-1041Y-541D02*
Y-517D01*
X-1029Y-541D02*
Y-512D01*
X-1237Y-321D02*
X-1041Y-517D01*
X-1249Y-326D02*
X-1053Y-522D01*
X-1262Y-331D02*
X-1066Y-527D01*
X-1250Y-209D02*
X-1190D01*
X-1415Y-148D02*
X-1377D01*
X-1401Y-170D02*
X-1382D01*
X-1447Y-497D02*
Y-411D01*
X-1422Y-356D02*
Y-308D01*
X-1436Y-333D02*
Y-311D01*
X-1432Y-298D02*
X-1422Y-308D01*
X-1449Y-298D02*
X-1436Y-311D01*
X-1449Y-298D02*
Y-102D01*
X-1481Y-377D02*
X-1447Y-411D01*
X-1465Y-312D02*
Y-109D01*
X-1437Y-72D02*
X-1380D01*
X-1432Y-298D02*
Y-102D01*
X-1246Y-523D02*
X-1176Y-453D01*
X-1225Y-316D02*
Y-264D01*
Y-316D02*
X-1029Y-512D01*
X-1237Y-321D02*
Y-272D01*
X-1249Y-326D02*
Y-280D01*
X-1292Y-480D02*
Y-391D01*
X-1371Y-344D02*
X-1368D01*
X-1589Y-659D02*
Y-631D01*
X-1529Y-571D01*
X-1539Y-709D02*
Y-704D01*
X-1426Y-591D01*
X-1319D01*
Y-502D02*
Y-387D01*
X-1353Y-353D02*
X-1319Y-387D01*
X-1362Y-353D02*
X-1353D01*
X-1371Y-344D02*
X-1362Y-353D01*
X-1267Y490D02*
X-1253Y476D01*
X-1267Y490D02*
Y520D01*
X-1540Y485D02*
X-1301Y724D01*
X-1515Y484D02*
X-1288Y710D01*
X-1301Y724D02*
Y824D01*
X-1288Y710D02*
Y819D01*
X-1250Y513D02*
Y820D01*
X-70Y869D02*
X-12Y811D01*
Y768D02*
Y811D01*
X-36Y881D02*
X29Y816D01*
Y723D02*
Y816D01*
X-8Y686D02*
X29Y723D01*
X-85Y856D02*
X-49Y820D01*
Y787D02*
Y820D01*
X-102Y844D02*
X-73Y815D01*
X-1392Y-215D02*
X-1331Y-154D01*
X-1391Y-196D02*
X-1337Y-142D01*
X-1382Y-170D02*
X-1342Y-130D01*
X-1377Y-148D02*
X-1347Y-117D01*
X-1411Y-98D02*
X-1377D01*
X-1354Y-75D01*
X-1380Y-72D02*
X-1372Y-64D01*
X-1476Y-58D02*
X-1432Y-102D01*
X-1481Y-70D02*
X-1449Y-102D01*
X-1477Y-58D02*
X-1476D01*
X-1490Y-45D02*
X-1477Y-58D01*
X-1502Y-50D02*
X-1482Y-70D01*
X-1481D01*
X-1488Y-86D02*
X-1465Y-109D01*
X-1488Y-86D02*
X-1488D01*
X-1481Y-377D02*
Y-112D01*
X-1521Y-72D02*
X-1481Y-112D01*
X-1553Y-72D02*
X-1521D01*
X-1641Y-127D02*
X-1597D01*
X-1464Y420D02*
Y459D01*
X-1495Y428D02*
X-1493Y430D01*
X-1495Y362D02*
Y428D01*
X-1498Y-365D02*
X-1493Y-360D01*
Y-157D01*
Y-156D01*
X-1518Y-57D02*
Y106D01*
Y-57D02*
X-1488Y-86D01*
X-1528Y-249D02*
Y-118D01*
Y-373D02*
Y-249D01*
Y-248D01*
X-1695Y-74D02*
Y-73D01*
X-1641Y-127D01*
X-1748Y144D02*
Y315D01*
X-1770Y337D02*
X-1748Y315D01*
X-1715Y47D02*
X-1649Y113D01*
X-1667Y-46D02*
X-1665Y-48D01*
X-1715Y-85D02*
Y47D01*
Y-85D02*
X-1614Y-186D01*
Y-277D02*
Y-186D01*
X-251Y150D02*
Y189D01*
X-22Y222D02*
X-6Y238D01*
X-211Y267D02*
X-195D01*
X-249Y229D02*
X-211Y267D01*
X317Y-158D02*
X377D01*
X232Y-243D02*
X317Y-158D01*
X232Y-279D02*
Y-243D01*
X-1742Y587D02*
X-1693Y636D01*
X-1742Y511D02*
Y587D01*
X-1766Y387D02*
X-1650Y503D01*
X-1688Y836D02*
X-1650Y798D01*
X-1808Y250D02*
X-1788Y230D01*
Y-468D02*
Y230D01*
Y-468D02*
X-1757Y-499D01*
X-1634D01*
X-1591Y-456D01*
X-1763Y79D02*
X-1729Y113D01*
X-1763Y-159D02*
Y79D01*
X-1716Y-206D02*
X-1593Y-329D01*
X-1560D01*
X-1066Y-950D02*
X-973Y-1043D01*
X-1322Y-571D02*
X-1292Y-541D01*
X-1041Y-940D02*
Y-541D01*
Y-940D02*
X-964Y-1017D01*
X-1053Y-945D02*
X-969Y-1030D01*
X-1245Y-535D02*
X-1088Y-692D01*
X-1529Y-571D02*
X-1322D01*
X-1625Y-391D02*
X-1481Y-535D01*
X-1664Y-383D02*
X-1660Y-379D01*
X-1596D01*
X-1452Y-523D01*
X1515Y-529D02*
X1558D01*
X1559D01*
X-1330Y543D02*
Y622D01*
X-1312Y640D01*
X-218Y222D02*
X-22D01*
X-212Y204D02*
X-34D01*
X-1292Y-197D02*
Y-190D01*
X-928Y-172D02*
X-915D01*
X-1232Y-229D02*
X-1121D01*
X-1321Y-223D02*
X-1306D01*
X-1347Y-117D02*
X-1310D01*
X-1184Y9D01*
X-1342Y-130D02*
X-1305D01*
X-1337Y-142D02*
X-1300D01*
X-1331Y-154D02*
X-1295D01*
X-1306Y-223D02*
X-1249Y-280D01*
X-1308Y-201D02*
X-1237Y-272D01*
X-1292Y-197D02*
X-1225Y-264D01*
X-928Y-160D02*
X-921D01*
X-954Y-186D02*
X-940Y-172D01*
X-915D01*
X-1135Y-331D02*
X-1125D01*
X-1490Y-45D02*
Y6D01*
X-1477Y19D01*
X-1420Y74D02*
X-1418Y72D01*
X-1502Y99D02*
X-1481Y120D01*
X-1391D01*
X-1343Y168D01*
X-1558Y115D02*
X-1469Y204D01*
X-1590Y184D02*
X-1564Y210D01*
X-1603Y204D02*
Y231D01*
X-1623Y184D02*
X-1590D01*
X-1635Y196D02*
X-1623Y184D01*
X-1635Y196D02*
Y216D01*
X-1652Y233D02*
X-1635Y216D01*
X-358Y16D02*
X-357Y17D01*
X-467Y-36D02*
X-466Y-37D01*
X-488Y-5D02*
Y0D01*
X-546Y-35D02*
Y-34D01*
X-555Y-396D02*
X-543Y-408D01*
X-1119Y-396D02*
X-555D01*
X-1371Y298D02*
X-1225Y444D01*
Y572D01*
X-1070Y192D02*
X-1001Y262D01*
X-1401Y-196D02*
X-1391D01*
X-1061Y168D02*
X-977Y252D01*
X-650Y192D02*
X-650D01*
X-1198Y203D02*
X-1195D01*
X-214Y86D02*
X-127Y173D01*
X-1284Y234D02*
Y236D01*
Y234D02*
X-1234Y184D01*
X-1169D02*
X-1140Y213D01*
X-1083D01*
X-1081Y211D01*
X-854Y13D02*
Y188D01*
X-935Y-39D02*
Y65D01*
X-603Y92D02*
Y94D01*
X-921Y-160D02*
X-712D01*
X-966Y-148D02*
X-718D01*
X-712Y-160D02*
X-575Y-23D01*
X-718Y-148D02*
X-588Y-18D01*
X-575Y-23D02*
Y-23D01*
X-588Y-18D02*
Y-18D01*
X-632Y-33D02*
X-620D01*
X-515Y-32D02*
X-488Y-5D01*
X-620Y-33D02*
X-530Y57D01*
X-588Y-18D02*
X-525Y44D01*
X-575Y-23D02*
X-520Y32D01*
X-563Y-28D02*
X-515Y20D01*
X-509D01*
X-520Y32D02*
X-514D01*
X-525Y44D02*
X-519D01*
X-482Y16D02*
X-481Y16D01*
X-358D01*
X-509Y20D02*
X-501Y28D01*
X-480D01*
X-514Y32D02*
X-506Y41D01*
X-485D01*
X-478Y47D01*
X-519Y44D02*
X-511Y53D01*
X-490D01*
X-484Y59D01*
X-495Y65D02*
X-489Y71D01*
X-538Y93D02*
X-537Y92D01*
X-251Y189D02*
X-218Y222D01*
X-313Y162D02*
Y162D01*
X-264Y113D02*
X-264D01*
X-313Y162D02*
X-264Y113D01*
X-132Y185D02*
X-32D01*
X-127Y173D02*
X-37D01*
X-26Y161D01*
X-32Y185D02*
X-21Y173D01*
X-34Y204D02*
X-16Y186D01*
X-180Y137D02*
X-132Y185D01*
X22Y173D02*
X35Y187D01*
X17Y186D02*
X30Y199D01*
X-21Y173D02*
X22D01*
X-26Y161D02*
X65D01*
X74Y170D01*
X90D01*
X-16Y186D02*
X17D01*
X97Y187D02*
X107Y177D01*
X102Y199D02*
X119Y182D01*
Y172D02*
Y182D01*
Y172D02*
X133Y158D01*
X35Y187D02*
X97D01*
X30Y199D02*
X102D01*
X187Y274D02*
X191Y278D01*
X151Y251D02*
X154Y248D01*
Y152D02*
Y248D01*
X-215Y137D02*
X-180D01*
X-137Y-57D02*
X-57Y-137D01*
X-147Y47D02*
X-137Y38D01*
Y-57D02*
Y38D01*
X-149Y-77D02*
X-65Y-161D01*
X0D01*
X5Y-166D01*
X28D01*
X72Y-397D02*
X79Y-404D01*
X-1650Y503D02*
Y768D01*
Y798D01*
Y768D02*
X-1373D01*
X-1194Y931D02*
X-1020D01*
X-1250Y820D02*
X-1176Y894D01*
X-1288Y819D02*
X-1189Y918D01*
X-1301Y824D02*
X-1194Y931D01*
X-1373Y768D02*
X-1313Y828D01*
Y829D01*
X-1307Y835D01*
Y966D01*
X-1268Y1005D01*
X-1266Y1003D01*
X-1007Y935D02*
Y935D01*
X-1020Y931D02*
X-1019Y930D01*
Y930D02*
Y930D01*
X-1189Y918D02*
X-1026D01*
X-1182Y906D02*
X-1031D01*
X-1176Y894D02*
X-1036D01*
X-1266Y1003D02*
X-1075D01*
X-1007Y935D01*
X-1036Y894D02*
X-986Y844D01*
X-1031Y906D02*
X-981Y856D01*
X-1026Y918D02*
X-976Y869D01*
X-1019Y930D02*
X-971Y881D01*
X-1007Y935D02*
X-966Y893D01*
X-971Y881D02*
X-36D01*
X-976Y869D02*
X-70D01*
X-981Y856D02*
X-85D01*
X-986Y844D02*
X-102D01*
X-966Y893D02*
X157D01*
X391Y659D01*
Y588D02*
Y659D01*
X-1605Y306D02*
Y337D01*
X-1612Y128D02*
X-1496Y244D01*
Y361D01*
X-1495Y362D01*
X-1483Y401D02*
X-1464Y420D01*
X-1599Y124D02*
X-1483Y240D01*
Y401D01*
X-1267Y520D02*
X-1264Y523D01*
Y824D01*
X-1182Y906D01*
X-1250Y513D02*
X-1249Y512D01*
X-1109Y427D02*
X-1107Y429D01*
X-1233Y396D02*
X-1158D01*
X-1127Y427D01*
X-1109D01*
X-1173Y624D02*
Y758D01*
X-1144Y787D01*
X-1140D01*
X-746Y536D02*
X-729Y553D01*
X-710D01*
X-697Y540D01*
X-766Y521D02*
X-763Y519D01*
X-766Y521D02*
Y547D01*
X-748Y565D01*
X-428Y310D02*
X-399Y281D01*
X-830Y310D02*
X-428D01*
X-835Y323D02*
X-273D01*
X-840Y335D02*
X-137D01*
X-845Y347D02*
X-26D01*
X-865Y397D02*
X-508D01*
X-860Y384D02*
X-513D01*
X-513Y384D01*
X-854Y372D02*
X-518D01*
X-518Y371D01*
X-849Y360D02*
X-523D01*
X-523Y359D01*
X-113D01*
X-518Y371D02*
X-208D01*
X-513Y384D02*
X-352D01*
X-508Y396D02*
X-481D01*
X-473Y404D01*
X-352Y384D02*
X-332Y404D01*
X-208Y371D02*
X-189Y390D01*
X-113Y359D02*
X-49Y423D01*
X-57Y-137D02*
X60D01*
X163Y-81D02*
Y-74D01*
X193Y4D02*
Y171D01*
Y4D02*
X205Y-8D01*
Y-32D02*
Y-8D01*
X163Y-74D02*
X205Y-32D01*
X60Y-137D02*
X137Y-60D01*
Y73D01*
X100Y110D02*
X137Y73D01*
X141Y139D02*
X154Y152D01*
X107Y158D02*
Y177D01*
X89Y169D02*
X90Y170D01*
X94Y149D02*
X151Y92D01*
X126Y139D02*
X141D01*
X115Y150D02*
X126Y139D01*
X115Y150D02*
X115D01*
X107Y158D02*
X115Y150D01*
X122Y274D02*
X187D01*
X-234Y182D02*
X-212Y204D01*
X-352Y86D02*
X-265D01*
X-234Y117D01*
Y182D01*
X-421Y127D02*
X-366Y182D01*
X-333D01*
X-313Y162D01*
X-150Y282D02*
X-149Y281D01*
X110Y262D02*
X122Y274D01*
X-195Y267D02*
X-190Y262D01*
X110D01*
X-464Y162D02*
Y175D01*
X-942Y282D02*
X-910D01*
X-845Y347D01*
X-916Y256D02*
Y259D01*
X-840Y335D01*
X-904Y251D02*
Y254D01*
X-835Y323D01*
X-891Y246D02*
Y249D01*
X-830Y310D01*
X-1518Y106D02*
X-1488Y136D01*
X-1485D01*
X-1485Y136D01*
X-1398D01*
X-1359Y175D01*
X-1650Y114D02*
X-1649Y113D01*
X-1741Y-476D02*
Y51D01*
Y-476D02*
X-1737Y-480D01*
X-1741Y51D02*
X-1696Y96D01*
X-1452Y-523D02*
X-1411D01*
X-1400Y-512D01*
X-1373D01*
X-1406Y-535D02*
X-1395Y-524D01*
X-1481Y-535D02*
X-1406D01*
X-1395Y-524D02*
X-1378D01*
X-1280Y-508D02*
X-1265Y-523D01*
X-1246D01*
X-1273Y-535D02*
X-1245D01*
X-1300Y-523D02*
X-1284D01*
X-1274Y-533D01*
Y-535D02*
Y-533D01*
Y-535D02*
X-1273Y-535D01*
X-1302Y-508D02*
X-1280D01*
X-1367Y-535D02*
X-1312D01*
X-1300Y-523D01*
X-1378Y-524D02*
X-1367Y-535D01*
X-984Y-142D02*
Y-140D01*
X-974Y-130D01*
X-972D01*
X-650Y192D01*
X-1125Y-331D02*
X-960Y-166D01*
X-958D01*
X-952Y-160D01*
X-921D01*
X-1150Y-307D02*
X-984Y-142D01*
X-1150Y-308D02*
Y-307D01*
Y-308D02*
X-1148D01*
X-1178Y-311D02*
X-854Y13D01*
X-1192Y-51D02*
X-1185D01*
X-1294Y70D02*
X-1294Y70D01*
X-1142Y-1D02*
X-1109Y32D01*
X-1142Y-8D02*
Y-1D01*
X-1185Y-51D02*
X-1142Y-8D01*
X-1155Y-3D02*
Y4D01*
X-1172Y-21D02*
X-1155Y-3D01*
X-1179Y-21D02*
X-1172D01*
X-1300Y-142D02*
X-1179Y-21D01*
X-1167Y9D02*
X-1147Y29D01*
X-1167Y2D02*
Y9D01*
X-1177Y-8D02*
X-1167Y2D01*
X-1184Y-8D02*
X-1177D01*
X-1305Y-130D02*
X-1184Y-8D01*
X-1195Y203D02*
X-1167Y231D01*
X-1068D01*
X-981Y111D02*
X-935Y65D01*
X-1044Y58D02*
X-1044Y58D01*
X-1115Y58D02*
X-1044D01*
X-1153Y156D02*
X-1129Y180D01*
X-1234Y184D02*
X-1169D01*
X-1319Y51D02*
X-1180D01*
X-1093Y116D02*
X-1061D01*
Y151D02*
X-964Y247D01*
X-1129Y180D02*
X-1065D01*
X-989Y257D01*
X-1279Y88D02*
X-1221D01*
X-1143Y192D02*
X-1070D01*
X-1164Y172D02*
X-1143Y192D01*
X-1165Y172D02*
X-1164D01*
X-1182Y155D02*
X-1165Y172D01*
X-1458Y37D02*
Y83D01*
X-1436Y105D01*
X-1389D01*
X-1441Y80D02*
X-1428Y93D01*
X-1384D01*
X-1441Y45D02*
X-1441Y45D01*
X-1441Y45D02*
Y80D01*
X-1477Y19D02*
Y29D01*
X-1477Y29D02*
X-1477Y29D01*
X-1477Y98D02*
X-1477Y98D01*
X-1477Y29D02*
Y98D01*
X-1469Y-14D02*
X-1441Y14D01*
Y45D01*
X-1418Y72D02*
X-1416Y74D01*
X-1342D01*
X-1319Y51D01*
X-1693Y-47D02*
X-1632Y-108D01*
X-1582D01*
X-1580Y-110D01*
X-1612Y-55D02*
Y128D01*
Y-55D02*
X-1574Y-93D01*
X962Y-1026D02*
X972Y-1016D01*
X997D01*
X-480Y28D02*
X-473Y35D01*
X-152D02*
X-149Y32D01*
Y-77D02*
Y32D01*
X-473Y35D02*
X-366D01*
X-365Y36D01*
X-349D01*
X-348Y35D01*
X-152D01*
X-478Y47D02*
X-371D01*
X-370Y48D01*
X-344D01*
X-343Y47D01*
X-147D01*
X-484Y59D02*
X-376D01*
X-375Y61D01*
X-339D01*
X-338Y59D01*
X-489Y71D02*
X-381D01*
X-380Y73D01*
X-366D01*
X-352Y87D01*
X-915Y-172D02*
X-707D01*
X-563Y-28D01*
Y-28D01*
X-546Y-35D02*
X-545Y-36D01*
X-504Y8D02*
X-496Y16D01*
X-482D01*
X-546Y-34D02*
X-504Y8D01*
X-504D01*
X-1685Y-404D02*
X-1657D01*
X-1644Y-391D01*
X-1625D01*
X-1591Y-456D02*
Y-455D01*
X-1389Y105D02*
X-1354Y140D01*
X-1214D01*
X-1211Y137D01*
X-1384Y93D02*
X-1349Y128D01*
X-1219D01*
X-1214Y122D01*
X-1155Y4D02*
X-1126Y32D01*
Y46D01*
X-1115Y58D01*
X-1168Y70D02*
X-1070D01*
X-1249Y105D02*
X-1230D01*
X-1229Y106D01*
X-1213D01*
X-1205Y98D01*
X-1061D01*
X-1093Y116D02*
X-1093Y116D01*
X-1093Y116D02*
Y117D01*
X-1294Y70D02*
X-1229D01*
X-1229Y70D01*
X-1187D01*
X-1186Y71D01*
X-1169D01*
X-1168Y70D01*
X-1216Y159D02*
X-1215D01*
X-1191Y135D01*
X-1210Y137D02*
X-1196Y123D01*
X-1214Y122D02*
X-1212D01*
X-1201Y111D01*
X-1211Y137D02*
X-1210D01*
X-1116Y151D02*
X-1061D01*
X-1135Y148D02*
Y149D01*
X-1123Y143D02*
Y144D01*
X-1116Y151D01*
X-1143Y123D02*
X-1123Y143D01*
X-1191Y135D02*
X-1148D01*
X-1135Y148D01*
Y149D02*
X-1116Y168D01*
X-1061D01*
X-1196Y123D02*
X-1143D01*
X-1201Y111D02*
X-1138D01*
X-1599Y-49D02*
Y124D01*
Y-49D02*
X-1572Y-76D01*
Y-77D02*
Y-76D01*
Y-77D02*
X-1561Y-88D01*
X-1574Y-93D02*
X-1574D01*
X-1566Y-100D01*
X-1546D01*
X-1528Y-118D01*
X-1561Y-88D02*
X-1525D01*
X-1493Y-120D01*
Y-138D02*
Y-120D01*
X-1498Y-387D02*
Y-386D01*
Y-365D01*
X-1493Y-157D02*
Y-136D01*
X79Y-444D02*
Y-404D01*
X-1070Y70D02*
X-1011Y129D01*
X-990D01*
X-990Y129D01*
X-1113Y136D02*
X-1058D01*
X-952Y242D01*
X-1138Y111D02*
X-1113Y136D01*
X-1536Y542D02*
X-1534D01*
X-1446Y629D01*
Y739D01*
X-1469Y204D02*
Y266D01*
X-1399Y336D01*
X-1390D01*
X-1410Y-378D02*
Y-260D01*
X-1376Y-226D01*
X-1068Y231D02*
X-1065Y228D01*
X-1349Y-334D02*
X-1292Y-391D01*
X-1317Y-523D02*
X-1302Y-508D01*
X-1373Y-512D02*
X-1362Y-523D01*
X-1317D01*
X-501Y108D02*
X-482Y127D01*
X-421D01*
X-603Y94D02*
X-508Y189D01*
X-516Y65D02*
X-495D01*
X-530Y57D02*
X-524D01*
X-516Y65D01*
X-525Y236D02*
X-464Y175D01*
X-725Y166D02*
X-655Y236D01*
X-525D01*
X-990Y129D02*
X-969D01*
X-957Y141D01*
X-1061Y98D02*
X-926Y234D01*
X-1061Y116D02*
X-931Y246D01*
X-926D01*
X-916Y256D01*
X-926Y234D02*
X-921D01*
X-904Y251D01*
X-957Y141D02*
Y181D01*
X-916Y222D01*
X-916Y221D02*
X-891Y246D01*
X-538Y98D02*
X-495Y141D01*
X-538Y93D02*
Y98D01*
X-460Y141D02*
X-436Y165D01*
X-495Y141D02*
X-460D01*
X-436Y165D02*
Y223D01*
X-338Y59D02*
X-213D01*
X-123Y149D01*
X-103D01*
X-105Y149D02*
X94D01*
X1314Y-325D02*
Y-324D01*
Y-325D02*
X1486Y-497D01*
X1502D01*
X1002Y-1021D02*
X1102D01*
X1145Y-978D01*
Y-889D01*
X984Y-1034D02*
X1108D01*
X1157Y-985D01*
Y-951D01*
X1157Y-951D02*
X1157Y-951D01*
X1157Y-951D02*
Y-895D01*
X-1022Y349D02*
X-826Y545D01*
Y556D01*
D57*
X-765Y-235D02*
X-733D01*
X-704D01*
X-1040Y549D02*
Y586D01*
X-1007Y619D01*
Y789D01*
X-542Y446D02*
X-541Y447D01*
X-351Y111D02*
X-351Y111D01*
X-48Y284D02*
X-48Y284D01*
X174Y446D02*
X175Y447D01*
Y358D02*
Y446D01*
X100Y283D02*
X175Y358D01*
X137Y448D02*
X137Y448D01*
X-501Y-116D02*
X-500Y-117D01*
X-307Y-334D02*
X-235Y-262D01*
X-423Y-334D02*
X-307D01*
X-152Y-239D02*
X-151D01*
X-146Y-109D02*
X-146Y-109D01*
X-681Y447D02*
X-681Y447D01*
X278Y-385D02*
X279Y-386D01*
X-244Y544D02*
X-242Y542D01*
X-106Y543D02*
X-106Y543D01*
X-400Y447D02*
X-399Y446D01*
X-258Y447D02*
X-257Y446D01*
X26Y449D02*
X26Y449D01*
X66Y542D02*
X66Y542D01*
X203Y543D02*
X203Y543D01*
X-474Y285D02*
X-473Y286D01*
X-332Y282D02*
X-331Y283D01*
X-114Y448D02*
X-113Y447D01*
X-1151Y589D02*
X-1150D01*
X-616Y282D02*
X-616Y282D01*
X-430Y87D02*
X-380Y137D01*
X-352D01*
X-352D02*
X-351D01*
X-788Y692D02*
X-719Y762D01*
X-788Y508D02*
Y692D01*
Y508D02*
X-694Y414D01*
X-296Y169D02*
Y179D01*
X-694Y414D02*
X-500D01*
X-499Y415D01*
Y429D01*
X155Y-48D02*
X187Y-16D01*
X155Y-54D02*
X156Y-55D01*
X155Y-54D02*
Y-48D01*
X-296Y169D02*
X-296Y169D01*
X-295D01*
X-187Y283D02*
X-187Y283D01*
X-500Y281D02*
X-478Y259D01*
X-376D01*
X-296Y179D01*
X-702Y-94D02*
Y-68D01*
X-562Y72D01*
X-519Y87D02*
X-430D01*
X-534Y72D02*
X-519Y87D01*
X-562Y72D02*
X-534D01*
D58*
X1132Y-472D02*
X1178Y-426D01*
X1350D02*
X1469Y-545D01*
X1178Y-426D02*
X1350D01*
X1497Y-573D02*
X1497Y-573D01*
X1528Y-604D01*
X1414Y-720D02*
X1636Y-498D01*
X1057Y-472D02*
X1132D01*
X1056Y-471D02*
X1057Y-472D01*
X1636Y-498D02*
Y-392D01*
X-706Y-283D02*
X-615Y-374D01*
X-829Y-268D02*
X-814Y-283D01*
X-706D01*
X-824Y-229D02*
Y-202D01*
X-829Y-268D02*
Y-234D01*
X-616Y-375D02*
X-615Y-374D01*
D62*
X-1870Y-532D02*
G03*
X-1835Y-615I118J0D01*
G01*
X-1402Y-1048D02*
G03*
X-1319Y-1083I84J84D01*
G01*
X1319D02*
G03*
X1402Y-1048I0J118D01*
G01*
X1836Y-615D02*
G03*
X1870Y-532I-84J84D01*
G01*
X-1835Y-615D02*
X-1402Y-1048D01*
X-1319Y-1083D02*
X1319D01*
X1402Y-1048D02*
X1836Y-615D01*
X1870Y-532D02*
Y1053D01*
X-1870D02*
X1870D01*
X-1870Y-532D02*
Y1053D01*
D63*
X-1589Y-709D02*
D03*
X-1539D02*
D03*
X-1589Y-659D02*
D03*
X-1539D02*
D03*
X397Y317D02*
D03*
Y179D02*
D03*
X-1452Y-661D02*
D03*
Y-761D02*
D03*
X-1402D02*
D03*
X-1452Y-711D02*
D03*
X-1402D02*
D03*
Y-661D02*
D03*
D64*
X1713Y69D02*
D03*
X1280Y-945D02*
D03*
X-1279D02*
D03*
X-1476Y906D02*
D03*
D65*
X-959Y955D02*
D03*
X-1246D02*
D03*
D66*
X0Y-0D02*
D03*
D67*
X1453Y309D02*
D03*
X1618D02*
D03*
X1287D02*
D03*
X1122D02*
D03*
X957D02*
D03*
X791D02*
D03*
X626D02*
D03*
X1618Y526D02*
D03*
X1453D02*
D03*
X1287D02*
D03*
X1122D02*
D03*
X957D02*
D03*
X791D02*
D03*
X626D02*
D03*
D68*
X1618Y813D02*
D03*
X626D02*
D03*
D69*
X226Y683D02*
D03*
Y762D02*
D03*
X148Y683D02*
D03*
Y762D02*
D03*
X69Y683D02*
D03*
Y762D02*
D03*
X-10Y683D02*
D03*
Y762D02*
D03*
X-89Y683D02*
D03*
Y762D02*
D03*
X-167Y683D02*
D03*
Y762D02*
D03*
X-246Y683D02*
D03*
Y762D02*
D03*
X-325Y683D02*
D03*
Y762D02*
D03*
X-404Y683D02*
D03*
Y762D02*
D03*
X-482Y683D02*
D03*
Y762D02*
D03*
X-561Y683D02*
D03*
Y762D02*
D03*
X-640Y683D02*
D03*
Y762D02*
D03*
X-719Y683D02*
D03*
Y762D02*
D03*
D70*
X-1792Y835D02*
D03*
Y735D02*
D03*
Y635D02*
D03*
Y535D02*
D03*
X-1692Y835D02*
D03*
Y735D02*
D03*
Y635D02*
D03*
Y535D02*
D03*
D71*
X-1190Y236D02*
D03*
X-1559Y235D02*
D03*
X-1631Y416D02*
D03*
X-1617Y-425D02*
D03*
X-1585Y-534D02*
D03*
X-876Y-127D02*
D03*
X-733Y-235D02*
D03*
X1149Y-208D02*
D03*
X1057Y-471D02*
D03*
X1178Y-426D02*
D03*
X1384Y-513D02*
D03*
X1289Y-455D02*
D03*
X1290Y-514D02*
D03*
X-1638Y-412D02*
D03*
X-1242Y4D02*
D03*
X-1403Y301D02*
D03*
X-1778D02*
D03*
X-1435Y205D02*
D03*
X-1403D02*
D03*
X-1085Y455D02*
D03*
X-927Y-340D02*
D03*
X-1040Y549D02*
D03*
X-1007Y789D02*
D03*
X1457Y-442D02*
D03*
X656Y-203D02*
D03*
X-1536Y749D02*
D03*
X-569Y536D02*
D03*
X-746D02*
D03*
X-892Y714D02*
D03*
X-808Y264D02*
D03*
X-903Y625D02*
D03*
X-542Y446D02*
D03*
X-449Y543D02*
D03*
X-681Y447D02*
D03*
X-1577Y795D02*
D03*
X-216Y163D02*
D03*
X-332Y454D02*
D03*
X-189Y451D02*
D03*
X-49D02*
D03*
X-257Y281D02*
D03*
X-113Y282D02*
D03*
X-48Y284D02*
D03*
X174Y446D02*
D03*
X137Y448D02*
D03*
X238Y623D02*
D03*
X227Y448D02*
D03*
X100Y625D02*
D03*
X100Y448D02*
D03*
X-304Y-37D02*
D03*
X-494Y-397D02*
D03*
X-391Y-248D02*
D03*
X-615Y-272D02*
D03*
X-500Y-117D02*
D03*
X-235Y-262D02*
D03*
X-423Y-334D02*
D03*
X-301Y-398D02*
D03*
X-298Y-109D02*
D03*
X-150Y-239D02*
D03*
X-146Y-109D02*
D03*
X-750Y624D02*
D03*
X-717Y534D02*
D03*
X-755Y284D02*
D03*
X-551Y623D02*
D03*
X-618Y624D02*
D03*
X-684D02*
D03*
X-86Y-237D02*
D03*
X663Y-879D02*
D03*
Y-842D02*
D03*
X828Y-967D02*
D03*
X757Y-877D02*
D03*
X1007Y-904D02*
D03*
X666Y-951D02*
D03*
X781Y-968D02*
D03*
X696Y-948D02*
D03*
X1076Y-879D02*
D03*
X1047Y-879D02*
D03*
X671Y-767D02*
D03*
X669Y-803D02*
D03*
X1073Y-571D02*
D03*
X868Y-569D02*
D03*
X973Y-681D02*
D03*
X725Y-658D02*
D03*
Y-569D02*
D03*
X1076Y-798D02*
D03*
X871Y-795D02*
D03*
X1107Y-990D02*
D03*
Y-910D02*
D03*
X109Y-879D02*
D03*
Y-842D02*
D03*
X274Y-967D02*
D03*
X203Y-877D02*
D03*
X453Y-904D02*
D03*
X112Y-951D02*
D03*
X227Y-968D02*
D03*
X142Y-948D02*
D03*
X522Y-879D02*
D03*
X493Y-879D02*
D03*
X117Y-767D02*
D03*
X115Y-803D02*
D03*
X519Y-571D02*
D03*
X314Y-569D02*
D03*
X419Y-681D02*
D03*
X171Y-569D02*
D03*
X522Y-798D02*
D03*
X317Y-795D02*
D03*
X553Y-990D02*
D03*
Y-910D02*
D03*
X-447Y-879D02*
D03*
Y-842D02*
D03*
X-282Y-967D02*
D03*
X-353Y-877D02*
D03*
X-103Y-904D02*
D03*
X-444Y-951D02*
D03*
X-329Y-968D02*
D03*
X-414Y-948D02*
D03*
X-34Y-879D02*
D03*
X-63Y-879D02*
D03*
X-439Y-767D02*
D03*
X-441Y-803D02*
D03*
X-37Y-571D02*
D03*
X-242Y-569D02*
D03*
X-137Y-681D02*
D03*
X-385Y-658D02*
D03*
Y-569D02*
D03*
X-34Y-798D02*
D03*
X-239Y-795D02*
D03*
X-3Y-990D02*
D03*
Y-910D02*
D03*
X171Y-658D02*
D03*
X-1000Y-951D02*
D03*
X-909Y-877D02*
D03*
X-838Y-967D02*
D03*
X-885Y-968D02*
D03*
X-970Y-948D02*
D03*
X1418Y-917D02*
D03*
X1792Y-524D02*
D03*
X1793Y-69D02*
D03*
X289Y57D02*
D03*
X-1460Y-325D02*
D03*
X-1410Y-148D02*
D03*
X-1445Y-351D02*
D03*
X1570Y-69D02*
D03*
X1536Y-144D02*
D03*
Y8D02*
D03*
X1031Y-313D02*
D03*
X955Y-279D02*
D03*
X1106D02*
D03*
X-559Y-910D02*
D03*
X-590Y-879D02*
D03*
X-619Y-879D02*
D03*
X-659Y-904D02*
D03*
X-1406Y-414D02*
D03*
X-811Y-450D02*
D03*
X-1003Y-879D02*
D03*
X-559Y-990D02*
D03*
X-593Y-571D02*
D03*
X-693Y-681D02*
D03*
X-590Y-798D02*
D03*
X-795Y-795D02*
D03*
X-941Y-569D02*
D03*
X-798D02*
D03*
X-941Y-658D02*
D03*
X1042Y-8D02*
D03*
X871Y-280D02*
D03*
X719D02*
D03*
X454Y-8D02*
D03*
X377Y-199D02*
D03*
Y-158D02*
D03*
X705Y-341D02*
D03*
X508Y-322D02*
D03*
X626Y-265D02*
D03*
X600Y-246D02*
D03*
X1502Y-497D02*
D03*
X1264Y-55D02*
D03*
X1636Y-393D02*
D03*
X1597Y-392D02*
D03*
X1536Y-378D02*
D03*
Y-226D02*
D03*
X1521Y-471D02*
D03*
X1414Y-720D02*
D03*
X1455D02*
D03*
X1578Y-589D02*
D03*
X1043Y-106D02*
D03*
X1362Y-54D02*
D03*
X773Y-58D02*
D03*
X-640Y-422D02*
D03*
X-589Y-364D02*
D03*
X-615Y-422D02*
D03*
X1314Y-324D02*
D03*
X1753Y272D02*
D03*
X1721Y273D02*
D03*
X1784Y272D02*
D03*
X1753Y528D02*
D03*
X1723Y528D02*
D03*
X1786Y527D02*
D03*
X1314Y-719D02*
D03*
X1364D02*
D03*
X1558Y-529D02*
D03*
X1264Y-641D02*
D03*
X1469Y-545D02*
D03*
X1497Y-573D02*
D03*
X-695Y-480D02*
D03*
X-890Y-333D02*
D03*
X578Y-34D02*
D03*
X638Y-35D02*
D03*
X579Y-100D02*
D03*
X-1469Y-15D02*
D03*
X984Y-1034D02*
D03*
X959Y-1025D02*
D03*
X925Y-1012D02*
D03*
X-995Y-767D02*
D03*
X278Y-385D02*
D03*
X172Y-481D02*
D03*
X-1376Y-226D02*
D03*
X-589Y-199D02*
D03*
X-636Y-149D02*
D03*
X588Y211D02*
D03*
X548Y145D02*
D03*
X588Y86D02*
D03*
X-381Y544D02*
D03*
X-312Y544D02*
D03*
X-244Y544D02*
D03*
X-175Y544D02*
D03*
X-106Y543D02*
D03*
X-37Y543D02*
D03*
X31Y543D02*
D03*
X-294Y282D02*
D03*
X-11Y283D02*
D03*
X-398Y447D02*
D03*
X-257Y446D02*
D03*
X26Y449D02*
D03*
X66Y542D02*
D03*
X203Y543D02*
D03*
X-331Y283D02*
D03*
X-113Y447D02*
D03*
X-814Y141D02*
D03*
X-734Y79D02*
D03*
X-775Y-3D02*
D03*
X-96Y241D02*
D03*
X-1229Y664D02*
D03*
X-979Y696D02*
D03*
X-1103Y792D02*
D03*
X-1030Y755D02*
D03*
X-1071Y792D02*
D03*
X-1147Y613D02*
D03*
X-1198Y696D02*
D03*
X-1107Y429D02*
D03*
X-1440Y507D02*
D03*
X-1380Y797D02*
D03*
X-1145Y785D02*
D03*
X-1143Y754D02*
D03*
X-650Y436D02*
D03*
X-718Y284D02*
D03*
X-616Y282D02*
D03*
X-1107Y33D02*
D03*
X-1241Y33D02*
D03*
X-1222Y159D02*
D03*
X-1459Y37D02*
D03*
X-1099Y-27D02*
D03*
X-766Y518D02*
D03*
X-826Y555D02*
D03*
X-1092Y372D02*
D03*
X-903Y409D02*
D03*
X-1185Y11D02*
D03*
X-1022Y349D02*
D03*
X-1605Y337D02*
D03*
X-1231Y333D02*
D03*
Y267D02*
D03*
X-1414Y-217D02*
D03*
X-1401Y-172D02*
D03*
X-1400Y-197D02*
D03*
X-1446Y-497D02*
D03*
X-1426Y-396D02*
D03*
X-1445Y-378D02*
D03*
X-1566Y-572D02*
D03*
X-1702Y-338D02*
D03*
X-1601Y-128D02*
D03*
X-1435Y-72D02*
D03*
X-1411Y-98D02*
D03*
X-1554Y-70D02*
D03*
X-1579Y73D02*
D03*
X232Y-280D02*
D03*
X-130Y-394D02*
D03*
X-546Y-442D02*
D03*
X-543Y-408D02*
D03*
X-1119Y-396D02*
D03*
X-1194Y-429D02*
D03*
X-1176Y-453D02*
D03*
X-1664Y-383D02*
D03*
X-1321Y-223D02*
D03*
X-1292Y-480D02*
D03*
X-1324Y-329D02*
D03*
X-1349Y-331D02*
D03*
X-1366Y-371D02*
D03*
X-1371Y-344D02*
D03*
X-1319Y-498D02*
D03*
X-1514Y484D02*
D03*
X-1540Y485D02*
D03*
X-1150Y588D02*
D03*
X-1129Y448D02*
D03*
X-1156Y554D02*
D03*
X-1206Y540D02*
D03*
X-1171Y521D02*
D03*
X-1170Y481D02*
D03*
X-1253Y476D02*
D03*
X-1165Y874D02*
D03*
X-49Y787D02*
D03*
X-73Y815D02*
D03*
X-1520Y639D02*
D03*
X-1446Y739D02*
D03*
X-1536Y541D02*
D03*
X-1350Y-70D02*
D03*
X-1376Y-67D02*
D03*
X-1493Y430D02*
D03*
X-1464Y459D02*
D03*
X-1528Y-373D02*
D03*
X-1498Y-386D02*
D03*
X-1390Y336D02*
D03*
X-1748Y144D02*
D03*
X-1693Y-47D02*
D03*
X-1614Y-277D02*
D03*
X-1477Y98D02*
D03*
Y154D02*
D03*
X-1695Y-74D02*
D03*
X-1665Y-48D02*
D03*
X-1648Y-29D02*
D03*
X-1737Y-480D02*
D03*
X-1720Y-408D02*
D03*
X-1696Y96D02*
D03*
X-436Y223D02*
D03*
X-184Y5D02*
D03*
X-260Y4D02*
D03*
X-216Y111D02*
D03*
X-253Y151D02*
D03*
X-6Y238D02*
D03*
X-249Y229D02*
D03*
X-2Y205D02*
D03*
X-1810Y207D02*
D03*
X-1784Y457D02*
D03*
X-1766Y387D02*
D03*
X-1742Y511D02*
D03*
X-1768Y337D02*
D03*
X-1808Y250D02*
D03*
X-1558Y115D02*
D03*
X-1729Y113D02*
D03*
X-1763Y-159D02*
D03*
X-1716Y-206D02*
D03*
X-1560Y-329D02*
D03*
X-1319Y-591D02*
D03*
X-1283Y-633D02*
D03*
X-1088Y-889D02*
D03*
X-1088Y-929D02*
D03*
X-1144Y-870D02*
D03*
X-997Y-803D02*
D03*
X-1003Y-842D02*
D03*
X-1088Y-692D02*
D03*
X-1685Y-404D02*
D03*
X-650Y192D02*
D03*
X-854Y188D02*
D03*
X-725Y166D02*
D03*
X-1330Y543D02*
D03*
X-1312Y640D02*
D03*
X-215Y137D02*
D03*
X-214Y86D02*
D03*
X151Y92D02*
D03*
X-954Y-186D02*
D03*
X-1130Y-331D02*
D03*
X-1313Y-198D02*
D03*
X-1124Y-229D02*
D03*
X-1310Y-245D02*
D03*
X-1310Y-173D02*
D03*
X-1190Y-209D02*
D03*
X-1232Y-229D02*
D03*
X-1250Y-209D02*
D03*
X-1175Y-311D02*
D03*
X-966Y-148D02*
D03*
X-1421Y74D02*
D03*
X-1564Y210D02*
D03*
X-1603Y204D02*
D03*
X-1652Y233D02*
D03*
X-153Y-177D02*
D03*
X-207Y-219D02*
D03*
X28Y-165D02*
D03*
X-11Y-235D02*
D03*
X-789Y-119D02*
D03*
X-357Y18D02*
D03*
X-352Y86D02*
D03*
X-352Y163D02*
D03*
X-264Y113D02*
D03*
X-633Y-34D02*
D03*
X-467Y-37D02*
D03*
X-853Y-428D02*
D03*
X-814Y-331D02*
D03*
X-1064Y232D02*
D03*
X-824Y-202D02*
D03*
X193Y171D02*
D03*
X161Y-81D02*
D03*
X-1283Y236D02*
D03*
X-936Y-39D02*
D03*
X-702Y-94D02*
D03*
X-515Y-32D02*
D03*
X-538Y97D02*
D03*
X-501Y110D02*
D03*
X-352Y137D02*
D03*
X-351Y111D02*
D03*
X-559Y217D02*
D03*
X-508Y189D02*
D03*
X-579Y282D02*
D03*
X19Y-190D02*
D03*
X71Y-396D02*
D03*
X391Y588D02*
D03*
X-1465Y374D02*
D03*
X-1249Y512D02*
D03*
X-1088Y554D02*
D03*
X-661Y538D02*
D03*
X-473Y454D02*
D03*
X-436Y284D02*
D03*
X-500Y281D02*
D03*
X-399Y281D02*
D03*
X-474Y285D02*
D03*
X-499Y429D02*
D03*
X156Y-55D02*
D03*
X187Y-16D02*
D03*
X-616Y-375D02*
D03*
X74Y-173D02*
D03*
X141Y-273D02*
D03*
X89Y169D02*
D03*
X100Y110D02*
D03*
X133Y158D02*
D03*
X100Y283D02*
D03*
X193Y278D02*
D03*
X151Y251D02*
D03*
X-125Y99D02*
D03*
X-295Y169D02*
D03*
X-150Y282D02*
D03*
X26Y282D02*
D03*
X-201Y246D02*
D03*
X-187Y283D02*
D03*
X-464Y162D02*
D03*
X-603Y92D02*
D03*
X-934Y264D02*
D03*
X-975Y148D02*
D03*
X-1650Y114D02*
D03*
X-1721Y-376D02*
D03*
X-1388Y-546D02*
D03*
X-1292Y-541D02*
D03*
X-1148Y-308D02*
D03*
X-1294Y70D02*
D03*
X-981Y111D02*
D03*
X-1146Y46D02*
D03*
X-1253Y109D02*
D03*
X-1044Y58D02*
D03*
X-1198Y203D02*
D03*
X-1153Y156D02*
D03*
X-1079Y211D02*
D03*
X-1275Y89D02*
D03*
X-1221Y88D02*
D03*
X-545Y-36D02*
D03*
X-488Y-3D02*
D03*
X-1591Y-455D02*
D03*
X-1176Y52D02*
D03*
X-1093Y117D02*
D03*
X-1183Y154D02*
D03*
X-1583Y-111D02*
D03*
X77Y-444D02*
D03*
X-907Y-200D02*
D03*
X-731Y-192D02*
D03*
D82*
X-763Y-236D02*
D03*
X-829D02*
D03*
X-704Y-235D02*
D03*
X-638D02*
D03*
D83*
X478Y330D02*
X570Y422D01*
X900Y624D02*
X954Y570D01*
Y530D02*
Y570D01*
X563Y624D02*
X900D01*
X243Y304D02*
X563Y624D01*
X478Y86D02*
Y330D01*
X243Y-8D02*
Y14D01*
X570Y422D02*
X1009D01*
X1127Y540D01*
X-570Y-535D02*
X-482Y-447D01*
X-111D01*
X243Y14D02*
Y304D01*
X23Y-516D02*
X29Y-522D01*
X243Y-60D02*
Y14D01*
X23Y-516D02*
Y-369D01*
X76Y-316D01*
X159D01*
X189Y-285D01*
Y-203D01*
X478Y86D01*
X-111Y-447D02*
X-47Y-383D01*
Y-349D01*
X86Y-216D01*
X92D01*
X117Y-191D01*
Y-186D01*
X243Y-60D01*
M02*
