%FSLAX23Y23*%
%MOIN*%
G70*
G01*
G75*
G04 Layer_Color=32896*
%ADD10R,0.020X0.020*%
%ADD11R,0.020X0.020*%
%ADD12R,0.022X0.057*%
%ADD13R,0.022X0.057*%
%ADD14R,0.055X0.039*%
%ADD15R,0.079X0.043*%
%ADD16R,0.031X0.031*%
%ADD17R,0.059X0.098*%
%ADD18R,0.098X0.059*%
%ADD19R,0.039X0.055*%
G04:AMPARAMS|DCode=20|XSize=142mil|YSize=79mil|CornerRadius=4mil|HoleSize=0mil|Usage=FLASHONLY|Rotation=180.000|XOffset=0mil|YOffset=0mil|HoleType=Round|Shape=RoundedRectangle|*
%AMROUNDEDRECTD20*
21,1,0.142,0.071,0,0,180.0*
21,1,0.134,0.079,0,0,180.0*
1,1,0.008,-0.067,0.035*
1,1,0.008,0.067,0.035*
1,1,0.008,0.067,-0.035*
1,1,0.008,-0.067,-0.035*
%
%ADD20ROUNDEDRECTD20*%
%ADD21R,0.020X0.014*%
%ADD22R,0.014X0.020*%
%ADD23R,0.057X0.018*%
%ADD24R,0.071X0.045*%
%ADD25C,0.020*%
%ADD26R,0.020X0.063*%
%ADD27R,0.083X0.114*%
%ADD28R,0.051X0.039*%
%ADD29R,0.055X0.024*%
%ADD30R,0.071X0.024*%
G04:AMPARAMS|DCode=31|XSize=75mil|YSize=126mil|CornerRadius=0mil|HoleSize=0mil|Usage=FLASHONLY|Rotation=90.000|XOffset=0mil|YOffset=0mil|HoleType=Round|Shape=Octagon|*
%AMOCTAGOND31*
4,1,8,-0.063,-0.019,-0.063,0.019,-0.044,0.037,0.044,0.037,0.063,0.019,0.063,-0.019,0.044,-0.037,-0.044,-0.037,-0.063,-0.019,0.0*
%
%ADD31OCTAGOND31*%

%ADD32R,0.017X0.050*%
%ADD33R,0.050X0.017*%
%ADD34R,0.087X0.024*%
G04:AMPARAMS|DCode=35|XSize=12mil|YSize=71mil|CornerRadius=0mil|HoleSize=0mil|Usage=FLASHONLY|Rotation=315.000|XOffset=0mil|YOffset=0mil|HoleType=Round|Shape=Round|*
%AMOVALD35*
21,1,0.059,0.012,0.000,0.000,45.0*
1,1,0.012,-0.021,-0.021*
1,1,0.012,0.021,0.021*
%
%ADD35OVALD35*%

G04:AMPARAMS|DCode=36|XSize=12mil|YSize=71mil|CornerRadius=0mil|HoleSize=0mil|Usage=FLASHONLY|Rotation=45.000|XOffset=0mil|YOffset=0mil|HoleType=Round|Shape=Round|*
%AMOVALD36*
21,1,0.059,0.012,0.000,0.000,135.0*
1,1,0.012,0.021,-0.021*
1,1,0.012,-0.021,0.021*
%
%ADD36OVALD36*%

%ADD37R,0.018X0.037*%
%ADD38R,0.037X0.018*%
G04:AMPARAMS|DCode=39|XSize=228mil|YSize=252mil|CornerRadius=17mil|HoleSize=0mil|Usage=FLASHONLY|Rotation=0.000|XOffset=0mil|YOffset=0mil|HoleType=Round|Shape=RoundedRectangle|*
%AMROUNDEDRECTD39*
21,1,0.228,0.218,0,0,0.0*
21,1,0.194,0.252,0,0,0.0*
1,1,0.034,0.097,-0.109*
1,1,0.034,-0.097,-0.109*
1,1,0.034,-0.097,0.109*
1,1,0.034,0.097,0.109*
%
%ADD39ROUNDEDRECTD39*%
G04:AMPARAMS|DCode=40|XSize=47mil|YSize=87mil|CornerRadius=4mil|HoleSize=0mil|Usage=FLASHONLY|Rotation=0.000|XOffset=0mil|YOffset=0mil|HoleType=Round|Shape=RoundedRectangle|*
%AMROUNDEDRECTD40*
21,1,0.047,0.080,0,0,0.0*
21,1,0.040,0.087,0,0,0.0*
1,1,0.007,0.020,-0.040*
1,1,0.007,-0.020,-0.040*
1,1,0.007,-0.020,0.040*
1,1,0.007,0.020,0.040*
%
%ADD40ROUNDEDRECTD40*%
%ADD41R,0.146X0.059*%
%ADD42R,0.059X0.146*%
G04:AMPARAMS|DCode=43|XSize=95mil|YSize=130mil|CornerRadius=7mil|HoleSize=0mil|Usage=FLASHONLY|Rotation=90.000|XOffset=0mil|YOffset=0mil|HoleType=Round|Shape=RoundedRectangle|*
%AMROUNDEDRECTD43*
21,1,0.095,0.116,0,0,90.0*
21,1,0.081,0.130,0,0,90.0*
1,1,0.014,0.058,0.040*
1,1,0.014,0.058,-0.040*
1,1,0.014,-0.058,-0.040*
1,1,0.014,-0.058,0.040*
%
%ADD43ROUNDEDRECTD43*%
G04:AMPARAMS|DCode=44|XSize=26mil|YSize=69mil|CornerRadius=2mil|HoleSize=0mil|Usage=FLASHONLY|Rotation=180.000|XOffset=0mil|YOffset=0mil|HoleType=Round|Shape=RoundedRectangle|*
%AMROUNDEDRECTD44*
21,1,0.026,0.065,0,0,180.0*
21,1,0.022,0.069,0,0,180.0*
1,1,0.004,-0.011,0.033*
1,1,0.004,0.011,0.033*
1,1,0.004,0.011,-0.033*
1,1,0.004,-0.011,-0.033*
%
%ADD44ROUNDEDRECTD44*%
%ADD45R,0.039X0.125*%
G04:AMPARAMS|DCode=46|XSize=95mil|YSize=130mil|CornerRadius=7mil|HoleSize=0mil|Usage=FLASHONLY|Rotation=0.000|XOffset=0mil|YOffset=0mil|HoleType=Round|Shape=RoundedRectangle|*
%AMROUNDEDRECTD46*
21,1,0.095,0.116,0,0,0.0*
21,1,0.081,0.130,0,0,0.0*
1,1,0.014,0.040,-0.058*
1,1,0.014,-0.040,-0.058*
1,1,0.014,-0.040,0.058*
1,1,0.014,0.040,0.058*
%
%ADD46ROUNDEDRECTD46*%
G04:AMPARAMS|DCode=47|XSize=26mil|YSize=69mil|CornerRadius=2mil|HoleSize=0mil|Usage=FLASHONLY|Rotation=90.000|XOffset=0mil|YOffset=0mil|HoleType=Round|Shape=RoundedRectangle|*
%AMROUNDEDRECTD47*
21,1,0.026,0.065,0,0,90.0*
21,1,0.022,0.069,0,0,90.0*
1,1,0.004,0.033,0.011*
1,1,0.004,0.033,-0.011*
1,1,0.004,-0.033,-0.011*
1,1,0.004,-0.033,0.011*
%
%ADD47ROUNDEDRECTD47*%
%ADD48R,0.125X0.039*%
%ADD49R,0.051X0.079*%
%ADD50R,0.043X0.039*%
%ADD51R,0.057X0.022*%
%ADD52R,0.057X0.022*%
%ADD53R,0.051X0.043*%
%ADD54R,0.043X0.051*%
%ADD55R,0.050X0.012*%
%ADD56C,0.006*%
%ADD57C,0.012*%
%ADD58C,0.016*%
%ADD59C,0.020*%
%ADD60C,0.025*%
%ADD61C,0.030*%
%ADD62C,0.010*%
%ADD63C,0.043*%
%ADD64C,0.145*%
%ADD65C,0.079*%
%ADD66C,0.256*%
%ADD67C,0.118*%
%ADD68C,0.157*%
%ADD69C,0.055*%
%ADD70C,0.059*%
%ADD71C,0.018*%
%ADD72C,0.040*%
%ADD73C,0.007*%
%ADD74C,0.056*%
%ADD75C,0.083*%
%ADD76C,0.260*%
%ADD77C,0.099*%
%ADD78C,0.146*%
%ADD79C,0.060*%
%ADD80C,0.052*%
%ADD81C,0.032*%
%ADD82R,0.039X0.043*%
%ADD83C,0.055*%
%ADD84C,0.004*%
%ADD85C,0.010*%
%ADD86C,0.008*%
%ADD87C,0.024*%
%ADD88C,0.016*%
%ADD89C,0.001*%
%ADD90C,0.008*%
%ADD91C,0.015*%
%ADD92C,0.004*%
%ADD93C,0.005*%
%ADD94R,0.024X0.008*%
%ADD95R,0.008X0.024*%
%ADD96R,0.130X0.040*%
%ADD97R,0.050X0.030*%
%ADD98R,0.070X0.040*%
%ADD99R,0.040X0.070*%
%ADD100R,0.074X0.057*%
%ADD101R,0.074X0.057*%
%ADD102R,0.130X0.150*%
%ADD103R,0.150X0.130*%
%ADD104R,0.040X0.010*%
%ADD105R,0.050X0.020*%
%ADD106R,0.020X0.050*%
%ADD107R,0.010X0.040*%
D61*
X1836Y-615D02*
G03*
X1870Y-532I-84J84D01*
G01*
X1319Y-1083D02*
G03*
X1402Y-1048I0J118D01*
G01*
X-1870Y-532D02*
G03*
X-1835Y-615I118J0D01*
G01*
X-1402Y-1048D02*
G03*
X-1319Y-1083I84J84D01*
G01*
X-1870Y-532D02*
Y1053D01*
X1870D01*
X1402Y-1048D02*
X1836Y-615D01*
X-1319Y-1083D02*
X1319D01*
X-1835Y-615D02*
X-1402Y-1048D01*
X1870Y-532D02*
Y1053D01*
D62*
X1823Y69D02*
G03*
X1823Y69I-110J0D01*
G01*
X1390Y-945D02*
G03*
X1390Y-945I-110J0D01*
G01*
X-1169D02*
G03*
X-1169Y-945I-110J0D01*
G01*
X-1366Y906D02*
G03*
X-1366Y906I-110J0D01*
G01*
X-1870Y-532D02*
G03*
X-1835Y-615I118J0D01*
G01*
X-1402Y-1048D02*
G03*
X-1319Y-1083I84J84D01*
G01*
X1319D02*
G03*
X1402Y-1048I0J118D01*
G01*
X1836Y-615D02*
G03*
X1870Y-532I-84J84D01*
G01*
X-1835Y-615D02*
X-1402Y-1048D01*
X-1319Y-1083D02*
X1319D01*
X1402Y-1048D02*
X1836Y-615D01*
X1870Y-532D02*
Y1053D01*
X-1870D02*
X1870D01*
X-1870Y-532D02*
Y1053D01*
D73*
X497Y511D02*
X485D01*
X491D01*
Y546D01*
X497Y540D01*
X1752Y291D02*
X1740D01*
X1746D01*
Y326D01*
X1752Y320D01*
X1705Y291D02*
Y326D01*
X1723Y308D01*
X1700D01*
X306Y663D02*
X329D01*
X306Y686D01*
Y692D01*
X312Y698D01*
X323D01*
X329Y692D01*
X271Y698D02*
X282Y692D01*
X294Y680D01*
Y669D01*
X288Y663D01*
X277D01*
X271Y669D01*
Y675D01*
X277Y680D01*
X294D01*
X-757Y745D02*
X-769D01*
X-763D01*
Y780D01*
X-757Y774D01*
D89*
X1397Y160D02*
X1493D01*
X1369D02*
X1383D01*
X1342D02*
X1356D01*
X1246D02*
X1314D01*
X1218D02*
X1232D01*
X1095D02*
X1191D01*
X1397Y159D02*
X1493D01*
X1369D02*
X1383D01*
X1342D02*
X1356D01*
X1246D02*
X1314D01*
X1218D02*
X1232D01*
X1095D02*
X1191D01*
X1397Y158D02*
X1493D01*
X1369D02*
X1383D01*
X1342D02*
X1356D01*
X1246D02*
X1314D01*
X1218D02*
X1232D01*
X1095D02*
X1191D01*
X1395Y157D02*
X1493D01*
X1368D02*
X1383D01*
X1340D02*
X1356D01*
X1244D02*
X1314D01*
X1217D02*
X1232D01*
X1093D02*
X1191D01*
X1395Y156D02*
X1493D01*
X1368D02*
X1383D01*
X1340D02*
X1356D01*
X1244D02*
X1314D01*
X1217D02*
X1232D01*
X1093D02*
X1191D01*
X1395Y155D02*
X1493D01*
X1368D02*
X1383D01*
X1340D02*
X1356D01*
X1244D02*
X1314D01*
X1217D02*
X1232D01*
X1093D02*
X1191D01*
X1395Y154D02*
X1493D01*
X1368D02*
X1383D01*
X1340D02*
X1356D01*
X1244D02*
X1314D01*
X1217D02*
X1232D01*
X1093D02*
X1191D01*
X1395Y153D02*
X1493D01*
X1368D02*
X1383D01*
X1340D02*
X1356D01*
X1244D02*
X1314D01*
X1217D02*
X1232D01*
X1093D02*
X1191D01*
X1395Y152D02*
X1493D01*
X1368D02*
X1383D01*
X1340D02*
X1356D01*
X1244D02*
X1314D01*
X1217D02*
X1232D01*
X1093D02*
X1191D01*
X1395Y151D02*
X1493D01*
X1368D02*
X1383D01*
X1340D02*
X1356D01*
X1244D02*
X1314D01*
X1217D02*
X1232D01*
X1093D02*
X1191D01*
X1395Y150D02*
X1493D01*
X1368D02*
X1383D01*
X1340D02*
X1356D01*
X1244D02*
X1314D01*
X1217D02*
X1232D01*
X1093D02*
X1191D01*
X1395Y149D02*
X1493D01*
X1368D02*
X1383D01*
X1340D02*
X1356D01*
X1244D02*
X1314D01*
X1217D02*
X1232D01*
X1093D02*
X1191D01*
X1395Y148D02*
X1493D01*
X1368D02*
X1383D01*
X1340D02*
X1356D01*
X1244D02*
X1314D01*
X1217D02*
X1232D01*
X1093D02*
X1191D01*
X1395Y147D02*
X1493D01*
X1368D02*
X1383D01*
X1340D02*
X1356D01*
X1244D02*
X1314D01*
X1216D02*
X1232D01*
X1093D02*
X1191D01*
X1395Y146D02*
X1493D01*
X1368D02*
X1383D01*
X1328D02*
X1356D01*
X1232D02*
X1314D01*
X1205D02*
X1230D01*
X1093D02*
X1191D01*
X1395Y145D02*
X1493D01*
X1368D02*
X1383D01*
X1328D02*
X1356D01*
X1232D02*
X1314D01*
X1205D02*
X1230D01*
X1093D02*
X1191D01*
X1395Y144D02*
X1493D01*
X1368D02*
X1383D01*
X1328D02*
X1356D01*
X1232D02*
X1314D01*
X1205D02*
X1230D01*
X1093D02*
X1191D01*
X1477Y143D02*
X1493D01*
X1395D02*
X1411D01*
X1368D02*
X1383D01*
X1327D02*
X1356D01*
X1285D02*
X1314D01*
X1230D02*
X1246D01*
X1203D02*
X1218D01*
X1175D02*
X1191D01*
X1093D02*
X1108D01*
X1477Y142D02*
X1493D01*
X1395D02*
X1411D01*
X1368D02*
X1383D01*
X1326D02*
X1356D01*
X1285D02*
X1314D01*
X1230D02*
X1246D01*
X1203D02*
X1218D01*
X1175D02*
X1191D01*
X1093D02*
X1108D01*
X1477Y141D02*
X1493D01*
X1395D02*
X1411D01*
X1368D02*
X1383D01*
X1326D02*
X1356D01*
X1285D02*
X1314D01*
X1230D02*
X1246D01*
X1203D02*
X1218D01*
X1175D02*
X1191D01*
X1093D02*
X1108D01*
X1477Y140D02*
X1493D01*
X1395D02*
X1411D01*
X1368D02*
X1383D01*
X1326D02*
X1356D01*
X1285D02*
X1314D01*
X1230D02*
X1246D01*
X1203D02*
X1218D01*
X1175D02*
X1191D01*
X1093D02*
X1108D01*
X1477Y139D02*
X1493D01*
X1395D02*
X1411D01*
X1368D02*
X1383D01*
X1326D02*
X1356D01*
X1285D02*
X1314D01*
X1230D02*
X1246D01*
X1203D02*
X1218D01*
X1175D02*
X1191D01*
X1093D02*
X1108D01*
X1477Y138D02*
X1493D01*
X1395D02*
X1411D01*
X1368D02*
X1383D01*
X1326D02*
X1356D01*
X1285D02*
X1314D01*
X1230D02*
X1246D01*
X1203D02*
X1218D01*
X1175D02*
X1191D01*
X1093D02*
X1108D01*
X1477Y137D02*
X1493D01*
X1395D02*
X1411D01*
X1368D02*
X1383D01*
X1326D02*
X1356D01*
X1285D02*
X1314D01*
X1230D02*
X1246D01*
X1203D02*
X1218D01*
X1175D02*
X1191D01*
X1093D02*
X1108D01*
X1477Y136D02*
X1493D01*
X1395D02*
X1411D01*
X1368D02*
X1383D01*
X1326D02*
X1356D01*
X1285D02*
X1314D01*
X1230D02*
X1246D01*
X1203D02*
X1218D01*
X1175D02*
X1191D01*
X1093D02*
X1108D01*
X1477Y135D02*
X1493D01*
X1395D02*
X1411D01*
X1368D02*
X1383D01*
X1326D02*
X1356D01*
X1285D02*
X1314D01*
X1230D02*
X1246D01*
X1203D02*
X1218D01*
X1175D02*
X1191D01*
X1093D02*
X1108D01*
X1477Y134D02*
X1493D01*
X1395D02*
X1411D01*
X1368D02*
X1383D01*
X1326D02*
X1356D01*
X1285D02*
X1314D01*
X1230D02*
X1246D01*
X1203D02*
X1218D01*
X1175D02*
X1191D01*
X1093D02*
X1108D01*
X1477Y133D02*
X1493D01*
X1423D02*
X1465D01*
X1395D02*
X1411D01*
X1326D02*
X1382D01*
X1203D02*
X1314D01*
X1175D02*
X1191D01*
X1121D02*
X1163D01*
X1093D02*
X1108D01*
X1477Y132D02*
X1493D01*
X1423D02*
X1466D01*
X1395D02*
X1411D01*
X1326D02*
X1381D01*
X1203D02*
X1314D01*
X1175D02*
X1191D01*
X1120D02*
X1163D01*
X1093D02*
X1108D01*
X1477Y131D02*
X1493D01*
X1423D02*
X1465D01*
X1395D02*
X1411D01*
X1326D02*
X1381D01*
X1203D02*
X1314D01*
X1175D02*
X1191D01*
X1120D02*
X1163D01*
X1093D02*
X1108D01*
X1477Y130D02*
X1493D01*
X1423D02*
X1465D01*
X1395D02*
X1411D01*
X1326D02*
X1381D01*
X1203D02*
X1314D01*
X1175D02*
X1191D01*
X1120D02*
X1163D01*
X1093D02*
X1108D01*
X1477Y129D02*
X1493D01*
X1421D02*
X1465D01*
X1395D02*
X1411D01*
X1326D02*
X1369D01*
X1203D02*
X1314D01*
X1175D02*
X1191D01*
X1119D02*
X1163D01*
X1093D02*
X1108D01*
X1477Y128D02*
X1493D01*
X1421D02*
X1465D01*
X1395D02*
X1411D01*
X1326D02*
X1369D01*
X1203D02*
X1314D01*
X1175D02*
X1191D01*
X1119D02*
X1163D01*
X1093D02*
X1108D01*
X1477Y127D02*
X1493D01*
X1421D02*
X1465D01*
X1395D02*
X1411D01*
X1326D02*
X1369D01*
X1203D02*
X1314D01*
X1175D02*
X1191D01*
X1119D02*
X1163D01*
X1093D02*
X1108D01*
X1477Y126D02*
X1493D01*
X1421D02*
X1465D01*
X1395D02*
X1411D01*
X1326D02*
X1369D01*
X1203D02*
X1314D01*
X1175D02*
X1191D01*
X1119D02*
X1163D01*
X1093D02*
X1108D01*
X1477Y125D02*
X1493D01*
X1421D02*
X1465D01*
X1395D02*
X1411D01*
X1326D02*
X1369D01*
X1203D02*
X1314D01*
X1175D02*
X1191D01*
X1119D02*
X1163D01*
X1093D02*
X1108D01*
X1477Y124D02*
X1493D01*
X1421D02*
X1465D01*
X1395D02*
X1411D01*
X1326D02*
X1369D01*
X1203D02*
X1314D01*
X1175D02*
X1191D01*
X1119D02*
X1163D01*
X1093D02*
X1108D01*
X1477Y123D02*
X1493D01*
X1421D02*
X1465D01*
X1395D02*
X1411D01*
X1326D02*
X1369D01*
X1203D02*
X1314D01*
X1175D02*
X1191D01*
X1119D02*
X1163D01*
X1093D02*
X1108D01*
X1477Y122D02*
X1493D01*
X1421D02*
X1465D01*
X1395D02*
X1411D01*
X1326D02*
X1369D01*
X1203D02*
X1314D01*
X1175D02*
X1191D01*
X1119D02*
X1163D01*
X1093D02*
X1108D01*
X1477Y121D02*
X1493D01*
X1421D02*
X1465D01*
X1395D02*
X1411D01*
X1326D02*
X1369D01*
X1203D02*
X1314D01*
X1175D02*
X1191D01*
X1119D02*
X1163D01*
X1093D02*
X1108D01*
X1477Y120D02*
X1493D01*
X1421D02*
X1465D01*
X1395D02*
X1411D01*
X1326D02*
X1369D01*
X1203D02*
X1315D01*
X1175D02*
X1191D01*
X1119D02*
X1163D01*
X1093D02*
X1108D01*
X1477Y119D02*
X1493D01*
X1421D02*
X1465D01*
X1395D02*
X1411D01*
X1326D02*
X1369D01*
X1203D02*
X1313D01*
X1175D02*
X1191D01*
X1119D02*
X1163D01*
X1093D02*
X1108D01*
X1477Y118D02*
X1493D01*
X1421D02*
X1465D01*
X1395D02*
X1411D01*
X1326D02*
X1369D01*
X1203D02*
X1313D01*
X1175D02*
X1191D01*
X1119D02*
X1163D01*
X1093D02*
X1108D01*
X1477Y117D02*
X1493D01*
X1421D02*
X1465D01*
X1395D02*
X1411D01*
X1326D02*
X1369D01*
X1203D02*
X1313D01*
X1175D02*
X1191D01*
X1119D02*
X1163D01*
X1093D02*
X1108D01*
X1477Y116D02*
X1493D01*
X1421D02*
X1465D01*
X1395D02*
X1411D01*
X1326D02*
X1369D01*
X1236D02*
X1313D01*
X1203D02*
X1235D01*
X1175D02*
X1191D01*
X1119D02*
X1163D01*
X1093D02*
X1108D01*
X1477Y115D02*
X1493D01*
X1421D02*
X1465D01*
X1395D02*
X1411D01*
X1354D02*
X1369D01*
X1326D02*
X1342D01*
X1285D02*
X1301D01*
X1244D02*
X1260D01*
X1217D02*
X1232D01*
X1175D02*
X1191D01*
X1119D02*
X1163D01*
X1093D02*
X1108D01*
X1477Y114D02*
X1493D01*
X1421D02*
X1465D01*
X1395D02*
X1411D01*
X1354D02*
X1369D01*
X1326D02*
X1342D01*
X1285D02*
X1301D01*
X1244D02*
X1260D01*
X1217D02*
X1232D01*
X1175D02*
X1191D01*
X1119D02*
X1163D01*
X1093D02*
X1108D01*
X1477Y113D02*
X1493D01*
X1421D02*
X1465D01*
X1395D02*
X1411D01*
X1354D02*
X1369D01*
X1326D02*
X1342D01*
X1285D02*
X1301D01*
X1244D02*
X1260D01*
X1217D02*
X1232D01*
X1175D02*
X1191D01*
X1119D02*
X1163D01*
X1093D02*
X1108D01*
X1477Y112D02*
X1493D01*
X1421D02*
X1465D01*
X1395D02*
X1411D01*
X1354D02*
X1369D01*
X1326D02*
X1342D01*
X1285D02*
X1301D01*
X1244D02*
X1260D01*
X1217D02*
X1232D01*
X1175D02*
X1191D01*
X1119D02*
X1163D01*
X1093D02*
X1108D01*
X1477Y111D02*
X1493D01*
X1421D02*
X1465D01*
X1395D02*
X1411D01*
X1354D02*
X1369D01*
X1326D02*
X1342D01*
X1285D02*
X1301D01*
X1244D02*
X1260D01*
X1217D02*
X1232D01*
X1175D02*
X1191D01*
X1119D02*
X1163D01*
X1093D02*
X1108D01*
X1477Y110D02*
X1493D01*
X1421D02*
X1465D01*
X1395D02*
X1411D01*
X1354D02*
X1369D01*
X1326D02*
X1342D01*
X1285D02*
X1301D01*
X1244D02*
X1260D01*
X1217D02*
X1232D01*
X1175D02*
X1191D01*
X1119D02*
X1163D01*
X1093D02*
X1108D01*
X1477Y109D02*
X1493D01*
X1421D02*
X1465D01*
X1395D02*
X1411D01*
X1354D02*
X1369D01*
X1326D02*
X1342D01*
X1285D02*
X1301D01*
X1244D02*
X1260D01*
X1217D02*
X1232D01*
X1175D02*
X1191D01*
X1119D02*
X1163D01*
X1093D02*
X1108D01*
X1477Y108D02*
X1493D01*
X1421D02*
X1465D01*
X1395D02*
X1411D01*
X1354D02*
X1369D01*
X1326D02*
X1342D01*
X1285D02*
X1301D01*
X1244D02*
X1260D01*
X1217D02*
X1232D01*
X1175D02*
X1191D01*
X1119D02*
X1163D01*
X1093D02*
X1108D01*
X1477Y107D02*
X1493D01*
X1421D02*
X1465D01*
X1395D02*
X1411D01*
X1354D02*
X1369D01*
X1326D02*
X1342D01*
X1285D02*
X1301D01*
X1244D02*
X1260D01*
X1217D02*
X1232D01*
X1175D02*
X1191D01*
X1119D02*
X1163D01*
X1093D02*
X1108D01*
X1477Y106D02*
X1493D01*
X1421D02*
X1465D01*
X1395D02*
X1411D01*
X1354D02*
X1369D01*
X1326D02*
X1342D01*
X1285D02*
X1301D01*
X1244D02*
X1260D01*
X1217D02*
X1232D01*
X1175D02*
X1191D01*
X1119D02*
X1163D01*
X1093D02*
X1108D01*
X1477Y105D02*
X1493D01*
X1421D02*
X1465D01*
X1395D02*
X1411D01*
X1342D02*
X1368D01*
X1326D02*
X1340D01*
X1285D02*
X1299D01*
X1244D02*
X1258D01*
X1217D02*
X1230D01*
X1175D02*
X1191D01*
X1119D02*
X1163D01*
X1093D02*
X1108D01*
X1477Y104D02*
X1493D01*
X1421D02*
X1465D01*
X1395D02*
X1411D01*
X1342D02*
X1368D01*
X1326D02*
X1340D01*
X1285D02*
X1299D01*
X1244D02*
X1258D01*
X1217D02*
X1230D01*
X1175D02*
X1191D01*
X1119D02*
X1163D01*
X1093D02*
X1108D01*
X1477Y103D02*
X1493D01*
X1421D02*
X1465D01*
X1395D02*
X1411D01*
X1342D02*
X1368D01*
X1326D02*
X1340D01*
X1285D02*
X1299D01*
X1244D02*
X1258D01*
X1217D02*
X1230D01*
X1175D02*
X1191D01*
X1119D02*
X1163D01*
X1093D02*
X1108D01*
X1477Y102D02*
X1493D01*
X1421D02*
X1465D01*
X1395D02*
X1411D01*
X1340D02*
X1356D01*
X1175D02*
X1191D01*
X1119D02*
X1163D01*
X1093D02*
X1108D01*
X1477Y101D02*
X1493D01*
X1421D02*
X1465D01*
X1395D02*
X1411D01*
X1340D02*
X1356D01*
X1175D02*
X1191D01*
X1119D02*
X1163D01*
X1093D02*
X1108D01*
X1477Y100D02*
X1493D01*
X1421D02*
X1465D01*
X1395D02*
X1411D01*
X1340D02*
X1356D01*
X1175D02*
X1191D01*
X1119D02*
X1163D01*
X1093D02*
X1108D01*
X1477Y99D02*
X1493D01*
X1421D02*
X1465D01*
X1395D02*
X1411D01*
X1340D02*
X1356D01*
X1175D02*
X1191D01*
X1119D02*
X1163D01*
X1093D02*
X1108D01*
X1477Y98D02*
X1493D01*
X1421D02*
X1465D01*
X1395D02*
X1411D01*
X1340D02*
X1356D01*
X1175D02*
X1191D01*
X1119D02*
X1163D01*
X1093D02*
X1108D01*
X1477Y97D02*
X1493D01*
X1421D02*
X1465D01*
X1395D02*
X1411D01*
X1340D02*
X1356D01*
X1175D02*
X1191D01*
X1119D02*
X1163D01*
X1093D02*
X1108D01*
X1477Y96D02*
X1493D01*
X1421D02*
X1465D01*
X1395D02*
X1411D01*
X1340D02*
X1356D01*
X1175D02*
X1191D01*
X1119D02*
X1163D01*
X1093D02*
X1108D01*
X1477Y95D02*
X1493D01*
X1421D02*
X1465D01*
X1395D02*
X1411D01*
X1340D02*
X1356D01*
X1175D02*
X1191D01*
X1119D02*
X1163D01*
X1093D02*
X1108D01*
X1477Y94D02*
X1493D01*
X1421D02*
X1465D01*
X1395D02*
X1411D01*
X1340D02*
X1356D01*
X1175D02*
X1191D01*
X1119D02*
X1163D01*
X1093D02*
X1108D01*
X1477Y93D02*
X1493D01*
X1421D02*
X1466D01*
X1395D02*
X1411D01*
X1340D02*
X1356D01*
X1175D02*
X1191D01*
X1119D02*
X1163D01*
X1093D02*
X1108D01*
X1477Y92D02*
X1493D01*
X1421D02*
X1465D01*
X1395D02*
X1411D01*
X1382D02*
X1383D01*
X1340D02*
X1356D01*
X1338D02*
X1339D01*
X1329D02*
X1332D01*
X1175D02*
X1191D01*
X1119D02*
X1163D01*
X1093D02*
X1108D01*
X1477Y91D02*
X1493D01*
X1421D02*
X1464D01*
X1395D02*
X1411D01*
X1369D02*
X1383D01*
X1328D02*
X1356D01*
X1301D02*
X1315D01*
X1273D02*
X1287D01*
X1218D02*
X1246D01*
X1175D02*
X1191D01*
X1119D02*
X1162D01*
X1093D02*
X1108D01*
X1477Y90D02*
X1493D01*
X1421D02*
X1464D01*
X1395D02*
X1411D01*
X1369D02*
X1383D01*
X1328D02*
X1356D01*
X1301D02*
X1314D01*
X1273D02*
X1287D01*
X1218D02*
X1246D01*
X1175D02*
X1191D01*
X1119D02*
X1162D01*
X1093D02*
X1108D01*
X1477Y89D02*
X1493D01*
X1421D02*
X1464D01*
X1395D02*
X1411D01*
X1369D02*
X1383D01*
X1328D02*
X1356D01*
X1301D02*
X1314D01*
X1273D02*
X1287D01*
X1218D02*
X1246D01*
X1175D02*
X1191D01*
X1119D02*
X1162D01*
X1093D02*
X1108D01*
X1477Y88D02*
X1493D01*
X1423D02*
X1464D01*
X1395D02*
X1411D01*
X1368D02*
X1383D01*
X1326D02*
X1356D01*
X1299D02*
X1314D01*
X1271D02*
X1287D01*
X1217D02*
X1246D01*
X1175D02*
X1191D01*
X1120D02*
X1162D01*
X1093D02*
X1108D01*
X1477Y87D02*
X1493D01*
X1423D02*
X1464D01*
X1395D02*
X1411D01*
X1368D02*
X1383D01*
X1326D02*
X1356D01*
X1299D02*
X1314D01*
X1272D02*
X1287D01*
X1217D02*
X1246D01*
X1175D02*
X1191D01*
X1121D02*
X1162D01*
X1093D02*
X1108D01*
X1477Y86D02*
X1493D01*
X1395D02*
X1411D01*
X1368D02*
X1383D01*
X1326D02*
X1356D01*
X1299D02*
X1314D01*
X1272D02*
X1287D01*
X1217D02*
X1246D01*
X1175D02*
X1191D01*
X1093D02*
X1108D01*
X1477Y85D02*
X1493D01*
X1395D02*
X1411D01*
X1368D02*
X1383D01*
X1326D02*
X1356D01*
X1299D02*
X1314D01*
X1272D02*
X1287D01*
X1217D02*
X1246D01*
X1175D02*
X1191D01*
X1093D02*
X1108D01*
X1477Y84D02*
X1493D01*
X1395D02*
X1411D01*
X1368D02*
X1383D01*
X1326D02*
X1356D01*
X1299D02*
X1314D01*
X1272D02*
X1287D01*
X1217D02*
X1246D01*
X1175D02*
X1191D01*
X1093D02*
X1108D01*
X1477Y83D02*
X1493D01*
X1395D02*
X1411D01*
X1368D02*
X1383D01*
X1326D02*
X1356D01*
X1299D02*
X1314D01*
X1272D02*
X1287D01*
X1217D02*
X1246D01*
X1175D02*
X1191D01*
X1093D02*
X1108D01*
X1477Y82D02*
X1493D01*
X1395D02*
X1411D01*
X1368D02*
X1383D01*
X1326D02*
X1356D01*
X1299D02*
X1314D01*
X1272D02*
X1287D01*
X1217D02*
X1246D01*
X1175D02*
X1191D01*
X1093D02*
X1108D01*
X1477Y81D02*
X1493D01*
X1395D02*
X1411D01*
X1368D02*
X1383D01*
X1326D02*
X1356D01*
X1299D02*
X1314D01*
X1272D02*
X1287D01*
X1217D02*
X1246D01*
X1175D02*
X1191D01*
X1093D02*
X1108D01*
X1477Y80D02*
X1493D01*
X1395D02*
X1411D01*
X1368D02*
X1383D01*
X1326D02*
X1356D01*
X1299D02*
X1314D01*
X1272D02*
X1287D01*
X1217D02*
X1246D01*
X1175D02*
X1191D01*
X1093D02*
X1108D01*
X1478Y79D02*
X1493D01*
X1395D02*
X1411D01*
X1368D02*
X1383D01*
X1327D02*
X1356D01*
X1299D02*
X1314D01*
X1272D02*
X1287D01*
X1217D02*
X1246D01*
X1175D02*
X1191D01*
X1093D02*
X1108D01*
X1395Y78D02*
X1493D01*
X1368D02*
X1383D01*
X1314D02*
X1356D01*
X1287D02*
X1313D01*
X1260D02*
X1285D01*
X1205D02*
X1246D01*
X1093D02*
X1191D01*
X1395Y77D02*
X1493D01*
X1368D02*
X1383D01*
X1314D02*
X1356D01*
X1287D02*
X1313D01*
X1259D02*
X1285D01*
X1205D02*
X1246D01*
X1093D02*
X1191D01*
X1395Y76D02*
X1493D01*
X1368D02*
X1383D01*
X1314D02*
X1356D01*
X1287D02*
X1313D01*
X1260D02*
X1285D01*
X1205D02*
X1246D01*
X1093D02*
X1191D01*
X1395Y75D02*
X1493D01*
X1368D02*
X1383D01*
X1314D02*
X1356D01*
X1287D02*
X1313D01*
X1259D02*
X1285D01*
X1204D02*
X1246D01*
X1093D02*
X1191D01*
X1395Y74D02*
X1493D01*
X1368D02*
X1383D01*
X1340D02*
X1356D01*
X1313D02*
X1328D01*
X1285D02*
X1301D01*
X1258D02*
X1273D01*
X1230D02*
X1246D01*
X1203D02*
X1218D01*
X1093D02*
X1191D01*
X1395Y73D02*
X1493D01*
X1368D02*
X1383D01*
X1340D02*
X1356D01*
X1313D02*
X1328D01*
X1285D02*
X1301D01*
X1258D02*
X1273D01*
X1230D02*
X1246D01*
X1203D02*
X1218D01*
X1093D02*
X1191D01*
X1395Y72D02*
X1493D01*
X1368D02*
X1383D01*
X1340D02*
X1356D01*
X1313D02*
X1328D01*
X1285D02*
X1301D01*
X1258D02*
X1273D01*
X1230D02*
X1246D01*
X1203D02*
X1218D01*
X1093D02*
X1191D01*
X1395Y71D02*
X1493D01*
X1368D02*
X1383D01*
X1340D02*
X1356D01*
X1313D02*
X1328D01*
X1285D02*
X1301D01*
X1258D02*
X1273D01*
X1230D02*
X1246D01*
X1203D02*
X1218D01*
X1093D02*
X1191D01*
X1395Y70D02*
X1493D01*
X1368D02*
X1383D01*
X1340D02*
X1356D01*
X1313D02*
X1328D01*
X1285D02*
X1301D01*
X1258D02*
X1273D01*
X1230D02*
X1246D01*
X1203D02*
X1218D01*
X1093D02*
X1191D01*
X1395Y69D02*
X1493D01*
X1368D02*
X1383D01*
X1340D02*
X1356D01*
X1313D02*
X1328D01*
X1285D02*
X1301D01*
X1258D02*
X1273D01*
X1230D02*
X1246D01*
X1203D02*
X1218D01*
X1093D02*
X1191D01*
X1395Y68D02*
X1493D01*
X1368D02*
X1383D01*
X1340D02*
X1356D01*
X1313D02*
X1328D01*
X1285D02*
X1301D01*
X1258D02*
X1273D01*
X1230D02*
X1246D01*
X1203D02*
X1218D01*
X1093D02*
X1191D01*
X1395Y67D02*
X1493D01*
X1368D02*
X1383D01*
X1340D02*
X1356D01*
X1313D02*
X1328D01*
X1285D02*
X1301D01*
X1258D02*
X1273D01*
X1230D02*
X1246D01*
X1203D02*
X1218D01*
X1093D02*
X1191D01*
X1395Y66D02*
X1493D01*
X1368D02*
X1383D01*
X1340D02*
X1356D01*
X1313D02*
X1328D01*
X1285D02*
X1301D01*
X1258D02*
X1273D01*
X1230D02*
X1246D01*
X1203D02*
X1218D01*
X1093D02*
X1191D01*
X1395Y65D02*
X1493D01*
X1368D02*
X1383D01*
X1340D02*
X1356D01*
X1313D02*
X1328D01*
X1285D02*
X1301D01*
X1258D02*
X1273D01*
X1230D02*
X1246D01*
X1203D02*
X1218D01*
X1093D02*
X1191D01*
X1395Y64D02*
X1491D01*
X1356D02*
X1381D01*
X1340D02*
X1354D01*
X1313D02*
X1326D01*
X1258D02*
X1299D01*
X1218D02*
X1244D01*
X1203D02*
X1217D01*
X1093D02*
X1189D01*
X1395Y63D02*
X1491D01*
X1356D02*
X1381D01*
X1340D02*
X1354D01*
X1313D02*
X1326D01*
X1258D02*
X1299D01*
X1218D02*
X1244D01*
X1203D02*
X1217D01*
X1093D02*
X1189D01*
X1395Y62D02*
X1491D01*
X1356D02*
X1381D01*
X1340D02*
X1354D01*
X1313D02*
X1327D01*
X1258D02*
X1299D01*
X1218D02*
X1244D01*
X1203D02*
X1217D01*
X1093D02*
X1189D01*
X1354Y61D02*
X1370D01*
X1258D02*
X1287D01*
X1216D02*
X1232D01*
X1354Y60D02*
X1369D01*
X1258D02*
X1287D01*
X1217D02*
X1232D01*
X1354Y59D02*
X1369D01*
X1258D02*
X1287D01*
X1217D02*
X1232D01*
X1354Y58D02*
X1369D01*
X1258D02*
X1287D01*
X1217D02*
X1232D01*
X1354Y57D02*
X1369D01*
X1258D02*
X1287D01*
X1217D02*
X1232D01*
X1354Y56D02*
X1369D01*
X1258D02*
X1287D01*
X1217D02*
X1232D01*
X1354Y55D02*
X1369D01*
X1258D02*
X1287D01*
X1217D02*
X1232D01*
X1354Y54D02*
X1369D01*
X1258D02*
X1287D01*
X1217D02*
X1232D01*
X1354Y53D02*
X1369D01*
X1258D02*
X1287D01*
X1217D02*
X1232D01*
X1354Y52D02*
X1369D01*
X1258D02*
X1287D01*
X1217D02*
X1232D01*
X1354Y51D02*
X1369D01*
X1258D02*
X1287D01*
X1217D02*
X1232D01*
X1452Y50D02*
X1479D01*
X1383D02*
X1397D01*
X1354D02*
X1369D01*
X1301D02*
X1315D01*
X1232D02*
X1287D01*
X1217D02*
X1230D01*
X1163D02*
X1205D01*
X1136D02*
X1150D01*
X1452Y49D02*
X1479D01*
X1383D02*
X1397D01*
X1354D02*
X1369D01*
X1301D02*
X1314D01*
X1232D02*
X1287D01*
X1217D02*
X1230D01*
X1163D02*
X1205D01*
X1136D02*
X1150D01*
X1452Y48D02*
X1479D01*
X1383D02*
X1397D01*
X1354D02*
X1369D01*
X1301D02*
X1314D01*
X1232D02*
X1287D01*
X1217D02*
X1230D01*
X1163D02*
X1205D01*
X1136D02*
X1150D01*
X1450Y47D02*
X1479D01*
X1381D02*
X1397D01*
X1354D02*
X1369D01*
X1299D02*
X1314D01*
X1271D02*
X1287D01*
X1230D02*
X1260D01*
X1162D02*
X1205D01*
X1134D02*
X1150D01*
X1450Y46D02*
X1479D01*
X1381D02*
X1397D01*
X1354D02*
X1369D01*
X1299D02*
X1314D01*
X1272D02*
X1287D01*
X1230D02*
X1260D01*
X1162D02*
X1205D01*
X1134D02*
X1150D01*
X1450Y45D02*
X1479D01*
X1381D02*
X1397D01*
X1354D02*
X1369D01*
X1299D02*
X1314D01*
X1272D02*
X1287D01*
X1230D02*
X1260D01*
X1162D02*
X1205D01*
X1134D02*
X1150D01*
X1450Y44D02*
X1479D01*
X1381D02*
X1397D01*
X1354D02*
X1369D01*
X1299D02*
X1314D01*
X1272D02*
X1287D01*
X1230D02*
X1260D01*
X1162D02*
X1205D01*
X1134D02*
X1150D01*
X1450Y43D02*
X1479D01*
X1381D02*
X1397D01*
X1354D02*
X1369D01*
X1299D02*
X1314D01*
X1272D02*
X1287D01*
X1230D02*
X1260D01*
X1162D02*
X1205D01*
X1134D02*
X1150D01*
X1450Y42D02*
X1479D01*
X1381D02*
X1397D01*
X1354D02*
X1369D01*
X1299D02*
X1314D01*
X1272D02*
X1287D01*
X1230D02*
X1260D01*
X1162D02*
X1205D01*
X1134D02*
X1150D01*
X1450Y41D02*
X1479D01*
X1381D02*
X1397D01*
X1354D02*
X1369D01*
X1299D02*
X1314D01*
X1272D02*
X1287D01*
X1230D02*
X1260D01*
X1162D02*
X1205D01*
X1134D02*
X1150D01*
X1450Y40D02*
X1479D01*
X1381D02*
X1397D01*
X1354D02*
X1369D01*
X1299D02*
X1314D01*
X1272D02*
X1287D01*
X1230D02*
X1260D01*
X1162D02*
X1205D01*
X1134D02*
X1150D01*
X1450Y39D02*
X1479D01*
X1381D02*
X1397D01*
X1354D02*
X1369D01*
X1299D02*
X1314D01*
X1272D02*
X1287D01*
X1230D02*
X1260D01*
X1162D02*
X1205D01*
X1134D02*
X1150D01*
X1450Y38D02*
X1479D01*
X1381D02*
X1397D01*
X1354D02*
X1369D01*
X1299D02*
X1315D01*
X1272D02*
X1287D01*
X1230D02*
X1260D01*
X1162D02*
X1205D01*
X1134D02*
X1150D01*
X1479Y37D02*
X1493D01*
X1438D02*
X1478D01*
X1381D02*
X1395D01*
X1354D02*
X1368D01*
X1328D02*
X1342D01*
X1299D02*
X1313D01*
X1272D02*
X1287D01*
X1230D02*
X1258D01*
X1134D02*
X1218D01*
X1095D02*
X1122D01*
X1479Y36D02*
X1493D01*
X1438D02*
X1477D01*
X1381D02*
X1395D01*
X1354D02*
X1368D01*
X1328D02*
X1342D01*
X1299D02*
X1313D01*
X1272D02*
X1287D01*
X1230D02*
X1258D01*
X1134D02*
X1218D01*
X1095D02*
X1122D01*
X1479Y35D02*
X1493D01*
X1438D02*
X1478D01*
X1381D02*
X1395D01*
X1354D02*
X1368D01*
X1328D02*
X1342D01*
X1299D02*
X1313D01*
X1272D02*
X1287D01*
X1230D02*
X1258D01*
X1134D02*
X1218D01*
X1095D02*
X1122D01*
X1479Y34D02*
X1493D01*
X1438D02*
X1478D01*
X1381D02*
X1395D01*
X1354D02*
X1368D01*
X1328D02*
X1342D01*
X1299D02*
X1313D01*
X1272D02*
X1287D01*
X1230D02*
X1258D01*
X1134D02*
X1218D01*
X1095D02*
X1122D01*
X1477Y33D02*
X1493D01*
X1436D02*
X1452D01*
X1326D02*
X1342D01*
X1272D02*
X1287D01*
X1189D02*
X1218D01*
X1134D02*
X1177D01*
X1093D02*
X1122D01*
X1477Y32D02*
X1493D01*
X1436D02*
X1452D01*
X1326D02*
X1342D01*
X1272D02*
X1287D01*
X1189D02*
X1218D01*
X1134D02*
X1177D01*
X1093D02*
X1122D01*
X1477Y31D02*
X1493D01*
X1436D02*
X1452D01*
X1326D02*
X1342D01*
X1272D02*
X1287D01*
X1189D02*
X1218D01*
X1134D02*
X1177D01*
X1093D02*
X1122D01*
X1477Y30D02*
X1493D01*
X1436D02*
X1452D01*
X1326D02*
X1342D01*
X1272D02*
X1287D01*
X1189D02*
X1218D01*
X1134D02*
X1177D01*
X1093D02*
X1122D01*
X1477Y29D02*
X1493D01*
X1436D02*
X1452D01*
X1326D02*
X1342D01*
X1272D02*
X1287D01*
X1189D02*
X1218D01*
X1134D02*
X1177D01*
X1093D02*
X1122D01*
X1477Y28D02*
X1493D01*
X1436D02*
X1452D01*
X1326D02*
X1342D01*
X1272D02*
X1287D01*
X1189D02*
X1218D01*
X1134D02*
X1177D01*
X1093D02*
X1122D01*
X1477Y27D02*
X1493D01*
X1436D02*
X1452D01*
X1326D02*
X1342D01*
X1272D02*
X1287D01*
X1189D02*
X1218D01*
X1134D02*
X1177D01*
X1093D02*
X1122D01*
X1477Y26D02*
X1493D01*
X1436D02*
X1452D01*
X1326D02*
X1342D01*
X1272D02*
X1287D01*
X1189D02*
X1218D01*
X1134D02*
X1177D01*
X1093D02*
X1122D01*
X1477Y25D02*
X1493D01*
X1436D02*
X1452D01*
X1326D02*
X1342D01*
X1272D02*
X1287D01*
X1189D02*
X1218D01*
X1134D02*
X1177D01*
X1093D02*
X1122D01*
X1478Y24D02*
X1493D01*
X1436D02*
X1452D01*
X1326D02*
X1342D01*
X1272D02*
X1287D01*
X1189D02*
X1218D01*
X1134D02*
X1177D01*
X1093D02*
X1122D01*
X1452Y23D02*
X1491D01*
X1424D02*
X1450D01*
X1397D02*
X1411D01*
X1369D02*
X1383D01*
X1326D02*
X1342D01*
X1287D02*
X1314D01*
X1272D02*
X1285D01*
X1246D02*
X1260D01*
X1134D02*
X1217D01*
X1093D02*
X1120D01*
X1452Y22D02*
X1491D01*
X1424D02*
X1450D01*
X1397D02*
X1411D01*
X1369D02*
X1383D01*
X1326D02*
X1342D01*
X1287D02*
X1314D01*
X1272D02*
X1285D01*
X1246D02*
X1260D01*
X1134D02*
X1217D01*
X1093D02*
X1120D01*
X1452Y21D02*
X1491D01*
X1424D02*
X1450D01*
X1397D02*
X1411D01*
X1369D02*
X1383D01*
X1326D02*
X1342D01*
X1287D02*
X1314D01*
X1272D02*
X1285D01*
X1246D02*
X1260D01*
X1134D02*
X1217D01*
X1093D02*
X1120D01*
X1451Y20D02*
X1491D01*
X1424D02*
X1450D01*
X1396D02*
X1411D01*
X1369D02*
X1383D01*
X1326D02*
X1342D01*
X1287D02*
X1314D01*
X1272D02*
X1285D01*
X1245D02*
X1260D01*
X1134D02*
X1216D01*
X1093D02*
X1120D01*
X1450Y19D02*
X1479D01*
X1423D02*
X1438D01*
X1395D02*
X1411D01*
X1368D02*
X1383D01*
X1326D02*
X1342D01*
X1285D02*
X1314D01*
X1244D02*
X1260D01*
X1134D02*
X1191D01*
X1450Y18D02*
X1479D01*
X1423D02*
X1438D01*
X1395D02*
X1411D01*
X1368D02*
X1383D01*
X1326D02*
X1342D01*
X1285D02*
X1314D01*
X1244D02*
X1260D01*
X1134D02*
X1191D01*
X1450Y17D02*
X1479D01*
X1423D02*
X1438D01*
X1395D02*
X1411D01*
X1368D02*
X1383D01*
X1326D02*
X1342D01*
X1285D02*
X1314D01*
X1244D02*
X1260D01*
X1134D02*
X1191D01*
X1450Y16D02*
X1479D01*
X1423D02*
X1438D01*
X1395D02*
X1411D01*
X1368D02*
X1383D01*
X1326D02*
X1342D01*
X1285D02*
X1314D01*
X1244D02*
X1260D01*
X1134D02*
X1191D01*
X1450Y15D02*
X1479D01*
X1423D02*
X1438D01*
X1395D02*
X1411D01*
X1368D02*
X1383D01*
X1326D02*
X1342D01*
X1285D02*
X1314D01*
X1244D02*
X1260D01*
X1134D02*
X1191D01*
X1450Y14D02*
X1479D01*
X1423D02*
X1438D01*
X1395D02*
X1411D01*
X1368D02*
X1383D01*
X1326D02*
X1342D01*
X1285D02*
X1314D01*
X1244D02*
X1260D01*
X1134D02*
X1191D01*
X1450Y13D02*
X1479D01*
X1423D02*
X1438D01*
X1395D02*
X1411D01*
X1368D02*
X1383D01*
X1326D02*
X1342D01*
X1285D02*
X1314D01*
X1244D02*
X1260D01*
X1134D02*
X1191D01*
X1450Y12D02*
X1479D01*
X1423D02*
X1438D01*
X1395D02*
X1411D01*
X1368D02*
X1383D01*
X1326D02*
X1342D01*
X1285D02*
X1314D01*
X1244D02*
X1260D01*
X1134D02*
X1191D01*
X1450Y11D02*
X1479D01*
X1423D02*
X1438D01*
X1395D02*
X1411D01*
X1368D02*
X1383D01*
X1326D02*
X1342D01*
X1285D02*
X1314D01*
X1244D02*
X1260D01*
X1134D02*
X1191D01*
X1450Y10D02*
X1479D01*
X1422D02*
X1438D01*
X1395D02*
X1411D01*
X1368D02*
X1383D01*
X1326D02*
X1342D01*
X1285D02*
X1314D01*
X1244D02*
X1259D01*
X1134D02*
X1191D01*
X1450Y9D02*
X1477D01*
X1411D02*
X1436D01*
X1395D02*
X1409D01*
X1368D02*
X1381D01*
X1326D02*
X1356D01*
X1273D02*
X1314D01*
X1232D02*
X1258D01*
X1191D02*
X1218D01*
X1122D02*
X1189D01*
X1095D02*
X1108D01*
X1450Y8D02*
X1478D01*
X1411D02*
X1436D01*
X1395D02*
X1409D01*
X1368D02*
X1381D01*
X1326D02*
X1356D01*
X1273D02*
X1314D01*
X1232D02*
X1258D01*
X1191D02*
X1218D01*
X1122D02*
X1189D01*
X1095D02*
X1108D01*
X1450Y7D02*
X1478D01*
X1411D02*
X1436D01*
X1395D02*
X1409D01*
X1368D02*
X1381D01*
X1326D02*
X1356D01*
X1273D02*
X1314D01*
X1232D02*
X1258D01*
X1191D02*
X1218D01*
X1122D02*
X1189D01*
X1095D02*
X1108D01*
X1450Y6D02*
X1466D01*
X1409D02*
X1424D01*
X1326D02*
X1356D01*
X1272D02*
X1314D01*
X1230D02*
X1246D01*
X1189D02*
X1218D01*
X1121D02*
X1150D01*
X1093D02*
X1108D01*
X1450Y5D02*
X1466D01*
X1409D02*
X1424D01*
X1326D02*
X1356D01*
X1272D02*
X1314D01*
X1230D02*
X1246D01*
X1189D02*
X1218D01*
X1120D02*
X1150D01*
X1093D02*
X1108D01*
X1450Y4D02*
X1466D01*
X1409D02*
X1424D01*
X1326D02*
X1356D01*
X1272D02*
X1314D01*
X1230D02*
X1246D01*
X1189D02*
X1218D01*
X1120D02*
X1150D01*
X1093D02*
X1108D01*
X1450Y3D02*
X1466D01*
X1409D02*
X1424D01*
X1326D02*
X1356D01*
X1272D02*
X1314D01*
X1230D02*
X1246D01*
X1189D02*
X1218D01*
X1120D02*
X1150D01*
X1093D02*
X1108D01*
X1450Y2D02*
X1465D01*
X1409D02*
X1424D01*
X1326D02*
X1356D01*
X1272D02*
X1314D01*
X1230D02*
X1246D01*
X1189D02*
X1218D01*
X1120D02*
X1150D01*
X1093D02*
X1108D01*
X1450Y1D02*
X1465D01*
X1409D02*
X1424D01*
X1326D02*
X1356D01*
X1272D02*
X1314D01*
X1230D02*
X1246D01*
X1189D02*
X1218D01*
X1120D02*
X1150D01*
X1093D02*
X1108D01*
X1450Y0D02*
X1465D01*
X1409D02*
X1424D01*
X1326D02*
X1356D01*
X1272D02*
X1314D01*
X1230D02*
X1246D01*
X1189D02*
X1218D01*
X1120D02*
X1150D01*
X1093D02*
X1108D01*
X1450Y-1D02*
X1465D01*
X1409D02*
X1424D01*
X1326D02*
X1356D01*
X1272D02*
X1314D01*
X1230D02*
X1246D01*
X1189D02*
X1218D01*
X1120D02*
X1150D01*
X1093D02*
X1108D01*
X1450Y-2D02*
X1466D01*
X1409D02*
X1424D01*
X1326D02*
X1356D01*
X1272D02*
X1314D01*
X1230D02*
X1246D01*
X1189D02*
X1218D01*
X1120D02*
X1150D01*
X1093D02*
X1108D01*
X1450Y-3D02*
X1466D01*
X1409D02*
X1424D01*
X1326D02*
X1356D01*
X1272D02*
X1314D01*
X1230D02*
X1246D01*
X1189D02*
X1218D01*
X1120D02*
X1150D01*
X1093D02*
X1108D01*
X1450Y-4D02*
X1466D01*
X1398D02*
X1424D01*
X1357D02*
X1373D01*
X1326D02*
X1356D01*
X1314D02*
X1315D01*
X1271D02*
X1313D01*
X1269D02*
X1270D01*
X1260D02*
X1263D01*
X1230D02*
X1246D01*
X1189D02*
X1219D01*
X1184D02*
X1188D01*
X1164D02*
X1172D01*
X1120D02*
X1150D01*
X1093D02*
X1108D01*
X1450Y-5D02*
X1493D01*
X1314D02*
X1423D01*
X1259D02*
X1313D01*
X1163D02*
X1246D01*
X1120D02*
X1150D01*
X1093D02*
X1108D01*
X1450Y-6D02*
X1493D01*
X1314D02*
X1423D01*
X1260D02*
X1313D01*
X1163D02*
X1246D01*
X1120D02*
X1150D01*
X1093D02*
X1108D01*
X1450Y-7D02*
X1493D01*
X1314D02*
X1423D01*
X1260D02*
X1313D01*
X1163D02*
X1246D01*
X1120D02*
X1150D01*
X1093D02*
X1108D01*
X1450Y-8D02*
X1493D01*
X1313D02*
X1411D01*
X1258D02*
X1273D01*
X1162D02*
X1246D01*
X1134D02*
X1150D01*
X1093D02*
X1108D01*
X1450Y-9D02*
X1493D01*
X1313D02*
X1411D01*
X1258D02*
X1273D01*
X1162D02*
X1246D01*
X1134D02*
X1150D01*
X1093D02*
X1108D01*
X1450Y-10D02*
X1493D01*
X1313D02*
X1411D01*
X1258D02*
X1273D01*
X1162D02*
X1246D01*
X1134D02*
X1150D01*
X1093D02*
X1108D01*
X1450Y-11D02*
X1493D01*
X1313D02*
X1411D01*
X1258D02*
X1273D01*
X1162D02*
X1246D01*
X1134D02*
X1150D01*
X1093D02*
X1108D01*
X1450Y-12D02*
X1493D01*
X1313D02*
X1411D01*
X1258D02*
X1273D01*
X1162D02*
X1246D01*
X1134D02*
X1150D01*
X1093D02*
X1108D01*
X1450Y-13D02*
X1493D01*
X1313D02*
X1411D01*
X1258D02*
X1273D01*
X1162D02*
X1246D01*
X1134D02*
X1150D01*
X1093D02*
X1108D01*
X1450Y-14D02*
X1493D01*
X1313D02*
X1411D01*
X1258D02*
X1273D01*
X1162D02*
X1246D01*
X1134D02*
X1150D01*
X1093D02*
X1108D01*
X1450Y-15D02*
X1493D01*
X1313D02*
X1411D01*
X1258D02*
X1273D01*
X1162D02*
X1246D01*
X1134D02*
X1150D01*
X1093D02*
X1108D01*
X1450Y-16D02*
X1493D01*
X1313D02*
X1411D01*
X1258D02*
X1273D01*
X1162D02*
X1246D01*
X1134D02*
X1150D01*
X1093D02*
X1108D01*
X1450Y-17D02*
X1493D01*
X1313D02*
X1411D01*
X1258D02*
X1273D01*
X1162D02*
X1246D01*
X1134D02*
X1150D01*
X1093D02*
X1108D01*
X1450Y-18D02*
X1491D01*
X1313D02*
X1438D01*
X1287D02*
X1301D01*
X1258D02*
X1273D01*
X1150D02*
X1244D01*
X1108D02*
X1148D01*
X1093D02*
X1107D01*
X1450Y-19D02*
X1491D01*
X1313D02*
X1438D01*
X1287D02*
X1301D01*
X1258D02*
X1273D01*
X1150D02*
X1244D01*
X1108D02*
X1148D01*
X1093D02*
X1107D01*
X1450Y-20D02*
X1491D01*
X1313D02*
X1438D01*
X1287D02*
X1301D01*
X1258D02*
X1273D01*
X1150D02*
X1244D01*
X1108D02*
X1148D01*
X1093D02*
X1107D01*
X1450Y-21D02*
X1491D01*
X1313D02*
X1438D01*
X1287D02*
X1301D01*
X1258D02*
X1273D01*
X1149D02*
X1244D01*
X1108D02*
X1148D01*
X1093D02*
X1107D01*
X1464Y-22D02*
X1479D01*
X1326D02*
X1438D01*
X1285D02*
X1301D01*
X1258D02*
X1273D01*
X1148D02*
X1177D01*
X1107D02*
X1136D01*
X1464Y-23D02*
X1479D01*
X1326D02*
X1438D01*
X1285D02*
X1301D01*
X1258D02*
X1273D01*
X1148D02*
X1177D01*
X1107D02*
X1136D01*
X1464Y-24D02*
X1479D01*
X1326D02*
X1438D01*
X1285D02*
X1301D01*
X1258D02*
X1273D01*
X1148D02*
X1177D01*
X1107D02*
X1136D01*
X1464Y-25D02*
X1479D01*
X1326D02*
X1438D01*
X1285D02*
X1301D01*
X1258D02*
X1273D01*
X1148D02*
X1177D01*
X1107D02*
X1136D01*
X1464Y-26D02*
X1479D01*
X1326D02*
X1438D01*
X1285D02*
X1301D01*
X1258D02*
X1273D01*
X1148D02*
X1177D01*
X1107D02*
X1136D01*
X1464Y-27D02*
X1479D01*
X1326D02*
X1438D01*
X1285D02*
X1301D01*
X1258D02*
X1273D01*
X1148D02*
X1177D01*
X1107D02*
X1136D01*
X1464Y-28D02*
X1479D01*
X1326D02*
X1438D01*
X1285D02*
X1301D01*
X1258D02*
X1273D01*
X1148D02*
X1177D01*
X1107D02*
X1136D01*
X1464Y-29D02*
X1479D01*
X1326D02*
X1438D01*
X1285D02*
X1301D01*
X1258D02*
X1273D01*
X1148D02*
X1177D01*
X1107D02*
X1136D01*
X1464Y-30D02*
X1479D01*
X1326D02*
X1438D01*
X1285D02*
X1301D01*
X1258D02*
X1273D01*
X1148D02*
X1177D01*
X1107D02*
X1136D01*
X1464Y-31D02*
X1479D01*
X1326D02*
X1438D01*
X1285D02*
X1301D01*
X1258D02*
X1273D01*
X1148D02*
X1177D01*
X1107D02*
X1136D01*
X1452Y-32D02*
X1479D01*
X1285D02*
X1438D01*
X1232D02*
X1272D01*
X1177D02*
X1205D01*
X1148D02*
X1175D01*
X1095D02*
X1134D01*
X1452Y-33D02*
X1479D01*
X1285D02*
X1438D01*
X1232D02*
X1272D01*
X1177D02*
X1205D01*
X1148D02*
X1175D01*
X1095D02*
X1134D01*
X1452Y-34D02*
X1479D01*
X1285D02*
X1438D01*
X1232D02*
X1272D01*
X1177D02*
X1205D01*
X1148D02*
X1175D01*
X1095D02*
X1134D01*
X1450Y-35D02*
X1479D01*
X1429D02*
X1438D01*
X1426D02*
X1428D01*
X1390D02*
X1423D01*
X1343D02*
X1361D01*
X1285D02*
X1300D01*
X1230D02*
X1260D01*
X1175D02*
X1205D01*
X1093D02*
X1109D01*
X1450Y-36D02*
X1479D01*
X1434D02*
X1438D01*
X1426D02*
X1427D01*
X1391D02*
X1423D01*
X1343D02*
X1361D01*
X1329D02*
X1334D01*
X1285D02*
X1300D01*
X1230D02*
X1260D01*
X1175D02*
X1205D01*
X1093D02*
X1108D01*
X1450Y-37D02*
X1479D01*
X1434D02*
X1438D01*
X1426D02*
X1427D01*
X1391D02*
X1422D01*
X1343D02*
X1361D01*
X1329D02*
X1334D01*
X1285D02*
X1300D01*
X1230D02*
X1260D01*
X1175D02*
X1205D01*
X1093D02*
X1108D01*
X1450Y-38D02*
X1479D01*
X1434D02*
X1438D01*
X1425D02*
X1427D01*
X1391D02*
X1422D01*
X1376D02*
X1378D01*
X1343D02*
X1361D01*
X1328D02*
X1334D01*
X1285D02*
X1300D01*
X1230D02*
X1260D01*
X1175D02*
X1205D01*
X1093D02*
X1108D01*
X1450Y-39D02*
X1479D01*
X1434D02*
X1438D01*
X1425D02*
X1426D01*
X1392D02*
X1421D01*
X1376D02*
X1378D01*
X1343D02*
X1361D01*
X1328D02*
X1334D01*
X1285D02*
X1300D01*
X1230D02*
X1260D01*
X1175D02*
X1205D01*
X1093D02*
X1108D01*
X1450Y-40D02*
X1479D01*
X1434D02*
X1438D01*
X1425D02*
X1426D01*
X1392D02*
X1421D01*
X1376D02*
X1379D01*
X1343D02*
X1361D01*
X1328D02*
X1334D01*
X1285D02*
X1300D01*
X1230D02*
X1260D01*
X1175D02*
X1205D01*
X1093D02*
X1108D01*
X1450Y-41D02*
X1479D01*
X1434D02*
X1438D01*
X1424D02*
X1426D01*
X1393D02*
X1421D01*
X1376D02*
X1379D01*
X1343D02*
X1361D01*
X1328D02*
X1334D01*
X1285D02*
X1300D01*
X1230D02*
X1260D01*
X1175D02*
X1205D01*
X1093D02*
X1108D01*
X1450Y-42D02*
X1479D01*
X1434D02*
X1438D01*
X1424D02*
X1425D01*
X1393D02*
X1420D01*
X1376D02*
X1379D01*
X1343D02*
X1361D01*
X1328D02*
X1334D01*
X1285D02*
X1300D01*
X1230D02*
X1260D01*
X1175D02*
X1205D01*
X1093D02*
X1108D01*
X1450Y-43D02*
X1479D01*
X1434D02*
X1438D01*
X1424D02*
X1425D01*
X1393D02*
X1420D01*
X1376D02*
X1380D01*
X1343D02*
X1361D01*
X1328D02*
X1334D01*
X1285D02*
X1321D01*
X1230D02*
X1260D01*
X1175D02*
X1205D01*
X1093D02*
X1108D01*
X1450Y-44D02*
X1479D01*
X1434D02*
X1438D01*
X1423D02*
X1425D01*
X1394D02*
X1420D01*
X1376D02*
X1380D01*
X1343D02*
X1361D01*
X1328D02*
X1334D01*
X1285D02*
X1321D01*
X1230D02*
X1260D01*
X1175D02*
X1205D01*
X1093D02*
X1108D01*
X1450Y-45D02*
X1479D01*
X1434D02*
X1438D01*
X1423D02*
X1424D01*
X1394D02*
X1419D01*
X1376D02*
X1381D01*
X1343D02*
X1361D01*
X1328D02*
X1334D01*
X1285D02*
X1321D01*
X1230D02*
X1259D01*
X1175D02*
X1205D01*
X1093D02*
X1108D01*
X1450Y-46D02*
X1479D01*
X1434D02*
X1438D01*
X1422D02*
X1424D01*
X1395D02*
X1419D01*
X1376D02*
X1381D01*
X1343D02*
X1361D01*
X1328D02*
X1334D01*
X1273D02*
X1321D01*
X1230D02*
X1258D01*
X1205D02*
X1218D01*
X1163D02*
X1203D01*
X1122D02*
X1136D01*
X1093D02*
X1108D01*
X1450Y-47D02*
X1479D01*
X1433D02*
X1438D01*
X1422D02*
X1423D01*
X1395D02*
X1419D01*
X1376D02*
X1381D01*
X1343D02*
X1361D01*
X1328D02*
X1334D01*
X1273D02*
X1321D01*
X1230D02*
X1258D01*
X1205D02*
X1218D01*
X1163D02*
X1203D01*
X1122D02*
X1136D01*
X1093D02*
X1108D01*
X1450Y-48D02*
X1479D01*
X1433D02*
X1438D01*
X1422D02*
X1423D01*
X1395D02*
X1418D01*
X1376D02*
X1382D01*
X1343D02*
X1361D01*
X1328D02*
X1334D01*
X1273D02*
X1321D01*
X1230D02*
X1258D01*
X1205D02*
X1218D01*
X1163D02*
X1203D01*
X1122D02*
X1136D01*
X1093D02*
X1108D01*
X1464Y-49D02*
X1479D01*
X1432D02*
X1438D01*
X1421D02*
X1423D01*
X1396D02*
X1418D01*
X1376D02*
X1382D01*
X1343D02*
X1361D01*
X1328D02*
X1334D01*
X1272D02*
X1321D01*
X1203D02*
X1218D01*
X1162D02*
X1177D01*
X1120D02*
X1136D01*
X1093D02*
X1108D01*
X1464Y-50D02*
X1479D01*
X1432D02*
X1438D01*
X1421D02*
X1422D01*
X1396D02*
X1418D01*
X1376D02*
X1382D01*
X1343D02*
X1361D01*
X1328D02*
X1334D01*
X1272D02*
X1321D01*
X1203D02*
X1218D01*
X1162D02*
X1177D01*
X1120D02*
X1136D01*
X1093D02*
X1108D01*
X1464Y-51D02*
X1479D01*
X1432D02*
X1438D01*
X1421D02*
X1422D01*
X1396D02*
X1417D01*
X1376D02*
X1383D01*
X1343D02*
X1361D01*
X1328D02*
X1334D01*
X1272D02*
X1306D01*
X1203D02*
X1218D01*
X1162D02*
X1177D01*
X1120D02*
X1136D01*
X1093D02*
X1108D01*
X1464Y-52D02*
X1479D01*
X1431D02*
X1438D01*
X1420D02*
X1422D01*
X1397D02*
X1417D01*
X1376D02*
X1383D01*
X1343D02*
X1361D01*
X1328D02*
X1334D01*
X1272D02*
X1306D01*
X1203D02*
X1218D01*
X1162D02*
X1177D01*
X1120D02*
X1136D01*
X1093D02*
X1108D01*
X1464Y-53D02*
X1479D01*
X1431D02*
X1438D01*
X1420D02*
X1421D01*
X1397D02*
X1417D01*
X1376D02*
X1383D01*
X1343D02*
X1361D01*
X1328D02*
X1334D01*
X1272D02*
X1306D01*
X1203D02*
X1218D01*
X1162D02*
X1177D01*
X1120D02*
X1136D01*
X1093D02*
X1108D01*
X1464Y-54D02*
X1479D01*
X1430D02*
X1438D01*
X1419D02*
X1421D01*
X1398D02*
X1416D01*
X1376D02*
X1384D01*
X1343D02*
X1361D01*
X1328D02*
X1334D01*
X1272D02*
X1306D01*
X1203D02*
X1218D01*
X1162D02*
X1177D01*
X1120D02*
X1136D01*
X1093D02*
X1108D01*
X1464Y-55D02*
X1479D01*
X1430D02*
X1438D01*
X1419D02*
X1420D01*
X1398D02*
X1416D01*
X1376D02*
X1384D01*
X1343D02*
X1361D01*
X1328D02*
X1334D01*
X1272D02*
X1306D01*
X1203D02*
X1218D01*
X1162D02*
X1177D01*
X1120D02*
X1136D01*
X1093D02*
X1108D01*
X1464Y-56D02*
X1479D01*
X1430D02*
X1438D01*
X1419D02*
X1420D01*
X1398D02*
X1415D01*
X1376D02*
X1385D01*
X1343D02*
X1361D01*
X1328D02*
X1334D01*
X1272D02*
X1306D01*
X1203D02*
X1218D01*
X1162D02*
X1177D01*
X1120D02*
X1136D01*
X1093D02*
X1108D01*
X1464Y-57D02*
X1479D01*
X1429D02*
X1438D01*
X1418D02*
X1420D01*
X1399D02*
X1415D01*
X1376D02*
X1385D01*
X1343D02*
X1361D01*
X1328D02*
X1334D01*
X1272D02*
X1306D01*
X1203D02*
X1218D01*
X1162D02*
X1177D01*
X1120D02*
X1136D01*
X1093D02*
X1108D01*
X1464Y-58D02*
X1479D01*
X1429D02*
X1438D01*
X1418D02*
X1419D01*
X1399D02*
X1415D01*
X1376D02*
X1385D01*
X1343D02*
X1361D01*
X1328D02*
X1334D01*
X1272D02*
X1306D01*
X1203D02*
X1218D01*
X1162D02*
X1177D01*
X1120D02*
X1136D01*
X1093D02*
X1108D01*
X1428Y-59D02*
X1479D01*
X1418D02*
X1419D01*
X1400D02*
X1414D01*
X1376D02*
X1386D01*
X1343D02*
X1361D01*
X1328D02*
X1334D01*
X1272D02*
X1321D01*
X1246D02*
X1259D01*
X1218D02*
X1232D01*
X1203D02*
X1217D01*
X1150D02*
X1191D01*
X1120D02*
X1134D01*
X1093D02*
X1108D01*
X1428Y-60D02*
X1479D01*
X1417D02*
X1419D01*
X1400D02*
X1414D01*
X1376D02*
X1386D01*
X1343D02*
X1361D01*
X1328D02*
X1334D01*
X1272D02*
X1321D01*
X1246D02*
X1260D01*
X1218D02*
X1232D01*
X1203D02*
X1217D01*
X1150D02*
X1191D01*
X1120D02*
X1134D01*
X1093D02*
X1108D01*
X1428Y-61D02*
X1479D01*
X1417D02*
X1418D01*
X1400D02*
X1414D01*
X1376D02*
X1386D01*
X1343D02*
X1361D01*
X1328D02*
X1334D01*
X1272D02*
X1321D01*
X1246D02*
X1260D01*
X1218D02*
X1232D01*
X1203D02*
X1217D01*
X1150D02*
X1191D01*
X1120D02*
X1134D01*
X1093D02*
X1108D01*
X1427Y-62D02*
X1479D01*
X1417D02*
X1418D01*
X1401D02*
X1413D01*
X1376D02*
X1387D01*
X1344D02*
X1361D01*
X1328D02*
X1334D01*
X1272D02*
X1321D01*
X1246D02*
X1260D01*
X1218D02*
X1232D01*
X1203D02*
X1217D01*
X1150D02*
X1191D01*
X1120D02*
X1134D01*
X1093D02*
X1108D01*
X1427Y-63D02*
X1479D01*
X1416D02*
X1418D01*
X1401D02*
X1413D01*
X1376D02*
X1387D01*
X1344D02*
X1361D01*
X1328D02*
X1334D01*
X1272D02*
X1321D01*
X1244D02*
X1260D01*
X1217D02*
X1232D01*
X1148D02*
X1191D01*
X1093D02*
X1108D01*
X1426Y-64D02*
X1479D01*
X1416D02*
X1417D01*
X1401D02*
X1413D01*
X1376D02*
X1387D01*
X1344D02*
X1360D01*
X1328D02*
X1334D01*
X1272D02*
X1321D01*
X1244D02*
X1260D01*
X1217D02*
X1232D01*
X1148D02*
X1191D01*
X1093D02*
X1108D01*
X1426Y-65D02*
X1479D01*
X1415D02*
X1417D01*
X1402D02*
X1412D01*
X1376D02*
X1388D01*
X1345D02*
X1360D01*
X1328D02*
X1334D01*
X1272D02*
X1321D01*
X1244D02*
X1260D01*
X1217D02*
X1232D01*
X1148D02*
X1191D01*
X1093D02*
X1108D01*
X1426Y-66D02*
X1479D01*
X1415D02*
X1416D01*
X1402D02*
X1412D01*
X1376D02*
X1388D01*
X1346D02*
X1359D01*
X1328D02*
X1334D01*
X1272D02*
X1321D01*
X1244D02*
X1260D01*
X1217D02*
X1232D01*
X1148D02*
X1191D01*
X1093D02*
X1108D01*
X1425Y-67D02*
X1479D01*
X1415D02*
X1416D01*
X1403D02*
X1412D01*
X1376D02*
X1389D01*
X1347D02*
X1359D01*
X1328D02*
X1334D01*
X1272D02*
X1321D01*
X1244D02*
X1260D01*
X1217D02*
X1232D01*
X1148D02*
X1191D01*
X1093D02*
X1108D01*
X1425Y-68D02*
X1479D01*
X1414D02*
X1416D01*
X1403D02*
X1411D01*
X1376D02*
X1389D01*
X1349D02*
X1357D01*
X1328D02*
X1334D01*
X1272D02*
X1321D01*
X1244D02*
X1260D01*
X1217D02*
X1232D01*
X1148D02*
X1191D01*
X1093D02*
X1108D01*
X1424Y-69D02*
X1479D01*
X1414D02*
X1415D01*
X1403D02*
X1411D01*
X1376D02*
X1389D01*
X1328D02*
X1334D01*
X1272D02*
X1321D01*
X1244D02*
X1260D01*
X1217D02*
X1232D01*
X1148D02*
X1191D01*
X1093D02*
X1108D01*
X1424Y-70D02*
X1479D01*
X1414D02*
X1415D01*
X1404D02*
X1411D01*
X1375D02*
X1390D01*
X1328D02*
X1334D01*
X1272D02*
X1321D01*
X1244D02*
X1260D01*
X1217D02*
X1232D01*
X1148D02*
X1191D01*
X1093D02*
X1108D01*
X1424Y-71D02*
X1479D01*
X1413D02*
X1415D01*
X1404D02*
X1410D01*
X1375D02*
X1390D01*
X1328D02*
X1334D01*
X1272D02*
X1300D01*
X1244D02*
X1260D01*
X1217D02*
X1232D01*
X1148D02*
X1191D01*
X1093D02*
X1108D01*
X1423Y-72D02*
X1479D01*
X1413D02*
X1414D01*
X1405D02*
X1410D01*
X1375D02*
X1390D01*
X1328D02*
X1334D01*
X1272D02*
X1300D01*
X1244D02*
X1260D01*
X1217D02*
X1232D01*
X1148D02*
X1191D01*
X1093D02*
X1108D01*
X1423Y-73D02*
X1478D01*
X1412D02*
X1414D01*
X1405D02*
X1409D01*
X1374D02*
X1391D01*
X1328D02*
X1334D01*
X1272D02*
X1300D01*
X1232D02*
X1258D01*
X1205D02*
X1230D01*
X1108D02*
X1189D01*
X1093D02*
X1107D01*
X1422Y-74D02*
X1478D01*
X1412D02*
X1413D01*
X1405D02*
X1409D01*
X1373D02*
X1391D01*
X1337D02*
X1338D01*
X1329D02*
X1334D01*
X1272D02*
X1300D01*
X1232D02*
X1258D01*
X1205D02*
X1230D01*
X1108D02*
X1189D01*
X1093D02*
X1107D01*
X1422Y-75D02*
X1478D01*
X1412D02*
X1413D01*
X1406D02*
X1409D01*
X1373D02*
X1392D01*
X1337D02*
X1339D01*
X1329D02*
X1334D01*
X1272D02*
X1300D01*
X1232D02*
X1258D01*
X1205D02*
X1230D01*
X1108D02*
X1189D01*
X1093D02*
X1107D01*
X1462Y-76D02*
X1477D01*
X1422D02*
X1448D01*
X1411D02*
X1413D01*
X1406D02*
X1408D01*
X1371D02*
X1392D01*
X1337D02*
X1340D01*
X1330D02*
X1332D01*
X1272D02*
X1300D01*
X1247D02*
X1257D01*
X1232D02*
X1246D01*
X1226D02*
X1231D01*
X1220D02*
X1221D01*
X1203D02*
X1219D01*
X1173D02*
X1189D01*
X1151D02*
X1159D01*
X1108D02*
X1150D01*
X1093D02*
X1107D01*
X1421Y-77D02*
X1438D01*
X1411D02*
X1412D01*
X1407D02*
X1408D01*
X1370D02*
X1392D01*
X1337D02*
X1342D01*
X1272D02*
X1300D01*
X1230D02*
X1246D01*
X1203D02*
X1218D01*
X1107D02*
X1150D01*
X1421Y-78D02*
X1438D01*
X1411D02*
X1412D01*
X1407D02*
X1408D01*
X1368D02*
X1393D01*
X1337D02*
X1344D01*
X1272D02*
X1300D01*
X1230D02*
X1246D01*
X1203D02*
X1218D01*
X1107D02*
X1150D01*
X1420Y-79D02*
X1438D01*
X1410D02*
X1412D01*
X1365D02*
X1393D01*
X1272D02*
X1346D01*
X1230D02*
X1246D01*
X1203D02*
X1218D01*
X1107D02*
X1150D01*
X1420Y-80D02*
X1438D01*
X1410D02*
X1411D01*
X1361D02*
X1393D01*
X1272D02*
X1349D01*
X1230D02*
X1246D01*
X1203D02*
X1218D01*
X1107D02*
X1150D01*
X1420Y-81D02*
X1438D01*
X1410D02*
X1411D01*
X1272D02*
X1394D01*
X1230D02*
X1246D01*
X1203D02*
X1218D01*
X1107D02*
X1150D01*
X1419Y-82D02*
X1438D01*
X1409D02*
X1411D01*
X1272D02*
X1394D01*
X1230D02*
X1246D01*
X1203D02*
X1218D01*
X1107D02*
X1150D01*
X1419Y-83D02*
X1438D01*
X1409D02*
X1410D01*
X1272D02*
X1394D01*
X1230D02*
X1246D01*
X1203D02*
X1218D01*
X1107D02*
X1150D01*
X1418Y-84D02*
X1438D01*
X1408D02*
X1410D01*
X1272D02*
X1395D01*
X1230D02*
X1246D01*
X1203D02*
X1218D01*
X1107D02*
X1150D01*
X1418Y-85D02*
X1438D01*
X1408D02*
X1409D01*
X1322D02*
X1395D01*
X1300D02*
X1315D01*
X1295D02*
X1298D01*
X1272D02*
X1293D01*
X1230D02*
X1246D01*
X1203D02*
X1218D01*
X1107D02*
X1150D01*
X1418Y-86D02*
X1438D01*
X1408D02*
X1409D01*
X1352D02*
X1396D01*
X1301D02*
X1315D01*
X1295D02*
X1298D01*
X1272D02*
X1293D01*
X1230D02*
X1246D01*
X1203D02*
X1218D01*
X1107D02*
X1150D01*
X1417Y-87D02*
X1452D01*
X1407D02*
X1409D01*
X1354D02*
X1396D01*
X1322D02*
X1337D01*
X1301D02*
X1316D01*
X1295D02*
X1298D01*
X1272D02*
X1293D01*
X1246D02*
X1260D01*
X1230D02*
X1244D01*
X1095D02*
X1218D01*
X1417Y-88D02*
X1452D01*
X1407D02*
X1408D01*
X1355D02*
X1396D01*
X1318D02*
X1350D01*
X1301D02*
X1316D01*
X1295D02*
X1298D01*
X1272D02*
X1293D01*
X1246D02*
X1260D01*
X1230D02*
X1244D01*
X1095D02*
X1218D01*
X1416Y-89D02*
X1452D01*
X1407D02*
X1408D01*
X1356D02*
X1397D01*
X1318D02*
X1353D01*
X1301D02*
X1316D01*
X1295D02*
X1298D01*
X1272D02*
X1293D01*
X1246D02*
X1260D01*
X1230D02*
X1244D01*
X1095D02*
X1218D01*
X1416Y-90D02*
X1452D01*
X1406D02*
X1408D01*
X1357D02*
X1397D01*
X1318D02*
X1354D01*
X1303D02*
X1315D01*
X1272D02*
X1291D01*
X1244D02*
X1260D01*
X1120D02*
X1218D01*
X1093D02*
X1109D01*
X1416Y-91D02*
X1452D01*
X1406D02*
X1407D01*
X1358D02*
X1397D01*
X1318D02*
X1355D01*
X1303D02*
X1315D01*
X1272D02*
X1291D01*
X1244D02*
X1260D01*
X1120D02*
X1218D01*
X1093D02*
X1108D01*
X1415Y-92D02*
X1452D01*
X1405D02*
X1407D01*
X1359D02*
X1398D01*
X1317D02*
X1356D01*
X1303D02*
X1315D01*
X1272D02*
X1291D01*
X1244D02*
X1260D01*
X1120D02*
X1218D01*
X1093D02*
X1108D01*
X1415Y-93D02*
X1452D01*
X1405D02*
X1406D01*
X1360D02*
X1398D01*
X1317D02*
X1358D01*
X1303D02*
X1314D01*
X1272D02*
X1291D01*
X1244D02*
X1260D01*
X1120D02*
X1218D01*
X1093D02*
X1108D01*
X1414Y-94D02*
X1452D01*
X1405D02*
X1406D01*
X1361D02*
X1399D01*
X1316D02*
X1358D01*
X1302D02*
X1314D01*
X1272D02*
X1291D01*
X1244D02*
X1260D01*
X1120D02*
X1218D01*
X1093D02*
X1108D01*
X1414Y-95D02*
X1452D01*
X1404D02*
X1406D01*
X1362D02*
X1399D01*
X1316D02*
X1359D01*
X1302D02*
X1314D01*
X1272D02*
X1292D01*
X1244D02*
X1260D01*
X1120D02*
X1218D01*
X1093D02*
X1108D01*
X1414Y-96D02*
X1452D01*
X1404D02*
X1405D01*
X1364D02*
X1399D01*
X1316D02*
X1361D01*
X1302D02*
X1314D01*
X1272D02*
X1292D01*
X1244D02*
X1260D01*
X1120D02*
X1218D01*
X1093D02*
X1108D01*
X1413Y-97D02*
X1452D01*
X1404D02*
X1405D01*
X1365D02*
X1400D01*
X1316D02*
X1362D01*
X1301D02*
X1314D01*
X1272D02*
X1293D01*
X1244D02*
X1260D01*
X1120D02*
X1218D01*
X1093D02*
X1108D01*
X1413Y-98D02*
X1452D01*
X1403D02*
X1405D01*
X1367D02*
X1400D01*
X1316D02*
X1363D01*
X1298D02*
X1314D01*
X1272D02*
X1296D01*
X1244D02*
X1260D01*
X1120D02*
X1218D01*
X1093D02*
X1108D01*
X1412Y-99D02*
X1452D01*
X1403D02*
X1404D01*
X1371D02*
X1400D01*
X1316D02*
X1364D01*
X1298D02*
X1314D01*
X1272D02*
X1296D01*
X1244D02*
X1260D01*
X1120D02*
X1218D01*
X1093D02*
X1108D01*
X1480Y-100D02*
X1493D01*
X1451D02*
X1465D01*
X1412D02*
X1450D01*
X1402D02*
X1404D01*
X1374D02*
X1401D01*
X1317D02*
X1366D01*
X1298D02*
X1314D01*
X1218D02*
X1296D01*
X1120D02*
X1217D01*
X1093D02*
X1107D01*
X1479Y-101D02*
X1493D01*
X1452D02*
X1466D01*
X1412D02*
X1450D01*
X1402D02*
X1404D01*
X1376D02*
X1401D01*
X1317D02*
X1370D01*
X1298D02*
X1315D01*
X1218D02*
X1296D01*
X1120D02*
X1217D01*
X1093D02*
X1107D01*
X1479Y-102D02*
X1493D01*
X1452D02*
X1466D01*
X1411D02*
X1450D01*
X1377D02*
X1403D01*
X1317D02*
X1373D01*
X1298D02*
X1315D01*
X1218D02*
X1296D01*
X1120D02*
X1217D01*
X1093D02*
X1107D01*
X1479Y-103D02*
X1493D01*
X1452D02*
X1466D01*
X1411D02*
X1450D01*
X1378D02*
X1403D01*
X1318D02*
X1375D01*
X1299D02*
X1315D01*
X1218D02*
X1296D01*
X1120D02*
X1217D01*
X1093D02*
X1107D01*
X1477Y-104D02*
X1493D01*
X1450D02*
X1466D01*
X1410D02*
X1438D01*
X1379D02*
X1402D01*
X1318D02*
X1376D01*
X1299D02*
X1316D01*
X1217D02*
X1297D01*
X1189D02*
X1205D01*
X1134D02*
X1150D01*
X1477Y-105D02*
X1493D01*
X1450D02*
X1465D01*
X1410D02*
X1438D01*
X1380D02*
X1403D01*
X1365D02*
X1377D01*
X1332D02*
X1358D01*
X1318D02*
X1326D01*
X1299D02*
X1316D01*
X1217D02*
X1297D01*
X1189D02*
X1205D01*
X1134D02*
X1150D01*
X1477Y-106D02*
X1493D01*
X1450D02*
X1465D01*
X1409D02*
X1438D01*
X1381D02*
X1403D01*
X1366D02*
X1378D01*
X1360D02*
X1362D01*
X1334D02*
X1356D01*
X1328D02*
X1330D01*
X1318D02*
X1324D01*
X1300D02*
X1316D01*
X1217D02*
X1297D01*
X1189D02*
X1205D01*
X1134D02*
X1150D01*
X1477Y-107D02*
X1493D01*
X1450D02*
X1465D01*
X1409D02*
X1438D01*
X1381D02*
X1403D01*
X1367D02*
X1379D01*
X1358D02*
X1364D01*
X1334D02*
X1355D01*
X1326D02*
X1332D01*
X1318D02*
X1323D01*
X1301D02*
X1316D01*
X1217D02*
X1298D01*
X1189D02*
X1205D01*
X1134D02*
X1150D01*
X1477Y-108D02*
X1493D01*
X1450D02*
X1465D01*
X1408D02*
X1438D01*
X1382D02*
X1403D01*
X1367D02*
X1380D01*
X1357D02*
X1365D01*
X1335D02*
X1355D01*
X1325D02*
X1332D01*
X1318D02*
X1323D01*
X1302D02*
X1316D01*
X1217D02*
X1299D01*
X1189D02*
X1205D01*
X1134D02*
X1150D01*
X1477Y-109D02*
X1493D01*
X1450D02*
X1465D01*
X1408D02*
X1438D01*
X1382D02*
X1403D01*
X1367D02*
X1380D01*
X1356D02*
X1365D01*
X1335D02*
X1355D01*
X1324D02*
X1333D01*
X1318D02*
X1322D01*
X1303D02*
X1316D01*
X1217D02*
X1299D01*
X1189D02*
X1205D01*
X1134D02*
X1150D01*
X1477Y-110D02*
X1493D01*
X1450D02*
X1465D01*
X1407D02*
X1438D01*
X1382D02*
X1402D01*
X1368D02*
X1379D01*
X1356D02*
X1365D01*
X1335D02*
X1354D01*
X1324D02*
X1333D01*
X1318D02*
X1322D01*
X1304D02*
X1315D01*
X1217D02*
X1300D01*
X1189D02*
X1205D01*
X1134D02*
X1150D01*
X1477Y-111D02*
X1493D01*
X1450D02*
X1466D01*
X1406D02*
X1438D01*
X1382D02*
X1400D01*
X1368D02*
X1379D01*
X1356D02*
X1365D01*
X1336D02*
X1354D01*
X1324D02*
X1333D01*
X1317D02*
X1322D01*
X1308D02*
X1314D01*
X1217D02*
X1302D01*
X1189D02*
X1205D01*
X1134D02*
X1150D01*
X1477Y-112D02*
X1493D01*
X1450D02*
X1466D01*
X1404D02*
X1438D01*
X1368D02*
X1378D01*
X1356D02*
X1365D01*
X1336D02*
X1354D01*
X1324D02*
X1333D01*
X1316D02*
X1322D01*
X1217D02*
X1303D01*
X1189D02*
X1205D01*
X1134D02*
X1150D01*
X1478Y-113D02*
X1493D01*
X1450D02*
X1466D01*
X1401D02*
X1438D01*
X1367D02*
X1382D01*
X1356D02*
X1365D01*
X1335D02*
X1355D01*
X1324D02*
X1333D01*
X1314D02*
X1323D01*
X1217D02*
X1307D01*
X1189D02*
X1205D01*
X1134D02*
X1150D01*
X1450Y-114D02*
X1493D01*
X1367D02*
X1438D01*
X1356D02*
X1365D01*
X1335D02*
X1355D01*
X1324D02*
X1333D01*
X1163D02*
X1323D01*
X1134D02*
X1148D01*
X1108D02*
X1122D01*
X1450Y-115D02*
X1493D01*
X1325D02*
X1438D01*
X1163D02*
X1324D01*
X1134D02*
X1148D01*
X1108D02*
X1122D01*
X1450Y-116D02*
X1493D01*
X1163D02*
X1438D01*
X1134D02*
X1148D01*
X1108D02*
X1122D01*
X1450Y-117D02*
X1493D01*
X1163D02*
X1438D01*
X1134D02*
X1148D01*
X1108D02*
X1122D01*
X1450Y-118D02*
X1493D01*
X1313D02*
X1438D01*
X1258D02*
X1301D01*
X1162D02*
X1232D01*
X1107D02*
X1122D01*
X1450Y-119D02*
X1493D01*
X1313D02*
X1438D01*
X1258D02*
X1301D01*
X1162D02*
X1232D01*
X1107D02*
X1122D01*
X1450Y-120D02*
X1493D01*
X1313D02*
X1438D01*
X1258D02*
X1301D01*
X1162D02*
X1232D01*
X1107D02*
X1122D01*
X1450Y-121D02*
X1493D01*
X1313D02*
X1438D01*
X1258D02*
X1301D01*
X1162D02*
X1232D01*
X1107D02*
X1122D01*
X1450Y-122D02*
X1493D01*
X1313D02*
X1438D01*
X1258D02*
X1301D01*
X1162D02*
X1232D01*
X1107D02*
X1122D01*
X1450Y-123D02*
X1493D01*
X1313D02*
X1438D01*
X1258D02*
X1301D01*
X1162D02*
X1232D01*
X1107D02*
X1122D01*
X1450Y-124D02*
X1493D01*
X1313D02*
X1438D01*
X1258D02*
X1301D01*
X1162D02*
X1232D01*
X1107D02*
X1122D01*
X1450Y-125D02*
X1493D01*
X1313D02*
X1438D01*
X1258D02*
X1301D01*
X1162D02*
X1232D01*
X1107D02*
X1122D01*
X1450Y-126D02*
X1493D01*
X1313D02*
X1438D01*
X1258D02*
X1301D01*
X1162D02*
X1232D01*
X1107D02*
X1122D01*
X1450Y-127D02*
X1493D01*
X1313D02*
X1438D01*
X1258D02*
X1301D01*
X1162D02*
X1232D01*
X1107D02*
X1122D01*
X1313Y-128D02*
X1491D01*
X1246D02*
X1301D01*
X1162D02*
X1230D01*
X1107D02*
X1120D01*
X1313Y-129D02*
X1491D01*
X1246D02*
X1301D01*
X1162D02*
X1230D01*
X1107D02*
X1120D01*
X1313Y-130D02*
X1491D01*
X1246D02*
X1301D01*
X1162D02*
X1230D01*
X1107D02*
X1120D01*
X1422Y-131D02*
X1452D01*
X1354D02*
X1383D01*
X1285D02*
X1301D01*
X1244D02*
X1273D01*
X1423Y-132D02*
X1452D01*
X1354D02*
X1383D01*
X1285D02*
X1301D01*
X1244D02*
X1273D01*
X1423Y-133D02*
X1452D01*
X1354D02*
X1383D01*
X1285D02*
X1301D01*
X1244D02*
X1273D01*
X1423Y-134D02*
X1452D01*
X1354D02*
X1383D01*
X1285D02*
X1301D01*
X1244D02*
X1273D01*
X1423Y-135D02*
X1452D01*
X1354D02*
X1383D01*
X1285D02*
X1301D01*
X1244D02*
X1273D01*
X1423Y-136D02*
X1452D01*
X1354D02*
X1383D01*
X1285D02*
X1301D01*
X1244D02*
X1273D01*
X1423Y-137D02*
X1452D01*
X1354D02*
X1383D01*
X1285D02*
X1301D01*
X1244D02*
X1273D01*
X1423Y-138D02*
X1452D01*
X1354D02*
X1383D01*
X1285D02*
X1301D01*
X1244D02*
X1273D01*
X1423Y-139D02*
X1452D01*
X1354D02*
X1383D01*
X1285D02*
X1301D01*
X1244D02*
X1273D01*
X1423Y-140D02*
X1452D01*
X1354D02*
X1383D01*
X1285D02*
X1301D01*
X1244D02*
X1273D01*
X1423Y-141D02*
X1452D01*
X1354D02*
X1383D01*
X1285D02*
X1301D01*
X1244D02*
X1273D01*
X1465Y-142D02*
X1493D01*
X1423D02*
X1450D01*
X1397D02*
X1411D01*
X1354D02*
X1383D01*
X1244D02*
X1342D01*
X1205D02*
X1232D01*
X1095D02*
X1191D01*
X1465Y-143D02*
X1493D01*
X1423D02*
X1450D01*
X1397D02*
X1411D01*
X1354D02*
X1383D01*
X1244D02*
X1342D01*
X1205D02*
X1232D01*
X1095D02*
X1191D01*
X1465Y-144D02*
X1493D01*
X1423D02*
X1450D01*
X1397D02*
X1411D01*
X1354D02*
X1383D01*
X1244D02*
X1342D01*
X1205D02*
X1232D01*
X1095D02*
X1191D01*
X1464Y-145D02*
X1493D01*
X1423D02*
X1438D01*
X1395D02*
X1411D01*
X1354D02*
X1383D01*
X1244D02*
X1342D01*
X1203D02*
X1232D01*
X1093D02*
X1191D01*
X1464Y-146D02*
X1493D01*
X1423D02*
X1438D01*
X1395D02*
X1411D01*
X1354D02*
X1383D01*
X1244D02*
X1342D01*
X1203D02*
X1232D01*
X1093D02*
X1191D01*
X1464Y-147D02*
X1493D01*
X1423D02*
X1438D01*
X1395D02*
X1411D01*
X1354D02*
X1383D01*
X1244D02*
X1342D01*
X1203D02*
X1232D01*
X1093D02*
X1191D01*
X1464Y-148D02*
X1493D01*
X1423D02*
X1438D01*
X1395D02*
X1411D01*
X1354D02*
X1383D01*
X1244D02*
X1342D01*
X1203D02*
X1232D01*
X1093D02*
X1191D01*
X1464Y-149D02*
X1493D01*
X1423D02*
X1438D01*
X1395D02*
X1411D01*
X1354D02*
X1383D01*
X1244D02*
X1342D01*
X1203D02*
X1232D01*
X1093D02*
X1191D01*
X1464Y-150D02*
X1493D01*
X1423D02*
X1438D01*
X1395D02*
X1411D01*
X1354D02*
X1383D01*
X1244D02*
X1342D01*
X1203D02*
X1232D01*
X1093D02*
X1191D01*
X1464Y-151D02*
X1493D01*
X1423D02*
X1438D01*
X1395D02*
X1411D01*
X1354D02*
X1383D01*
X1244D02*
X1342D01*
X1203D02*
X1232D01*
X1093D02*
X1191D01*
X1464Y-152D02*
X1493D01*
X1423D02*
X1438D01*
X1395D02*
X1411D01*
X1354D02*
X1383D01*
X1244D02*
X1342D01*
X1203D02*
X1232D01*
X1093D02*
X1191D01*
X1464Y-153D02*
X1493D01*
X1423D02*
X1438D01*
X1395D02*
X1411D01*
X1354D02*
X1383D01*
X1244D02*
X1342D01*
X1203D02*
X1232D01*
X1093D02*
X1191D01*
X1464Y-154D02*
X1493D01*
X1423D02*
X1438D01*
X1395D02*
X1411D01*
X1354D02*
X1383D01*
X1244D02*
X1342D01*
X1203D02*
X1232D01*
X1093D02*
X1191D01*
X1423Y-155D02*
X1493D01*
X1395D02*
X1409D01*
X1354D02*
X1383D01*
X1244D02*
X1342D01*
X1203D02*
X1232D01*
X1093D02*
X1191D01*
X1423Y-156D02*
X1493D01*
X1395D02*
X1409D01*
X1354D02*
X1383D01*
X1244D02*
X1342D01*
X1203D02*
X1232D01*
X1093D02*
X1191D01*
X1423Y-157D02*
X1493D01*
X1395D02*
X1409D01*
X1354D02*
X1383D01*
X1244D02*
X1342D01*
X1203D02*
X1232D01*
X1093D02*
X1191D01*
X1423Y-158D02*
X1493D01*
X1395D02*
X1409D01*
X1354D02*
X1383D01*
X1244D02*
X1342D01*
X1203D02*
X1232D01*
X1093D02*
X1191D01*
X1478Y-159D02*
X1493D01*
X1423D02*
X1465D01*
X1354D02*
X1383D01*
X1313D02*
X1342D01*
X1285D02*
X1301D01*
X1244D02*
X1273D01*
X1203D02*
X1232D01*
X1175D02*
X1191D01*
X1093D02*
X1108D01*
X1477Y-160D02*
X1493D01*
X1423D02*
X1465D01*
X1354D02*
X1383D01*
X1313D02*
X1342D01*
X1285D02*
X1301D01*
X1244D02*
X1273D01*
X1203D02*
X1232D01*
X1175D02*
X1191D01*
X1093D02*
X1108D01*
X1477Y-161D02*
X1493D01*
X1423D02*
X1465D01*
X1354D02*
X1383D01*
X1313D02*
X1342D01*
X1285D02*
X1301D01*
X1244D02*
X1273D01*
X1203D02*
X1232D01*
X1175D02*
X1191D01*
X1093D02*
X1108D01*
X1477Y-162D02*
X1493D01*
X1423D02*
X1465D01*
X1354D02*
X1383D01*
X1313D02*
X1342D01*
X1285D02*
X1301D01*
X1244D02*
X1273D01*
X1203D02*
X1232D01*
X1175D02*
X1191D01*
X1093D02*
X1108D01*
X1477Y-163D02*
X1493D01*
X1423D02*
X1465D01*
X1354D02*
X1383D01*
X1313D02*
X1342D01*
X1285D02*
X1301D01*
X1244D02*
X1273D01*
X1203D02*
X1232D01*
X1175D02*
X1191D01*
X1093D02*
X1108D01*
X1477Y-164D02*
X1493D01*
X1423D02*
X1465D01*
X1354D02*
X1383D01*
X1313D02*
X1342D01*
X1285D02*
X1301D01*
X1244D02*
X1273D01*
X1203D02*
X1232D01*
X1175D02*
X1191D01*
X1093D02*
X1108D01*
X1477Y-165D02*
X1493D01*
X1423D02*
X1465D01*
X1354D02*
X1383D01*
X1313D02*
X1342D01*
X1285D02*
X1301D01*
X1244D02*
X1273D01*
X1203D02*
X1232D01*
X1175D02*
X1191D01*
X1093D02*
X1108D01*
X1477Y-166D02*
X1493D01*
X1423D02*
X1465D01*
X1354D02*
X1383D01*
X1313D02*
X1342D01*
X1285D02*
X1301D01*
X1244D02*
X1273D01*
X1203D02*
X1232D01*
X1175D02*
X1191D01*
X1093D02*
X1108D01*
X1477Y-167D02*
X1493D01*
X1423D02*
X1465D01*
X1354D02*
X1383D01*
X1313D02*
X1342D01*
X1285D02*
X1301D01*
X1244D02*
X1273D01*
X1203D02*
X1232D01*
X1175D02*
X1191D01*
X1093D02*
X1108D01*
X1477Y-168D02*
X1493D01*
X1423D02*
X1465D01*
X1354D02*
X1383D01*
X1313D02*
X1342D01*
X1285D02*
X1301D01*
X1244D02*
X1273D01*
X1203D02*
X1232D01*
X1175D02*
X1191D01*
X1093D02*
X1108D01*
X1477Y-169D02*
X1493D01*
X1342D02*
X1465D01*
X1301D02*
X1340D01*
X1285D02*
X1299D01*
X1244D02*
X1272D01*
X1203D02*
X1230D01*
X1175D02*
X1191D01*
X1120D02*
X1163D01*
X1093D02*
X1108D01*
X1477Y-170D02*
X1493D01*
X1342D02*
X1465D01*
X1301D02*
X1340D01*
X1285D02*
X1299D01*
X1244D02*
X1272D01*
X1203D02*
X1230D01*
X1175D02*
X1191D01*
X1120D02*
X1163D01*
X1093D02*
X1108D01*
X1477Y-171D02*
X1493D01*
X1342D02*
X1465D01*
X1301D02*
X1340D01*
X1285D02*
X1299D01*
X1244D02*
X1272D01*
X1203D02*
X1230D01*
X1175D02*
X1191D01*
X1120D02*
X1163D01*
X1093D02*
X1108D01*
X1477Y-172D02*
X1493D01*
X1340D02*
X1465D01*
X1299D02*
X1315D01*
X1244D02*
X1260D01*
X1175D02*
X1191D01*
X1119D02*
X1163D01*
X1093D02*
X1108D01*
X1477Y-173D02*
X1493D01*
X1340D02*
X1465D01*
X1299D02*
X1314D01*
X1244D02*
X1260D01*
X1175D02*
X1191D01*
X1119D02*
X1163D01*
X1093D02*
X1108D01*
X1477Y-174D02*
X1493D01*
X1340D02*
X1465D01*
X1299D02*
X1314D01*
X1244D02*
X1260D01*
X1175D02*
X1191D01*
X1119D02*
X1163D01*
X1093D02*
X1108D01*
X1477Y-175D02*
X1493D01*
X1340D02*
X1465D01*
X1299D02*
X1314D01*
X1244D02*
X1260D01*
X1175D02*
X1191D01*
X1119D02*
X1163D01*
X1093D02*
X1108D01*
X1477Y-176D02*
X1493D01*
X1340D02*
X1465D01*
X1299D02*
X1314D01*
X1244D02*
X1260D01*
X1175D02*
X1191D01*
X1119D02*
X1163D01*
X1093D02*
X1108D01*
X1477Y-177D02*
X1493D01*
X1340D02*
X1465D01*
X1299D02*
X1314D01*
X1244D02*
X1260D01*
X1175D02*
X1191D01*
X1119D02*
X1163D01*
X1093D02*
X1108D01*
X1477Y-178D02*
X1493D01*
X1340D02*
X1465D01*
X1299D02*
X1314D01*
X1244D02*
X1260D01*
X1175D02*
X1191D01*
X1119D02*
X1163D01*
X1093D02*
X1108D01*
X1477Y-179D02*
X1493D01*
X1340D02*
X1465D01*
X1299D02*
X1314D01*
X1244D02*
X1260D01*
X1175D02*
X1191D01*
X1119D02*
X1163D01*
X1093D02*
X1108D01*
X1477Y-180D02*
X1493D01*
X1340D02*
X1465D01*
X1299D02*
X1314D01*
X1244D02*
X1260D01*
X1175D02*
X1191D01*
X1119D02*
X1163D01*
X1093D02*
X1108D01*
X1477Y-181D02*
X1493D01*
X1340D02*
X1465D01*
X1299D02*
X1314D01*
X1244D02*
X1260D01*
X1175D02*
X1191D01*
X1119D02*
X1163D01*
X1093D02*
X1108D01*
X1477Y-182D02*
X1493D01*
X1340D02*
X1466D01*
X1299D02*
X1314D01*
X1244D02*
X1260D01*
X1175D02*
X1191D01*
X1119D02*
X1163D01*
X1093D02*
X1108D01*
X1465Y-183D02*
X1493D01*
X1340D02*
X1464D01*
X1244D02*
X1314D01*
X1205D02*
X1232D01*
X1175D02*
X1191D01*
X1119D02*
X1163D01*
X1093D02*
X1108D01*
X1465Y-184D02*
X1493D01*
X1340D02*
X1464D01*
X1244D02*
X1314D01*
X1205D02*
X1232D01*
X1175D02*
X1191D01*
X1119D02*
X1163D01*
X1093D02*
X1108D01*
X1466Y-185D02*
X1493D01*
X1340D02*
X1464D01*
X1244D02*
X1314D01*
X1205D02*
X1232D01*
X1175D02*
X1191D01*
X1119D02*
X1163D01*
X1093D02*
X1108D01*
X1464Y-186D02*
X1493D01*
X1436D02*
X1452D01*
X1354D02*
X1424D01*
X1244D02*
X1314D01*
X1203D02*
X1232D01*
X1175D02*
X1191D01*
X1119D02*
X1163D01*
X1093D02*
X1108D01*
X1464Y-187D02*
X1493D01*
X1436D02*
X1452D01*
X1354D02*
X1424D01*
X1244D02*
X1314D01*
X1203D02*
X1232D01*
X1175D02*
X1191D01*
X1119D02*
X1163D01*
X1093D02*
X1108D01*
X1464Y-188D02*
X1493D01*
X1436D02*
X1452D01*
X1354D02*
X1424D01*
X1244D02*
X1314D01*
X1203D02*
X1232D01*
X1175D02*
X1191D01*
X1119D02*
X1163D01*
X1093D02*
X1108D01*
X1464Y-189D02*
X1493D01*
X1436D02*
X1452D01*
X1354D02*
X1424D01*
X1244D02*
X1314D01*
X1203D02*
X1232D01*
X1175D02*
X1191D01*
X1119D02*
X1163D01*
X1093D02*
X1108D01*
X1464Y-190D02*
X1493D01*
X1436D02*
X1452D01*
X1354D02*
X1424D01*
X1244D02*
X1314D01*
X1203D02*
X1232D01*
X1175D02*
X1191D01*
X1119D02*
X1163D01*
X1093D02*
X1108D01*
X1464Y-191D02*
X1493D01*
X1436D02*
X1452D01*
X1354D02*
X1424D01*
X1244D02*
X1314D01*
X1203D02*
X1232D01*
X1175D02*
X1191D01*
X1119D02*
X1163D01*
X1093D02*
X1108D01*
X1464Y-192D02*
X1493D01*
X1436D02*
X1452D01*
X1354D02*
X1424D01*
X1244D02*
X1314D01*
X1203D02*
X1232D01*
X1175D02*
X1191D01*
X1119D02*
X1163D01*
X1093D02*
X1108D01*
X1464Y-193D02*
X1493D01*
X1436D02*
X1452D01*
X1354D02*
X1424D01*
X1244D02*
X1314D01*
X1203D02*
X1232D01*
X1175D02*
X1191D01*
X1119D02*
X1163D01*
X1093D02*
X1108D01*
X1464Y-194D02*
X1493D01*
X1436D02*
X1452D01*
X1354D02*
X1424D01*
X1244D02*
X1314D01*
X1203D02*
X1232D01*
X1175D02*
X1191D01*
X1119D02*
X1163D01*
X1093D02*
X1108D01*
X1464Y-195D02*
X1493D01*
X1436D02*
X1452D01*
X1354D02*
X1424D01*
X1244D02*
X1315D01*
X1203D02*
X1232D01*
X1175D02*
X1191D01*
X1119D02*
X1163D01*
X1093D02*
X1108D01*
X1464Y-196D02*
X1492D01*
X1436D02*
X1452D01*
X1354D02*
X1423D01*
X1328D02*
X1342D01*
X1232D02*
X1313D01*
X1203D02*
X1231D01*
X1175D02*
X1191D01*
X1119D02*
X1163D01*
X1093D02*
X1108D01*
X1464Y-197D02*
X1491D01*
X1436D02*
X1452D01*
X1354D02*
X1423D01*
X1328D02*
X1342D01*
X1232D02*
X1313D01*
X1203D02*
X1230D01*
X1175D02*
X1191D01*
X1119D02*
X1163D01*
X1093D02*
X1108D01*
X1464Y-198D02*
X1491D01*
X1436D02*
X1452D01*
X1354D02*
X1423D01*
X1328D02*
X1342D01*
X1232D02*
X1313D01*
X1203D02*
X1230D01*
X1175D02*
X1191D01*
X1119D02*
X1163D01*
X1093D02*
X1108D01*
X1464Y-199D02*
X1491D01*
X1436D02*
X1452D01*
X1354D02*
X1423D01*
X1328D02*
X1342D01*
X1232D02*
X1313D01*
X1203D02*
X1230D01*
X1175D02*
X1191D01*
X1119D02*
X1163D01*
X1093D02*
X1108D01*
X1436Y-200D02*
X1452D01*
X1395D02*
X1411D01*
X1326D02*
X1342D01*
X1285D02*
X1301D01*
X1230D02*
X1246D01*
X1175D02*
X1191D01*
X1119D02*
X1163D01*
X1093D02*
X1108D01*
X1436Y-201D02*
X1452D01*
X1395D02*
X1411D01*
X1326D02*
X1342D01*
X1285D02*
X1301D01*
X1230D02*
X1246D01*
X1175D02*
X1191D01*
X1119D02*
X1163D01*
X1093D02*
X1108D01*
X1436Y-202D02*
X1452D01*
X1395D02*
X1411D01*
X1326D02*
X1342D01*
X1285D02*
X1301D01*
X1230D02*
X1246D01*
X1175D02*
X1191D01*
X1119D02*
X1163D01*
X1093D02*
X1108D01*
X1436Y-203D02*
X1452D01*
X1395D02*
X1411D01*
X1326D02*
X1342D01*
X1285D02*
X1301D01*
X1230D02*
X1246D01*
X1175D02*
X1191D01*
X1119D02*
X1163D01*
X1093D02*
X1108D01*
X1436Y-204D02*
X1452D01*
X1395D02*
X1411D01*
X1326D02*
X1342D01*
X1285D02*
X1301D01*
X1230D02*
X1246D01*
X1175D02*
X1191D01*
X1119D02*
X1163D01*
X1093D02*
X1108D01*
X1436Y-205D02*
X1452D01*
X1395D02*
X1411D01*
X1326D02*
X1342D01*
X1285D02*
X1301D01*
X1230D02*
X1246D01*
X1175D02*
X1191D01*
X1119D02*
X1163D01*
X1093D02*
X1108D01*
X1436Y-206D02*
X1452D01*
X1395D02*
X1411D01*
X1326D02*
X1342D01*
X1285D02*
X1301D01*
X1230D02*
X1246D01*
X1175D02*
X1191D01*
X1119D02*
X1163D01*
X1093D02*
X1108D01*
X1436Y-207D02*
X1452D01*
X1395D02*
X1411D01*
X1326D02*
X1342D01*
X1285D02*
X1301D01*
X1230D02*
X1246D01*
X1175D02*
X1191D01*
X1119D02*
X1163D01*
X1093D02*
X1108D01*
X1436Y-208D02*
X1452D01*
X1395D02*
X1411D01*
X1326D02*
X1342D01*
X1285D02*
X1301D01*
X1230D02*
X1246D01*
X1175D02*
X1191D01*
X1119D02*
X1163D01*
X1093D02*
X1108D01*
X1436Y-209D02*
X1452D01*
X1395D02*
X1411D01*
X1326D02*
X1342D01*
X1285D02*
X1301D01*
X1230D02*
X1246D01*
X1175D02*
X1191D01*
X1119D02*
X1163D01*
X1093D02*
X1108D01*
X1436Y-210D02*
X1465D01*
X1395D02*
X1424D01*
X1326D02*
X1340D01*
X1285D02*
X1299D01*
X1260D02*
X1273D01*
X1218D02*
X1244D01*
X1175D02*
X1191D01*
X1119D02*
X1162D01*
X1093D02*
X1108D01*
X1436Y-211D02*
X1465D01*
X1395D02*
X1424D01*
X1326D02*
X1340D01*
X1285D02*
X1299D01*
X1260D02*
X1273D01*
X1218D02*
X1244D01*
X1175D02*
X1191D01*
X1119D02*
X1162D01*
X1093D02*
X1108D01*
X1436Y-212D02*
X1465D01*
X1395D02*
X1424D01*
X1326D02*
X1340D01*
X1285D02*
X1299D01*
X1260D02*
X1273D01*
X1218D02*
X1244D01*
X1175D02*
X1191D01*
X1119D02*
X1162D01*
X1093D02*
X1108D01*
X1436Y-213D02*
X1465D01*
X1395D02*
X1424D01*
X1327D02*
X1340D01*
X1285D02*
X1299D01*
X1259D02*
X1273D01*
X1218D02*
X1244D01*
X1175D02*
X1191D01*
X1119D02*
X1162D01*
X1093D02*
X1108D01*
X1436Y-214D02*
X1465D01*
X1395D02*
X1424D01*
X1258D02*
X1273D01*
X1217D02*
X1232D01*
X1175D02*
X1191D01*
X1120D02*
X1162D01*
X1093D02*
X1108D01*
X1436Y-215D02*
X1465D01*
X1395D02*
X1424D01*
X1258D02*
X1273D01*
X1217D02*
X1232D01*
X1175D02*
X1191D01*
X1093D02*
X1108D01*
X1436Y-216D02*
X1465D01*
X1395D02*
X1424D01*
X1258D02*
X1273D01*
X1217D02*
X1232D01*
X1175D02*
X1191D01*
X1093D02*
X1108D01*
X1436Y-217D02*
X1465D01*
X1395D02*
X1424D01*
X1258D02*
X1273D01*
X1217D02*
X1232D01*
X1175D02*
X1191D01*
X1093D02*
X1108D01*
X1436Y-218D02*
X1465D01*
X1395D02*
X1424D01*
X1258D02*
X1273D01*
X1217D02*
X1232D01*
X1175D02*
X1191D01*
X1093D02*
X1108D01*
X1436Y-219D02*
X1465D01*
X1395D02*
X1424D01*
X1258D02*
X1273D01*
X1217D02*
X1232D01*
X1175D02*
X1191D01*
X1093D02*
X1108D01*
X1436Y-220D02*
X1465D01*
X1395D02*
X1424D01*
X1258D02*
X1273D01*
X1217D02*
X1232D01*
X1175D02*
X1191D01*
X1093D02*
X1108D01*
X1436Y-221D02*
X1465D01*
X1395D02*
X1424D01*
X1258D02*
X1273D01*
X1217D02*
X1232D01*
X1175D02*
X1191D01*
X1093D02*
X1108D01*
X1436Y-222D02*
X1465D01*
X1395D02*
X1424D01*
X1258D02*
X1273D01*
X1217D02*
X1232D01*
X1175D02*
X1191D01*
X1093D02*
X1108D01*
X1436Y-223D02*
X1465D01*
X1395D02*
X1424D01*
X1258D02*
X1273D01*
X1217D02*
X1232D01*
X1175D02*
X1191D01*
X1093D02*
X1108D01*
X1479Y-224D02*
X1493D01*
X1424D02*
X1465D01*
X1383D02*
X1423D01*
X1328D02*
X1356D01*
X1273D02*
X1315D01*
X1258D02*
X1272D01*
X1217D02*
X1246D01*
X1093D02*
X1191D01*
X1479Y-225D02*
X1493D01*
X1424D02*
X1465D01*
X1383D02*
X1423D01*
X1328D02*
X1356D01*
X1273D02*
X1314D01*
X1258D02*
X1272D01*
X1217D02*
X1246D01*
X1093D02*
X1191D01*
X1479Y-226D02*
X1493D01*
X1424D02*
X1465D01*
X1383D02*
X1423D01*
X1328D02*
X1356D01*
X1273D02*
X1314D01*
X1258D02*
X1272D01*
X1217D02*
X1246D01*
X1093D02*
X1191D01*
X1478Y-227D02*
X1493D01*
X1450D02*
X1465D01*
X1422D02*
X1438D01*
X1381D02*
X1411D01*
X1327D02*
X1356D01*
X1271D02*
X1314D01*
X1217D02*
X1246D01*
X1093D02*
X1191D01*
X1477Y-228D02*
X1493D01*
X1450D02*
X1465D01*
X1423D02*
X1438D01*
X1381D02*
X1411D01*
X1326D02*
X1356D01*
X1272D02*
X1314D01*
X1217D02*
X1246D01*
X1093D02*
X1191D01*
X1477Y-229D02*
X1493D01*
X1450D02*
X1465D01*
X1423D02*
X1438D01*
X1381D02*
X1411D01*
X1326D02*
X1356D01*
X1272D02*
X1314D01*
X1217D02*
X1246D01*
X1093D02*
X1191D01*
X1477Y-230D02*
X1493D01*
X1450D02*
X1465D01*
X1423D02*
X1438D01*
X1381D02*
X1411D01*
X1326D02*
X1356D01*
X1272D02*
X1314D01*
X1217D02*
X1246D01*
X1093D02*
X1191D01*
X1477Y-231D02*
X1493D01*
X1450D02*
X1465D01*
X1423D02*
X1438D01*
X1381D02*
X1411D01*
X1326D02*
X1356D01*
X1272D02*
X1314D01*
X1217D02*
X1246D01*
X1093D02*
X1191D01*
X1477Y-232D02*
X1493D01*
X1450D02*
X1465D01*
X1423D02*
X1438D01*
X1381D02*
X1411D01*
X1326D02*
X1356D01*
X1272D02*
X1314D01*
X1217D02*
X1246D01*
X1093D02*
X1191D01*
X1477Y-233D02*
X1493D01*
X1450D02*
X1465D01*
X1423D02*
X1438D01*
X1381D02*
X1411D01*
X1326D02*
X1356D01*
X1272D02*
X1314D01*
X1217D02*
X1246D01*
X1093D02*
X1191D01*
X1477Y-234D02*
X1493D01*
X1450D02*
X1465D01*
X1423D02*
X1438D01*
X1381D02*
X1411D01*
X1326D02*
X1356D01*
X1272D02*
X1314D01*
X1217D02*
X1246D01*
X1093D02*
X1191D01*
X1477Y-235D02*
X1493D01*
X1450D02*
X1465D01*
X1423D02*
X1438D01*
X1381D02*
X1411D01*
X1326D02*
X1356D01*
X1272D02*
X1314D01*
X1217D02*
X1246D01*
X1093D02*
X1191D01*
X1477Y-236D02*
X1493D01*
X1450D02*
X1466D01*
X1423D02*
X1438D01*
X1381D02*
X1411D01*
X1326D02*
X1356D01*
X1272D02*
X1314D01*
X1217D02*
X1246D01*
X1093D02*
X1191D01*
X1477Y-237D02*
X1493D01*
X1450D02*
X1465D01*
X1423D02*
X1438D01*
X1381D02*
X1410D01*
X1326D02*
X1355D01*
X1272D02*
X1314D01*
X1217D02*
X1246D01*
X1093D02*
X1191D01*
X1477Y-238D02*
X1491D01*
X1450D02*
X1464D01*
X1423D02*
X1436D01*
X1381D02*
X1409D01*
X1326D02*
X1354D01*
X1272D02*
X1313D01*
X1217D02*
X1244D01*
X1093D02*
X1189D01*
X1477Y-239D02*
X1491D01*
X1450D02*
X1464D01*
X1423D02*
X1436D01*
X1381D02*
X1409D01*
X1326D02*
X1354D01*
X1272D02*
X1313D01*
X1217D02*
X1244D01*
X1093D02*
X1189D01*
X1477Y-240D02*
X1491D01*
X1450D02*
X1464D01*
X1423D02*
X1436D01*
X1381D02*
X1409D01*
X1326D02*
X1354D01*
X1272D02*
X1313D01*
X1217D02*
X1244D01*
X1093D02*
X1189D01*
X858Y161D02*
X936D01*
X693D02*
X809D01*
X1038Y160D02*
X1065D01*
X1025D02*
X1034D01*
X858D02*
X936D01*
X693D02*
X809D01*
X1038Y159D02*
X1065D01*
X1025D02*
X1034D01*
X858D02*
X936D01*
X779D02*
X809D01*
X693D02*
X775D01*
X1037Y158D02*
X1065D01*
X1024D02*
X1034D01*
X858D02*
X937D01*
X782D02*
X809D01*
X693D02*
X772D01*
X1037Y157D02*
X1064D01*
X1024D02*
X1033D01*
X858D02*
X937D01*
X783D02*
X809D01*
X693D02*
X771D01*
X1037Y156D02*
X1064D01*
X1024D02*
X1033D01*
X858D02*
X938D01*
X784D02*
X809D01*
X693D02*
X771D01*
X1036Y155D02*
X1064D01*
X1023D02*
X1033D01*
X858D02*
X938D01*
X784D02*
X809D01*
X693D02*
X770D01*
X1036Y154D02*
X1063D01*
X1023D02*
X1032D01*
X858D02*
X938D01*
X784D02*
X809D01*
X693D02*
X770D01*
X1035Y153D02*
X1063D01*
X1023D02*
X1032D01*
X858D02*
X939D01*
X785D02*
X809D01*
X693D02*
X770D01*
X1035Y152D02*
X1062D01*
X1022D02*
X1031D01*
X902D02*
X939D01*
X858D02*
X899D01*
X785D02*
X809D01*
X693D02*
X769D01*
X1035Y151D02*
X1062D01*
X1022D02*
X1031D01*
X903D02*
X940D01*
X858D02*
X898D01*
X785D02*
X809D01*
X693D02*
X769D01*
X1034Y150D02*
X1062D01*
X1021D02*
X1031D01*
X904D02*
X940D01*
X858D02*
X897D01*
X785D02*
X809D01*
X693D02*
X769D01*
X1034Y149D02*
X1061D01*
X1021D02*
X1030D01*
X904D02*
X940D01*
X858D02*
X897D01*
X785D02*
X809D01*
X693D02*
X769D01*
X1034Y148D02*
X1061D01*
X1021D02*
X1030D01*
X904D02*
X941D01*
X858D02*
X897D01*
X785D02*
X809D01*
X693D02*
X769D01*
X1033Y147D02*
X1060D01*
X1020D02*
X1030D01*
X905D02*
X941D01*
X858D02*
X897D01*
X785D02*
X809D01*
X693D02*
X769D01*
X1033Y146D02*
X1060D01*
X1020D02*
X1029D01*
X905D02*
X941D01*
X858D02*
X897D01*
X785D02*
X809D01*
X693D02*
X769D01*
X1032Y145D02*
X1060D01*
X1020D02*
X1029D01*
X906D02*
X942D01*
X858D02*
X897D01*
X785D02*
X809D01*
X693D02*
X769D01*
X1032Y144D02*
X1059D01*
X1019D02*
X1029D01*
X906D02*
X942D01*
X858D02*
X897D01*
X785D02*
X809D01*
X693D02*
X769D01*
X1032Y143D02*
X1059D01*
X1019D02*
X1028D01*
X906D02*
X943D01*
X858D02*
X897D01*
X785D02*
X809D01*
X693D02*
X769D01*
X1031Y142D02*
X1058D01*
X1019D02*
X1028D01*
X907D02*
X943D01*
X858D02*
X897D01*
X785D02*
X809D01*
X693D02*
X769D01*
X1031Y141D02*
X1058D01*
X1018D02*
X1027D01*
X907D02*
X943D01*
X858D02*
X897D01*
X785D02*
X809D01*
X693D02*
X769D01*
X1031Y140D02*
X1057D01*
X1018D02*
X1027D01*
X907D02*
X944D01*
X858D02*
X897D01*
X785D02*
X809D01*
X693D02*
X769D01*
X1030Y139D02*
X1057D01*
X1018D02*
X1027D01*
X908D02*
X944D01*
X858D02*
X897D01*
X785D02*
X809D01*
X748D02*
X769D01*
X1030Y138D02*
X1057D01*
X1017D02*
X1026D01*
X908D02*
X945D01*
X858D02*
X897D01*
X785D02*
X809D01*
X748D02*
X769D01*
X1030Y137D02*
X1056D01*
X1017D02*
X1026D01*
X909D02*
X945D01*
X858D02*
X897D01*
X785D02*
X809D01*
X748D02*
X769D01*
X1029Y136D02*
X1056D01*
X1016D02*
X1026D01*
X909D02*
X945D01*
X858D02*
X897D01*
X785D02*
X809D01*
X748D02*
X769D01*
X1029Y135D02*
X1055D01*
X1016D02*
X1025D01*
X909D02*
X946D01*
X858D02*
X897D01*
X785D02*
X809D01*
X748D02*
X769D01*
X1029Y134D02*
X1055D01*
X1016D02*
X1025D01*
X910D02*
X946D01*
X858D02*
X897D01*
X785D02*
X809D01*
X748D02*
X769D01*
X1028Y133D02*
X1055D01*
X1015D02*
X1024D01*
X910D02*
X946D01*
X858D02*
X897D01*
X785D02*
X809D01*
X748D02*
X769D01*
X1028Y132D02*
X1054D01*
X1015D02*
X1024D01*
X910D02*
X947D01*
X858D02*
X897D01*
X785D02*
X809D01*
X748D02*
X769D01*
X1027Y131D02*
X1054D01*
X1015D02*
X1024D01*
X911D02*
X947D01*
X858D02*
X897D01*
X785D02*
X809D01*
X748D02*
X769D01*
X1027Y130D02*
X1054D01*
X1014D02*
X1023D01*
X911D02*
X948D01*
X858D02*
X897D01*
X785D02*
X809D01*
X748D02*
X769D01*
X1027Y129D02*
X1053D01*
X1014D02*
X1023D01*
X911D02*
X948D01*
X858D02*
X897D01*
X785D02*
X809D01*
X748D02*
X769D01*
X1026Y128D02*
X1053D01*
X1014D02*
X1023D01*
X912D02*
X948D01*
X858D02*
X897D01*
X785D02*
X809D01*
X748D02*
X769D01*
X1026Y127D02*
X1052D01*
X1013D02*
X1022D01*
X912D02*
X949D01*
X858D02*
X897D01*
X785D02*
X809D01*
X748D02*
X769D01*
X1026Y126D02*
X1052D01*
X1013D02*
X1022D01*
X913D02*
X949D01*
X858D02*
X897D01*
X785D02*
X809D01*
X748D02*
X769D01*
X1025Y125D02*
X1051D01*
X1013D02*
X1022D01*
X913D02*
X950D01*
X858D02*
X897D01*
X785D02*
X809D01*
X748D02*
X769D01*
X1025Y124D02*
X1051D01*
X1012D02*
X1021D01*
X913D02*
X950D01*
X858D02*
X897D01*
X785D02*
X809D01*
X748D02*
X769D01*
X1024Y123D02*
X1051D01*
X1012D02*
X1021D01*
X914D02*
X950D01*
X858D02*
X897D01*
X785D02*
X809D01*
X748D02*
X769D01*
X1024Y122D02*
X1050D01*
X1012D02*
X1021D01*
X914D02*
X951D01*
X858D02*
X897D01*
X785D02*
X809D01*
X748D02*
X769D01*
X1024Y121D02*
X1050D01*
X1011D02*
X1020D01*
X914D02*
X951D01*
X858D02*
X897D01*
X785D02*
X809D01*
X748D02*
X769D01*
X1023Y120D02*
X1049D01*
X1011D02*
X1020D01*
X915D02*
X952D01*
X858D02*
X897D01*
X785D02*
X809D01*
X748D02*
X769D01*
X1023Y119D02*
X1049D01*
X1010D02*
X1019D01*
X915D02*
X952D01*
X858D02*
X897D01*
X785D02*
X809D01*
X748D02*
X769D01*
X1023Y118D02*
X1049D01*
X1010D02*
X1019D01*
X916D02*
X952D01*
X858D02*
X897D01*
X785D02*
X809D01*
X748D02*
X769D01*
X1022Y117D02*
X1048D01*
X1010D02*
X1019D01*
X916D02*
X953D01*
X858D02*
X897D01*
X785D02*
X809D01*
X748D02*
X769D01*
X1022Y116D02*
X1048D01*
X1009D02*
X1018D01*
X916D02*
X953D01*
X858D02*
X897D01*
X785D02*
X809D01*
X708D02*
X769D01*
X1021Y115D02*
X1047D01*
X1009D02*
X1018D01*
X917D02*
X953D01*
X858D02*
X897D01*
X785D02*
X809D01*
X708D02*
X769D01*
X1021Y114D02*
X1047D01*
X1009D02*
X1017D01*
X917D02*
X954D01*
X858D02*
X897D01*
X785D02*
X809D01*
X708D02*
X769D01*
X1021Y113D02*
X1047D01*
X1008D02*
X1017D01*
X917D02*
X954D01*
X858D02*
X897D01*
X785D02*
X809D01*
X708D02*
X769D01*
X1020Y112D02*
X1046D01*
X1008D02*
X1017D01*
X918D02*
X955D01*
X858D02*
X897D01*
X785D02*
X809D01*
X708D02*
X769D01*
X1020Y111D02*
X1046D01*
X1008D02*
X1016D01*
X918D02*
X955D01*
X858D02*
X897D01*
X785D02*
X809D01*
X708D02*
X769D01*
X1020Y110D02*
X1045D01*
X1007D02*
X1016D01*
X918D02*
X955D01*
X858D02*
X897D01*
X785D02*
X809D01*
X708D02*
X769D01*
X1019Y109D02*
X1045D01*
X1007D02*
X1016D01*
X919D02*
X956D01*
X858D02*
X897D01*
X785D02*
X809D01*
X708D02*
X769D01*
X1019Y108D02*
X1045D01*
X1007D02*
X1015D01*
X919D02*
X956D01*
X858D02*
X897D01*
X785D02*
X809D01*
X708D02*
X769D01*
X1018Y107D02*
X1044D01*
X1006D02*
X1015D01*
X920D02*
X957D01*
X858D02*
X897D01*
X785D02*
X809D01*
X708D02*
X769D01*
X1018Y106D02*
X1044D01*
X1006D02*
X1015D01*
X920D02*
X957D01*
X858D02*
X897D01*
X785D02*
X809D01*
X708D02*
X769D01*
X1018Y105D02*
X1043D01*
X1005D02*
X1014D01*
X920D02*
X957D01*
X858D02*
X897D01*
X785D02*
X809D01*
X708D02*
X769D01*
X1017Y104D02*
X1043D01*
X1005D02*
X1014D01*
X921D02*
X958D01*
X858D02*
X897D01*
X785D02*
X809D01*
X708D02*
X769D01*
X1017Y103D02*
X1043D01*
X1005D02*
X1013D01*
X921D02*
X958D01*
X858D02*
X897D01*
X785D02*
X809D01*
X708D02*
X769D01*
X1017Y102D02*
X1042D01*
X1004D02*
X1013D01*
X921D02*
X958D01*
X858D02*
X897D01*
X785D02*
X809D01*
X708D02*
X769D01*
X1016Y101D02*
X1042D01*
X1004D02*
X1013D01*
X922D02*
X959D01*
X858D02*
X897D01*
X785D02*
X809D01*
X708D02*
X769D01*
X1016Y100D02*
X1041D01*
X1004D02*
X1012D01*
X922D02*
X959D01*
X858D02*
X897D01*
X785D02*
X809D01*
X708D02*
X769D01*
X1016Y99D02*
X1041D01*
X1003D02*
X1012D01*
X923D02*
X960D01*
X858D02*
X897D01*
X785D02*
X809D01*
X708D02*
X769D01*
X1015Y98D02*
X1041D01*
X1003D02*
X1012D01*
X923D02*
X960D01*
X858D02*
X897D01*
X785D02*
X809D01*
X708D02*
X769D01*
X1015Y97D02*
X1040D01*
X1003D02*
X1011D01*
X923D02*
X960D01*
X858D02*
X897D01*
X785D02*
X809D01*
X708D02*
X769D01*
X1014Y96D02*
X1040D01*
X1002D02*
X1011D01*
X924D02*
X961D01*
X858D02*
X897D01*
X785D02*
X809D01*
X708D02*
X769D01*
X1014Y95D02*
X1039D01*
X1002D02*
X1010D01*
X924D02*
X961D01*
X858D02*
X897D01*
X785D02*
X809D01*
X748D02*
X769D01*
X1014Y94D02*
X1039D01*
X1002D02*
X1010D01*
X924D02*
X962D01*
X858D02*
X897D01*
X785D02*
X809D01*
X748D02*
X769D01*
X1013Y93D02*
X1039D01*
X1001D02*
X1010D01*
X925D02*
X962D01*
X858D02*
X897D01*
X785D02*
X809D01*
X748D02*
X769D01*
X1013Y92D02*
X1038D01*
X1001D02*
X1009D01*
X925D02*
X962D01*
X858D02*
X897D01*
X785D02*
X809D01*
X748D02*
X769D01*
X1013Y91D02*
X1038D01*
X1001D02*
X1009D01*
X926D02*
X963D01*
X858D02*
X897D01*
X785D02*
X809D01*
X748D02*
X769D01*
X1012Y90D02*
X1037D01*
X1000D02*
X1009D01*
X926D02*
X963D01*
X858D02*
X897D01*
X785D02*
X810D01*
X748D02*
X769D01*
X1012Y89D02*
X1037D01*
X1000D02*
X1008D01*
X926D02*
X963D01*
X858D02*
X897D01*
X785D02*
X810D01*
X748D02*
X769D01*
X1012Y88D02*
X1037D01*
X999D02*
X1008D01*
X927D02*
X964D01*
X858D02*
X897D01*
X785D02*
X810D01*
X748D02*
X769D01*
X1011Y87D02*
X1036D01*
X999D02*
X1007D01*
X927D02*
X964D01*
X857D02*
X897D01*
X785D02*
X810D01*
X748D02*
X769D01*
X1011Y86D02*
X1036D01*
X999D02*
X1007D01*
X927D02*
X965D01*
X857D02*
X897D01*
X785D02*
X810D01*
X748D02*
X769D01*
X1010Y85D02*
X1035D01*
X998D02*
X1007D01*
X928D02*
X965D01*
X857D02*
X897D01*
X785D02*
X811D01*
X748D02*
X769D01*
X1010Y84D02*
X1035D01*
X998D02*
X1006D01*
X928D02*
X965D01*
X857D02*
X897D01*
X785D02*
X811D01*
X748D02*
X769D01*
X1010Y83D02*
X1035D01*
X998D02*
X1006D01*
X928D02*
X966D01*
X857D02*
X897D01*
X785D02*
X812D01*
X748D02*
X769D01*
X1009Y82D02*
X1034D01*
X997D02*
X1006D01*
X929D02*
X966D01*
X856D02*
X897D01*
X785D02*
X812D01*
X748D02*
X769D01*
X1009Y81D02*
X1034D01*
X997D02*
X1005D01*
X929D02*
X967D01*
X856D02*
X897D01*
X785D02*
X812D01*
X748D02*
X769D01*
X1009Y80D02*
X1033D01*
X997D02*
X1005D01*
X930D02*
X967D01*
X856D02*
X897D01*
X785D02*
X813D01*
X748D02*
X769D01*
X1008Y79D02*
X1033D01*
X996D02*
X1005D01*
X930D02*
X967D01*
X855D02*
X897D01*
X785D02*
X814D01*
X748D02*
X769D01*
X1008Y78D02*
X1033D01*
X996D02*
X1004D01*
X930D02*
X968D01*
X855D02*
X897D01*
X785D02*
X814D01*
X748D02*
X769D01*
X1007Y77D02*
X1032D01*
X996D02*
X1004D01*
X931D02*
X968D01*
X854D02*
X897D01*
X785D02*
X815D01*
X748D02*
X769D01*
X1007Y76D02*
X1032D01*
X995D02*
X1003D01*
X931D02*
X969D01*
X854D02*
X897D01*
X785D02*
X816D01*
X748D02*
X769D01*
X1007Y75D02*
X1031D01*
X995D02*
X1003D01*
X931D02*
X969D01*
X853D02*
X897D01*
X785D02*
X817D01*
X748D02*
X769D01*
X1006Y74D02*
X1031D01*
X995D02*
X1003D01*
X932D02*
X969D01*
X852D02*
X897D01*
X785D02*
X818D01*
X748D02*
X769D01*
X1006Y73D02*
X1031D01*
X994D02*
X1002D01*
X932D02*
X970D01*
X851D02*
X897D01*
X785D02*
X819D01*
X748D02*
X769D01*
X1006Y72D02*
X1030D01*
X994D02*
X1002D01*
X932D02*
X970D01*
X850D02*
X897D01*
X785D02*
X821D01*
X748D02*
X769D01*
X1005Y71D02*
X1030D01*
X993D02*
X1002D01*
X933D02*
X970D01*
X848D02*
X897D01*
X785D02*
X823D01*
X748D02*
X769D01*
X1005Y70D02*
X1029D01*
X993D02*
X1001D01*
X933D02*
X971D01*
X846D02*
X897D01*
X785D02*
X826D01*
X748D02*
X769D01*
X1005Y69D02*
X1029D01*
X993D02*
X1001D01*
X934D02*
X971D01*
X841D02*
X897D01*
X785D02*
X830D01*
X748D02*
X769D01*
X1004Y68D02*
X1029D01*
X992D02*
X1001D01*
X934D02*
X972D01*
X785D02*
X897D01*
X748D02*
X769D01*
X1004Y67D02*
X1028D01*
X992D02*
X1000D01*
X934D02*
X972D01*
X785D02*
X897D01*
X748D02*
X769D01*
X1003Y66D02*
X1028D01*
X992D02*
X1000D01*
X935D02*
X972D01*
X785D02*
X897D01*
X748D02*
X769D01*
X1003Y65D02*
X1027D01*
X991D02*
X999D01*
X935D02*
X973D01*
X785D02*
X896D01*
X748D02*
X769D01*
X1003Y64D02*
X1027D01*
X991D02*
X999D01*
X935D02*
X973D01*
X785D02*
X896D01*
X748D02*
X769D01*
X1002Y63D02*
X1027D01*
X991D02*
X999D01*
X936D02*
X974D01*
X785D02*
X896D01*
X748D02*
X769D01*
X1002Y62D02*
X1026D01*
X990D02*
X998D01*
X936D02*
X974D01*
X785D02*
X895D01*
X693D02*
X769D01*
X1002Y61D02*
X1026D01*
X990D02*
X998D01*
X936D02*
X974D01*
X785D02*
X895D01*
X693D02*
X769D01*
X1001Y60D02*
X1025D01*
X990D02*
X998D01*
X937D02*
X975D01*
X785D02*
X895D01*
X693D02*
X769D01*
X1001Y59D02*
X1025D01*
X989D02*
X997D01*
X937D02*
X975D01*
X785D02*
X894D01*
X693D02*
X769D01*
X1001Y58D02*
X1025D01*
X989D02*
X997D01*
X938D02*
X976D01*
X785D02*
X894D01*
X693D02*
X769D01*
X1000Y57D02*
X1024D01*
X989D02*
X996D01*
X938D02*
X976D01*
X794D02*
X893D01*
X785D02*
X793D01*
X693D02*
X769D01*
X1000Y56D02*
X1024D01*
X988D02*
X996D01*
X938D02*
X976D01*
X794D02*
X892D01*
X785D02*
X793D01*
X693D02*
X769D01*
X999Y55D02*
X1023D01*
X988D02*
X996D01*
X939D02*
X977D01*
X795D02*
X892D01*
X784D02*
X793D01*
X693D02*
X769D01*
X999Y54D02*
X1023D01*
X987D02*
X995D01*
X939D02*
X977D01*
X796D02*
X891D01*
X784D02*
X793D01*
X693D02*
X770D01*
X999Y53D02*
X1023D01*
X987D02*
X995D01*
X939D02*
X977D01*
X796D02*
X890D01*
X784D02*
X793D01*
X693D02*
X770D01*
X998Y52D02*
X1022D01*
X987D02*
X995D01*
X940D02*
X978D01*
X797D02*
X889D01*
X784D02*
X793D01*
X693D02*
X770D01*
X998Y51D02*
X1022D01*
X986D02*
X994D01*
X940D02*
X978D01*
X798D02*
X888D01*
X783D02*
X793D01*
X693D02*
X771D01*
X998Y50D02*
X1021D01*
X986D02*
X994D01*
X941D02*
X979D01*
X800D02*
X887D01*
X783D02*
X793D01*
X693D02*
X771D01*
X997Y49D02*
X1021D01*
X986D02*
X994D01*
X941D02*
X979D01*
X801D02*
X885D01*
X782D02*
X793D01*
X693D02*
X772D01*
X997Y48D02*
X1020D01*
X985D02*
X993D01*
X941D02*
X979D01*
X802D02*
X884D01*
X693D02*
X793D01*
X996Y47D02*
X1020D01*
X985D02*
X993D01*
X942D02*
X980D01*
X804D02*
X883D01*
X693D02*
X793D01*
X996Y46D02*
X1020D01*
X985D02*
X992D01*
X942D02*
X980D01*
X805D02*
X881D01*
X693D02*
X793D01*
X996Y45D02*
X1019D01*
X984D02*
X992D01*
X942D02*
X981D01*
X807D02*
X879D01*
X693D02*
X793D01*
X995Y44D02*
X1019D01*
X984D02*
X992D01*
X943D02*
X981D01*
X809D02*
X877D01*
X693D02*
X793D01*
X995Y43D02*
X1018D01*
X984D02*
X991D01*
X943D02*
X981D01*
X811D02*
X875D01*
X693D02*
X793D01*
X995Y42D02*
X1018D01*
X983D02*
X991D01*
X943D02*
X982D01*
X813D02*
X872D01*
X693D02*
X793D01*
X994Y41D02*
X1018D01*
X983D02*
X991D01*
X944D02*
X982D01*
X815D02*
X870D01*
X994Y40D02*
X1017D01*
X944D02*
X990D01*
X818D02*
X866D01*
X994Y39D02*
X1017D01*
X945D02*
X990D01*
X821D02*
X862D01*
X993Y38D02*
X1016D01*
X945D02*
X990D01*
X825D02*
X858D01*
X993Y37D02*
X1016D01*
X945D02*
X989D01*
X830D02*
X851D01*
X992Y36D02*
X1016D01*
X946D02*
X989D01*
X992Y35D02*
X1015D01*
X946D02*
X988D01*
X992Y34D02*
X1015D01*
X946D02*
X988D01*
X991Y33D02*
X1014D01*
X947D02*
X988D01*
X991Y32D02*
X1014D01*
X947D02*
X987D01*
X990Y31D02*
X1014D01*
X948D02*
X987D01*
X990Y30D02*
X1013D01*
X948D02*
X987D01*
X990Y29D02*
X1013D01*
X948D02*
X986D01*
X989Y28D02*
X1012D01*
X949D02*
X986D01*
X989Y27D02*
X1012D01*
X949D02*
X985D01*
X989Y26D02*
X1012D01*
X949D02*
X985D01*
X734D02*
X739D01*
X988Y25D02*
X1011D01*
X950D02*
X985D01*
X734D02*
X743D01*
X688D02*
X694D01*
X674D02*
X679D01*
X988Y24D02*
X1011D01*
X950D02*
X984D01*
X734D02*
X756D01*
X688D02*
X694D01*
X674D02*
X679D01*
X988Y23D02*
X1010D01*
X950D02*
X984D01*
X734D02*
X821D01*
X688D02*
X694D01*
X674D02*
X679D01*
X987Y22D02*
X1010D01*
X951D02*
X984D01*
X734D02*
X829D01*
X688D02*
X694D01*
X674D02*
X679D01*
X987Y21D02*
X1010D01*
X951D02*
X983D01*
X734D02*
X834D01*
X688D02*
X694D01*
X674D02*
X679D01*
X986Y20D02*
X1009D01*
X952D02*
X983D01*
X735D02*
X836D01*
X688D02*
X694D01*
X674D02*
X679D01*
X986Y19D02*
X1009D01*
X952D02*
X983D01*
X792D02*
X838D01*
X735D02*
X753D01*
X688D02*
X694D01*
X674D02*
X679D01*
X986Y18D02*
X1008D01*
X952D02*
X982D01*
X809D02*
X839D01*
X735D02*
X741D01*
X688D02*
X694D01*
X674D02*
X679D01*
X985Y17D02*
X1008D01*
X953D02*
X982D01*
X820D02*
X840D01*
X735D02*
X741D01*
X688D02*
X694D01*
X674D02*
X679D01*
X985Y16D02*
X1008D01*
X953D02*
X981D01*
X828D02*
X841D01*
X735D02*
X741D01*
X688D02*
X694D01*
X674D02*
X679D01*
X985Y15D02*
X1007D01*
X953D02*
X981D01*
X833D02*
X843D01*
X735D02*
X741D01*
X688D02*
X694D01*
X674D02*
X679D01*
X984Y14D02*
X1007D01*
X954D02*
X981D01*
X834D02*
X844D01*
X735D02*
X741D01*
X688D02*
X694D01*
X674D02*
X679D01*
X984Y13D02*
X1006D01*
X954D02*
X980D01*
X836D02*
X845D01*
X735D02*
X741D01*
X688D02*
X694D01*
X674D02*
X679D01*
X983Y12D02*
X1006D01*
X954D02*
X980D01*
X837D02*
X846D01*
X734D02*
X741D01*
X668D02*
X699D01*
X983Y11D02*
X1006D01*
X955D02*
X980D01*
X839D02*
X847D01*
X734D02*
X740D01*
X668D02*
X699D01*
X983Y10D02*
X1005D01*
X955D02*
X979D01*
X840D02*
X848D01*
X734D02*
X740D01*
X668D02*
X699D01*
X982Y9D02*
X1005D01*
X956D02*
X979D01*
X841D02*
X849D01*
X734D02*
X740D01*
X668D02*
X699D01*
X982Y8D02*
X1004D01*
X956D02*
X978D01*
X842D02*
X850D01*
X733D02*
X740D01*
X668D02*
X699D01*
X982Y7D02*
X1004D01*
X956D02*
X978D01*
X844D02*
X851D01*
X733D02*
X739D01*
X668D02*
X699D01*
X981Y6D02*
X1004D01*
X957D02*
X978D01*
X845D02*
X852D01*
X733D02*
X739D01*
X668D02*
X699D01*
X981Y5D02*
X1003D01*
X957D02*
X977D01*
X846D02*
X853D01*
X732D02*
X738D01*
X668D02*
X699D01*
X981Y4D02*
X1003D01*
X957D02*
X977D01*
X847D02*
X854D01*
X732D02*
X738D01*
X669D02*
X699D01*
X980Y3D02*
X1002D01*
X958D02*
X977D01*
X848D02*
X855D01*
X732D02*
X738D01*
X669D02*
X699D01*
X980Y2D02*
X1002D01*
X958D02*
X976D01*
X849D02*
X856D01*
X732D02*
X737D01*
X669D02*
X699D01*
X980Y1D02*
X1002D01*
X958D02*
X976D01*
X850D02*
X857D01*
X731D02*
X737D01*
X669D02*
X699D01*
X979Y0D02*
X1001D01*
X959D02*
X975D01*
X851D02*
X858D01*
X731D02*
X737D01*
X669D02*
X699D01*
X979Y-1D02*
X1001D01*
X959D02*
X975D01*
X852D02*
X859D01*
X731D02*
X736D01*
X670D02*
X698D01*
X978Y-2D02*
X1000D01*
X960D02*
X975D01*
X853D02*
X860D01*
X730D02*
X736D01*
X670D02*
X698D01*
X978Y-3D02*
X1000D01*
X960D02*
X974D01*
X854D02*
X862D01*
X730D02*
X736D01*
X670D02*
X698D01*
X978Y-4D02*
X1000D01*
X960D02*
X974D01*
X855D02*
X863D01*
X730D02*
X736D01*
X671D02*
X697D01*
X977Y-5D02*
X999D01*
X961D02*
X974D01*
X856D02*
X864D01*
X730D02*
X736D01*
X671D02*
X697D01*
X977Y-6D02*
X999D01*
X961D02*
X973D01*
X857D02*
X865D01*
X730D02*
X736D01*
X672D02*
X696D01*
X977Y-7D02*
X998D01*
X961D02*
X973D01*
X858D02*
X867D01*
X730D02*
X736D01*
X673D02*
X696D01*
X976Y-8D02*
X998D01*
X962D02*
X973D01*
X859D02*
X868D01*
X730D02*
X736D01*
X674D02*
X694D01*
X976Y-9D02*
X998D01*
X962D02*
X972D01*
X860D02*
X870D01*
X730D02*
X736D01*
X676D02*
X692D01*
X975Y-10D02*
X997D01*
X962D02*
X972D01*
X861D02*
X872D01*
X730D02*
X736D01*
X681D02*
X687D01*
X975Y-11D02*
X997D01*
X963D02*
X971D01*
X863D02*
X874D01*
X730D02*
X736D01*
X681D02*
X687D01*
X975Y-12D02*
X996D01*
X963D02*
X971D01*
X864D02*
X877D01*
X730D02*
X736D01*
X681D02*
X687D01*
X974Y-13D02*
X996D01*
X964D02*
X971D01*
X865D02*
X881D01*
X730D02*
X736D01*
X681D02*
X687D01*
X974Y-14D02*
X995D01*
X964D02*
X970D01*
X867D02*
X885D01*
X731D02*
X737D01*
X681D02*
X687D01*
X974Y-15D02*
X995D01*
X964D02*
X970D01*
X869D02*
X888D01*
X731D02*
X737D01*
X681D02*
X687D01*
X973Y-16D02*
X995D01*
X965D02*
X970D01*
X872D02*
X891D01*
X731D02*
X737D01*
X681D02*
X687D01*
X973Y-17D02*
X994D01*
X965D02*
X969D01*
X876D02*
X894D01*
X731D02*
X738D01*
X681D02*
X687D01*
X973Y-18D02*
X994D01*
X966D02*
X969D01*
X879D02*
X896D01*
X732D02*
X738D01*
X681D02*
X688D01*
X972Y-19D02*
X993D01*
X966D02*
X968D01*
X883D02*
X898D01*
X732D02*
X738D01*
X682D02*
X688D01*
X972Y-20D02*
X993D01*
X966D02*
X968D01*
X887D02*
X899D01*
X732D02*
X739D01*
X682D02*
X688D01*
X971Y-21D02*
X993D01*
X967D02*
X968D01*
X890D02*
X900D01*
X733D02*
X739D01*
X682D02*
X688D01*
X971Y-22D02*
X992D01*
X892D02*
X901D01*
X733D02*
X739D01*
X682D02*
X688D01*
X971Y-23D02*
X992D01*
X894D02*
X902D01*
X733D02*
X740D01*
X682D02*
X688D01*
X970Y-24D02*
X991D01*
X895D02*
X903D01*
X734D02*
X740D01*
X683D02*
X689D01*
X970Y-25D02*
X991D01*
X897D02*
X904D01*
X734D02*
X741D01*
X683D02*
X689D01*
X970Y-26D02*
X991D01*
X898D02*
X905D01*
X855D02*
X862D01*
X734D02*
X741D01*
X683D02*
X689D01*
X969Y-27D02*
X990D01*
X899D02*
X906D01*
X851D02*
X866D01*
X735D02*
X741D01*
X683D02*
X690D01*
X970Y-28D02*
X990D01*
X900D02*
X907D01*
X850D02*
X868D01*
X767D02*
X774D01*
X735D02*
X741D01*
X684D02*
X690D01*
X970Y-29D02*
X989D01*
X901D02*
X908D01*
X848D02*
X869D01*
X763D02*
X778D01*
X735D02*
X742D01*
X684D02*
X690D01*
X970Y-30D02*
X989D01*
X902D02*
X908D01*
X847D02*
X871D01*
X761D02*
X781D01*
X736D02*
X742D01*
X685D02*
X691D01*
X970Y-31D02*
X989D01*
X903D02*
X909D01*
X861D02*
X872D01*
X846D02*
X855D01*
X759D02*
X782D01*
X736D02*
X742D01*
X685D02*
X691D01*
X971Y-32D02*
X988D01*
X904D02*
X910D01*
X864D02*
X872D01*
X845D02*
X853D01*
X758D02*
X783D01*
X736D02*
X742D01*
X685D02*
X692D01*
X971Y-33D02*
X988D01*
X904D02*
X911D01*
X865D02*
X873D01*
X845D02*
X851D01*
X775D02*
X784D01*
X757D02*
X765D01*
X736D02*
X742D01*
X686D02*
X693D01*
X971Y-34D02*
X987D01*
X905D02*
X911D01*
X867D02*
X874D01*
X844D02*
X850D01*
X777D02*
X785D01*
X756D02*
X763D01*
X736D02*
X742D01*
X686D02*
X693D01*
X971Y-35D02*
X987D01*
X906D02*
X912D01*
X868D02*
X874D01*
X844D02*
X849D01*
X778D02*
X785D01*
X756D02*
X762D01*
X736D02*
X742D01*
X687D02*
X694D01*
X971Y-36D02*
X986D01*
X907D02*
X913D01*
X868D02*
X875D01*
X843D02*
X848D01*
X779D02*
X786D01*
X755D02*
X761D01*
X736D02*
X742D01*
X688D02*
X695D01*
X971Y-37D02*
X986D01*
X907D02*
X913D01*
X869D02*
X875D01*
X843D02*
X848D01*
X780D02*
X786D01*
X754D02*
X760D01*
X736D02*
X742D01*
X688D02*
X696D01*
X971Y-38D02*
X985D01*
X908D02*
X914D01*
X870D02*
X876D01*
X843D02*
X847D01*
X780D02*
X787D01*
X754D02*
X759D01*
X736D02*
X742D01*
X689D02*
X697D01*
X971Y-39D02*
X984D01*
X908D02*
X914D01*
X870D02*
X876D01*
X842D02*
X847D01*
X781D02*
X787D01*
X754D02*
X758D01*
X736D02*
X742D01*
X690D02*
X698D01*
X970Y-40D02*
X983D01*
X908D02*
X914D01*
X870D02*
X876D01*
X842D02*
X847D01*
X781D02*
X787D01*
X753D02*
X758D01*
X736D02*
X741D01*
X691D02*
X699D01*
X970Y-41D02*
X983D01*
X908D02*
X914D01*
X871D02*
X876D01*
X842D02*
X846D01*
X782D02*
X788D01*
X753D02*
X758D01*
X735D02*
X741D01*
X691D02*
X700D01*
X969Y-42D02*
X982D01*
X908D02*
X913D01*
X871D02*
X877D01*
X842D02*
X846D01*
X782D02*
X788D01*
X753D02*
X757D01*
X735D02*
X741D01*
X693D02*
X702D01*
X968Y-43D02*
X981D01*
X907D02*
X913D01*
X871D02*
X877D01*
X842D02*
X846D01*
X782D02*
X788D01*
X753D02*
X757D01*
X734D02*
X740D01*
X694D02*
X704D01*
X967Y-44D02*
X980D01*
X906D02*
X913D01*
X871D02*
X877D01*
X842D02*
X846D01*
X782D02*
X788D01*
X753D02*
X757D01*
X733D02*
X740D01*
X695D02*
X706D01*
X965Y-45D02*
X978D01*
X905D02*
X913D01*
X871D02*
X877D01*
X842D02*
X846D01*
X782D02*
X788D01*
X753D02*
X757D01*
X732D02*
X739D01*
X696D02*
X709D01*
X964Y-46D02*
X977D01*
X905D02*
X915D01*
X871D02*
X877D01*
X842D02*
X846D01*
X782D02*
X788D01*
X753D02*
X756D01*
X731D02*
X739D01*
X697D02*
X713D01*
X962Y-47D02*
X975D01*
X904D02*
X919D01*
X871D02*
X877D01*
X842D02*
X846D01*
X782D02*
X788D01*
X753D02*
X756D01*
X699D02*
X738D01*
X958Y-48D02*
X974D01*
X904D02*
X927D01*
X871D02*
X876D01*
X843D02*
X846D01*
X782D02*
X788D01*
X753D02*
X756D01*
X701D02*
X737D01*
X904Y-49D02*
X972D01*
X870D02*
X876D01*
X843D02*
X846D01*
X782D02*
X788D01*
X753D02*
X756D01*
X703D02*
X736D01*
X905Y-50D02*
X969D01*
X870D02*
X876D01*
X843D02*
X846D01*
X782D02*
X788D01*
X753D02*
X757D01*
X706D02*
X735D01*
X913Y-51D02*
X966D01*
X869D02*
X876D01*
X844D02*
X847D01*
X781D02*
X788D01*
X754D02*
X757D01*
X710D02*
X731D01*
X939Y-52D02*
X954D01*
X869D02*
X875D01*
X844D02*
X847D01*
X781D02*
X788D01*
X754D02*
X757D01*
X869Y-53D02*
X875D01*
X845D02*
X847D01*
X781D02*
X787D01*
X755D02*
X758D01*
X872Y-54D02*
X875D01*
X846D02*
X848D01*
X780D02*
X787D01*
X756D02*
X758D01*
X847Y-55D02*
X849D01*
X782D02*
X787D01*
X757D02*
X758D01*
X848Y-56D02*
X849D01*
X785D02*
X786D01*
X758D02*
X759D01*
X798Y-57D02*
X803D01*
X759D02*
X760D01*
X800Y-58D02*
X804D01*
X802Y-59D02*
X805D01*
X1043Y-62D02*
X1051D01*
X1029D02*
X1032D01*
X911D02*
X919D01*
X898D02*
X901D01*
X794D02*
X812D01*
X1043Y-63D02*
X1051D01*
X1030D02*
X1033D01*
X911D02*
X919D01*
X898D02*
X901D01*
X794D02*
X812D01*
X1042Y-64D02*
X1050D01*
X1030D02*
X1033D01*
X911D02*
X919D01*
X898D02*
X901D01*
X804D02*
X812D01*
X1042Y-65D02*
X1050D01*
X1031D02*
X1034D01*
X911D02*
X919D01*
X898D02*
X901D01*
X804D02*
X812D01*
X1041Y-66D02*
X1049D01*
X1031D02*
X1034D01*
X1018D02*
X1021D01*
X1007D02*
X1012D01*
X989D02*
X994D01*
X948D02*
X953D01*
X911D02*
X919D01*
X898D02*
X901D01*
X876D02*
X882D01*
X843D02*
X848D01*
X804D02*
X812D01*
X785D02*
X791D01*
X723D02*
X728D01*
X1041Y-67D02*
X1049D01*
X1032D02*
X1035D01*
X1020D02*
X1022D01*
X1007D02*
X1012D01*
X989D02*
X994D01*
X948D02*
X953D01*
X911D02*
X919D01*
X898D02*
X901D01*
X876D02*
X882D01*
X843D02*
X848D01*
X804D02*
X812D01*
X785D02*
X791D01*
X746D02*
X750D01*
X723D02*
X728D01*
X1041Y-68D02*
X1049D01*
X1032D02*
X1035D01*
X1007D02*
X1012D01*
X948D02*
X953D01*
X911D02*
X919D01*
X898D02*
X901D01*
X876D02*
X882D01*
X804D02*
X812D01*
X785D02*
X791D01*
X746D02*
X751D01*
X1040Y-69D02*
X1048D01*
X1033D02*
X1036D01*
X1018D02*
X1025D01*
X1007D02*
X1012D01*
X999D02*
X1005D01*
X989D02*
X995D01*
X975D02*
X982D01*
X965D02*
X971D01*
X956D02*
X962D01*
X948D02*
X953D01*
X935D02*
X941D01*
X911D02*
X919D01*
X898D02*
X901D01*
X889D02*
X895D01*
X884D02*
X888D01*
X876D02*
X882D01*
X870D02*
X875D01*
X853D02*
X863D01*
X843D02*
X848D01*
X834D02*
X840D01*
X826D02*
X832D01*
X795D02*
X812D01*
X785D02*
X791D01*
X772D02*
X779D01*
X756D02*
X763D01*
X743D02*
X753D01*
X736D02*
X741D01*
X730D02*
X734D01*
X722D02*
X728D01*
X711D02*
X717D01*
X705D02*
X707D01*
X697D02*
X703D01*
X688D02*
X694D01*
X675D02*
X682D01*
X1040Y-70D02*
X1048D01*
X1033D02*
X1036D01*
X1022D02*
X1026D01*
X1016D02*
X1020D01*
X1007D02*
X1012D01*
X998D02*
X1006D01*
X989D02*
X995D01*
X980D02*
X985D01*
X974D02*
X976D01*
X965D02*
X971D01*
X956D02*
X962D01*
X948D02*
X953D01*
X939D02*
X943D01*
X933D02*
X937D01*
X911D02*
X919D01*
X898D02*
X901D01*
X883D02*
X895D01*
X868D02*
X882D01*
X862D02*
X864D01*
X852D02*
X857D01*
X843D02*
X848D01*
X825D02*
X840D01*
X804D02*
X812D01*
X785D02*
X791D01*
X776D02*
X781D01*
X770D02*
X774D01*
X760D02*
X765D01*
X754D02*
X757D01*
X745D02*
X751D01*
X730D02*
X741D01*
X722D02*
X728D01*
X709D02*
X719D01*
X705D02*
X708D01*
X697D02*
X703D01*
X688D02*
X694D01*
X679D02*
X684D01*
X673D02*
X677D01*
X1039Y-71D02*
X1047D01*
X1034D02*
X1037D01*
X1022D02*
X1028D01*
X1015D02*
X1020D01*
X1006D02*
X1012D01*
X998D02*
X1003D01*
X989D02*
X995D01*
X981D02*
X986D01*
X973D02*
X976D01*
X965D02*
X971D01*
X956D02*
X962D01*
X948D02*
X953D01*
X939D02*
X944D01*
X932D02*
X937D01*
X911D02*
X919D01*
X898D02*
X901D01*
X889D02*
X895D01*
X883D02*
X887D01*
X876D02*
X882D01*
X867D02*
X873D01*
X862D02*
X865D01*
X852D02*
X857D01*
X843D02*
X848D01*
X833D02*
X840D01*
X825D02*
X831D01*
X804D02*
X812D01*
X785D02*
X791D01*
X777D02*
X782D01*
X770D02*
X774D01*
X761D02*
X766D01*
X754D02*
X756D01*
X746D02*
X751D01*
X735D02*
X741D01*
X730D02*
X734D01*
X722D02*
X728D01*
X714D02*
X719D01*
X705D02*
X711D01*
X697D02*
X703D01*
X688D02*
X694D01*
X680D02*
X685D01*
X672D02*
X677D01*
X1039Y-72D02*
X1047D01*
X1034D02*
X1037D01*
X1023D02*
X1028D01*
X1015D02*
X1019D01*
X1006D02*
X1012D01*
X998D02*
X1003D01*
X989D02*
X995D01*
X981D02*
X986D01*
X975D02*
X976D01*
X965D02*
X971D01*
X956D02*
X962D01*
X948D02*
X953D01*
X939D02*
X945D01*
X932D02*
X936D01*
X911D02*
X919D01*
X898D02*
X901D01*
X889D02*
X895D01*
X884D02*
X887D01*
X876D02*
X882D01*
X867D02*
X873D01*
X852D02*
X858D01*
X843D02*
X848D01*
X834D02*
X840D01*
X825D02*
X831D01*
X804D02*
X812D01*
X785D02*
X791D01*
X777D02*
X782D01*
X769D02*
X774D01*
X761D02*
X767D01*
X755D02*
X756D01*
X746D02*
X751D01*
X736D02*
X741D01*
X730D02*
X734D01*
X722D02*
X728D01*
X714D02*
X720D01*
X705D02*
X711D01*
X697D02*
X703D01*
X688D02*
X694D01*
X680D02*
X685D01*
X672D02*
X677D01*
X1038Y-73D02*
X1047D01*
X1034D02*
X1037D01*
X1015D02*
X1028D01*
X1007D02*
X1012D01*
X998D02*
X1003D01*
X989D02*
X995D01*
X981D02*
X987D01*
X965D02*
X971D01*
X956D02*
X962D01*
X948D02*
X953D01*
X932D02*
X945D01*
X911D02*
X919D01*
X898D02*
X901D01*
X889D02*
X895D01*
X876D02*
X882D01*
X867D02*
X873D01*
X858D02*
X862D01*
X852D02*
X857D01*
X843D02*
X848D01*
X834D02*
X840D01*
X825D02*
X831D01*
X804D02*
X812D01*
X785D02*
X791D01*
X769D02*
X783D01*
X761D02*
X767D01*
X746D02*
X751D01*
X736D02*
X741D01*
X722D02*
X728D01*
X714D02*
X720D01*
X705D02*
X711D01*
X697D02*
X703D01*
X688D02*
X694D01*
X672D02*
X686D01*
X1035Y-74D02*
X1046D01*
X1023D02*
X1029D01*
X1007D02*
X1012D01*
X998D02*
X1003D01*
X989D02*
X995D01*
X981D02*
X987D01*
X965D02*
X971D01*
X956D02*
X962D01*
X948D02*
X953D01*
X939D02*
X945D01*
X911D02*
X919D01*
X898D02*
X901D01*
X889D02*
X895D01*
X876D02*
X882D01*
X867D02*
X873D01*
X859D02*
X865D01*
X852D02*
X857D01*
X843D02*
X848D01*
X834D02*
X840D01*
X825D02*
X831D01*
X804D02*
X812D01*
X785D02*
X791D01*
X777D02*
X783D01*
X761D02*
X767D01*
X746D02*
X751D01*
X736D02*
X741D01*
X722D02*
X728D01*
X714D02*
X720D01*
X705D02*
X711D01*
X697D02*
X703D01*
X688D02*
X694D01*
X680D02*
X686D01*
X1035Y-75D02*
X1046D01*
X1023D02*
X1028D01*
X1016D02*
X1017D01*
X1007D02*
X1012D01*
X998D02*
X1003D01*
X989D02*
X995D01*
X981D02*
X987D01*
X973D02*
X975D01*
X965D02*
X971D01*
X956D02*
X962D01*
X948D02*
X953D01*
X939D02*
X945D01*
X933D02*
X934D01*
X911D02*
X919D01*
X899D02*
X902D01*
X889D02*
X895D01*
X876D02*
X882D01*
X867D02*
X873D01*
X860D02*
X865D01*
X852D02*
X857D01*
X843D02*
X848D01*
X834D02*
X840D01*
X825D02*
X831D01*
X804D02*
X812D01*
X785D02*
X791D01*
X777D02*
X783D01*
X770D02*
X771D01*
X761D02*
X767D01*
X753D02*
X756D01*
X746D02*
X751D01*
X736D02*
X741D01*
X722D02*
X728D01*
X714D02*
X720D01*
X705D02*
X711D01*
X697D02*
X703D01*
X688D02*
X694D01*
X680D02*
X685D01*
X673D02*
X674D01*
X1036Y-76D02*
X1045D01*
X1022D02*
X1028D01*
X1015D02*
X1017D01*
X1007D02*
X1012D01*
X998D02*
X1003D01*
X989D02*
X995D01*
X981D02*
X986D01*
X973D02*
X975D01*
X965D02*
X971D01*
X956D02*
X962D01*
X948D02*
X953D01*
X939D02*
X945D01*
X932D02*
X934D01*
X910D02*
X918D01*
X899D02*
X903D01*
X889D02*
X895D01*
X876D02*
X882D01*
X868D02*
X873D01*
X860D02*
X866D01*
X852D02*
X857D01*
X843D02*
X848D01*
X834D02*
X840D01*
X825D02*
X831D01*
X804D02*
X812D01*
X785D02*
X791D01*
X777D02*
X782D01*
X769D02*
X771D01*
X761D02*
X767D01*
X753D02*
X756D01*
X746D02*
X751D01*
X736D02*
X741D01*
X722D02*
X728D01*
X714D02*
X720D01*
X705D02*
X711D01*
X697D02*
X703D01*
X688D02*
X694D01*
X679D02*
X685D01*
X672D02*
X674D01*
X1036Y-77D02*
X1045D01*
X1022D02*
X1027D01*
X1015D02*
X1017D01*
X1007D02*
X1012D01*
X998D02*
X1003D01*
X989D02*
X995D01*
X980D02*
X985D01*
X974D02*
X976D01*
X956D02*
X971D01*
X948D02*
X953D01*
X938D02*
X944D01*
X932D02*
X934D01*
X901D02*
X917D01*
X889D02*
X895D01*
X879D02*
X882D01*
X875D02*
X878D01*
X868D02*
X874D01*
X859D02*
X865D01*
X851D02*
X858D01*
X843D02*
X848D01*
X834D02*
X840D01*
X825D02*
X831D01*
X792D02*
X812D01*
X785D02*
X791D01*
X776D02*
X781D01*
X770D02*
X772D01*
X761D02*
X766D01*
X754D02*
X756D01*
X745D02*
X751D01*
X743D02*
X744D01*
X736D02*
X741D01*
X722D02*
X728D01*
X713D02*
X719D01*
X705D02*
X712D01*
X688D02*
X702D01*
X679D02*
X684D01*
X672D02*
X675D01*
X1037Y-78D02*
X1044D01*
X1017D02*
X1025D01*
X1007D02*
X1012D01*
X998D02*
X1003D01*
X989D02*
X995D01*
X975D02*
X984D01*
X964D02*
X970D01*
X956D02*
X962D01*
X948D02*
X953D01*
X934D02*
X942D01*
X903D02*
X915D01*
X889D02*
X895D01*
X880D02*
X882D01*
X870D02*
X877D01*
X858D02*
X864D01*
X849D02*
X856D01*
X843D02*
X848D01*
X834D02*
X840D01*
X825D02*
X831D01*
X792D02*
X812D01*
X785D02*
X791D01*
X771D02*
X780D01*
X756D02*
X764D01*
X744D02*
X750D01*
X736D02*
X741D01*
X722D02*
X728D01*
X712D02*
X718D01*
X705D02*
X711D01*
X695D02*
X701D01*
X688D02*
X694D01*
X674D02*
X682D01*
X705Y-79D02*
X711D01*
X705Y-80D02*
X711D01*
X705Y-81D02*
X711D01*
D92*
X-1143Y812D02*
X-1166D01*
Y801D01*
X-1162Y797D01*
X-1154D01*
X-1151Y801D01*
Y812D01*
Y804D02*
X-1143Y797D01*
X-1166Y789D02*
X-1147D01*
X-1143Y785D01*
Y778D01*
X-1147Y774D01*
X-1166D01*
X-1162Y766D02*
X-1166Y762D01*
Y755D01*
X-1162Y751D01*
X-1158D01*
X-1154Y755D01*
X-1151Y751D01*
X-1147D01*
X-1143Y755D01*
Y762D01*
X-1147Y766D01*
X-1151D01*
X-1154Y762D01*
X-1158Y766D01*
X-1162D01*
X-1154Y762D02*
Y755D01*
X-994Y811D02*
X-1017D01*
Y800D01*
X-1013Y796D01*
X-1005D01*
X-1002Y800D01*
Y811D01*
Y803D02*
X-994Y796D01*
X-1017Y788D02*
X-998D01*
X-994Y784D01*
Y777D01*
X-998Y773D01*
X-1017D01*
Y765D02*
Y750D01*
X-1013D01*
X-998Y765D01*
X-994D01*
X-1269Y305D02*
X-1292D01*
Y294D01*
X-1288Y290D01*
X-1280D01*
X-1277Y294D01*
Y305D01*
Y297D02*
X-1269Y290D01*
X-1292Y282D02*
X-1273D01*
X-1269Y278D01*
Y271D01*
X-1273Y267D01*
X-1292D01*
X-1269Y248D02*
X-1292D01*
X-1280Y259D01*
Y244D01*
X-1292Y236D02*
X-1269D01*
Y225D01*
X-1273Y221D01*
X-1277D01*
X-1280Y225D01*
Y236D01*
Y225D01*
X-1284Y221D01*
X-1288D01*
X-1292Y225D01*
Y236D01*
X-1638Y307D02*
X-1661D01*
Y296D01*
X-1657Y292D01*
X-1649D01*
X-1646Y296D01*
Y307D01*
Y299D02*
X-1638Y292D01*
X-1661Y284D02*
X-1642D01*
X-1638Y280D01*
Y273D01*
X-1642Y269D01*
X-1661D01*
X-1638Y250D02*
X-1661D01*
X-1649Y261D01*
Y246D01*
X-1638Y238D02*
X-1653D01*
X-1661Y230D01*
X-1653Y223D01*
X-1638D01*
X-1649D01*
Y238D01*
X-772Y-191D02*
Y-168D01*
X-783D01*
X-787Y-172D01*
Y-180D01*
X-783Y-183D01*
X-772D01*
X-780D02*
X-787Y-191D01*
X-795Y-168D02*
Y-187D01*
X-799Y-191D01*
X-806D01*
X-810Y-187D01*
Y-168D01*
X-833D02*
X-826Y-172D01*
X-818Y-180D01*
Y-187D01*
X-822Y-191D01*
X-829D01*
X-833Y-187D01*
Y-183D01*
X-829Y-180D01*
X-818D01*
X-638Y-194D02*
Y-171D01*
X-649D01*
X-653Y-175D01*
Y-183D01*
X-649Y-186D01*
X-638D01*
X-646D02*
X-653Y-194D01*
X-661Y-171D02*
Y-190D01*
X-665Y-194D01*
X-672D01*
X-676Y-190D01*
Y-171D01*
X-699D02*
X-684D01*
Y-183D01*
X-692Y-179D01*
X-695D01*
X-699Y-183D01*
Y-190D01*
X-695Y-194D01*
X-688D01*
X-684Y-190D01*
D93*
X1490Y866D02*
Y838D01*
Y852D01*
X1485Y857D01*
X1476D01*
X1471Y852D01*
Y838D01*
X1457Y861D02*
Y857D01*
X1462D01*
X1453D01*
X1457D01*
Y843D01*
X1453Y838D01*
X1434Y861D02*
Y857D01*
X1439D01*
X1429D01*
X1434D01*
Y843D01*
X1429Y838D01*
X1415Y829D02*
Y857D01*
X1401D01*
X1397Y852D01*
Y843D01*
X1401Y838D01*
X1415D01*
X1387Y857D02*
X1383D01*
Y852D01*
X1387D01*
Y857D01*
Y843D02*
X1383D01*
Y838D01*
X1387D01*
Y843D01*
X1364Y838D02*
X1345Y857D01*
X1336Y838D02*
X1317Y857D01*
X1308D02*
Y843D01*
X1303Y838D01*
X1299Y843D01*
X1294Y838D01*
X1289Y843D01*
Y857D01*
X1280D02*
Y843D01*
X1275Y838D01*
X1271Y843D01*
X1266Y838D01*
X1261Y843D01*
Y857D01*
X1252D02*
Y843D01*
X1247Y838D01*
X1243Y843D01*
X1238Y838D01*
X1233Y843D01*
Y857D01*
X1224Y838D02*
Y843D01*
X1219D01*
Y838D01*
X1224D01*
X1201Y857D02*
Y843D01*
X1196Y838D01*
X1182D01*
Y857D01*
X1173Y838D02*
X1159D01*
X1154Y843D01*
X1159Y847D01*
X1168D01*
X1173Y852D01*
X1168Y857D01*
X1154D01*
X1145Y866D02*
Y838D01*
Y852D01*
X1140Y857D01*
X1131D01*
X1126Y852D01*
Y838D01*
X1103D02*
X1112D01*
X1117Y843D01*
Y852D01*
X1112Y857D01*
X1103D01*
X1098Y852D01*
Y847D01*
X1117D01*
X1089Y857D02*
Y838D01*
Y847D01*
X1084Y852D01*
X1079Y857D01*
X1075D01*
X1061Y866D02*
Y838D01*
X1047D01*
X1042Y843D01*
Y847D01*
Y852D01*
X1047Y857D01*
X1061D01*
X1033D02*
Y838D01*
Y847D01*
X1028Y852D01*
X1023Y857D01*
X1019D01*
X1000Y838D02*
X991D01*
X986Y843D01*
Y852D01*
X991Y857D01*
X1000D01*
X1005Y852D01*
Y843D01*
X1000Y838D01*
X972D02*
X963D01*
X958Y843D01*
Y852D01*
X963Y857D01*
X972D01*
X977Y852D01*
Y843D01*
X972Y838D01*
X949D02*
Y866D01*
Y847D02*
X935Y857D01*
X949Y847D02*
X935Y838D01*
X907D02*
X916D01*
X921Y843D01*
Y852D01*
X916Y857D01*
X907D01*
X902Y852D01*
Y847D01*
X921D01*
X893Y838D02*
Y843D01*
X888D01*
Y838D01*
X893D01*
X851Y857D02*
X865D01*
X870Y852D01*
Y843D01*
X865Y838D01*
X851D01*
X837Y857D02*
X828D01*
X823Y852D01*
Y838D01*
X837D01*
X842Y843D01*
X837Y847D01*
X823D01*
X814Y838D02*
X795Y857D01*
X1484Y928D02*
Y905D01*
X1479Y900D01*
X1470D01*
X1465Y905D01*
Y928D01*
X1456Y900D02*
Y919D01*
X1442D01*
X1437Y914D01*
Y900D01*
X1428D02*
X1419D01*
X1423D01*
Y919D01*
X1428D01*
X1405D02*
X1395Y900D01*
X1386Y919D01*
X1363Y900D02*
X1372D01*
X1377Y905D01*
Y914D01*
X1372Y919D01*
X1363D01*
X1358Y914D01*
Y909D01*
X1377D01*
X1349Y919D02*
Y900D01*
Y909D01*
X1344Y914D01*
X1339Y919D01*
X1335D01*
X1321Y900D02*
X1307D01*
X1302Y905D01*
X1307Y909D01*
X1316D01*
X1321Y914D01*
X1316Y919D01*
X1302D01*
X1293Y900D02*
X1283D01*
X1288D01*
Y919D01*
X1293D01*
X1265Y923D02*
Y919D01*
X1269D01*
X1260D01*
X1265D01*
Y905D01*
X1260Y900D01*
X1232D02*
X1241D01*
X1246Y905D01*
Y914D01*
X1241Y919D01*
X1232D01*
X1227Y914D01*
Y909D01*
X1246D01*
X1171Y928D02*
Y900D01*
X1185D01*
X1190Y905D01*
Y914D01*
X1185Y919D01*
X1171D01*
X1148Y900D02*
X1157D01*
X1162Y905D01*
Y914D01*
X1157Y919D01*
X1148D01*
X1143Y914D01*
Y909D01*
X1162D01*
X1087Y923D02*
X1092Y928D01*
X1101D01*
X1106Y923D01*
Y919D01*
X1101Y914D01*
X1092D01*
X1087Y909D01*
Y905D01*
X1092Y900D01*
X1101D01*
X1106Y905D01*
X1078Y928D02*
Y900D01*
Y914D01*
X1073Y919D01*
X1064D01*
X1059Y914D01*
Y900D01*
X1036D02*
X1045D01*
X1050Y905D01*
Y914D01*
X1045Y919D01*
X1036D01*
X1031Y914D01*
Y909D01*
X1050D01*
X1022Y919D02*
Y900D01*
Y909D01*
X1017Y914D01*
X1013Y919D01*
X1008D01*
X994Y928D02*
Y900D01*
X980D01*
X975Y905D01*
Y909D01*
Y914D01*
X980Y919D01*
X994D01*
X966D02*
Y900D01*
Y909D01*
X962Y914D01*
X957Y919D01*
X952D01*
X934Y900D02*
X924D01*
X920Y905D01*
Y914D01*
X924Y919D01*
X934D01*
X938Y914D01*
Y905D01*
X934Y900D01*
X906D02*
X896D01*
X892Y905D01*
Y914D01*
X896Y919D01*
X906D01*
X910Y914D01*
Y905D01*
X906Y900D01*
X882D02*
Y928D01*
Y909D02*
X868Y919D01*
X882Y909D02*
X868Y900D01*
X840D02*
X850D01*
X854Y905D01*
Y914D01*
X850Y919D01*
X840D01*
X836Y914D01*
Y909D01*
X854D01*
X1482Y754D02*
Y726D01*
Y740D01*
X1477Y745D01*
X1468D01*
X1463Y740D01*
Y726D01*
X1449Y749D02*
Y745D01*
X1454D01*
X1445D01*
X1449D01*
Y731D01*
X1445Y726D01*
X1426Y749D02*
Y745D01*
X1431D01*
X1421D01*
X1426D01*
Y731D01*
X1421Y726D01*
X1407Y717D02*
Y745D01*
X1393D01*
X1389Y740D01*
Y731D01*
X1393Y726D01*
X1407D01*
X1379Y745D02*
X1375D01*
Y740D01*
X1379D01*
Y745D01*
Y731D02*
X1375D01*
Y726D01*
X1379D01*
Y731D01*
X1356Y726D02*
X1337Y745D01*
X1328Y726D02*
X1309Y745D01*
X1295Y726D02*
X1286D01*
X1281Y731D01*
Y740D01*
X1286Y745D01*
X1295D01*
X1300Y740D01*
Y731D01*
X1295Y726D01*
X1272Y717D02*
Y745D01*
X1258D01*
X1253Y740D01*
Y731D01*
X1258Y726D01*
X1272D01*
X1230D02*
X1239D01*
X1244Y731D01*
Y740D01*
X1239Y745D01*
X1230D01*
X1225Y740D01*
Y735D01*
X1244D01*
X1216Y726D02*
Y745D01*
X1202D01*
X1197Y740D01*
Y726D01*
X1174D02*
X1183D01*
X1188Y731D01*
Y740D01*
X1183Y745D01*
X1174D01*
X1169Y740D01*
Y735D01*
X1188D01*
X1141Y745D02*
X1155D01*
X1160Y740D01*
Y731D01*
X1155Y726D01*
X1141D01*
X1127D02*
X1118D01*
X1113Y731D01*
Y740D01*
X1118Y745D01*
X1127D01*
X1132Y740D01*
Y731D01*
X1127Y726D01*
X1104D02*
X1090D01*
X1085Y731D01*
X1090Y735D01*
X1099D01*
X1104Y740D01*
X1099Y745D01*
X1085D01*
X1076D02*
Y731D01*
X1071Y726D01*
X1057D01*
Y721D01*
X1062Y717D01*
X1067D01*
X1057Y726D02*
Y745D01*
X1048Y726D02*
X1034D01*
X1029Y731D01*
X1034Y735D01*
X1043D01*
X1048Y740D01*
X1043Y745D01*
X1029D01*
X1020Y726D02*
Y731D01*
X1015D01*
Y726D01*
X1020D01*
X997D02*
X983D01*
X978Y731D01*
X983Y735D01*
X992D01*
X997Y740D01*
X992Y745D01*
X978D01*
X964Y726D02*
Y749D01*
Y740D01*
X969D01*
X960D01*
X964D01*
Y749D01*
X960Y754D01*
X946Y726D02*
Y731D01*
X941D01*
Y726D01*
X946D01*
X922D02*
Y745D01*
X908D01*
X904Y740D01*
Y726D01*
X880D02*
X890D01*
X894Y731D01*
Y740D01*
X890Y745D01*
X880D01*
X876Y740D01*
Y735D01*
X894D01*
X862Y749D02*
Y745D01*
X866D01*
X857D01*
X862D01*
Y731D01*
X857Y726D01*
X843D02*
X824Y745D01*
X1432Y809D02*
Y781D01*
Y795D01*
X1427Y800D01*
X1418D01*
X1413Y795D01*
Y781D01*
X1399Y804D02*
Y800D01*
X1404D01*
X1395D01*
X1399D01*
Y786D01*
X1395Y781D01*
X1376Y804D02*
Y800D01*
X1381D01*
X1371D01*
X1376D01*
Y786D01*
X1371Y781D01*
X1357Y772D02*
Y800D01*
X1343D01*
X1339Y795D01*
Y786D01*
X1343Y781D01*
X1357D01*
X1329Y800D02*
X1325D01*
Y795D01*
X1329D01*
Y800D01*
Y786D02*
X1325D01*
Y781D01*
X1329D01*
Y786D01*
X1306Y781D02*
X1287Y800D01*
X1278Y781D02*
X1259Y800D01*
X1250Y772D02*
Y800D01*
X1236D01*
X1231Y795D01*
Y786D01*
X1236Y781D01*
X1250D01*
X1222Y800D02*
Y781D01*
Y790D01*
X1217Y795D01*
X1213Y800D01*
X1208D01*
X1189Y781D02*
X1180D01*
X1175Y786D01*
Y795D01*
X1180Y800D01*
X1189D01*
X1194Y795D01*
Y786D01*
X1189Y781D01*
X1166Y772D02*
X1161D01*
X1157Y776D01*
Y800D01*
X1124Y781D02*
X1133D01*
X1138Y786D01*
Y795D01*
X1133Y800D01*
X1124D01*
X1119Y795D01*
Y790D01*
X1138D01*
X1105Y804D02*
Y800D01*
X1110D01*
X1101D01*
X1105D01*
Y786D01*
X1101Y781D01*
X1087Y800D02*
X1077Y781D01*
X1068Y800D01*
X1059D02*
Y786D01*
X1054Y781D01*
X1040D01*
Y800D01*
X1017Y781D02*
X1026D01*
X1031Y786D01*
Y795D01*
X1026Y800D01*
X1017D01*
X1012Y795D01*
Y790D01*
X1031D01*
X1003Y781D02*
Y786D01*
X998D01*
Y781D01*
X1003D01*
X961Y800D02*
X975D01*
X979Y795D01*
Y786D01*
X975Y781D01*
X961D01*
X947D02*
X937D01*
X933Y786D01*
Y795D01*
X937Y800D01*
X947D01*
X951Y795D01*
Y786D01*
X947Y781D01*
X923D02*
Y800D01*
X919D01*
X914Y795D01*
Y781D01*
Y795D01*
X910Y800D01*
X905Y795D01*
Y781D01*
X896D02*
X877Y800D01*
D104*
X-1604Y269D02*
D03*
X-1231Y269D02*
D03*
X-1112Y788D02*
D03*
X-1061D02*
D03*
D107*
X-796Y-236D02*
D03*
X-671Y-235D02*
D03*
M02*
